<svg width="160" height="80" viewBox="0 0 180 100" fill="none" xmlns="http://www.w3.org/2000/svg">
<rect width="180" height="100" fill="#FE0A0A"/>
<path d="M60.7684 83.85C55.13 83.85 50.7596 82.3767 47.6571 79.43C44.5688 76.4692 42.9609 72.2475 42.8334 66.765C42.7625 63.0958 42.7059 59.2142 42.6634 55.12C42.635 51.0117 42.635 46.9104 42.6634 42.8162C42.6917 38.7079 42.7484 34.8192 42.8334 31.15C42.9609 25.6817 44.5759 21.4812 47.6784 18.5487C50.7809 15.6162 55.1442 14.15 60.7684 14.15C66.2367 14.15 70.5292 15.5879 73.6459 18.4637C76.7767 21.3396 78.4342 25.5471 78.6184 31.0862C78.7742 35.4779 78.8734 39.6358 78.9159 43.56C78.9584 47.4842 78.9513 51.3446 78.8946 55.1412C78.8521 58.9237 78.76 62.8337 78.6184 66.8712C78.4342 72.1554 76.8405 76.3062 73.8371 79.3237C70.848 82.3412 66.4917 83.85 60.7684 83.85ZM60.7684 81.81C65.7834 81.81 69.5517 80.4358 72.0734 77.6875C74.595 74.9392 75.9338 71.2629 76.0896 66.6587C76.2313 62.7204 76.3163 58.7679 76.3446 54.8012C76.3871 50.8346 76.3871 46.875 76.3446 42.9225C76.3021 38.97 76.21 35.0458 76.0684 31.15C75.9125 26.4325 74.5313 22.7633 71.9246 20.1425C69.318 17.5075 65.5992 16.19 60.7684 16.19C55.8809 16.19 52.1196 17.5004 49.4846 20.1212C46.8638 22.7421 45.4967 26.4396 45.3834 31.2137C45.2984 34.9396 45.2417 38.8212 45.2134 42.8587C45.185 46.8821 45.185 50.9196 45.2134 54.9712C45.2417 59.0229 45.2984 62.9329 45.3834 66.7012C45.4967 71.5179 46.8709 75.2437 49.5059 77.8787C52.155 80.4996 55.9092 81.81 60.7684 81.81ZM60.7684 79.77C56.7734 79.77 53.6567 78.6508 51.4184 76.4125C49.1942 74.16 48.0325 70.9017 47.9334 66.6375C47.8484 62.8692 47.7917 58.9875 47.7634 54.9925C47.735 50.9975 47.735 46.9954 47.7634 42.9862C47.7917 38.9629 47.8484 35.06 47.9334 31.2775C48.0325 27.0842 49.1871 23.8612 51.3971 21.6087C53.6213 19.3562 56.745 18.23 60.7684 18.23C64.7917 18.23 67.8871 19.3704 70.0546 21.6512C72.2221 23.9321 73.3767 27.1267 73.5184 31.235C73.6459 34.975 73.7309 38.7929 73.7734 42.6887C73.83 46.5846 73.8371 50.53 73.7946 54.525C73.7663 58.52 73.6813 62.5362 73.5396 66.5737C73.398 70.5262 72.293 73.7137 70.2246 76.1362C68.1563 78.5587 65.0042 79.77 60.7684 79.77ZM60.7684 77.73C64.0267 77.73 66.513 76.7383 68.2271 74.755C69.9413 72.7717 70.8621 70.0092 70.9896 66.4675C71.1171 62.9967 71.2021 59.285 71.2446 55.3325C71.2871 51.38 71.2871 47.3637 71.2446 43.2837C71.2163 39.2037 71.1313 35.2583 70.9896 31.4475C70.8763 28.0617 69.9838 25.3558 68.3121 23.33C66.6405 21.29 64.1259 20.27 60.7684 20.27C57.5384 20.27 55.038 21.2262 53.2671 23.1387C51.4963 25.0371 50.5684 27.7642 50.4834 31.32C50.3984 35.1025 50.3417 38.9912 50.3134 42.9862C50.285 46.9671 50.285 50.955 50.3134 54.95C50.3417 58.9308 50.3984 62.8125 50.4834 66.595C50.5684 70.1792 51.4963 72.9346 53.2671 74.8612C55.038 76.7737 57.5384 77.73 60.7684 77.73ZM60.7684 75.69C58.3459 75.69 56.4688 74.9037 55.1371 73.3312C53.8055 71.7446 53.1042 69.4779 53.0334 66.5312C52.9767 63.6696 52.9271 60.7654 52.8846 57.8187C52.8563 54.8579 52.8421 51.89 52.8421 48.915C52.8421 45.9258 52.8563 42.965 52.8846 40.0325C52.9271 37.0858 52.9767 34.2029 53.0334 31.3837C53.1042 28.4654 53.8055 26.2271 55.1371 24.6687C56.483 23.0962 58.36 22.31 60.7684 22.31C63.3042 22.31 65.1884 23.16 66.4209 24.86C67.6675 26.5458 68.3405 28.77 68.4396 31.5325C68.5671 35.0033 68.6521 38.7221 68.6946 42.6887C68.7371 46.6554 68.7371 50.6646 68.6946 54.7162C68.6663 58.7537 68.5813 62.6425 68.4396 66.3825C68.3405 69.1592 67.6675 71.4046 66.4209 73.1187C65.1884 74.8329 63.3042 75.69 60.7684 75.69ZM60.7684 73.65C62.3692 73.65 63.6017 73.0054 64.4659 71.7162C65.33 70.4271 65.8046 68.6137 65.8896 66.2762C65.9746 63.6979 66.0384 60.9779 66.0809 58.1162C66.1375 55.2404 66.1659 52.3008 66.1659 49.2975C66.18 46.2942 66.1588 43.2979 66.1021 40.3087C66.0596 37.3196 65.9888 34.4225 65.8896 31.6175C65.8046 29.2517 65.3159 27.4525 64.4234 26.22C63.545 24.9733 62.3267 24.35 60.7684 24.35C59.1534 24.35 57.8996 24.9592 57.0071 26.1775C56.1146 27.3958 55.64 29.1454 55.5834 31.4262C55.5267 34.3021 55.4771 37.2204 55.4346 40.1812C55.4063 43.1279 55.3921 46.0817 55.3921 49.0425C55.3921 52.0033 55.4063 54.95 55.4346 57.8825C55.4771 60.8008 55.5267 63.6696 55.5834 66.4887C55.64 68.7837 56.1146 70.5546 57.0071 71.8012C57.8996 73.0337 59.1534 73.65 60.7684 73.65ZM103.932 83.85C98.2941 83.85 93.9237 82.3767 90.8212 79.43C87.7329 76.4692 86.1249 72.2475 85.9974 66.765C85.9266 63.0958 85.8699 59.2142 85.8274 55.12C85.7991 51.0117 85.7991 46.9104 85.8274 42.8162C85.8558 38.7079 85.9124 34.8192 85.9974 31.15C86.1249 25.6817 87.7399 21.4812 90.8424 18.5487C93.9449 15.6162 98.3083 14.15 103.932 14.15C109.401 14.15 113.693 15.5879 116.81 18.4637C119.941 21.3396 121.598 25.5471 121.782 31.0862C121.938 35.4779 122.037 39.6358 122.08 43.56C122.122 47.4842 122.115 51.3446 122.059 55.1412C122.016 58.9237 121.924 62.8337 121.782 66.8712C121.598 72.1554 120.005 76.3062 117.001 79.3237C114.012 82.3412 109.656 83.85 103.932 83.85ZM103.932 81.81C108.947 81.81 112.716 80.4358 115.237 77.6875C117.759 74.9392 119.098 71.2629 119.254 66.6587C119.395 62.7204 119.48 58.7679 119.509 54.8012C119.551 50.8346 119.551 46.875 119.509 42.9225C119.466 38.97 119.374 35.0458 119.232 31.15C119.077 26.4325 117.695 22.7633 115.089 20.1425C112.482 17.5075 108.763 16.19 103.932 16.19C99.0449 16.19 95.2837 17.5004 92.6487 20.1212C90.0279 22.7421 88.6608 26.4396 88.5474 31.2137C88.4624 34.9396 88.4058 38.8212 88.3774 42.8587C88.3491 46.8821 88.3491 50.9196 88.3774 54.9712C88.4058 59.0229 88.4624 62.9329 88.5474 66.7012C88.6608 71.5179 90.0349 75.2437 92.6699 77.8787C95.3191 80.4996 99.0733 81.81 103.932 81.81ZM103.932 79.77C99.9374 79.77 96.8208 78.6508 94.5824 76.4125C92.3583 74.16 91.1966 70.9017 91.0974 66.6375C91.0124 62.8692 90.9558 58.9875 90.9274 54.9925C90.8991 50.9975 90.8991 46.9954 90.9274 42.9862C90.9558 38.9629 91.0124 35.06 91.0974 31.2775C91.1966 27.0842 92.3512 23.8612 94.5612 21.6087C96.7854 19.3562 99.9091 18.23 103.932 18.23C107.956 18.23 111.051 19.3704 113.219 21.6512C115.386 23.9321 116.541 27.1267 116.682 31.235C116.81 34.975 116.895 38.7929 116.937 42.6887C116.994 46.5846 117.001 50.53 116.959 54.525C116.93 58.52 116.845 62.5362 116.704 66.5737C116.562 70.5262 115.457 73.7137 113.389 76.1362C111.32 78.5587 108.168 79.77 103.932 79.77ZM103.932 77.73C107.191 77.73 109.677 76.7383 111.391 74.755C113.105 72.7717 114.026 70.0092 114.154 66.4675C114.281 62.9967 114.366 59.285 114.409 55.3325C114.451 51.38 114.451 47.3637 114.409 43.2837C114.38 39.2037 114.295 35.2583 114.154 31.4475C114.04 28.0617 113.148 25.3558 111.476 23.33C109.805 21.29 107.29 20.27 103.932 20.27C100.702 20.27 98.202 21.2262 96.4312 23.1387C94.6604 25.0371 93.7324 27.7642 93.6474 31.32C93.5624 35.1025 93.5058 38.9912 93.4774 42.9862C93.4491 46.9671 93.4491 50.955 93.4774 54.95C93.5058 58.9308 93.5624 62.8125 93.6474 66.595C93.7324 70.1792 94.6604 72.9346 96.4312 74.8612C98.202 76.7737 100.702 77.73 103.932 77.73ZM103.932 75.69C101.51 75.69 99.6329 74.9037 98.3012 73.3312C96.9695 71.7446 96.2683 69.4779 96.1974 66.5312C96.1408 63.6696 96.0912 60.7654 96.0487 57.8187C96.0204 54.8579 96.0062 51.89 96.0062 48.915C96.0062 45.9258 96.0204 42.965 96.0487 40.0325C96.0912 37.0858 96.1408 34.2029 96.1974 31.3837C96.2683 28.4654 96.9695 26.2271 98.3012 24.6687C99.647 23.0962 101.524 22.31 103.932 22.31C106.468 22.31 108.352 23.16 109.585 24.86C110.832 26.5458 111.505 28.77 111.604 31.5325C111.731 35.0033 111.816 38.7221 111.859 42.6887C111.901 46.6554 111.901 50.6646 111.859 54.7162C111.83 58.7537 111.745 62.6425 111.604 66.3825C111.505 69.1592 110.832 71.4046 109.585 73.1187C108.352 74.8329 106.468 75.69 103.932 75.69ZM103.932 73.65C105.533 73.65 106.766 73.0054 107.63 71.7162C108.494 70.4271 108.969 68.6137 109.054 66.2762C109.139 63.6979 109.202 60.9779 109.245 58.1162C109.302 55.2404 109.33 52.3008 109.33 49.2975C109.344 46.2942 109.323 43.2979 109.266 40.3087C109.224 37.3196 109.153 34.4225 109.054 31.6175C108.969 29.2517 108.48 27.4525 107.587 26.22C106.709 24.9733 105.491 24.35 103.932 24.35C102.317 24.35 101.064 24.9592 100.171 26.1775C99.2787 27.3958 98.8041 29.1454 98.7474 31.4262C98.6908 34.3021 98.6412 37.2204 98.5987 40.1812C98.5704 43.1279 98.5562 46.0817 98.5562 49.0425C98.5562 52.0033 98.5704 54.95 98.5987 57.8825C98.6412 60.8008 98.6908 63.6696 98.7474 66.4887C98.8041 68.7837 99.2787 70.5546 100.171 71.8012C101.064 73.0337 102.317 73.65 103.932 73.65ZM133.178 83.32C130.97 83.32 129.33 82.8373 128.258 81.872C127.192 80.9067 126.613 79.2453 126.522 76.888C126.512 76.616 126.506 76.2427 126.506 75.768C126.506 75.2933 126.517 74.8293 126.538 74.376C126.56 73.9227 126.597 73.5973 126.65 73.4H127.602C127.565 73.5867 127.533 73.8667 127.506 74.24C127.48 74.6133 127.464 75.032 127.458 75.496C127.458 75.9547 127.466 76.408 127.482 76.856C127.562 78.904 128.048 80.3653 128.938 81.24C129.829 82.1147 131.242 82.552 133.178 82.552C135.157 82.552 136.592 82.112 137.482 81.232C138.373 80.3467 138.858 78.8853 138.938 76.848C138.949 76.5813 138.957 76.3253 138.962 76.08C138.973 75.8347 138.978 75.592 138.978 75.352C138.984 75.1067 138.981 74.8533 138.97 74.592C138.912 73.12 138.525 71.92 137.81 70.992C137.101 70.064 136.122 69.4293 134.874 69.088L131.906 68.272C131.565 68.176 131.272 68.0187 131.026 67.8C130.781 67.576 130.592 67.2933 130.458 66.952C130.325 66.6107 130.25 66.2133 130.234 65.76C130.218 65.3173 130.21 64.9493 130.21 64.656C130.21 64.3573 130.218 63.9973 130.234 63.576C130.282 62.3813 130.533 61.512 130.986 60.968C131.445 60.424 132.176 60.152 133.178 60.152C134.106 60.152 134.789 60.416 135.226 60.944C135.664 61.472 135.909 62.3573 135.962 63.6C135.978 64.0053 135.978 64.536 135.962 65.192C135.952 65.848 135.933 66.4507 135.906 67H134.946C134.973 66.472 134.992 65.8667 135.002 65.184C135.018 64.496 135.021 63.9947 135.01 63.68C134.968 62.5973 134.789 61.8667 134.474 61.488C134.165 61.1093 133.733 60.92 133.178 60.92C132.496 60.92 132.002 61.1413 131.698 61.584C131.4 62.0213 131.229 62.72 131.186 63.68C131.17 64.0533 131.165 64.4187 131.17 64.776C131.181 65.128 131.189 65.4453 131.194 65.728C131.205 66.0373 131.248 66.3067 131.322 66.536C131.402 66.76 131.512 66.944 131.65 67.088C131.789 67.2267 131.954 67.3227 132.146 67.376L135.098 68.152C136.581 68.5413 137.738 69.28 138.57 70.368C139.408 71.4507 139.861 72.8453 139.93 74.552C139.941 74.7973 139.944 75.0533 139.938 75.32C139.938 75.5867 139.933 75.8533 139.922 76.12C139.917 76.3867 139.909 76.6427 139.898 76.888C139.802 79.1813 139.234 80.8267 138.194 81.824C137.16 82.8213 135.488 83.32 133.178 83.32ZM133.178 81.784C131.589 81.784 130.421 81.408 129.674 80.656C128.928 79.8987 128.517 78.6187 128.442 76.816C128.432 76.464 128.426 76.0587 128.426 75.6C128.432 75.1413 128.442 74.7093 128.458 74.304C128.48 73.8933 128.509 73.592 128.546 73.4H129.498C129.466 73.6293 129.44 73.9253 129.418 74.288C129.397 74.6507 129.384 75.0507 129.378 75.488C129.378 75.9253 129.386 76.3707 129.402 76.824C129.461 78.3173 129.784 79.3893 130.37 80.04C130.962 80.6907 131.898 81.016 133.178 81.016C134.48 81.016 135.429 80.6907 136.026 80.04C136.629 79.384 136.96 78.312 137.018 76.824C137.034 76.4933 137.045 76.2053 137.05 75.96C137.056 75.7147 137.058 75.488 137.058 75.28C137.064 75.072 137.061 74.8693 137.05 74.672C137.024 73.9947 136.904 73.4053 136.69 72.904C136.477 72.3973 136.178 71.9813 135.794 71.656C135.416 71.3253 134.96 71.0907 134.426 70.952L131.418 70.168C130.837 70.0133 130.317 69.7573 129.858 69.4C129.4 69.0373 129.034 68.56 128.762 67.968C128.49 67.3707 128.341 66.6533 128.314 65.816C128.304 65.4853 128.296 65.2027 128.29 64.968C128.29 64.7333 128.29 64.5067 128.29 64.288C128.296 64.064 128.304 63.8133 128.314 63.536C128.389 61.7547 128.808 60.4907 129.57 59.744C130.338 58.992 131.541 58.616 133.178 58.616C134.789 58.616 135.957 59 136.682 59.768C137.413 60.536 137.813 61.7973 137.882 63.552C137.898 63.9573 137.898 64.504 137.882 65.192C137.872 65.8747 137.85 66.4773 137.818 67H136.866C136.893 66.5253 136.914 65.952 136.93 65.28C136.946 64.6027 136.944 64.024 136.922 63.544C136.864 62.0613 136.541 60.9973 135.954 60.352C135.373 59.7067 134.448 59.384 133.178 59.384C131.946 59.384 131.002 59.6827 130.346 60.28C129.696 60.8773 129.338 61.9653 129.274 63.544C129.253 64.0293 129.245 64.4187 129.25 64.712C129.256 65.0053 129.264 65.3653 129.274 65.792C129.296 66.4213 129.402 66.9707 129.594 67.44C129.792 67.904 130.064 68.288 130.41 68.592C130.762 68.8907 131.178 69.104 131.658 69.232L134.65 70.016C135.68 70.2827 136.485 70.8107 137.066 71.6C137.648 72.384 137.962 73.3947 138.01 74.632C138.021 74.8507 138.026 75.0613 138.026 75.264C138.026 75.4613 138.021 75.68 138.01 75.92C138.005 76.16 137.994 76.456 137.978 76.808C137.909 78.5467 137.509 79.8107 136.778 80.6C136.053 81.3893 134.853 81.784 133.178 81.784ZM133.178 80.248C132.245 80.248 131.554 79.9813 131.106 79.448C130.658 78.9147 130.41 78.0133 130.362 76.744C130.352 76.3707 130.346 75.976 130.346 75.56C130.346 75.144 130.354 74.7467 130.37 74.368C130.392 73.9893 130.416 73.6667 130.442 73.4H131.394C131.368 73.7307 131.344 74.072 131.322 74.424C131.306 74.776 131.298 75.144 131.298 75.528C131.298 75.9067 131.306 76.304 131.322 76.72C131.36 77.6 131.504 78.28 131.754 78.76C132.01 79.24 132.485 79.48 133.178 79.48C133.824 79.48 134.296 79.264 134.594 78.832C134.898 78.3947 135.069 77.6773 135.106 76.68C135.122 76.344 135.13 76.056 135.13 75.816C135.136 75.576 135.138 75.3707 135.138 75.2C135.138 75.024 135.136 74.8693 135.13 74.736C135.12 74.3787 135.066 74.0693 134.97 73.808C134.874 73.5413 134.741 73.3253 134.57 73.16C134.405 72.9893 134.205 72.8747 133.97 72.816L130.938 72.024C130 71.7787 129.197 71.3787 128.53 70.824C127.864 70.264 127.349 69.568 126.986 68.736C126.624 67.904 126.426 66.952 126.394 65.88C126.378 65.3627 126.37 64.9307 126.37 64.584C126.37 64.2373 126.378 63.8693 126.394 63.48C126.49 61.1973 127.064 59.56 128.114 58.568C129.165 57.576 130.853 57.08 133.178 57.08C135.397 57.08 137.032 57.5653 138.082 58.536C139.133 59.5013 139.706 61.1493 139.802 63.48C139.818 63.8853 139.818 64.4507 139.802 65.176C139.792 65.9013 139.77 66.5093 139.738 67H138.778C138.816 66.4293 138.84 65.808 138.85 65.136C138.861 64.4587 138.858 63.9173 138.842 63.512C138.762 61.48 138.28 60.0293 137.394 59.16C136.514 58.2853 135.109 57.848 133.178 57.848C131.2 57.848 129.754 58.2827 128.842 59.152C127.936 60.016 127.44 61.4667 127.354 63.504C127.333 64 127.325 64.4133 127.33 64.744C127.336 65.0747 127.344 65.4427 127.354 65.848C127.386 66.7653 127.554 67.5813 127.858 68.296C128.162 69.0053 128.594 69.5973 129.154 70.072C129.714 70.5467 130.389 70.888 131.178 71.096L134.202 71.888C134.581 71.984 134.906 72.1547 135.178 72.4C135.45 72.64 135.664 72.952 135.818 73.336C135.978 73.72 136.069 74.176 136.09 74.704C136.101 74.912 136.104 75.1093 136.098 75.296C136.098 75.4827 136.096 75.688 136.09 75.912C136.085 76.1307 136.074 76.4027 136.058 76.728C136.005 77.9813 135.757 78.8827 135.314 79.432C134.877 79.976 134.165 80.248 133.178 80.248Z" fill="white"/>
</svg>
