<svg width="160" height="80" viewBox="0 0 180 100" fill="none" xmlns="http://www.w3.org/2000/svg">
<rect width="180" height="100" fill="#FD76DD"/>
<path d="M67.1975 83V17.04H60.1212L51.2387 24.0525L51.0475 21.715L59.2075 15H69.7475V83H67.1975ZM56.9975 83V43.305L58.5487 28.1962L57.8687 28.1537L51.8337 32.3825L51.685 30.0875L59.8662 24.7112H60.5462L59.5475 42.455V83H56.9975ZM62.0975 83V41.605L62.5012 21.205H61.8212L51.5362 28.3025L51.3875 26.0075L61.035 19.08H64.6475V40.755V83H62.0975ZM94.6771 83.85C89.0387 83.85 84.6683 82.3767 81.5658 79.43C78.4775 76.4692 76.8696 72.2475 76.7421 66.765C76.6712 63.0958 76.6146 59.2142 76.5721 55.12C76.5437 51.0117 76.5437 46.9104 76.5721 42.8162C76.6004 38.7079 76.6571 34.8192 76.7421 31.15C76.8696 25.6817 78.4846 21.4812 81.5871 18.5487C84.6896 15.6162 89.0529 14.15 94.6771 14.15C100.145 14.15 104.438 15.5879 107.555 18.4637C110.685 21.3396 112.343 25.5471 112.527 31.0862C112.683 35.4779 112.782 39.6358 112.825 43.56C112.867 47.4842 112.86 51.3446 112.803 55.1412C112.761 58.9237 112.669 62.8337 112.527 66.8712C112.343 72.1554 110.749 76.3062 107.746 79.3237C104.757 82.3412 100.4 83.85 94.6771 83.85ZM94.6771 81.81C99.6921 81.81 103.46 80.4358 105.982 77.6875C108.504 74.9392 109.842 71.2629 109.998 66.6587C110.14 62.7204 110.225 58.7679 110.253 54.8012C110.296 50.8346 110.296 46.875 110.253 42.9225C110.211 38.97 110.119 35.0458 109.977 31.15C109.821 26.4325 108.44 22.7633 105.833 20.1425C103.227 17.5075 99.5079 16.19 94.6771 16.19C89.7896 16.19 86.0283 17.5004 83.3933 20.1212C80.7725 22.7421 79.4054 26.4396 79.2921 31.2137C79.2071 34.9396 79.1504 38.8212 79.1221 42.8587C79.0937 46.8821 79.0937 50.9196 79.1221 54.9712C79.1504 59.0229 79.2071 62.9329 79.2921 66.7012C79.4054 71.5179 80.7796 75.2437 83.4146 77.8787C86.0637 80.4996 89.8179 81.81 94.6771 81.81ZM94.6771 79.77C90.6821 79.77 87.5654 78.6508 85.3271 76.4125C83.1029 74.16 81.9412 70.9017 81.8421 66.6375C81.7571 62.8692 81.7004 58.9875 81.6721 54.9925C81.6437 50.9975 81.6437 46.9954 81.6721 42.9862C81.7004 38.9629 81.7571 35.06 81.8421 31.2775C81.9412 27.0842 83.0958 23.8612 85.3058 21.6087C87.53 19.3562 90.6537 18.23 94.6771 18.23C98.7004 18.23 101.796 19.3704 103.963 21.6512C106.131 23.9321 107.285 27.1267 107.427 31.235C107.555 34.975 107.64 38.7929 107.682 42.6887C107.739 46.5846 107.746 50.53 107.703 54.525C107.675 58.52 107.59 62.5362 107.448 66.5737C107.307 70.5262 106.202 73.7137 104.133 76.1362C102.065 78.5587 98.9129 79.77 94.6771 79.77ZM94.6771 77.73C97.9354 77.73 100.422 76.7383 102.136 74.755C103.85 72.7717 104.771 70.0092 104.898 66.4675C105.026 62.9967 105.111 59.285 105.153 55.3325C105.196 51.38 105.196 47.3637 105.153 43.2837C105.125 39.2037 105.04 35.2583 104.898 31.4475C104.785 28.0617 103.892 25.3558 102.221 23.33C100.549 21.29 98.0346 20.27 94.6771 20.27C91.4471 20.27 88.9467 21.2262 87.1758 23.1387C85.405 25.0371 84.4771 27.7642 84.3921 31.32C84.3071 35.1025 84.2504 38.9912 84.2221 42.9862C84.1937 46.9671 84.1937 50.955 84.2221 54.95C84.2504 58.9308 84.3071 62.8125 84.3921 66.595C84.4771 70.1792 85.405 72.9346 87.1758 74.8612C88.9467 76.7737 91.4471 77.73 94.6771 77.73ZM94.6771 75.69C92.2546 75.69 90.3775 74.9037 89.0458 73.3312C87.7142 71.7446 87.0129 69.4779 86.9421 66.5312C86.8854 63.6696 86.8358 60.7654 86.7933 57.8187C86.765 54.8579 86.7508 51.89 86.7508 48.915C86.7508 45.9258 86.765 42.965 86.7933 40.0325C86.8358 37.0858 86.8854 34.2029 86.9421 31.3837C87.0129 28.4654 87.7142 26.2271 89.0458 24.6687C90.3917 23.0962 92.2687 22.31 94.6771 22.31C97.2129 22.31 99.0971 23.16 100.33 24.86C101.576 26.5458 102.249 28.77 102.348 31.5325C102.476 35.0033 102.561 38.7221 102.603 42.6887C102.646 46.6554 102.646 50.6646 102.603 54.7162C102.575 58.7537 102.49 62.6425 102.348 66.3825C102.249 69.1592 101.576 71.4046 100.33 73.1187C99.0971 74.8329 97.2129 75.69 94.6771 75.69ZM94.6771 73.65C96.2779 73.65 97.5104 73.0054 98.3746 71.7162C99.2387 70.4271 99.7133 68.6137 99.7983 66.2762C99.8833 63.6979 99.9471 60.9779 99.9896 58.1162C100.046 55.2404 100.075 52.3008 100.075 49.2975C100.089 46.2942 100.067 43.2979 100.011 40.3087C99.9683 37.3196 99.8975 34.4225 99.7983 31.6175C99.7133 29.2517 99.2246 27.4525 98.3321 26.22C97.4537 24.9733 96.2354 24.35 94.6771 24.35C93.0621 24.35 91.8083 24.9592 90.9158 26.1775C90.0233 27.3958 89.5487 29.1454 89.4921 31.4262C89.4354 34.3021 89.3858 37.2204 89.3433 40.1812C89.315 43.1279 89.3008 46.0817 89.3008 49.0425C89.3008 52.0033 89.315 54.95 89.3433 57.8825C89.3858 60.8008 89.4354 63.6696 89.4921 66.4887C89.5487 68.7837 90.0233 70.5546 90.9158 71.8012C91.8083 73.0337 93.0621 73.65 94.6771 73.65ZM123.923 83.32C121.715 83.32 120.075 82.8373 119.003 81.872C117.936 80.9067 117.358 79.2453 117.267 76.888C117.256 76.616 117.251 76.2427 117.251 75.768C117.251 75.2933 117.262 74.8293 117.283 74.376C117.304 73.9227 117.342 73.5973 117.395 73.4H118.347C118.31 73.5867 118.278 73.8667 118.251 74.24C118.224 74.6133 118.208 75.032 118.203 75.496C118.203 75.9547 118.211 76.408 118.227 76.856C118.307 78.904 118.792 80.3653 119.683 81.24C120.574 82.1147 121.987 82.552 123.923 82.552C125.902 82.552 127.336 82.112 128.227 81.232C129.118 80.3467 129.603 78.8853 129.683 76.848C129.694 76.5813 129.702 76.3253 129.707 76.08C129.718 75.8347 129.723 75.592 129.723 75.352C129.728 75.1067 129.726 74.8533 129.715 74.592C129.656 73.12 129.27 71.92 128.555 70.992C127.846 70.064 126.867 69.4293 125.619 69.088L122.651 68.272C122.31 68.176 122.016 68.0187 121.771 67.8C121.526 67.576 121.336 67.2933 121.203 66.952C121.07 66.6107 120.995 66.2133 120.979 65.76C120.963 65.3173 120.955 64.9493 120.955 64.656C120.955 64.3573 120.963 63.9973 120.979 63.576C121.027 62.3813 121.278 61.512 121.731 60.968C122.19 60.424 122.92 60.152 123.923 60.152C124.851 60.152 125.534 60.416 125.971 60.944C126.408 61.472 126.654 62.3573 126.707 63.6C126.723 64.0053 126.723 64.536 126.707 65.192C126.696 65.848 126.678 66.4507 126.651 67H125.691C125.718 66.472 125.736 65.8667 125.747 65.184C125.763 64.496 125.766 63.9947 125.755 63.68C125.712 62.5973 125.534 61.8667 125.219 61.488C124.91 61.1093 124.478 60.92 123.923 60.92C123.24 60.92 122.747 61.1413 122.443 61.584C122.144 62.0213 121.974 62.72 121.931 63.68C121.915 64.0533 121.91 64.4187 121.915 64.776C121.926 65.128 121.934 65.4453 121.939 65.728C121.95 66.0373 121.992 66.3067 122.067 66.536C122.147 66.76 122.256 66.944 122.395 67.088C122.534 67.2267 122.699 67.3227 122.891 67.376L125.843 68.152C127.326 68.5413 128.483 69.28 129.315 70.368C130.152 71.4507 130.606 72.8453 130.675 74.552C130.686 74.7973 130.688 75.0533 130.683 75.32C130.683 75.5867 130.678 75.8533 130.667 76.12C130.662 76.3867 130.654 76.6427 130.643 76.888C130.547 79.1813 129.979 80.8267 128.939 81.824C127.904 82.8213 126.232 83.32 123.923 83.32ZM123.923 81.784C122.334 81.784 121.166 81.408 120.419 80.656C119.672 79.8987 119.262 78.6187 119.187 76.816C119.176 76.464 119.171 76.0587 119.171 75.6C119.176 75.1413 119.187 74.7093 119.203 74.304C119.224 73.8933 119.254 73.592 119.291 73.4H120.243C120.211 73.6293 120.184 73.9253 120.163 74.288C120.142 74.6507 120.128 75.0507 120.123 75.488C120.123 75.9253 120.131 76.3707 120.147 76.824C120.206 78.3173 120.528 79.3893 121.115 80.04C121.707 80.6907 122.643 81.016 123.923 81.016C125.224 81.016 126.174 80.6907 126.771 80.04C127.374 79.384 127.704 78.312 127.763 76.824C127.779 76.4933 127.79 76.2053 127.795 75.96C127.8 75.7147 127.803 75.488 127.803 75.28C127.808 75.072 127.806 74.8693 127.795 74.672C127.768 73.9947 127.648 73.4053 127.435 72.904C127.222 72.3973 126.923 71.9813 126.539 71.656C126.16 71.3253 125.704 71.0907 125.171 70.952L122.163 70.168C121.582 70.0133 121.062 69.7573 120.603 69.4C120.144 69.0373 119.779 68.56 119.507 67.968C119.235 67.3707 119.086 66.6533 119.059 65.816C119.048 65.4853 119.04 65.2027 119.035 64.968C119.035 64.7333 119.035 64.5067 119.035 64.288C119.04 64.064 119.048 63.8133 119.059 63.536C119.134 61.7547 119.552 60.4907 120.315 59.744C121.083 58.992 122.286 58.616 123.923 58.616C125.534 58.616 126.702 59 127.427 59.768C128.158 60.536 128.558 61.7973 128.627 63.552C128.643 63.9573 128.643 64.504 128.627 65.192C128.616 65.8747 128.595 66.4773 128.563 67H127.611C127.638 66.5253 127.659 65.952 127.675 65.28C127.691 64.6027 127.688 64.024 127.667 63.544C127.608 62.0613 127.286 60.9973 126.699 60.352C126.118 59.7067 125.192 59.384 123.923 59.384C122.691 59.384 121.747 59.6827 121.091 60.28C120.44 60.8773 120.083 61.9653 120.019 63.544C119.998 64.0293 119.99 64.4187 119.995 64.712C120 65.0053 120.008 65.3653 120.019 65.792C120.04 66.4213 120.147 66.9707 120.339 67.44C120.536 67.904 120.808 68.288 121.155 68.592C121.507 68.8907 121.923 69.104 122.403 69.232L125.395 70.016C126.424 70.2827 127.23 70.8107 127.811 71.6C128.392 72.384 128.707 73.3947 128.755 74.632C128.766 74.8507 128.771 75.0613 128.771 75.264C128.771 75.4613 128.766 75.68 128.755 75.92C128.75 76.16 128.739 76.456 128.723 76.808C128.654 78.5467 128.254 79.8107 127.523 80.6C126.798 81.3893 125.598 81.784 123.923 81.784ZM123.923 80.248C122.99 80.248 122.299 79.9813 121.851 79.448C121.403 78.9147 121.155 78.0133 121.107 76.744C121.096 76.3707 121.091 75.976 121.091 75.56C121.091 75.144 121.099 74.7467 121.115 74.368C121.136 73.9893 121.16 73.6667 121.187 73.4H122.139C122.112 73.7307 122.088 74.072 122.067 74.424C122.051 74.776 122.043 75.144 122.043 75.528C122.043 75.9067 122.051 76.304 122.067 76.72C122.104 77.6 122.248 78.28 122.499 78.76C122.755 79.24 123.23 79.48 123.923 79.48C124.568 79.48 125.04 79.264 125.339 78.832C125.643 78.3947 125.814 77.6773 125.851 76.68C125.867 76.344 125.875 76.056 125.875 75.816C125.88 75.576 125.883 75.3707 125.883 75.2C125.883 75.024 125.88 74.8693 125.875 74.736C125.864 74.3787 125.811 74.0693 125.715 73.808C125.619 73.5413 125.486 73.3253 125.315 73.16C125.15 72.9893 124.95 72.8747 124.715 72.816L121.683 72.024C120.744 71.7787 119.942 71.3787 119.275 70.824C118.608 70.264 118.094 69.568 117.731 68.736C117.368 67.904 117.171 66.952 117.139 65.88C117.123 65.3627 117.115 64.9307 117.115 64.584C117.115 64.2373 117.123 63.8693 117.139 63.48C117.235 61.1973 117.808 59.56 118.859 58.568C119.91 57.576 121.598 57.08 123.923 57.08C126.142 57.08 127.776 57.5653 128.827 58.536C129.878 59.5013 130.451 61.1493 130.547 63.48C130.563 63.8853 130.563 64.4507 130.547 65.176C130.536 65.9013 130.515 66.5093 130.483 67H129.523C129.56 66.4293 129.584 65.808 129.595 65.136C129.606 64.4587 129.603 63.9173 129.587 63.512C129.507 61.48 129.024 60.0293 128.139 59.16C127.259 58.2853 125.854 57.848 123.923 57.848C121.944 57.848 120.499 58.2827 119.587 59.152C118.68 60.016 118.184 61.4667 118.099 63.504C118.078 64 118.07 64.4133 118.075 64.744C118.08 65.0747 118.088 65.4427 118.099 65.848C118.131 66.7653 118.299 67.5813 118.603 68.296C118.907 69.0053 119.339 69.5973 119.899 70.072C120.459 70.5467 121.134 70.888 121.923 71.096L124.947 71.888C125.326 71.984 125.651 72.1547 125.923 72.4C126.195 72.64 126.408 72.952 126.563 73.336C126.723 73.72 126.814 74.176 126.835 74.704C126.846 74.912 126.848 75.1093 126.843 75.296C126.843 75.4827 126.84 75.688 126.835 75.912C126.83 76.1307 126.819 76.4027 126.803 76.728C126.75 77.9813 126.502 78.8827 126.059 79.432C125.622 79.976 124.91 80.248 123.923 80.248Z" fill="white"/>
<rect width="180" height="100" fill="#0500FF"/>
<path d="M67.1975 83V17.04H60.1212L51.2387 24.0525L51.0475 21.715L59.2075 15H69.7475V83H67.1975ZM56.9975 83V43.305L58.5487 28.1962L57.8687 28.1537L51.8337 32.3825L51.685 30.0875L59.8662 24.7112H60.5462L59.5475 42.455V83H56.9975ZM62.0975 83V41.605L62.5012 21.205H61.8212L51.5362 28.3025L51.3875 26.0075L61.035 19.08H64.6475V40.755V83H62.0975ZM94.6771 83.85C89.0387 83.85 84.6683 82.3767 81.5658 79.43C78.4775 76.4692 76.8696 72.2475 76.7421 66.765C76.6712 63.0958 76.6146 59.2142 76.5721 55.12C76.5437 51.0117 76.5437 46.9104 76.5721 42.8162C76.6004 38.7079 76.6571 34.8192 76.7421 31.15C76.8696 25.6817 78.4846 21.4812 81.5871 18.5487C84.6896 15.6162 89.0529 14.15 94.6771 14.15C100.145 14.15 104.438 15.5879 107.555 18.4637C110.685 21.3396 112.343 25.5471 112.527 31.0862C112.683 35.4779 112.782 39.6358 112.825 43.56C112.867 47.4842 112.86 51.3446 112.803 55.1412C112.761 58.9237 112.669 62.8337 112.527 66.8712C112.343 72.1554 110.749 76.3062 107.746 79.3237C104.757 82.3412 100.4 83.85 94.6771 83.85ZM94.6771 81.81C99.6921 81.81 103.46 80.4358 105.982 77.6875C108.504 74.9392 109.842 71.2629 109.998 66.6587C110.14 62.7204 110.225 58.7679 110.253 54.8012C110.296 50.8346 110.296 46.875 110.253 42.9225C110.211 38.97 110.119 35.0458 109.977 31.15C109.821 26.4325 108.44 22.7633 105.833 20.1425C103.227 17.5075 99.5079 16.19 94.6771 16.19C89.7896 16.19 86.0283 17.5004 83.3933 20.1212C80.7725 22.7421 79.4054 26.4396 79.2921 31.2137C79.2071 34.9396 79.1504 38.8212 79.1221 42.8587C79.0937 46.8821 79.0937 50.9196 79.1221 54.9712C79.1504 59.0229 79.2071 62.9329 79.2921 66.7012C79.4054 71.5179 80.7796 75.2437 83.4146 77.8787C86.0637 80.4996 89.8179 81.81 94.6771 81.81ZM94.6771 79.77C90.6821 79.77 87.5654 78.6508 85.3271 76.4125C83.1029 74.16 81.9412 70.9017 81.8421 66.6375C81.7571 62.8692 81.7004 58.9875 81.6721 54.9925C81.6437 50.9975 81.6437 46.9954 81.6721 42.9862C81.7004 38.9629 81.7571 35.06 81.8421 31.2775C81.9412 27.0842 83.0958 23.8612 85.3058 21.6087C87.53 19.3562 90.6537 18.23 94.6771 18.23C98.7004 18.23 101.796 19.3704 103.963 21.6512C106.131 23.9321 107.285 27.1267 107.427 31.235C107.555 34.975 107.64 38.7929 107.682 42.6887C107.739 46.5846 107.746 50.53 107.703 54.525C107.675 58.52 107.59 62.5362 107.448 66.5737C107.307 70.5262 106.202 73.7137 104.133 76.1362C102.065 78.5587 98.9129 79.77 94.6771 79.77ZM94.6771 77.73C97.9354 77.73 100.422 76.7383 102.136 74.755C103.85 72.7717 104.771 70.0092 104.898 66.4675C105.026 62.9967 105.111 59.285 105.153 55.3325C105.196 51.38 105.196 47.3637 105.153 43.2837C105.125 39.2037 105.04 35.2583 104.898 31.4475C104.785 28.0617 103.892 25.3558 102.221 23.33C100.549 21.29 98.0346 20.27 94.6771 20.27C91.4471 20.27 88.9467 21.2262 87.1758 23.1387C85.405 25.0371 84.4771 27.7642 84.3921 31.32C84.3071 35.1025 84.2504 38.9912 84.2221 42.9862C84.1937 46.9671 84.1937 50.955 84.2221 54.95C84.2504 58.9308 84.3071 62.8125 84.3921 66.595C84.4771 70.1792 85.405 72.9346 87.1758 74.8612C88.9467 76.7737 91.4471 77.73 94.6771 77.73ZM94.6771 75.69C92.2546 75.69 90.3775 74.9037 89.0458 73.3312C87.7142 71.7446 87.0129 69.4779 86.9421 66.5312C86.8854 63.6696 86.8358 60.7654 86.7933 57.8187C86.765 54.8579 86.7508 51.89 86.7508 48.915C86.7508 45.9258 86.765 42.965 86.7933 40.0325C86.8358 37.0858 86.8854 34.2029 86.9421 31.3837C87.0129 28.4654 87.7142 26.2271 89.0458 24.6687C90.3917 23.0962 92.2687 22.31 94.6771 22.31C97.2129 22.31 99.0971 23.16 100.33 24.86C101.576 26.5458 102.249 28.77 102.348 31.5325C102.476 35.0033 102.561 38.7221 102.603 42.6887C102.646 46.6554 102.646 50.6646 102.603 54.7162C102.575 58.7537 102.49 62.6425 102.348 66.3825C102.249 69.1592 101.576 71.4046 100.33 73.1187C99.0971 74.8329 97.2129 75.69 94.6771 75.69ZM94.6771 73.65C96.2779 73.65 97.5104 73.0054 98.3746 71.7162C99.2387 70.4271 99.7133 68.6137 99.7983 66.2762C99.8833 63.6979 99.9471 60.9779 99.9896 58.1162C100.046 55.2404 100.075 52.3008 100.075 49.2975C100.089 46.2942 100.067 43.2979 100.011 40.3087C99.9683 37.3196 99.8975 34.4225 99.7983 31.6175C99.7133 29.2517 99.2246 27.4525 98.3321 26.22C97.4537 24.9733 96.2354 24.35 94.6771 24.35C93.0621 24.35 91.8083 24.9592 90.9158 26.1775C90.0233 27.3958 89.5487 29.1454 89.4921 31.4262C89.4354 34.3021 89.3858 37.2204 89.3433 40.1812C89.315 43.1279 89.3008 46.0817 89.3008 49.0425C89.3008 52.0033 89.315 54.95 89.3433 57.8825C89.3858 60.8008 89.4354 63.6696 89.4921 66.4887C89.5487 68.7837 90.0233 70.5546 90.9158 71.8012C91.8083 73.0337 93.0621 73.65 94.6771 73.65ZM123.923 83.32C121.715 83.32 120.075 82.8373 119.003 81.872C117.936 80.9067 117.358 79.2453 117.267 76.888C117.256 76.616 117.251 76.2427 117.251 75.768C117.251 75.2933 117.262 74.8293 117.283 74.376C117.304 73.9227 117.342 73.5973 117.395 73.4H118.347C118.31 73.5867 118.278 73.8667 118.251 74.24C118.224 74.6133 118.208 75.032 118.203 75.496C118.203 75.9547 118.211 76.408 118.227 76.856C118.307 78.904 118.792 80.3653 119.683 81.24C120.574 82.1147 121.987 82.552 123.923 82.552C125.902 82.552 127.336 82.112 128.227 81.232C129.118 80.3467 129.603 78.8853 129.683 76.848C129.694 76.5813 129.702 76.3253 129.707 76.08C129.718 75.8347 129.723 75.592 129.723 75.352C129.728 75.1067 129.726 74.8533 129.715 74.592C129.656 73.12 129.27 71.92 128.555 70.992C127.846 70.064 126.867 69.4293 125.619 69.088L122.651 68.272C122.31 68.176 122.016 68.0187 121.771 67.8C121.526 67.576 121.336 67.2933 121.203 66.952C121.07 66.6107 120.995 66.2133 120.979 65.76C120.963 65.3173 120.955 64.9493 120.955 64.656C120.955 64.3573 120.963 63.9973 120.979 63.576C121.027 62.3813 121.278 61.512 121.731 60.968C122.19 60.424 122.92 60.152 123.923 60.152C124.851 60.152 125.534 60.416 125.971 60.944C126.408 61.472 126.654 62.3573 126.707 63.6C126.723 64.0053 126.723 64.536 126.707 65.192C126.696 65.848 126.678 66.4507 126.651 67H125.691C125.718 66.472 125.736 65.8667 125.747 65.184C125.763 64.496 125.766 63.9947 125.755 63.68C125.712 62.5973 125.534 61.8667 125.219 61.488C124.91 61.1093 124.478 60.92 123.923 60.92C123.24 60.92 122.747 61.1413 122.443 61.584C122.144 62.0213 121.974 62.72 121.931 63.68C121.915 64.0533 121.91 64.4187 121.915 64.776C121.926 65.128 121.934 65.4453 121.939 65.728C121.95 66.0373 121.992 66.3067 122.067 66.536C122.147 66.76 122.256 66.944 122.395 67.088C122.534 67.2267 122.699 67.3227 122.891 67.376L125.843 68.152C127.326 68.5413 128.483 69.28 129.315 70.368C130.152 71.4507 130.606 72.8453 130.675 74.552C130.686 74.7973 130.688 75.0533 130.683 75.32C130.683 75.5867 130.678 75.8533 130.667 76.12C130.662 76.3867 130.654 76.6427 130.643 76.888C130.547 79.1813 129.979 80.8267 128.939 81.824C127.904 82.8213 126.232 83.32 123.923 83.32ZM123.923 81.784C122.334 81.784 121.166 81.408 120.419 80.656C119.672 79.8987 119.262 78.6187 119.187 76.816C119.176 76.464 119.171 76.0587 119.171 75.6C119.176 75.1413 119.187 74.7093 119.203 74.304C119.224 73.8933 119.254 73.592 119.291 73.4H120.243C120.211 73.6293 120.184 73.9253 120.163 74.288C120.142 74.6507 120.128 75.0507 120.123 75.488C120.123 75.9253 120.131 76.3707 120.147 76.824C120.206 78.3173 120.528 79.3893 121.115 80.04C121.707 80.6907 122.643 81.016 123.923 81.016C125.224 81.016 126.174 80.6907 126.771 80.04C127.374 79.384 127.704 78.312 127.763 76.824C127.779 76.4933 127.79 76.2053 127.795 75.96C127.8 75.7147 127.803 75.488 127.803 75.28C127.808 75.072 127.806 74.8693 127.795 74.672C127.768 73.9947 127.648 73.4053 127.435 72.904C127.222 72.3973 126.923 71.9813 126.539 71.656C126.16 71.3253 125.704 71.0907 125.171 70.952L122.163 70.168C121.582 70.0133 121.062 69.7573 120.603 69.4C120.144 69.0373 119.779 68.56 119.507 67.968C119.235 67.3707 119.086 66.6533 119.059 65.816C119.048 65.4853 119.04 65.2027 119.035 64.968C119.035 64.7333 119.035 64.5067 119.035 64.288C119.04 64.064 119.048 63.8133 119.059 63.536C119.134 61.7547 119.552 60.4907 120.315 59.744C121.083 58.992 122.286 58.616 123.923 58.616C125.534 58.616 126.702 59 127.427 59.768C128.158 60.536 128.558 61.7973 128.627 63.552C128.643 63.9573 128.643 64.504 128.627 65.192C128.616 65.8747 128.595 66.4773 128.563 67H127.611C127.638 66.5253 127.659 65.952 127.675 65.28C127.691 64.6027 127.688 64.024 127.667 63.544C127.608 62.0613 127.286 60.9973 126.699 60.352C126.118 59.7067 125.192 59.384 123.923 59.384C122.691 59.384 121.747 59.6827 121.091 60.28C120.44 60.8773 120.083 61.9653 120.019 63.544C119.998 64.0293 119.99 64.4187 119.995 64.712C120 65.0053 120.008 65.3653 120.019 65.792C120.04 66.4213 120.147 66.9707 120.339 67.44C120.536 67.904 120.808 68.288 121.155 68.592C121.507 68.8907 121.923 69.104 122.403 69.232L125.395 70.016C126.424 70.2827 127.23 70.8107 127.811 71.6C128.392 72.384 128.707 73.3947 128.755 74.632C128.766 74.8507 128.771 75.0613 128.771 75.264C128.771 75.4613 128.766 75.68 128.755 75.92C128.75 76.16 128.739 76.456 128.723 76.808C128.654 78.5467 128.254 79.8107 127.523 80.6C126.798 81.3893 125.598 81.784 123.923 81.784ZM123.923 80.248C122.99 80.248 122.299 79.9813 121.851 79.448C121.403 78.9147 121.155 78.0133 121.107 76.744C121.096 76.3707 121.091 75.976 121.091 75.56C121.091 75.144 121.099 74.7467 121.115 74.368C121.136 73.9893 121.16 73.6667 121.187 73.4H122.139C122.112 73.7307 122.088 74.072 122.067 74.424C122.051 74.776 122.043 75.144 122.043 75.528C122.043 75.9067 122.051 76.304 122.067 76.72C122.104 77.6 122.248 78.28 122.499 78.76C122.755 79.24 123.23 79.48 123.923 79.48C124.568 79.48 125.04 79.264 125.339 78.832C125.643 78.3947 125.814 77.6773 125.851 76.68C125.867 76.344 125.875 76.056 125.875 75.816C125.88 75.576 125.883 75.3707 125.883 75.2C125.883 75.024 125.88 74.8693 125.875 74.736C125.864 74.3787 125.811 74.0693 125.715 73.808C125.619 73.5413 125.486 73.3253 125.315 73.16C125.15 72.9893 124.95 72.8747 124.715 72.816L121.683 72.024C120.744 71.7787 119.942 71.3787 119.275 70.824C118.608 70.264 118.094 69.568 117.731 68.736C117.368 67.904 117.171 66.952 117.139 65.88C117.123 65.3627 117.115 64.9307 117.115 64.584C117.115 64.2373 117.123 63.8693 117.139 63.48C117.235 61.1973 117.808 59.56 118.859 58.568C119.91 57.576 121.598 57.08 123.923 57.08C126.142 57.08 127.776 57.5653 128.827 58.536C129.878 59.5013 130.451 61.1493 130.547 63.48C130.563 63.8853 130.563 64.4507 130.547 65.176C130.536 65.9013 130.515 66.5093 130.483 67H129.523C129.56 66.4293 129.584 65.808 129.595 65.136C129.606 64.4587 129.603 63.9173 129.587 63.512C129.507 61.48 129.024 60.0293 128.139 59.16C127.259 58.2853 125.854 57.848 123.923 57.848C121.944 57.848 120.499 58.2827 119.587 59.152C118.68 60.016 118.184 61.4667 118.099 63.504C118.078 64 118.07 64.4133 118.075 64.744C118.08 65.0747 118.088 65.4427 118.099 65.848C118.131 66.7653 118.299 67.5813 118.603 68.296C118.907 69.0053 119.339 69.5973 119.899 70.072C120.459 70.5467 121.134 70.888 121.923 71.096L124.947 71.888C125.326 71.984 125.651 72.1547 125.923 72.4C126.195 72.64 126.408 72.952 126.563 73.336C126.723 73.72 126.814 74.176 126.835 74.704C126.846 74.912 126.848 75.1093 126.843 75.296C126.843 75.4827 126.84 75.688 126.835 75.912C126.83 76.1307 126.819 76.4027 126.803 76.728C126.75 77.9813 126.502 78.8827 126.059 79.432C125.622 79.976 124.91 80.248 123.923 80.248Z" fill="white"/>
</svg>
