<svg width="150" height="70" viewBox="0 0 180 100" fill="none" xmlns="http://www.w3.org/2000/svg">
<rect width="100" height="50" fill="#00D8FE"/>
<path d="M67.1985 83V17.04H60.1222L51.2397 24.0525L51.0485 21.715L59.2085 15H69.7485V83H67.1985ZM56.9985 83V43.305L58.5497 28.1962L57.8697 28.1537L51.8347 32.3825L51.686 30.0875L59.8672 24.7112H60.5472L59.5485 42.455V83H56.9985ZM62.0985 83V41.605L62.5022 21.205H61.8222L51.5372 28.3025L51.3885 26.0075L61.036 19.08H64.6485V40.755V83H62.0985ZM94.678 83.85C89.0397 83.85 84.6693 82.3767 81.5668 79.43C78.4785 76.4692 76.8705 72.2475 76.743 66.765C76.6722 63.0958 76.6155 59.2142 76.573 55.12C76.5447 51.0117 76.5447 46.9104 76.573 42.8162C76.6014 38.7079 76.658 34.8192 76.743 31.15C76.8705 25.6817 78.4855 21.4812 81.588 18.5487C84.6905 15.6162 89.0539 14.15 94.678 14.15C100.146 14.15 104.439 15.5879 107.556 18.4637C110.686 21.3396 112.344 25.5471 112.528 31.0862C112.684 35.4779 112.783 39.6358 112.826 43.56C112.868 47.4842 112.861 51.3446 112.804 55.1412C112.762 58.9237 112.67 62.8337 112.528 66.8712C112.344 72.1554 110.75 76.3062 107.747 79.3237C104.758 82.3412 100.401 83.85 94.678 83.85ZM94.678 81.81C99.693 81.81 103.461 80.4358 105.983 77.6875C108.505 74.9392 109.843 71.2629 109.999 66.6587C110.141 62.7204 110.226 58.7679 110.254 54.8012C110.297 50.8346 110.297 46.875 110.254 42.9225C110.212 38.97 110.12 35.0458 109.978 31.15C109.822 26.4325 108.441 22.7633 105.834 20.1425C103.228 17.5075 99.5089 16.19 94.678 16.19C89.7905 16.19 86.0293 17.5004 83.3943 20.1212C80.7735 22.7421 79.4064 26.4396 79.293 31.2137C79.208 34.9396 79.1514 38.8212 79.123 42.8587C79.0947 46.8821 79.0947 50.9196 79.123 54.9712C79.1514 59.0229 79.208 62.9329 79.293 66.7012C79.4064 71.5179 80.7805 75.2437 83.4155 77.8787C86.0647 80.4996 89.8189 81.81 94.678 81.81ZM94.678 79.77C90.683 79.77 87.5664 78.6508 85.328 76.4125C83.1039 74.16 81.9422 70.9017 81.843 66.6375C81.758 62.8692 81.7014 58.9875 81.673 54.9925C81.6447 50.9975 81.6447 46.9954 81.673 42.9862C81.7014 38.9629 81.758 35.06 81.843 31.2775C81.9422 27.0842 83.0968 23.8612 85.3068 21.6087C87.531 19.3562 90.6547 18.23 94.678 18.23C98.7014 18.23 101.797 19.3704 103.964 21.6512C106.132 23.9321 107.286 27.1267 107.428 31.235C107.556 34.975 107.641 38.7929 107.683 42.6887C107.74 46.5846 107.747 50.53 107.704 54.525C107.676 58.52 107.591 62.5362 107.449 66.5737C107.308 70.5262 106.203 73.7137 104.134 76.1362C102.066 78.5587 98.9139 79.77 94.678 79.77ZM94.678 77.73C97.9364 77.73 100.423 76.7383 102.137 74.755C103.851 72.7717 104.772 70.0092 104.899 66.4675C105.027 62.9967 105.112 59.285 105.154 55.3325C105.197 51.38 105.197 47.3637 105.154 43.2837C105.126 39.2037 105.041 35.2583 104.899 31.4475C104.786 28.0617 103.893 25.3558 102.222 23.33C100.55 21.29 98.0355 20.27 94.678 20.27C91.448 20.27 88.9476 21.2262 87.1768 23.1387C85.406 25.0371 84.478 27.7642 84.393 31.32C84.308 35.1025 84.2514 38.9912 84.223 42.9862C84.1947 46.9671 84.1947 50.955 84.223 54.95C84.2514 58.9308 84.308 62.8125 84.393 66.595C84.478 70.1792 85.406 72.9346 87.1768 74.8612C88.9476 76.7737 91.448 77.73 94.678 77.73ZM94.678 75.69C92.2555 75.69 90.3785 74.9037 89.0468 73.3312C87.7151 71.7446 87.0139 69.4779 86.943 66.5312C86.8864 63.6696 86.8368 60.7654 86.7943 57.8187C86.766 54.8579 86.7518 51.89 86.7518 48.915C86.7518 45.9258 86.766 42.965 86.7943 40.0325C86.8368 37.0858 86.8864 34.2029 86.943 31.3837C87.0139 28.4654 87.7151 26.2271 89.0468 24.6687C90.3926 23.0962 92.2697 22.31 94.678 22.31C97.2139 22.31 99.098 23.16 100.331 24.86C101.577 26.5458 102.25 28.77 102.349 31.5325C102.477 35.0033 102.562 38.7221 102.604 42.6887C102.647 46.6554 102.647 50.6646 102.604 54.7162C102.576 58.7537 102.491 62.6425 102.349 66.3825C102.25 69.1592 101.577 71.4046 100.331 73.1187C99.098 74.8329 97.2139 75.69 94.678 75.69ZM94.678 73.65C96.2789 73.65 97.5114 73.0054 98.3755 71.7162C99.2397 70.4271 99.7143 68.6137 99.7993 66.2762C99.8843 63.6979 99.948 60.9779 99.9905 58.1162C100.047 55.2404 100.076 52.3008 100.076 49.2975C100.09 46.2942 100.068 43.2979 100.012 40.3087C99.9693 37.3196 99.8985 34.4225 99.7993 31.6175C99.7143 29.2517 99.2255 27.4525 98.333 26.22C97.4547 24.9733 96.2364 24.35 94.678 24.35C93.063 24.35 91.8093 24.9592 90.9168 26.1775C90.0243 27.3958 89.5497 29.1454 89.493 31.4262C89.4364 34.3021 89.3868 37.2204 89.3443 40.1812C89.316 43.1279 89.3018 46.0817 89.3018 49.0425C89.3018 52.0033 89.316 54.95 89.3443 57.8825C89.3868 60.8008 89.4364 63.6696 89.493 66.4887C89.5497 68.7837 90.0243 70.5546 90.9168 71.8012C91.8093 73.0337 93.063 73.65 94.678 73.65ZM123.924 83.32C121.716 83.32 120.076 82.8373 119.004 81.872C117.937 80.9067 117.359 79.2453 117.268 76.888C117.257 76.616 117.252 76.2427 117.252 75.768C117.252 75.2933 117.263 74.8293 117.284 74.376C117.305 73.9227 117.343 73.5973 117.396 73.4H118.348C118.311 73.5867 118.279 73.8667 118.252 74.24C118.225 74.6133 118.209 75.032 118.204 75.496C118.204 75.9547 118.212 76.408 118.228 76.856C118.308 78.904 118.793 80.3653 119.684 81.24C120.575 82.1147 121.988 82.552 123.924 82.552C125.903 82.552 127.337 82.112 128.228 81.232C129.119 80.3467 129.604 78.8853 129.684 76.848C129.695 76.5813 129.703 76.3253 129.708 76.08C129.719 75.8347 129.724 75.592 129.724 75.352C129.729 75.1067 129.727 74.8533 129.716 74.592C129.657 73.12 129.271 71.92 128.556 70.992C127.847 70.064 126.868 69.4293 125.62 69.088L122.652 68.272C122.311 68.176 122.017 68.0187 121.772 67.8C121.527 67.576 121.337 67.2933 121.204 66.952C121.071 66.6107 120.996 66.2133 120.98 65.76C120.964 65.3173 120.956 64.9493 120.956 64.656C120.956 64.3573 120.964 63.9973 120.98 63.576C121.028 62.3813 121.279 61.512 121.732 60.968C122.191 60.424 122.921 60.152 123.924 60.152C124.852 60.152 125.535 60.416 125.972 60.944C126.409 61.472 126.655 62.3573 126.708 63.6C126.724 64.0053 126.724 64.536 126.708 65.192C126.697 65.848 126.679 66.4507 126.652 67H125.692C125.719 66.472 125.737 65.8667 125.748 65.184C125.764 64.496 125.767 63.9947 125.756 63.68C125.713 62.5973 125.535 61.8667 125.22 61.488C124.911 61.1093 124.479 60.92 123.924 60.92C123.241 60.92 122.748 61.1413 122.444 61.584C122.145 62.0213 121.975 62.72 121.932 63.68C121.916 64.0533 121.911 64.4187 121.916 64.776C121.927 65.128 121.935 65.4453 121.94 65.728C121.951 66.0373 121.993 66.3067 122.068 66.536C122.148 66.76 122.257 66.944 122.396 67.088C122.535 67.2267 122.7 67.3227 122.892 67.376L125.844 68.152C127.327 68.5413 128.484 69.28 129.316 70.368C130.153 71.4507 130.607 72.8453 130.676 74.552C130.687 74.7973 130.689 75.0533 130.684 75.32C130.684 75.5867 130.679 75.8533 130.668 76.12C130.663 76.3867 130.655 76.6427 130.644 76.888C130.548 79.1813 129.98 80.8267 128.94 81.824C127.905 82.8213 126.233 83.32 123.924 83.32ZM123.924 81.784C122.335 81.784 121.167 81.408 120.42 80.656C119.673 79.8987 119.263 78.6187 119.188 76.816C119.177 76.464 119.172 76.0587 119.172 75.6C119.177 75.1413 119.188 74.7093 119.204 74.304C119.225 73.8933 119.255 73.592 119.292 73.4H120.244C120.212 73.6293 120.185 73.9253 120.164 74.288C120.143 74.6507 120.129 75.0507 120.124 75.488C120.124 75.9253 120.132 76.3707 120.148 76.824C120.207 78.3173 120.529 79.3893 121.116 80.04C121.708 80.6907 122.644 81.016 123.924 81.016C125.225 81.016 126.175 80.6907 126.772 80.04C127.375 79.384 127.705 78.312 127.764 76.824C127.78 76.4933 127.791 76.2053 127.796 75.96C127.801 75.7147 127.804 75.488 127.804 75.28C127.809 75.072 127.807 74.8693 127.796 74.672C127.769 73.9947 127.649 73.4053 127.436 72.904C127.223 72.3973 126.924 71.9813 126.54 71.656C126.161 71.3253 125.705 71.0907 125.172 70.952L122.164 70.168C121.583 70.0133 121.063 69.7573 120.604 69.4C120.145 69.0373 119.78 68.56 119.508 67.968C119.236 67.3707 119.087 66.6533 119.06 65.816C119.049 65.4853 119.041 65.2027 119.036 64.968C119.036 64.7333 119.036 64.5067 119.036 64.288C119.041 64.064 119.049 63.8133 119.06 63.536C119.135 61.7547 119.553 60.4907 120.316 59.744C121.084 58.992 122.287 58.616 123.924 58.616C125.535 58.616 126.703 59 127.428 59.768C128.159 60.536 128.559 61.7973 128.628 63.552C128.644 63.9573 128.644 64.504 128.628 65.192C128.617 65.8747 128.596 66.4773 128.564 67H127.612C127.639 66.5253 127.66 65.952 127.676 65.28C127.692 64.6027 127.689 64.024 127.668 63.544C127.609 62.0613 127.287 60.9973 126.7 60.352C126.119 59.7067 125.193 59.384 123.924 59.384C122.692 59.384 121.748 59.6827 121.092 60.28C120.441 60.8773 120.084 61.9653 120.02 63.544C119.999 64.0293 119.991 64.4187 119.996 64.712C120.001 65.0053 120.009 65.3653 120.02 65.792C120.041 66.4213 120.148 66.9707 120.34 67.44C120.537 67.904 120.809 68.288 121.156 68.592C121.508 68.8907 121.924 69.104 122.404 69.232L125.396 70.016C126.425 70.2827 127.231 70.8107 127.812 71.6C128.393 72.384 128.708 73.3947 128.756 74.632C128.767 74.8507 128.772 75.0613 128.772 75.264C128.772 75.4613 128.767 75.68 128.756 75.92C128.751 76.16 128.74 76.456 128.724 76.808C128.655 78.5467 128.255 79.8107 127.524 80.6C126.799 81.3893 125.599 81.784 123.924 81.784ZM123.924 80.248C122.991 80.248 122.3 79.9813 121.852 79.448C121.404 78.9147 121.156 78.0133 121.108 76.744C121.097 76.3707 121.092 75.976 121.092 75.56C121.092 75.144 121.1 74.7467 121.116 74.368C121.137 73.9893 121.161 73.6667 121.188 73.4H122.14C122.113 73.7307 122.089 74.072 122.068 74.424C122.052 74.776 122.044 75.144 122.044 75.528C122.044 75.9067 122.052 76.304 122.068 76.72C122.105 77.6 122.249 78.28 122.5 78.76C122.756 79.24 123.231 79.48 123.924 79.48C124.569 79.48 125.041 79.264 125.34 78.832C125.644 78.3947 125.815 77.6773 125.852 76.68C125.868 76.344 125.876 76.056 125.876 75.816C125.881 75.576 125.884 75.3707 125.884 75.2C125.884 75.024 125.881 74.8693 125.876 74.736C125.865 74.3787 125.812 74.0693 125.716 73.808C125.62 73.5413 125.487 73.3253 125.316 73.16C125.151 72.9893 124.951 72.8747 124.716 72.816L121.684 72.024C120.745 71.7787 119.943 71.3787 119.276 70.824C118.609 70.264 118.095 69.568 117.732 68.736C117.369 67.904 117.172 66.952 117.14 65.88C117.124 65.3627 117.116 64.9307 117.116 64.584C117.116 64.2373 117.124 63.8693 117.14 63.48C117.236 61.1973 117.809 59.56 118.86 58.568C119.911 57.576 121.599 57.08 123.924 57.08C126.143 57.08 127.777 57.5653 128.828 58.536C129.879 59.5013 130.452 61.1493 130.548 63.48C130.564 63.8853 130.564 64.4507 130.548 65.176C130.537 65.9013 130.516 66.5093 130.484 67H129.524C129.561 66.4293 129.585 65.808 129.596 65.136C129.607 64.4587 129.604 63.9173 129.588 63.512C129.508 61.48 129.025 60.0293 128.14 59.16C127.26 58.2853 125.855 57.848 123.924 57.848C121.945 57.848 120.5 58.2827 119.588 59.152C118.681 60.016 118.185 61.4667 118.1 63.504C118.079 64 118.071 64.4133 118.076 64.744C118.081 65.0747 118.089 65.4427 118.1 65.848C118.132 66.7653 118.3 67.5813 118.604 68.296C118.908 69.0053 119.34 69.5973 119.9 70.072C120.46 70.5467 121.135 70.888 121.924 71.096L124.948 71.888C125.327 71.984 125.652 72.1547 125.924 72.4C126.196 72.64 126.409 72.952 126.564 73.336C126.724 73.72 126.815 74.176 126.836 74.704C126.847 74.912 126.849 75.1093 126.844 75.296C126.844 75.4827 126.841 75.688 126.836 75.912C126.831 76.1307 126.82 76.4027 126.804 76.728C126.751 77.9813 126.503 78.8827 126.06 79.432C125.623 79.976 124.911 80.248 123.924 80.248Z" fill="white"/>
<rect width="180" height="100" fill="#FFA902"/>
<path d="M53.5902 74.16C53.5902 73.5792 53.5973 72.8283 53.6114 71.9075C53.6398 70.9867 53.661 70.1154 53.6752 69.2937C53.7318 67.3246 54.0577 65.6671 54.6527 64.3212C55.2618 62.9754 56.1189 61.8067 57.2239 60.815C58.3289 59.8092 59.6606 58.8529 61.2189 57.9462L66.0214 55.1412C68.1323 53.9087 69.9527 52.4921 71.4827 50.8912C73.0268 49.2904 74.231 47.4275 75.0952 45.3025C75.9735 43.1775 76.4552 40.7267 76.5402 37.95C76.5685 37.2417 76.5827 36.5404 76.5827 35.8462C76.5968 35.1521 76.6039 34.4296 76.6039 33.6787C76.6039 32.9137 76.5827 32.0992 76.5402 31.235C76.3135 25.7667 74.9748 21.8921 72.5239 19.6112C70.0731 17.3304 66.2552 16.19 61.0702 16.19C55.9418 16.19 52.2089 17.3517 49.8714 19.675C47.5339 21.9983 46.2518 25.8587 46.0252 31.2562C45.9968 31.9646 45.9827 32.8429 45.9827 33.8912C45.9968 34.9396 46.0181 36.0162 46.0464 37.1212C46.0889 38.2262 46.1385 39.2321 46.1952 40.1387H43.6452C43.5885 39.3029 43.5389 38.3183 43.4964 37.185C43.4681 36.0517 43.4468 34.9396 43.4327 33.8487C43.4327 32.7579 43.4468 31.8583 43.4752 31.15C43.7302 24.9592 45.2531 20.5817 48.0439 18.0175C50.8348 15.4392 55.1768 14.15 61.0702 14.15C67.261 14.15 71.7448 15.4675 74.5214 18.1025C77.3123 20.7375 78.8352 25.0867 79.0902 31.15C79.1327 31.9858 79.1539 32.8075 79.1539 33.615C79.1539 34.4083 79.1468 35.1804 79.1327 35.9312C79.1327 36.6679 79.1185 37.3692 79.0902 38.035C79.0052 40.8825 78.5164 43.4892 77.6239 45.855C76.7314 48.2067 75.421 50.3387 73.6927 52.2512C71.9785 54.1637 69.8323 55.8708 67.2539 57.3725L62.4514 60.1775C60.9639 61.0417 59.7668 61.8987 58.8602 62.7487C57.9535 63.5846 57.2948 64.5267 56.8839 65.575C56.4731 66.6092 56.2535 67.87 56.2252 69.3575C56.2252 69.5275 56.2181 69.7825 56.2039 70.1225C56.2039 70.4483 56.2039 70.7812 56.2039 71.1212C56.2039 71.4612 56.1968 71.7375 56.1827 71.95H77.9852V74.16H53.5902ZM43.5602 83C43.5035 80.79 43.4539 78.9767 43.4114 77.56C43.3831 76.1292 43.3689 74.7762 43.3689 73.5012C43.3831 72.2262 43.4185 70.7175 43.4752 68.975C43.5743 65.7308 44.1552 62.8904 45.2177 60.4537C46.2943 58.0171 47.7748 55.8708 49.6589 54.015C51.5573 52.1592 53.7743 50.4875 56.3102 49L61.0702 46.2162C62.4302 45.4229 63.4856 44.6083 64.2364 43.7725C64.9873 42.9225 65.5114 42.0017 65.8089 41.01C66.1206 40.0042 66.2977 38.8779 66.3402 37.6313C66.3685 37.0362 66.3827 36.4625 66.3827 35.91C66.3968 35.3433 66.4039 34.805 66.4039 34.295C66.4039 33.785 66.3968 33.3104 66.3827 32.8712C66.3827 32.4321 66.3756 32.0425 66.3614 31.7025C66.2481 28.8267 65.731 26.8858 64.8102 25.88C63.9035 24.86 62.6568 24.35 61.0702 24.35C59.5118 24.35 58.3431 24.8883 57.5639 25.965C56.7848 27.0417 56.3385 28.8975 56.2252 31.5325C56.1968 32.2833 56.1827 33.1333 56.1827 34.0825C56.1968 35.0317 56.2181 36.0233 56.2464 37.0575C56.2889 38.0917 56.3314 39.1187 56.3739 40.1387H53.8239C53.7531 38.6512 53.6964 37.1283 53.6539 35.57C53.6256 33.9975 53.6327 32.6304 53.6752 31.4687C53.8168 28.1679 54.4685 25.8162 55.6302 24.4137C56.7918 23.0112 58.6052 22.31 61.0702 22.31C63.7335 22.31 65.6673 23.0325 66.8714 24.4775C68.0898 25.9225 68.7627 28.2317 68.8902 31.405C68.9185 32.0283 68.9327 32.6092 68.9327 33.1475C68.9468 33.6717 68.9539 34.1746 68.9539 34.6562C68.9539 35.1379 68.9468 35.6267 68.9327 36.1225C68.9185 36.6183 68.9043 37.1496 68.8902 37.7162C68.8477 39.2887 68.6139 40.7054 68.1889 41.9662C67.7781 43.2271 67.0981 44.3887 66.1489 45.4512C65.2139 46.4996 63.9318 47.4983 62.3027 48.4475L57.5427 51.2312C55.1485 52.6196 53.1085 54.1496 51.4227 55.8212C49.7368 57.4929 48.4335 59.4054 47.5127 61.5587C46.606 63.7121 46.1102 66.2125 46.0252 69.06C45.9827 70.5475 45.9543 71.7942 45.9402 72.8C45.926 73.8058 45.926 74.8896 45.9402 76.0512C45.9685 77.2129 46.0039 78.7925 46.0464 80.79H77.9852V83H43.5602ZM48.5327 78.58C48.4902 76.6108 48.4689 74.9817 48.4689 73.6925C48.4831 72.4033 48.5185 70.8804 48.5752 69.1237C48.646 66.7012 49.0568 64.5621 49.8077 62.7062C50.5727 60.8362 51.6918 59.1575 53.1652 57.67C54.6527 56.1683 56.5156 54.7658 58.7539 53.4625L63.5352 50.6787C65.391 49.6021 66.8856 48.4333 68.0189 47.1725C69.1664 45.8975 70.0093 44.4879 70.5477 42.9437C71.086 41.3996 71.3835 39.6854 71.4402 37.8012C71.4685 37.1637 71.4827 36.5758 71.4827 36.0375C71.4968 35.485 71.5039 34.9537 71.5039 34.4437C71.5039 33.9337 71.4968 33.4308 71.4827 32.935C71.4827 32.425 71.4685 31.8937 71.4402 31.3412C71.2702 27.1337 70.3139 24.2367 68.5714 22.65C66.8289 21.0633 64.3285 20.27 61.0702 20.27C57.6985 20.27 55.2335 21.1342 53.6752 22.8625C52.131 24.5767 51.281 27.4312 51.1252 31.4262C51.0968 32.1204 51.0827 32.9775 51.0827 33.9975C51.0968 35.0033 51.1181 36.0517 51.1464 37.1425C51.1889 38.2333 51.2314 39.2321 51.2739 40.1387H48.7452C48.6885 39.1896 48.6389 38.1767 48.5964 37.1C48.5681 36.0092 48.5468 34.9538 48.5327 33.9337C48.5327 32.9137 48.5468 32.0496 48.5752 31.3412C48.7735 26.6804 49.836 23.33 51.7627 21.29C53.6893 19.25 56.7918 18.23 61.0702 18.23C65.4193 18.23 68.6068 19.2287 70.6327 21.2262C72.6727 23.2096 73.7918 26.5671 73.9902 31.2987C74.0185 31.8371 74.0327 32.3754 74.0327 32.9137C74.0468 33.4379 74.0539 33.9692 74.0539 34.5075C74.0539 35.0317 74.0468 35.5771 74.0327 36.1437C74.0327 36.6962 74.0185 37.27 73.9902 37.865C73.9193 40.245 73.5227 42.3558 72.8002 44.1975C72.0918 46.025 71.0648 47.6471 69.7189 49.0637C68.3873 50.4804 66.7439 51.7625 64.7889 52.91L59.9864 55.715C58.2864 56.7067 56.7777 57.7975 55.4602 58.9875C54.1568 60.1633 53.1227 61.5729 52.3577 63.2162C51.6068 64.8454 51.196 66.8429 51.1252 69.2087C51.0827 70.5687 51.0543 71.8296 51.0402 72.9912C51.026 74.1529 51.026 75.2792 51.0402 76.37H77.9852V78.58H48.5327ZM103.186 83.85C97.548 83.85 93.1776 82.3767 90.0751 79.43C86.9868 76.4692 85.3788 72.2475 85.2513 66.765C85.1805 63.0958 85.1238 59.2142 85.0813 55.12C85.053 51.0117 85.053 46.9104 85.0813 42.8162C85.1097 38.7079 85.1663 34.8192 85.2513 31.15C85.3788 25.6817 86.9938 21.4812 90.0963 18.5487C93.1988 15.6162 97.5622 14.15 103.186 14.15C108.655 14.15 112.947 15.5879 116.064 18.4637C119.195 21.3396 120.852 25.5471 121.036 31.0862C121.192 35.4779 121.291 39.6358 121.334 43.56C121.376 47.4842 121.369 51.3446 121.313 55.1412C121.27 58.9237 121.178 62.8337 121.036 66.8712C120.852 72.1554 119.258 76.3062 116.255 79.3237C113.266 82.3412 108.91 83.85 103.186 83.85ZM103.186 81.81C108.201 81.81 111.97 80.4358 114.491 77.6875C117.013 74.9392 118.352 71.2629 118.508 66.6587C118.649 62.7204 118.734 58.7679 118.763 54.8012C118.805 50.8346 118.805 46.875 118.763 42.9225C118.72 38.97 118.628 35.0458 118.486 31.15C118.331 26.4325 116.949 22.7633 114.343 20.1425C111.736 17.5075 108.017 16.19 103.186 16.19C98.2988 16.19 94.5376 17.5004 91.9026 20.1212C89.2818 22.7421 87.9147 26.4396 87.8013 31.2137C87.7163 34.9396 87.6597 38.8212 87.6313 42.8587C87.603 46.8821 87.603 50.9196 87.6313 54.9712C87.6597 59.0229 87.7163 62.9329 87.8013 66.7012C87.9147 71.5179 89.2888 75.2437 91.9238 77.8787C94.573 80.4996 98.3272 81.81 103.186 81.81ZM103.186 79.77C99.1913 79.77 96.0747 78.6508 93.8363 76.4125C91.6122 74.16 90.4505 70.9017 90.3513 66.6375C90.2663 62.8692 90.2097 58.9875 90.1813 54.9925C90.153 50.9975 90.153 46.9954 90.1813 42.9862C90.2097 38.9629 90.2663 35.06 90.3513 31.2775C90.4505 27.0842 91.6051 23.8612 93.8151 21.6087C96.0393 19.3562 99.163 18.23 103.186 18.23C107.21 18.23 110.305 19.3704 112.473 21.6512C114.64 23.9321 115.795 27.1267 115.936 31.235C116.064 34.975 116.149 38.7929 116.191 42.6887C116.248 46.5846 116.255 50.53 116.213 54.525C116.184 58.52 116.099 62.5362 115.958 66.5737C115.816 70.5262 114.711 73.7137 112.643 76.1362C110.574 78.5587 107.422 79.77 103.186 79.77ZM103.186 77.73C106.445 77.73 108.931 76.7383 110.645 74.755C112.359 72.7717 113.28 70.0092 113.408 66.4675C113.535 62.9967 113.62 59.285 113.663 55.3325C113.705 51.38 113.705 47.3637 113.663 43.2837C113.634 39.2037 113.549 35.2583 113.408 31.4475C113.294 28.0617 112.402 25.3558 110.73 23.33C109.058 21.29 106.544 20.27 103.186 20.27C99.9563 20.27 97.4559 21.2262 95.6851 23.1387C93.9143 25.0371 92.9863 27.7642 92.9013 31.32C92.8163 35.1025 92.7597 38.9912 92.7313 42.9862C92.703 46.9671 92.703 50.955 92.7313 54.95C92.7597 58.9308 92.8163 62.8125 92.9013 66.595C92.9863 70.1792 93.9143 72.9346 95.6851 74.8612C97.4559 76.7737 99.9563 77.73 103.186 77.73ZM103.186 75.69C100.764 75.69 98.8868 74.9037 97.5551 73.3312C96.2234 71.7446 95.5222 69.4779 95.4513 66.5312C95.3947 63.6696 95.3451 60.7654 95.3026 57.8187C95.2743 54.8579 95.2601 51.89 95.2601 48.915C95.2601 45.9258 95.2743 42.965 95.3026 40.0325C95.3451 37.0858 95.3947 34.2029 95.4513 31.3837C95.5222 28.4654 96.2234 26.2271 97.5551 24.6687C98.9009 23.0962 100.778 22.31 103.186 22.31C105.722 22.31 107.606 23.16 108.839 24.86C110.086 26.5458 110.758 28.77 110.858 31.5325C110.985 35.0033 111.07 38.7221 111.113 42.6887C111.155 46.6554 111.155 50.6646 111.113 54.7162C111.084 58.7537 110.999 62.6425 110.858 66.3825C110.758 69.1592 110.086 71.4046 108.839 73.1187C107.606 74.8329 105.722 75.69 103.186 75.69ZM103.186 73.65C104.787 73.65 106.02 73.0054 106.884 71.7162C107.748 70.4271 108.223 68.6137 108.308 66.2762C108.393 63.6979 108.456 60.9779 108.499 58.1162C108.556 55.2404 108.584 52.3008 108.584 49.2975C108.598 46.2942 108.577 43.2979 108.52 40.3087C108.478 37.3196 108.407 34.4225 108.308 31.6175C108.223 29.2517 107.734 27.4525 106.841 26.22C105.963 24.9733 104.745 24.35 103.186 24.35C101.571 24.35 100.318 24.9592 99.4251 26.1775C98.5326 27.3958 98.058 29.1454 98.0013 31.4262C97.9447 34.3021 97.8951 37.2204 97.8526 40.1812C97.8243 43.1279 97.8101 46.0817 97.8101 49.0425C97.8101 52.0033 97.8243 54.95 97.8526 57.8825C97.8951 60.8008 97.9447 63.6696 98.0013 66.4887C98.058 68.7837 98.5326 70.5546 99.4251 71.8012C100.318 73.0337 101.571 73.65 103.186 73.65ZM132.432 83.32C130.224 83.32 128.584 82.8373 127.512 81.872C126.445 80.9067 125.867 79.2453 125.776 76.888C125.765 76.616 125.76 76.2427 125.76 75.768C125.76 75.2933 125.771 74.8293 125.792 74.376C125.813 73.9227 125.851 73.5973 125.904 73.4H126.856C126.819 73.5867 126.787 73.8667 126.76 74.24C126.733 74.6133 126.717 75.032 126.712 75.496C126.712 75.9547 126.72 76.408 126.736 76.856C126.816 78.904 127.301 80.3653 128.192 81.24C129.083 82.1147 130.496 82.552 132.432 82.552C134.411 82.552 135.845 82.112 136.736 81.232C137.627 80.3467 138.112 78.8853 138.192 76.848C138.203 76.5813 138.211 76.3253 138.216 76.08C138.227 75.8347 138.232 75.592 138.232 75.352C138.237 75.1067 138.235 74.8533 138.224 74.592C138.165 73.12 137.779 71.92 137.064 70.992C136.355 70.064 135.376 69.4293 134.128 69.088L131.16 68.272C130.819 68.176 130.525 68.0187 130.28 67.8C130.035 67.576 129.845 67.2933 129.712 66.952C129.579 66.6107 129.504 66.2133 129.488 65.76C129.472 65.3173 129.464 64.9493 129.464 64.656C129.464 64.3573 129.472 63.9973 129.488 63.576C129.536 62.3813 129.787 61.512 130.24 60.968C130.699 60.424 131.429 60.152 132.432 60.152C133.36 60.152 134.043 60.416 134.48 60.944C134.917 61.472 135.163 62.3573 135.216 63.6C135.232 64.0053 135.232 64.536 135.216 65.192C135.205 65.848 135.187 66.4507 135.16 67H134.2C134.227 66.472 134.245 65.8667 134.256 65.184C134.272 64.496 134.275 63.9947 134.264 63.68C134.221 62.5973 134.043 61.8667 133.728 61.488C133.419 61.1093 132.987 60.92 132.432 60.92C131.749 60.92 131.256 61.1413 130.952 61.584C130.653 62.0213 130.483 62.72 130.44 63.68C130.424 64.0533 130.419 64.4187 130.424 64.776C130.435 65.128 130.443 65.4453 130.448 65.728C130.459 66.0373 130.501 66.3067 130.576 66.536C130.656 66.76 130.765 66.944 130.904 67.088C131.043 67.2267 131.208 67.3227 131.4 67.376L134.352 68.152C135.835 68.5413 136.992 69.28 137.824 70.368C138.661 71.4507 139.115 72.8453 139.184 74.552C139.195 74.7973 139.197 75.0533 139.192 75.32C139.192 75.5867 139.187 75.8533 139.176 76.12C139.171 76.3867 139.163 76.6427 139.152 76.888C139.056 79.1813 138.488 80.8267 137.448 81.824C136.413 82.8213 134.741 83.32 132.432 83.32ZM132.432 81.784C130.843 81.784 129.675 81.408 128.928 80.656C128.181 79.8987 127.771 78.6187 127.696 76.816C127.685 76.464 127.68 76.0587 127.68 75.6C127.685 75.1413 127.696 74.7093 127.712 74.304C127.733 73.8933 127.763 73.592 127.8 73.4H128.752C128.72 73.6293 128.693 73.9253 128.672 74.288C128.651 74.6507 128.637 75.0507 128.632 75.488C128.632 75.9253 128.64 76.3707 128.656 76.824C128.715 78.3173 129.037 79.3893 129.624 80.04C130.216 80.6907 131.152 81.016 132.432 81.016C133.733 81.016 134.683 80.6907 135.28 80.04C135.883 79.384 136.213 78.312 136.272 76.824C136.288 76.4933 136.299 76.2053 136.304 75.96C136.309 75.7147 136.312 75.488 136.312 75.28C136.317 75.072 136.315 74.8693 136.304 74.672C136.277 73.9947 136.157 73.4053 135.944 72.904C135.731 72.3973 135.432 71.9813 135.048 71.656C134.669 71.3253 134.213 71.0907 133.68 70.952L130.672 70.168C130.091 70.0133 129.571 69.7573 129.112 69.4C128.653 69.0373 128.288 68.56 128.016 67.968C127.744 67.3707 127.595 66.6533 127.568 65.816C127.557 65.4853 127.549 65.2027 127.544 64.968C127.544 64.7333 127.544 64.5067 127.544 64.288C127.549 64.064 127.557 63.8133 127.568 63.536C127.643 61.7547 128.061 60.4907 128.824 59.744C129.592 58.992 130.795 58.616 132.432 58.616C134.043 58.616 135.211 59 135.936 59.768C136.667 60.536 137.067 61.7973 137.136 63.552C137.152 63.9573 137.152 64.504 137.136 65.192C137.125 65.8747 137.104 66.4773 137.072 67H136.12C136.147 66.5253 136.168 65.952 136.184 65.28C136.2 64.6027 136.197 64.024 136.176 63.544C136.117 62.0613 135.795 60.9973 135.208 60.352C134.627 59.7067 133.701 59.384 132.432 59.384C131.2 59.384 130.256 59.6827 129.6 60.28C128.949 60.8773 128.592 61.9653 128.528 63.544C128.507 64.0293 128.499 64.4187 128.504 64.712C128.509 65.0053 128.517 65.3653 128.528 65.792C128.549 66.4213 128.656 66.9707 128.848 67.44C129.045 67.904 129.317 68.288 129.664 68.592C130.016 68.8907 130.432 69.104 130.912 69.232L133.904 70.016C134.933 70.2827 135.739 70.8107 136.32 71.6C136.901 72.384 137.216 73.3947 137.264 74.632C137.275 74.8507 137.28 75.0613 137.28 75.264C137.28 75.4613 137.275 75.68 137.264 75.92C137.259 76.16 137.248 76.456 137.232 76.808C137.163 78.5467 136.763 79.8107 136.032 80.6C135.307 81.3893 134.107 81.784 132.432 81.784ZM132.432 80.248C131.499 80.248 130.808 79.9813 130.36 79.448C129.912 78.9147 129.664 78.0133 129.616 76.744C129.605 76.3707 129.6 75.976 129.6 75.56C129.6 75.144 129.608 74.7467 129.624 74.368C129.645 73.9893 129.669 73.6667 129.696 73.4H130.648C130.621 73.7307 130.597 74.072 130.576 74.424C130.56 74.776 130.552 75.144 130.552 75.528C130.552 75.9067 130.56 76.304 130.576 76.72C130.613 77.6 130.757 78.28 131.008 78.76C131.264 79.24 131.739 79.48 132.432 79.48C133.077 79.48 133.549 79.264 133.848 78.832C134.152 78.3947 134.323 77.6773 134.36 76.68C134.376 76.344 134.384 76.056 134.384 75.816C134.389 75.576 134.392 75.3707 134.392 75.2C134.392 75.024 134.389 74.8693 134.384 74.736C134.373 74.3787 134.32 74.0693 134.224 73.808C134.128 73.5413 133.995 73.3253 133.824 73.16C133.659 72.9893 133.459 72.8747 133.224 72.816L130.192 72.024C129.253 71.7787 128.451 71.3787 127.784 70.824C127.117 70.264 126.603 69.568 126.24 68.736C125.877 67.904 125.68 66.952 125.648 65.88C125.632 65.3627 125.624 64.9307 125.624 64.584C125.624 64.2373 125.632 63.8693 125.648 63.48C125.744 61.1973 126.317 59.56 127.368 58.568C128.419 57.576 130.107 57.08 132.432 57.08C134.651 57.08 136.285 57.5653 137.336 58.536C138.387 59.5013 138.96 61.1493 139.056 63.48C139.072 63.8853 139.072 64.4507 139.056 65.176C139.045 65.9013 139.024 66.5093 138.992 67H138.032C138.069 66.4293 138.093 65.808 138.104 65.136C138.115 64.4587 138.112 63.9173 138.096 63.512C138.016 61.48 137.533 60.0293 136.648 59.16C135.768 58.2853 134.363 57.848 132.432 57.848C130.453 57.848 129.008 58.2827 128.096 59.152C127.189 60.016 126.693 61.4667 126.608 63.504C126.587 64 126.579 64.4133 126.584 64.744C126.589 65.0747 126.597 65.4427 126.608 65.848C126.64 66.7653 126.808 67.5813 127.112 68.296C127.416 69.0053 127.848 69.5973 128.408 70.072C128.968 70.5467 129.643 70.888 130.432 71.096L133.456 71.888C133.835 71.984 134.16 72.1547 134.432 72.4C134.704 72.64 134.917 72.952 135.072 73.336C135.232 73.72 135.323 74.176 135.344 74.704C135.355 74.912 135.357 75.1093 135.352 75.296C135.352 75.4827 135.349 75.688 135.344 75.912C135.339 76.1307 135.328 76.4027 135.312 76.728C135.259 77.9813 135.011 78.8827 134.568 79.432C134.131 79.976 133.419 80.248 132.432 80.248Z" fill="white"/>
</svg>
