<svg width="150" height="70" viewBox="0 0 180 100" fill="none" xmlns="http://www.w3.org/2000/svg">
<rect width="180" height="100" fill="#FF00E5"/>
<path d="M60.7827 83.85C54.5635 83.85 50.0585 82.5254 47.2677 79.8763C44.491 77.2271 42.9893 72.8567 42.7627 66.765C42.7202 65.66 42.7131 64.5975 42.7414 63.5775C42.7697 62.5433 42.8335 61.3604 42.9327 60.0287C43.131 57.1954 43.8889 54.8225 45.2064 52.91C46.5381 50.9833 48.2806 49.3754 50.4339 48.0862V47.7462C48.4789 46.9954 46.8427 45.515 45.5252 43.305C44.2077 41.095 43.4427 38.6229 43.2302 35.8887C43.1735 35.2371 43.1452 34.4579 43.1452 33.5512C43.1452 32.6446 43.1735 31.8796 43.2302 31.2562C43.726 25.0229 45.3552 20.6171 48.1177 18.0387C50.8943 15.4462 55.116 14.15 60.7827 14.15C66.591 14.15 70.8552 15.4746 73.5752 18.1237C76.3093 20.7587 77.896 25.1292 78.3352 31.235C78.3918 31.9008 78.4202 32.6517 78.4202 33.4875C78.4202 34.3092 78.3918 35.1167 78.3352 35.91C78.151 38.6583 77.386 41.1375 76.0402 43.3475C74.7085 45.5433 73.0722 47.0096 71.1314 47.7462V48.0862C73.3414 48.9929 75.091 50.4592 76.3802 52.485C77.6693 54.4967 78.4272 57.0467 78.6539 60.135C78.7389 61.3675 78.7956 62.5079 78.8239 63.5562C78.8522 64.6046 78.8452 65.7379 78.8027 66.9562C78.5902 72.9629 77.0743 77.2837 74.2552 79.9187C71.4502 82.5396 66.9593 83.85 60.7827 83.85ZM60.7827 77.73C64.466 77.73 67.1364 76.8587 68.7939 75.1162C70.4656 73.3737 71.3722 70.4908 71.5139 66.4675C71.5422 65.6033 71.5422 64.6825 71.5139 63.705C71.4997 62.7275 71.4502 61.7429 71.3652 60.7512C70.9968 56.5154 70.0052 53.4625 68.3902 51.5925C66.7752 49.7225 64.2393 48.7875 60.7827 48.7875C57.3685 48.7875 54.8468 49.7083 53.2177 51.55C51.5885 53.3917 50.5897 56.4375 50.2214 60.6875C50.1222 61.8208 50.0585 62.8054 50.0302 63.6412C50.016 64.4629 50.0302 65.4121 50.0727 66.4887C50.2143 70.3846 51.0856 73.2321 52.6864 75.0312C54.2872 76.8304 56.986 77.73 60.7827 77.73ZM60.7827 75.69C58.006 75.69 55.9589 74.9817 54.6414 73.565C53.3239 72.1483 52.6085 69.7471 52.4952 66.3612C52.4668 65.5962 52.4668 64.7179 52.4952 63.7262C52.5377 62.7346 52.5872 61.7854 52.6439 60.8787C52.8564 57.2662 53.5789 54.6454 54.8114 53.0162C56.0581 51.3871 58.0485 50.5725 60.7827 50.5725C63.616 50.5725 65.6277 51.4154 66.8177 53.1012C68.0218 54.7729 68.7231 57.3654 68.9214 60.8787C68.9922 61.8846 69.0418 62.8337 69.0702 63.7262C69.0985 64.6046 69.0985 65.49 69.0702 66.3825C68.9568 69.7117 68.2556 72.0987 66.9664 73.5437C65.6914 74.9746 63.6302 75.69 60.7827 75.69ZM60.7827 73.65C62.766 73.65 64.211 73.0833 65.1177 71.95C66.0385 70.8025 66.5485 68.9112 66.6477 66.2762C66.676 65.7237 66.6831 64.9233 66.6689 63.875C66.6547 62.8267 66.5981 61.8846 66.4989 61.0488C66.1447 57.7762 65.571 55.5804 64.7777 54.4612C63.9843 53.3421 62.6527 52.7825 60.7827 52.7825C58.9127 52.7825 57.581 53.3492 56.7877 54.4825C56.0085 55.6017 55.4347 57.8046 55.0664 61.0912C54.9814 61.8704 54.9318 62.7629 54.9177 63.7687C54.9035 64.7604 54.9106 65.6529 54.9389 66.4462C55.0381 68.9962 55.541 70.8379 56.4477 71.9712C57.3685 73.0904 58.8135 73.65 60.7827 73.65ZM60.7827 81.81C66.1235 81.81 70.0052 80.6483 72.4277 78.325C74.8643 76.0017 76.1818 72.1129 76.3802 66.6587C76.4085 65.8229 76.4085 64.8808 76.3802 63.8325C76.366 62.77 76.3164 61.6083 76.2314 60.3475C76.0189 57.3867 75.1547 54.7942 73.6389 52.57C72.1372 50.3317 70.2602 48.8371 68.0077 48.0862V47.5762C70.7843 46.5987 72.7322 45.1608 73.8514 43.2625C74.9706 41.3642 75.6506 38.9133 75.8914 35.91C75.9622 35.0317 75.9977 34.2737 75.9977 33.6362C75.9977 32.9987 75.9622 32.2267 75.8914 31.32C75.5089 25.9367 74.1418 22.0692 71.7902 19.7175C69.4527 17.3658 65.7835 16.19 60.7827 16.19C55.7535 16.19 52.0702 17.3729 49.7327 19.7387C47.3952 22.0904 46.0422 25.9862 45.6739 31.4262C45.6172 32.1771 45.5889 32.8783 45.5889 33.53C45.5889 34.1817 45.6172 34.9467 45.6739 35.825C45.9147 38.8567 46.5947 41.3287 47.7139 43.2412C48.8331 45.1396 50.781 46.5846 53.5577 47.5762V48.0862C51.3193 48.8512 49.4422 50.3387 47.9264 52.5487C46.4247 54.7446 45.5677 57.33 45.3552 60.305C45.256 61.7358 45.1922 62.8904 45.1639 63.7687C45.1497 64.6471 45.1639 65.6175 45.2064 66.68C45.4047 72.0775 46.701 75.9521 49.0952 78.3037C51.5035 80.6412 55.3993 81.81 60.7827 81.81ZM60.7827 79.77C56.2635 79.77 52.9839 78.75 50.9439 76.71C48.9039 74.67 47.7989 71.2842 47.6289 66.5525C47.6006 65.5608 47.5935 64.6329 47.6077 63.7687C47.636 62.8904 47.6927 61.8279 47.7777 60.5812C48.0185 57.1104 48.8472 54.3762 50.2639 52.3787C51.6947 50.3671 53.4089 48.8937 55.4064 47.9587V47.6187C53.2389 46.8112 51.5247 45.5008 50.2639 43.6875C49.0172 41.8742 48.2947 39.2179 48.0964 35.7187C48.0681 35.1946 48.0539 34.5854 48.0539 33.8912C48.0539 33.1829 48.0681 32.425 48.0964 31.6175C48.3231 26.5883 49.4777 23.1033 51.5602 21.1625C53.6568 19.2075 56.731 18.23 60.7827 18.23C65.1177 18.23 68.2627 19.2642 70.2177 21.3325C72.1727 23.4008 73.2564 26.8292 73.4689 31.6175C73.4972 32.4675 73.5114 33.2042 73.5114 33.8275C73.5114 34.4367 73.4972 35.0671 73.4689 35.7187C73.2847 39.2179 72.5693 41.8742 71.3227 43.6875C70.076 45.4867 68.3618 46.7971 66.1802 47.6187V47.9587C68.1635 48.8796 69.8635 50.3458 71.2802 52.3575C72.711 54.355 73.5468 57.0679 73.7877 60.4962C73.901 62.0687 73.9577 63.2233 73.9577 63.96C73.9718 64.6825 73.9647 65.5537 73.9364 66.5737C73.7664 71.1354 72.7039 74.4787 70.7489 76.6037C68.7939 78.7146 65.4718 79.77 60.7827 79.77ZM60.7827 46.5775C64.551 46.5775 67.1506 45.7204 68.5814 44.0062C70.0264 42.2779 70.841 39.4871 71.0252 35.6337C71.0677 34.8687 71.0889 34.2313 71.0889 33.7212C71.0889 33.1971 71.0747 32.5596 71.0464 31.8087C70.8622 27.6862 69.9697 24.7325 68.3689 22.9475C66.7681 21.1625 64.2393 20.27 60.7827 20.27C57.326 20.27 54.8043 21.1625 53.2177 22.9475C51.631 24.7183 50.7385 27.6508 50.5402 31.745C50.4977 32.6942 50.4764 33.4096 50.4764 33.8912C50.4906 34.3587 50.5118 34.9396 50.5402 35.6337C50.7385 39.6571 51.5885 42.4904 53.0902 44.1337C54.606 45.7629 57.1702 46.5775 60.7827 46.5775ZM60.7827 44.8775C58.0343 44.8775 56.0864 44.1833 54.9389 42.795C53.7914 41.4067 53.1327 38.9842 52.9627 35.5275C52.9343 34.9042 52.9202 34.295 52.9202 33.7C52.9343 33.0908 52.9485 32.5242 52.9627 32C53.1327 28.5292 53.8197 26.05 55.0239 24.5625C56.2422 23.0608 58.1618 22.31 60.7827 22.31C63.4035 22.31 65.316 23.0608 66.5202 24.5625C67.7385 26.05 68.4327 28.515 68.6027 31.9575C68.631 32.6517 68.6452 33.2325 68.6452 33.7C68.6593 34.1675 68.6452 34.7908 68.6027 35.57C68.4327 39.0408 67.7668 41.4633 66.6052 42.8375C65.4435 44.1975 63.5027 44.8775 60.7827 44.8775ZM60.7827 42.7525C62.9077 42.7525 64.3031 42.285 64.9689 41.35C65.6347 40.415 66.0385 38.4387 66.1802 35.4212C66.1943 35.0954 66.2014 34.7554 66.2014 34.4012C66.2156 34.0471 66.2227 33.6858 66.2227 33.3175C66.2227 32.935 66.2085 32.5525 66.1802 32.17C66.0385 29.11 65.5002 27.0417 64.5652 25.965C63.6443 24.8883 62.3835 24.35 60.7827 24.35C59.026 24.35 57.7227 24.9521 56.8727 26.1562C56.0368 27.3462 55.5481 29.3083 55.4064 32.0425C55.3781 32.6517 55.3568 33.19 55.3427 33.6575C55.3427 34.125 55.3639 34.7625 55.4064 35.57C55.5622 38.5167 55.9731 40.4504 56.6389 41.3712C57.3047 42.2921 58.686 42.7525 60.7827 42.7525ZM103.642 83.85C98.0036 83.85 93.6332 82.3767 90.5307 79.43C87.4423 76.4692 85.8344 72.2475 85.7069 66.765C85.6361 63.0958 85.5794 59.2142 85.5369 55.12C85.5086 51.0117 85.5086 46.9104 85.5369 42.8162C85.5652 38.7079 85.6219 34.8192 85.7069 31.15C85.8344 25.6817 87.4494 21.4812 90.5519 18.5487C93.6544 15.6162 98.0177 14.15 103.642 14.15C109.11 14.15 113.403 15.5879 116.519 18.4637C119.65 21.3396 121.308 25.5471 121.492 31.0862C121.648 35.4779 121.747 39.6358 121.789 43.56C121.832 47.4842 121.825 51.3446 121.768 55.1412C121.726 58.9237 121.634 62.8337 121.492 66.8712C121.308 72.1554 119.714 76.3062 116.711 79.3237C113.721 82.3412 109.365 83.85 103.642 83.85ZM103.642 81.81C108.657 81.81 112.425 80.4358 114.947 77.6875C117.469 74.9392 118.807 71.2629 118.963 66.6587C119.105 62.7204 119.19 58.7679 119.218 54.8012C119.261 50.8346 119.261 46.875 119.218 42.9225C119.176 38.97 119.084 35.0458 118.942 31.15C118.786 26.4325 117.405 22.7633 114.798 20.1425C112.191 17.5075 108.473 16.19 103.642 16.19C98.7544 16.19 94.9932 17.5004 92.3582 20.1212C89.7373 22.7421 88.3702 26.4396 88.2569 31.2137C88.1719 34.9396 88.1152 38.8212 88.0869 42.8587C88.0586 46.8821 88.0586 50.9196 88.0869 54.9712C88.1152 59.0229 88.1719 62.9329 88.2569 66.7012C88.3702 71.5179 89.7444 75.2437 92.3794 77.8787C95.0286 80.4996 98.7827 81.81 103.642 81.81ZM103.642 79.77C99.6469 79.77 96.5302 78.6508 94.2919 76.4125C92.0677 74.16 90.9061 70.9017 90.8069 66.6375C90.7219 62.8692 90.6652 58.9875 90.6369 54.9925C90.6086 50.9975 90.6086 46.9954 90.6369 42.9862C90.6652 38.9629 90.7219 35.06 90.8069 31.2775C90.9061 27.0842 92.0607 23.8612 94.2707 21.6087C96.4948 19.3562 99.6186 18.23 103.642 18.23C107.665 18.23 110.761 19.3704 112.928 21.6512C115.096 23.9321 116.25 27.1267 116.392 31.235C116.519 34.975 116.604 38.7929 116.647 42.6887C116.704 46.5846 116.711 50.53 116.668 54.525C116.64 58.52 116.555 62.5362 116.413 66.5737C116.271 70.5262 115.166 73.7137 113.098 76.1362C111.03 78.5587 107.878 79.77 103.642 79.77ZM103.642 77.73C106.9 77.73 109.386 76.7383 111.101 74.755C112.815 72.7717 113.736 70.0092 113.863 66.4675C113.991 62.9967 114.076 59.285 114.118 55.3325C114.161 51.38 114.161 47.3637 114.118 43.2837C114.09 39.2037 114.005 35.2583 113.863 31.4475C113.75 28.0617 112.857 25.3558 111.186 23.33C109.514 21.29 106.999 20.27 103.642 20.27C100.412 20.27 97.9115 21.2262 96.1407 23.1387C94.3698 25.0371 93.4419 27.7642 93.3569 31.32C93.2719 35.1025 93.2152 38.9912 93.1869 42.9862C93.1586 46.9671 93.1586 50.955 93.1869 54.95C93.2152 58.9308 93.2719 62.8125 93.3569 66.595C93.4419 70.1792 94.3698 72.9346 96.1407 74.8612C97.9115 76.7737 100.412 77.73 103.642 77.73ZM103.642 75.69C101.219 75.69 99.3423 74.9037 98.0107 73.3312C96.679 71.7446 95.9777 69.4779 95.9069 66.5312C95.8502 63.6696 95.8007 60.7654 95.7582 57.8187C95.7298 54.8579 95.7157 51.89 95.7157 48.915C95.7157 45.9258 95.7298 42.965 95.7582 40.0325C95.8007 37.0858 95.8502 34.2029 95.9069 31.3837C95.9777 28.4654 96.679 26.2271 98.0107 24.6687C99.3565 23.0962 101.234 22.31 103.642 22.31C106.178 22.31 108.062 23.16 109.294 24.86C110.541 26.5458 111.214 28.77 111.313 31.5325C111.441 35.0033 111.526 38.7221 111.568 42.6887C111.611 46.6554 111.611 50.6646 111.568 54.7162C111.54 58.7537 111.455 62.6425 111.313 66.3825C111.214 69.1592 110.541 71.4046 109.294 73.1187C108.062 74.8329 106.178 75.69 103.642 75.69ZM103.642 73.65C105.243 73.65 106.475 73.0054 107.339 71.7162C108.204 70.4271 108.678 68.6137 108.763 66.2762C108.848 63.6979 108.912 60.9779 108.954 58.1162C109.011 55.2404 109.039 52.3008 109.039 49.2975C109.054 46.2942 109.032 43.2979 108.976 40.3087C108.933 37.3196 108.862 34.4225 108.763 31.6175C108.678 29.2517 108.189 27.4525 107.297 26.22C106.419 24.9733 105.2 24.35 103.642 24.35C102.027 24.35 100.773 24.9592 99.8807 26.1775C98.9882 27.3958 98.5136 29.1454 98.4569 31.4262C98.4002 34.3021 98.3507 37.2204 98.3082 40.1812C98.2798 43.1279 98.2657 46.0817 98.2657 49.0425C98.2657 52.0033 98.2798 54.95 98.3082 57.8825C98.3507 60.8008 98.4002 63.6696 98.4569 66.4887C98.5136 68.7837 98.9882 70.5546 99.8807 71.8012C100.773 73.0337 102.027 73.65 103.642 73.65ZM132.888 83.32C130.68 83.32 129.04 82.8373 127.968 81.872C126.901 80.9067 126.322 79.2453 126.232 76.888C126.221 76.616 126.216 76.2427 126.216 75.768C126.216 75.2933 126.226 74.8293 126.248 74.376C126.269 73.9227 126.306 73.5973 126.36 73.4H127.312C127.274 73.5867 127.242 73.8667 127.216 74.24C127.189 74.6133 127.173 75.032 127.168 75.496C127.168 75.9547 127.176 76.408 127.192 76.856C127.272 78.904 127.757 80.3653 128.648 81.24C129.538 82.1147 130.952 82.552 132.888 82.552C134.866 82.552 136.301 82.112 137.192 81.232C138.082 80.3467 138.568 78.8853 138.648 76.848C138.658 76.5813 138.666 76.3253 138.672 76.08C138.682 75.8347 138.688 75.592 138.688 75.352C138.693 75.1067 138.69 74.8533 138.68 74.592C138.621 73.12 138.234 71.92 137.52 70.992C136.81 70.064 135.832 69.4293 134.584 69.088L131.616 68.272C131.274 68.176 130.981 68.0187 130.736 67.8C130.49 67.576 130.301 67.2933 130.168 66.952C130.034 66.6107 129.96 66.2133 129.944 65.76C129.928 65.3173 129.92 64.9493 129.92 64.656C129.92 64.3573 129.928 63.9973 129.944 63.576C129.992 62.3813 130.242 61.512 130.696 60.968C131.154 60.424 131.885 60.152 132.888 60.152C133.816 60.152 134.498 60.416 134.936 60.944C135.373 61.472 135.618 62.3573 135.672 63.6C135.688 64.0053 135.688 64.536 135.672 65.192C135.661 65.848 135.642 66.4507 135.616 67H134.656C134.682 66.472 134.701 65.8667 134.712 65.184C134.728 64.496 134.73 63.9947 134.72 63.68C134.677 62.5973 134.498 61.8667 134.184 61.488C133.874 61.1093 133.442 60.92 132.888 60.92C132.205 60.92 131.712 61.1413 131.408 61.584C131.109 62.0213 130.938 62.72 130.896 63.68C130.88 64.0533 130.874 64.4187 130.88 64.776C130.89 65.128 130.898 65.4453 130.904 65.728C130.914 66.0373 130.957 66.3067 131.032 66.536C131.112 66.76 131.221 66.944 131.36 67.088C131.498 67.2267 131.664 67.3227 131.856 67.376L134.808 68.152C136.29 68.5413 137.448 69.28 138.28 70.368C139.117 71.4507 139.57 72.8453 139.64 74.552C139.65 74.7973 139.653 75.0533 139.648 75.32C139.648 75.5867 139.642 75.8533 139.632 76.12C139.626 76.3867 139.618 76.6427 139.608 76.888C139.512 79.1813 138.944 80.8267 137.904 81.824C136.869 82.8213 135.197 83.32 132.888 83.32ZM132.888 81.784C131.298 81.784 130.13 81.408 129.384 80.656C128.637 79.8987 128.226 78.6187 128.152 76.816C128.141 76.464 128.136 76.0587 128.136 75.6C128.141 75.1413 128.152 74.7093 128.168 74.304C128.189 73.8933 128.218 73.592 128.256 73.4H129.208C129.176 73.6293 129.149 73.9253 129.128 74.288C129.106 74.6507 129.093 75.0507 129.088 75.488C129.088 75.9253 129.096 76.3707 129.112 76.824C129.17 78.3173 129.493 79.3893 130.08 80.04C130.672 80.6907 131.608 81.016 132.888 81.016C134.189 81.016 135.138 80.6907 135.736 80.04C136.338 79.384 136.669 78.312 136.728 76.824C136.744 76.4933 136.754 76.2053 136.76 75.96C136.765 75.7147 136.768 75.488 136.768 75.28C136.773 75.072 136.77 74.8693 136.76 74.672C136.733 73.9947 136.613 73.4053 136.4 72.904C136.186 72.3973 135.888 71.9813 135.504 71.656C135.125 71.3253 134.669 71.0907 134.136 70.952L131.128 70.168C130.546 70.0133 130.026 69.7573 129.568 69.4C129.109 69.0373 128.744 68.56 128.472 67.968C128.2 67.3707 128.05 66.6533 128.024 65.816C128.013 65.4853 128.005 65.2027 128 64.968C128 64.7333 128 64.5067 128 64.288C128.005 64.064 128.013 63.8133 128.024 63.536C128.098 61.7547 128.517 60.4907 129.28 59.744C130.048 58.992 131.25 58.616 132.888 58.616C134.498 58.616 135.666 59 136.392 59.768C137.122 60.536 137.522 61.7973 137.592 63.552C137.608 63.9573 137.608 64.504 137.592 65.192C137.581 65.8747 137.56 66.4773 137.528 67H136.576C136.602 66.5253 136.624 65.952 136.64 65.28C136.656 64.6027 136.653 64.024 136.632 63.544C136.573 62.0613 136.25 60.9973 135.664 60.352C135.082 59.7067 134.157 59.384 132.888 59.384C131.656 59.384 130.712 59.6827 130.056 60.28C129.405 60.8773 129.048 61.9653 128.984 63.544C128.962 64.0293 128.954 64.4187 128.96 64.712C128.965 65.0053 128.973 65.3653 128.984 65.792C129.005 66.4213 129.112 66.9707 129.304 67.44C129.501 67.904 129.773 68.288 130.12 68.592C130.472 68.8907 130.888 69.104 131.368 69.232L134.36 70.016C135.389 70.2827 136.194 70.8107 136.776 71.6C137.357 72.384 137.672 73.3947 137.72 74.632C137.73 74.8507 137.736 75.0613 137.736 75.264C137.736 75.4613 137.73 75.68 137.72 75.92C137.714 76.16 137.704 76.456 137.688 76.808C137.618 78.5467 137.218 79.8107 136.488 80.6C135.762 81.3893 134.562 81.784 132.888 81.784ZM132.888 80.248C131.954 80.248 131.264 79.9813 130.816 79.448C130.368 78.9147 130.12 78.0133 130.072 76.744C130.061 76.3707 130.056 75.976 130.056 75.56C130.056 75.144 130.064 74.7467 130.08 74.368C130.101 73.9893 130.125 73.6667 130.152 73.4H131.104C131.077 73.7307 131.053 74.072 131.032 74.424C131.016 74.776 131.008 75.144 131.008 75.528C131.008 75.9067 131.016 76.304 131.032 76.72C131.069 77.6 131.213 78.28 131.464 78.76C131.72 79.24 132.194 79.48 132.888 79.48C133.533 79.48 134.005 79.264 134.304 78.832C134.608 78.3947 134.778 77.6773 134.816 76.68C134.832 76.344 134.84 76.056 134.84 75.816C134.845 75.576 134.848 75.3707 134.848 75.2C134.848 75.024 134.845 74.8693 134.84 74.736C134.829 74.3787 134.776 74.0693 134.68 73.808C134.584 73.5413 134.45 73.3253 134.28 73.16C134.114 72.9893 133.914 72.8747 133.68 72.816L130.648 72.024C129.709 71.7787 128.906 71.3787 128.24 70.824C127.573 70.264 127.058 69.568 126.696 68.736C126.333 67.904 126.136 66.952 126.104 65.88C126.088 65.3627 126.08 64.9307 126.08 64.584C126.08 64.2373 126.088 63.8693 126.104 63.48C126.2 61.1973 126.773 59.56 127.824 58.568C128.874 57.576 130.562 57.08 132.888 57.08C135.106 57.08 136.741 57.5653 137.792 58.536C138.842 59.5013 139.416 61.1493 139.512 63.48C139.528 63.8853 139.528 64.4507 139.512 65.176C139.501 65.9013 139.48 66.5093 139.448 67H138.488C138.525 66.4293 138.549 65.808 138.56 65.136C138.57 64.4587 138.568 63.9173 138.552 63.512C138.472 61.48 137.989 60.0293 137.104 59.16C136.224 58.2853 134.818 57.848 132.888 57.848C130.909 57.848 129.464 58.2827 128.552 59.152C127.645 60.016 127.149 61.4667 127.064 63.504C127.042 64 127.034 64.4133 127.04 64.744C127.045 65.0747 127.053 65.4427 127.064 65.848C127.096 66.7653 127.264 67.5813 127.568 68.296C127.872 69.0053 128.304 69.5973 128.864 70.072C129.424 70.5467 130.098 70.888 130.888 71.096L133.912 71.888C134.29 71.984 134.616 72.1547 134.888 72.4C135.16 72.64 135.373 72.952 135.528 73.336C135.688 73.72 135.778 74.176 135.8 74.704C135.81 74.912 135.813 75.1093 135.808 75.296C135.808 75.4827 135.805 75.688 135.8 75.912C135.794 76.1307 135.784 76.4027 135.768 76.728C135.714 77.9813 135.466 78.8827 135.024 79.432C134.586 79.976 133.874 80.248 132.888 80.248Z" fill="white"/>
</svg>
