<svg width="160" height="80" viewBox="0 0 180 100" fill="none" xmlns="http://www.w3.org/2000/svg">
<rect width="180" height="100" fill="#00AB30"/>
<path d="M61.6529 83.85C55.5471 83.85 51.0987 82.5892 48.3079 80.0675C45.5312 77.5458 44.0012 73.3667 43.7179 67.53C43.7037 67.0908 43.6896 66.6729 43.6754 66.2762C43.6612 65.8796 43.6542 65.4829 43.6542 65.0862C43.6542 64.6754 43.6612 64.2362 43.6754 63.7687C43.6896 63.2871 43.7037 62.7558 43.7179 62.175H46.2679C46.2537 62.77 46.2396 63.3083 46.2254 63.79C46.2112 64.2575 46.2042 64.6967 46.2042 65.1075C46.2042 65.5042 46.2112 65.8937 46.2254 66.2762C46.2396 66.6587 46.2537 67.0554 46.2679 67.4662C46.5371 72.5804 47.8617 76.2496 50.2417 78.4737C52.6217 80.6979 56.4254 81.81 61.6529 81.81C66.6537 81.81 70.2379 80.62 72.4054 78.24C74.5729 75.8458 75.7771 72.0208 76.0179 66.765C76.0604 65.7875 76.0817 64.2717 76.0817 62.2175C76.0958 60.1633 76.0958 57.6204 76.0817 54.5887C76.0675 51.5429 76.0462 48.065 76.0179 44.155C75.9896 40.2308 75.9612 35.9312 75.9329 31.2562C75.8904 25.9012 74.6933 22.055 72.3417 19.7175C70.0042 17.3658 66.1012 16.19 60.6329 16.19C55.4054 16.19 51.6087 17.3658 49.2429 19.7175C46.8912 22.0692 45.5029 25.9508 45.0779 31.3625C45.0071 32.3258 44.9504 33.5371 44.9079 34.9962C44.8796 36.4412 44.8725 37.9004 44.8867 39.3737C44.9008 40.8471 44.9362 42.115 44.9929 43.1775C45.2196 47.2292 46.4733 50.3458 48.7542 52.5275C51.0492 54.7092 54.2721 55.8 58.4229 55.8C61.4404 55.8 63.6929 55.3467 65.1804 54.44C66.6679 53.5333 68.0917 51.9467 69.4517 49.68H70.1317L68.3679 63.1737C68.3679 63.4287 68.3679 63.7687 68.3679 64.1937C68.3821 64.6046 68.3892 65.0154 68.3892 65.4262C68.4033 65.8229 68.4033 66.1275 68.3892 66.34C68.2475 69.8675 67.6171 72.3112 66.4979 73.6712C65.3787 75.0171 63.7637 75.69 61.6529 75.69C59.0462 75.69 57.1479 75.0737 55.9579 73.8412C54.7679 72.5946 54.095 70.5404 53.9392 67.6787C53.925 67.2679 53.9037 66.8712 53.8754 66.4887C53.8612 66.1062 53.8542 65.7096 53.8542 65.2987C53.8542 64.8879 53.8542 64.4275 53.8542 63.9175C53.8683 63.4075 53.8896 62.8267 53.9179 62.175H56.4679C56.4396 62.8692 56.4183 63.4712 56.4042 63.9812C56.4042 64.4771 56.4042 64.9304 56.4042 65.3412C56.4042 65.7379 56.4112 66.1204 56.4254 66.4887C56.4537 66.8429 56.475 67.2254 56.4892 67.6362C56.6025 69.7754 57.0629 71.3125 57.8704 72.2475C58.6779 73.1825 59.9387 73.65 61.6529 73.65C63.0696 73.65 64.1037 73.0833 64.7554 71.95C65.4212 70.8025 65.7967 68.9183 65.8817 66.2975C65.8958 66.0142 65.8958 65.6387 65.8817 65.1712C65.8675 64.6896 65.8533 64.2008 65.8392 63.705C65.8392 63.2092 65.8392 62.8054 65.8392 62.4937L68.4742 53.1862H67.9642C66.3492 54.9854 64.8546 56.2108 63.4804 56.8625C62.1062 57.5142 60.1654 57.84 57.6579 57.84C53.0112 57.84 49.3775 56.5933 46.7567 54.1C44.15 51.6067 42.7121 47.98 42.4429 43.22C42.3862 42.115 42.3508 40.8117 42.3367 39.31C42.3225 37.7942 42.3296 36.3067 42.3579 34.8475C42.4004 33.3742 42.4571 32.17 42.5279 31.235C43.0096 25.1008 44.6317 20.7233 47.3942 18.1025C50.1567 15.4675 54.5696 14.15 60.6329 14.15C66.9654 14.15 71.5129 15.4746 74.2754 18.1237C77.0379 20.7587 78.4404 25.1292 78.4829 31.235C78.5112 35.9667 78.5396 40.3087 78.5679 44.2612C78.5962 48.2137 78.6175 51.72 78.6317 54.78C78.6458 57.8258 78.6458 60.3687 78.6317 62.4087C78.6317 64.4487 78.6104 65.9292 78.5679 66.85C78.2987 72.715 76.9033 77.0146 74.3817 79.7487C71.8742 82.4829 67.6312 83.85 61.6529 83.85ZM61.6529 79.77C57.2612 79.77 54.0808 78.7996 52.1117 76.8587C50.1425 74.9179 49.0446 71.7375 48.8179 67.3175C48.7896 66.7508 48.7683 66.2408 48.7542 65.7875C48.7542 65.3342 48.7542 64.8312 48.7542 64.2787C48.7683 63.7262 48.7896 63.025 48.8179 62.175H51.3679C51.3537 62.6425 51.3396 63.1029 51.3254 63.5562C51.3112 64.0096 51.3042 64.4558 51.3042 64.895C51.3042 65.32 51.3112 65.745 51.3254 66.17C51.3396 66.595 51.3608 67.0129 51.3892 67.4237C51.63 71.1496 52.5508 73.7987 54.1517 75.3712C55.7667 76.9437 58.2671 77.73 61.6529 77.73C65.0246 77.73 67.3692 76.7879 68.6867 74.9037C70.0042 73.0196 70.7479 70.2146 70.9179 66.4887C70.9462 66.1062 70.9462 65.5962 70.9179 64.9587C70.9037 64.3071 70.9037 63.7687 70.9179 63.3437L71.6192 45.2387H71.1092C70.3867 47.7179 69.0196 49.7579 67.0079 51.3587C64.9962 52.9596 62.2267 53.76 58.6992 53.76C55.2425 53.76 52.565 52.8462 50.6667 51.0187C48.7683 49.1771 47.7271 46.5492 47.5429 43.135C47.4862 42.0725 47.4508 40.8187 47.4367 39.3737C47.4225 37.9287 47.4296 36.4979 47.4579 35.0812C47.5004 33.6504 47.5571 32.4533 47.6279 31.49C47.9962 26.9 49.1367 23.5425 51.0492 21.4175C52.9617 19.2925 56.1562 18.23 60.6329 18.23C65.1521 18.23 68.3962 19.2429 70.3654 21.2687C72.3487 23.2804 73.3546 26.6167 73.3829 31.2775C73.3971 32.5808 73.4042 34.4437 73.4042 36.8662C73.4183 39.2887 73.4325 41.945 73.4467 44.835C73.4608 47.7108 73.4679 50.5371 73.4679 53.3137C73.4821 56.0762 73.4892 58.4846 73.4892 60.5387C73.4892 62.5929 73.4821 63.9671 73.4679 64.6612C73.4679 64.8879 73.4679 65.1075 73.4679 65.32C73.4679 65.5325 73.4679 65.745 73.4679 65.9575C73.4821 66.17 73.4821 66.3896 73.4679 66.6162C73.2129 71.3054 72.1717 74.67 70.3442 76.71C68.5308 78.75 65.6337 79.77 61.6529 79.77ZM59.5917 51.72C61.9858 51.72 64.0258 51.2596 65.7117 50.3387C67.4117 49.4179 68.7079 48.1925 69.6004 46.6625C70.4929 45.1325 70.9321 43.4537 70.9179 41.6262C70.9037 40.0537 70.8896 38.4671 70.8754 36.8662C70.8754 35.2654 70.8612 33.4096 70.8329 31.2987C70.7762 27.4312 69.9758 24.6262 68.4317 22.8837C66.9017 21.1412 64.3021 20.27 60.6329 20.27C56.8929 20.27 54.2792 21.2192 52.7917 23.1175C51.3183 25.0017 50.4471 27.8421 50.1779 31.6387C50.0929 32.8854 50.0362 34.2454 50.0079 35.7187C49.9796 37.1921 49.9725 38.5875 49.9867 39.905C50.015 41.2225 50.0504 42.2921 50.0929 43.1137C50.2629 45.8196 51.1412 47.9304 52.7279 49.4462C54.3287 50.9621 56.6167 51.72 59.5917 51.72ZM60.3354 49.68C57.8562 49.68 55.9792 49.085 54.7042 47.895C53.4433 46.705 52.7562 45.0971 52.6429 43.0712C52.5862 41.8812 52.5508 40.5425 52.5367 39.055C52.5225 37.5675 52.5296 36.165 52.5579 34.8475C52.6004 33.53 52.65 32.5312 52.7067 31.8512C52.99 28.4371 53.7196 25.9933 54.8954 24.52C56.0854 23.0467 57.9979 22.31 60.6329 22.31C63.2821 22.31 65.1946 23.0112 66.3704 24.4137C67.5604 25.8021 68.1979 28.1042 68.2829 31.32C68.3254 32.9917 68.3537 34.6067 68.3679 36.165C68.3962 37.7092 68.3962 39.7137 68.3679 42.1787C68.3537 44.5871 67.61 46.4429 66.1367 47.7462C64.6633 49.0354 62.7296 49.68 60.3354 49.68ZM60.9729 47.64C62.4462 47.64 63.615 47.2433 64.4792 46.45C65.3575 45.6567 65.8037 44.5233 65.8179 43.05C65.8462 40.7125 65.8533 38.6796 65.8392 36.9512C65.8392 35.2229 65.8037 33.3458 65.7329 31.32C65.6337 28.8267 65.1875 27.0417 64.3942 25.965C63.615 24.8883 62.3612 24.35 60.6329 24.35C58.8621 24.35 57.58 24.9521 56.7867 26.1562C55.9933 27.3462 55.4833 29.28 55.2567 31.9575C55.2 32.7225 55.1504 33.7779 55.1079 35.1237C55.0796 36.4554 55.0725 37.8437 55.0867 39.2887C55.1008 40.7196 55.1362 41.9662 55.1929 43.0287C55.2637 44.5021 55.795 45.6425 56.7867 46.45C57.7783 47.2433 59.1737 47.64 60.9729 47.64ZM103.6 83.85C97.9621 83.85 93.5917 82.3767 90.4892 79.43C87.4008 76.4692 85.7929 72.2475 85.6654 66.765C85.5946 63.0958 85.5379 59.2142 85.4954 55.12C85.4671 51.0117 85.4671 46.9104 85.4954 42.8162C85.5237 38.7079 85.5804 34.8192 85.6654 31.15C85.7929 25.6817 87.4079 21.4812 90.5104 18.5487C93.6129 15.6162 97.9762 14.15 103.6 14.15C109.069 14.15 113.361 15.5879 116.478 18.4637C119.609 21.3396 121.266 25.5471 121.45 31.0862C121.606 35.4779 121.705 39.6358 121.748 43.56C121.79 47.4842 121.783 51.3446 121.727 55.1412C121.684 58.9237 121.592 62.8337 121.45 66.8712C121.266 72.1554 119.672 76.3062 116.669 79.3237C113.68 82.3412 109.324 83.85 103.6 83.85ZM103.6 81.81C108.615 81.81 112.384 80.4358 114.905 77.6875C117.427 74.9392 118.766 71.2629 118.922 66.6587C119.063 62.7204 119.148 58.7679 119.177 54.8012C119.219 50.8346 119.219 46.875 119.177 42.9225C119.134 38.97 119.042 35.0458 118.9 31.15C118.745 26.4325 117.363 22.7633 114.757 20.1425C112.15 17.5075 108.431 16.19 103.6 16.19C98.7129 16.19 94.9517 17.5004 92.3167 20.1212C89.6958 22.7421 88.3287 26.4396 88.2154 31.2137C88.1304 34.9396 88.0737 38.8212 88.0454 42.8587C88.0171 46.8821 88.0171 50.9196 88.0454 54.9712C88.0737 59.0229 88.1304 62.9329 88.2154 66.7012C88.3287 71.5179 89.7029 75.2437 92.3379 77.8787C94.9871 80.4996 98.7412 81.81 103.6 81.81ZM103.6 79.77C99.6054 79.77 96.4887 78.6508 94.2504 76.4125C92.0262 74.16 90.8646 70.9017 90.7654 66.6375C90.6804 62.8692 90.6237 58.9875 90.5954 54.9925C90.5671 50.9975 90.5671 46.9954 90.5954 42.9862C90.6237 38.9629 90.6804 35.06 90.7654 31.2775C90.8646 27.0842 92.0192 23.8612 94.2292 21.6087C96.4533 19.3562 99.5771 18.23 103.6 18.23C107.624 18.23 110.719 19.3704 112.887 21.6512C115.054 23.9321 116.209 27.1267 116.35 31.235C116.478 34.975 116.563 38.7929 116.605 42.6887C116.662 46.5846 116.669 50.53 116.627 54.525C116.598 58.52 116.513 62.5362 116.372 66.5737C116.23 70.5262 115.125 73.7137 113.057 76.1362C110.988 78.5587 107.836 79.77 103.6 79.77ZM103.6 77.73C106.859 77.73 109.345 76.7383 111.059 74.755C112.773 72.7717 113.694 70.0092 113.822 66.4675C113.949 62.9967 114.034 59.285 114.077 55.3325C114.119 51.38 114.119 47.3637 114.077 43.2837C114.048 39.2037 113.963 35.2583 113.822 31.4475C113.708 28.0617 112.816 25.3558 111.144 23.33C109.472 21.29 106.958 20.27 103.6 20.27C100.37 20.27 97.87 21.2262 96.0992 23.1387C94.3283 25.0371 93.4004 27.7642 93.3154 31.32C93.2304 35.1025 93.1737 38.9912 93.1454 42.9862C93.1171 46.9671 93.1171 50.955 93.1454 54.95C93.1737 58.9308 93.2304 62.8125 93.3154 66.595C93.4004 70.1792 94.3283 72.9346 96.0992 74.8612C97.87 76.7737 100.37 77.73 103.6 77.73ZM103.6 75.69C101.178 75.69 99.3008 74.9037 97.9692 73.3312C96.6375 71.7446 95.9362 69.4779 95.8654 66.5312C95.8087 63.6696 95.7592 60.7654 95.7167 57.8187C95.6883 54.8579 95.6742 51.89 95.6742 48.915C95.6742 45.9258 95.6883 42.965 95.7167 40.0325C95.7592 37.0858 95.8087 34.2029 95.8654 31.3837C95.9362 28.4654 96.6375 26.2271 97.9692 24.6687C99.315 23.0962 101.192 22.31 103.6 22.31C106.136 22.31 108.02 23.16 109.253 24.86C110.5 26.5458 111.172 28.77 111.272 31.5325C111.399 35.0033 111.484 38.7221 111.527 42.6887C111.569 46.6554 111.569 50.6646 111.527 54.7162C111.498 58.7537 111.413 62.6425 111.272 66.3825C111.172 69.1592 110.5 71.4046 109.253 73.1187C108.02 74.8329 106.136 75.69 103.6 75.69ZM103.6 73.65C105.201 73.65 106.434 73.0054 107.298 71.7162C108.162 70.4271 108.637 68.6137 108.722 66.2762C108.807 63.6979 108.87 60.9779 108.913 58.1162C108.97 55.2404 108.998 52.3008 108.998 49.2975C109.012 46.2942 108.991 43.2979 108.934 40.3087C108.892 37.3196 108.821 34.4225 108.722 31.6175C108.637 29.2517 108.148 27.4525 107.255 26.22C106.377 24.9733 105.159 24.35 103.6 24.35C101.985 24.35 100.732 24.9592 99.8392 26.1775C98.9467 27.3958 98.4721 29.1454 98.4154 31.4262C98.3587 34.3021 98.3092 37.2204 98.2667 40.1812C98.2383 43.1279 98.2242 46.0817 98.2242 49.0425C98.2242 52.0033 98.2383 54.95 98.2667 57.8825C98.3092 60.8008 98.3587 63.6696 98.4154 66.4887C98.4721 68.7837 98.9467 70.5546 99.8392 71.8012C100.732 73.0337 101.985 73.65 103.6 73.65ZM132.846 83.32C130.638 83.32 128.998 82.8373 127.926 81.872C126.86 80.9067 126.281 79.2453 126.19 76.888C126.18 76.616 126.174 76.2427 126.174 75.768C126.174 75.2933 126.185 74.8293 126.206 74.376C126.228 73.9227 126.265 73.5973 126.318 73.4H127.27C127.233 73.5867 127.201 73.8667 127.174 74.24C127.148 74.6133 127.132 75.032 127.126 75.496C127.126 75.9547 127.134 76.408 127.15 76.856C127.23 78.904 127.716 80.3653 128.606 81.24C129.497 82.1147 130.91 82.552 132.846 82.552C134.825 82.552 136.26 82.112 137.15 81.232C138.041 80.3467 138.526 78.8853 138.606 76.848C138.617 76.5813 138.625 76.3253 138.63 76.08C138.641 75.8347 138.646 75.592 138.646 75.352C138.652 75.1067 138.649 74.8533 138.638 74.592C138.58 73.12 138.193 71.92 137.478 70.992C136.769 70.064 135.79 69.4293 134.542 69.088L131.574 68.272C131.233 68.176 130.94 68.0187 130.694 67.8C130.449 67.576 130.26 67.2933 130.126 66.952C129.993 66.6107 129.918 66.2133 129.902 65.76C129.886 65.3173 129.878 64.9493 129.878 64.656C129.878 64.3573 129.886 63.9973 129.902 63.576C129.95 62.3813 130.201 61.512 130.654 60.968C131.113 60.424 131.844 60.152 132.846 60.152C133.774 60.152 134.457 60.416 134.894 60.944C135.332 61.472 135.577 62.3573 135.63 63.6C135.646 64.0053 135.646 64.536 135.63 65.192C135.62 65.848 135.601 66.4507 135.574 67H134.614C134.641 66.472 134.66 65.8667 134.67 65.184C134.686 64.496 134.689 63.9947 134.678 63.68C134.636 62.5973 134.457 61.8667 134.142 61.488C133.833 61.1093 133.401 60.92 132.846 60.92C132.164 60.92 131.67 61.1413 131.366 61.584C131.068 62.0213 130.897 62.72 130.854 63.68C130.838 64.0533 130.833 64.4187 130.838 64.776C130.849 65.128 130.857 65.4453 130.862 65.728C130.873 66.0373 130.916 66.3067 130.99 66.536C131.07 66.76 131.18 66.944 131.318 67.088C131.457 67.2267 131.622 67.3227 131.814 67.376L134.766 68.152C136.249 68.5413 137.406 69.28 138.238 70.368C139.076 71.4507 139.529 72.8453 139.598 74.552C139.609 74.7973 139.612 75.0533 139.606 75.32C139.606 75.5867 139.601 75.8533 139.59 76.12C139.585 76.3867 139.577 76.6427 139.566 76.888C139.47 79.1813 138.902 80.8267 137.862 81.824C136.828 82.8213 135.156 83.32 132.846 83.32ZM132.846 81.784C131.257 81.784 130.089 81.408 129.342 80.656C128.596 79.8987 128.185 78.6187 128.11 76.816C128.1 76.464 128.094 76.0587 128.094 75.6C128.1 75.1413 128.11 74.7093 128.126 74.304C128.148 73.8933 128.177 73.592 128.214 73.4H129.166C129.134 73.6293 129.108 73.9253 129.086 74.288C129.065 74.6507 129.052 75.0507 129.046 75.488C129.046 75.9253 129.054 76.3707 129.07 76.824C129.129 78.3173 129.452 79.3893 130.038 80.04C130.63 80.6907 131.566 81.016 132.846 81.016C134.148 81.016 135.097 80.6907 135.694 80.04C136.297 79.384 136.628 78.312 136.686 76.824C136.702 76.4933 136.713 76.2053 136.718 75.96C136.724 75.7147 136.726 75.488 136.726 75.28C136.732 75.072 136.729 74.8693 136.718 74.672C136.692 73.9947 136.572 73.4053 136.358 72.904C136.145 72.3973 135.846 71.9813 135.462 71.656C135.084 71.3253 134.628 71.0907 134.094 70.952L131.086 70.168C130.505 70.0133 129.985 69.7573 129.526 69.4C129.068 69.0373 128.702 68.56 128.43 67.968C128.158 67.3707 128.009 66.6533 127.982 65.816C127.972 65.4853 127.964 65.2027 127.958 64.968C127.958 64.7333 127.958 64.5067 127.958 64.288C127.964 64.064 127.972 63.8133 127.982 63.536C128.057 61.7547 128.476 60.4907 129.238 59.744C130.006 58.992 131.209 58.616 132.846 58.616C134.457 58.616 135.625 59 136.35 59.768C137.081 60.536 137.481 61.7973 137.55 63.552C137.566 63.9573 137.566 64.504 137.55 65.192C137.54 65.8747 137.518 66.4773 137.486 67H136.534C136.561 66.5253 136.582 65.952 136.598 65.28C136.614 64.6027 136.612 64.024 136.59 63.544C136.532 62.0613 136.209 60.9973 135.622 60.352C135.041 59.7067 134.116 59.384 132.846 59.384C131.614 59.384 130.67 59.6827 130.014 60.28C129.364 60.8773 129.006 61.9653 128.942 63.544C128.921 64.0293 128.913 64.4187 128.918 64.712C128.924 65.0053 128.932 65.3653 128.942 65.792C128.964 66.4213 129.07 66.9707 129.262 67.44C129.46 67.904 129.732 68.288 130.078 68.592C130.43 68.8907 130.846 69.104 131.326 69.232L134.318 70.016C135.348 70.2827 136.153 70.8107 136.734 71.6C137.316 72.384 137.63 73.3947 137.678 74.632C137.689 74.8507 137.694 75.0613 137.694 75.264C137.694 75.4613 137.689 75.68 137.678 75.92C137.673 76.16 137.662 76.456 137.646 76.808C137.577 78.5467 137.177 79.8107 136.446 80.6C135.721 81.3893 134.521 81.784 132.846 81.784ZM132.846 80.248C131.913 80.248 131.222 79.9813 130.774 79.448C130.326 78.9147 130.078 78.0133 130.03 76.744C130.02 76.3707 130.014 75.976 130.014 75.56C130.014 75.144 130.022 74.7467 130.038 74.368C130.06 73.9893 130.084 73.6667 130.11 73.4H131.062C131.036 73.7307 131.012 74.072 130.99 74.424C130.974 74.776 130.966 75.144 130.966 75.528C130.966 75.9067 130.974 76.304 130.99 76.72C131.028 77.6 131.172 78.28 131.422 78.76C131.678 79.24 132.153 79.48 132.846 79.48C133.492 79.48 133.964 79.264 134.262 78.832C134.566 78.3947 134.737 77.6773 134.774 76.68C134.79 76.344 134.798 76.056 134.798 75.816C134.804 75.576 134.806 75.3707 134.806 75.2C134.806 75.024 134.804 74.8693 134.798 74.736C134.788 74.3787 134.734 74.0693 134.638 73.808C134.542 73.5413 134.409 73.3253 134.238 73.16C134.073 72.9893 133.873 72.8747 133.638 72.816L130.606 72.024C129.668 71.7787 128.865 71.3787 128.198 70.824C127.532 70.264 127.017 69.568 126.654 68.736C126.292 67.904 126.094 66.952 126.062 65.88C126.046 65.3627 126.038 64.9307 126.038 64.584C126.038 64.2373 126.046 63.8693 126.062 63.48C126.158 61.1973 126.732 59.56 127.782 58.568C128.833 57.576 130.521 57.08 132.846 57.08C135.065 57.08 136.7 57.5653 137.75 58.536C138.801 59.5013 139.374 61.1493 139.47 63.48C139.486 63.8853 139.486 64.4507 139.47 65.176C139.46 65.9013 139.438 66.5093 139.406 67H138.446C138.484 66.4293 138.508 65.808 138.518 65.136C138.529 64.4587 138.526 63.9173 138.51 63.512C138.43 61.48 137.948 60.0293 137.062 59.16C136.182 58.2853 134.777 57.848 132.846 57.848C130.868 57.848 129.422 58.2827 128.51 59.152C127.604 60.016 127.108 61.4667 127.022 63.504C127.001 64 126.993 64.4133 126.998 64.744C127.004 65.0747 127.012 65.4427 127.022 65.848C127.054 66.7653 127.222 67.5813 127.526 68.296C127.83 69.0053 128.262 69.5973 128.822 70.072C129.382 70.5467 130.057 70.888 130.846 71.096L133.87 71.888C134.249 71.984 134.574 72.1547 134.846 72.4C135.118 72.64 135.332 72.952 135.486 73.336C135.646 73.72 135.737 74.176 135.758 74.704C135.769 74.912 135.772 75.1093 135.766 75.296C135.766 75.4827 135.764 75.688 135.758 75.912C135.753 76.1307 135.742 76.4027 135.726 76.728C135.673 77.9813 135.425 78.8827 134.982 79.432C134.545 79.976 133.833 80.248 132.846 80.248Z" fill="white"/>
</svg>
