<svg width="600" height="371" viewBox="0 0 600 371" fill="none" xmlns="http://www.w3.org/2000/svg">
<g clip-path="url(#clip0_1631_119)">
<path d="M0 0H600V371H0V0Z" fill="#1A1B1F"/>
<path d="M300 18.55C350.709 18.55 398.669 41.5968 430.352 81.1892L365.176 133.345C349.334 113.548 325.354 102.025 300 102.025V18.55Z" fill="#20124D"/>
<path d="M430.352 81.1892C462.051 120.802 474.017 172.681 462.872 222.176L381.436 203.838C387.009 179.09 381.026 153.151 365.176 133.345L430.352 81.1892Z" fill="#351C75"/>
<path d="M462.872 222.176C451.714 271.724 418.61 313.498 372.923 335.682L336.461 260.591C359.305 249.499 375.857 228.612 381.436 203.838L462.872 222.176Z" fill="#674EA7"/>
<path d="M169.271 81.6617C200.943 41.789 249.079 18.55 300 18.55V102.025C274.54 102.025 250.471 113.645 234.636 133.581L169.271 81.6617Z" fill="#D9D2E9"/>
<path d="M228.03 336.141C182.156 314.224 148.768 272.598 137.33 223.06C125.892 173.522 137.65 121.472 169.271 81.6616L234.636 133.581C218.825 153.486 212.946 179.511 218.665 204.28C224.384 229.049 241.078 249.862 264.015 260.82L228.03 336.141Z" fill="#B4A7D6"/>
<path d="M372.923 335.682C327.212 357.877 273.881 358.046 228.03 336.141L264.015 260.82C286.94 271.773 313.606 271.689 336.461 260.591L372.923 335.682Z" fill="#8E7CC3"/>
<path d="M337.17 80.6418H335.061V67.2043C334.561 67.6835 333.894 68.1679 333.061 68.6575C332.238 69.1366 331.499 69.496 330.842 69.7356V67.7043C332.03 67.1523 333.061 66.4804 333.936 65.6887C334.821 64.8971 335.446 64.1314 335.811 63.3918H337.17V80.6418ZM342.545 76.6731L344.577 76.4856C344.743 77.4335 345.066 78.1262 345.545 78.5637C346.035 78.9908 346.66 79.2043 347.42 79.2043C348.066 79.2043 348.634 79.0585 349.124 78.7668C349.613 78.4648 350.014 78.0637 350.327 77.5637C350.639 77.0637 350.9 76.3918 351.108 75.5481C351.327 74.7043 351.436 73.845 351.436 72.97C351.436 72.8762 351.431 72.7356 351.42 72.5481C350.993 73.2252 350.415 73.7721 349.686 74.1887C348.957 74.6054 348.165 74.8137 347.311 74.8137C345.894 74.8137 344.691 74.2981 343.702 73.2668C342.722 72.2356 342.233 70.8762 342.233 69.1887C342.233 67.4491 342.743 66.0481 343.764 64.9856C344.795 63.9231 346.087 63.3918 347.639 63.3918C348.754 63.3918 349.775 63.6939 350.702 64.2981C351.629 64.8918 352.332 65.746 352.811 66.8606C353.29 67.9752 353.53 69.5898 353.53 71.7043C353.53 73.8918 353.29 75.6366 352.811 76.9387C352.332 78.2408 351.624 79.2356 350.686 79.9231C349.749 80.6002 348.644 80.9387 347.374 80.9387C346.03 80.9387 344.931 80.5637 344.077 79.8137C343.233 79.0637 342.722 78.0168 342.545 76.6731ZM351.186 69.0793C351.186 67.871 350.863 66.9127 350.217 66.2043C349.571 65.496 348.795 65.1418 347.889 65.1418C346.952 65.1418 346.134 65.5273 345.436 66.2981C344.749 67.0585 344.405 68.0481 344.405 69.2668C344.405 70.3606 344.733 71.2512 345.389 71.9387C346.045 72.6158 346.858 72.9543 347.827 72.9543C348.806 72.9543 349.608 72.6158 350.233 71.9387C350.868 71.2512 351.186 70.2981 351.186 69.0793ZM358.483 71.3293C357.608 71.0064 356.957 70.5481 356.53 69.9543C356.113 69.3606 355.905 68.6471 355.905 67.8137C355.905 66.5637 356.353 65.5168 357.249 64.6731C358.144 63.8189 359.337 63.3918 360.827 63.3918C362.327 63.3918 363.535 63.8293 364.452 64.7043C365.368 65.5689 365.827 66.6262 365.827 67.8762C365.827 68.6783 365.618 69.3762 365.202 69.97C364.785 70.5533 364.15 71.0064 363.295 71.3293C364.347 71.6731 365.15 72.2304 365.702 73.0012C366.254 73.7616 366.53 74.6731 366.53 75.7356C366.53 77.2043 366.009 78.4387 364.967 79.4387C363.926 80.4387 362.561 80.9387 360.874 80.9387C359.176 80.9387 357.806 80.4387 356.764 79.4387C355.722 78.4283 355.202 77.1731 355.202 75.6731C355.202 74.5585 355.483 73.6262 356.045 72.8762C356.618 72.1158 357.431 71.6002 358.483 71.3293ZM358.061 67.7512C358.061 68.5637 358.321 69.2304 358.842 69.7512C359.363 70.2616 360.04 70.5168 360.874 70.5168C361.686 70.5168 362.353 70.2616 362.874 69.7512C363.394 69.2408 363.655 68.6106 363.655 67.8606C363.655 67.0898 363.384 66.4439 362.842 65.9231C362.311 65.3918 361.65 65.1262 360.858 65.1262C360.056 65.1262 359.389 65.3866 358.858 65.9075C358.327 66.4179 358.061 67.0325 358.061 67.7512ZM357.374 75.6887C357.374 76.2825 357.514 76.8606 357.795 77.4231C358.087 77.9856 358.514 78.4231 359.077 78.7356C359.639 79.0481 360.243 79.2043 360.889 79.2043C361.9 79.2043 362.733 78.8814 363.389 78.2356C364.045 77.5793 364.374 76.7512 364.374 75.7512C364.374 74.7408 364.035 73.9023 363.358 73.2356C362.681 72.5689 361.837 72.2356 360.827 72.2356C359.827 72.2356 358.999 72.5637 358.342 73.22C357.696 73.8762 357.374 74.6991 357.374 75.6887ZM368.233 72.1731C368.233 70.1418 368.441 68.5064 368.858 67.2668C369.275 66.0273 369.894 65.0741 370.717 64.4075C371.54 63.7304 372.577 63.3918 373.827 63.3918C374.754 63.3918 375.561 63.5793 376.249 63.9543C376.946 64.3189 377.519 64.8502 377.967 65.5481C378.426 66.246 378.785 67.1002 379.045 68.1106C379.306 69.1106 379.436 70.4648 379.436 72.1731C379.436 74.1835 379.228 75.8085 378.811 77.0481C378.394 78.2877 377.775 79.246 376.952 79.9231C376.129 80.6002 375.087 80.9387 373.827 80.9387C372.17 80.9387 370.874 80.345 369.936 79.1575C368.801 77.72 368.233 75.3918 368.233 72.1731ZM370.405 72.1731C370.405 74.9856 370.733 76.8606 371.389 77.7981C372.045 78.7356 372.858 79.2043 373.827 79.2043C374.795 79.2043 375.608 78.7356 376.264 77.7981C376.931 76.8606 377.264 74.9856 377.264 72.1731C377.264 69.3398 376.931 67.4596 376.264 66.5325C375.608 65.6054 374.79 65.1418 373.811 65.1418C372.842 65.1418 372.066 65.5481 371.483 66.3606C370.764 67.4127 370.405 69.3502 370.405 72.1731Z" fill="white"/>
<path d="M404.946 165.357H402.837V151.92C402.337 152.399 401.67 152.883 400.837 153.373C400.014 153.852 399.274 154.212 398.618 154.451V152.42C399.806 151.868 400.837 151.196 401.712 150.404C402.597 149.613 403.222 148.847 403.587 148.107H404.946V165.357ZM410.321 161.389L412.353 161.201C412.519 162.149 412.842 162.842 413.321 163.279C413.811 163.706 414.436 163.92 415.196 163.92C415.842 163.92 416.41 163.774 416.899 163.482C417.389 163.18 417.79 162.779 418.103 162.279C418.415 161.779 418.675 161.107 418.884 160.264C419.103 159.42 419.212 158.561 419.212 157.686C419.212 157.592 419.207 157.451 419.196 157.264C418.769 157.941 418.191 158.488 417.462 158.904C416.733 159.321 415.941 159.529 415.087 159.529C413.67 159.529 412.467 159.014 411.478 157.982C410.498 156.951 410.009 155.592 410.009 153.904C410.009 152.165 410.519 150.764 411.54 149.701C412.571 148.639 413.863 148.107 415.415 148.107C416.53 148.107 417.55 148.409 418.478 149.014C419.405 149.607 420.108 150.462 420.587 151.576C421.066 152.691 421.306 154.305 421.306 156.42C421.306 158.607 421.066 160.352 420.587 161.654C420.108 162.956 419.399 163.951 418.462 164.639C417.524 165.316 416.42 165.654 415.149 165.654C413.806 165.654 412.707 165.279 411.853 164.529C411.009 163.779 410.498 162.732 410.321 161.389ZM418.962 153.795C418.962 152.587 418.639 151.628 417.993 150.92C417.347 150.212 416.571 149.857 415.665 149.857C414.728 149.857 413.91 150.243 413.212 151.014C412.524 151.774 412.181 152.764 412.181 153.982C412.181 155.076 412.509 155.967 413.165 156.654C413.821 157.331 414.634 157.67 415.603 157.67C416.582 157.67 417.384 157.331 418.009 156.654C418.644 155.967 418.962 155.014 418.962 153.795ZM426.259 156.045C425.384 155.722 424.733 155.264 424.306 154.67C423.889 154.076 423.681 153.363 423.681 152.529C423.681 151.279 424.129 150.232 425.024 149.389C425.92 148.534 427.113 148.107 428.603 148.107C430.103 148.107 431.311 148.545 432.228 149.42C433.144 150.285 433.603 151.342 433.603 152.592C433.603 153.394 433.394 154.092 432.978 154.686C432.561 155.269 431.925 155.722 431.071 156.045C432.123 156.389 432.925 156.946 433.478 157.717C434.03 158.477 434.306 159.389 434.306 160.451C434.306 161.92 433.785 163.154 432.743 164.154C431.701 165.154 430.337 165.654 428.649 165.654C426.951 165.654 425.582 165.154 424.54 164.154C423.498 163.144 422.978 161.889 422.978 160.389C422.978 159.274 423.259 158.342 423.821 157.592C424.394 156.831 425.207 156.316 426.259 156.045ZM425.837 152.467C425.837 153.279 426.097 153.946 426.618 154.467C427.139 154.977 427.816 155.232 428.649 155.232C429.462 155.232 430.129 154.977 430.649 154.467C431.17 153.956 431.431 153.326 431.431 152.576C431.431 151.805 431.16 151.159 430.618 150.639C430.087 150.107 429.425 149.842 428.634 149.842C427.832 149.842 427.165 150.102 426.634 150.623C426.103 151.133 425.837 151.748 425.837 152.467ZM425.149 160.404C425.149 160.998 425.29 161.576 425.571 162.139C425.863 162.701 426.29 163.139 426.853 163.451C427.415 163.764 428.019 163.92 428.665 163.92C429.675 163.92 430.509 163.597 431.165 162.951C431.821 162.295 432.149 161.467 432.149 160.467C432.149 159.456 431.811 158.618 431.134 157.951C430.457 157.285 429.613 156.951 428.603 156.951C427.603 156.951 426.774 157.279 426.118 157.936C425.472 158.592 425.149 159.415 425.149 160.404ZM443.946 165.357H441.837V151.92C441.337 152.399 440.67 152.883 439.837 153.373C439.014 153.852 438.274 154.212 437.618 154.451V152.42C438.806 151.868 439.837 151.196 440.712 150.404C441.597 149.613 442.222 148.847 442.587 148.107H443.946V165.357Z" fill="white"/>
<path d="M381.072 271.268H378.962V257.83C378.462 258.309 377.796 258.794 376.962 259.283C376.139 259.763 375.4 260.122 374.744 260.362V258.33C375.931 257.778 376.962 257.106 377.837 256.315C378.723 255.523 379.348 254.757 379.712 254.018H381.072V271.268ZM386.447 267.299L388.478 267.112C388.645 268.06 388.968 268.752 389.447 269.19C389.936 269.617 390.561 269.83 391.322 269.83C391.968 269.83 392.535 269.684 393.025 269.393C393.514 269.091 393.916 268.69 394.228 268.19C394.541 267.69 394.801 267.018 395.009 266.174C395.228 265.33 395.337 264.471 395.337 263.596C395.337 263.502 395.332 263.362 395.322 263.174C394.895 263.851 394.317 264.398 393.587 264.815C392.858 265.231 392.067 265.44 391.212 265.44C389.796 265.44 388.593 264.924 387.603 263.893C386.624 262.862 386.134 261.502 386.134 259.815C386.134 258.075 386.645 256.674 387.666 255.612C388.697 254.549 389.988 254.018 391.541 254.018C392.655 254.018 393.676 254.32 394.603 254.924C395.53 255.518 396.233 256.372 396.712 257.487C397.192 258.601 397.431 260.216 397.431 262.33C397.431 264.518 397.192 266.263 396.712 267.565C396.233 268.867 395.525 269.862 394.587 270.549C393.65 271.226 392.546 271.565 391.275 271.565C389.931 271.565 388.832 271.19 387.978 270.44C387.134 269.69 386.624 268.643 386.447 267.299ZM395.087 259.705C395.087 258.497 394.764 257.539 394.119 256.83C393.473 256.122 392.697 255.768 391.791 255.768C390.853 255.768 390.035 256.153 389.337 256.924C388.65 257.684 388.306 258.674 388.306 259.893C388.306 260.987 388.634 261.877 389.291 262.565C389.947 263.242 390.759 263.58 391.728 263.58C392.707 263.58 393.509 263.242 394.134 262.565C394.77 261.877 395.087 260.924 395.087 259.705ZM402.384 261.955C401.509 261.632 400.858 261.174 400.431 260.58C400.014 259.987 399.806 259.273 399.806 258.44C399.806 257.19 400.254 256.143 401.15 255.299C402.046 254.445 403.238 254.018 404.728 254.018C406.228 254.018 407.436 254.455 408.353 255.33C409.27 256.195 409.728 257.252 409.728 258.502C409.728 259.304 409.52 260.002 409.103 260.596C408.686 261.179 408.051 261.632 407.197 261.955C408.249 262.299 409.051 262.856 409.603 263.627C410.155 264.388 410.431 265.299 410.431 266.362C410.431 267.83 409.91 269.065 408.869 270.065C407.827 271.065 406.462 271.565 404.775 271.565C403.077 271.565 401.707 271.065 400.666 270.065C399.624 269.054 399.103 267.799 399.103 266.299C399.103 265.184 399.384 264.252 399.947 263.502C400.52 262.742 401.332 262.226 402.384 261.955ZM401.962 258.377C401.962 259.19 402.223 259.856 402.744 260.377C403.264 260.888 403.942 261.143 404.775 261.143C405.587 261.143 406.254 260.888 406.775 260.377C407.296 259.867 407.556 259.237 407.556 258.487C407.556 257.716 407.285 257.07 406.744 256.549C406.212 256.018 405.551 255.752 404.759 255.752C403.957 255.752 403.291 256.013 402.759 256.533C402.228 257.044 401.962 257.658 401.962 258.377ZM401.275 266.315C401.275 266.908 401.416 267.487 401.697 268.049C401.988 268.612 402.416 269.049 402.978 269.362C403.541 269.674 404.145 269.83 404.791 269.83C405.801 269.83 406.634 269.507 407.291 268.862C407.947 268.205 408.275 267.377 408.275 266.377C408.275 265.367 407.936 264.528 407.259 263.862C406.582 263.195 405.738 262.862 404.728 262.862C403.728 262.862 402.9 263.19 402.244 263.846C401.598 264.502 401.275 265.325 401.275 266.315ZM412.15 266.737L414.259 266.455C414.499 267.643 414.91 268.502 415.494 269.033C416.077 269.565 416.785 269.83 417.619 269.83C418.608 269.83 419.442 269.487 420.119 268.799C420.806 268.112 421.15 267.257 421.15 266.237C421.15 265.268 420.832 264.471 420.197 263.846C419.572 263.211 418.77 262.893 417.791 262.893C417.395 262.893 416.9 262.971 416.306 263.127L416.541 261.283C416.676 261.294 416.791 261.299 416.884 261.299C417.78 261.299 418.587 261.065 419.306 260.596C420.025 260.127 420.384 259.408 420.384 258.44C420.384 257.658 420.119 257.018 419.587 256.518C419.067 256.007 418.395 255.752 417.572 255.752C416.749 255.752 416.061 256.013 415.509 256.533C414.968 257.044 414.619 257.815 414.462 258.846L412.353 258.471C412.613 257.054 413.197 255.961 414.103 255.19C415.02 254.408 416.16 254.018 417.525 254.018C418.462 254.018 419.322 254.221 420.103 254.627C420.895 255.023 421.499 255.57 421.916 256.268C422.343 256.966 422.556 257.705 422.556 258.487C422.556 259.226 422.353 259.903 421.947 260.518C421.551 261.122 420.962 261.601 420.181 261.955C421.202 262.195 421.994 262.684 422.556 263.424C423.119 264.164 423.4 265.086 423.4 266.19C423.4 267.69 422.853 268.966 421.759 270.018C420.666 271.059 419.28 271.58 417.603 271.58C416.093 271.58 414.837 271.132 413.837 270.237C412.848 269.33 412.285 268.164 412.15 266.737Z" fill="white"/>
<path d="M283.351 324.093H281.242V310.656C280.742 311.135 280.075 311.619 279.242 312.109C278.419 312.588 277.679 312.947 277.023 313.187V311.156C278.21 310.604 279.242 309.932 280.117 309.14C281.002 308.348 281.627 307.583 281.992 306.843H283.351V324.093ZM288.726 320.125L290.757 319.937C290.924 320.885 291.247 321.578 291.726 322.015C292.216 322.442 292.841 322.656 293.601 322.656C294.247 322.656 294.815 322.51 295.304 322.218C295.794 321.916 296.195 321.515 296.507 321.015C296.82 320.515 297.08 319.843 297.289 319C297.507 318.156 297.617 317.296 297.617 316.421C297.617 316.328 297.611 316.187 297.601 316C297.174 316.677 296.596 317.223 295.867 317.64C295.138 318.057 294.346 318.265 293.492 318.265C292.075 318.265 290.872 317.75 289.882 316.718C288.903 315.687 288.414 314.328 288.414 312.64C288.414 310.901 288.924 309.5 289.945 308.437C290.976 307.375 292.268 306.843 293.82 306.843C294.934 306.843 295.955 307.145 296.882 307.75C297.809 308.343 298.513 309.197 298.992 310.312C299.471 311.427 299.71 313.041 299.71 315.156C299.71 317.343 299.471 319.088 298.992 320.39C298.513 321.692 297.804 322.687 296.867 323.375C295.929 324.052 294.825 324.39 293.554 324.39C292.21 324.39 291.111 324.015 290.257 323.265C289.414 322.515 288.903 321.468 288.726 320.125ZM297.367 312.531C297.367 311.322 297.044 310.364 296.398 309.656C295.752 308.947 294.976 308.593 294.07 308.593C293.132 308.593 292.315 308.979 291.617 309.75C290.929 310.51 290.585 311.5 290.585 312.718C290.585 313.812 290.914 314.703 291.57 315.39C292.226 316.067 293.039 316.406 294.007 316.406C294.986 316.406 295.789 316.067 296.414 315.39C297.049 314.703 297.367 313.75 297.367 312.531ZM304.664 314.781C303.789 314.458 303.138 314 302.71 313.406C302.294 312.812 302.085 312.098 302.085 311.265C302.085 310.015 302.533 308.968 303.429 308.125C304.325 307.27 305.518 306.843 307.007 306.843C308.507 306.843 309.716 307.281 310.632 308.156C311.549 309.02 312.007 310.078 312.007 311.328C312.007 312.13 311.799 312.828 311.382 313.421C310.966 314.005 310.33 314.458 309.476 314.781C310.528 315.125 311.33 315.682 311.882 316.453C312.434 317.213 312.71 318.125 312.71 319.187C312.71 320.656 312.19 321.89 311.148 322.89C310.106 323.89 308.742 324.39 307.054 324.39C305.356 324.39 303.986 323.89 302.945 322.89C301.903 321.88 301.382 320.625 301.382 319.125C301.382 318.01 301.664 317.078 302.226 316.328C302.799 315.567 303.611 315.052 304.664 314.781ZM304.242 311.203C304.242 312.015 304.502 312.682 305.023 313.203C305.544 313.713 306.221 313.968 307.054 313.968C307.867 313.968 308.533 313.713 309.054 313.203C309.575 312.692 309.835 312.062 309.835 311.312C309.835 310.541 309.565 309.895 309.023 309.375C308.492 308.843 307.83 308.578 307.039 308.578C306.236 308.578 305.57 308.838 305.039 309.359C304.507 309.869 304.242 310.484 304.242 311.203ZM303.554 319.14C303.554 319.734 303.695 320.312 303.976 320.875C304.268 321.437 304.695 321.875 305.257 322.187C305.82 322.5 306.424 322.656 307.07 322.656C308.08 322.656 308.914 322.333 309.57 321.687C310.226 321.031 310.554 320.203 310.554 319.203C310.554 318.192 310.216 317.354 309.539 316.687C308.861 316.02 308.018 315.687 307.007 315.687C306.007 315.687 305.179 316.015 304.523 316.671C303.877 317.328 303.554 318.151 303.554 319.14ZM321.179 324.093V319.984H313.726V318.046L321.554 306.906H323.289V318.046H325.601V319.984H323.289V324.093H321.179ZM321.179 318.046V310.296L315.789 318.046H321.179Z" fill="black"/>
<path d="M160.935 221.67H158.826V208.233C158.326 208.712 157.659 209.196 156.826 209.686C156.003 210.165 155.263 210.524 154.607 210.764V208.733C155.794 208.181 156.826 207.509 157.701 206.717C158.586 205.925 159.211 205.16 159.576 204.42H160.935V221.67ZM166.31 217.701L168.341 217.514C168.508 218.462 168.831 219.155 169.31 219.592C169.8 220.019 170.425 220.233 171.185 220.233C171.831 220.233 172.399 220.087 172.888 219.795C173.378 219.493 173.779 219.092 174.091 218.592C174.404 218.092 174.664 217.42 174.873 216.576C175.091 215.733 175.201 214.873 175.201 213.998C175.201 213.905 175.195 213.764 175.185 213.576C174.758 214.253 174.18 214.8 173.451 215.217C172.722 215.634 171.93 215.842 171.076 215.842C169.659 215.842 168.456 215.326 167.466 214.295C166.487 213.264 165.998 211.905 165.998 210.217C165.998 208.477 166.508 207.076 167.529 206.014C168.56 204.951 169.852 204.42 171.404 204.42C172.518 204.42 173.539 204.722 174.466 205.326C175.393 205.92 176.097 206.774 176.576 207.889C177.055 209.003 177.294 210.618 177.294 212.733C177.294 214.92 177.055 216.665 176.576 217.967C176.097 219.269 175.388 220.264 174.451 220.951C173.513 221.628 172.409 221.967 171.138 221.967C169.794 221.967 168.695 221.592 167.841 220.842C166.998 220.092 166.487 219.045 166.31 217.701ZM174.951 210.108C174.951 208.899 174.628 207.941 173.982 207.233C173.336 206.524 172.56 206.17 171.654 206.17C170.716 206.17 169.899 206.556 169.201 207.326C168.513 208.087 168.169 209.076 168.169 210.295C168.169 211.389 168.498 212.28 169.154 212.967C169.81 213.644 170.623 213.983 171.591 213.983C172.57 213.983 173.373 213.644 173.998 212.967C174.633 212.28 174.951 211.326 174.951 210.108ZM182.248 212.358C181.373 212.035 180.722 211.576 180.294 210.983C179.878 210.389 179.669 209.675 179.669 208.842C179.669 207.592 180.117 206.545 181.013 205.701C181.909 204.847 183.102 204.42 184.591 204.42C186.091 204.42 187.3 204.858 188.216 205.733C189.133 206.597 189.591 207.655 189.591 208.905C189.591 209.707 189.383 210.405 188.966 210.998C188.55 211.582 187.914 212.035 187.06 212.358C188.112 212.701 188.914 213.259 189.466 214.03C190.018 214.79 190.294 215.701 190.294 216.764C190.294 218.233 189.774 219.467 188.732 220.467C187.69 221.467 186.326 221.967 184.638 221.967C182.94 221.967 181.57 221.467 180.529 220.467C179.487 219.457 178.966 218.201 178.966 216.701C178.966 215.587 179.248 214.655 179.81 213.905C180.383 213.144 181.195 212.628 182.248 212.358ZM181.826 208.78C181.826 209.592 182.086 210.259 182.607 210.78C183.128 211.29 183.805 211.545 184.638 211.545C185.451 211.545 186.117 211.29 186.638 210.78C187.159 210.269 187.419 209.639 187.419 208.889C187.419 208.118 187.149 207.472 186.607 206.951C186.076 206.42 185.414 206.155 184.623 206.155C183.82 206.155 183.154 206.415 182.623 206.936C182.091 207.446 181.826 208.061 181.826 208.78ZM181.138 216.717C181.138 217.311 181.279 217.889 181.56 218.451C181.852 219.014 182.279 219.451 182.841 219.764C183.404 220.076 184.008 220.233 184.654 220.233C185.664 220.233 186.498 219.91 187.154 219.264C187.81 218.608 188.138 217.78 188.138 216.78C188.138 215.769 187.8 214.931 187.123 214.264C186.445 213.597 185.602 213.264 184.591 213.264C183.591 213.264 182.763 213.592 182.107 214.248C181.461 214.905 181.138 215.727 181.138 216.717ZM191.998 217.17L194.216 216.983C194.373 218.056 194.748 218.868 195.341 219.42C195.945 219.962 196.669 220.233 197.513 220.233C198.534 220.233 199.393 219.852 200.091 219.092C200.8 218.321 201.154 217.3 201.154 216.03C201.154 214.832 200.815 213.884 200.138 213.186C199.461 212.488 198.576 212.139 197.482 212.139C196.805 212.139 196.19 212.295 195.638 212.608C195.097 212.91 194.669 213.311 194.357 213.811L192.373 213.545L194.029 204.717H202.576V206.733H195.716L194.794 211.358C195.826 210.639 196.909 210.28 198.044 210.28C199.544 210.28 200.81 210.8 201.841 211.842C202.873 212.873 203.388 214.207 203.388 215.842C203.388 217.394 202.935 218.738 202.029 219.873C200.925 221.269 199.419 221.967 197.513 221.967C195.951 221.967 194.675 221.53 193.685 220.655C192.695 219.78 192.133 218.618 191.998 217.17Z" fill="black"/>
<path d="M228.5 80.7402H226.391V67.3027C225.891 67.7819 225.224 68.2663 224.391 68.7559C223.568 69.235 222.829 69.5944 222.172 69.834V67.8027C223.36 67.2507 224.391 66.5788 225.266 65.7871C226.152 64.9954 226.777 64.2298 227.141 63.4902H228.5V80.7402ZM233.875 76.7715L235.907 76.584C236.073 77.5319 236.396 78.2246 236.875 78.6621C237.365 79.0892 237.99 79.3027 238.75 79.3027C239.396 79.3027 239.964 79.1569 240.454 78.8652C240.943 78.5632 241.344 78.1621 241.657 77.6621C241.969 77.1621 242.23 76.4902 242.438 75.6465C242.657 74.8027 242.766 73.9434 242.766 73.0684C242.766 72.9746 242.761 72.834 242.75 72.6465C242.323 73.3236 241.745 73.8704 241.016 74.2871C240.287 74.7038 239.495 74.9121 238.641 74.9121C237.224 74.9121 236.021 74.3965 235.032 73.3652C234.053 72.334 233.563 70.9746 233.563 69.2871C233.563 67.5475 234.073 66.1465 235.094 65.084C236.125 64.0215 237.417 63.4902 238.969 63.4902C240.084 63.4902 241.105 63.7923 242.032 64.3965C242.959 64.9902 243.662 65.8444 244.141 66.959C244.62 68.0736 244.86 69.6882 244.86 71.8027C244.86 73.9902 244.62 75.735 244.141 77.0371C243.662 78.3392 242.954 79.334 242.016 80.0215C241.079 80.6986 239.974 81.0371 238.704 81.0371C237.36 81.0371 236.261 80.6621 235.407 79.9121C234.563 79.1621 234.053 78.1152 233.875 76.7715ZM242.516 69.1777C242.516 67.9694 242.193 67.0111 241.547 66.3027C240.902 65.5944 240.125 65.2402 239.219 65.2402C238.282 65.2402 237.464 65.6257 236.766 66.3965C236.079 67.1569 235.735 68.1465 235.735 69.3652C235.735 70.459 236.063 71.3496 236.719 72.0371C237.375 72.7142 238.188 73.0527 239.157 73.0527C240.136 73.0527 240.938 72.7142 241.563 72.0371C242.198 71.3496 242.516 70.3965 242.516 69.1777ZM249.813 71.4277C248.938 71.1048 248.287 70.6465 247.86 70.0527C247.443 69.459 247.235 68.7454 247.235 67.9121C247.235 66.6621 247.683 65.6152 248.579 64.7715C249.474 63.9173 250.667 63.4902 252.157 63.4902C253.657 63.4902 254.865 63.9277 255.782 64.8027C256.698 65.6673 257.157 66.7246 257.157 67.9746C257.157 68.7767 256.948 69.4746 256.532 70.0684C256.115 70.6517 255.48 71.1048 254.625 71.4277C255.678 71.7715 256.48 72.3288 257.032 73.0996C257.584 73.86 257.86 74.7715 257.86 75.834C257.86 77.3027 257.339 78.5371 256.297 79.5371C255.256 80.5371 253.891 81.0371 252.204 81.0371C250.506 81.0371 249.136 80.5371 248.094 79.5371C247.053 78.5267 246.532 77.2715 246.532 75.7715C246.532 74.6569 246.813 73.7246 247.375 72.9746C247.948 72.2142 248.761 71.6986 249.813 71.4277ZM249.391 67.8496C249.391 68.6621 249.652 69.3288 250.172 69.8496C250.693 70.36 251.37 70.6152 252.204 70.6152C253.016 70.6152 253.683 70.36 254.204 69.8496C254.724 69.3392 254.985 68.709 254.985 67.959C254.985 67.1882 254.714 66.5423 254.172 66.0215C253.641 65.4902 252.98 65.2246 252.188 65.2246C251.386 65.2246 250.719 65.485 250.188 66.0059C249.657 66.5163 249.391 67.1309 249.391 67.8496ZM248.704 75.7871C248.704 76.3809 248.844 76.959 249.125 77.5215C249.417 78.084 249.844 78.5215 250.407 78.834C250.969 79.1465 251.573 79.3027 252.219 79.3027C253.23 79.3027 254.063 78.9798 254.719 78.334C255.375 77.6777 255.704 76.8496 255.704 75.8496C255.704 74.8392 255.365 74.0007 254.688 73.334C254.011 72.6673 253.167 72.334 252.157 72.334C251.157 72.334 250.329 72.6621 249.672 73.3184C249.027 73.9746 248.704 74.7975 248.704 75.7871ZM262.813 71.4277C261.938 71.1048 261.287 70.6465 260.86 70.0527C260.443 69.459 260.235 68.7454 260.235 67.9121C260.235 66.6621 260.683 65.6152 261.579 64.7715C262.474 63.9173 263.667 63.4902 265.157 63.4902C266.657 63.4902 267.865 63.9277 268.782 64.8027C269.698 65.6673 270.157 66.7246 270.157 67.9746C270.157 68.7767 269.948 69.4746 269.532 70.0684C269.115 70.6517 268.48 71.1048 267.626 71.4277C268.678 71.7715 269.48 72.3288 270.032 73.0996C270.584 73.86 270.86 74.7715 270.86 75.834C270.86 77.3027 270.339 78.5371 269.297 79.5371C268.256 80.5371 266.891 81.0371 265.204 81.0371C263.506 81.0371 262.136 80.5371 261.094 79.5371C260.053 78.5267 259.532 77.2715 259.532 75.7715C259.532 74.6569 259.813 73.7246 260.376 72.9746C260.948 72.2142 261.761 71.6986 262.813 71.4277ZM262.391 67.8496C262.391 68.6621 262.652 69.3288 263.172 69.8496C263.693 70.36 264.37 70.6152 265.204 70.6152C266.016 70.6152 266.683 70.36 267.204 69.8496C267.724 69.3392 267.985 68.709 267.985 67.959C267.985 67.1882 267.714 66.5423 267.172 66.0215C266.641 65.4902 265.98 65.2246 265.188 65.2246C264.386 65.2246 263.719 65.485 263.188 66.0059C262.657 66.5163 262.391 67.1309 262.391 67.8496ZM261.704 75.7871C261.704 76.3809 261.844 76.959 262.126 77.5215C262.417 78.084 262.844 78.5215 263.407 78.834C263.969 79.1465 264.573 79.3027 265.219 79.3027C266.23 79.3027 267.063 78.9798 267.719 78.334C268.375 77.6777 268.704 76.8496 268.704 75.8496C268.704 74.8392 268.365 74.0007 267.688 73.334C267.011 72.6673 266.167 72.334 265.157 72.334C264.157 72.334 263.329 72.6621 262.672 73.3184C262.027 73.9746 261.704 74.7975 261.704 75.7871Z" fill="black"/>
<g clip-path="url(#clip1_1631_119)">
<path d="M13 9H586V362H13V9Z" fill="#1A1B1F"/>
<path d="M299.5 26.6499C347.748 26.6499 393.382 48.5785 423.527 86.25L361.514 135.875C346.441 117.039 323.624 106.075 299.5 106.075V26.6499Z" fill="#8C018C"/>
<path d="M423.527 86.25C453.689 123.941 465.074 173.302 454.469 220.397L376.985 202.948C382.287 179.401 376.594 154.721 361.514 135.875L423.527 86.25Z" fill="#C100C1"/>
<path d="M454.47 220.397C443.854 267.54 412.355 307.288 368.885 328.395L334.192 256.948C355.928 246.394 371.677 226.52 376.985 202.948L454.47 220.397Z" fill="#FF00FF"/>
<path d="M175.114 86.6996C205.249 48.7613 251.05 26.6499 299.5 26.6499V106.075C275.275 106.075 252.374 117.131 237.307 136.1L175.114 86.6996Z" fill="#FECDFE"/>
<path d="M231.022 328.832C187.373 307.979 155.605 268.372 144.722 221.238C133.839 174.104 145.027 124.579 175.114 86.6997L237.307 136.1C222.263 155.039 216.669 179.802 222.111 203.369C227.553 226.936 243.436 246.739 265.261 257.166L231.022 328.832Z" fill="#EF95EF"/>
<path d="M368.885 328.395C325.392 349.514 274.648 349.675 231.022 328.832L265.261 257.166C287.074 267.587 312.446 267.507 334.192 256.948L368.885 328.395Z" fill="#F65DF6"/>
<path d="M334.039 86.1174H331.93V72.6799C331.43 73.1591 330.763 73.6435 329.93 74.1331C329.107 74.6122 328.367 74.9716 327.711 75.2112V73.1799C328.898 72.6278 329.93 71.956 330.805 71.1643C331.69 70.3726 332.315 69.607 332.68 68.8674H334.039V86.1174ZM339.414 82.1487L341.445 81.9612C341.612 82.9091 341.935 83.6018 342.414 84.0393C342.904 84.4664 343.529 84.6799 344.289 84.6799C344.935 84.6799 345.503 84.5341 345.992 84.2424C346.482 83.9403 346.883 83.5393 347.195 83.0393C347.508 82.5393 347.768 81.8674 347.977 81.0237C348.195 80.1799 348.305 79.3206 348.305 78.4456C348.305 78.3518 348.299 78.2112 348.289 78.0237C347.862 78.7008 347.284 79.2476 346.555 79.6643C345.826 80.081 345.034 80.2893 344.18 80.2893C342.763 80.2893 341.56 79.7737 340.57 78.7424C339.591 77.7112 339.102 76.3518 339.102 74.6643C339.102 72.9247 339.612 71.5237 340.633 70.4612C341.664 69.3987 342.956 68.8674 344.508 68.8674C345.622 68.8674 346.643 69.1695 347.57 69.7737C348.497 70.3674 349.201 71.2216 349.68 72.3362C350.159 73.4508 350.398 75.0653 350.398 77.1799C350.398 79.3674 350.159 81.1122 349.68 82.4143C349.201 83.7164 348.492 84.7112 347.555 85.3987C346.617 86.0758 345.513 86.4143 344.242 86.4143C342.898 86.4143 341.799 86.0393 340.945 85.2893C340.102 84.5393 339.591 83.4924 339.414 82.1487ZM348.055 74.5549C348.055 73.3466 347.732 72.3883 347.086 71.6799C346.44 70.9716 345.664 70.6174 344.758 70.6174C343.82 70.6174 343.003 71.0028 342.305 71.7737C341.617 72.5341 341.273 73.5237 341.273 74.7424C341.273 75.8362 341.602 76.7268 342.258 77.4143C342.914 78.0914 343.727 78.4299 344.695 78.4299C345.674 78.4299 346.477 78.0914 347.102 77.4143C347.737 76.7268 348.055 75.7737 348.055 74.5549ZM355.352 76.8049C354.477 76.482 353.826 76.0237 353.398 75.4299C352.982 74.8362 352.773 74.1226 352.773 73.2893C352.773 72.0393 353.221 70.9924 354.117 70.1487C355.013 69.2945 356.206 68.8674 357.695 68.8674C359.195 68.8674 360.404 69.3049 361.32 70.1799C362.237 71.0445 362.695 72.1018 362.695 73.3518C362.695 74.1539 362.487 74.8518 362.07 75.4456C361.654 76.0289 361.018 76.482 360.164 76.8049C361.216 77.1487 362.018 77.706 362.57 78.4768C363.122 79.2372 363.398 80.1487 363.398 81.2112C363.398 82.6799 362.878 83.9143 361.836 84.9143C360.794 85.9143 359.43 86.4143 357.742 86.4143C356.044 86.4143 354.674 85.9143 353.633 84.9143C352.591 83.9039 352.07 82.6487 352.07 81.1487C352.07 80.0341 352.352 79.1018 352.914 78.3518C353.487 77.5914 354.299 77.0758 355.352 76.8049ZM354.93 73.2268C354.93 74.0393 355.19 74.706 355.711 75.2268C356.232 75.7372 356.909 75.9924 357.742 75.9924C358.555 75.9924 359.221 75.7372 359.742 75.2268C360.263 74.7164 360.523 74.0862 360.523 73.3362C360.523 72.5653 360.253 71.9195 359.711 71.3987C359.18 70.8674 358.518 70.6018 357.727 70.6018C356.924 70.6018 356.258 70.8622 355.727 71.3831C355.195 71.8935 354.93 72.5081 354.93 73.2268ZM354.242 81.1643C354.242 81.7581 354.383 82.3362 354.664 82.8987C354.956 83.4612 355.383 83.8987 355.945 84.2112C356.508 84.5237 357.112 84.6799 357.758 84.6799C358.768 84.6799 359.602 84.357 360.258 83.7112C360.914 83.0549 361.242 82.2268 361.242 81.2268C361.242 80.2164 360.904 79.3778 360.227 78.7112C359.549 78.0445 358.706 77.7112 357.695 77.7112C356.695 77.7112 355.867 78.0393 355.211 78.6956C354.565 79.3518 354.242 80.1747 354.242 81.1643ZM365.102 77.6487C365.102 75.6174 365.31 73.982 365.727 72.7424C366.143 71.5028 366.763 70.5497 367.586 69.8831C368.409 69.206 369.445 68.8674 370.695 68.8674C371.622 68.8674 372.43 69.0549 373.117 69.4299C373.815 69.7945 374.388 70.3258 374.836 71.0237C375.294 71.7216 375.654 72.5758 375.914 73.5862C376.174 74.5862 376.305 75.9403 376.305 77.6487C376.305 79.6591 376.096 81.2841 375.68 82.5237C375.263 83.7633 374.643 84.7216 373.82 85.3987C372.997 86.0758 371.956 86.4143 370.695 86.4143C369.039 86.4143 367.742 85.8206 366.805 84.6331C365.669 83.1956 365.102 80.8674 365.102 77.6487ZM367.273 77.6487C367.273 80.4612 367.602 82.3362 368.258 83.2737C368.914 84.2112 369.727 84.6799 370.695 84.6799C371.664 84.6799 372.477 84.2112 373.133 83.2737C373.799 82.3362 374.133 80.4612 374.133 77.6487C374.133 74.8153 373.799 72.9351 373.133 72.0081C372.477 71.081 371.659 70.6174 370.68 70.6174C369.711 70.6174 368.935 71.0237 368.352 71.8362C367.633 72.8883 367.273 74.8258 367.273 77.6487Z" fill="white"/>
<path d="M398.527 166.723H396.417V153.285C395.917 153.765 395.251 154.249 394.417 154.739C393.595 155.218 392.855 155.577 392.199 155.817V153.785C393.386 153.233 394.417 152.561 395.292 151.77C396.178 150.978 396.803 150.212 397.167 149.473H398.527V166.723ZM403.902 162.754L405.933 162.567C406.1 163.515 406.423 164.207 406.902 164.645C407.391 165.072 408.016 165.285 408.777 165.285C409.423 165.285 409.99 165.14 410.48 164.848C410.97 164.546 411.371 164.145 411.683 163.645C411.996 163.145 412.256 162.473 412.464 161.629C412.683 160.785 412.792 159.926 412.792 159.051C412.792 158.957 412.787 158.817 412.777 158.629C412.35 159.306 411.772 159.853 411.042 160.27C410.313 160.686 409.522 160.895 408.667 160.895C407.251 160.895 406.048 160.379 405.058 159.348C404.079 158.317 403.589 156.957 403.589 155.27C403.589 153.53 404.1 152.129 405.121 151.067C406.152 150.004 407.444 149.473 408.996 149.473C410.11 149.473 411.131 149.775 412.058 150.379C412.985 150.973 413.688 151.827 414.167 152.942C414.647 154.056 414.886 155.671 414.886 157.785C414.886 159.973 414.647 161.718 414.167 163.02C413.688 164.322 412.98 165.317 412.042 166.004C411.105 166.681 410.001 167.02 408.73 167.02C407.386 167.02 406.287 166.645 405.433 165.895C404.589 165.145 404.079 164.098 403.902 162.754ZM412.542 155.16C412.542 153.952 412.22 152.994 411.574 152.285C410.928 151.577 410.152 151.223 409.246 151.223C408.308 151.223 407.49 151.608 406.792 152.379C406.105 153.14 405.761 154.129 405.761 155.348C405.761 156.442 406.089 157.332 406.746 158.02C407.402 158.697 408.214 159.035 409.183 159.035C410.162 159.035 410.964 158.697 411.589 158.02C412.225 157.332 412.542 156.379 412.542 155.16ZM419.839 157.41C418.964 157.087 418.313 156.629 417.886 156.035C417.47 155.442 417.261 154.728 417.261 153.895C417.261 152.645 417.709 151.598 418.605 150.754C419.501 149.9 420.694 149.473 422.183 149.473C423.683 149.473 424.891 149.91 425.808 150.785C426.725 151.65 427.183 152.707 427.183 153.957C427.183 154.759 426.975 155.457 426.558 156.051C426.141 156.634 425.506 157.087 424.652 157.41C425.704 157.754 426.506 158.311 427.058 159.082C427.61 159.843 427.886 160.754 427.886 161.817C427.886 163.285 427.365 164.52 426.324 165.52C425.282 166.52 423.917 167.02 422.23 167.02C420.532 167.02 419.162 166.52 418.121 165.52C417.079 164.509 416.558 163.254 416.558 161.754C416.558 160.64 416.839 159.707 417.402 158.957C417.975 158.197 418.787 157.681 419.839 157.41ZM419.417 153.832C419.417 154.645 419.678 155.311 420.199 155.832C420.72 156.343 421.397 156.598 422.23 156.598C423.042 156.598 423.709 156.343 424.23 155.832C424.751 155.322 425.011 154.692 425.011 153.942C425.011 153.171 424.74 152.525 424.199 152.004C423.667 151.473 423.006 151.207 422.214 151.207C421.412 151.207 420.746 151.468 420.214 151.989C419.683 152.499 419.417 153.114 419.417 153.832ZM418.73 161.77C418.73 162.364 418.871 162.942 419.152 163.504C419.444 164.067 419.871 164.504 420.433 164.817C420.996 165.129 421.6 165.285 422.246 165.285C423.256 165.285 424.089 164.962 424.746 164.317C425.402 163.66 425.73 162.832 425.73 161.832C425.73 160.822 425.391 159.983 424.714 159.317C424.037 158.65 423.194 158.317 422.183 158.317C421.183 158.317 420.355 158.645 419.699 159.301C419.053 159.957 418.73 160.78 418.73 161.77ZM437.527 166.723H435.417V153.285C434.917 153.765 434.251 154.249 433.417 154.739C432.595 155.218 431.855 155.577 431.199 155.817V153.785C432.386 153.233 433.417 152.561 434.292 151.77C435.178 150.978 435.803 150.212 436.167 149.473H437.527V166.723Z" fill="white"/>
<path d="M375.811 267.495H373.701V254.057C373.201 254.536 372.535 255.021 371.701 255.51C370.878 255.989 370.139 256.349 369.482 256.588V254.557C370.67 254.005 371.701 253.333 372.576 252.542C373.462 251.75 374.087 250.984 374.451 250.245H375.811V267.495ZM381.186 263.526L383.217 263.338C383.383 264.286 383.706 264.979 384.186 265.417C384.675 265.844 385.3 266.057 386.061 266.057C386.706 266.057 387.274 265.911 387.764 265.62C388.253 265.318 388.654 264.917 388.967 264.417C389.279 263.917 389.54 263.245 389.748 262.401C389.967 261.557 390.076 260.698 390.076 259.823C390.076 259.729 390.071 259.588 390.061 259.401C389.633 260.078 389.055 260.625 388.326 261.042C387.597 261.458 386.805 261.667 385.951 261.667C384.535 261.667 383.331 261.151 382.342 260.12C381.363 259.088 380.873 257.729 380.873 256.042C380.873 254.302 381.383 252.901 382.404 251.838C383.436 250.776 384.727 250.245 386.279 250.245C387.394 250.245 388.415 250.547 389.342 251.151C390.269 251.745 390.972 252.599 391.451 253.713C391.93 254.828 392.17 256.443 392.17 258.557C392.17 260.745 391.93 262.489 391.451 263.792C390.972 265.094 390.264 266.088 389.326 266.776C388.389 267.453 387.285 267.792 386.014 267.792C384.67 267.792 383.571 267.417 382.717 266.667C381.873 265.917 381.363 264.87 381.186 263.526ZM389.826 255.932C389.826 254.724 389.503 253.765 388.857 253.057C388.212 252.349 387.436 251.995 386.529 251.995C385.592 251.995 384.774 252.38 384.076 253.151C383.389 253.911 383.045 254.901 383.045 256.12C383.045 257.213 383.373 258.104 384.029 258.792C384.686 259.469 385.498 259.807 386.467 259.807C387.446 259.807 388.248 259.469 388.873 258.792C389.508 258.104 389.826 257.151 389.826 255.932ZM397.123 258.182C396.248 257.859 395.597 257.401 395.17 256.807C394.753 256.213 394.545 255.5 394.545 254.667C394.545 253.417 394.993 252.37 395.889 251.526C396.785 250.672 397.977 250.245 399.467 250.245C400.967 250.245 402.175 250.682 403.092 251.557C404.008 252.422 404.467 253.479 404.467 254.729C404.467 255.531 404.258 256.229 403.842 256.823C403.425 257.406 402.79 257.859 401.936 258.182C402.988 258.526 403.79 259.083 404.342 259.854C404.894 260.614 405.17 261.526 405.17 262.588C405.17 264.057 404.649 265.292 403.607 266.292C402.566 267.292 401.201 267.792 399.514 267.792C397.816 267.792 396.446 267.292 395.404 266.292C394.363 265.281 393.842 264.026 393.842 262.526C393.842 261.411 394.123 260.479 394.686 259.729C395.258 258.969 396.071 258.453 397.123 258.182ZM396.701 254.604C396.701 255.417 396.962 256.083 397.482 256.604C398.003 257.114 398.68 257.37 399.514 257.37C400.326 257.37 400.993 257.114 401.514 256.604C402.035 256.094 402.295 255.463 402.295 254.713C402.295 253.943 402.024 253.297 401.482 252.776C400.951 252.245 400.29 251.979 399.498 251.979C398.696 251.979 398.029 252.239 397.498 252.76C396.967 253.271 396.701 253.885 396.701 254.604ZM396.014 262.542C396.014 263.135 396.154 263.713 396.436 264.276C396.727 264.838 397.154 265.276 397.717 265.588C398.279 265.901 398.883 266.057 399.529 266.057C400.54 266.057 401.373 265.734 402.029 265.088C402.686 264.432 403.014 263.604 403.014 262.604C403.014 261.594 402.675 260.755 401.998 260.088C401.321 259.422 400.477 259.088 399.467 259.088C398.467 259.088 397.639 259.417 396.982 260.073C396.337 260.729 396.014 261.552 396.014 262.542ZM406.889 262.963L408.998 262.682C409.238 263.87 409.649 264.729 410.232 265.26C410.816 265.792 411.524 266.057 412.357 266.057C413.347 266.057 414.18 265.713 414.857 265.026C415.545 264.338 415.889 263.484 415.889 262.463C415.889 261.495 415.571 260.698 414.936 260.073C414.311 259.437 413.508 259.12 412.529 259.12C412.133 259.12 411.639 259.198 411.045 259.354L411.279 257.51C411.415 257.521 411.529 257.526 411.623 257.526C412.519 257.526 413.326 257.292 414.045 256.823C414.764 256.354 415.123 255.635 415.123 254.667C415.123 253.885 414.857 253.245 414.326 252.745C413.805 252.234 413.133 251.979 412.311 251.979C411.488 251.979 410.8 252.239 410.248 252.76C409.706 253.271 409.357 254.042 409.201 255.073L407.092 254.698C407.352 253.281 407.936 252.187 408.842 251.417C409.758 250.635 410.899 250.245 412.264 250.245C413.201 250.245 414.061 250.448 414.842 250.854C415.633 251.25 416.238 251.797 416.654 252.495C417.081 253.193 417.295 253.932 417.295 254.713C417.295 255.453 417.092 256.13 416.686 256.745C416.29 257.349 415.701 257.828 414.92 258.182C415.941 258.422 416.732 258.911 417.295 259.651C417.857 260.39 418.139 261.312 418.139 262.417C418.139 263.917 417.592 265.193 416.498 266.245C415.404 267.286 414.019 267.807 412.342 267.807C410.831 267.807 409.576 267.359 408.576 266.463C407.587 265.557 407.024 264.39 406.889 262.963Z" fill="white"/>
<path d="M282.828 316.736H280.718V303.299C280.218 303.778 279.552 304.262 278.718 304.752C277.895 305.231 277.156 305.59 276.5 305.83V303.799C277.687 303.247 278.718 302.575 279.593 301.783C280.479 300.992 281.104 300.226 281.468 299.486H282.828V316.736ZM288.203 312.768L290.234 312.58C290.401 313.528 290.723 314.221 291.203 314.658C291.692 315.085 292.317 315.299 293.078 315.299C293.723 315.299 294.291 315.153 294.781 314.861C295.27 314.559 295.671 314.158 295.984 313.658C296.296 313.158 296.557 312.486 296.765 311.643C296.984 310.799 297.093 309.939 297.093 309.064C297.093 308.971 297.088 308.83 297.078 308.643C296.651 309.32 296.072 309.867 295.343 310.283C294.614 310.7 293.822 310.908 292.968 310.908C291.552 310.908 290.348 310.393 289.359 309.361C288.38 308.33 287.89 306.971 287.89 305.283C287.89 303.544 288.401 302.143 289.421 301.08C290.453 300.018 291.744 299.486 293.296 299.486C294.411 299.486 295.432 299.788 296.359 300.393C297.286 300.986 297.989 301.84 298.468 302.955C298.947 304.07 299.187 305.684 299.187 307.799C299.187 309.986 298.947 311.731 298.468 313.033C297.989 314.335 297.281 315.33 296.343 316.018C295.406 316.695 294.302 317.033 293.031 317.033C291.687 317.033 290.588 316.658 289.734 315.908C288.89 315.158 288.38 314.111 288.203 312.768ZM296.843 305.174C296.843 303.965 296.52 303.007 295.875 302.299C295.229 301.59 294.453 301.236 293.546 301.236C292.609 301.236 291.791 301.622 291.093 302.393C290.406 303.153 290.062 304.143 290.062 305.361C290.062 306.455 290.39 307.346 291.046 308.033C291.703 308.71 292.515 309.049 293.484 309.049C294.463 309.049 295.265 308.71 295.89 308.033C296.526 307.346 296.843 306.393 296.843 305.174ZM304.14 307.424C303.265 307.101 302.614 306.643 302.187 306.049C301.77 305.455 301.562 304.742 301.562 303.908C301.562 302.658 302.01 301.611 302.906 300.768C303.802 299.913 304.994 299.486 306.484 299.486C307.984 299.486 309.192 299.924 310.109 300.799C311.026 301.663 311.484 302.721 311.484 303.971C311.484 304.773 311.276 305.471 310.859 306.064C310.442 306.648 309.807 307.101 308.953 307.424C310.005 307.768 310.807 308.325 311.359 309.096C311.911 309.856 312.187 310.768 312.187 311.83C312.187 313.299 311.666 314.533 310.625 315.533C309.583 316.533 308.218 317.033 306.531 317.033C304.833 317.033 303.463 316.533 302.421 315.533C301.38 314.523 300.859 313.268 300.859 311.768C300.859 310.653 301.14 309.721 301.703 308.971C302.276 308.21 303.088 307.695 304.14 307.424ZM303.718 303.846C303.718 304.658 303.979 305.325 304.5 305.846C305.02 306.356 305.697 306.611 306.531 306.611C307.343 306.611 308.01 306.356 308.531 305.846C309.052 305.335 309.312 304.705 309.312 303.955C309.312 303.184 309.041 302.538 308.5 302.018C307.968 301.486 307.307 301.221 306.515 301.221C305.713 301.221 305.046 301.481 304.515 302.002C303.984 302.512 303.718 303.127 303.718 303.846ZM303.031 311.783C303.031 312.377 303.171 312.955 303.453 313.518C303.744 314.08 304.171 314.518 304.734 314.83C305.296 315.143 305.901 315.299 306.546 315.299C307.557 315.299 308.39 314.976 309.046 314.33C309.703 313.674 310.031 312.846 310.031 311.846C310.031 310.835 309.692 309.997 309.015 309.33C308.338 308.663 307.494 308.33 306.484 308.33C305.484 308.33 304.656 308.658 304 309.314C303.354 309.971 303.031 310.794 303.031 311.783ZM320.656 316.736V312.627H313.203V310.689L321.031 299.549H322.765V310.689H325.078V312.627H322.765V316.736H320.656ZM320.656 310.689V302.939L315.265 310.689H320.656Z" fill="black"/>
<path d="M166.354 220.303H164.245V206.866C163.745 207.345 163.078 207.829 162.245 208.319C161.422 208.798 160.682 209.157 160.026 209.397V207.366C161.213 206.814 162.245 206.142 163.12 205.35C164.005 204.558 164.63 203.793 164.995 203.053H166.354V220.303ZM171.729 216.334L173.76 216.147C173.927 217.095 174.25 217.788 174.729 218.225C175.219 218.652 175.844 218.866 176.604 218.866C177.25 218.866 177.818 218.72 178.307 218.428C178.797 218.126 179.198 217.725 179.51 217.225C179.823 216.725 180.083 216.053 180.292 215.209C180.51 214.366 180.62 213.506 180.62 212.631C180.62 212.538 180.614 212.397 180.604 212.209C180.177 212.887 179.599 213.433 178.87 213.85C178.14 214.267 177.349 214.475 176.495 214.475C175.078 214.475 173.875 213.959 172.885 212.928C171.906 211.897 171.417 210.538 171.417 208.85C171.417 207.111 171.927 205.709 172.948 204.647C173.979 203.584 175.271 203.053 176.823 203.053C177.937 203.053 178.958 203.355 179.885 203.959C180.812 204.553 181.515 205.407 181.995 206.522C182.474 207.637 182.713 209.251 182.713 211.366C182.713 213.553 182.474 215.298 181.995 216.6C181.515 217.902 180.807 218.897 179.87 219.584C178.932 220.262 177.828 220.6 176.557 220.6C175.213 220.6 174.114 220.225 173.26 219.475C172.417 218.725 171.906 217.678 171.729 216.334ZM180.37 208.741C180.37 207.532 180.047 206.574 179.401 205.866C178.755 205.157 177.979 204.803 177.073 204.803C176.135 204.803 175.318 205.189 174.62 205.959C173.932 206.72 173.588 207.709 173.588 208.928C173.588 210.022 173.917 210.913 174.573 211.6C175.229 212.277 176.042 212.616 177.01 212.616C177.989 212.616 178.792 212.277 179.417 211.6C180.052 210.913 180.37 209.959 180.37 208.741ZM187.667 210.991C186.792 210.668 186.14 210.209 185.713 209.616C185.297 209.022 185.088 208.308 185.088 207.475C185.088 206.225 185.536 205.178 186.432 204.334C187.328 203.48 188.521 203.053 190.01 203.053C191.51 203.053 192.719 203.491 193.635 204.366C194.552 205.23 195.01 206.288 195.01 207.538C195.01 208.34 194.802 209.038 194.385 209.631C193.969 210.215 193.333 210.668 192.479 210.991C193.531 211.334 194.333 211.892 194.885 212.663C195.437 213.423 195.713 214.334 195.713 215.397C195.713 216.866 195.193 218.1 194.151 219.1C193.109 220.1 191.745 220.6 190.057 220.6C188.359 220.6 186.989 220.1 185.948 219.1C184.906 218.09 184.385 216.834 184.385 215.334C184.385 214.22 184.667 213.288 185.229 212.538C185.802 211.777 186.614 211.262 187.667 210.991ZM187.245 207.413C187.245 208.225 187.505 208.892 188.026 209.413C188.547 209.923 189.224 210.178 190.057 210.178C190.87 210.178 191.536 209.923 192.057 209.413C192.578 208.902 192.838 208.272 192.838 207.522C192.838 206.751 192.568 206.105 192.026 205.584C191.495 205.053 190.833 204.788 190.042 204.788C189.239 204.788 188.573 205.048 188.042 205.569C187.51 206.079 187.245 206.694 187.245 207.413ZM186.557 215.35C186.557 215.944 186.698 216.522 186.979 217.084C187.271 217.647 187.698 218.084 188.26 218.397C188.823 218.709 189.427 218.866 190.073 218.866C191.083 218.866 191.917 218.543 192.573 217.897C193.229 217.241 193.557 216.413 193.557 215.413C193.557 214.402 193.219 213.564 192.542 212.897C191.864 212.23 191.021 211.897 190.01 211.897C189.01 211.897 188.182 212.225 187.526 212.881C186.88 213.538 186.557 214.361 186.557 215.35ZM197.417 215.803L199.635 215.616C199.792 216.689 200.167 217.501 200.76 218.053C201.364 218.595 202.088 218.866 202.932 218.866C203.953 218.866 204.812 218.486 205.51 217.725C206.219 216.954 206.573 215.933 206.573 214.663C206.573 213.465 206.234 212.517 205.557 211.819C204.88 211.121 203.995 210.772 202.901 210.772C202.224 210.772 201.609 210.928 201.057 211.241C200.515 211.543 200.088 211.944 199.776 212.444L197.792 212.178L199.448 203.35H207.995V205.366H201.135L200.213 209.991C201.245 209.272 202.328 208.913 203.463 208.913C204.963 208.913 206.229 209.433 207.26 210.475C208.292 211.506 208.807 212.84 208.807 214.475C208.807 216.027 208.354 217.371 207.448 218.506C206.344 219.902 204.838 220.6 202.932 220.6C201.37 220.6 200.094 220.163 199.104 219.288C198.114 218.413 197.552 217.251 197.417 215.803Z" fill="black"/>
<path d="M230.642 86.2109H228.532V72.7734C228.032 73.2526 227.366 73.737 226.532 74.2266C225.709 74.7057 224.97 75.0651 224.313 75.3047V73.2734C225.501 72.7214 226.532 72.0495 227.407 71.2578C228.293 70.4661 228.918 69.7005 229.282 68.9609H230.642V86.2109ZM236.017 82.2422L238.048 82.0547C238.215 83.0026 238.537 83.6953 239.017 84.1328C239.506 84.5599 240.131 84.7734 240.892 84.7734C241.537 84.7734 242.105 84.6276 242.595 84.3359C243.084 84.0339 243.485 83.6328 243.798 83.1328C244.11 82.6328 244.371 81.9609 244.579 81.1172C244.798 80.2734 244.907 79.4141 244.907 78.5391C244.907 78.4453 244.902 78.3047 244.892 78.1172C244.465 78.7943 243.886 79.3411 243.157 79.7578C242.428 80.1745 241.636 80.3828 240.782 80.3828C239.366 80.3828 238.162 79.8672 237.173 78.8359C236.194 77.8047 235.704 76.4453 235.704 74.7578C235.704 73.0182 236.215 71.6172 237.235 70.5547C238.267 69.4922 239.558 68.9609 241.11 68.9609C242.225 68.9609 243.246 69.263 244.173 69.8672C245.1 70.4609 245.803 71.3151 246.282 72.4297C246.761 73.5443 247.001 75.1589 247.001 77.2734C247.001 79.4609 246.761 81.2057 246.282 82.5078C245.803 83.8099 245.095 84.8047 244.157 85.4922C243.22 86.1693 242.116 86.5078 240.845 86.5078C239.501 86.5078 238.402 86.1328 237.548 85.3828C236.704 84.6328 236.194 83.5859 236.017 82.2422ZM244.657 74.6484C244.657 73.4401 244.334 72.4818 243.688 71.7734C243.043 71.0651 242.267 70.7109 241.36 70.7109C240.423 70.7109 239.605 71.0964 238.907 71.8672C238.22 72.6276 237.876 73.6172 237.876 74.8359C237.876 75.9297 238.204 76.8203 238.86 77.5078C239.517 78.1849 240.329 78.5234 241.298 78.5234C242.277 78.5234 243.079 78.1849 243.704 77.5078C244.34 76.8203 244.657 75.8672 244.657 74.6484ZM251.954 76.8984C251.079 76.5755 250.428 76.1172 250.001 75.5234C249.584 74.9297 249.376 74.2161 249.376 73.3828C249.376 72.1328 249.824 71.0859 250.72 70.2422C251.616 69.388 252.808 68.9609 254.298 68.9609C255.798 68.9609 257.006 69.3984 257.923 70.2734C258.84 71.138 259.298 72.1953 259.298 73.4453C259.298 74.2474 259.09 74.9453 258.673 75.5391C258.256 76.1224 257.621 76.5755 256.767 76.8984C257.819 77.2422 258.621 77.7995 259.173 78.5703C259.725 79.3307 260.001 80.2422 260.001 81.3047C260.001 82.7734 259.48 84.0078 258.438 85.0078C257.397 86.0078 256.032 86.5078 254.345 86.5078C252.647 86.5078 251.277 86.0078 250.235 85.0078C249.194 83.9974 248.673 82.7422 248.673 81.2422C248.673 80.1276 248.954 79.1953 249.517 78.4453C250.09 77.6849 250.902 77.1693 251.954 76.8984ZM251.532 73.3203C251.532 74.1328 251.793 74.7995 252.313 75.3203C252.834 75.8307 253.511 76.0859 254.345 76.0859C255.157 76.0859 255.824 75.8307 256.345 75.3203C256.866 74.8099 257.126 74.1797 257.126 73.4297C257.126 72.6589 256.855 72.013 256.313 71.4922C255.782 70.9609 255.121 70.6953 254.329 70.6953C253.527 70.6953 252.86 70.9557 252.329 71.4766C251.798 71.987 251.532 72.6016 251.532 73.3203ZM250.845 81.2578C250.845 81.8516 250.985 82.4297 251.267 82.9922C251.558 83.5547 251.985 83.9922 252.548 84.3047C253.11 84.6172 253.715 84.7734 254.36 84.7734C255.371 84.7734 256.204 84.4505 256.86 83.8047C257.517 83.1484 257.845 82.3203 257.845 81.3203C257.845 80.3099 257.506 79.4714 256.829 78.8047C256.152 78.138 255.308 77.8047 254.298 77.8047C253.298 77.8047 252.47 78.1328 251.813 78.7891C251.168 79.4453 250.845 80.2682 250.845 81.2578ZM264.954 76.8984C264.079 76.5755 263.428 76.1172 263.001 75.5234C262.584 74.9297 262.376 74.2161 262.376 73.3828C262.376 72.1328 262.824 71.0859 263.72 70.2422C264.616 69.388 265.808 68.9609 267.298 68.9609C268.798 68.9609 270.006 69.3984 270.923 70.2734C271.84 71.138 272.298 72.1953 272.298 73.4453C272.298 74.2474 272.09 74.9453 271.673 75.5391C271.256 76.1224 270.621 76.5755 269.767 76.8984C270.819 77.2422 271.621 77.7995 272.173 78.5703C272.725 79.3307 273.001 80.2422 273.001 81.3047C273.001 82.7734 272.48 84.0078 271.438 85.0078C270.397 86.0078 269.032 86.5078 267.345 86.5078C265.647 86.5078 264.277 86.0078 263.235 85.0078C262.194 83.9974 261.673 82.7422 261.673 81.2422C261.673 80.1276 261.954 79.1953 262.517 78.4453C263.09 77.6849 263.902 77.1693 264.954 76.8984ZM264.532 73.3203C264.532 74.1328 264.793 74.7995 265.313 75.3203C265.834 75.8307 266.511 76.0859 267.345 76.0859C268.157 76.0859 268.824 75.8307 269.345 75.3203C269.866 74.8099 270.126 74.1797 270.126 73.4297C270.126 72.6589 269.855 72.013 269.313 71.4922C268.782 70.9609 268.121 70.6953 267.329 70.6953C266.527 70.6953 265.86 70.9557 265.329 71.4766C264.798 71.987 264.532 72.6016 264.532 73.3203ZM263.845 81.2578C263.845 81.8516 263.985 82.4297 264.267 82.9922C264.558 83.5547 264.985 83.9922 265.548 84.3047C266.11 84.6172 266.715 84.7734 267.36 84.7734C268.371 84.7734 269.204 84.4505 269.86 83.8047C270.517 83.1484 270.845 82.3203 270.845 81.3203C270.845 80.3099 270.506 79.4714 269.829 78.8047C269.152 78.138 268.308 77.8047 267.298 77.8047C266.298 77.8047 265.47 78.1328 264.813 78.7891C264.168 79.4453 263.845 80.2682 263.845 81.2578Z" fill="black"/>
</g>
</g>
<defs>
<clipPath id="clip0_1631_119">
<rect width="600" height="371" fill="white"/>
</clipPath>
<clipPath id="clip1_1631_119">
<rect width="573" height="353" fill="white" transform="translate(13 9)"/>
</clipPath>
</defs>
</svg>
