<svg width="600" height="371" viewBox="0 0 600 371" fill="none" xmlns="http://www.w3.org/2000/svg">
<g clip-path="url(#clip0_1654_259)">
<path d="M0 0H600V371H0V0Z" fill="#1A1B1F"/>
<path d="M300 18.55C350.807 18.55 398.849 41.6859 430.527 81.4084L365.263 133.454C349.425 113.593 325.403 102.025 300 102.025V18.55Z" fill="#EA9999"/>
<path d="M430.527 81.4084C479.091 142.306 479.091 228.694 430.527 289.592L365.264 237.546C389.546 207.097 389.546 163.903 365.264 133.454L430.527 81.4084Z" fill="#E06666"/>
<path d="M169.474 81.4084C201.151 41.6859 249.193 18.55 300 18.55V102.025C274.597 102.025 250.576 113.593 234.737 133.454L169.474 81.4084Z" fill="#F4CCCC"/>
<path d="M137.236 222.65C125.931 173.117 137.796 121.131 169.474 81.4084L234.737 133.454C218.898 153.316 212.965 179.308 218.618 204.075L137.236 222.65Z" fill="#660000"/>
<path d="M169.473 289.592C153.835 269.983 142.816 247.102 137.235 222.65L218.617 204.075C221.408 216.301 226.917 227.741 234.736 237.546L169.473 289.592Z" fill="#990000"/>
<path d="M430.527 289.592C398.85 329.314 350.807 352.45 300 352.45C249.193 352.45 201.151 329.314 169.474 289.592L234.737 237.546C250.576 257.407 274.597 268.975 300 268.975C325.404 268.975 349.425 257.407 365.264 237.546L430.527 289.592Z" fill="#CC0000"/>
<path fill-rule="evenodd" clip-rule="evenodd" d="M338.89 79.1875V77.6719H332.577C332.744 77.3802 332.963 77.0937 333.234 76.8125C333.504 76.5312 334.114 75.9896 335.062 75.1875C336.197 74.2292 337.01 73.474 337.499 72.9219C337.989 72.3698 338.338 71.8438 338.546 71.3438C338.765 70.8438 338.874 70.3385 338.874 69.8281C338.874 68.8177 338.51 67.9688 337.78 67.2812C337.062 66.5938 336.088 66.25 334.859 66.25C333.629 66.25 332.65 66.5677 331.921 67.2031C331.202 67.8385 330.786 68.7604 330.671 69.9688L332.296 70.1406C332.306 69.3385 332.536 68.7083 332.984 68.25C333.442 67.7917 334.056 67.5625 334.827 67.5625C335.546 67.5625 336.129 67.776 336.577 68.2031C337.025 68.6302 337.249 69.1615 337.249 69.7969C337.249 70.3906 336.999 71.026 336.499 71.7031C336.01 72.3698 335.067 73.276 333.671 74.4219C332.765 75.1615 332.072 75.8125 331.593 76.375C331.124 76.9375 330.78 77.5104 330.562 78.0938C330.426 78.4375 330.364 78.8021 330.374 79.1875H338.89ZM341.046 69.1562C340.734 70.0833 340.577 71.3073 340.577 72.8281C340.577 75.2552 340.999 77.0052 341.843 78.0781C342.551 78.9635 343.53 79.4062 344.78 79.4062C345.718 79.4062 346.494 79.1562 347.109 78.6562C347.734 78.1458 348.202 77.4271 348.515 76.5C348.827 75.5625 348.984 74.3385 348.984 72.8281C348.984 71.5573 348.885 70.5469 348.687 69.7969C348.489 69.0365 348.218 68.3958 347.874 67.875C347.541 67.3437 347.114 66.9427 346.593 66.6719C346.072 66.3906 345.468 66.25 344.78 66.25C343.843 66.25 343.062 66.5052 342.437 67.0156C341.822 67.5156 341.359 68.2292 341.046 69.1562ZM342.937 77.0625C342.447 76.3542 342.202 74.9427 342.202 72.8281C342.202 70.7135 342.473 69.2656 343.015 68.4844C343.452 67.8698 344.036 67.5625 344.765 67.5625C345.494 67.5625 346.109 67.9115 346.609 68.6094C347.109 69.3073 347.359 70.7135 347.359 72.8281C347.359 74.9427 347.109 76.3542 346.609 77.0625C346.109 77.7604 345.499 78.1094 344.78 78.1094C344.051 78.1094 343.437 77.7604 342.937 77.0625ZM351.046 69.1562C350.734 70.0833 350.577 71.3073 350.577 72.8281C350.577 75.2552 350.999 77.0052 351.843 78.0781C352.551 78.9635 353.53 79.4062 354.78 79.4062C355.718 79.4062 356.494 79.1562 357.109 78.6562C357.734 78.1458 358.202 77.4271 358.515 76.5C358.827 75.5625 358.984 74.3385 358.984 72.8281C358.984 71.5573 358.885 70.5469 358.687 69.7969C358.489 69.0365 358.218 68.3958 357.874 67.875C357.541 67.3437 357.114 66.9427 356.593 66.6719C356.072 66.3906 355.468 66.25 354.78 66.25C353.843 66.25 353.062 66.5052 352.437 67.0156C351.822 67.5156 351.359 68.2292 351.046 69.1562ZM352.937 77.0625C352.447 76.3542 352.202 74.9427 352.202 72.8281C352.202 70.7135 352.473 69.2656 353.015 68.4844C353.452 67.8698 354.036 67.5625 354.765 67.5625C355.494 67.5625 356.109 67.9115 356.609 68.6094C357.109 69.3073 357.359 70.7135 357.359 72.8281C357.359 74.9427 357.109 76.3542 356.609 77.0625C356.109 77.7604 355.499 78.1094 354.78 78.1094C354.051 78.1094 353.437 77.7604 352.937 77.0625ZM361.046 69.1562C360.734 70.0833 360.577 71.3073 360.577 72.8281C360.577 75.2552 360.999 77.0052 361.843 78.0781C362.551 78.9635 363.53 79.4062 364.78 79.4062C365.718 79.4062 366.494 79.1562 367.109 78.6562C367.734 78.1458 368.202 77.4271 368.515 76.5C368.827 75.5625 368.984 74.3385 368.984 72.8281C368.984 71.5573 368.885 70.5469 368.687 69.7969C368.489 69.0365 368.218 68.3958 367.874 67.875C367.541 67.3437 367.114 66.9427 366.593 66.6719C366.072 66.3906 365.468 66.25 364.78 66.25C363.843 66.25 363.062 66.5052 362.437 67.0156C361.822 67.5156 361.359 68.2292 361.046 69.1562ZM362.937 77.0625C362.447 76.3542 362.202 74.9427 362.202 72.8281C362.202 70.7135 362.473 69.2656 363.015 68.4844C363.452 67.8698 364.036 67.5625 364.765 67.5625C365.494 67.5625 366.109 67.9115 366.609 68.6094C367.109 69.3073 367.359 70.7135 367.359 72.8281C367.359 74.9427 367.109 76.3542 366.609 77.0625C366.109 77.7604 365.499 78.1094 364.78 78.1094C364.051 78.1094 363.437 77.7604 362.937 77.0625Z" fill="black"/>
<path fill-rule="evenodd" clip-rule="evenodd" d="M409.775 190.484V192H401.259C401.249 191.615 401.311 191.25 401.446 190.906C401.665 190.323 402.009 189.75 402.478 189.188C402.957 188.625 403.65 187.974 404.556 187.234C405.952 186.089 406.894 185.182 407.384 184.516C407.884 183.839 408.134 183.203 408.134 182.609C408.134 181.974 407.91 181.443 407.462 181.016C407.014 180.589 406.431 180.375 405.712 180.375C404.941 180.375 404.327 180.604 403.868 181.063C403.42 181.521 403.191 182.151 403.181 182.953L401.556 182.781C401.67 181.573 402.087 180.651 402.806 180.016C403.535 179.38 404.514 179.063 405.743 179.063C406.972 179.063 407.946 179.406 408.665 180.094C409.394 180.781 409.759 181.63 409.759 182.641C409.759 183.151 409.65 183.656 409.431 184.156C409.222 184.656 408.874 185.182 408.384 185.734C407.894 186.287 407.082 187.042 405.946 188C404.999 188.802 404.389 189.344 404.118 189.625C403.847 189.906 403.629 190.193 403.462 190.484H409.775ZM411.462 185.641C411.462 184.12 411.618 182.896 411.931 181.969C412.243 181.042 412.707 180.328 413.321 179.828C413.946 179.318 414.728 179.063 415.665 179.063C416.353 179.063 416.957 179.203 417.478 179.484C417.999 179.755 418.426 180.156 418.759 180.688C419.103 181.208 419.374 181.849 419.571 182.609C419.769 183.359 419.868 184.37 419.868 185.641C419.868 187.151 419.712 188.375 419.4 189.313C419.087 190.24 418.618 190.958 417.993 191.469C417.379 191.969 416.603 192.219 415.665 192.219C414.415 192.219 413.436 191.776 412.728 190.891C411.884 189.818 411.462 188.068 411.462 185.641ZM413.087 185.641C413.087 187.755 413.332 189.167 413.821 189.875C414.321 190.573 414.936 190.922 415.665 190.922C416.384 190.922 416.993 190.573 417.493 189.875C417.993 189.167 418.243 187.755 418.243 185.641C418.243 183.526 417.993 182.12 417.493 181.422C416.993 180.724 416.379 180.375 415.65 180.375C414.92 180.375 414.337 180.682 413.9 181.297C413.358 182.078 413.087 183.526 413.087 185.641ZM421.462 185.641C421.462 184.12 421.618 182.896 421.931 181.969C422.243 181.042 422.707 180.328 423.321 179.828C423.946 179.318 424.728 179.063 425.665 179.063C426.353 179.063 426.957 179.203 427.478 179.484C427.999 179.755 428.426 180.156 428.759 180.688C429.103 181.208 429.374 181.849 429.571 182.609C429.769 183.359 429.868 184.37 429.868 185.641C429.868 187.151 429.712 188.375 429.4 189.313C429.087 190.24 428.618 190.958 427.993 191.469C427.379 191.969 426.603 192.219 425.665 192.219C424.415 192.219 423.436 191.776 422.728 190.891C421.884 189.818 421.462 188.068 421.462 185.641ZM423.087 185.641C423.087 187.755 423.332 189.167 423.821 189.875C424.321 190.573 424.936 190.922 425.665 190.922C426.384 190.922 426.993 190.573 427.493 189.875C427.993 189.167 428.243 187.755 428.243 185.641C428.243 183.526 427.993 182.12 427.493 181.422C426.993 180.724 426.379 180.375 425.65 180.375C424.92 180.375 424.337 180.682 423.9 181.297C423.358 182.078 423.087 183.526 423.087 185.641ZM437.415 192H435.837V181.922C435.452 182.287 434.952 182.651 434.337 183.016C433.722 183.37 433.165 183.641 432.665 183.828V182.297C433.551 181.88 434.327 181.375 434.993 180.781C435.66 180.188 436.129 179.615 436.4 179.063H437.415V192Z" fill="black"/>
<path fill-rule="evenodd" clip-rule="evenodd" d="M284.563 326.593V325.077H278.25C278.417 324.785 278.636 324.499 278.906 324.218C279.177 323.937 279.787 323.395 280.735 322.593C281.87 321.634 282.682 320.879 283.172 320.327C283.662 319.775 284.011 319.249 284.219 318.749C284.438 318.249 284.547 317.744 284.547 317.233C284.547 316.223 284.182 315.374 283.453 314.687C282.735 313.999 281.761 313.655 280.531 313.655C279.302 313.655 278.323 313.973 277.594 314.608C276.875 315.244 276.458 316.166 276.344 317.374L277.969 317.546C277.979 316.744 278.208 316.114 278.656 315.655C279.115 315.197 279.729 314.968 280.5 314.968C281.219 314.968 281.802 315.181 282.25 315.608C282.698 316.035 282.922 316.567 282.922 317.202C282.922 317.796 282.672 318.431 282.172 319.108C281.682 319.775 280.74 320.681 279.344 321.827C278.438 322.567 277.745 323.218 277.266 323.78C276.797 324.343 276.453 324.916 276.235 325.499C276.099 325.843 276.037 326.207 276.047 326.593H284.563ZM286.719 316.562C286.406 317.489 286.25 318.713 286.25 320.233C286.25 322.66 286.672 324.41 287.516 325.483C288.224 326.369 289.203 326.812 290.453 326.812C291.391 326.812 292.167 326.562 292.781 326.062C293.406 325.551 293.875 324.832 294.188 323.905C294.5 322.968 294.656 321.744 294.656 320.233C294.656 318.963 294.557 317.952 294.36 317.202C294.162 316.442 293.891 315.801 293.547 315.28C293.214 314.749 292.787 314.348 292.266 314.077C291.745 313.796 291.141 313.655 290.453 313.655C289.516 313.655 288.735 313.91 288.11 314.421C287.495 314.921 287.031 315.634 286.719 316.562ZM288.61 324.468C288.12 323.759 287.875 322.348 287.875 320.233C287.875 318.119 288.146 316.671 288.688 315.89C289.125 315.275 289.708 314.968 290.438 314.968C291.167 314.968 291.781 315.317 292.281 316.015C292.781 316.713 293.031 318.119 293.031 320.233C293.031 322.348 292.781 323.759 292.281 324.468C291.781 325.166 291.172 325.515 290.453 325.515C289.724 325.515 289.11 325.166 288.61 324.468ZM296.719 316.562C296.406 317.489 296.25 318.713 296.25 320.233C296.25 322.66 296.672 324.41 297.516 325.483C298.224 326.369 299.203 326.812 300.453 326.812C301.391 326.812 302.167 326.562 302.781 326.062C303.406 325.551 303.875 324.832 304.188 323.905C304.5 322.968 304.656 321.744 304.656 320.233C304.656 318.963 304.557 317.952 304.36 317.202C304.162 316.442 303.891 315.801 303.547 315.28C303.214 314.749 302.787 314.348 302.266 314.077C301.745 313.796 301.141 313.655 300.453 313.655C299.516 313.655 298.735 313.91 298.11 314.421C297.495 314.921 297.031 315.634 296.719 316.562ZM298.61 324.468C298.12 323.759 297.875 322.348 297.875 320.233C297.875 318.119 298.146 316.671 298.688 315.89C299.125 315.275 299.708 314.968 300.438 314.968C301.167 314.968 301.781 315.317 302.281 316.015C302.781 316.713 303.031 318.119 303.031 320.233C303.031 322.348 302.781 323.759 302.281 324.468C301.781 325.166 301.172 325.515 300.453 325.515C299.724 325.515 299.11 325.166 298.61 324.468ZM314.563 326.593V325.077H308.25C308.417 324.785 308.636 324.499 308.906 324.218C309.177 323.937 309.787 323.395 310.735 322.593C311.87 321.634 312.682 320.879 313.172 320.327C313.662 319.775 314.011 319.249 314.219 318.749C314.438 318.249 314.547 317.744 314.547 317.233C314.547 316.223 314.182 315.374 313.453 314.687C312.735 313.999 311.761 313.655 310.531 313.655C309.302 313.655 308.323 313.973 307.594 314.608C306.875 315.244 306.458 316.166 306.344 317.374L307.969 317.546C307.979 316.744 308.208 316.114 308.656 315.655C309.115 315.197 309.729 314.968 310.5 314.968C311.219 314.968 311.802 315.181 312.25 315.608C312.698 316.035 312.922 316.567 312.922 317.202C312.922 317.796 312.672 318.431 312.172 319.108C311.682 319.775 310.74 320.681 309.344 321.827C308.438 322.567 307.745 323.218 307.266 323.78C306.797 324.343 306.453 324.916 306.235 325.499C306.099 325.843 306.037 326.207 306.047 326.593H314.563Z" fill="white"/>
<path fill-rule="evenodd" clip-rule="evenodd" d="M171.75 246.328V244.812H165.438C165.604 244.52 165.823 244.234 166.094 243.953C166.365 243.671 166.974 243.13 167.922 242.328C169.057 241.369 169.87 240.614 170.36 240.062C170.849 239.51 171.198 238.984 171.406 238.484C171.625 237.984 171.735 237.479 171.735 236.968C171.735 235.958 171.37 235.109 170.641 234.421C169.922 233.734 168.948 233.39 167.719 233.39C166.49 233.39 165.511 233.708 164.781 234.343C164.063 234.979 163.646 235.901 163.531 237.109L165.156 237.281C165.167 236.479 165.396 235.848 165.844 235.39C166.302 234.932 166.917 234.703 167.688 234.703C168.406 234.703 168.99 234.916 169.438 235.343C169.886 235.77 170.11 236.302 170.11 236.937C170.11 237.531 169.86 238.166 169.36 238.843C168.87 239.51 167.927 240.416 166.531 241.562C165.625 242.302 164.932 242.953 164.453 243.515C163.985 244.078 163.641 244.651 163.422 245.234C163.287 245.578 163.224 245.942 163.235 246.328H171.75ZM173.906 236.296C173.594 237.223 173.438 238.447 173.438 239.968C173.438 242.395 173.86 244.145 174.703 245.218C175.412 246.104 176.391 246.546 177.641 246.546C178.578 246.546 179.354 246.296 179.969 245.796C180.594 245.286 181.063 244.567 181.375 243.64C181.688 242.703 181.844 241.479 181.844 239.968C181.844 238.697 181.745 237.687 181.547 236.937C181.349 236.177 181.078 235.536 180.735 235.015C180.401 234.484 179.974 234.083 179.453 233.812C178.932 233.531 178.328 233.39 177.641 233.39C176.703 233.39 175.922 233.645 175.297 234.156C174.682 234.656 174.219 235.369 173.906 236.296ZM175.797 244.203C175.307 243.494 175.063 242.083 175.063 239.968C175.063 237.854 175.333 236.406 175.875 235.625C176.313 235.01 176.896 234.703 177.625 234.703C178.354 234.703 178.969 235.052 179.469 235.75C179.969 236.447 180.219 237.854 180.219 239.968C180.219 242.083 179.969 243.494 179.469 244.203C178.969 244.901 178.36 245.25 177.641 245.25C176.912 245.25 176.297 244.901 175.797 244.203ZM183.906 236.296C183.594 237.223 183.438 238.447 183.438 239.968C183.438 242.395 183.86 244.145 184.703 245.218C185.412 246.104 186.391 246.546 187.641 246.546C188.578 246.546 189.354 246.296 189.969 245.796C190.594 245.286 191.063 244.567 191.375 243.64C191.688 242.703 191.844 241.479 191.844 239.968C191.844 238.697 191.745 237.687 191.547 236.937C191.349 236.177 191.078 235.536 190.735 235.015C190.401 234.484 189.974 234.083 189.453 233.812C188.932 233.531 188.328 233.39 187.641 233.39C186.703 233.39 185.922 233.645 185.297 234.156C184.682 234.656 184.219 235.369 183.906 236.296ZM185.797 244.203C185.307 243.494 185.063 242.083 185.063 239.968C185.063 237.854 185.333 236.406 185.875 235.625C186.313 235.01 186.896 234.703 187.625 234.703C188.354 234.703 188.969 235.052 189.469 235.75C189.969 236.447 190.219 237.854 190.219 239.968C190.219 242.083 189.969 243.494 189.469 244.203C188.969 244.901 188.36 245.25 187.641 245.25C186.912 245.25 186.297 244.901 185.797 244.203ZM195.094 242.812L193.438 242.953C193.542 244.036 193.964 244.906 194.703 245.562C195.443 246.218 196.401 246.546 197.578 246.546C199.005 246.546 200.13 246.026 200.953 244.984C201.641 244.13 201.985 243.119 201.985 241.953C201.985 240.734 201.594 239.734 200.813 238.953C200.042 238.171 199.094 237.781 197.969 237.781C197.125 237.781 196.313 238.052 195.531 238.593L196.235 235.125H201.375V233.625H194.969L193.719 240.234L195.203 240.437C195.432 240.062 195.75 239.76 196.156 239.531C196.573 239.302 197.037 239.187 197.547 239.187C198.37 239.187 199.031 239.447 199.531 239.968C200.042 240.489 200.297 241.197 200.297 242.093C200.297 243.052 200.031 243.817 199.5 244.39C198.979 244.963 198.339 245.25 197.578 245.25C196.943 245.25 196.401 245.046 195.953 244.64C195.505 244.234 195.219 243.625 195.094 242.812Z" fill="white"/>
<path fill-rule="evenodd" clip-rule="evenodd" d="M162.489 164.138V162.622H156.177C156.344 162.33 156.562 162.044 156.833 161.763C157.104 161.481 157.713 160.94 158.661 160.138C159.797 159.179 160.609 158.424 161.099 157.872C161.588 157.32 161.937 156.794 162.146 156.294C162.364 155.794 162.474 155.289 162.474 154.778C162.474 153.768 162.109 152.919 161.38 152.231C160.661 151.544 159.687 151.2 158.458 151.2C157.229 151.2 156.25 151.518 155.521 152.153C154.802 152.789 154.385 153.711 154.271 154.919L155.896 155.091C155.906 154.289 156.135 153.659 156.583 153.2C157.041 152.742 157.656 152.513 158.427 152.513C159.146 152.513 159.729 152.726 160.177 153.153C160.625 153.58 160.849 154.112 160.849 154.747C160.849 155.341 160.599 155.976 160.099 156.653C159.609 157.32 158.666 158.226 157.271 159.372C156.364 160.112 155.672 160.763 155.193 161.325C154.724 161.888 154.38 162.461 154.161 163.044C154.026 163.388 153.963 163.752 153.974 164.138H162.489ZM164.646 154.106C164.333 155.034 164.177 156.257 164.177 157.778C164.177 160.205 164.599 161.955 165.443 163.028C166.151 163.914 167.13 164.356 168.38 164.356C169.318 164.356 170.094 164.106 170.708 163.606C171.333 163.096 171.802 162.377 172.114 161.45C172.427 160.513 172.583 159.289 172.583 157.778C172.583 156.507 172.484 155.497 172.286 154.747C172.088 153.987 171.818 153.346 171.474 152.825C171.14 152.294 170.713 151.893 170.193 151.622C169.672 151.341 169.068 151.2 168.38 151.2C167.443 151.2 166.661 151.455 166.036 151.966C165.422 152.466 164.958 153.179 164.646 154.106ZM166.536 162.013C166.047 161.304 165.802 159.893 165.802 157.778C165.802 155.664 166.073 154.216 166.614 153.435C167.052 152.82 167.635 152.513 168.364 152.513C169.094 152.513 169.708 152.862 170.208 153.56C170.708 154.257 170.958 155.664 170.958 157.778C170.958 159.893 170.708 161.304 170.208 162.013C169.708 162.711 169.099 163.06 168.38 163.06C167.651 163.06 167.036 162.711 166.536 162.013ZM174.646 154.106C174.333 155.034 174.177 156.257 174.177 157.778C174.177 160.205 174.599 161.955 175.443 163.028C176.151 163.914 177.13 164.356 178.38 164.356C179.318 164.356 180.094 164.106 180.708 163.606C181.333 163.096 181.802 162.377 182.114 161.45C182.427 160.513 182.583 159.289 182.583 157.778C182.583 156.507 182.484 155.497 182.286 154.747C182.088 153.987 181.818 153.346 181.474 152.825C181.14 152.294 180.713 151.893 180.193 151.622C179.672 151.341 179.068 151.2 178.38 151.2C177.443 151.2 176.661 151.455 176.036 151.966C175.422 152.466 174.958 153.179 174.646 154.106ZM176.536 162.013C176.047 161.304 175.802 159.893 175.802 157.778C175.802 155.664 176.073 154.216 176.614 153.435C177.052 152.82 177.635 152.513 178.364 152.513C179.094 152.513 179.708 152.862 180.208 153.56C180.708 154.257 180.958 155.664 180.958 157.778C180.958 159.893 180.708 161.304 180.208 162.013C179.708 162.711 179.099 163.06 178.38 163.06C177.651 163.06 177.036 162.711 176.536 162.013ZM184.286 151.419V152.935H190.583C189.781 153.851 189.026 154.976 188.318 156.31C187.609 157.643 187.062 159.028 186.677 160.466C186.302 161.903 186.104 163.127 186.083 164.138H187.708C187.791 162.856 187.995 161.674 188.318 160.591C188.755 159.06 189.375 157.575 190.177 156.138C190.989 154.69 191.802 153.528 192.614 152.653V151.419H184.286Z" fill="#F3F3F3"/>
<path fill-rule="evenodd" clip-rule="evenodd" d="M230.235 79.1875V77.6719H223.922C224.089 77.3802 224.307 77.0937 224.578 76.8125C224.849 76.5312 225.458 75.9896 226.406 75.1875C227.542 74.2292 228.354 73.474 228.844 72.9219C229.333 72.3698 229.682 71.8438 229.891 71.3438C230.11 70.8438 230.219 70.3385 230.219 69.8281C230.219 68.8177 229.854 67.9688 229.125 67.2812C228.406 66.5938 227.432 66.25 226.203 66.25C224.974 66.25 223.995 66.5677 223.266 67.2031C222.547 67.8385 222.13 68.7604 222.016 69.9688L223.641 70.1406C223.651 69.3385 223.88 68.7083 224.328 68.25C224.787 67.7917 225.401 67.5625 226.172 67.5625C226.891 67.5625 227.474 67.776 227.922 68.2031C228.37 68.6302 228.594 69.1615 228.594 69.7969C228.594 70.3906 228.344 71.026 227.844 71.7031C227.354 72.3698 226.412 73.276 225.016 74.4219C224.11 75.1615 223.417 75.8125 222.938 76.375C222.469 76.9375 222.125 77.5104 221.906 78.0938C221.771 78.4375 221.708 78.8021 221.719 79.1875H230.235ZM232.391 69.1562C232.078 70.0833 231.922 71.3073 231.922 72.8281C231.922 75.2552 232.344 77.0052 233.188 78.0781C233.896 78.9635 234.875 79.4062 236.125 79.4062C237.063 79.4062 237.839 79.1562 238.453 78.6562C239.078 78.1458 239.547 77.4271 239.86 76.5C240.172 75.5625 240.328 74.3385 240.328 72.8281C240.328 71.5573 240.229 70.5469 240.031 69.7969C239.833 69.0365 239.563 68.3958 239.219 67.875C238.886 67.3437 238.458 66.9427 237.938 66.6719C237.417 66.3906 236.813 66.25 236.125 66.25C235.188 66.25 234.406 66.5052 233.781 67.0156C233.167 67.5156 232.703 68.2292 232.391 69.1562ZM234.281 77.0625C233.792 76.3542 233.547 74.9427 233.547 72.8281C233.547 70.7135 233.818 69.2656 234.36 68.4844C234.797 67.8698 235.38 67.5625 236.11 67.5625C236.839 67.5625 237.453 67.9115 237.953 68.6094C238.453 69.3073 238.703 70.7135 238.703 72.8281C238.703 74.9427 238.453 76.3542 237.953 77.0625C237.453 77.7604 236.844 78.1094 236.125 78.1094C235.396 78.1094 234.781 77.7604 234.281 77.0625ZM242.391 69.1562C242.078 70.0833 241.922 71.3073 241.922 72.8281C241.922 75.2552 242.344 77.0052 243.188 78.0781C243.896 78.9635 244.875 79.4062 246.125 79.4062C247.063 79.4062 247.839 79.1562 248.453 78.6562C249.078 78.1458 249.547 77.4271 249.86 76.5C250.172 75.5625 250.328 74.3385 250.328 72.8281C250.328 71.5573 250.229 70.5469 250.031 69.7969C249.833 69.0365 249.563 68.3958 249.219 67.875C248.886 67.3437 248.458 66.9427 247.938 66.6719C247.417 66.3906 246.813 66.25 246.125 66.25C245.188 66.25 244.406 66.5052 243.781 67.0156C243.167 67.5156 242.703 68.2292 242.391 69.1562ZM244.281 77.0625C243.792 76.3542 243.547 74.9427 243.547 72.8281C243.547 70.7135 243.818 69.2656 244.36 68.4844C244.797 67.8698 245.38 67.5625 246.11 67.5625C246.839 67.5625 247.453 67.9115 247.953 68.6094C248.453 69.3073 248.703 70.7135 248.703 72.8281C248.703 74.9427 248.453 76.3542 247.953 77.0625C247.453 77.7604 246.844 78.1094 246.125 78.1094C245.396 78.1094 244.781 77.7604 244.281 77.0625ZM252.891 71.1719C253.214 71.6198 253.703 71.9635 254.36 72.2031C253.568 72.401 252.958 72.7865 252.531 73.3594C252.115 73.9219 251.906 74.6198 251.906 75.4531C251.906 76.5781 252.292 77.5208 253.063 78.2812C253.844 79.0312 254.87 79.4062 256.141 79.4062C257.412 79.4062 258.438 79.0312 259.219 78.2812C260 77.5312 260.391 76.6042 260.391 75.5C260.391 74.7083 260.182 74.026 259.766 73.4531C259.36 72.8802 258.761 72.4635 257.969 72.2031C258.604 71.9635 259.078 71.625 259.391 71.1875C259.703 70.7396 259.86 70.2135 259.86 69.6094C259.86 68.6719 259.516 67.8802 258.828 67.2344C258.151 66.5781 257.25 66.25 256.125 66.25C255 66.25 254.099 66.5729 253.422 67.2188C252.755 67.8542 252.422 68.6406 252.422 69.5781C252.422 70.1927 252.578 70.724 252.891 71.1719ZM254.625 71.0156C254.229 70.6302 254.031 70.1302 254.031 69.5156C254.031 68.974 254.229 68.5104 254.625 68.125C255.031 67.7396 255.537 67.5469 256.141 67.5469C256.735 67.5469 257.229 67.7448 257.625 68.1406C258.031 68.5365 258.235 69.026 258.235 69.6094C258.235 70.1615 258.037 70.6302 257.641 71.0156C257.255 71.401 256.761 71.5938 256.156 71.5938C255.531 71.5938 255.021 71.401 254.625 71.0156ZM253.844 76.7812C253.636 76.3542 253.531 75.9167 253.531 75.4688C253.531 74.7292 253.776 74.1146 254.266 73.625C254.755 73.1354 255.37 72.8906 256.11 72.8906C256.87 72.8906 257.505 73.1406 258.016 73.6406C258.526 74.1302 258.781 74.7552 258.781 75.5156C258.781 76.2656 258.531 76.8854 258.031 77.375C257.542 77.8646 256.922 78.1094 256.172 78.1094C255.682 78.1094 255.224 77.9948 254.797 77.7656C254.38 77.526 254.063 77.1979 253.844 76.7812Z" fill="black"/>
</g>
<defs>
<clipPath id="clip0_1654_259">
<rect width="600" height="371" fill="white"/>
</clipPath>
</defs>
</svg>
