<svg width="60" height="52" viewBox="0 0 60 52" fill="none" xmlns="http://www.w3.org/2000/svg">
<path d="M59.9733 34.6961V2.89805C59.9707 2.46385 59.8411 2.03567 59.5942 1.64532C59.3473 1.25498 58.9894 0.912482 58.5471 0.643278C58.1111 0.371611 57.6016 0.17866 57.056 0.0786099C56.5105 -0.0214402 55.9427 -0.0260459 55.3946 0.0651311L21.6172 5.8466C20.7834 5.99144 20.0387 6.35118 19.5064 6.86632C18.9741 7.38146 18.686 8.02113 18.6898 8.67952V32.7882C16.1278 31.8566 13.2426 31.59 10.4671 32.0283C7.69157 32.4667 5.17544 33.5864 3.29614 35.2195C1.41684 36.8526 0.275706 38.911 0.0439182 41.086C-0.18787 43.2609 0.502191 45.4351 2.01058 47.2824C3.51897 49.1297 5.76435 50.5505 8.40988 51.3316C11.0554 52.1127 13.9584 52.212 16.6835 51.6147C19.4085 51.0173 21.8086 49.7555 23.5237 48.0185C25.2388 46.2815 26.1764 44.163 26.1959 41.9808C26.2347 41.4801 26.2347 40.9782 26.1959 40.4776V10.9921L52.4672 6.51147V27.0068C49.9037 26.0746 47.0167 25.8081 44.2398 26.2475C41.463 26.6868 38.9461 27.8082 37.0672 29.4433C35.1883 31.0783 34.0489 33.1387 33.8199 35.3151C33.591 37.4915 34.285 39.6663 35.7977 41.513C37.3103 43.3597 39.56 44.7786 42.2088 45.5565C44.8577 46.3344 47.7627 46.4294 50.4876 45.8272C53.2125 45.225 55.6102 43.9582 57.3206 42.2169C59.0311 40.4756 59.9619 38.3539 59.9733 36.1704C60.0089 35.6793 60.0089 35.1872 59.9733 34.6961Z" fill="#3294FF"/>
</svg>
