<svg width="51" height="52" viewBox="0 0 51 52" fill="none" xmlns="http://www.w3.org/2000/svg">
<path d="M50.9773 34.6961V2.89805C50.9751 2.46385 50.865 2.03567 50.6551 1.64532C50.4452 1.25498 50.141 0.912482 49.7651 0.643278C49.3944 0.371611 48.9614 0.17866 48.4976 0.0786099C48.0339 -0.0214402 47.5513 -0.0260459 47.0854 0.0651311L18.3746 5.8466C17.6659 5.99144 17.0329 6.35118 16.5804 6.86632C16.1279 7.38146 15.8831 8.02113 15.8864 8.67952V32.7882C13.7086 31.8566 11.2562 31.59 8.897 32.0283C6.53783 32.4667 4.39913 33.5864 2.80172 35.2195C1.20432 36.8526 0.23435 38.911 0.0373304 41.086C-0.159689 43.2609 0.426862 45.4351 1.70899 47.2824C2.99112 49.1297 4.8997 50.5505 7.1484 51.3316C9.3971 52.1127 11.8647 52.212 14.181 51.6147C16.4972 51.0173 18.5373 49.7555 19.9951 48.0185C21.453 46.2815 22.25 44.163 22.2665 41.9808C22.2995 41.4801 22.2995 40.9782 22.2665 40.4776V10.9921L44.5971 6.51147V27.0068C42.4181 26.0746 39.9642 25.8081 37.6039 26.2475C35.2435 26.6868 33.1042 27.8082 31.5071 29.4433C29.9101 31.0783 28.9415 33.1387 28.747 35.3151C28.5524 37.4915 29.1423 39.6663 30.428 41.513C31.7138 43.3597 33.626 44.7785 35.8775 45.5565C38.129 46.3344 40.5983 46.4294 42.9144 45.8272C45.2306 45.225 47.2687 43.9582 48.7225 42.2169C50.1764 40.4756 50.9676 38.3539 50.9773 36.1704C51.0076 35.6793 51.0076 35.1872 50.9773 34.6961Z" fill="#3294FF"/>
</svg>
