<svg width="600" height="371" viewBox="0 0 600 371" fill="none" xmlns="http://www.w3.org/2000/svg">
<g clip-path="url(#clip0_1751_519)">
<path d="M0 0H600V371H0V0Z" fill="#1A1B1F"/>
<path d="M300 18.55C348.424 18.55 394.462 39.5749 426.172 76.171C457.883 112.767 472.142 161.329 465.251 209.26L382.625 197.38C386.071 173.414 378.942 149.134 363.086 130.836C347.231 112.537 324.212 102.025 300 102.025V18.55Z" fill="#C9DAF8"/>
<path d="M465.25 209.259C460.696 240.939 447.131 270.641 426.172 294.829L363.086 240.164C373.565 228.071 380.348 213.219 382.625 197.38L465.25 209.259Z" fill="#6D9EEB"/>
<path d="M173.827 294.829C131.025 245.432 120.984 175.601 148.136 116.147C175.288 56.6918 234.638 18.55 299.999 18.55V102.025C267.319 102.025 237.644 121.096 224.068 150.823C210.492 180.551 215.512 215.466 236.913 240.165L173.827 294.829Z" fill="#1C4587"/>
<path d="M426.173 294.829C394.462 331.425 348.424 352.45 300.001 352.45C251.577 352.45 205.539 331.425 173.828 294.829L236.914 240.165C252.77 258.463 275.789 268.975 300.001 268.975C324.212 268.975 347.231 258.463 363.087 240.165L426.173 294.829Z" fill="#1155CC"/>
<path d="M382.175 107.316V108.503H375.55C375.54 108.212 375.587 107.925 375.691 107.644C375.868 107.196 376.139 106.753 376.503 106.316C376.878 105.878 377.415 105.373 378.113 104.8C379.206 103.904 379.941 103.196 380.316 102.675C380.701 102.154 380.894 101.659 380.894 101.191C380.894 100.701 380.717 100.29 380.363 99.9563C380.019 99.623 379.571 99.4563 379.019 99.4563C378.425 99.4563 377.946 99.6334 377.581 99.9875C377.227 100.342 377.05 100.837 377.05 101.472L375.785 101.331C375.868 100.394 376.191 99.6803 376.753 99.1907C377.326 98.6907 378.087 98.4407 379.035 98.4407C380.003 98.4407 380.764 98.7063 381.316 99.2375C381.878 99.7688 382.16 100.43 382.16 101.222C382.16 101.628 382.076 102.024 381.91 102.409C381.753 102.795 381.483 103.201 381.097 103.628C380.722 104.055 380.092 104.644 379.206 105.394C378.467 106.008 377.993 106.43 377.785 106.659C377.576 106.878 377.404 107.097 377.269 107.316H382.175ZM383.706 103.566C383.706 102.378 383.826 101.425 384.066 100.706C384.316 99.9771 384.68 99.4198 385.16 99.0344C385.639 98.6386 386.243 98.4407 386.972 98.4407C387.514 98.4407 387.988 98.55 388.394 98.7688C388.8 98.9875 389.134 99.3 389.394 99.7063C389.665 100.113 389.873 100.607 390.019 101.191C390.165 101.774 390.238 102.566 390.238 103.566C390.238 104.743 390.118 105.691 389.878 106.409C389.639 107.128 389.279 107.685 388.8 108.081C388.321 108.477 387.712 108.675 386.972 108.675C386.014 108.675 385.259 108.326 384.706 107.628C384.04 106.795 383.706 105.441 383.706 103.566ZM384.972 103.566C384.972 105.212 385.165 106.305 385.55 106.847C385.936 107.389 386.41 107.659 386.972 107.659C387.545 107.659 388.024 107.389 388.41 106.847C388.795 106.295 388.988 105.201 388.988 103.566C388.988 101.909 388.795 100.81 388.41 100.269C388.024 99.7271 387.54 99.4563 386.956 99.4563C386.394 99.4563 385.946 99.6959 385.613 100.175C385.186 100.79 384.972 101.92 384.972 103.566ZM398.175 107.316V108.503H391.55C391.54 108.212 391.587 107.925 391.691 107.644C391.868 107.196 392.139 106.753 392.503 106.316C392.878 105.878 393.415 105.373 394.113 104.8C395.206 103.904 395.941 103.196 396.316 102.675C396.701 102.154 396.894 101.659 396.894 101.191C396.894 100.701 396.717 100.29 396.363 99.9563C396.019 99.623 395.571 99.4563 395.019 99.4563C394.425 99.4563 393.946 99.6334 393.581 99.9875C393.227 100.342 393.05 100.837 393.05 101.472L391.785 101.331C391.868 100.394 392.191 99.6803 392.753 99.1907C393.326 98.6907 394.087 98.4407 395.035 98.4407C396.003 98.4407 396.764 98.7063 397.316 99.2375C397.878 99.7688 398.16 100.43 398.16 101.222C398.16 101.628 398.076 102.024 397.91 102.409C397.753 102.795 397.483 103.201 397.097 103.628C396.722 104.055 396.092 104.644 395.206 105.394C394.467 106.008 393.993 106.43 393.785 106.659C393.576 106.878 393.404 107.097 393.269 107.316H398.175ZM399.706 103.566C399.706 102.378 399.826 101.425 400.066 100.706C400.316 99.9771 400.68 99.4198 401.16 99.0344C401.639 98.6386 402.243 98.4407 402.972 98.4407C403.514 98.4407 403.988 98.55 404.394 98.7688C404.8 98.9875 405.134 99.3 405.394 99.7063C405.665 100.113 405.873 100.607 406.019 101.191C406.165 101.774 406.238 102.566 406.238 103.566C406.238 104.743 406.118 105.691 405.878 106.409C405.639 107.128 405.279 107.685 404.8 108.081C404.321 108.477 403.712 108.675 402.972 108.675C402.014 108.675 401.259 108.326 400.706 107.628C400.04 106.795 399.706 105.441 399.706 103.566ZM400.972 103.566C400.972 105.212 401.165 106.305 401.55 106.847C401.936 107.389 402.41 107.659 402.972 107.659C403.545 107.659 404.024 107.389 404.41 106.847C404.795 106.295 404.988 105.201 404.988 103.566C404.988 101.909 404.795 100.81 404.41 100.269C404.024 99.7271 403.54 99.4563 402.956 99.4563C402.394 99.4563 401.946 99.6959 401.613 100.175C401.186 100.79 400.972 101.92 400.972 103.566ZM407.566 106.331L408.769 106.144C408.842 106.633 409.035 107.008 409.347 107.269C409.66 107.529 410.097 107.659 410.66 107.659C411.222 107.659 411.639 107.545 411.91 107.316C412.191 107.087 412.332 106.816 412.332 106.503C412.332 106.222 412.207 106.003 411.957 105.847C411.79 105.732 411.373 105.592 410.707 105.425C409.8 105.196 409.17 104.998 408.816 104.831C408.472 104.665 408.212 104.435 408.035 104.144C407.858 103.852 407.769 103.529 407.769 103.175C407.769 102.852 407.842 102.555 407.988 102.284C408.134 102.003 408.337 101.769 408.597 101.581C408.785 101.446 409.04 101.331 409.363 101.238C409.696 101.133 410.055 101.081 410.441 101.081C411.003 101.081 411.498 101.165 411.925 101.331C412.363 101.488 412.686 101.706 412.894 101.988C413.102 102.269 413.243 102.644 413.316 103.113L412.113 103.284C412.061 102.909 411.899 102.618 411.628 102.409C411.368 102.201 410.998 102.097 410.519 102.097C409.957 102.097 409.555 102.191 409.316 102.378C409.076 102.555 408.957 102.774 408.957 103.034C408.957 103.191 409.003 103.331 409.097 103.456C409.201 103.592 409.363 103.701 409.582 103.784C409.696 103.826 410.055 103.93 410.66 104.097C411.535 104.337 412.144 104.529 412.488 104.675C412.831 104.821 413.097 105.034 413.285 105.316C413.483 105.597 413.582 105.946 413.582 106.363C413.582 106.779 413.462 107.17 413.222 107.534C412.993 107.889 412.649 108.17 412.191 108.378C411.743 108.576 411.233 108.675 410.66 108.675C409.722 108.675 409.003 108.477 408.503 108.081C408.014 107.685 407.701 107.102 407.566 106.331Z" fill="black"/>
<path d="M401.445 241.328V242.515H394.82C394.809 242.223 394.856 241.937 394.96 241.656C395.137 241.208 395.408 240.765 395.773 240.328C396.148 239.89 396.684 239.385 397.382 238.812C398.476 237.916 399.21 237.208 399.585 236.687C399.971 236.166 400.164 235.671 400.164 235.203C400.164 234.713 399.986 234.302 399.632 233.968C399.289 233.635 398.841 233.468 398.289 233.468C397.695 233.468 397.216 233.645 396.851 234C396.497 234.354 396.32 234.848 396.32 235.484L395.054 235.343C395.137 234.406 395.46 233.692 396.023 233.203C396.596 232.703 397.356 232.453 398.304 232.453C399.273 232.453 400.033 232.718 400.585 233.25C401.148 233.781 401.429 234.442 401.429 235.234C401.429 235.64 401.346 236.036 401.179 236.421C401.023 236.807 400.752 237.213 400.367 237.64C399.992 238.067 399.361 238.656 398.476 239.406C397.736 240.02 397.262 240.442 397.054 240.671C396.846 240.89 396.674 241.109 396.539 241.328H401.445ZM402.976 237.578C402.976 236.39 403.096 235.437 403.335 234.718C403.585 233.989 403.95 233.432 404.429 233.046C404.908 232.651 405.512 232.453 406.242 232.453C406.783 232.453 407.257 232.562 407.664 232.781C408.07 233 408.403 233.312 408.664 233.718C408.934 234.125 409.143 234.619 409.289 235.203C409.434 235.786 409.507 236.578 409.507 237.578C409.507 238.755 409.387 239.703 409.148 240.421C408.908 241.14 408.549 241.697 408.07 242.093C407.591 242.489 406.981 242.687 406.242 242.687C405.283 242.687 404.528 242.338 403.976 241.64C403.309 240.807 402.976 239.453 402.976 237.578ZM404.242 237.578C404.242 239.223 404.434 240.317 404.82 240.859C405.205 241.401 405.679 241.671 406.242 241.671C406.815 241.671 407.294 241.401 407.679 240.859C408.065 240.307 408.257 239.213 408.257 237.578C408.257 235.921 408.065 234.822 407.679 234.281C407.294 233.739 406.809 233.468 406.226 233.468C405.664 233.468 405.216 233.708 404.882 234.187C404.455 234.802 404.242 235.932 404.242 237.578ZM417.445 241.328V242.515H410.82C410.809 242.223 410.856 241.937 410.96 241.656C411.137 241.208 411.408 240.765 411.773 240.328C412.148 239.89 412.684 239.385 413.382 238.812C414.476 237.916 415.21 237.208 415.585 236.687C415.971 236.166 416.164 235.671 416.164 235.203C416.164 234.713 415.986 234.302 415.632 233.968C415.289 233.635 414.841 233.468 414.289 233.468C413.695 233.468 413.216 233.645 412.851 234C412.497 234.354 412.32 234.848 412.32 235.484L411.054 235.343C411.137 234.406 411.46 233.692 412.023 233.203C412.596 232.703 413.356 232.453 414.304 232.453C415.273 232.453 416.033 232.718 416.585 233.25C417.148 233.781 417.429 234.442 417.429 235.234C417.429 235.64 417.346 236.036 417.179 236.421C417.023 236.807 416.752 237.213 416.367 237.64C415.992 238.067 415.361 238.656 414.476 239.406C413.736 240.02 413.262 240.442 413.054 240.671C412.846 240.89 412.674 241.109 412.539 241.328H417.445ZM423.617 242.515H422.382V234.671C422.091 234.953 421.7 235.239 421.21 235.531C420.731 235.812 420.304 236.02 419.929 236.156V234.968C420.617 234.645 421.216 234.255 421.726 233.796C422.247 233.338 422.611 232.89 422.82 232.453H423.617V242.515ZM426.835 240.343L428.039 240.156C428.111 240.645 428.304 241.02 428.617 241.281C428.929 241.541 429.367 241.671 429.929 241.671C430.492 241.671 430.908 241.557 431.179 241.328C431.46 241.098 431.601 240.828 431.601 240.515C431.601 240.234 431.476 240.015 431.226 239.859C431.059 239.744 430.643 239.604 429.976 239.437C429.07 239.208 428.44 239.01 428.085 238.843C427.742 238.677 427.481 238.447 427.304 238.156C427.127 237.864 427.039 237.541 427.039 237.187C427.039 236.864 427.111 236.567 427.257 236.296C427.403 236.015 427.606 235.781 427.867 235.593C428.054 235.458 428.309 235.343 428.632 235.25C428.966 235.145 429.325 235.093 429.71 235.093C430.273 235.093 430.768 235.177 431.195 235.343C431.632 235.5 431.955 235.718 432.164 236C432.372 236.281 432.512 236.656 432.585 237.125L431.382 237.296C431.33 236.921 431.169 236.63 430.898 236.421C430.637 236.213 430.268 236.109 429.789 236.109C429.226 236.109 428.825 236.203 428.585 236.39C428.346 236.567 428.226 236.786 428.226 237.046C428.226 237.203 428.273 237.343 428.367 237.468C428.471 237.604 428.632 237.713 428.851 237.796C428.966 237.838 429.325 237.942 429.929 238.109C430.804 238.348 431.414 238.541 431.757 238.687C432.101 238.833 432.367 239.046 432.554 239.328C432.752 239.609 432.851 239.958 432.851 240.375C432.851 240.791 432.731 241.182 432.492 241.546C432.262 241.901 431.919 242.182 431.46 242.39C431.012 242.588 430.502 242.687 429.929 242.687C428.992 242.687 428.273 242.489 427.773 242.093C427.283 241.697 426.971 241.114 426.835 240.343Z" fill="black"/>
<path d="M287.546 327.597V328.784H280.921C280.911 328.493 280.958 328.206 281.062 327.925C281.239 327.477 281.51 327.034 281.874 326.597C282.249 326.159 282.786 325.654 283.484 325.081C284.578 324.185 285.312 323.477 285.687 322.956C286.072 322.435 286.265 321.94 286.265 321.472C286.265 320.982 286.088 320.571 285.734 320.237C285.39 319.904 284.942 319.737 284.39 319.737C283.796 319.737 283.317 319.914 282.953 320.269C282.598 320.623 282.421 321.118 282.421 321.753L281.156 321.612C281.239 320.675 281.562 319.961 282.124 319.472C282.697 318.972 283.458 318.722 284.406 318.722C285.374 318.722 286.135 318.987 286.687 319.519C287.249 320.05 287.531 320.711 287.531 321.503C287.531 321.909 287.447 322.305 287.281 322.69C287.124 323.076 286.854 323.482 286.468 323.909C286.093 324.336 285.463 324.925 284.578 325.675C283.838 326.289 283.364 326.711 283.156 326.94C282.947 327.159 282.776 327.378 282.64 327.597H287.546ZM289.078 323.847C289.078 322.659 289.197 321.706 289.437 320.987C289.687 320.258 290.052 319.701 290.531 319.315C291.01 318.92 291.614 318.722 292.343 318.722C292.885 318.722 293.359 318.831 293.765 319.05C294.171 319.269 294.505 319.581 294.765 319.987C295.036 320.394 295.244 320.888 295.39 321.472C295.536 322.055 295.609 322.847 295.609 323.847C295.609 325.024 295.489 325.972 295.249 326.69C295.01 327.409 294.651 327.966 294.171 328.362C293.692 328.758 293.083 328.956 292.343 328.956C291.385 328.956 290.63 328.607 290.078 327.909C289.411 327.076 289.078 325.722 289.078 323.847ZM290.343 323.847C290.343 325.493 290.536 326.586 290.921 327.128C291.307 327.67 291.781 327.94 292.343 327.94C292.916 327.94 293.395 327.67 293.781 327.128C294.166 326.576 294.359 325.482 294.359 323.847C294.359 322.19 294.166 321.091 293.781 320.55C293.395 320.008 292.911 319.737 292.328 319.737C291.765 319.737 291.317 319.977 290.984 320.456C290.557 321.071 290.343 322.201 290.343 323.847ZM303.546 327.597V328.784H296.921C296.911 328.493 296.958 328.206 297.062 327.925C297.239 327.477 297.51 327.034 297.874 326.597C298.249 326.159 298.786 325.654 299.484 325.081C300.578 324.185 301.312 323.477 301.687 322.956C302.072 322.435 302.265 321.94 302.265 321.472C302.265 320.982 302.088 320.571 301.734 320.237C301.39 319.904 300.942 319.737 300.39 319.737C299.796 319.737 299.317 319.914 298.953 320.269C298.598 320.623 298.421 321.118 298.421 321.753L297.156 321.612C297.239 320.675 297.562 319.961 298.124 319.472C298.697 318.972 299.458 318.722 300.406 318.722C301.374 318.722 302.135 318.987 302.687 319.519C303.249 320.05 303.531 320.711 303.531 321.503C303.531 321.909 303.447 322.305 303.281 322.69C303.124 323.076 302.854 323.482 302.468 323.909C302.093 324.336 301.463 324.925 300.578 325.675C299.838 326.289 299.364 326.711 299.156 326.94C298.947 327.159 298.776 327.378 298.64 327.597H303.546ZM311.546 327.597V328.784H304.921C304.911 328.493 304.958 328.206 305.062 327.925C305.239 327.477 305.51 327.034 305.874 326.597C306.249 326.159 306.786 325.654 307.484 325.081C308.578 324.185 309.312 323.477 309.687 322.956C310.072 322.435 310.265 321.94 310.265 321.472C310.265 320.982 310.088 320.571 309.734 320.237C309.39 319.904 308.942 319.737 308.39 319.737C307.796 319.737 307.317 319.914 306.953 320.269C306.598 320.623 306.421 321.118 306.421 321.753L305.156 321.612C305.239 320.675 305.562 319.961 306.124 319.472C306.697 318.972 307.458 318.722 308.406 318.722C309.374 318.722 310.135 318.987 310.687 319.519C311.249 320.05 311.531 320.711 311.531 321.503C311.531 321.909 311.447 322.305 311.281 322.69C311.124 323.076 310.854 323.482 310.468 323.909C310.093 324.336 309.463 324.925 308.578 325.675C307.838 326.289 307.364 326.711 307.156 326.94C306.947 327.159 306.776 327.378 306.64 327.597H311.546ZM312.937 326.612L314.14 326.425C314.213 326.914 314.406 327.289 314.718 327.55C315.031 327.81 315.468 327.94 316.031 327.94C316.593 327.94 317.01 327.826 317.281 327.597C317.562 327.368 317.703 327.097 317.703 326.784C317.703 326.503 317.578 326.284 317.328 326.128C317.161 326.013 316.744 325.873 316.078 325.706C315.171 325.477 314.541 325.279 314.187 325.112C313.843 324.946 313.583 324.716 313.406 324.425C313.229 324.133 313.14 323.81 313.14 323.456C313.14 323.133 313.213 322.836 313.359 322.565C313.505 322.284 313.708 322.05 313.968 321.862C314.156 321.727 314.411 321.612 314.734 321.519C315.067 321.414 315.427 321.362 315.812 321.362C316.374 321.362 316.869 321.446 317.296 321.612C317.734 321.769 318.057 321.987 318.265 322.269C318.473 322.55 318.614 322.925 318.687 323.394L317.484 323.565C317.432 323.19 317.27 322.899 316.999 322.69C316.739 322.482 316.369 322.378 315.89 322.378C315.328 322.378 314.927 322.472 314.687 322.659C314.447 322.836 314.328 323.055 314.328 323.315C314.328 323.472 314.374 323.612 314.468 323.737C314.572 323.873 314.734 323.982 314.953 324.065C315.067 324.107 315.427 324.211 316.031 324.378C316.906 324.618 317.515 324.81 317.859 324.956C318.203 325.102 318.468 325.315 318.656 325.597C318.854 325.878 318.953 326.227 318.953 326.644C318.953 327.06 318.833 327.451 318.593 327.815C318.364 328.17 318.02 328.451 317.562 328.659C317.114 328.857 316.604 328.956 316.031 328.956C315.093 328.956 314.374 328.758 313.874 328.362C313.385 327.966 313.072 327.383 312.937 326.612Z" fill="white"/>
<path d="M173.65 137.297V138.485H167.025C167.014 138.193 167.061 137.907 167.165 137.625C167.343 137.178 167.613 136.735 167.978 136.297C168.353 135.86 168.889 135.355 169.587 134.782C170.681 133.886 171.415 133.178 171.79 132.657C172.176 132.136 172.369 131.641 172.369 131.172C172.369 130.683 172.192 130.271 171.837 129.938C171.494 129.605 171.046 129.438 170.494 129.438C169.9 129.438 169.421 129.615 169.056 129.969C168.702 130.323 168.525 130.818 168.525 131.454L167.259 131.313C167.343 130.375 167.665 129.662 168.228 129.172C168.801 128.672 169.561 128.422 170.509 128.422C171.478 128.422 172.238 128.688 172.79 129.219C173.353 129.75 173.634 130.412 173.634 131.204C173.634 131.61 173.551 132.006 173.384 132.391C173.228 132.777 172.957 133.183 172.572 133.61C172.197 134.037 171.567 134.625 170.681 135.375C169.942 135.99 169.468 136.412 169.259 136.641C169.051 136.86 168.879 137.079 168.744 137.297H173.65ZM175.181 133.547C175.181 132.36 175.301 131.407 175.54 130.688C175.79 129.959 176.155 129.402 176.634 129.016C177.113 128.62 177.718 128.422 178.447 128.422C178.988 128.422 179.462 128.532 179.869 128.75C180.275 128.969 180.608 129.282 180.869 129.688C181.139 130.094 181.348 130.589 181.494 131.172C181.639 131.756 181.712 132.547 181.712 133.547C181.712 134.724 181.593 135.672 181.353 136.391C181.113 137.11 180.754 137.667 180.275 138.063C179.796 138.459 179.186 138.657 178.447 138.657C177.488 138.657 176.733 138.308 176.181 137.61C175.514 136.777 175.181 135.422 175.181 133.547ZM176.447 133.547C176.447 135.193 176.639 136.287 177.025 136.829C177.41 137.37 177.884 137.641 178.447 137.641C179.02 137.641 179.499 137.37 179.884 136.829C180.27 136.277 180.462 135.183 180.462 133.547C180.462 131.891 180.27 130.792 179.884 130.25C179.499 129.709 179.014 129.438 178.431 129.438C177.869 129.438 177.421 129.678 177.087 130.157C176.66 130.771 176.447 131.902 176.447 133.547ZM189.65 137.297V138.485H183.025C183.014 138.193 183.061 137.907 183.165 137.625C183.343 137.178 183.613 136.735 183.978 136.297C184.353 135.86 184.889 135.355 185.587 134.782C186.681 133.886 187.415 133.178 187.79 132.657C188.176 132.136 188.369 131.641 188.369 131.172C188.369 130.683 188.192 130.271 187.837 129.938C187.494 129.605 187.046 129.438 186.494 129.438C185.9 129.438 185.421 129.615 185.056 129.969C184.702 130.323 184.525 130.818 184.525 131.454L183.259 131.313C183.343 130.375 183.665 129.662 184.228 129.172C184.801 128.672 185.561 128.422 186.509 128.422C187.478 128.422 188.238 128.688 188.79 129.219C189.353 129.75 189.634 130.412 189.634 131.204C189.634 131.61 189.551 132.006 189.384 132.391C189.228 132.777 188.957 133.183 188.572 133.61C188.197 134.037 187.567 134.625 186.681 135.375C185.942 135.99 185.468 136.412 185.259 136.641C185.051 136.86 184.879 137.079 184.744 137.297H189.65ZM191.197 135.844L192.415 135.672C192.561 136.37 192.801 136.875 193.134 137.188C193.478 137.49 193.895 137.641 194.384 137.641C194.968 137.641 195.457 137.443 195.853 137.047C196.249 136.641 196.447 136.141 196.447 135.547C196.447 134.985 196.259 134.521 195.884 134.157C195.52 133.792 195.056 133.61 194.494 133.61C194.254 133.61 193.962 133.652 193.619 133.735L193.759 132.657C193.843 132.667 193.905 132.672 193.947 132.672C194.478 132.672 194.952 132.537 195.369 132.266C195.785 131.995 195.994 131.573 195.994 131C195.994 130.553 195.843 130.183 195.54 129.891C195.238 129.589 194.843 129.438 194.353 129.438C193.874 129.438 193.473 129.589 193.15 129.891C192.837 130.183 192.634 130.631 192.54 131.235L191.322 131.016C191.468 130.193 191.806 129.558 192.337 129.11C192.869 128.652 193.53 128.422 194.322 128.422C194.874 128.422 195.379 128.542 195.837 128.782C196.296 129.011 196.645 129.329 196.884 129.735C197.134 130.141 197.259 130.573 197.259 131.032C197.259 131.459 197.145 131.849 196.915 132.204C196.686 132.558 196.343 132.844 195.884 133.063C196.478 133.198 196.936 133.48 197.259 133.907C197.593 134.334 197.759 134.875 197.759 135.532C197.759 136.407 197.436 137.146 196.79 137.75C196.155 138.355 195.353 138.657 194.384 138.657C193.499 138.657 192.764 138.396 192.181 137.875C191.608 137.355 191.28 136.678 191.197 135.844ZM199.04 136.313L200.244 136.125C200.317 136.615 200.509 136.99 200.822 137.25C201.134 137.511 201.572 137.641 202.134 137.641C202.697 137.641 203.113 137.527 203.384 137.297C203.665 137.068 203.806 136.797 203.806 136.485C203.806 136.204 203.681 135.985 203.431 135.829C203.264 135.714 202.848 135.573 202.181 135.407C201.275 135.178 200.645 134.98 200.29 134.813C199.947 134.646 199.686 134.417 199.509 134.125C199.332 133.834 199.244 133.511 199.244 133.157C199.244 132.834 199.317 132.537 199.462 132.266C199.608 131.985 199.811 131.75 200.072 131.563C200.259 131.428 200.514 131.313 200.837 131.219C201.171 131.115 201.53 131.063 201.915 131.063C202.478 131.063 202.973 131.146 203.4 131.313C203.837 131.469 204.16 131.688 204.369 131.969C204.577 132.25 204.718 132.625 204.79 133.094L203.587 133.266C203.535 132.891 203.374 132.599 203.103 132.391C202.843 132.183 202.473 132.079 201.994 132.079C201.431 132.079 201.03 132.172 200.79 132.36C200.551 132.537 200.431 132.756 200.431 133.016C200.431 133.172 200.478 133.313 200.572 133.438C200.676 133.573 200.837 133.683 201.056 133.766C201.171 133.808 201.53 133.912 202.134 134.079C203.009 134.318 203.619 134.511 203.962 134.657C204.306 134.803 204.572 135.016 204.759 135.297C204.957 135.579 205.056 135.928 205.056 136.344C205.056 136.761 204.936 137.152 204.697 137.516C204.468 137.87 204.124 138.152 203.665 138.36C203.218 138.558 202.707 138.657 202.134 138.657C201.197 138.657 200.478 138.459 199.978 138.063C199.488 137.667 199.176 137.084 199.04 136.313Z" fill="white"/>
<g clip-path="url(#clip1_1751_519)">
<path d="M0 0H600V371H0V0Z" fill="#1A1B1F"/>
<path d="M300 18.55C348.315 18.55 394.249 39.5749 425.889 76.1711C457.528 112.767 471.755 161.329 464.879 209.26L382.44 197.38C385.878 173.414 378.764 149.134 362.944 130.836C347.125 112.537 324.157 102.025 300 102.025V18.55Z" fill="#FFAB62"/>
<path d="M464.88 209.259C460.336 240.939 446.801 270.641 425.89 294.829L362.945 240.164C373.401 228.071 380.168 213.219 382.441 197.38L464.88 209.259Z" fill="#F3882B"/>
<path d="M174.112 294.829C131.406 245.432 121.388 175.601 148.479 116.147C175.57 56.6918 234.787 18.55 300.001 18.55V102.025C267.394 102.025 237.786 121.096 224.24 150.823C210.695 180.551 215.703 215.466 237.057 240.165L174.112 294.829Z" fill="#CE5700"/>
<path d="M425.889 294.829C394.249 331.425 348.315 352.45 300 352.45C251.685 352.45 205.751 331.425 174.111 294.829L237.056 240.165C252.875 258.463 275.843 268.975 300 268.975C324.157 268.975 347.125 258.463 362.944 240.165L425.889 294.829Z" fill="#FF7700"/>
<path d="M381.226 109.387V111.255H370.78C370.769 110.782 370.844 110.333 371.005 109.906C371.27 109.191 371.695 108.487 372.283 107.795C372.87 107.102 373.716 106.301 374.821 105.389C376.547 103.982 377.71 102.869 378.308 102.05C378.918 101.219 379.223 100.435 379.223 99.6963C379.223 98.9234 378.947 98.2716 378.394 97.741C377.842 97.2103 377.123 96.945 376.236 96.945C375.304 96.945 374.556 97.2276 373.992 97.7929C373.428 98.3581 373.146 99.1368 373.146 100.129L371.143 99.9213C371.281 98.4331 371.793 97.2968 372.68 96.5124C373.577 95.7279 374.78 95.3357 376.288 95.3357C377.796 95.3357 378.993 95.7568 379.879 96.5989C380.765 97.441 381.209 98.485 381.209 99.7309C381.209 100.365 381.076 100.994 380.812 101.617C380.558 102.228 380.132 102.875 379.534 103.555C378.935 104.224 377.94 105.153 376.547 106.341C375.373 107.322 374.619 107.985 374.285 108.331C373.963 108.677 373.693 109.029 373.474 109.387H381.226ZM383.177 103.434C383.177 101.565 383.367 100.06 383.747 98.9176C384.138 97.764 384.713 96.8815 385.473 96.2701C386.233 95.6472 387.188 95.3357 388.339 95.3357C389.191 95.3357 389.933 95.5087 390.566 95.8548C391.211 96.1894 391.74 96.6796 392.155 97.3257C392.569 97.9717 392.897 98.7619 393.139 99.6963C393.381 100.619 393.501 101.865 393.501 103.434C393.501 105.291 393.306 106.791 392.914 107.933C392.535 109.075 391.965 109.963 391.205 110.598C390.457 111.221 389.502 111.532 388.339 111.532C386.808 111.532 385.611 110.984 384.748 109.888C383.701 108.562 383.177 106.41 383.177 103.434ZM385.18 103.434C385.18 106.041 385.479 107.777 386.077 108.643C386.687 109.496 387.441 109.923 388.339 109.923C389.225 109.923 389.974 109.49 390.584 108.625C391.194 107.76 391.499 106.03 391.499 103.434C391.499 100.827 391.194 99.0965 390.584 98.2428C389.974 97.3776 389.22 96.945 388.322 96.945C387.424 96.945 386.71 97.3257 386.181 98.087C385.513 99.0445 385.18 100.827 385.18 103.434ZM405.535 109.387V111.255H395.09C395.078 110.782 395.153 110.333 395.314 109.906C395.579 109.191 396.005 108.487 396.592 107.795C397.179 107.102 398.025 106.301 399.13 105.389C400.856 103.982 402.019 102.869 402.617 102.05C403.228 101.219 403.533 100.435 403.533 99.6963C403.533 98.9234 403.256 98.2716 402.704 97.741C402.151 97.2103 401.432 96.945 400.546 96.945C399.613 96.945 398.865 97.2276 398.301 97.7929C397.737 98.3581 397.455 99.1368 397.455 100.129L395.452 99.9213C395.591 98.4331 396.103 97.2968 396.989 96.5124C397.887 95.7279 399.09 95.3357 400.597 95.3357C402.105 95.3357 403.302 95.7568 404.189 96.5989C405.075 97.441 405.518 98.485 405.518 99.7309C405.518 100.365 405.386 100.994 405.121 101.617C404.868 102.228 404.442 102.875 403.843 103.555C403.245 104.224 402.249 105.153 400.856 106.341C399.682 107.322 398.928 107.985 398.595 108.331C398.272 108.677 398.002 109.029 397.783 109.387H405.535ZM407.486 103.434C407.486 101.565 407.676 100.06 408.056 98.9176C408.447 97.764 409.023 96.8815 409.783 96.2701C410.542 95.6472 411.498 95.3357 412.649 95.3357C413.5 95.3357 414.243 95.5087 414.876 95.8548C415.52 96.1894 416.05 96.6796 416.464 97.3257C416.879 97.9717 417.207 98.7619 417.448 99.6963C417.69 100.619 417.811 101.865 417.811 103.434C417.811 105.291 417.615 106.791 417.224 107.933C416.844 109.075 416.274 109.963 415.515 110.598C414.766 111.221 413.811 111.532 412.649 111.532C411.118 111.532 409.921 110.984 409.057 109.888C408.01 108.562 407.486 106.41 407.486 103.434ZM409.489 103.434C409.489 106.041 409.788 107.777 410.387 108.643C410.997 109.496 411.751 109.923 412.649 109.923C413.535 109.923 414.283 109.49 414.893 108.625C415.503 107.76 415.808 106.03 415.808 103.434C415.808 100.827 415.503 99.0965 414.893 98.2428C414.283 97.3776 413.529 96.945 412.631 96.945C411.733 96.945 411.02 97.3257 410.49 98.087C409.823 99.0445 409.489 100.827 409.489 103.434Z" fill="black"/>
<path d="M400.45 243.399V245.267H390.005C389.994 244.794 390.068 244.345 390.23 243.918C390.494 243.202 390.92 242.499 391.507 241.807C392.094 241.114 392.94 240.313 394.045 239.401C395.772 237.994 396.934 236.881 397.533 236.062C398.143 235.231 398.448 234.447 398.448 233.708C398.448 232.935 398.171 232.284 397.619 231.753C397.067 231.222 396.347 230.957 395.461 230.957C394.529 230.957 393.78 231.24 393.216 231.805C392.652 232.37 392.37 233.149 392.37 234.141L390.368 233.933C390.506 232.445 391.018 231.309 391.904 230.524C392.802 229.74 394.005 229.348 395.513 229.348C397.02 229.348 398.218 229.769 399.104 230.611C399.99 231.453 400.433 232.497 400.433 233.743C400.433 234.377 400.301 235.006 400.036 235.629C399.783 236.24 399.357 236.886 398.759 237.567C398.16 238.236 397.164 239.165 395.772 240.353C394.598 241.334 393.844 241.997 393.51 242.343C393.188 242.689 392.917 243.041 392.698 243.399H400.45ZM402.401 237.446C402.401 235.577 402.591 234.072 402.971 232.93C403.363 231.776 403.938 230.893 404.698 230.282C405.457 229.659 406.413 229.348 407.564 229.348C408.416 229.348 409.158 229.521 409.791 229.867C410.436 230.201 410.965 230.692 411.379 231.338C411.794 231.984 412.122 232.774 412.363 233.708C412.605 234.631 412.726 235.877 412.726 237.446C412.726 239.303 412.53 240.803 412.139 241.945C411.759 243.087 411.189 243.975 410.43 244.61C409.682 245.233 408.726 245.544 407.564 245.544C406.033 245.544 404.836 244.996 403.973 243.9C402.925 242.574 402.401 240.422 402.401 237.446ZM404.404 237.446C404.404 240.053 404.703 241.789 405.302 242.655C405.912 243.508 406.666 243.935 407.564 243.935C408.45 243.935 409.198 243.502 409.808 242.637C410.418 241.772 410.723 240.042 410.723 237.446C410.723 234.839 410.418 233.108 409.808 232.255C409.198 231.39 408.444 230.957 407.546 230.957C406.649 230.957 405.935 231.338 405.406 232.099C404.738 233.056 404.404 234.839 404.404 237.446ZM424.76 243.399V245.267H414.314C414.303 244.794 414.378 244.345 414.539 243.918C414.804 243.202 415.229 242.499 415.817 241.807C416.404 241.114 417.25 240.313 418.355 239.401C420.081 237.994 421.244 236.881 421.842 236.062C422.452 235.231 422.757 234.447 422.757 233.708C422.757 232.935 422.481 232.284 421.928 231.753C421.376 231.222 420.657 230.957 419.77 230.957C418.838 230.957 418.09 231.24 417.526 231.805C416.962 232.37 416.68 233.149 416.68 234.141L414.677 233.933C414.815 232.445 415.327 231.309 416.214 230.524C417.111 229.74 418.314 229.348 419.822 229.348C421.33 229.348 422.527 229.769 423.413 230.611C424.299 231.453 424.743 232.497 424.743 233.743C424.743 234.377 424.61 235.006 424.346 235.629C424.092 236.24 423.666 236.886 423.068 237.567C422.469 238.236 421.474 239.165 420.081 240.353C418.907 241.334 418.153 241.997 417.819 242.343C417.497 242.689 417.227 243.041 417.008 243.399H424.76ZM434.031 245.267H432.08V232.86C431.62 233.31 431.01 233.76 430.25 234.21C429.491 234.648 428.806 234.983 428.196 235.214V233.328C429.289 232.82 430.239 232.203 431.044 231.476C431.862 230.738 432.437 230.028 432.771 229.348H434.031V245.267Z" fill="black"/>
<path d="M286.81 323.221V325.09H276.364C276.353 324.617 276.428 324.167 276.589 323.74C276.854 323.025 277.279 322.322 277.867 321.629C278.454 320.937 279.3 320.135 280.404 319.224C282.131 317.817 283.294 316.703 283.892 315.884C284.502 315.054 284.807 314.269 284.807 313.531C284.807 312.758 284.531 312.106 283.978 311.576C283.426 311.045 282.707 310.78 281.82 310.78C280.888 310.78 280.14 311.062 279.576 311.628C279.012 312.193 278.73 312.972 278.73 313.964L276.727 313.756C276.865 312.268 277.377 311.132 278.264 310.347C279.161 309.563 280.364 309.17 281.872 309.17C283.38 309.17 284.577 309.591 285.463 310.434C286.349 311.276 286.793 312.32 286.793 313.566C286.793 314.2 286.66 314.829 286.396 315.452C286.142 316.063 285.716 316.709 285.118 317.39C284.519 318.059 283.524 318.988 282.131 320.176C280.957 321.156 280.203 321.82 279.869 322.166C279.547 322.512 279.276 322.864 279.058 323.221H286.81ZM288.761 317.269C288.761 315.4 288.951 313.894 289.331 312.752C289.722 311.599 290.297 310.716 291.057 310.105C291.817 309.482 292.772 309.17 293.923 309.17C294.775 309.17 295.517 309.343 296.15 309.69C296.795 310.024 297.324 310.514 297.739 311.16C298.153 311.806 298.481 312.597 298.723 313.531C298.965 314.454 299.085 315.7 299.085 317.269C299.085 319.126 298.89 320.626 298.498 321.768C298.119 322.91 297.549 323.798 296.789 324.433C296.041 325.056 295.086 325.367 293.923 325.367C292.392 325.367 291.195 324.819 290.332 323.723C289.285 322.397 288.761 320.245 288.761 317.269ZM290.764 317.269C290.764 319.876 291.063 321.612 291.661 322.477C292.271 323.331 293.025 323.758 293.923 323.758C294.809 323.758 295.558 323.325 296.168 322.46C296.778 321.595 297.083 319.864 297.083 317.269C297.083 314.662 296.778 312.931 296.168 312.077C295.558 311.212 294.804 310.78 293.906 310.78C293.008 310.78 292.294 311.16 291.765 311.922C291.097 312.879 290.764 314.662 290.764 317.269ZM311.119 323.221V325.09H300.674C300.662 324.617 300.737 324.167 300.898 323.74C301.163 323.025 301.589 322.322 302.176 321.629C302.763 320.937 303.609 320.135 304.714 319.224C306.44 317.817 307.603 316.703 308.201 315.884C308.811 315.054 309.117 314.269 309.117 313.531C309.117 312.758 308.84 312.106 308.288 311.576C307.735 311.045 307.016 310.78 306.13 310.78C305.197 310.78 304.449 311.062 303.885 311.628C303.321 312.193 303.039 312.972 303.039 313.964L301.036 313.756C301.175 312.268 301.687 311.132 302.573 310.347C303.471 309.563 304.674 309.17 306.181 309.17C307.689 309.17 308.886 309.591 309.773 310.434C310.659 311.276 311.102 312.32 311.102 313.566C311.102 314.2 310.97 314.829 310.705 315.452C310.452 316.063 310.026 316.709 309.427 317.39C308.829 318.059 307.833 318.988 306.44 320.176C305.266 321.156 304.512 321.82 304.179 322.166C303.856 322.512 303.586 322.864 303.367 323.221H311.119ZM323.274 323.221V325.09H312.829C312.817 324.617 312.892 324.167 313.053 323.74C313.318 323.025 313.744 322.322 314.331 321.629C314.918 320.937 315.764 320.135 316.869 319.224C318.595 317.817 319.758 316.703 320.356 315.884C320.966 315.054 321.271 314.269 321.271 313.531C321.271 312.758 320.995 312.106 320.442 311.576C319.89 311.045 319.171 310.78 318.284 310.78C317.352 310.78 316.604 311.062 316.04 311.628C315.476 312.193 315.194 312.972 315.194 313.964L313.191 313.756C313.329 312.268 313.841 311.132 314.728 310.347C315.625 309.563 316.828 309.17 318.336 309.17C319.844 309.17 321.041 309.591 321.927 310.434C322.814 311.276 323.257 312.32 323.257 313.566C323.257 314.2 323.124 314.829 322.86 315.452C322.606 316.063 322.181 316.709 321.582 317.39C320.983 318.059 319.988 318.988 318.595 320.176C317.421 321.156 316.667 321.82 316.333 322.166C316.011 322.512 315.741 322.864 315.522 323.221H323.274Z" fill="white"/>
<path d="M173.167 139.368V141.237H162.722C162.71 140.764 162.785 140.314 162.946 139.887C163.211 139.172 163.637 138.469 164.224 137.776C164.811 137.084 165.657 136.282 166.762 135.371C168.488 133.964 169.651 132.85 170.249 132.031C170.86 131.201 171.165 130.416 171.165 129.678C171.165 128.905 170.888 128.253 170.336 127.723C169.783 127.192 169.064 126.927 168.178 126.927C167.245 126.927 166.497 127.209 165.933 127.775C165.369 128.34 165.087 129.119 165.087 130.111L163.084 129.903C163.223 128.415 163.735 127.279 164.621 126.494C165.519 125.71 166.722 125.317 168.229 125.317C169.737 125.317 170.934 125.738 171.821 126.581C172.707 127.423 173.15 128.467 173.15 129.713C173.15 130.347 173.018 130.976 172.753 131.599C172.5 132.21 172.074 132.856 171.475 133.537C170.877 134.206 169.881 135.135 168.488 136.323C167.314 137.303 166.56 137.967 166.227 138.313C165.904 138.659 165.634 139.011 165.415 139.368H173.167ZM175.118 133.416C175.118 131.547 175.308 130.041 175.688 128.899C176.079 127.746 176.655 126.863 177.415 126.252C178.174 125.629 179.13 125.317 180.281 125.317C181.132 125.317 181.875 125.49 182.508 125.837C183.152 126.171 183.682 126.661 184.096 127.307C184.511 127.953 184.839 128.744 185.08 129.678C185.322 130.601 185.443 131.847 185.443 133.416C185.443 135.273 185.247 136.773 184.856 137.915C184.476 139.057 183.906 139.945 183.147 140.58C182.398 141.203 181.443 141.514 180.281 141.514C178.75 141.514 177.553 140.966 176.689 139.87C175.642 138.543 175.118 136.392 175.118 133.416ZM177.121 133.416C177.121 136.023 177.42 137.759 178.019 138.624C178.629 139.478 179.383 139.905 180.281 139.905C181.167 139.905 181.915 139.472 182.525 138.607C183.135 137.742 183.44 136.011 183.44 133.416C183.44 130.809 183.135 129.078 182.525 128.224C181.915 127.359 181.161 126.927 180.263 126.927C179.366 126.927 178.652 127.307 178.122 128.069C177.455 129.026 177.121 130.809 177.121 133.416ZM197.477 139.368V141.237H187.031C187.02 140.764 187.095 140.314 187.256 139.887C187.52 139.172 187.946 138.469 188.533 137.776C189.12 137.084 189.966 136.282 191.071 135.371C192.798 133.964 193.96 132.85 194.559 132.031C195.169 131.201 195.474 130.416 195.474 129.678C195.474 128.905 195.198 128.253 194.645 127.723C194.093 127.192 193.373 126.927 192.487 126.927C191.555 126.927 190.807 127.209 190.243 127.775C189.679 128.34 189.397 129.119 189.397 130.111L187.394 129.903C187.532 128.415 188.044 127.279 188.93 126.494C189.828 125.71 191.031 125.317 192.539 125.317C194.047 125.317 195.244 125.738 196.13 126.581C197.016 127.423 197.459 128.467 197.459 129.713C197.459 130.347 197.327 130.976 197.062 131.599C196.809 132.21 196.383 132.856 195.785 133.537C195.186 134.206 194.191 135.135 192.798 136.323C191.624 137.303 190.87 137.967 190.536 138.313C190.214 138.659 189.943 139.011 189.725 139.368H197.477ZM199.445 137.05L201.379 136.79C201.609 137.897 201.989 138.693 202.518 139.178C203.059 139.662 203.715 139.905 204.486 139.905C205.396 139.905 206.161 139.588 206.783 138.953C207.416 138.319 207.732 137.534 207.732 136.6C207.732 135.7 207.439 134.962 206.852 134.385C206.276 133.808 205.54 133.52 204.642 133.52C204.273 133.52 203.819 133.589 203.278 133.727L203.485 132.014C203.612 132.037 203.715 132.049 203.796 132.049C204.624 132.049 205.367 131.835 206.023 131.408C206.691 130.97 207.024 130.301 207.024 129.401C207.024 128.686 206.783 128.092 206.299 127.619C205.816 127.146 205.194 126.909 204.435 126.909C203.686 126.909 203.059 127.152 202.553 127.636C202.046 128.109 201.724 128.819 201.586 129.765L199.635 129.418C199.877 128.115 200.418 127.105 201.258 126.39C202.098 125.675 203.145 125.317 204.4 125.317C205.263 125.317 206.057 125.502 206.783 125.871C207.508 126.24 208.06 126.748 208.44 127.394C208.831 128.04 209.027 128.721 209.027 129.436C209.027 130.116 208.843 130.739 208.475 131.305C208.106 131.87 207.565 132.32 206.852 132.654C207.784 132.862 208.509 133.312 209.027 134.004C209.545 134.685 209.804 135.533 209.804 136.548C209.804 137.932 209.298 139.109 208.285 140.078C207.283 141.035 206.011 141.514 204.469 141.514C203.076 141.514 201.92 141.099 200.999 140.268C200.089 139.438 199.572 138.365 199.445 137.05Z" fill="white"/>
</g>
</g>
<defs>
<clipPath id="clip0_1751_519">
<rect width="600" height="371" fill="white"/>
</clipPath>
<clipPath id="clip1_1751_519">
<rect width="600" height="371" fill="white"/>
</clipPath>
</defs>
</svg>
