<svg width="600" height="371" viewBox="0 0 600 371" fill="none" xmlns="http://www.w3.org/2000/svg">
<g clip-path="url(#clip0_1654_191)">
<path d="M0 0H600V371H0V0Z" fill="#1A1B1F"/>
<path d="M45.5 325.5H581.5" stroke="#E7E7E8" stroke-miterlimit="10"/>
<path d="M45.5 265.5H581.5" stroke="#4D4E51" stroke-miterlimit="10"/>
<path d="M45.5 205.5H581.5" stroke="#4D4E51" stroke-miterlimit="10"/>
<path d="M45.5 145.5H581.5" stroke="#4D4E51" stroke-miterlimit="10"/>
<path d="M45.5 85.5H581.5" stroke="#4D4E51" stroke-miterlimit="10"/>
<path d="M45.5 25.5H581.5" stroke="#4D4E51" stroke-miterlimit="10"/>
<mask id="mask0_1654_191" style="mask-type:luminance" maskUnits="userSpaceOnUse" x="45" y="25" width="537" height="301">
<path d="M45.5498 25.55H581.45V325.45H45.5498V25.55Z" fill="white"/>
</mask>
<g mask="url(#mask0_1654_191)">
<path d="M131 325H76V267C76 265.895 76.8954 265 78 265H129C130.105 265 131 265.895 131 267V325Z" fill="#F4CCCC"/>
</g>
<mask id="mask1_1654_191" style="mask-type:luminance" maskUnits="userSpaceOnUse" x="45" y="25" width="537" height="301">
<path d="M45.5498 25.55H581.45V325.45H45.5498V25.55Z" fill="white"/>
</mask>
<g mask="url(#mask1_1654_191)">
<path d="M215 325H160V88C160 86.8954 160.895 86 162 86H213C214.105 86 215 86.8954 215 88V325Z" fill="#EA9999"/>
</g>
<mask id="mask2_1654_191" style="mask-type:luminance" maskUnits="userSpaceOnUse" x="45" y="25" width="537" height="301">
<path d="M45.5498 25.55H581.45V325.45H45.5498V25.55Z" fill="white"/>
</mask>
<g mask="url(#mask2_1654_191)">
<path d="M299 325H244V207C244 205.895 244.895 205 246 205H297C298.105 205 299 205.895 299 207V325Z" fill="#E06666"/>
</g>
<mask id="mask3_1654_191" style="mask-type:luminance" maskUnits="userSpaceOnUse" x="45" y="25" width="537" height="301">
<path d="M45.5498 25.55H581.45V325.45H45.5498V25.55Z" fill="white"/>
</mask>
<g mask="url(#mask3_1654_191)">
<path d="M384 325H329V28C329 26.8954 329.895 26 331 26H382C383.105 26 384 26.8954 384 28V325Z" fill="#CC0000"/>
</g>
<mask id="mask4_1654_191" style="mask-type:luminance" maskUnits="userSpaceOnUse" x="45" y="25" width="537" height="301">
<path d="M45.5498 25.55H581.45V325.45H45.5498V25.55Z" fill="white"/>
</mask>
<g mask="url(#mask4_1654_191)">
<path d="M468 325H413V267C413 265.895 413.895 265 415 265H466C467.105 265 468 265.895 468 267V325Z" fill="#990000"/>
</g>
<mask id="mask5_1654_191" style="mask-type:luminance" maskUnits="userSpaceOnUse" x="45" y="25" width="537" height="301">
<path d="M45.5498 25.55H581.45V325.45H45.5498V25.55Z" fill="white"/>
</mask>
<g mask="url(#mask5_1654_191)">
<path d="M552 325H497V267C497 265.895 497.895 265 499 265H550C551.105 265 552 265.895 552 267V325Z" fill="#660000"/>
</g>
<path d="M33.0498 325.216C33.0498 324.195 33.154 323.377 33.3623 322.763C33.5706 322.138 33.8779 321.659 34.2842 321.325C34.7008 320.992 35.2217 320.825 35.8467 320.825C36.305 320.825 36.7061 320.919 37.0498 321.106C37.404 321.294 37.6956 321.565 37.9248 321.919C38.154 322.263 38.3311 322.685 38.4561 323.185C38.5811 323.685 38.6436 324.362 38.6436 325.216C38.6436 326.226 38.5394 327.039 38.3311 327.653C38.1331 328.268 37.8258 328.747 37.4092 329.091C37.0029 329.424 36.4821 329.591 35.8467 329.591C35.0238 329.591 34.3727 329.294 33.8936 328.7C33.3311 327.992 33.0498 326.83 33.0498 325.216ZM34.1279 325.216C34.1279 326.622 34.2946 327.56 34.6279 328.028C34.9613 328.497 35.3675 328.731 35.8467 328.731C36.3363 328.731 36.7425 328.497 37.0654 328.028C37.3988 327.56 37.5654 326.622 37.5654 325.216C37.5654 323.799 37.3988 322.862 37.0654 322.403C36.7425 321.935 36.3311 321.7 35.8311 321.7C35.3519 321.7 34.9665 321.903 34.6748 322.31C34.3102 322.83 34.1279 323.799 34.1279 325.216Z" fill="white"/>
<path d="M37.0186 269.47H35.9717V262.751C35.7113 262.991 35.3727 263.236 34.9561 263.486C34.5498 263.725 34.1852 263.902 33.8623 264.017V263.001C34.4456 262.72 34.9561 262.387 35.3936 262.001C35.8415 261.605 36.1592 261.22 36.3467 260.845H37.0186V269.47Z" fill="white"/>
<path d="M38.5967 208.474V209.49H32.9092C32.9092 209.24 32.9508 208.995 33.0342 208.756C33.18 208.37 33.4092 207.99 33.7217 207.615C34.0446 207.24 34.5081 206.808 35.1123 206.318C36.0498 205.547 36.68 204.938 37.0029 204.49C37.3363 204.042 37.5029 203.62 37.5029 203.224C37.5029 202.808 37.3519 202.459 37.0498 202.177C36.7477 201.886 36.3571 201.74 35.8779 201.74C35.3675 201.74 34.9613 201.891 34.6592 202.193C34.3571 202.495 34.2008 202.917 34.1904 203.459L33.1123 203.349C33.1852 202.537 33.4613 201.922 33.9404 201.506C34.43 201.079 35.0863 200.865 35.9092 200.865C36.7321 200.865 37.3831 201.094 37.8623 201.552C38.3415 202.011 38.5811 202.579 38.5811 203.256C38.5811 203.599 38.5081 203.938 38.3623 204.271C38.2269 204.594 37.9925 204.943 37.6592 205.318C37.3363 205.683 36.7998 206.183 36.0498 206.818C35.4144 207.349 35.0029 207.714 34.8154 207.912C34.6383 208.099 34.4925 208.287 34.3779 208.474H38.5967Z" fill="white"/>
<path d="M33.0498 147.244L34.1123 147.104C34.2269 147.698 34.43 148.13 34.7217 148.401C35.0133 148.661 35.3675 148.791 35.7842 148.791C36.2842 148.791 36.7061 148.619 37.0498 148.276C37.3936 147.932 37.5654 147.505 37.5654 146.994C37.5654 146.515 37.404 146.119 37.0811 145.807C36.7686 145.484 36.3675 145.323 35.8779 145.323C35.68 145.323 35.43 145.364 35.1279 145.448L35.2529 144.51C35.3258 144.52 35.3831 144.526 35.4248 144.526C35.8727 144.526 36.2738 144.411 36.6279 144.182C36.9925 143.942 37.1748 143.578 37.1748 143.088C37.1748 142.703 37.0446 142.385 36.7842 142.135C36.5238 141.875 36.1852 141.744 35.7686 141.744C35.3623 141.744 35.0186 141.875 34.7373 142.135C34.4665 142.395 34.2946 142.781 34.2217 143.291L33.1592 143.104C33.2842 142.406 33.5758 141.864 34.0342 141.479C34.4925 141.083 35.0602 140.885 35.7373 140.885C36.2061 140.885 36.6383 140.989 37.0342 141.198C37.43 141.395 37.7321 141.666 37.9404 142.01C38.1488 142.354 38.2529 142.724 38.2529 143.119C38.2529 143.484 38.154 143.823 37.9561 144.135C37.7581 144.437 37.4665 144.677 37.0811 144.854C37.5811 144.968 37.9717 145.213 38.2529 145.588C38.5342 145.953 38.6748 146.416 38.6748 146.979C38.6748 147.729 38.3988 148.364 37.8467 148.885C37.305 149.406 36.6175 149.666 35.7842 149.666C35.0342 149.666 34.4092 149.442 33.9092 148.994C33.4092 148.536 33.1227 147.953 33.0498 147.244Z" fill="white"/>
<path d="M36.4248 89.53V87.4675H32.7061V86.4988L36.6279 80.9363H37.4873V86.4988H38.6436V87.4675H37.4873V89.53H36.4248ZM36.4248 86.4988V82.6394L33.7373 86.4988H36.4248Z" fill="white"/>
<path d="M33.0498 27.3L34.1592 27.2063C34.2425 27.748 34.43 28.1542 34.7217 28.425C35.0238 28.6959 35.3883 28.8313 35.8154 28.8313C36.3154 28.8313 36.7425 28.6386 37.0967 28.2532C37.4508 27.8678 37.6279 27.3625 37.6279 26.7375C37.6279 26.1334 37.4561 25.6594 37.1123 25.3157C36.779 24.9615 36.3363 24.7844 35.7842 24.7844C35.4508 24.7844 35.1436 24.8625 34.8623 25.0188C34.5915 25.175 34.3779 25.373 34.2217 25.6125L33.2373 25.4875L34.0654 21.0813H38.3467V22.0813H34.9092L34.4561 24.3938C34.9665 24.0292 35.5029 23.8469 36.0654 23.8469C36.8154 23.8469 37.4456 24.1073 37.9561 24.6282C38.4769 25.149 38.7373 25.8209 38.7373 26.6438C38.7373 27.4146 38.5133 28.0865 38.0654 28.6594C37.5133 29.3469 36.7633 29.6907 35.8154 29.6907C35.0342 29.6907 34.3936 29.4719 33.8936 29.0344C33.404 28.5969 33.1227 28.0188 33.0498 27.3Z" fill="white"/>
<path d="M81.2969 348.45V336.997H82.8125V341.7H88.7656V336.997H90.2812V348.45H88.7656V343.044H82.8125V348.45H81.2969ZM91.5469 344.294C91.5469 342.763 91.974 341.627 92.8281 340.888C93.5469 340.273 94.4167 339.966 95.4375 339.966C96.5833 339.966 97.5156 340.341 98.2344 341.091C98.9635 341.83 99.3281 342.862 99.3281 344.185C99.3281 345.247 99.1667 346.086 98.8438 346.7C98.5208 347.315 98.0521 347.794 97.4375 348.138C96.8333 348.471 96.1667 348.638 95.4375 348.638C94.2813 348.638 93.3438 348.268 92.625 347.528C91.9063 346.778 91.5469 345.7 91.5469 344.294ZM93 344.294C93 345.356 93.2292 346.153 93.6875 346.685C94.1563 347.216 94.7396 347.481 95.4375 347.481C96.1354 347.481 96.7135 347.216 97.1719 346.685C97.6406 346.153 97.875 345.341 97.875 344.247C97.875 343.226 97.6406 342.45 97.1719 341.919C96.7135 341.388 96.1354 341.122 95.4375 341.122C94.7396 341.122 94.1563 341.388 93.6875 341.919C93.2292 342.44 93 343.231 93 344.294ZM106.516 348.45V347.231C105.87 348.169 104.99 348.638 103.875 348.638C103.385 348.638 102.927 348.544 102.5 348.356C102.083 348.169 101.771 347.935 101.562 347.653C101.354 347.362 101.208 347.013 101.125 346.606C101.073 346.325 101.047 345.888 101.047 345.294V340.153H102.453V344.747C102.453 345.487 102.479 345.981 102.531 346.231C102.625 346.606 102.813 346.898 103.094 347.106C103.385 347.315 103.74 347.419 104.156 347.419C104.583 347.419 104.979 347.315 105.344 347.106C105.719 346.888 105.979 346.591 106.125 346.216C106.281 345.841 106.359 345.299 106.359 344.591V340.153H107.766V348.45H106.516ZM108.516 345.966L109.906 345.747C109.979 346.31 110.193 346.742 110.547 347.044C110.911 347.336 111.411 347.481 112.047 347.481C112.693 347.481 113.172 347.351 113.484 347.091C113.797 346.82 113.953 346.507 113.953 346.153C113.953 345.841 113.818 345.591 113.547 345.403C113.349 345.278 112.87 345.122 112.109 344.935C111.078 344.674 110.359 344.45 109.953 344.263C109.557 344.065 109.255 343.799 109.047 343.466C108.849 343.132 108.75 342.763 108.75 342.356C108.75 341.981 108.833 341.638 109 341.325C109.167 341.013 109.396 340.752 109.688 340.544C109.906 340.377 110.203 340.242 110.578 340.138C110.964 340.023 111.37 339.966 111.797 339.966C112.453 339.966 113.026 340.06 113.516 340.247C114.005 340.435 114.365 340.69 114.594 341.013C114.833 341.325 115 341.752 115.094 342.294L113.719 342.481C113.656 342.054 113.474 341.721 113.172 341.481C112.87 341.242 112.448 341.122 111.906 341.122C111.26 341.122 110.797 341.231 110.516 341.45C110.245 341.659 110.109 341.903 110.109 342.185C110.109 342.372 110.167 342.539 110.281 342.685C110.396 342.83 110.573 342.955 110.812 343.06C110.958 343.112 111.375 343.231 112.062 343.419C113.052 343.679 113.745 343.898 114.141 344.075C114.536 344.242 114.844 344.487 115.062 344.81C115.292 345.132 115.406 345.534 115.406 346.013C115.406 346.481 115.266 346.924 114.984 347.341C114.714 347.747 114.318 348.065 113.797 348.294C113.286 348.523 112.708 348.638 112.062 348.638C110.979 348.638 110.156 348.414 109.594 347.966C109.031 347.518 108.672 346.851 108.516 345.966ZM122.75 345.778L124.203 345.95C123.974 346.804 123.547 347.466 122.922 347.935C122.307 348.403 121.521 348.638 120.562 348.638C119.344 348.638 118.38 348.263 117.672 347.513C116.964 346.763 116.609 345.716 116.609 344.372C116.609 342.976 116.969 341.893 117.688 341.122C118.406 340.351 119.339 339.966 120.484 339.966C121.589 339.966 122.49 340.346 123.188 341.106C123.896 341.856 124.25 342.914 124.25 344.278C124.25 344.362 124.25 344.487 124.25 344.653H118.062C118.115 345.57 118.37 346.273 118.828 346.763C119.297 347.242 119.875 347.481 120.562 347.481C121.083 347.481 121.526 347.346 121.891 347.075C122.255 346.804 122.542 346.372 122.75 345.778ZM118.141 343.497H122.766C122.703 342.799 122.526 342.278 122.234 341.935C121.786 341.393 121.208 341.122 120.5 341.122C119.854 341.122 119.307 341.341 118.859 341.778C118.422 342.205 118.182 342.778 118.141 343.497Z" fill="white"/>
<path d="M159.19 348.45V336.997H160.706V341.7H166.659V336.997H168.175V348.45H166.659V343.044H160.706V348.45H159.19ZM169.972 338.606V336.997H171.378V338.606H169.972ZM169.972 348.45V340.153H171.378V348.45H169.972ZM173.972 351.638V340.153H175.253V341.231C175.555 340.804 175.894 340.487 176.269 340.278C176.654 340.07 177.118 339.966 177.659 339.966C178.368 339.966 178.993 340.148 179.534 340.513C180.076 340.877 180.482 341.393 180.753 342.06C181.034 342.716 181.175 343.44 181.175 344.231C181.175 345.086 181.019 345.851 180.706 346.528C180.404 347.205 179.961 347.726 179.378 348.091C178.805 348.455 178.196 348.638 177.55 348.638C177.081 348.638 176.659 348.539 176.284 348.341C175.92 348.143 175.618 347.893 175.378 347.591V351.638H173.972ZM175.237 344.341C175.237 345.414 175.451 346.205 175.878 346.716C176.315 347.226 176.841 347.481 177.456 347.481C178.081 347.481 178.618 347.216 179.065 346.685C179.513 346.153 179.737 345.336 179.737 344.231C179.737 343.169 179.519 342.377 179.081 341.856C178.644 341.325 178.123 341.06 177.519 341.06C176.925 341.06 176.394 341.341 175.925 341.903C175.466 342.466 175.237 343.278 175.237 344.341ZM182.425 345.013V343.591H186.737V345.013H182.425ZM188.19 348.45V336.997H189.706V341.7H195.659V336.997H197.175V348.45H195.659V343.044H189.706V348.45H188.19ZM198.44 344.294C198.44 342.763 198.868 341.627 199.722 340.888C200.44 340.273 201.31 339.966 202.331 339.966C203.477 339.966 204.409 340.341 205.128 341.091C205.857 341.83 206.222 342.862 206.222 344.185C206.222 345.247 206.06 346.086 205.737 346.7C205.414 347.315 204.946 347.794 204.331 348.138C203.727 348.471 203.06 348.638 202.331 348.638C201.175 348.638 200.237 348.268 199.519 347.528C198.8 346.778 198.44 345.7 198.44 344.294ZM199.894 344.294C199.894 345.356 200.123 346.153 200.581 346.685C201.05 347.216 201.633 347.481 202.331 347.481C203.029 347.481 203.607 347.216 204.065 346.685C204.534 346.153 204.769 345.341 204.769 344.247C204.769 343.226 204.534 342.45 204.065 341.919C203.607 341.388 203.029 341.122 202.331 341.122C201.633 341.122 201.05 341.388 200.581 341.919C200.123 342.44 199.894 343.231 199.894 344.294ZM207.972 351.638V340.153H209.253V341.231C209.555 340.804 209.894 340.487 210.269 340.278C210.654 340.07 211.118 339.966 211.659 339.966C212.368 339.966 212.993 340.148 213.534 340.513C214.076 340.877 214.482 341.393 214.753 342.06C215.034 342.716 215.175 343.44 215.175 344.231C215.175 345.086 215.019 345.851 214.706 346.528C214.404 347.205 213.961 347.726 213.378 348.091C212.805 348.455 212.196 348.638 211.55 348.638C211.081 348.638 210.659 348.539 210.284 348.341C209.92 348.143 209.618 347.893 209.378 347.591V351.638H207.972ZM209.237 344.341C209.237 345.414 209.451 346.205 209.878 346.716C210.315 347.226 210.841 347.481 211.456 347.481C212.081 347.481 212.618 347.216 213.065 346.685C213.513 346.153 213.737 345.336 213.737 344.231C213.737 343.169 213.519 342.377 213.081 341.856C212.644 341.325 212.123 341.06 211.519 341.06C210.925 341.06 210.394 341.341 209.925 341.903C209.466 342.466 209.237 343.278 209.237 344.341Z" fill="white"/>
<path d="M254.568 348.45V336.997H259.646C260.667 336.997 261.443 337.101 261.975 337.31C262.506 337.507 262.928 337.867 263.24 338.388C263.563 338.909 263.725 339.487 263.725 340.122C263.725 340.935 263.459 341.622 262.928 342.185C262.407 342.737 261.594 343.086 260.49 343.231C260.897 343.429 261.204 343.622 261.412 343.81C261.85 344.216 262.266 344.721 262.662 345.325L264.662 348.45H262.756L261.24 346.06C260.792 345.372 260.423 344.846 260.131 344.481C259.85 344.117 259.594 343.862 259.365 343.716C259.147 343.57 258.917 343.471 258.678 343.419C258.511 343.377 258.23 343.356 257.834 343.356H256.084V348.45H254.568ZM256.084 342.044H259.334C260.032 342.044 260.574 341.976 260.959 341.841C261.355 341.695 261.652 341.466 261.85 341.153C262.058 340.83 262.162 340.487 262.162 340.122C262.162 339.58 261.964 339.138 261.568 338.794C261.173 338.44 260.553 338.263 259.709 338.263H256.084V342.044ZM264.834 344.294C264.834 342.763 265.261 341.627 266.115 340.888C266.834 340.273 267.704 339.966 268.725 339.966C269.87 339.966 270.803 340.341 271.521 341.091C272.251 341.83 272.615 342.862 272.615 344.185C272.615 345.247 272.454 346.086 272.131 346.7C271.808 347.315 271.339 347.794 270.725 348.138C270.12 348.471 269.454 348.638 268.725 348.638C267.568 348.638 266.631 348.268 265.912 347.528C265.193 346.778 264.834 345.7 264.834 344.294ZM266.287 344.294C266.287 345.356 266.516 346.153 266.975 346.685C267.443 347.216 268.027 347.481 268.725 347.481C269.423 347.481 270.001 347.216 270.459 346.685C270.928 346.153 271.162 345.341 271.162 344.247C271.162 343.226 270.928 342.45 270.459 341.919C270.001 341.388 269.423 341.122 268.725 341.122C268.027 341.122 267.443 341.388 266.975 341.919C266.516 342.44 266.287 343.231 266.287 344.294ZM279.771 345.403L281.162 345.591C281.006 346.539 280.615 347.284 279.99 347.825C279.376 348.367 278.615 348.638 277.709 348.638C276.574 348.638 275.657 348.268 274.959 347.528C274.272 346.778 273.928 345.711 273.928 344.325C273.928 343.429 274.074 342.648 274.365 341.981C274.667 341.304 275.12 340.799 275.725 340.466C276.339 340.132 277.001 339.966 277.709 339.966C278.615 339.966 279.355 340.195 279.928 340.653C280.501 341.101 280.865 341.747 281.021 342.591L279.662 342.794C279.527 342.242 279.292 341.825 278.959 341.544C278.636 341.263 278.24 341.122 277.771 341.122C277.063 341.122 276.485 341.377 276.037 341.888C275.6 342.388 275.381 343.19 275.381 344.294C275.381 345.409 275.594 346.221 276.021 346.731C276.449 347.231 277.006 347.481 277.693 347.481C278.245 347.481 278.704 347.315 279.068 346.981C279.443 346.638 279.678 346.112 279.771 345.403ZM282.365 348.45V336.997H283.771V343.528L287.1 340.153H288.928L285.756 343.231L289.24 348.45H287.506L284.771 344.2L283.771 345.153V348.45H282.365Z" fill="white"/>
<path d="M317.963 348.45V336.997H326.244V338.341H319.479V341.856H325.822V343.2H319.479V347.091H326.51V348.45H317.963ZM328.729 348.45V336.997H330.135V348.45H328.729ZM337.432 345.778L338.885 345.95C338.656 346.804 338.229 347.466 337.604 347.935C336.989 348.403 336.202 348.638 335.244 348.638C334.025 348.638 333.062 348.263 332.354 347.513C331.645 346.763 331.291 345.716 331.291 344.372C331.291 342.976 331.65 341.893 332.369 341.122C333.088 340.351 334.02 339.966 335.166 339.966C336.27 339.966 337.171 340.346 337.869 341.106C338.577 341.856 338.932 342.914 338.932 344.278C338.932 344.362 338.932 344.487 338.932 344.653H332.744C332.796 345.57 333.051 346.273 333.51 346.763C333.979 347.242 334.557 347.481 335.244 347.481C335.765 347.481 336.208 347.346 336.572 347.075C336.937 346.804 337.223 346.372 337.432 345.778ZM332.822 343.497H337.447C337.385 342.799 337.208 342.278 336.916 341.935C336.468 341.393 335.89 341.122 335.182 341.122C334.536 341.122 333.989 341.341 333.541 341.778C333.104 342.205 332.864 342.778 332.822 343.497ZM346.166 345.403L347.557 345.591C347.4 346.539 347.01 347.284 346.385 347.825C345.77 348.367 345.01 348.638 344.104 348.638C342.968 348.638 342.051 348.268 341.354 347.528C340.666 346.778 340.322 345.711 340.322 344.325C340.322 343.429 340.468 342.648 340.76 341.981C341.062 341.304 341.515 340.799 342.119 340.466C342.734 340.132 343.395 339.966 344.104 339.966C345.01 339.966 345.749 340.195 346.322 340.653C346.895 341.101 347.26 341.747 347.416 342.591L346.057 342.794C345.921 342.242 345.687 341.825 345.354 341.544C345.031 341.263 344.635 341.122 344.166 341.122C343.458 341.122 342.88 341.377 342.432 341.888C341.994 342.388 341.775 343.19 341.775 344.294C341.775 345.409 341.989 346.221 342.416 346.731C342.843 347.231 343.4 347.481 344.088 347.481C344.64 347.481 345.098 347.315 345.463 346.981C345.838 346.638 346.072 346.112 346.166 345.403ZM351.822 347.185L352.025 348.435C351.63 348.518 351.275 348.56 350.963 348.56C350.452 348.56 350.057 348.481 349.775 348.325C349.494 348.159 349.296 347.945 349.182 347.685C349.067 347.414 349.01 346.856 349.01 346.013V341.247H347.979V340.153H349.01V338.091L350.416 337.247V340.153H351.822V341.247H350.416V346.091C350.416 346.497 350.437 346.757 350.479 346.872C350.531 346.987 350.614 347.08 350.729 347.153C350.843 347.216 351.005 347.247 351.213 347.247C351.369 347.247 351.572 347.226 351.822 347.185ZM352.744 348.45V340.153H354.01V341.403C354.333 340.82 354.63 340.435 354.9 340.247C355.171 340.06 355.473 339.966 355.807 339.966C356.275 339.966 356.755 340.117 357.244 340.419L356.76 341.716C356.416 341.518 356.072 341.419 355.729 341.419C355.426 341.419 355.15 341.513 354.9 341.7C354.661 341.877 354.489 342.132 354.385 342.466C354.229 342.966 354.15 343.513 354.15 344.106V348.45H352.744ZM357.229 344.294C357.229 342.763 357.656 341.627 358.51 340.888C359.229 340.273 360.098 339.966 361.119 339.966C362.265 339.966 363.197 340.341 363.916 341.091C364.645 341.83 365.01 342.862 365.01 344.185C365.01 345.247 364.848 346.086 364.525 346.7C364.202 347.315 363.734 347.794 363.119 348.138C362.515 348.471 361.848 348.638 361.119 348.638C359.963 348.638 359.025 348.268 358.307 347.528C357.588 346.778 357.229 345.7 357.229 344.294ZM358.682 344.294C358.682 345.356 358.911 346.153 359.369 346.685C359.838 347.216 360.421 347.481 361.119 347.481C361.817 347.481 362.395 347.216 362.854 346.685C363.322 346.153 363.557 345.341 363.557 344.247C363.557 343.226 363.322 342.45 362.854 341.919C362.395 341.388 361.817 341.122 361.119 341.122C360.421 341.122 359.838 341.388 359.369 341.919C358.911 342.44 358.682 343.231 358.682 344.294ZM366.76 348.45V340.153H368.025V341.325C368.63 340.419 369.51 339.966 370.666 339.966C371.166 339.966 371.624 340.054 372.041 340.231C372.458 340.409 372.77 340.643 372.979 340.935C373.187 341.226 373.333 341.575 373.416 341.981C373.468 342.242 373.494 342.695 373.494 343.341V348.45H372.088V343.403C372.088 342.83 372.031 342.403 371.916 342.122C371.812 341.83 371.619 341.601 371.338 341.435C371.067 341.268 370.744 341.185 370.369 341.185C369.765 341.185 369.244 341.377 368.807 341.763C368.38 342.138 368.166 342.856 368.166 343.919V348.45H366.76ZM374.76 338.606V336.997H376.166V338.606H374.76ZM374.76 348.45V340.153H376.166V348.45H374.76ZM384.166 345.403L385.557 345.591C385.4 346.539 385.01 347.284 384.385 347.825C383.77 348.367 383.01 348.638 382.104 348.638C380.968 348.638 380.051 348.268 379.354 347.528C378.666 346.778 378.322 345.711 378.322 344.325C378.322 343.429 378.468 342.648 378.76 341.981C379.062 341.304 379.515 340.799 380.119 340.466C380.734 340.132 381.395 339.966 382.104 339.966C383.01 339.966 383.749 340.195 384.322 340.653C384.895 341.101 385.26 341.747 385.416 342.591L384.057 342.794C383.921 342.242 383.687 341.825 383.354 341.544C383.031 341.263 382.635 341.122 382.166 341.122C381.458 341.122 380.88 341.377 380.432 341.888C379.994 342.388 379.775 343.19 379.775 344.294C379.775 345.409 379.989 346.221 380.416 346.731C380.843 347.231 381.4 347.481 382.088 347.481C382.64 347.481 383.098 347.315 383.463 346.981C383.838 346.638 384.072 346.112 384.166 345.403ZM392.166 347.419C391.645 347.867 391.145 348.185 390.666 348.372C390.187 348.549 389.671 348.638 389.119 348.638C388.202 348.638 387.499 348.414 387.01 347.966C386.52 347.518 386.275 346.95 386.275 346.263C386.275 345.856 386.369 345.487 386.557 345.153C386.744 344.81 386.984 344.539 387.275 344.341C387.577 344.132 387.916 343.976 388.291 343.872C388.572 343.799 388.989 343.731 389.541 343.669C390.676 343.534 391.515 343.372 392.057 343.185C392.057 342.987 392.057 342.862 392.057 342.81C392.057 342.237 391.926 341.836 391.666 341.606C391.301 341.284 390.765 341.122 390.057 341.122C389.4 341.122 388.911 341.242 388.588 341.481C388.275 341.711 388.046 342.117 387.9 342.7L386.525 342.513C386.65 341.929 386.854 341.455 387.135 341.091C387.426 340.726 387.843 340.45 388.385 340.263C388.926 340.065 389.551 339.966 390.26 339.966C390.968 339.966 391.541 340.049 391.979 340.216C392.426 340.382 392.755 340.591 392.963 340.841C393.171 341.091 393.317 341.409 393.4 341.794C393.452 342.034 393.479 342.466 393.479 343.091V344.966C393.479 346.278 393.505 347.106 393.557 347.45C393.619 347.794 393.739 348.127 393.916 348.45H392.447C392.301 348.159 392.208 347.815 392.166 347.419ZM392.057 344.278C391.546 344.487 390.781 344.664 389.76 344.81C389.176 344.893 388.765 344.987 388.525 345.091C388.286 345.195 388.098 345.351 387.963 345.56C387.838 345.757 387.775 345.976 387.775 346.216C387.775 346.591 387.916 346.903 388.197 347.153C388.489 347.403 388.906 347.528 389.447 347.528C389.989 347.528 390.468 347.414 390.885 347.185C391.312 346.945 391.624 346.617 391.822 346.2C391.979 345.888 392.057 345.419 392.057 344.794V344.278Z" fill="white"/>
<path d="M409.325 348.45V336.997H413.653C414.414 336.997 414.992 337.034 415.388 337.106C415.95 337.2 416.419 337.377 416.794 337.638C417.179 337.898 417.487 338.268 417.716 338.747C417.955 339.216 418.075 339.737 418.075 340.31C418.075 341.278 417.763 342.101 417.138 342.778C416.523 343.455 415.403 343.794 413.778 343.794H410.841V348.45H409.325ZM410.841 342.435H413.81C414.789 342.435 415.481 342.252 415.888 341.888C416.304 341.523 416.513 341.013 416.513 340.356C416.513 339.877 416.388 339.466 416.138 339.122C415.898 338.778 415.58 338.554 415.185 338.45C414.935 338.377 414.466 338.341 413.778 338.341H410.841V342.435ZM419.622 344.294C419.622 342.763 420.049 341.627 420.903 340.888C421.622 340.273 422.492 339.966 423.513 339.966C424.659 339.966 425.591 340.341 426.31 341.091C427.039 341.83 427.403 342.862 427.403 344.185C427.403 345.247 427.242 346.086 426.919 346.7C426.596 347.315 426.127 347.794 425.513 348.138C424.909 348.471 424.242 348.638 423.513 348.638C422.356 348.638 421.419 348.268 420.7 347.528C419.981 346.778 419.622 345.7 419.622 344.294ZM421.075 344.294C421.075 345.356 421.304 346.153 421.763 346.685C422.231 347.216 422.815 347.481 423.513 347.481C424.211 347.481 424.789 347.216 425.247 346.685C425.716 346.153 425.95 345.341 425.95 344.247C425.95 343.226 425.716 342.45 425.247 341.919C424.789 341.388 424.211 341.122 423.513 341.122C422.815 341.122 422.231 341.388 421.763 341.919C421.304 342.44 421.075 343.231 421.075 344.294ZM429.153 351.638V340.153H430.435V341.231C430.737 340.804 431.075 340.487 431.45 340.278C431.836 340.07 432.299 339.966 432.841 339.966C433.549 339.966 434.174 340.148 434.716 340.513C435.257 340.877 435.664 341.393 435.935 342.06C436.216 342.716 436.356 343.44 436.356 344.231C436.356 345.086 436.2 345.851 435.888 346.528C435.586 347.205 435.143 347.726 434.56 348.091C433.987 348.455 433.377 348.638 432.731 348.638C432.263 348.638 431.841 348.539 431.466 348.341C431.101 348.143 430.799 347.893 430.56 347.591V351.638H429.153ZM430.419 344.341C430.419 345.414 430.632 346.205 431.06 346.716C431.497 347.226 432.023 347.481 432.638 347.481C433.263 347.481 433.799 347.216 434.247 346.685C434.695 346.153 434.919 345.336 434.919 344.231C434.919 343.169 434.7 342.377 434.263 341.856C433.825 341.325 433.304 341.06 432.7 341.06C432.106 341.06 431.575 341.341 431.106 341.903C430.648 342.466 430.419 343.278 430.419 344.341ZM437.606 345.013V343.591H441.919V345.013H437.606ZM443.138 348.45V340.153H444.403V341.403C444.726 340.82 445.023 340.435 445.294 340.247C445.565 340.06 445.867 339.966 446.2 339.966C446.669 339.966 447.148 340.117 447.638 340.419L447.153 341.716C446.81 341.518 446.466 341.419 446.122 341.419C445.82 341.419 445.544 341.513 445.294 341.7C445.054 341.877 444.882 342.132 444.778 342.466C444.622 342.966 444.544 343.513 444.544 344.106V348.45H443.138ZM447.622 344.294C447.622 342.763 448.049 341.627 448.903 340.888C449.622 340.273 450.492 339.966 451.513 339.966C452.659 339.966 453.591 340.341 454.31 341.091C455.039 341.83 455.403 342.862 455.403 344.185C455.403 345.247 455.242 346.086 454.919 346.7C454.596 347.315 454.127 347.794 453.513 348.138C452.909 348.471 452.242 348.638 451.513 348.638C450.356 348.638 449.419 348.268 448.7 347.528C447.981 346.778 447.622 345.7 447.622 344.294ZM449.075 344.294C449.075 345.356 449.304 346.153 449.763 346.685C450.231 347.216 450.815 347.481 451.513 347.481C452.211 347.481 452.789 347.216 453.247 346.685C453.716 346.153 453.95 345.341 453.95 344.247C453.95 343.226 453.716 342.45 453.247 341.919C452.789 341.388 452.211 341.122 451.513 341.122C450.815 341.122 450.231 341.388 449.763 341.919C449.304 342.44 449.075 343.231 449.075 344.294ZM462.56 345.403L463.95 345.591C463.794 346.539 463.403 347.284 462.778 347.825C462.164 348.367 461.403 348.638 460.497 348.638C459.362 348.638 458.445 348.268 457.747 347.528C457.06 346.778 456.716 345.711 456.716 344.325C456.716 343.429 456.862 342.648 457.153 341.981C457.455 341.304 457.909 340.799 458.513 340.466C459.127 340.132 459.789 339.966 460.497 339.966C461.403 339.966 462.143 340.195 462.716 340.653C463.289 341.101 463.653 341.747 463.81 342.591L462.45 342.794C462.315 342.242 462.08 341.825 461.747 341.544C461.424 341.263 461.028 341.122 460.56 341.122C459.851 341.122 459.273 341.377 458.825 341.888C458.388 342.388 458.169 343.19 458.169 344.294C458.169 345.409 458.382 346.221 458.81 346.731C459.237 347.231 459.794 347.481 460.481 347.481C461.034 347.481 461.492 347.315 461.856 346.981C462.231 346.638 462.466 346.112 462.56 345.403ZM465.153 348.45V336.997H466.56V343.528L469.888 340.153H471.716L468.544 343.231L472.028 348.45H470.294L467.56 344.2L466.56 345.153V348.45H465.153Z" fill="white"/>
<path d="M487.75 348.45V336.997H496.031V338.341H489.266V341.856H495.609V343.2H489.266V347.091H496.297V348.45H487.75ZM498.516 348.45V336.997H499.922V348.45H498.516ZM507.219 345.778L508.672 345.95C508.443 346.804 508.016 347.466 507.391 347.935C506.776 348.403 505.99 348.638 505.031 348.638C503.812 348.638 502.849 348.263 502.141 347.513C501.432 346.763 501.078 345.716 501.078 344.372C501.078 342.976 501.437 341.893 502.156 341.122C502.875 340.351 503.807 339.966 504.953 339.966C506.057 339.966 506.958 340.346 507.656 341.106C508.365 341.856 508.719 342.914 508.719 344.278C508.719 344.362 508.719 344.487 508.719 344.653H502.531C502.583 345.57 502.839 346.273 503.297 346.763C503.766 347.242 504.344 347.481 505.031 347.481C505.552 347.481 505.995 347.346 506.359 347.075C506.724 346.804 507.01 346.372 507.219 345.778ZM502.609 343.497H507.234C507.172 342.799 506.995 342.278 506.703 341.935C506.255 341.393 505.677 341.122 504.969 341.122C504.323 341.122 503.776 341.341 503.328 341.778C502.891 342.205 502.651 342.778 502.609 343.497ZM515.953 345.403L517.344 345.591C517.188 346.539 516.797 347.284 516.172 347.825C515.557 348.367 514.797 348.638 513.891 348.638C512.755 348.638 511.839 348.268 511.141 347.528C510.453 346.778 510.109 345.711 510.109 344.325C510.109 343.429 510.255 342.648 510.547 341.981C510.849 341.304 511.302 340.799 511.906 340.466C512.521 340.132 513.182 339.966 513.891 339.966C514.797 339.966 515.536 340.195 516.109 340.653C516.682 341.101 517.047 341.747 517.203 342.591L515.844 342.794C515.708 342.242 515.474 341.825 515.141 341.544C514.818 341.263 514.422 341.122 513.953 341.122C513.245 341.122 512.667 341.377 512.219 341.888C511.781 342.388 511.562 343.19 511.562 344.294C511.562 345.409 511.776 346.221 512.203 346.731C512.63 347.231 513.187 347.481 513.875 347.481C514.427 347.481 514.885 347.315 515.25 346.981C515.625 346.638 515.859 346.112 515.953 345.403ZM521.609 347.185L521.812 348.435C521.417 348.518 521.062 348.56 520.75 348.56C520.24 348.56 519.844 348.481 519.562 348.325C519.281 348.159 519.083 347.945 518.969 347.685C518.854 347.414 518.797 346.856 518.797 346.013V341.247H517.766V340.153H518.797V338.091L520.203 337.247V340.153H521.609V341.247H520.203V346.091C520.203 346.497 520.224 346.757 520.266 346.872C520.318 346.987 520.401 347.08 520.516 347.153C520.63 347.216 520.792 347.247 521 347.247C521.156 347.247 521.359 347.226 521.609 347.185ZM522.531 348.45V340.153H523.797V341.403C524.12 340.82 524.417 340.435 524.688 340.247C524.958 340.06 525.26 339.966 525.594 339.966C526.063 339.966 526.542 340.117 527.031 340.419L526.547 341.716C526.203 341.518 525.859 341.419 525.516 341.419C525.214 341.419 524.938 341.513 524.688 341.7C524.448 341.877 524.276 342.132 524.172 342.466C524.016 342.966 523.938 343.513 523.938 344.106V348.45H522.531ZM527.016 344.294C527.016 342.763 527.443 341.627 528.297 340.888C529.016 340.273 529.885 339.966 530.906 339.966C532.052 339.966 532.984 340.341 533.703 341.091C534.432 341.83 534.797 342.862 534.797 344.185C534.797 345.247 534.635 346.086 534.312 346.7C533.99 347.315 533.521 347.794 532.906 348.138C532.302 348.471 531.635 348.638 530.906 348.638C529.75 348.638 528.813 348.268 528.094 347.528C527.375 346.778 527.016 345.7 527.016 344.294ZM528.469 344.294C528.469 345.356 528.698 346.153 529.156 346.685C529.625 347.216 530.208 347.481 530.906 347.481C531.604 347.481 532.182 347.216 532.641 346.685C533.109 346.153 533.344 345.341 533.344 344.247C533.344 343.226 533.109 342.45 532.641 341.919C532.182 341.388 531.604 341.122 530.906 341.122C530.208 341.122 529.625 341.388 529.156 341.919C528.698 342.44 528.469 343.231 528.469 344.294ZM536.547 351.638V340.153H537.828V341.231C538.13 340.804 538.469 340.487 538.844 340.278C539.229 340.07 539.693 339.966 540.234 339.966C540.943 339.966 541.568 340.148 542.109 340.513C542.651 340.877 543.057 341.393 543.328 342.06C543.609 342.716 543.75 343.44 543.75 344.231C543.75 345.086 543.594 345.851 543.281 346.528C542.979 347.205 542.536 347.726 541.953 348.091C541.38 348.455 540.771 348.638 540.125 348.638C539.656 348.638 539.234 348.539 538.859 348.341C538.495 348.143 538.193 347.893 537.953 347.591V351.638H536.547ZM537.812 344.341C537.812 345.414 538.026 346.205 538.453 346.716C538.891 347.226 539.417 347.481 540.031 347.481C540.656 347.481 541.193 347.216 541.641 346.685C542.089 346.153 542.312 345.336 542.312 344.231C542.312 343.169 542.094 342.377 541.656 341.856C541.219 341.325 540.698 341.06 540.094 341.06C539.5 341.06 538.969 341.341 538.5 341.903C538.042 342.466 537.812 343.278 537.812 344.341ZM545.016 344.294C545.016 342.763 545.443 341.627 546.297 340.888C547.016 340.273 547.885 339.966 548.906 339.966C550.052 339.966 550.984 340.341 551.703 341.091C552.432 341.83 552.797 342.862 552.797 344.185C552.797 345.247 552.635 346.086 552.312 346.7C551.99 347.315 551.521 347.794 550.906 348.138C550.302 348.471 549.635 348.638 548.906 348.638C547.75 348.638 546.813 348.268 546.094 347.528C545.375 346.778 545.016 345.7 545.016 344.294ZM546.469 344.294C546.469 345.356 546.698 346.153 547.156 346.685C547.625 347.216 548.208 347.481 548.906 347.481C549.604 347.481 550.182 347.216 550.641 346.685C551.109 346.153 551.344 345.341 551.344 344.247C551.344 343.226 551.109 342.45 550.641 341.919C550.182 341.388 549.604 341.122 548.906 341.122C548.208 341.122 547.625 341.388 547.156 341.919C546.698 342.44 546.469 343.231 546.469 344.294ZM554.547 351.638V340.153H555.828V341.231C556.13 340.804 556.469 340.487 556.844 340.278C557.229 340.07 557.693 339.966 558.234 339.966C558.943 339.966 559.568 340.148 560.109 340.513C560.651 340.877 561.057 341.393 561.328 342.06C561.609 342.716 561.75 343.44 561.75 344.231C561.75 345.086 561.594 345.851 561.281 346.528C560.979 347.205 560.536 347.726 559.953 348.091C559.38 348.455 558.771 348.638 558.125 348.638C557.656 348.638 557.234 348.539 556.859 348.341C556.495 348.143 556.193 347.893 555.953 347.591V351.638H554.547ZM555.812 344.341C555.812 345.414 556.026 346.205 556.453 346.716C556.891 347.226 557.417 347.481 558.031 347.481C558.656 347.481 559.193 347.216 559.641 346.685C560.089 346.153 560.312 345.336 560.312 344.231C560.312 343.169 560.094 342.377 559.656 341.856C559.219 341.325 558.698 341.06 558.094 341.06C557.5 341.06 556.969 341.341 556.5 341.903C556.042 342.466 555.812 343.278 555.812 344.341Z" fill="white"/>
</g>
<defs>
<clipPath id="clip0_1654_191">
<rect width="600" height="371" fill="white"/>
</clipPath>
</defs>
</svg>
