<svg width="600" height="371" viewBox="0 0 600 371" fill="none" xmlns="http://www.w3.org/2000/svg">
<g clip-path="url(#clip0_1745_437)">
<path d="M0 0H600V371H0V0Z" fill="#1A1B1F"/>
<path d="M300 18.55C354.866 18.55 406.23 45.5078 437.397 90.6616L368.699 138.081C353.115 115.504 327.433 102.025 300 102.025V18.55Z" fill="#EAD1DC"/>
<path d="M437.398 90.6616C452.752 112.906 462.475 138.545 465.733 165.376L382.867 175.438C381.238 162.022 376.376 149.203 368.699 138.081L437.398 90.6616Z" fill="#D5A6BD"/>
<path d="M465.733 165.376C468.991 192.208 465.686 219.429 456.101 244.701L378.051 215.101C382.843 202.465 384.496 188.854 382.867 175.438L465.733 165.376Z" fill="#C27BA0"/>
<path d="M456.101 244.701C436.645 296.002 393.225 334.468 339.953 347.599L319.977 266.549C346.612 259.984 368.322 240.751 378.05 215.101L456.101 244.701Z" fill="#A64D79"/>
<path d="M222.414 37.6732C246.347 25.1124 272.971 18.55 300 18.55V102.025C286.485 102.025 273.173 105.306 261.207 111.587L222.414 37.6732Z" fill="#D5A6BD"/>
<path d="M134.268 165.376C140.881 110.91 173.833 63.1706 222.415 37.6731L261.208 111.587C236.917 124.335 220.441 148.205 217.134 175.438L134.268 165.376Z" fill="#C27BA0"/>
<path d="M143.9 244.701C134.315 219.429 131.01 192.208 134.268 165.376L217.134 175.438C215.505 188.854 217.158 202.465 221.95 215.101L143.9 244.701Z" fill="#741B47"/>
<path d="M339.953 347.599C257.985 367.802 173.835 323.636 143.898 244.701L221.949 215.101C236.917 254.568 278.992 276.651 319.976 266.549L339.953 347.599Z" fill="#4C1130"/>
<path d="M346.562 76.8679V78.0554H339.937C339.927 77.7638 339.973 77.4773 340.078 77.196C340.255 76.7481 340.526 76.3054 340.89 75.8679C341.265 75.4304 341.802 74.9252 342.499 74.3523C343.593 73.4565 344.328 72.7481 344.703 72.2273C345.088 71.7065 345.281 71.2117 345.281 70.7429C345.281 70.2533 345.104 69.8419 344.749 69.5085C344.406 69.1752 343.958 69.0085 343.406 69.0085C342.812 69.0085 342.333 69.1856 341.968 69.5398C341.614 69.894 341.437 70.3888 341.437 71.0242L340.171 70.8835C340.255 69.946 340.578 69.2325 341.14 68.7429C341.713 68.2429 342.473 67.9929 343.421 67.9929C344.39 67.9929 345.151 68.2585 345.703 68.7898C346.265 69.321 346.546 69.9825 346.546 70.7742C346.546 71.1804 346.463 71.5763 346.296 71.9617C346.14 72.3471 345.869 72.7533 345.484 73.1804C345.109 73.6075 344.479 74.196 343.593 74.946C342.854 75.5606 342.38 75.9825 342.171 76.2117C341.963 76.4304 341.791 76.6492 341.656 76.8679H346.562ZM348.093 73.1179C348.093 71.9304 348.213 70.9773 348.453 70.2585C348.703 69.5294 349.067 68.9721 349.546 68.5867C350.026 68.1908 350.63 67.9929 351.359 67.9929C351.901 67.9929 352.374 68.1023 352.781 68.321C353.187 68.5398 353.52 68.8523 353.781 69.2585C354.052 69.6648 354.26 70.1596 354.406 70.7429C354.552 71.3263 354.624 72.1179 354.624 73.1179C354.624 74.295 354.505 75.2429 354.265 75.9617C354.026 76.6804 353.666 77.2377 353.187 77.6335C352.708 78.0294 352.098 78.2273 351.359 78.2273C350.401 78.2273 349.645 77.8783 349.093 77.1804C348.427 76.3471 348.093 74.9929 348.093 73.1179ZM349.359 73.1179C349.359 74.7638 349.552 75.8575 349.937 76.3992C350.322 76.9408 350.796 77.2117 351.359 77.2117C351.932 77.2117 352.411 76.9408 352.796 76.3992C353.182 75.8471 353.374 74.7533 353.374 73.1179C353.374 71.4617 353.182 70.3627 352.796 69.821C352.411 69.2794 351.927 69.0085 351.343 69.0085C350.781 69.0085 350.333 69.2481 349.999 69.7273C349.572 70.3419 349.359 71.4721 349.359 73.1179ZM360.734 78.0554H359.499V70.2117C359.208 70.4929 358.817 70.7794 358.328 71.071C357.848 71.3523 357.421 71.5606 357.046 71.696V70.5085C357.734 70.1856 358.333 69.795 358.843 69.3367C359.364 68.8783 359.729 68.4304 359.937 67.9929H360.734V78.0554ZM368.734 78.0554H367.499V70.2117C367.208 70.4929 366.817 70.7794 366.328 71.071C365.848 71.3523 365.421 71.5606 365.046 71.696V70.5085C365.734 70.1856 366.333 69.795 366.843 69.3367C367.364 68.8783 367.729 68.4304 367.937 67.9929H368.734V78.0554ZM371.953 75.8835L373.156 75.696C373.229 76.1856 373.421 76.5606 373.734 76.821C374.046 77.0815 374.484 77.2117 375.046 77.2117C375.609 77.2117 376.026 77.0971 376.296 76.8679C376.578 76.6388 376.718 76.3679 376.718 76.0554C376.718 75.7742 376.593 75.5554 376.343 75.3992C376.177 75.2846 375.76 75.144 375.093 74.9773C374.187 74.7481 373.557 74.5502 373.203 74.3835C372.859 74.2169 372.598 73.9877 372.421 73.696C372.244 73.4044 372.156 73.0815 372.156 72.7273C372.156 72.4044 372.229 72.1075 372.374 71.8367C372.52 71.5554 372.723 71.321 372.984 71.1335C373.171 70.9981 373.427 70.8835 373.749 70.7898C374.083 70.6856 374.442 70.6335 374.828 70.6335C375.39 70.6335 375.885 70.7169 376.312 70.8835C376.749 71.0398 377.072 71.2585 377.281 71.5398C377.489 71.821 377.63 72.196 377.703 72.6648L376.499 72.8367C376.447 72.4617 376.286 72.17 376.015 71.9617C375.755 71.7533 375.385 71.6492 374.906 71.6492C374.343 71.6492 373.942 71.7429 373.703 71.9304C373.463 72.1075 373.343 72.3263 373.343 72.5867C373.343 72.7429 373.39 72.8835 373.484 73.0085C373.588 73.144 373.749 73.2533 373.968 73.3367C374.083 73.3783 374.442 73.4825 375.046 73.6492C375.921 73.8888 376.531 74.0815 376.874 74.2273C377.218 74.3731 377.484 74.5867 377.671 74.8679C377.869 75.1492 377.968 75.4981 377.968 75.9148C377.968 76.3315 377.848 76.7221 377.609 77.0867C377.38 77.4408 377.036 77.7221 376.578 77.9304C376.13 78.1283 375.619 78.2273 375.046 78.2273C374.109 78.2273 373.39 78.0294 372.89 77.6335C372.401 77.2377 372.088 76.6544 371.953 75.8835Z" fill="black"/>
<path d="M404.623 144.912V146.099H397.998C397.987 145.807 398.034 145.521 398.138 145.24C398.315 144.792 398.586 144.349 398.951 143.912C399.326 143.474 399.862 142.969 400.56 142.396C401.654 141.5 402.388 140.792 402.763 140.271C403.149 139.75 403.341 139.255 403.341 138.787C403.341 138.297 403.164 137.886 402.81 137.552C402.466 137.219 402.018 137.052 401.466 137.052C400.873 137.052 400.393 137.229 400.029 137.583C399.675 137.938 399.498 138.432 399.498 139.068L398.232 138.927C398.315 137.99 398.638 137.276 399.201 136.787C399.774 136.287 400.534 136.037 401.482 136.037C402.451 136.037 403.211 136.302 403.763 136.833C404.326 137.365 404.607 138.026 404.607 138.818C404.607 139.224 404.524 139.62 404.357 140.005C404.201 140.391 403.93 140.797 403.544 141.224C403.169 141.651 402.539 142.24 401.654 142.99C400.914 143.604 400.44 144.026 400.232 144.255C400.024 144.474 399.852 144.693 399.716 144.912H404.623ZM406.154 141.162C406.154 139.974 406.274 139.021 406.513 138.302C406.763 137.573 407.128 137.016 407.607 136.63C408.086 136.235 408.69 136.037 409.419 136.037C409.961 136.037 410.435 136.146 410.841 136.365C411.248 136.583 411.581 136.896 411.841 137.302C412.112 137.708 412.32 138.203 412.466 138.787C412.612 139.37 412.685 140.162 412.685 141.162C412.685 142.339 412.565 143.287 412.326 144.005C412.086 144.724 411.727 145.281 411.248 145.677C410.768 146.073 410.159 146.271 409.419 146.271C408.461 146.271 407.706 145.922 407.154 145.224C406.487 144.391 406.154 143.037 406.154 141.162ZM407.419 141.162C407.419 142.807 407.612 143.901 407.998 144.443C408.383 144.985 408.857 145.255 409.419 145.255C409.992 145.255 410.471 144.985 410.857 144.443C411.242 143.891 411.435 142.797 411.435 141.162C411.435 139.505 411.242 138.406 410.857 137.865C410.471 137.323 409.987 137.052 409.404 137.052C408.841 137.052 408.393 137.292 408.06 137.771C407.633 138.386 407.419 139.516 407.419 141.162ZM418.794 146.099H417.56V138.255C417.268 138.537 416.878 138.823 416.388 139.115C415.909 139.396 415.482 139.604 415.107 139.74V138.552C415.794 138.229 416.393 137.839 416.904 137.38C417.425 136.922 417.789 136.474 417.998 136.037H418.794V146.099ZM422.169 143.458L423.388 143.287C423.534 143.985 423.774 144.49 424.107 144.802C424.451 145.104 424.867 145.255 425.357 145.255C425.94 145.255 426.43 145.057 426.826 144.662C427.221 144.255 427.419 143.755 427.419 143.162C427.419 142.599 427.232 142.136 426.857 141.771C426.492 141.406 426.029 141.224 425.466 141.224C425.227 141.224 424.935 141.266 424.591 141.349L424.732 140.271C424.815 140.281 424.878 140.287 424.919 140.287C425.451 140.287 425.925 140.151 426.341 139.88C426.758 139.61 426.966 139.188 426.966 138.615C426.966 138.167 426.815 137.797 426.513 137.505C426.211 137.203 425.815 137.052 425.326 137.052C424.846 137.052 424.445 137.203 424.123 137.505C423.81 137.797 423.607 138.245 423.513 138.849L422.294 138.63C422.44 137.807 422.779 137.172 423.31 136.724C423.841 136.266 424.503 136.037 425.294 136.037C425.846 136.037 426.352 136.156 426.81 136.396C427.268 136.625 427.617 136.943 427.857 137.349C428.107 137.755 428.232 138.188 428.232 138.646C428.232 139.073 428.117 139.464 427.888 139.818C427.659 140.172 427.315 140.458 426.857 140.677C427.451 140.813 427.909 141.094 428.232 141.521C428.565 141.948 428.732 142.49 428.732 143.146C428.732 144.021 428.409 144.761 427.763 145.365C427.128 145.969 426.326 146.271 425.357 146.271C424.471 146.271 423.737 146.011 423.154 145.49C422.581 144.969 422.253 144.292 422.169 143.458ZM430.013 143.927L431.216 143.74C431.289 144.229 431.482 144.604 431.794 144.865C432.107 145.125 432.544 145.255 433.107 145.255C433.669 145.255 434.086 145.141 434.357 144.912C434.638 144.682 434.779 144.412 434.779 144.099C434.779 143.818 434.654 143.599 434.404 143.443C434.237 143.328 433.82 143.188 433.154 143.021C432.248 142.792 431.617 142.594 431.263 142.427C430.919 142.261 430.659 142.031 430.482 141.74C430.305 141.448 430.216 141.125 430.216 140.771C430.216 140.448 430.289 140.151 430.435 139.88C430.581 139.599 430.784 139.365 431.044 139.177C431.232 139.042 431.487 138.927 431.81 138.833C432.143 138.729 432.503 138.677 432.888 138.677C433.451 138.677 433.945 138.761 434.373 138.927C434.81 139.083 435.133 139.302 435.341 139.583C435.55 139.865 435.69 140.24 435.763 140.708L434.56 140.88C434.508 140.505 434.346 140.214 434.076 140.005C433.815 139.797 433.445 139.693 432.966 139.693C432.404 139.693 432.003 139.787 431.763 139.974C431.524 140.151 431.404 140.37 431.404 140.63C431.404 140.787 431.451 140.927 431.544 141.052C431.649 141.188 431.81 141.297 432.029 141.38C432.143 141.422 432.503 141.526 433.107 141.693C433.982 141.932 434.591 142.125 434.935 142.271C435.279 142.417 435.544 142.63 435.732 142.912C435.93 143.193 436.029 143.542 436.029 143.958C436.029 144.375 435.909 144.766 435.669 145.13C435.44 145.485 435.096 145.766 434.638 145.974C434.19 146.172 433.68 146.271 433.107 146.271C432.169 146.271 431.451 146.073 430.951 145.677C430.461 145.281 430.149 144.698 430.013 143.927Z" fill="black"/>
<path d="M413.443 204.599V205.787H406.818C406.807 205.495 406.854 205.208 406.958 204.927C407.136 204.479 407.406 204.037 407.771 203.599C408.146 203.162 408.682 202.656 409.38 202.083C410.474 201.188 411.208 200.479 411.583 199.958C411.969 199.438 412.162 198.943 412.162 198.474C412.162 197.985 411.984 197.573 411.63 197.24C411.287 196.906 410.839 196.74 410.287 196.74C409.693 196.74 409.214 196.917 408.849 197.271C408.495 197.625 408.318 198.12 408.318 198.755L407.052 198.615C407.136 197.677 407.458 196.964 408.021 196.474C408.594 195.974 409.354 195.724 410.302 195.724C411.271 195.724 412.031 195.99 412.583 196.521C413.146 197.052 413.427 197.714 413.427 198.505C413.427 198.912 413.344 199.307 413.177 199.693C413.021 200.078 412.75 200.485 412.365 200.912C411.99 201.339 411.359 201.927 410.474 202.677C409.734 203.292 409.261 203.714 409.052 203.943C408.844 204.162 408.672 204.38 408.537 204.599H413.443ZM414.974 200.849C414.974 199.662 415.094 198.708 415.333 197.99C415.583 197.261 415.948 196.703 416.427 196.318C416.906 195.922 417.511 195.724 418.24 195.724C418.781 195.724 419.255 195.833 419.662 196.052C420.068 196.271 420.401 196.583 420.662 196.99C420.932 197.396 421.141 197.891 421.287 198.474C421.432 199.057 421.505 199.849 421.505 200.849C421.505 202.026 421.386 202.974 421.146 203.693C420.906 204.412 420.547 204.969 420.068 205.365C419.589 205.761 418.979 205.958 418.24 205.958C417.281 205.958 416.526 205.61 415.974 204.912C415.307 204.078 414.974 202.724 414.974 200.849ZM416.24 200.849C416.24 202.495 416.432 203.589 416.818 204.13C417.203 204.672 417.677 204.943 418.24 204.943C418.813 204.943 419.292 204.672 419.677 204.13C420.063 203.578 420.255 202.485 420.255 200.849C420.255 199.193 420.063 198.094 419.677 197.552C419.292 197.011 418.807 196.74 418.224 196.74C417.662 196.74 417.214 196.979 416.88 197.458C416.453 198.073 416.24 199.203 416.24 200.849ZM427.615 205.787H426.38V197.943C426.089 198.224 425.698 198.511 425.208 198.802C424.729 199.083 424.302 199.292 423.927 199.427V198.24C424.615 197.917 425.214 197.526 425.724 197.068C426.245 196.61 426.609 196.162 426.818 195.724H427.615V205.787ZM434.927 205.787V203.38H430.568V202.255L435.146 195.771H436.146V202.255H437.505V203.38H436.146V205.787H434.927ZM434.927 202.255V197.74L431.787 202.255H434.927ZM438.833 203.615L440.037 203.427C440.109 203.917 440.302 204.292 440.615 204.552C440.927 204.813 441.365 204.943 441.927 204.943C442.49 204.943 442.906 204.828 443.177 204.599C443.458 204.37 443.599 204.099 443.599 203.787C443.599 203.505 443.474 203.287 443.224 203.13C443.057 203.016 442.641 202.875 441.974 202.708C441.068 202.479 440.438 202.281 440.083 202.115C439.74 201.948 439.479 201.719 439.302 201.427C439.125 201.136 439.037 200.813 439.037 200.458C439.037 200.136 439.109 199.839 439.255 199.568C439.401 199.287 439.604 199.052 439.865 198.865C440.052 198.729 440.307 198.615 440.63 198.521C440.964 198.417 441.323 198.365 441.708 198.365C442.271 198.365 442.766 198.448 443.193 198.615C443.63 198.771 443.953 198.99 444.162 199.271C444.37 199.552 444.511 199.927 444.583 200.396L443.38 200.568C443.328 200.193 443.167 199.901 442.896 199.693C442.636 199.485 442.266 199.38 441.787 199.38C441.224 199.38 440.823 199.474 440.583 199.662C440.344 199.839 440.224 200.057 440.224 200.318C440.224 200.474 440.271 200.615 440.365 200.74C440.469 200.875 440.63 200.985 440.849 201.068C440.964 201.11 441.323 201.214 441.927 201.38C442.802 201.62 443.412 201.813 443.755 201.958C444.099 202.104 444.365 202.318 444.552 202.599C444.75 202.88 444.849 203.229 444.849 203.646C444.849 204.063 444.729 204.453 444.49 204.818C444.261 205.172 443.917 205.453 443.458 205.662C443.011 205.86 442.5 205.958 441.927 205.958C440.99 205.958 440.271 205.761 439.771 205.365C439.281 204.969 438.969 204.386 438.833 203.615Z" fill="black"/>
<path d="M370.578 283.035V284.223H363.953C363.942 283.931 363.989 283.645 364.093 283.364C364.27 282.916 364.541 282.473 364.906 282.035C365.281 281.598 365.817 281.093 366.515 280.52C367.609 279.624 368.343 278.916 368.718 278.395C369.104 277.874 369.296 277.379 369.296 276.91C369.296 276.421 369.119 276.009 368.765 275.676C368.421 275.343 367.973 275.176 367.421 275.176C366.828 275.176 366.348 275.353 365.984 275.707C365.63 276.061 365.453 276.556 365.453 277.192L364.187 277.051C364.27 276.114 364.593 275.4 365.156 274.91C365.729 274.41 366.489 274.16 367.437 274.16C368.406 274.16 369.166 274.426 369.718 274.957C370.281 275.489 370.562 276.15 370.562 276.942C370.562 277.348 370.479 277.744 370.312 278.129C370.156 278.515 369.885 278.921 369.499 279.348C369.124 279.775 368.494 280.364 367.609 281.114C366.869 281.728 366.395 282.15 366.187 282.379C365.979 282.598 365.807 282.817 365.671 283.035H370.578ZM372.109 279.285C372.109 278.098 372.229 277.145 372.468 276.426C372.718 275.697 373.083 275.14 373.562 274.754C374.041 274.358 374.645 274.16 375.374 274.16C375.916 274.16 376.39 274.27 376.796 274.489C377.203 274.707 377.536 275.02 377.796 275.426C378.067 275.832 378.276 276.327 378.421 276.91C378.567 277.494 378.64 278.285 378.64 279.285C378.64 280.462 378.52 281.41 378.281 282.129C378.041 282.848 377.682 283.405 377.203 283.801C376.723 284.197 376.114 284.395 375.374 284.395C374.416 284.395 373.661 284.046 373.109 283.348C372.442 282.515 372.109 281.16 372.109 279.285ZM373.374 279.285C373.374 280.931 373.567 282.025 373.953 282.567C374.338 283.108 374.812 283.379 375.374 283.379C375.947 283.379 376.427 283.108 376.812 282.567C377.197 282.015 377.39 280.921 377.39 279.285C377.39 277.629 377.197 276.53 376.812 275.989C376.427 275.447 375.942 275.176 375.359 275.176C374.796 275.176 374.348 275.416 374.015 275.895C373.588 276.509 373.374 277.64 373.374 279.285ZM384.749 284.223H383.515V276.379C383.223 276.66 382.833 276.947 382.343 277.239C381.864 277.52 381.437 277.728 381.062 277.864V276.676C381.749 276.353 382.348 275.962 382.859 275.504C383.38 275.046 383.744 274.598 383.953 274.16H384.749V284.223ZM388.109 281.598L389.406 281.489C389.499 282.114 389.718 282.587 390.062 282.91C390.416 283.223 390.838 283.379 391.328 283.379C391.921 283.379 392.421 283.155 392.828 282.707C393.244 282.259 393.453 281.671 393.453 280.942C393.453 280.233 393.255 279.676 392.859 279.27C392.463 278.864 391.947 278.66 391.312 278.66C390.916 278.66 390.557 278.754 390.234 278.942C389.921 279.119 389.671 279.348 389.484 279.629L388.328 279.489L389.296 274.332H394.281V275.52H390.281L389.749 278.207C390.354 277.791 390.984 277.582 391.64 277.582C392.515 277.582 393.249 277.884 393.843 278.489C394.447 279.093 394.749 279.874 394.749 280.832C394.749 281.739 394.489 282.52 393.968 283.176C393.322 283.989 392.442 284.395 391.328 284.395C390.421 284.395 389.677 284.14 389.093 283.629C388.52 283.119 388.192 282.442 388.109 281.598ZM395.968 282.051L397.171 281.864C397.244 282.353 397.437 282.728 397.749 282.989C398.062 283.249 398.499 283.379 399.062 283.379C399.624 283.379 400.041 283.265 400.312 283.035C400.593 282.806 400.734 282.535 400.734 282.223C400.734 281.942 400.609 281.723 400.359 281.567C400.192 281.452 399.776 281.311 399.109 281.145C398.203 280.916 397.572 280.718 397.218 280.551C396.874 280.384 396.614 280.155 396.437 279.864C396.26 279.572 396.171 279.249 396.171 278.895C396.171 278.572 396.244 278.275 396.39 278.004C396.536 277.723 396.739 277.489 396.999 277.301C397.187 277.166 397.442 277.051 397.765 276.957C398.098 276.853 398.458 276.801 398.843 276.801C399.406 276.801 399.901 276.884 400.328 277.051C400.765 277.207 401.088 277.426 401.296 277.707C401.505 277.989 401.645 278.364 401.718 278.832L400.515 279.004C400.463 278.629 400.302 278.337 400.031 278.129C399.77 277.921 399.401 277.817 398.921 277.817C398.359 277.817 397.958 277.91 397.718 278.098C397.479 278.275 397.359 278.494 397.359 278.754C397.359 278.91 397.406 279.051 397.499 279.176C397.604 279.311 397.765 279.421 397.984 279.504C398.098 279.546 398.458 279.65 399.062 279.817C399.937 280.056 400.546 280.249 400.89 280.395C401.234 280.541 401.499 280.754 401.687 281.035C401.885 281.317 401.984 281.666 401.984 282.082C401.984 282.499 401.864 282.89 401.624 283.254C401.395 283.608 401.052 283.89 400.593 284.098C400.145 284.296 399.635 284.395 399.062 284.395C398.124 284.395 397.406 284.197 396.906 283.801C396.416 283.405 396.104 282.822 395.968 282.051Z" fill="white"/>
<path d="M228.531 301.757V302.945H221.906C221.895 302.653 221.942 302.366 222.046 302.085C222.223 301.637 222.494 301.195 222.859 300.757C223.234 300.32 223.77 299.814 224.468 299.241C225.562 298.346 226.296 297.637 226.671 297.116C227.057 296.596 227.249 296.101 227.249 295.632C227.249 295.142 227.072 294.731 226.718 294.398C226.374 294.064 225.927 293.898 225.374 293.898C224.781 293.898 224.302 294.075 223.937 294.429C223.583 294.783 223.406 295.278 223.406 295.913L222.14 295.773C222.223 294.835 222.546 294.122 223.109 293.632C223.682 293.132 224.442 292.882 225.39 292.882C226.359 292.882 227.119 293.148 227.671 293.679C228.234 294.21 228.515 294.872 228.515 295.663C228.515 296.07 228.432 296.465 228.265 296.851C228.109 297.236 227.838 297.642 227.453 298.07C227.078 298.497 226.447 299.085 225.562 299.835C224.822 300.45 224.348 300.872 224.14 301.101C223.932 301.32 223.76 301.538 223.624 301.757H228.531ZM230.062 298.007C230.062 296.82 230.182 295.866 230.421 295.148C230.671 294.419 231.036 293.861 231.515 293.476C231.994 293.08 232.598 292.882 233.328 292.882C233.869 292.882 234.343 292.991 234.749 293.21C235.156 293.429 235.489 293.741 235.749 294.148C236.02 294.554 236.229 295.049 236.374 295.632C236.52 296.215 236.593 297.007 236.593 298.007C236.593 299.184 236.473 300.132 236.234 300.851C235.994 301.57 235.635 302.127 235.156 302.523C234.677 302.919 234.067 303.116 233.328 303.116C232.369 303.116 231.614 302.767 231.062 302.07C230.395 301.236 230.062 299.882 230.062 298.007ZM231.328 298.007C231.328 299.653 231.52 300.747 231.906 301.288C232.291 301.83 232.765 302.101 233.328 302.101C233.901 302.101 234.38 301.83 234.765 301.288C235.151 300.736 235.343 299.642 235.343 298.007C235.343 296.351 235.151 295.252 234.765 294.71C234.38 294.169 233.895 293.898 233.312 293.898C232.749 293.898 232.302 294.137 231.968 294.616C231.541 295.231 231.328 296.361 231.328 298.007ZM242.703 302.945H241.468V295.101C241.177 295.382 240.786 295.669 240.296 295.96C239.817 296.241 239.39 296.45 239.015 296.585V295.398C239.703 295.075 240.302 294.684 240.812 294.226C241.333 293.767 241.697 293.32 241.906 292.882H242.703V302.945ZM252.453 295.382L251.234 295.476C251.119 294.986 250.963 294.632 250.765 294.413C250.432 294.07 250.02 293.898 249.531 293.898C249.135 293.898 248.791 294.007 248.499 294.226C248.114 294.507 247.807 294.919 247.578 295.46C247.359 296.002 247.244 296.773 247.234 297.773C247.526 297.325 247.885 296.991 248.312 296.773C248.749 296.554 249.203 296.445 249.671 296.445C250.494 296.445 251.192 296.747 251.765 297.351C252.338 297.955 252.624 298.736 252.624 299.695C252.624 300.32 252.489 300.903 252.218 301.445C251.947 301.986 251.572 302.403 251.093 302.695C250.624 302.976 250.088 303.116 249.484 303.116C248.463 303.116 247.63 302.741 246.984 301.991C246.338 301.231 246.015 299.986 246.015 298.257C246.015 296.32 246.369 294.908 247.078 294.023C247.703 293.262 248.546 292.882 249.609 292.882C250.401 292.882 251.046 293.106 251.546 293.554C252.046 293.991 252.348 294.601 252.453 295.382ZM247.421 299.695C247.421 300.122 247.51 300.528 247.687 300.913C247.874 301.299 248.13 301.596 248.453 301.804C248.776 302.002 249.114 302.101 249.468 302.101C249.989 302.101 250.437 301.892 250.812 301.476C251.187 301.059 251.374 300.491 251.374 299.773C251.374 299.075 251.187 298.528 250.812 298.132C250.447 297.726 249.984 297.523 249.421 297.523C248.869 297.523 248.395 297.726 247.999 298.132C247.614 298.528 247.421 299.049 247.421 299.695ZM253.921 300.773L255.124 300.585C255.197 301.075 255.39 301.45 255.703 301.71C256.015 301.971 256.453 302.101 257.015 302.101C257.578 302.101 257.994 301.986 258.265 301.757C258.546 301.528 258.687 301.257 258.687 300.945C258.687 300.663 258.562 300.445 258.312 300.288C258.145 300.174 257.729 300.033 257.062 299.866C256.156 299.637 255.526 299.439 255.171 299.273C254.828 299.106 254.567 298.877 254.39 298.585C254.213 298.294 254.124 297.971 254.124 297.616C254.124 297.294 254.197 296.997 254.343 296.726C254.489 296.445 254.692 296.21 254.953 296.023C255.14 295.887 255.395 295.773 255.718 295.679C256.052 295.575 256.411 295.523 256.796 295.523C257.359 295.523 257.854 295.606 258.281 295.773C258.718 295.929 259.041 296.148 259.249 296.429C259.458 296.71 259.598 297.085 259.671 297.554L258.468 297.726C258.416 297.351 258.255 297.059 257.984 296.851C257.723 296.642 257.354 296.538 256.874 296.538C256.312 296.538 255.911 296.632 255.671 296.82C255.432 296.997 255.312 297.215 255.312 297.476C255.312 297.632 255.359 297.773 255.453 297.898C255.557 298.033 255.718 298.142 255.937 298.226C256.052 298.267 256.411 298.372 257.015 298.538C257.89 298.778 258.499 298.971 258.843 299.116C259.187 299.262 259.453 299.476 259.64 299.757C259.838 300.038 259.937 300.387 259.937 300.804C259.937 301.221 259.817 301.611 259.578 301.976C259.348 302.33 259.005 302.611 258.546 302.82C258.098 303.017 257.588 303.116 257.015 303.116C256.078 303.116 255.359 302.919 254.859 302.523C254.369 302.127 254.057 301.544 253.921 300.773Z" fill="white"/>
<path d="M161.65 204.599V205.787H155.025C155.014 205.495 155.061 205.208 155.165 204.927C155.343 204.479 155.613 204.037 155.978 203.599C156.353 203.162 156.889 202.656 157.587 202.083C158.681 201.188 159.415 200.479 159.79 199.958C160.176 199.438 160.369 198.943 160.369 198.474C160.369 197.985 160.192 197.573 159.837 197.24C159.494 196.906 159.046 196.74 158.494 196.74C157.9 196.74 157.421 196.917 157.056 197.271C156.702 197.625 156.525 198.12 156.525 198.755L155.259 198.615C155.343 197.677 155.665 196.964 156.228 196.474C156.801 195.974 157.561 195.724 158.509 195.724C159.478 195.724 160.238 195.99 160.79 196.521C161.353 197.052 161.634 197.714 161.634 198.505C161.634 198.912 161.551 199.307 161.384 199.693C161.228 200.078 160.957 200.485 160.572 200.912C160.197 201.339 159.567 201.927 158.681 202.677C157.942 203.292 157.468 203.714 157.259 203.943C157.051 204.162 156.879 204.38 156.744 204.599H161.65ZM163.181 200.849C163.181 199.662 163.301 198.708 163.54 197.99C163.79 197.261 164.155 196.703 164.634 196.318C165.113 195.922 165.718 195.724 166.447 195.724C166.988 195.724 167.462 195.833 167.869 196.052C168.275 196.271 168.608 196.583 168.869 196.99C169.139 197.396 169.348 197.891 169.494 198.474C169.639 199.057 169.712 199.849 169.712 200.849C169.712 202.026 169.593 202.974 169.353 203.693C169.113 204.412 168.754 204.969 168.275 205.365C167.796 205.761 167.186 205.958 166.447 205.958C165.488 205.958 164.733 205.61 164.181 204.912C163.514 204.078 163.181 202.724 163.181 200.849ZM164.447 200.849C164.447 202.495 164.639 203.589 165.025 204.13C165.41 204.672 165.884 204.943 166.447 204.943C167.02 204.943 167.499 204.672 167.884 204.13C168.27 203.578 168.462 202.485 168.462 200.849C168.462 199.193 168.27 198.094 167.884 197.552C167.499 197.011 167.014 196.74 166.431 196.74C165.869 196.74 165.421 196.979 165.087 197.458C164.66 198.073 164.447 199.203 164.447 200.849ZM175.822 205.787H174.587V197.943C174.296 198.224 173.905 198.511 173.415 198.802C172.936 199.083 172.509 199.292 172.134 199.427V198.24C172.822 197.917 173.421 197.526 173.931 197.068C174.452 196.61 174.817 196.162 175.025 195.724H175.822V205.787ZM179.259 197.083V195.896H185.759V196.849C185.113 197.526 184.478 198.427 183.853 199.552C183.228 200.677 182.744 201.839 182.4 203.037C182.16 203.87 182.004 204.787 181.931 205.787H180.665C180.676 204.995 180.827 204.042 181.119 202.927C181.421 201.813 181.848 200.74 182.4 199.708C182.962 198.667 183.556 197.792 184.181 197.083H179.259ZM187.04 203.615L188.244 203.427C188.317 203.917 188.509 204.292 188.822 204.552C189.134 204.813 189.572 204.943 190.134 204.943C190.697 204.943 191.113 204.828 191.384 204.599C191.665 204.37 191.806 204.099 191.806 203.787C191.806 203.505 191.681 203.287 191.431 203.13C191.264 203.016 190.848 202.875 190.181 202.708C189.275 202.479 188.645 202.281 188.29 202.115C187.947 201.948 187.686 201.719 187.509 201.427C187.332 201.136 187.244 200.813 187.244 200.458C187.244 200.136 187.317 199.839 187.462 199.568C187.608 199.287 187.811 199.052 188.072 198.865C188.259 198.729 188.514 198.615 188.837 198.521C189.171 198.417 189.53 198.365 189.915 198.365C190.478 198.365 190.973 198.448 191.4 198.615C191.837 198.771 192.16 198.99 192.369 199.271C192.577 199.552 192.718 199.927 192.79 200.396L191.587 200.568C191.535 200.193 191.374 199.901 191.103 199.693C190.843 199.485 190.473 199.38 189.994 199.38C189.431 199.38 189.03 199.474 188.79 199.662C188.551 199.839 188.431 200.057 188.431 200.318C188.431 200.474 188.478 200.615 188.572 200.74C188.676 200.875 188.837 200.985 189.056 201.068C189.171 201.11 189.53 201.214 190.134 201.38C191.009 201.62 191.619 201.813 191.962 201.958C192.306 202.104 192.572 202.318 192.759 202.599C192.957 202.88 193.056 203.229 193.056 203.646C193.056 204.063 192.936 204.453 192.697 204.818C192.468 205.172 192.124 205.453 191.665 205.662C191.218 205.86 190.707 205.958 190.134 205.958C189.197 205.958 188.478 205.761 187.978 205.365C187.488 204.969 187.176 204.386 187.04 203.615Z" fill="white"/>
<path d="M184.499 118.184V119.371H177.874C177.864 119.079 177.911 118.793 178.015 118.512C178.192 118.064 178.463 117.621 178.828 117.184C179.203 116.746 179.739 116.241 180.437 115.668C181.531 114.772 182.265 114.064 182.64 113.543C183.026 113.022 183.218 112.527 183.218 112.059C183.218 111.569 183.041 111.158 182.687 110.824C182.343 110.491 181.895 110.324 181.343 110.324C180.749 110.324 180.27 110.501 179.906 110.855C179.552 111.21 179.374 111.704 179.374 112.34L178.109 112.199C178.192 111.262 178.515 110.548 179.078 110.059C179.651 109.559 180.411 109.309 181.359 109.309C182.328 109.309 183.088 109.574 183.64 110.105C184.203 110.637 184.484 111.298 184.484 112.09C184.484 112.496 184.401 112.892 184.234 113.277C184.078 113.663 183.807 114.069 183.421 114.496C183.046 114.923 182.416 115.512 181.531 116.262C180.791 116.876 180.317 117.298 180.109 117.527C179.901 117.746 179.729 117.965 179.593 118.184H184.499ZM186.031 114.434C186.031 113.246 186.151 112.293 186.39 111.574C186.64 110.845 187.005 110.288 187.484 109.902C187.963 109.507 188.567 109.309 189.296 109.309C189.838 109.309 190.312 109.418 190.718 109.637C191.124 109.855 191.458 110.168 191.718 110.574C191.989 110.98 192.197 111.475 192.343 112.059C192.489 112.642 192.562 113.434 192.562 114.434C192.562 115.611 192.442 116.559 192.203 117.277C191.963 117.996 191.604 118.553 191.124 118.949C190.645 119.345 190.036 119.543 189.296 119.543C188.338 119.543 187.583 119.194 187.031 118.496C186.364 117.663 186.031 116.309 186.031 114.434ZM187.296 114.434C187.296 116.079 187.489 117.173 187.874 117.715C188.26 118.257 188.734 118.527 189.296 118.527C189.869 118.527 190.348 118.257 190.734 117.715C191.119 117.163 191.312 116.069 191.312 114.434C191.312 112.777 191.119 111.678 190.734 111.137C190.348 110.595 189.864 110.324 189.281 110.324C188.718 110.324 188.27 110.564 187.937 111.043C187.51 111.658 187.296 112.788 187.296 114.434ZM198.671 119.371H197.437V111.527C197.145 111.809 196.755 112.095 196.265 112.387C195.786 112.668 195.359 112.876 194.984 113.012V111.824C195.671 111.501 196.27 111.111 196.781 110.652C197.302 110.194 197.666 109.746 197.874 109.309H198.671V119.371ZM203.921 113.934C203.411 113.746 203.031 113.48 202.781 113.137C202.541 112.793 202.421 112.376 202.421 111.887C202.421 111.158 202.682 110.548 203.203 110.059C203.734 109.559 204.432 109.309 205.296 109.309C206.171 109.309 206.874 109.564 207.406 110.074C207.947 110.585 208.218 111.204 208.218 111.934C208.218 112.392 208.093 112.793 207.843 113.137C207.604 113.48 207.234 113.746 206.734 113.934C207.348 114.132 207.817 114.454 208.14 114.902C208.463 115.35 208.624 115.887 208.624 116.512C208.624 117.366 208.322 118.085 207.718 118.668C207.114 119.251 206.317 119.543 205.328 119.543C204.338 119.543 203.536 119.251 202.921 118.668C202.317 118.074 202.015 117.34 202.015 116.465C202.015 115.819 202.182 115.277 202.515 114.84C202.848 114.392 203.317 114.09 203.921 113.934ZM203.687 111.855C203.687 112.324 203.838 112.71 204.14 113.012C204.442 113.314 204.838 113.465 205.328 113.465C205.807 113.465 206.197 113.319 206.499 113.027C206.802 112.725 206.953 112.355 206.953 111.918C206.953 111.47 206.796 111.095 206.484 110.793C206.171 110.48 205.781 110.324 205.312 110.324C204.843 110.324 204.453 110.475 204.14 110.777C203.838 111.069 203.687 111.428 203.687 111.855ZM203.281 116.48C203.281 116.835 203.364 117.178 203.531 117.512C203.697 117.835 203.942 118.085 204.265 118.262C204.598 118.439 204.958 118.527 205.343 118.527C205.927 118.527 206.406 118.34 206.781 117.965C207.166 117.59 207.359 117.111 207.359 116.527C207.359 115.934 207.161 115.444 206.765 115.059C206.38 114.663 205.89 114.465 205.296 114.465C204.713 114.465 204.229 114.658 203.843 115.043C203.468 115.428 203.281 115.908 203.281 116.48ZM209.89 117.199L211.093 117.012C211.166 117.501 211.359 117.876 211.671 118.137C211.984 118.397 212.421 118.527 212.984 118.527C213.546 118.527 213.963 118.413 214.234 118.184C214.515 117.954 214.656 117.684 214.656 117.371C214.656 117.09 214.531 116.871 214.281 116.715C214.114 116.6 213.697 116.46 213.031 116.293C212.124 116.064 211.494 115.866 211.14 115.699C210.796 115.533 210.536 115.303 210.359 115.012C210.182 114.72 210.093 114.397 210.093 114.043C210.093 113.72 210.166 113.423 210.312 113.152C210.458 112.871 210.661 112.637 210.921 112.449C211.109 112.314 211.364 112.199 211.687 112.105C212.02 112.001 212.38 111.949 212.765 111.949C213.328 111.949 213.822 112.033 214.249 112.199C214.687 112.355 215.01 112.574 215.218 112.855C215.427 113.137 215.567 113.512 215.64 113.98L214.437 114.152C214.385 113.777 214.223 113.486 213.953 113.277C213.692 113.069 213.322 112.965 212.843 112.965C212.281 112.965 211.88 113.059 211.64 113.246C211.401 113.423 211.281 113.642 211.281 113.902C211.281 114.059 211.328 114.199 211.421 114.324C211.526 114.46 211.687 114.569 211.906 114.652C212.02 114.694 212.38 114.798 212.984 114.965C213.859 115.204 214.468 115.397 214.812 115.543C215.156 115.689 215.421 115.902 215.609 116.184C215.807 116.465 215.906 116.814 215.906 117.23C215.906 117.647 215.786 118.038 215.546 118.402C215.317 118.757 214.973 119.038 214.515 119.246C214.067 119.444 213.557 119.543 212.984 119.543C212.046 119.543 211.328 119.345 210.828 118.949C210.338 118.553 210.026 117.97 209.89 117.199Z" fill="white"/>
<path d="M256.021 61.4092V62.5967H249.396C249.386 62.305 249.432 62.0186 249.537 61.7373C249.714 61.2894 249.984 60.8467 250.349 60.4092C250.724 59.9717 251.261 59.4665 251.958 58.8936C253.052 57.9977 253.787 57.2894 254.162 56.7686C254.547 56.2477 254.74 55.7529 254.74 55.2842C254.74 54.7946 254.563 54.3831 254.208 54.0498C253.865 53.7165 253.417 53.5498 252.865 53.5498C252.271 53.5498 251.792 53.7269 251.427 54.0811C251.073 54.4352 250.896 54.93 250.896 55.5654L249.63 55.4248C249.714 54.4873 250.037 53.7738 250.599 53.2842C251.172 52.7842 251.932 52.5342 252.88 52.5342C253.849 52.5342 254.609 52.7998 255.162 53.3311C255.724 53.8623 256.005 54.5238 256.005 55.3154C256.005 55.7217 255.922 56.1175 255.755 56.5029C255.599 56.8883 255.328 57.2946 254.943 57.7217C254.568 58.1488 253.938 58.7373 253.052 59.4873C252.313 60.1019 251.839 60.5238 251.63 60.7529C251.422 60.9717 251.25 61.1904 251.115 61.4092H256.021ZM257.552 57.6592C257.552 56.4717 257.672 55.5186 257.912 54.7998C258.162 54.0706 258.526 53.5133 259.005 53.1279C259.485 52.7321 260.089 52.5342 260.818 52.5342C261.36 52.5342 261.833 52.6436 262.24 52.8623C262.646 53.0811 262.979 53.3936 263.24 53.7998C263.511 54.2061 263.719 54.7008 263.865 55.2842C264.011 55.8675 264.083 56.6592 264.083 57.6592C264.083 58.8363 263.964 59.7842 263.724 60.5029C263.485 61.2217 263.125 61.779 262.646 62.1748C262.167 62.5706 261.557 62.7686 260.818 62.7686C259.86 62.7686 259.104 62.4196 258.552 61.7217C257.886 60.8883 257.552 59.5342 257.552 57.6592ZM258.818 57.6592C258.818 59.305 259.011 60.3988 259.396 60.9404C259.781 61.4821 260.255 61.7529 260.818 61.7529C261.391 61.7529 261.87 61.4821 262.255 60.9404C262.641 60.3883 262.833 59.2946 262.833 57.6592C262.833 56.0029 262.641 54.904 262.255 54.3623C261.87 53.8206 261.386 53.5498 260.802 53.5498C260.24 53.5498 259.792 53.7894 259.458 54.2686C259.031 54.8831 258.818 56.0133 258.818 57.6592ZM270.193 62.5967H268.958V54.7529C268.667 55.0342 268.276 55.3206 267.787 55.6123C267.307 55.8936 266.88 56.1019 266.505 56.2373V55.0498C267.193 54.7269 267.792 54.3363 268.302 53.8779C268.823 53.4196 269.188 52.9717 269.396 52.5342H270.193V62.5967ZM273.74 60.2842L274.927 60.1748C275.021 60.7269 275.208 61.1279 275.49 61.3779C275.781 61.6279 276.146 61.7529 276.583 61.7529C276.958 61.7529 277.287 61.6696 277.568 61.5029C277.86 61.3258 278.094 61.0915 278.271 60.7998C278.458 60.5081 278.615 60.1175 278.74 59.6279C278.865 59.1383 278.927 58.6383 278.927 58.1279C278.927 58.0758 278.922 57.9925 278.912 57.8779C278.672 58.2738 278.339 58.5967 277.912 58.8467C277.485 59.0863 277.021 59.2061 276.521 59.2061C275.688 59.2061 274.985 58.904 274.412 58.2998C273.839 57.6956 273.552 56.904 273.552 55.9248C273.552 54.904 273.849 54.0863 274.443 53.4717C275.047 52.8467 275.802 52.5342 276.708 52.5342C277.354 52.5342 277.948 52.7113 278.49 53.0654C279.031 53.4092 279.443 53.9092 279.724 54.5654C280.005 55.2113 280.146 56.1488 280.146 57.3779C280.146 58.6592 280.005 59.68 279.724 60.4404C279.453 61.2008 279.042 61.779 278.49 62.1748C277.938 62.5706 277.292 62.7686 276.552 62.7686C275.771 62.7686 275.13 62.5498 274.63 62.1123C274.141 61.6748 273.844 61.0654 273.74 60.2842ZM278.771 55.8623C278.771 55.154 278.583 54.5915 278.208 54.1748C277.833 53.7581 277.386 53.5498 276.865 53.5498C276.313 53.5498 275.833 53.7738 275.427 54.2217C275.021 54.6696 274.818 55.2477 274.818 55.9561C274.818 56.5915 275.011 57.1123 275.396 57.5186C275.781 57.9144 276.255 58.1123 276.818 58.1123C277.391 58.1123 277.86 57.9144 278.224 57.5186C278.589 57.1123 278.771 56.5602 278.771 55.8623ZM281.412 60.4248L282.615 60.2373C282.688 60.7269 282.88 61.1019 283.193 61.3623C283.505 61.6227 283.943 61.7529 284.505 61.7529C285.068 61.7529 285.485 61.6383 285.755 61.4092C286.037 61.18 286.177 60.9092 286.177 60.5967C286.177 60.3154 286.052 60.0967 285.802 59.9404C285.636 59.8258 285.219 59.6852 284.552 59.5186C283.646 59.2894 283.016 59.0915 282.662 58.9248C282.318 58.7581 282.057 58.529 281.88 58.2373C281.703 57.9456 281.615 57.6227 281.615 57.2686C281.615 56.9456 281.688 56.6488 281.833 56.3779C281.979 56.0967 282.182 55.8623 282.443 55.6748C282.63 55.5394 282.886 55.4248 283.208 55.3311C283.542 55.2269 283.901 55.1748 284.287 55.1748C284.849 55.1748 285.344 55.2581 285.771 55.4248C286.208 55.5811 286.531 55.7998 286.74 56.0811C286.948 56.3623 287.089 56.7373 287.162 57.2061L285.958 57.3779C285.906 57.0029 285.745 56.7113 285.474 56.5029C285.214 56.2946 284.844 56.1904 284.365 56.1904C283.802 56.1904 283.401 56.2842 283.162 56.4717C282.922 56.6488 282.802 56.8675 282.802 57.1279C282.802 57.2842 282.849 57.4248 282.943 57.5498C283.047 57.6852 283.208 57.7946 283.427 57.8779C283.542 57.9196 283.901 58.0238 284.505 58.1904C285.38 58.43 285.99 58.6227 286.333 58.7686C286.677 58.9144 286.943 59.1279 287.13 59.4092C287.328 59.6904 287.427 60.0394 287.427 60.4561C287.427 60.8727 287.307 61.2633 287.068 61.6279C286.839 61.9821 286.495 62.2633 286.037 62.4717C285.589 62.6696 285.078 62.7686 284.505 62.7686C283.568 62.7686 282.849 62.5706 282.349 62.1748C281.86 61.779 281.547 61.1956 281.412 60.4248Z" fill="black"/>
<g clip-path="url(#clip1_1745_437)">
<path d="M5 4H594V367H5V4Z" fill="#1A1B1F"/>
<path d="M299.5 22.1499C353.183 22.1499 403.439 48.5264 433.934 92.7065L366.717 139.103C351.47 117.013 326.341 103.825 299.5 103.825V22.1499Z" fill="#7D99FA"/>
<path d="M433.934 92.7065C448.957 114.471 458.471 139.557 461.659 165.81L380.579 175.655C378.985 162.529 374.228 149.985 366.717 139.103L433.934 92.7065Z" fill="#6B8CFF"/>
<path d="M461.659 165.81C464.846 192.063 461.612 218.698 452.235 243.425L375.867 214.462C380.556 202.099 382.173 188.782 380.579 175.655L461.659 165.81Z" fill="#456FFF"/>
<path d="M452.236 243.425C433.199 293.619 390.716 331.256 338.593 344.103L319.047 264.802C345.108 258.378 366.35 239.56 375.868 214.462L452.236 243.425Z" fill="#2052FF"/>
<path d="M223.588 40.8607C247.004 28.5707 273.055 22.1499 299.5 22.1499V103.825C286.278 103.825 273.252 107.035 261.544 113.18L223.588 40.8607Z" fill="#A1B6FF"/>
<path d="M137.342 165.81C143.813 112.519 176.054 65.8085 223.588 40.8608L261.545 113.18C237.778 125.654 221.657 149.01 218.421 175.655L137.342 165.81Z" fill="#032497"/>
<path d="M146.766 243.425C137.388 218.698 134.154 192.063 137.341 165.81L218.421 175.655C216.827 188.782 218.444 202.099 223.133 214.462L146.766 243.425Z" fill="#0230CD"/>
<path d="M338.593 344.103C258.392 363.871 176.056 320.658 146.766 243.425L223.133 214.462C237.778 253.079 278.946 274.686 319.047 264.802L338.593 344.103Z" fill="#0039FF"/>
<path d="M344.497 82.333V84.0205H335.044C335.034 83.5934 335.101 83.1872 335.247 82.8018C335.487 82.1559 335.872 81.5205 336.403 80.8955C336.935 80.2705 337.7 79.5465 338.7 78.7236C340.263 77.4528 341.315 76.4476 341.857 75.708C342.409 74.958 342.685 74.2497 342.685 73.583C342.685 72.8851 342.435 72.2965 341.935 71.8174C341.435 71.3382 340.784 71.0986 339.982 71.0986C339.138 71.0986 338.461 71.3538 337.95 71.8643C337.44 72.3747 337.185 73.0778 337.185 73.9736L335.372 73.7861C335.497 72.4424 335.961 71.4163 336.763 70.708C337.575 69.9997 338.664 69.6455 340.028 69.6455C341.393 69.6455 342.476 70.0257 343.278 70.7861C344.08 71.5466 344.482 72.4893 344.482 73.6143C344.482 74.1872 344.362 74.7549 344.122 75.3174C343.893 75.8695 343.508 76.4528 342.966 77.0674C342.424 77.6715 341.523 78.5101 340.263 79.583C339.2 80.4684 338.518 81.0674 338.216 81.3799C337.924 81.6924 337.679 82.0101 337.482 82.333H344.497ZM346.263 76.958C346.263 75.2705 346.435 73.9111 346.778 72.8799C347.133 71.8382 347.653 71.0413 348.341 70.4893C349.028 69.9268 349.893 69.6455 350.935 69.6455C351.705 69.6455 352.377 69.8018 352.95 70.1143C353.534 70.4163 354.013 70.859 354.388 71.4424C354.763 72.0257 355.06 72.7393 355.278 73.583C355.497 74.4163 355.607 75.5413 355.607 76.958C355.607 78.6351 355.429 79.9893 355.075 81.0205C354.732 82.0518 354.216 82.8538 353.528 83.4268C352.851 83.9893 351.987 84.2705 350.935 84.2705C349.549 84.2705 348.466 83.7757 347.685 82.7861C346.737 81.5882 346.263 79.6455 346.263 76.958ZM348.075 76.958C348.075 79.3122 348.346 80.8799 348.888 81.6611C349.44 82.432 350.122 82.8174 350.935 82.8174C351.737 82.8174 352.414 82.4268 352.966 81.6455C353.518 80.8643 353.794 79.3018 353.794 76.958C353.794 74.6038 353.518 73.0413 352.966 72.2705C352.414 71.4893 351.732 71.0986 350.919 71.0986C350.107 71.0986 349.461 71.4424 348.982 72.1299C348.377 72.9945 348.075 74.6038 348.075 76.958ZM363.888 84.0205H362.122V72.8174C361.705 73.2236 361.153 73.6299 360.466 74.0361C359.778 74.432 359.159 74.734 358.607 74.9424V73.2393C359.596 72.7809 360.455 72.2236 361.185 71.5674C361.924 70.9007 362.445 70.2601 362.747 69.6455H363.888V84.0205ZM374.888 84.0205H373.122V72.8174C372.705 73.2236 372.153 73.6299 371.466 74.0361C370.778 74.432 370.159 74.734 369.607 74.9424V73.2393C370.596 72.7809 371.455 72.2236 372.185 71.5674C372.924 70.9007 373.445 70.2601 373.747 69.6455H374.888V84.0205Z" fill="black"/>
<path d="M402.114 147.369V149.056H392.661C392.651 148.629 392.718 148.223 392.864 147.838C393.104 147.192 393.489 146.556 394.021 145.931C394.552 145.306 395.317 144.582 396.317 143.76C397.88 142.489 398.932 141.483 399.474 140.744C400.026 139.994 400.302 139.286 400.302 138.619C400.302 137.921 400.052 137.332 399.552 136.853C399.052 136.374 398.401 136.135 397.599 136.135C396.755 136.135 396.078 136.39 395.567 136.9C395.057 137.411 394.802 138.114 394.802 139.01L392.989 138.822C393.114 137.478 393.578 136.452 394.38 135.744C395.192 135.036 396.281 134.681 397.646 134.681C399.01 134.681 400.093 135.062 400.896 135.822C401.698 136.582 402.099 137.525 402.099 138.65C402.099 139.223 401.979 139.791 401.739 140.353C401.51 140.905 401.125 141.489 400.583 142.103C400.041 142.707 399.14 143.546 397.88 144.619C396.817 145.504 396.135 146.103 395.833 146.416C395.541 146.728 395.297 147.046 395.099 147.369H402.114ZM403.88 141.994C403.88 140.306 404.052 138.947 404.396 137.916C404.75 136.874 405.271 136.077 405.958 135.525C406.646 134.963 407.51 134.681 408.552 134.681C409.323 134.681 409.995 134.838 410.567 135.15C411.151 135.452 411.63 135.895 412.005 136.478C412.38 137.062 412.677 137.775 412.896 138.619C413.114 139.452 413.224 140.577 413.224 141.994C413.224 143.671 413.047 145.025 412.692 146.056C412.349 147.088 411.833 147.89 411.146 148.463C410.468 149.025 409.604 149.306 408.552 149.306C407.166 149.306 406.083 148.812 405.302 147.822C404.354 146.624 403.88 144.681 403.88 141.994ZM405.692 141.994C405.692 144.348 405.963 145.916 406.505 146.697C407.057 147.468 407.739 147.853 408.552 147.853C409.354 147.853 410.031 147.463 410.583 146.681C411.135 145.9 411.411 144.338 411.411 141.994C411.411 139.64 411.135 138.077 410.583 137.306C410.031 136.525 409.349 136.135 408.536 136.135C407.724 136.135 407.078 136.478 406.599 137.166C405.995 138.03 405.692 139.64 405.692 141.994ZM421.505 149.056H419.739V137.853C419.323 138.26 418.771 138.666 418.083 139.072C417.396 139.468 416.776 139.77 416.224 139.978V138.275C417.213 137.817 418.073 137.26 418.802 136.603C419.541 135.937 420.062 135.296 420.364 134.681H421.505V149.056ZM425.896 145.275L427.646 145.041C427.854 146.041 428.198 146.76 428.677 147.197C429.166 147.635 429.76 147.853 430.458 147.853C431.281 147.853 431.974 147.567 432.536 146.994C433.109 146.421 433.396 145.713 433.396 144.869C433.396 144.056 433.13 143.39 432.599 142.869C432.078 142.348 431.411 142.088 430.599 142.088C430.265 142.088 429.854 142.15 429.364 142.275L429.552 140.728C429.666 140.749 429.76 140.76 429.833 140.76C430.583 140.76 431.255 140.567 431.849 140.181C432.453 139.786 432.755 139.181 432.755 138.369C432.755 137.723 432.536 137.187 432.099 136.76C431.661 136.332 431.099 136.119 430.411 136.119C429.734 136.119 429.166 136.338 428.708 136.775C428.25 137.202 427.958 137.843 427.833 138.697L426.067 138.385C426.286 137.207 426.776 136.296 427.536 135.65C428.297 135.004 429.245 134.681 430.38 134.681C431.161 134.681 431.88 134.848 432.536 135.181C433.192 135.515 433.692 135.973 434.036 136.556C434.39 137.14 434.567 137.754 434.567 138.4C434.567 139.015 434.401 139.577 434.067 140.088C433.734 140.598 433.245 141.004 432.599 141.306C433.442 141.494 434.099 141.9 434.567 142.525C435.036 143.14 435.271 143.905 435.271 144.822C435.271 146.072 434.812 147.135 433.896 148.01C432.989 148.874 431.838 149.306 430.442 149.306C429.182 149.306 428.135 148.931 427.302 148.181C426.479 147.431 426.01 146.463 425.896 145.275Z" fill="black"/>
<path d="M409.183 205.58V207.267H399.73C399.719 206.84 399.787 206.434 399.933 206.049C400.172 205.403 400.558 204.767 401.089 204.142C401.62 203.517 402.386 202.793 403.386 201.97C404.948 200.7 406 199.694 406.542 198.955C407.094 198.205 407.37 197.497 407.37 196.83C407.37 196.132 407.12 195.543 406.62 195.064C406.12 194.585 405.469 194.345 404.667 194.345C403.823 194.345 403.146 194.601 402.636 195.111C402.125 195.621 401.87 196.325 401.87 197.22L400.058 197.033C400.183 195.689 400.646 194.663 401.448 193.955C402.261 193.247 403.349 192.892 404.714 192.892C406.079 192.892 407.162 193.273 407.964 194.033C408.766 194.793 409.167 195.736 409.167 196.861C409.167 197.434 409.047 198.002 408.808 198.564C408.579 199.116 408.193 199.7 407.651 200.314C407.11 200.918 406.209 201.757 404.948 202.83C403.886 203.715 403.204 204.314 402.901 204.627C402.61 204.939 402.365 205.257 402.167 205.58H409.183ZM410.948 200.205C410.948 198.517 411.12 197.158 411.464 196.127C411.818 195.085 412.339 194.288 413.026 193.736C413.714 193.174 414.579 192.892 415.62 192.892C416.391 192.892 417.063 193.049 417.636 193.361C418.219 193.663 418.698 194.106 419.073 194.689C419.448 195.273 419.745 195.986 419.964 196.83C420.183 197.663 420.292 198.788 420.292 200.205C420.292 201.882 420.115 203.236 419.761 204.267C419.417 205.299 418.901 206.101 418.214 206.674C417.537 207.236 416.672 207.517 415.62 207.517C414.235 207.517 413.151 207.023 412.37 206.033C411.422 204.835 410.948 202.892 410.948 200.205ZM412.761 200.205C412.761 202.559 413.032 204.127 413.573 204.908C414.125 205.679 414.808 206.064 415.62 206.064C416.422 206.064 417.099 205.674 417.651 204.892C418.204 204.111 418.48 202.549 418.48 200.205C418.48 197.851 418.204 196.288 417.651 195.517C417.099 194.736 416.417 194.345 415.605 194.345C414.792 194.345 414.146 194.689 413.667 195.377C413.063 196.241 412.761 197.851 412.761 200.205ZM428.573 207.267H426.808V196.064C426.391 196.47 425.839 196.877 425.151 197.283C424.464 197.679 423.844 197.981 423.292 198.189V196.486C424.282 196.028 425.141 195.47 425.87 194.814C426.61 194.148 427.131 193.507 427.433 192.892H428.573V207.267ZM438.589 207.267V203.845H432.37V202.22L438.901 192.955H440.339V202.22H442.276V203.845H440.339V207.267H438.589ZM438.589 202.22V195.767L434.105 202.22H438.589Z" fill="black"/>
<path d="M368.804 282.514V284.202H359.351C359.34 283.775 359.408 283.369 359.554 282.983C359.793 282.337 360.179 281.702 360.71 281.077C361.241 280.452 362.007 279.728 363.007 278.905C364.569 277.634 365.621 276.629 366.163 275.889C366.715 275.139 366.991 274.431 366.991 273.764C366.991 273.066 366.741 272.478 366.241 271.999C365.741 271.52 365.09 271.28 364.288 271.28C363.444 271.28 362.767 271.535 362.257 272.046C361.746 272.556 361.491 273.259 361.491 274.155L359.679 273.968C359.804 272.624 360.267 271.598 361.069 270.889C361.882 270.181 362.97 269.827 364.335 269.827C365.7 269.827 366.783 270.207 367.585 270.968C368.387 271.728 368.788 272.671 368.788 273.796C368.788 274.369 368.668 274.936 368.429 275.499C368.2 276.051 367.814 276.634 367.273 277.249C366.731 277.853 365.83 278.691 364.569 279.764C363.507 280.65 362.825 281.249 362.523 281.561C362.231 281.874 361.986 282.191 361.788 282.514H368.804ZM370.569 277.139C370.569 275.452 370.741 274.093 371.085 273.061C371.439 272.02 371.96 271.223 372.648 270.671C373.335 270.108 374.2 269.827 375.241 269.827C376.012 269.827 376.684 269.983 377.257 270.296C377.84 270.598 378.319 271.04 378.694 271.624C379.069 272.207 379.366 272.921 379.585 273.764C379.804 274.598 379.913 275.723 379.913 277.139C379.913 278.816 379.736 280.171 379.382 281.202C379.038 282.233 378.523 283.035 377.835 283.608C377.158 284.171 376.293 284.452 375.241 284.452C373.856 284.452 372.773 283.957 371.991 282.968C371.043 281.77 370.569 279.827 370.569 277.139ZM372.382 277.139C372.382 279.494 372.653 281.061 373.194 281.843C373.746 282.613 374.429 282.999 375.241 282.999C376.043 282.999 376.72 282.608 377.273 281.827C377.825 281.046 378.101 279.483 378.101 277.139C378.101 274.785 377.825 273.223 377.273 272.452C376.72 271.671 376.038 271.28 375.226 271.28C374.413 271.28 373.767 271.624 373.288 272.311C372.684 273.176 372.382 274.785 372.382 277.139ZM388.194 284.202H386.429V272.999C386.012 273.405 385.46 273.811 384.773 274.218C384.085 274.613 383.465 274.915 382.913 275.124V273.421C383.903 272.962 384.762 272.405 385.491 271.749C386.231 271.082 386.752 270.441 387.054 269.827H388.194V284.202ZM392.569 280.452L394.413 280.296C394.549 281.191 394.866 281.869 395.366 282.327C395.866 282.775 396.47 282.999 397.179 282.999C398.023 282.999 398.736 282.681 399.319 282.046C399.903 281.41 400.194 280.561 400.194 279.499C400.194 278.499 399.913 277.712 399.351 277.139C398.788 276.556 398.054 276.264 397.148 276.264C396.575 276.264 396.059 276.395 395.601 276.655C395.153 276.905 394.799 277.238 394.538 277.655L392.882 277.436L394.273 270.077H401.398V271.764H395.679L394.913 275.608C395.767 275.004 396.668 274.702 397.616 274.702C398.866 274.702 399.918 275.139 400.773 276.014C401.637 276.879 402.069 277.988 402.069 279.343C402.069 280.645 401.689 281.764 400.929 282.702C400.012 283.869 398.762 284.452 397.179 284.452C395.877 284.452 394.809 284.087 393.976 283.358C393.153 282.629 392.684 281.66 392.569 280.452Z" fill="white"/>
<path d="M230.628 299.292V300.979H221.175C221.164 300.552 221.232 300.146 221.378 299.761C221.618 299.115 222.003 298.479 222.534 297.854C223.065 297.229 223.831 296.506 224.831 295.683C226.394 294.412 227.446 293.407 227.987 292.667C228.539 291.917 228.815 291.209 228.815 290.542C228.815 289.844 228.565 289.256 228.065 288.776C227.565 288.297 226.914 288.058 226.112 288.058C225.269 288.058 224.592 288.313 224.081 288.823C223.571 289.334 223.315 290.037 223.315 290.933L221.503 290.745C221.628 289.401 222.092 288.375 222.894 287.667C223.706 286.959 224.795 286.604 226.159 286.604C227.524 286.604 228.607 286.985 229.409 287.745C230.211 288.506 230.612 289.448 230.612 290.573C230.612 291.146 230.493 291.714 230.253 292.276C230.024 292.828 229.638 293.412 229.097 294.026C228.555 294.631 227.654 295.469 226.394 296.542C225.331 297.427 224.649 298.026 224.347 298.339C224.055 298.651 223.81 298.969 223.612 299.292H230.628ZM232.394 293.917C232.394 292.229 232.565 290.87 232.909 289.839C233.263 288.797 233.784 288 234.472 287.448C235.159 286.886 236.024 286.604 237.065 286.604C237.836 286.604 238.508 286.761 239.081 287.073C239.664 287.375 240.144 287.818 240.519 288.401C240.894 288.985 241.19 289.698 241.409 290.542C241.628 291.375 241.737 292.5 241.737 293.917C241.737 295.594 241.56 296.948 241.206 297.979C240.862 299.011 240.347 299.813 239.659 300.386C238.982 300.948 238.118 301.229 237.065 301.229C235.68 301.229 234.597 300.735 233.815 299.745C232.868 298.547 232.394 296.604 232.394 293.917ZM234.206 293.917C234.206 296.271 234.477 297.839 235.019 298.62C235.571 299.391 236.253 299.776 237.065 299.776C237.868 299.776 238.545 299.386 239.097 298.604C239.649 297.823 239.925 296.261 239.925 293.917C239.925 291.563 239.649 290 239.097 289.229C238.545 288.448 237.862 288.058 237.05 288.058C236.237 288.058 235.592 288.401 235.112 289.089C234.508 289.953 234.206 291.563 234.206 293.917ZM250.019 300.979H248.253V289.776C247.836 290.183 247.284 290.589 246.597 290.995C245.909 291.391 245.289 291.693 244.737 291.901V290.198C245.727 289.74 246.586 289.183 247.315 288.526C248.055 287.86 248.576 287.219 248.878 286.604H250.019V300.979ZM263.519 290.167L261.769 290.308C261.612 289.62 261.394 289.12 261.112 288.808C260.633 288.297 260.045 288.042 259.347 288.042C258.784 288.042 258.295 288.198 257.878 288.511C257.326 288.917 256.888 289.511 256.565 290.292C256.243 291.063 256.076 292.162 256.065 293.589C256.493 292.953 257.008 292.479 257.612 292.167C258.227 291.854 258.873 291.698 259.55 291.698C260.717 291.698 261.711 292.131 262.534 292.995C263.357 293.849 263.769 294.959 263.769 296.323C263.769 297.229 263.576 298.068 263.191 298.839C262.805 299.61 262.274 300.203 261.597 300.62C260.92 301.026 260.149 301.229 259.284 301.229C257.826 301.229 256.633 300.693 255.706 299.62C254.779 298.537 254.315 296.756 254.315 294.276C254.315 291.516 254.826 289.506 255.847 288.245C256.743 287.151 257.946 286.604 259.456 286.604C260.581 286.604 261.503 286.922 262.222 287.558C262.941 288.183 263.373 289.052 263.519 290.167ZM256.347 296.339C256.347 296.943 256.472 297.521 256.722 298.073C256.982 298.625 257.342 299.047 257.8 299.339C258.269 299.631 258.753 299.776 259.253 299.776C260.003 299.776 260.644 299.479 261.175 298.886C261.706 298.282 261.972 297.464 261.972 296.433C261.972 295.443 261.706 294.667 261.175 294.104C260.654 293.532 259.993 293.245 259.19 293.245C258.399 293.245 257.727 293.532 257.175 294.104C256.623 294.667 256.347 295.412 256.347 296.339Z" fill="white"/>
<path d="M165.942 205.58V207.267H156.489C156.479 206.84 156.547 206.434 156.692 206.049C156.932 205.403 157.317 204.767 157.849 204.142C158.38 203.517 159.146 202.793 160.146 201.97C161.708 200.7 162.76 199.694 163.302 198.955C163.854 198.205 164.13 197.497 164.13 196.83C164.13 196.132 163.88 195.543 163.38 195.064C162.88 194.585 162.229 194.345 161.427 194.345C160.583 194.345 159.906 194.601 159.396 195.111C158.885 195.621 158.63 196.325 158.63 197.22L156.817 197.033C156.942 195.689 157.406 194.663 158.208 193.955C159.021 193.247 160.109 192.892 161.474 192.892C162.838 192.892 163.922 193.273 164.724 194.033C165.526 194.793 165.927 195.736 165.927 196.861C165.927 197.434 165.807 198.002 165.567 198.564C165.338 199.116 164.953 199.7 164.411 200.314C163.87 200.918 162.968 201.757 161.708 202.83C160.646 203.715 159.963 204.314 159.661 204.627C159.37 204.939 159.125 205.257 158.927 205.58H165.942ZM167.708 200.205C167.708 198.517 167.88 197.158 168.224 196.127C168.578 195.085 169.099 194.288 169.786 193.736C170.474 193.174 171.338 192.892 172.38 192.892C173.151 192.892 173.823 193.049 174.396 193.361C174.979 193.663 175.458 194.106 175.833 194.689C176.208 195.273 176.505 195.986 176.724 196.83C176.942 197.663 177.052 198.788 177.052 200.205C177.052 201.882 176.875 203.236 176.521 204.267C176.177 205.299 175.661 206.101 174.974 206.674C174.297 207.236 173.432 207.517 172.38 207.517C170.995 207.517 169.911 207.023 169.13 206.033C168.182 204.835 167.708 202.892 167.708 200.205ZM169.521 200.205C169.521 202.559 169.791 204.127 170.333 204.908C170.885 205.679 171.567 206.064 172.38 206.064C173.182 206.064 173.859 205.674 174.411 204.892C174.963 204.111 175.239 202.549 175.239 200.205C175.239 197.851 174.963 196.288 174.411 195.517C173.859 194.736 173.177 194.345 172.364 194.345C171.552 194.345 170.906 194.689 170.427 195.377C169.823 196.241 169.521 197.851 169.521 200.205ZM185.333 207.267H183.567V196.064C183.151 196.47 182.599 196.877 181.911 197.283C181.224 197.679 180.604 197.981 180.052 198.189V196.486C181.041 196.028 181.901 195.47 182.63 194.814C183.37 194.148 183.89 193.507 184.192 192.892H185.333V207.267ZM189.833 194.83V193.142H199.099V194.502C198.182 195.47 197.276 196.762 196.38 198.377C195.484 199.981 194.797 201.632 194.317 203.33C193.963 204.528 193.734 205.84 193.63 207.267H191.833C191.854 206.142 192.073 204.783 192.489 203.189C192.916 201.595 193.526 200.059 194.317 198.58C195.109 197.09 195.948 195.84 196.833 194.83H189.833Z" fill="white"/>
<path d="M186.737 121.218V122.905H177.284C177.274 122.478 177.342 122.072 177.487 121.686C177.727 121.04 178.112 120.405 178.644 119.78C179.175 119.155 179.94 118.431 180.94 117.608C182.503 116.337 183.555 115.332 184.097 114.593C184.649 113.843 184.925 113.134 184.925 112.468C184.925 111.77 184.675 111.181 184.175 110.702C183.675 110.223 183.024 109.983 182.222 109.983C181.378 109.983 180.701 110.238 180.19 110.749C179.68 111.259 179.425 111.962 179.425 112.858L177.612 112.671C177.737 111.327 178.201 110.301 179.003 109.593C179.815 108.884 180.904 108.53 182.269 108.53C183.633 108.53 184.717 108.91 185.519 109.671C186.321 110.431 186.722 111.374 186.722 112.499C186.722 113.072 186.602 113.639 186.362 114.202C186.133 114.754 185.748 115.337 185.206 115.952C184.664 116.556 183.763 117.395 182.503 118.468C181.44 119.353 180.758 119.952 180.456 120.264C180.164 120.577 179.92 120.895 179.722 121.218H186.737ZM188.503 115.843C188.503 114.155 188.675 112.796 189.019 111.764C189.373 110.723 189.894 109.926 190.581 109.374C191.269 108.811 192.133 108.53 193.175 108.53C193.946 108.53 194.618 108.686 195.19 108.999C195.774 109.301 196.253 109.744 196.628 110.327C197.003 110.91 197.3 111.624 197.519 112.468C197.737 113.301 197.847 114.426 197.847 115.843C197.847 117.52 197.67 118.874 197.315 119.905C196.972 120.936 196.456 121.738 195.769 122.311C195.092 122.874 194.227 123.155 193.175 123.155C191.789 123.155 190.706 122.66 189.925 121.671C188.977 120.473 188.503 118.53 188.503 115.843ZM190.315 115.843C190.315 118.197 190.586 119.764 191.128 120.546C191.68 121.316 192.362 121.702 193.175 121.702C193.977 121.702 194.654 121.311 195.206 120.53C195.758 119.749 196.034 118.186 196.034 115.843C196.034 113.488 195.758 111.926 195.206 111.155C194.654 110.374 193.972 109.983 193.159 109.983C192.347 109.983 191.701 110.327 191.222 111.014C190.618 111.879 190.315 113.488 190.315 115.843ZM206.128 122.905H204.362V111.702C203.946 112.108 203.394 112.514 202.706 112.921C202.019 113.316 201.399 113.619 200.847 113.827V112.124C201.836 111.665 202.696 111.108 203.425 110.452C204.164 109.785 204.685 109.145 204.987 108.53H206.128V122.905ZM213.206 115.139C212.477 114.869 211.935 114.488 211.581 113.999C211.237 113.499 211.065 112.905 211.065 112.218C211.065 111.176 211.44 110.301 212.19 109.593C212.94 108.884 213.935 108.53 215.175 108.53C216.425 108.53 217.43 108.895 218.19 109.624C218.951 110.343 219.331 111.223 219.331 112.264C219.331 112.931 219.154 113.509 218.8 113.999C218.456 114.488 217.93 114.869 217.222 115.139C218.107 115.431 218.779 115.895 219.237 116.53C219.696 117.165 219.925 117.926 219.925 118.811C219.925 120.04 219.487 121.072 218.612 121.905C217.748 122.738 216.612 123.155 215.206 123.155C213.789 123.155 212.649 122.738 211.784 121.905C210.92 121.061 210.487 120.014 210.487 118.764C210.487 117.837 210.722 117.061 211.19 116.436C211.67 115.801 212.342 115.369 213.206 115.139ZM212.862 112.155C212.862 112.832 213.081 113.389 213.519 113.827C213.956 114.254 214.519 114.468 215.206 114.468C215.883 114.468 216.44 114.254 216.878 113.827C217.315 113.4 217.534 112.879 217.534 112.264C217.534 111.619 217.31 111.077 216.862 110.639C216.414 110.191 215.857 109.968 215.19 109.968C214.524 109.968 213.967 110.186 213.519 110.624C213.081 111.051 212.862 111.561 212.862 112.155ZM212.3 118.78C212.3 119.28 212.414 119.764 212.644 120.233C212.883 120.702 213.237 121.066 213.706 121.327C214.175 121.577 214.68 121.702 215.222 121.702C216.065 121.702 216.758 121.431 217.3 120.889C217.852 120.348 218.128 119.66 218.128 118.827C218.128 117.983 217.847 117.285 217.284 116.733C216.722 116.181 216.013 115.905 215.159 115.905C214.336 115.905 213.654 116.181 213.112 116.733C212.571 117.275 212.3 117.957 212.3 118.78Z" fill="white"/>
<path d="M257.935 70.6072V72.2947H248.482C248.471 71.8676 248.539 71.4613 248.685 71.0759C248.924 70.4301 249.31 69.7947 249.841 69.1697C250.372 68.5447 251.138 67.8207 252.138 66.9978C253.7 65.727 254.752 64.7218 255.294 63.9822C255.846 63.2322 256.122 62.5238 256.122 61.8572C256.122 61.1593 255.872 60.5707 255.372 60.0916C254.872 59.6124 254.221 59.3728 253.419 59.3728C252.575 59.3728 251.898 59.628 251.388 60.1384C250.877 60.6488 250.622 61.352 250.622 62.2478L248.81 62.0603C248.935 60.7166 249.398 59.6905 250.2 58.9822C251.013 58.2738 252.101 57.9197 253.466 57.9197C254.83 57.9197 255.914 58.2999 256.716 59.0603C257.518 59.8207 257.919 60.7634 257.919 61.8884C257.919 62.4613 257.799 63.0291 257.56 63.5916C257.33 64.1436 256.945 64.727 256.403 65.3416C255.862 65.9457 254.961 66.7843 253.7 67.8572C252.638 68.7426 251.955 69.3416 251.653 69.6541C251.362 69.9666 251.117 70.2843 250.919 70.6072H257.935ZM259.7 65.2322C259.7 63.5447 259.872 62.1853 260.216 61.1541C260.57 60.1124 261.091 59.3155 261.778 58.7634C262.466 58.2009 263.33 57.9197 264.372 57.9197C265.143 57.9197 265.815 58.0759 266.388 58.3884C266.971 58.6905 267.45 59.1332 267.825 59.7166C268.2 60.2999 268.497 61.0134 268.716 61.8572C268.935 62.6905 269.044 63.8155 269.044 65.2322C269.044 66.9093 268.867 68.2634 268.513 69.2947C268.169 70.3259 267.653 71.128 266.966 71.7009C266.289 72.2634 265.424 72.5447 264.372 72.5447C262.987 72.5447 261.903 72.0499 261.122 71.0603C260.174 69.8624 259.7 67.9197 259.7 65.2322ZM261.513 65.2322C261.513 67.5863 261.784 69.1541 262.325 69.9353C262.877 70.7061 263.56 71.0916 264.372 71.0916C265.174 71.0916 265.851 70.7009 266.403 69.9197C266.955 69.1384 267.231 67.5759 267.231 65.2322C267.231 62.878 266.955 61.3155 266.403 60.5447C265.851 59.7634 265.169 59.3728 264.356 59.3728C263.544 59.3728 262.898 59.7166 262.419 60.4041C261.815 61.2686 261.513 62.878 261.513 65.2322ZM277.325 72.2947H275.56V61.0916C275.143 61.4978 274.591 61.9041 273.903 62.3103C273.216 62.7061 272.596 63.0082 272.044 63.2166V61.5134C273.034 61.0551 273.893 60.4978 274.622 59.8416C275.362 59.1749 275.883 58.5343 276.185 57.9197H277.325V72.2947ZM281.966 68.9822L283.653 68.8259C283.799 69.6176 284.07 70.1957 284.466 70.5603C284.872 70.9145 285.393 71.0916 286.028 71.0916C286.57 71.0916 287.044 70.9718 287.45 70.7322C287.856 70.4822 288.19 70.1488 288.45 69.7322C288.711 69.3155 288.929 68.7582 289.106 68.0603C289.284 67.352 289.372 66.6332 289.372 65.9041C289.372 65.8311 289.367 65.7166 289.356 65.5603C289.002 66.1124 288.523 66.5655 287.919 66.9197C287.315 67.2634 286.653 67.4353 285.935 67.4353C284.758 67.4353 283.758 67.0082 282.935 66.1541C282.112 65.2895 281.7 64.1541 281.7 62.7478C281.7 61.2999 282.127 60.1332 282.981 59.2478C283.846 58.3624 284.919 57.9197 286.2 57.9197C287.138 57.9197 287.992 58.1697 288.763 58.6697C289.534 59.1697 290.117 59.8832 290.513 60.8103C290.919 61.7374 291.122 63.0811 291.122 64.8416C291.122 66.6749 290.919 68.1332 290.513 69.2166C290.117 70.2999 289.528 71.128 288.747 71.7009C287.966 72.2634 287.049 72.5447 285.997 72.5447C284.872 72.5447 283.955 72.2322 283.247 71.6072C282.539 70.9822 282.112 70.1072 281.966 68.9822ZM289.169 62.6697C289.169 61.6593 288.898 60.8572 288.356 60.2634C287.825 59.6697 287.179 59.3728 286.419 59.3728C285.638 59.3728 284.955 59.6957 284.372 60.3416C283.799 60.977 283.513 61.7999 283.513 62.8103C283.513 63.727 283.784 64.4718 284.325 65.0447C284.877 65.6072 285.56 65.8884 286.372 65.8884C287.185 65.8884 287.851 65.6072 288.372 65.0447C288.903 64.4718 289.169 63.6801 289.169 62.6697Z" fill="black"/>
</g>
</g>
<defs>
<clipPath id="clip0_1745_437">
<rect width="600" height="371" fill="white"/>
</clipPath>
<clipPath id="clip1_1745_437">
<rect width="589" height="363" fill="white" transform="translate(5 4)"/>
</clipPath>
</defs>
</svg>
