<svg width="600" height="371" viewBox="0 0 600 371" fill="none" xmlns="http://www.w3.org/2000/svg">
<g clip-path="url(#clip0_1672_334)">
<path d="M0 0H600V371H0V0Z" fill="#1A1B1F"/>
<path d="M300 18.55C365.361 18.55 424.711 56.6918 451.863 116.147L375.932 150.823C362.355 121.096 332.681 102.025 300 102.025V18.55Z" fill="#42F4B1"/>
<path d="M451.863 116.146C465.159 145.259 469.806 177.58 465.251 209.259L382.625 197.38C384.903 181.54 382.579 165.38 375.932 150.823L451.863 116.146Z" fill="#67FDC5"/>
<path d="M465.25 209.259C460.696 240.939 447.131 270.641 426.172 294.829L363.086 240.164C373.565 228.071 380.348 213.219 382.625 197.38L465.25 209.259Z" fill="#8BF6CE"/>
<path d="M426.172 294.829C405.213 319.017 377.744 336.671 347.035 345.687L323.518 265.594C338.872 261.085 352.607 252.258 363.086 240.165L426.172 294.829Z" fill="#BCFFE6"/>
<path d="M148.137 116.147C175.289 56.6918 234.639 18.55 300 18.55V102.025C267.319 102.025 237.644 121.096 224.068 150.823L148.137 116.147Z" fill="#1CDB93"/>
<path d="M173.828 294.829C131.025 245.432 120.985 175.601 148.137 116.146L224.069 150.823C210.493 180.551 215.513 215.466 236.914 240.165L173.828 294.829Z" fill="#03B974"/>
<path d="M347.035 345.687C284.321 364.102 216.63 344.226 173.827 294.829L236.913 240.165C258.315 264.863 292.16 274.801 323.517 265.594L347.035 345.687Z" fill="#008B56"/>
<path fill-rule="evenodd" clip-rule="evenodd" d="M346.383 87.1646H348.148V72.7896H347.008C346.706 73.4041 346.185 74.0448 345.445 74.7114C344.716 75.3677 343.857 75.925 342.867 76.3833V78.0864C343.419 77.8781 344.039 77.576 344.727 77.1802C345.414 76.7739 345.966 76.3677 346.383 75.9614V87.1646ZM354.477 83.6958L352.789 83.8521C352.935 84.9771 353.362 85.8521 354.07 86.4771C354.779 87.1021 355.695 87.4146 356.82 87.4146C357.872 87.4146 358.789 87.1333 359.57 86.5708C360.352 85.9979 360.94 85.1698 361.336 84.0864C361.742 83.0031 361.945 81.5448 361.945 79.7114C361.945 77.951 361.742 76.6073 361.336 75.6802C360.94 74.7531 360.357 74.0396 359.586 73.5396C358.815 73.0396 357.961 72.7896 357.023 72.7896C355.742 72.7896 354.669 73.2323 353.805 74.1177C352.951 75.0031 352.523 76.1698 352.523 77.6177C352.523 79.0239 352.935 80.1593 353.758 81.0239C354.581 81.8781 355.581 82.3052 356.758 82.3052C357.477 82.3052 358.138 82.1333 358.742 81.7896C359.346 81.4354 359.826 80.9823 360.18 80.4302C360.19 80.5864 360.195 80.701 360.195 80.7739C360.195 81.5031 360.107 82.2218 359.93 82.9302C359.753 83.6281 359.534 84.1854 359.273 84.6021C359.013 85.0187 358.68 85.3521 358.273 85.6021C357.867 85.8416 357.393 85.9614 356.852 85.9614C356.216 85.9614 355.695 85.7843 355.289 85.4302C354.893 85.0656 354.622 84.4875 354.477 83.6958ZM359.18 75.1333C359.721 75.7271 359.992 76.5291 359.992 77.5396C359.992 78.55 359.727 79.3416 359.195 79.9146C358.674 80.4771 358.008 80.7583 357.195 80.7583C356.383 80.7583 355.701 80.4771 355.148 79.9146C354.607 79.3416 354.336 78.5968 354.336 77.6802C354.336 76.6698 354.622 75.8468 355.195 75.2114C355.779 74.5656 356.461 74.2427 357.242 74.2427C358.003 74.2427 358.648 74.5396 359.18 75.1333ZM365.477 83.6958L363.789 83.8521C363.935 84.9771 364.362 85.8521 365.07 86.4771C365.779 87.1021 366.695 87.4146 367.82 87.4146C368.872 87.4146 369.789 87.1333 370.57 86.5708C371.352 85.9979 371.94 85.1698 372.336 84.0864C372.742 83.0031 372.945 81.5448 372.945 79.7114C372.945 77.951 372.742 76.6073 372.336 75.6802C371.94 74.7531 371.357 74.0396 370.586 73.5396C369.815 73.0396 368.961 72.7896 368.023 72.7896C366.742 72.7896 365.669 73.2323 364.805 74.1177C363.951 75.0031 363.523 76.1698 363.523 77.6177C363.523 79.0239 363.935 80.1593 364.758 81.0239C365.581 81.8781 366.581 82.3052 367.758 82.3052C368.477 82.3052 369.138 82.1333 369.742 81.7896C370.346 81.4354 370.826 80.9823 371.18 80.4302C371.19 80.5864 371.195 80.701 371.195 80.7739C371.195 81.5031 371.107 82.2218 370.93 82.9302C370.753 83.6281 370.534 84.1854 370.273 84.6021C370.013 85.0187 369.68 85.3521 369.273 85.6021C368.867 85.8416 368.393 85.9614 367.852 85.9614C367.216 85.9614 366.695 85.7843 366.289 85.4302C365.893 85.0656 365.622 84.4875 365.477 83.6958ZM370.18 75.1333C370.721 75.7271 370.992 76.5291 370.992 77.5396C370.992 78.55 370.727 79.3416 370.195 79.9146C369.674 80.4771 369.008 80.7583 368.195 80.7583C367.383 80.7583 366.701 80.4771 366.148 79.9146C365.607 79.3416 365.336 78.5968 365.336 77.6802C365.336 76.6698 365.622 75.8468 366.195 75.2114C366.779 74.5656 367.461 74.2427 368.242 74.2427C369.003 74.2427 369.648 74.5396 370.18 75.1333ZM375.039 76.0239C374.695 77.0552 374.523 78.4146 374.523 80.1021C374.523 82.7896 374.997 84.7323 375.945 85.9302C376.727 86.9198 377.81 87.4146 379.195 87.4146C380.247 87.4146 381.112 87.1333 381.789 86.5708C382.477 85.9979 382.992 85.1958 383.336 84.1646C383.69 83.1333 383.867 81.7791 383.867 80.1021C383.867 78.6854 383.758 77.5604 383.539 76.7271C383.32 75.8833 383.023 75.1698 382.648 74.5864C382.273 74.0031 381.794 73.5604 381.211 73.2583C380.638 72.9458 379.966 72.7896 379.195 72.7896C378.154 72.7896 377.289 73.0708 376.602 73.6333C375.914 74.1854 375.393 74.9823 375.039 76.0239ZM377.148 84.8052C376.607 84.0239 376.336 82.4562 376.336 80.1021C376.336 77.7479 376.638 76.1385 377.242 75.2739C377.721 74.5864 378.367 74.2427 379.18 74.2427C379.992 74.2427 380.674 74.6333 381.227 75.4146C381.779 76.1854 382.055 77.7479 382.055 80.1021C382.055 82.4458 381.779 84.0083 381.227 84.7896C380.674 85.5708 379.997 85.9614 379.195 85.9614C378.383 85.9614 377.701 85.576 377.148 84.8052Z" fill="black"/>
<path fill-rule="evenodd" clip-rule="evenodd" d="M402.626 174.68H404.392V160.305H403.251C402.949 160.92 402.428 161.561 401.688 162.227C400.959 162.884 400.1 163.441 399.11 163.899V165.602C399.662 165.394 400.282 165.092 400.97 164.696C401.657 164.29 402.209 163.884 402.626 163.477V174.68ZM410.72 171.212L409.032 171.368C409.178 172.493 409.605 173.368 410.313 173.993C411.022 174.618 411.938 174.93 413.063 174.93C414.116 174.93 415.032 174.649 415.813 174.087C416.595 173.514 417.183 172.686 417.579 171.602C417.985 170.519 418.188 169.061 418.188 167.227C418.188 165.467 417.985 164.123 417.579 163.196C417.183 162.269 416.6 161.555 415.829 161.055C415.058 160.555 414.204 160.305 413.267 160.305C411.985 160.305 410.912 160.748 410.048 161.634C409.194 162.519 408.767 163.686 408.767 165.134C408.767 166.54 409.178 167.675 410.001 168.54C410.824 169.394 411.824 169.821 413.001 169.821C413.72 169.821 414.381 169.649 414.985 169.305C415.59 168.951 416.069 168.498 416.423 167.946C416.433 168.102 416.438 168.217 416.438 168.29C416.438 169.019 416.35 169.738 416.173 170.446C415.996 171.144 415.777 171.701 415.517 172.118C415.256 172.535 414.923 172.868 414.517 173.118C414.11 173.358 413.636 173.477 413.095 173.477C412.459 173.477 411.938 173.3 411.532 172.946C411.136 172.581 410.866 172.003 410.72 171.212ZM415.423 162.649C415.965 163.243 416.235 164.045 416.235 165.055C416.235 166.066 415.97 166.858 415.438 167.43C414.918 167.993 414.251 168.274 413.438 168.274C412.626 168.274 411.944 167.993 411.392 167.43C410.85 166.858 410.579 166.113 410.579 165.196C410.579 164.186 410.866 163.363 411.438 162.727C412.022 162.081 412.704 161.759 413.485 161.759C414.246 161.759 414.892 162.055 415.423 162.649ZM421.72 171.212L420.032 171.368C420.178 172.493 420.605 173.368 421.313 173.993C422.022 174.618 422.938 174.93 424.063 174.93C425.116 174.93 426.032 174.649 426.813 174.087C427.595 173.514 428.183 172.686 428.579 171.602C428.985 170.519 429.188 169.061 429.188 167.227C429.188 165.467 428.985 164.123 428.579 163.196C428.183 162.269 427.6 161.555 426.829 161.055C426.058 160.555 425.204 160.305 424.267 160.305C422.985 160.305 421.912 160.748 421.048 161.634C420.194 162.519 419.767 163.686 419.767 165.134C419.767 166.54 420.178 167.675 421.001 168.54C421.824 169.394 422.824 169.821 424.001 169.821C424.72 169.821 425.381 169.649 425.985 169.305C426.59 168.951 427.069 168.498 427.423 167.946C427.433 168.102 427.438 168.217 427.438 168.29C427.438 169.019 427.35 169.738 427.173 170.446C426.996 171.144 426.777 171.701 426.517 172.118C426.256 172.535 425.923 172.868 425.517 173.118C425.11 173.358 424.636 173.477 424.095 173.477C423.459 173.477 422.938 173.3 422.532 172.946C422.136 172.581 421.866 172.003 421.72 171.212ZM426.423 162.649C426.965 163.243 427.235 164.045 427.235 165.055C427.235 166.066 426.97 166.858 426.438 167.43C425.918 167.993 425.251 168.274 424.438 168.274C423.626 168.274 422.944 167.993 422.392 167.43C421.85 166.858 421.579 166.113 421.579 165.196C421.579 164.186 421.866 163.363 422.438 162.727C423.022 162.081 423.704 161.759 424.485 161.759C425.246 161.759 425.892 162.055 426.423 162.649ZM435.626 174.68H437.392V160.305H436.251C435.949 160.92 435.428 161.561 434.688 162.227C433.959 162.884 433.1 163.441 432.11 163.899V165.602C432.662 165.394 433.282 165.092 433.97 164.696C434.657 164.29 435.209 163.884 435.626 163.477V174.68Z" fill="black"/>
<path fill-rule="evenodd" clip-rule="evenodd" d="M392.585 244.515H394.351V230.14H393.21C392.908 230.755 392.387 231.395 391.647 232.062C390.918 232.718 390.059 233.276 389.069 233.734V235.437C389.621 235.229 390.241 234.927 390.929 234.531C391.616 234.125 392.168 233.718 392.585 233.312V244.515ZM400.679 241.046L398.991 241.203C399.137 242.328 399.564 243.203 400.272 243.828C400.981 244.453 401.897 244.765 403.022 244.765C404.075 244.765 404.991 244.484 405.772 243.921C406.554 243.348 407.142 242.52 407.538 241.437C407.944 240.354 408.147 238.895 408.147 237.062C408.147 235.302 407.944 233.958 407.538 233.031C407.142 232.104 406.559 231.39 405.788 230.89C405.017 230.39 404.163 230.14 403.226 230.14C401.944 230.14 400.871 230.583 400.007 231.468C399.153 232.354 398.726 233.52 398.726 234.968C398.726 236.375 399.137 237.51 399.96 238.375C400.783 239.229 401.783 239.656 402.96 239.656C403.679 239.656 404.34 239.484 404.944 239.14C405.549 238.786 406.028 238.333 406.382 237.781C406.392 237.937 406.397 238.052 406.397 238.125C406.397 238.854 406.309 239.572 406.132 240.281C405.955 240.979 405.736 241.536 405.476 241.953C405.215 242.369 404.882 242.703 404.476 242.953C404.069 243.192 403.595 243.312 403.054 243.312C402.418 243.312 401.897 243.135 401.491 242.781C401.095 242.416 400.825 241.838 400.679 241.046ZM405.382 232.484C405.924 233.078 406.194 233.88 406.194 234.89C406.194 235.901 405.929 236.692 405.397 237.265C404.877 237.828 404.21 238.109 403.397 238.109C402.585 238.109 401.903 237.828 401.351 237.265C400.809 236.692 400.538 235.947 400.538 235.031C400.538 234.02 400.825 233.197 401.397 232.562C401.981 231.916 402.663 231.593 403.444 231.593C404.205 231.593 404.851 231.89 405.382 232.484ZM411.679 241.046L409.991 241.203C410.137 242.328 410.564 243.203 411.272 243.828C411.981 244.453 412.897 244.765 414.022 244.765C415.075 244.765 415.991 244.484 416.772 243.921C417.554 243.348 418.142 242.52 418.538 241.437C418.944 240.354 419.147 238.895 419.147 237.062C419.147 235.302 418.944 233.958 418.538 233.031C418.142 232.104 417.559 231.39 416.788 230.89C416.017 230.39 415.163 230.14 414.226 230.14C412.944 230.14 411.871 230.583 411.007 231.468C410.153 232.354 409.726 233.52 409.726 234.968C409.726 236.375 410.137 237.51 410.96 238.375C411.783 239.229 412.783 239.656 413.96 239.656C414.679 239.656 415.34 239.484 415.944 239.14C416.549 238.786 417.028 238.333 417.382 237.781C417.392 237.937 417.397 238.052 417.397 238.125C417.397 238.854 417.309 239.572 417.132 240.281C416.955 240.979 416.736 241.536 416.476 241.953C416.215 242.369 415.882 242.703 415.476 242.953C415.069 243.192 414.595 243.312 414.054 243.312C413.418 243.312 412.897 243.135 412.491 242.781C412.095 242.416 411.825 241.838 411.679 241.046ZM416.382 232.484C416.924 233.078 417.194 233.88 417.194 234.89C417.194 235.901 416.929 236.692 416.397 237.265C415.877 237.828 415.21 238.109 414.397 238.109C413.585 238.109 412.903 237.828 412.351 237.265C411.809 236.692 411.538 235.947 411.538 235.031C411.538 234.02 411.825 233.197 412.397 232.562C412.981 231.916 413.663 231.593 414.444 231.593C415.205 231.593 415.851 231.89 416.382 232.484ZM422.569 240.609L420.726 240.765C420.84 241.973 421.309 242.942 422.132 243.671C422.965 244.401 424.033 244.765 425.335 244.765C426.918 244.765 428.168 244.182 429.085 243.015C429.845 242.078 430.226 240.958 430.226 239.656C430.226 238.302 429.793 237.192 428.929 236.328C428.075 235.453 427.022 235.015 425.772 235.015C424.825 235.015 423.924 235.317 423.069 235.921L423.835 232.078H429.554V230.39H422.429L421.038 237.75L422.694 237.968C422.955 237.552 423.309 237.218 423.757 236.968C424.215 236.708 424.731 236.578 425.304 236.578C426.21 236.578 426.944 236.869 427.507 237.453C428.069 238.026 428.351 238.812 428.351 239.812C428.351 240.875 428.059 241.723 427.476 242.359C426.892 242.994 426.179 243.312 425.335 243.312C424.627 243.312 424.022 243.088 423.522 242.64C423.022 242.182 422.705 241.505 422.569 240.609Z" fill="black"/>
<path fill-rule="evenodd" clip-rule="evenodd" d="M346.383 297.835H348.148V283.46H347.008C346.706 284.075 346.185 284.716 345.445 285.382C344.716 286.039 343.857 286.596 342.867 287.054V288.757C343.419 288.549 344.039 288.247 344.727 287.851C345.414 287.445 345.966 287.039 346.383 286.632V297.835ZM354.477 294.367L352.789 294.523C352.935 295.648 353.362 296.523 354.07 297.148C354.779 297.773 355.695 298.085 356.82 298.085C357.872 298.085 358.789 297.804 359.57 297.242C360.352 296.669 360.94 295.841 361.336 294.757C361.742 293.674 361.945 292.216 361.945 290.382C361.945 288.622 361.742 287.278 361.336 286.351C360.94 285.424 360.357 284.71 359.586 284.21C358.815 283.71 357.961 283.46 357.023 283.46C355.742 283.46 354.669 283.903 353.805 284.789C352.951 285.674 352.523 286.841 352.523 288.289C352.523 289.695 352.935 290.83 353.758 291.695C354.581 292.549 355.581 292.976 356.758 292.976C357.477 292.976 358.138 292.804 358.742 292.46C359.346 292.106 359.826 291.653 360.18 291.101C360.19 291.257 360.195 291.372 360.195 291.445C360.195 292.174 360.107 292.893 359.93 293.601C359.753 294.299 359.534 294.856 359.273 295.273C359.013 295.69 358.68 296.023 358.273 296.273C357.867 296.513 357.393 296.632 356.852 296.632C356.216 296.632 355.695 296.455 355.289 296.101C354.893 295.736 354.622 295.158 354.477 294.367ZM359.18 285.804C359.721 286.398 359.992 287.2 359.992 288.21C359.992 289.221 359.727 290.013 359.195 290.585C358.674 291.148 358.008 291.429 357.195 291.429C356.383 291.429 355.701 291.148 355.148 290.585C354.607 290.013 354.336 289.268 354.336 288.351C354.336 287.341 354.622 286.518 355.195 285.882C355.779 285.236 356.461 284.914 357.242 284.914C358.003 284.914 358.648 285.21 359.18 285.804ZM365.477 294.367L363.789 294.523C363.935 295.648 364.362 296.523 365.07 297.148C365.779 297.773 366.695 298.085 367.82 298.085C368.872 298.085 369.789 297.804 370.57 297.242C371.352 296.669 371.94 295.841 372.336 294.757C372.742 293.674 372.945 292.216 372.945 290.382C372.945 288.622 372.742 287.278 372.336 286.351C371.94 285.424 371.357 284.71 370.586 284.21C369.815 283.71 368.961 283.46 368.023 283.46C366.742 283.46 365.669 283.903 364.805 284.789C363.951 285.674 363.523 286.841 363.523 288.289C363.523 289.695 363.935 290.83 364.758 291.695C365.581 292.549 366.581 292.976 367.758 292.976C368.477 292.976 369.138 292.804 369.742 292.46C370.346 292.106 370.826 291.653 371.18 291.101C371.19 291.257 371.195 291.372 371.195 291.445C371.195 292.174 371.107 292.893 370.93 293.601C370.753 294.299 370.534 294.856 370.273 295.273C370.013 295.69 369.68 296.023 369.273 296.273C368.867 296.513 368.393 296.632 367.852 296.632C367.216 296.632 366.695 296.455 366.289 296.101C365.893 295.736 365.622 295.158 365.477 294.367ZM370.18 285.804C370.721 286.398 370.992 287.2 370.992 288.21C370.992 289.221 370.727 290.013 370.195 290.585C369.674 291.148 369.008 291.429 368.195 291.429C367.383 291.429 366.701 291.148 366.148 290.585C365.607 290.013 365.336 289.268 365.336 288.351C365.336 287.341 365.622 286.518 366.195 285.882C366.779 285.236 367.461 284.914 368.242 284.914C369.003 284.914 369.648 285.21 370.18 285.804ZM381.898 287.164L383.648 287.023C383.503 285.908 383.07 285.039 382.352 284.414C381.633 283.778 380.711 283.46 379.586 283.46C378.076 283.46 376.872 284.007 375.977 285.101C374.956 286.361 374.445 288.372 374.445 291.132C374.445 293.611 374.909 295.393 375.836 296.476C376.763 297.549 377.956 298.085 379.414 298.085C380.279 298.085 381.049 297.882 381.727 297.476C382.404 297.059 382.935 296.466 383.32 295.695C383.706 294.924 383.898 294.085 383.898 293.179C383.898 291.815 383.487 290.705 382.664 289.851C381.841 288.986 380.846 288.554 379.68 288.554C379.003 288.554 378.357 288.71 377.742 289.023C377.138 289.335 376.622 289.809 376.195 290.445C376.206 289.018 376.372 287.919 376.695 287.148C377.018 286.367 377.456 285.773 378.008 285.367C378.424 285.054 378.914 284.898 379.477 284.898C380.174 284.898 380.763 285.153 381.242 285.664C381.523 285.976 381.742 286.476 381.898 287.164ZM376.852 294.929C376.602 294.377 376.477 293.799 376.477 293.195C376.477 292.268 376.753 291.523 377.305 290.96C377.857 290.388 378.529 290.101 379.32 290.101C380.122 290.101 380.784 290.388 381.305 290.96C381.836 291.523 382.102 292.299 382.102 293.289C382.102 294.32 381.836 295.138 381.305 295.742C380.773 296.335 380.133 296.632 379.383 296.632C378.883 296.632 378.398 296.486 377.93 296.195C377.471 295.903 377.112 295.481 376.852 294.929Z" fill="black"/>
<path fill-rule="evenodd" clip-rule="evenodd" d="M243.411 312.641H245.177V298.266H244.036C243.734 298.88 243.213 299.521 242.474 300.188C241.744 300.844 240.885 301.401 239.896 301.859V303.562C240.448 303.354 241.067 303.052 241.755 302.656C242.442 302.25 242.994 301.844 243.411 301.438V312.641ZM251.505 309.172L249.817 309.328C249.963 310.453 250.39 311.328 251.099 311.953C251.807 312.578 252.724 312.891 253.849 312.891C254.901 312.891 255.817 312.609 256.599 312.047C257.38 311.474 257.968 310.646 258.364 309.562C258.771 308.479 258.974 307.021 258.974 305.188C258.974 303.427 258.771 302.083 258.364 301.156C257.968 300.229 257.385 299.516 256.614 299.016C255.843 298.516 254.989 298.266 254.052 298.266C252.771 298.266 251.698 298.708 250.833 299.594C249.979 300.479 249.552 301.646 249.552 303.094C249.552 304.5 249.963 305.635 250.786 306.5C251.609 307.354 252.609 307.781 253.786 307.781C254.505 307.781 255.166 307.609 255.771 307.266C256.375 306.911 256.854 306.458 257.208 305.906C257.218 306.062 257.224 306.177 257.224 306.25C257.224 306.979 257.135 307.698 256.958 308.406C256.781 309.104 256.562 309.661 256.302 310.078C256.041 310.495 255.708 310.828 255.302 311.078C254.896 311.318 254.422 311.438 253.88 311.438C253.244 311.438 252.724 311.26 252.317 310.906C251.922 310.542 251.651 309.964 251.505 309.172ZM256.208 300.609C256.75 301.203 257.021 302.005 257.021 303.016C257.021 304.026 256.755 304.818 256.224 305.391C255.703 305.953 255.036 306.234 254.224 306.234C253.411 306.234 252.729 305.953 252.177 305.391C251.635 304.818 251.364 304.073 251.364 303.156C251.364 302.146 251.651 301.323 252.224 300.688C252.807 300.042 253.489 299.719 254.271 299.719C255.031 299.719 255.677 300.016 256.208 300.609ZM262.505 309.172L260.817 309.328C260.963 310.453 261.39 311.328 262.099 311.953C262.807 312.578 263.724 312.891 264.849 312.891C265.901 312.891 266.817 312.609 267.599 312.047C268.38 311.474 268.968 310.646 269.364 309.562C269.771 308.479 269.974 307.021 269.974 305.188C269.974 303.427 269.771 302.083 269.364 301.156C268.968 300.229 268.385 299.516 267.614 299.016C266.843 298.516 265.989 298.266 265.052 298.266C263.771 298.266 262.698 298.708 261.833 299.594C260.979 300.479 260.552 301.646 260.552 303.094C260.552 304.5 260.963 305.635 261.786 306.5C262.609 307.354 263.609 307.781 264.786 307.781C265.505 307.781 266.166 307.609 266.771 307.266C267.375 306.911 267.854 306.458 268.208 305.906C268.218 306.062 268.224 306.177 268.224 306.25C268.224 306.979 268.135 307.698 267.958 308.406C267.781 309.104 267.562 309.661 267.302 310.078C267.041 310.495 266.708 310.828 266.302 311.078C265.896 311.318 265.422 311.438 264.88 311.438C264.244 311.438 263.724 311.26 263.317 310.906C262.922 310.542 262.651 309.964 262.505 309.172ZM267.208 300.609C267.75 301.203 268.021 302.005 268.021 303.016C268.021 304.026 267.755 304.818 267.224 305.391C266.703 305.953 266.036 306.234 265.224 306.234C264.411 306.234 263.729 305.953 263.177 305.391C262.635 304.818 262.364 304.073 262.364 303.156C262.364 302.146 262.651 301.323 263.224 300.688C263.807 300.042 264.489 299.719 265.271 299.719C266.031 299.719 266.677 300.016 267.208 300.609ZM271.677 298.516V300.203H278.677C277.791 301.214 276.953 302.464 276.161 303.953C275.369 305.432 274.76 306.969 274.333 308.562C273.916 310.156 273.698 311.516 273.677 312.641H275.474C275.578 311.214 275.807 309.901 276.161 308.703C276.64 307.005 277.328 305.354 278.224 303.75C279.119 302.135 280.026 300.844 280.942 299.875V298.516H271.677Z" fill="white"/>
<path fill-rule="evenodd" clip-rule="evenodd" d="M154.749 210.32H156.515V195.945H155.374C155.072 196.559 154.551 197.2 153.812 197.866C153.082 198.523 152.223 199.08 151.233 199.538V201.241C151.785 201.033 152.405 200.731 153.093 200.335C153.78 199.929 154.332 199.523 154.749 199.116V210.32ZM162.843 206.851L161.155 207.007C161.301 208.132 161.728 209.007 162.437 209.632C163.145 210.257 164.062 210.57 165.187 210.57C166.239 210.57 167.155 210.288 167.937 209.726C168.718 209.153 169.306 208.325 169.702 207.241C170.108 206.158 170.312 204.7 170.312 202.866C170.312 201.106 170.108 199.762 169.702 198.835C169.306 197.908 168.723 197.195 167.952 196.695C167.181 196.195 166.327 195.945 165.39 195.945C164.108 195.945 163.035 196.387 162.171 197.273C161.317 198.158 160.89 199.325 160.89 200.773C160.89 202.179 161.301 203.314 162.124 204.179C162.947 205.033 163.947 205.46 165.124 205.46C165.843 205.46 166.504 205.288 167.108 204.945C167.713 204.59 168.192 204.137 168.546 203.585C168.556 203.741 168.562 203.856 168.562 203.929C168.562 204.658 168.473 205.377 168.296 206.085C168.119 206.783 167.9 207.34 167.64 207.757C167.379 208.174 167.046 208.507 166.64 208.757C166.233 208.997 165.759 209.116 165.218 209.116C164.582 209.116 164.062 208.939 163.655 208.585C163.259 208.221 162.989 207.642 162.843 206.851ZM167.546 198.288C168.088 198.882 168.358 199.684 168.358 200.695C168.358 201.705 168.093 202.497 167.562 203.07C167.041 203.632 166.374 203.913 165.562 203.913C164.749 203.913 164.067 203.632 163.515 203.07C162.973 202.497 162.702 201.752 162.702 200.835C162.702 199.825 162.989 199.002 163.562 198.366C164.145 197.721 164.827 197.398 165.608 197.398C166.369 197.398 167.015 197.695 167.546 198.288ZM173.843 206.851L172.155 207.007C172.301 208.132 172.728 209.007 173.437 209.632C174.145 210.257 175.062 210.57 176.187 210.57C177.239 210.57 178.155 210.288 178.937 209.726C179.718 209.153 180.306 208.325 180.702 207.241C181.108 206.158 181.312 204.7 181.312 202.866C181.312 201.106 181.108 199.762 180.702 198.835C180.306 197.908 179.723 197.195 178.952 196.695C178.181 196.195 177.327 195.945 176.39 195.945C175.108 195.945 174.035 196.387 173.171 197.273C172.317 198.158 171.89 199.325 171.89 200.773C171.89 202.179 172.301 203.314 173.124 204.179C173.947 205.033 174.947 205.46 176.124 205.46C176.843 205.46 177.504 205.288 178.108 204.945C178.713 204.59 179.192 204.137 179.546 203.585C179.556 203.741 179.562 203.856 179.562 203.929C179.562 204.658 179.473 205.377 179.296 206.085C179.119 206.783 178.9 207.34 178.64 207.757C178.379 208.174 178.046 208.507 177.64 208.757C177.233 208.997 176.759 209.116 176.218 209.116C175.582 209.116 175.062 208.939 174.655 208.585C174.259 208.221 173.989 207.642 173.843 206.851ZM178.546 198.288C179.088 198.882 179.358 199.684 179.358 200.695C179.358 201.705 179.093 202.497 178.562 203.07C178.041 203.632 177.374 203.913 176.562 203.913C175.749 203.913 175.067 203.632 174.515 203.07C173.973 202.497 173.702 201.752 173.702 200.835C173.702 199.825 173.989 199.002 174.562 198.366C175.145 197.721 175.827 197.398 176.608 197.398C177.369 197.398 178.015 197.695 178.546 198.288ZM183.968 201.413C184.322 201.903 184.864 202.283 185.593 202.554C184.728 202.783 184.056 203.215 183.577 203.851C183.108 204.476 182.874 205.252 182.874 206.179C182.874 207.429 183.306 208.476 184.171 209.32C185.035 210.153 186.176 210.57 187.593 210.57C188.999 210.57 190.134 210.153 190.999 209.32C191.874 208.486 192.312 207.455 192.312 206.226C192.312 205.34 192.082 204.58 191.624 203.945C191.166 203.309 190.494 202.846 189.608 202.554C190.317 202.283 190.843 201.903 191.187 201.413C191.541 200.924 191.718 200.346 191.718 199.679C191.718 198.637 191.338 197.757 190.577 197.038C189.817 196.309 188.812 195.945 187.562 195.945C186.322 195.945 185.327 196.299 184.577 197.007C183.827 197.715 183.452 198.59 183.452 199.632C183.452 200.32 183.624 200.913 183.968 201.413ZM185.905 201.241C185.468 200.804 185.249 200.247 185.249 199.57C185.249 198.976 185.468 198.465 185.905 198.038C186.353 197.601 186.91 197.382 187.577 197.382C188.244 197.382 188.801 197.606 189.249 198.054C189.697 198.491 189.921 199.033 189.921 199.679C189.921 200.294 189.702 200.814 189.265 201.241C188.827 201.669 188.27 201.882 187.593 201.882C186.905 201.882 186.343 201.669 185.905 201.241ZM185.03 207.648C184.801 207.179 184.687 206.695 184.687 206.195C184.687 205.372 184.957 204.689 185.499 204.148C186.041 203.596 186.723 203.32 187.546 203.32C188.4 203.32 189.108 203.596 189.671 204.148C190.233 204.7 190.515 205.398 190.515 206.241C190.515 207.075 190.239 207.762 189.687 208.304C189.145 208.846 188.452 209.116 187.608 209.116C187.067 209.116 186.562 208.991 186.093 208.741C185.624 208.481 185.27 208.116 185.03 207.648Z" fill="white"/>
<path fill-rule="evenodd" clip-rule="evenodd" d="M210.992 87.1646H212.758V72.7896H211.617C211.315 73.4041 210.794 74.0448 210.055 74.7114C209.326 75.3677 208.466 75.925 207.477 76.3833V78.0864C208.029 77.8781 208.648 77.576 209.336 77.1802C210.023 76.7739 210.576 76.3677 210.992 75.9614V87.1646ZM219.086 83.6958L217.398 83.8521C217.544 84.9771 217.971 85.8521 218.68 86.4771C219.388 87.1021 220.305 87.4146 221.43 87.4146C222.482 87.4146 223.398 87.1333 224.18 86.5708C224.961 85.9979 225.549 85.1698 225.945 84.0864C226.352 83.0031 226.555 81.5448 226.555 79.7114C226.555 77.951 226.352 76.6073 225.945 75.6802C225.549 74.7531 224.966 74.0396 224.195 73.5396C223.424 73.0396 222.57 72.7896 221.633 72.7896C220.352 72.7896 219.279 73.2323 218.414 74.1177C217.56 75.0031 217.133 76.1698 217.133 77.6177C217.133 79.0239 217.544 80.1593 218.367 81.0239C219.19 81.8781 220.19 82.3052 221.367 82.3052C222.086 82.3052 222.747 82.1333 223.352 81.7896C223.956 81.4354 224.435 80.9823 224.789 80.4302C224.799 80.5864 224.805 80.701 224.805 80.7739C224.805 81.5031 224.716 82.2218 224.539 82.9302C224.362 83.6281 224.143 84.1854 223.883 84.6021C223.622 85.0187 223.289 85.3521 222.883 85.6021C222.477 85.8416 222.003 85.9614 221.461 85.9614C220.826 85.9614 220.305 85.7843 219.898 85.4302C219.503 85.0656 219.232 84.4875 219.086 83.6958ZM223.789 75.1333C224.331 75.7271 224.602 76.5291 224.602 77.5396C224.602 78.55 224.336 79.3416 223.805 79.9146C223.284 80.4771 222.617 80.7583 221.805 80.7583C220.992 80.7583 220.31 80.4771 219.758 79.9146C219.216 79.3416 218.945 78.5968 218.945 77.6802C218.945 76.6698 219.232 75.8468 219.805 75.2114C220.388 74.5656 221.07 74.2427 221.852 74.2427C222.612 74.2427 223.258 74.5396 223.789 75.1333ZM230.086 83.6958L228.398 83.8521C228.544 84.9771 228.971 85.8521 229.68 86.4771C230.388 87.1021 231.305 87.4146 232.43 87.4146C233.482 87.4146 234.398 87.1333 235.18 86.5708C235.961 85.9979 236.549 85.1698 236.945 84.0864C237.352 83.0031 237.555 81.5448 237.555 79.7114C237.555 77.951 237.352 76.6073 236.945 75.6802C236.549 74.7531 235.966 74.0396 235.195 73.5396C234.424 73.0396 233.57 72.7896 232.633 72.7896C231.352 72.7896 230.279 73.2323 229.414 74.1177C228.56 75.0031 228.133 76.1698 228.133 77.6177C228.133 79.0239 228.544 80.1593 229.367 81.0239C230.19 81.8781 231.19 82.3052 232.367 82.3052C233.086 82.3052 233.747 82.1333 234.352 81.7896C234.956 81.4354 235.435 80.9823 235.789 80.4302C235.799 80.5864 235.805 80.701 235.805 80.7739C235.805 81.5031 235.716 82.2218 235.539 82.9302C235.362 83.6281 235.143 84.1854 234.883 84.6021C234.622 85.0187 234.289 85.3521 233.883 85.6021C233.477 85.8416 233.003 85.9614 232.461 85.9614C231.826 85.9614 231.305 85.7843 230.898 85.4302C230.503 85.0656 230.232 84.4875 230.086 83.6958ZM234.789 75.1333C235.331 75.7271 235.602 76.5291 235.602 77.5396C235.602 78.55 235.336 79.3416 234.805 79.9146C234.284 80.4771 233.617 80.7583 232.805 80.7583C231.992 80.7583 231.31 80.4771 230.758 79.9146C230.216 79.3416 229.945 78.5968 229.945 77.6802C229.945 76.6698 230.232 75.8468 230.805 75.2114C231.388 74.5656 232.07 74.2427 232.852 74.2427C233.612 74.2427 234.258 74.5396 234.789 75.1333ZM241.086 83.6958L239.398 83.8521C239.544 84.9771 239.971 85.8521 240.68 86.4771C241.388 87.1021 242.305 87.4146 243.43 87.4146C244.482 87.4146 245.398 87.1333 246.18 86.5708C246.961 85.9979 247.549 85.1698 247.945 84.0864C248.352 83.0031 248.555 81.5448 248.555 79.7114C248.555 77.951 248.352 76.6073 247.945 75.6802C247.549 74.7531 246.966 74.0396 246.195 73.5396C245.424 73.0396 244.57 72.7896 243.633 72.7896C242.352 72.7896 241.279 73.2323 240.414 74.1177C239.56 75.0031 239.133 76.1698 239.133 77.6177C239.133 79.0239 239.544 80.1593 240.367 81.0239C241.19 81.8781 242.19 82.3052 243.367 82.3052C244.086 82.3052 244.747 82.1333 245.352 81.7896C245.956 81.4354 246.435 80.9823 246.789 80.4302C246.799 80.5864 246.805 80.701 246.805 80.7739C246.805 81.5031 246.716 82.2218 246.539 82.9302C246.362 83.6281 246.143 84.1854 245.883 84.6021C245.622 85.0187 245.289 85.3521 244.883 85.6021C244.477 85.8416 244.003 85.9614 243.461 85.9614C242.826 85.9614 242.305 85.7843 241.898 85.4302C241.503 85.0656 241.232 84.4875 241.086 83.6958ZM245.789 75.1333C246.331 75.7271 246.602 76.5291 246.602 77.5396C246.602 78.55 246.336 79.3416 245.805 79.9146C245.284 80.4771 244.617 80.7583 243.805 80.7583C242.992 80.7583 242.31 80.4771 241.758 79.9146C241.216 79.3416 240.945 78.5968 240.945 77.6802C240.945 76.6698 241.232 75.8468 241.805 75.2114C242.388 74.5656 243.07 74.2427 243.852 74.2427C244.612 74.2427 245.258 74.5396 245.789 75.1333Z" fill="white"/>
</g>
<defs>
<clipPath id="clip0_1672_334">
<rect width="600" height="371" fill="white"/>
</clipPath>
</defs>
</svg>
