<svg width="60" height="52" viewBox="0 0 60 52" fill="none" xmlns="http://www.w3.org/2000/svg">
<path d="M0 27.9321H10.0001V30.1073H0V27.9321ZM0 36.6448H10.0001V38.8201H0V36.6448ZM0 40.9954H10.0001V43.1707H0V40.9954ZM0 14.8571H10.0001V17.0323H0V14.8571ZM0 19.2193H10.0001V21.3946H0V19.2193ZM0 23.5698H10.0001V25.7451H0V23.5698ZM0 32.2826H10.0001V34.4579H0V32.2826ZM0 45.3576H10.0001V47.5329H0V45.3576ZM0 49.7082H10.0001V51.9998H0V49.7082Z" fill="#00FFFF"/>
<path d="M12.501 4.50601H22.5011V6.75902H12.501V4.50601ZM12.501 22.5542H22.5011V24.8072H12.501V22.5542ZM12.501 27.0722H22.5011V29.3252H12.501V27.0722ZM12.501 9.02407H22.5011V11.2771H12.501V9.02407ZM12.501 49.6264H22.5011V51.9999H12.501V49.6264ZM12.501 45.1204H22.5011V47.3734H12.501V45.1204ZM12.501 13.5301H22.5011V15.7831H12.501V13.5301ZM12.501 40.6023H22.5011V42.8553H12.501V40.6023ZM12.501 31.5782H22.5011V33.8312H12.501V31.5782ZM12.501 36.0963H22.5011V38.3493H12.501V36.0963ZM12.501 18.0481H22.5011V20.3012H12.501V18.0481ZM12.501 0H22.5011V2.25301H12.501V0Z" fill="#00FFFF"/>
<path d="M25 37.1429H35.0001V39.111H25V37.1429ZM25 45.5043H35.0001V47.6317H25V45.5043ZM25 41.2383H35.0001V43.3656H25V41.2383ZM25 49.759H35.0001V52.0001H25V49.759Z" fill="#00FFFF"/>
<path d="M37.5 22.2855H47.5001V24.5591H37.5V22.2855ZM37.5 45.0575H47.5001V47.3311H37.5V45.0575ZM37.5 49.6046H47.5001V51.9997H37.5V49.6046ZM37.5 40.4982H47.5001V42.7718H37.5V40.4982ZM37.5 31.3919H47.5001V33.6654H37.5V31.3919ZM37.5 35.9511H47.5001V38.2247H37.5V35.9511ZM37.5 26.8448H47.5001V29.1183H37.5V26.8448Z" fill="#00FFFF"/>
<path d="M50 27.3065H60.0001V29.5384H50V27.3065ZM50 22.8309H60.0001V25.0628H50V22.8309ZM50 18.3673H60.0001V20.5991H50V18.3673ZM50 9.42799H60.0001V11.6598H50V9.42799ZM50 4.95239H60.0001V7.18423H50V4.95239ZM50 13.8917H60.0001V16.1235H50V13.8917ZM50 49.6487H60.0001V51.9999H50V49.6487ZM50 36.2458H60.0001V38.4776H50V36.2458ZM50 40.7095H60.0001V42.9413H50V40.7095ZM50 45.1851H60.0001V47.4169H50V45.1851ZM50 31.7702H60.0001V34.002H50V31.7702Z" fill="#00FFFF"/>
</svg>
