<svg width="60" height="53" viewBox="0 0 60 53" fill="none" xmlns="http://www.w3.org/2000/svg">
<path d="M0 28.142H9.9792V30.3337H0V28.142ZM0 36.9203H9.9792V39.112H0V36.9203ZM0 41.3036H9.9792V43.4953H0V41.3036ZM0 14.9688H9.9792V17.1604H0V14.9688ZM0 19.3638H9.9792V21.5554H0V19.3638ZM0 23.747H9.9792V25.9387H0V23.747ZM0 32.5253H9.9792V34.717H0V32.5253ZM0 45.6986H9.9792V47.8903H0V45.6986ZM0 50.0819H9.9792V52.3907H0V50.0819Z" fill="#6CB2FF"/>
<path d="M12.4746 4.53989H22.4538V6.80983H12.4746V4.53989ZM12.4746 22.7237H22.4538V24.9937H12.4746V22.7237ZM12.4746 27.2757H22.4538V29.5457H12.4746V27.2757ZM12.4746 9.09191H22.4538V11.3619H12.4746V9.09191ZM12.4746 49.9995H22.4538V52.3908H12.4746V49.9995ZM12.4746 45.4596H22.4538V47.7295H12.4746V45.4596ZM12.4746 13.6318H22.4538V15.9017H12.4746V13.6318ZM12.4746 40.9075H22.4538V43.1775H12.4746V40.9075ZM12.4746 31.8156H22.4538V34.0856H12.4746V31.8156ZM12.4746 36.3676H22.4538V38.6376H12.4746V36.3676ZM12.4746 18.1838H22.4538V20.4538H12.4746V18.1838ZM12.4746 0H22.4538V2.26994H12.4746V0Z" fill="#62A4ED"/>
<path d="M24.9482 37.4221H34.9274V39.405H24.9482V37.4221ZM24.9482 45.8464H34.9274V47.9897H24.9482V45.8464ZM24.9482 41.5483H34.9274V43.6916H24.9482V41.5483ZM24.9482 50.133H34.9274V52.3909H24.9482V50.133Z" fill="#3294FF"/>
<path d="M37.4219 22.453H47.4011V24.7436H37.4219V22.453ZM37.4219 45.3962H47.4011V47.6868H37.4219V45.3962ZM37.4219 49.9775H47.4011V52.3906H37.4219V49.9775ZM37.4219 40.8026H47.4011V43.0933H37.4219V40.8026ZM37.4219 31.6278H47.4011V33.9185H37.4219V31.6278ZM37.4219 36.2214H47.4011V38.512H37.4219V36.2214ZM37.4219 27.0465H47.4011V29.3372H37.4219V27.0465Z" fill="#7AA4D1"/>
<path d="M49.8955 27.5118H59.8747V29.7604H49.8955V27.5118ZM49.8955 23.0026H59.8747V25.2512H49.8955V23.0026ZM49.8955 18.5053H59.8747V20.7539H49.8955V18.5053ZM49.8955 9.49887H59.8747V11.7475H49.8955V9.49887ZM49.8955 4.98962H59.8747V7.23823H49.8955V4.98962ZM49.8955 13.9961H59.8747V16.2447H49.8955V13.9961ZM49.8955 50.022H59.8747V52.3908H49.8955V50.022ZM49.8955 36.5183H59.8747V38.7669H49.8955V36.5183ZM49.8955 41.0155H59.8747V43.2641H49.8955V41.0155ZM49.8955 45.5247H59.8747V47.7733H49.8955V45.5247ZM49.8955 32.009H59.8747V34.2576H49.8955V32.009Z" fill="#3294FF"/>
</svg>
