<svg width="59" height="52" viewBox="0 0 59 52" fill="none" xmlns="http://www.w3.org/2000/svg">
<path d="M55.3125 29.7143H51.625V22.2857C51.625 9.98214 41.7148 0 29.5 0C17.2852 0 7.375 9.98214 7.375 22.2857V29.7143H3.6875C2.70951 29.7143 1.77158 30.1056 1.08004 30.8022C0.388503 31.4987 0 32.4435 0 33.4286L0 48.2857C0 49.2708 0.388503 50.2155 1.08004 50.9121C1.77158 51.6087 2.70951 52 3.6875 52H14.75V22.2857C14.75 14.0883 21.3617 7.42857 29.5 7.42857C37.6383 7.42857 44.25 14.0883 44.25 22.2857V52H55.3125C56.2905 52 57.2284 51.6087 57.92 50.9121C58.6115 50.2155 59 49.2708 59 48.2857V33.4286C59 32.4435 58.6115 31.4987 57.92 30.8022C57.2284 30.1056 56.2905 29.7143 55.3125 29.7143Z" fill="#3294FF"/>
</svg>
