<svg width="60" height="52" viewBox="0 0 60 52" fill="none" xmlns="http://www.w3.org/2000/svg">
<path d="M56.25 29.7143H52.5V22.2857C52.5 9.98214 42.4219 0 30 0C17.5781 0 7.5 9.98214 7.5 22.2857V29.7143H3.75C2.75544 29.7143 1.80161 30.1056 1.09835 30.8022C0.395088 31.4987 0 32.4435 0 33.4286L0 48.2857C0 49.2708 0.395088 50.2155 1.09835 50.9121C1.80161 51.6087 2.75544 52 3.75 52H15V22.2857C15 14.0883 21.7238 7.42857 30 7.42857C38.2763 7.42857 45 14.0883 45 22.2857V52H56.25C57.2446 52 58.1984 51.6087 58.9017 50.9121C59.6049 50.2155 60 49.2708 60 48.2857V33.4286C60 32.4435 59.6049 31.4987 58.9017 30.8022C58.1984 30.1056 57.2446 29.7143 56.25 29.7143Z" fill="#00FFFF"/>
</svg>
