<svg width="600" height="371" viewBox="0 0 600 371" fill="none" xmlns="http://www.w3.org/2000/svg">
<g clip-path="url(#clip0_1745_369)">
<path d="M0 0H600V371H0V0Z" fill="#1A1B1F"/>
<path d="M45.5 325.5H581.5" stroke="#E7E7E8" stroke-miterlimit="10"/>
<path d="M45.5 265.5H581.5" stroke="#4D4E51" stroke-miterlimit="10"/>
<path d="M45.5 205.5H581.5" stroke="#4D4E51" stroke-miterlimit="10"/>
<path d="M45.5 145.5H581.5" stroke="#4D4E51" stroke-miterlimit="10"/>
<path d="M45.5 85.5H581.5" stroke="#4D4E51" stroke-miterlimit="10"/>
<path d="M45.5 25.5H581.5" stroke="#4D4E51" stroke-miterlimit="10"/>
<mask id="mask0_1745_369" style="mask-type:luminance" maskUnits="userSpaceOnUse" x="45" y="25" width="537" height="301">
<path d="M45.5498 25.55H581.45V325.45H45.5498V25.55Z" fill="white"/>
</mask>
<g mask="url(#mask0_1745_369)">
<path d="M131 325H76V207C76 205.895 76.8954 205 78 205H129C130.105 205 131 205.895 131 207V325Z" fill="#4C1130"/>
</g>
<mask id="mask1_1745_369" style="mask-type:luminance" maskUnits="userSpaceOnUse" x="45" y="25" width="537" height="301">
<path d="M45.5498 25.55H581.45V325.45H45.5498V25.55Z" fill="white"/>
</mask>
<g mask="url(#mask1_1745_369)">
<path d="M215 325H160V28C160 26.8954 160.895 26 162 26H213C214.105 26 215 26.8954 215 28V325Z" fill="#741B47"/>
</g>
<mask id="mask2_1745_369" style="mask-type:luminance" maskUnits="userSpaceOnUse" x="45" y="25" width="537" height="301">
<path d="M45.5498 25.55H581.45V325.45H45.5498V25.55Z" fill="white"/>
</mask>
<g mask="url(#mask2_1745_369)">
<path d="M299 325H244V267C244 265.895 244.895 265 246 265H297C298.105 265 299 265.895 299 267V325Z" fill="#A64D79"/>
</g>
<mask id="mask3_1745_369" style="mask-type:luminance" maskUnits="userSpaceOnUse" x="45" y="25" width="537" height="301">
<path d="M45.5498 25.55H581.45V325.45H45.5498V25.55Z" fill="white"/>
</mask>
<g mask="url(#mask3_1745_369)">
<path d="M384 325H329V207C329 205.895 329.895 205 331 205H382C383.105 205 384 205.895 384 207V325Z" fill="#C27BA0"/>
</g>
<mask id="mask4_1745_369" style="mask-type:luminance" maskUnits="userSpaceOnUse" x="45" y="25" width="537" height="301">
<path d="M45.5498 25.55H581.45V325.45H45.5498V25.55Z" fill="white"/>
</mask>
<g mask="url(#mask4_1745_369)">
<path d="M468 325H413V267C413 265.895 413.895 265 415 265H466C467.105 265 468 265.895 468 267V325Z" fill="#D5A6BD"/>
</g>
<mask id="mask5_1745_369" style="mask-type:luminance" maskUnits="userSpaceOnUse" x="45" y="25" width="537" height="301">
<path d="M45.5498 25.55H581.45V325.45H45.5498V25.55Z" fill="white"/>
</mask>
<g mask="url(#mask5_1745_369)">
<path d="M552 325H497V207C497 205.895 497.895 205 499 205H550C551.105 205 552 205.895 552 207V325Z" fill="#EAD1DC"/>
</g>
<path d="M33.0498 325.216C33.0498 324.195 33.154 323.377 33.3623 322.762C33.5706 322.137 33.8779 321.658 34.2842 321.325C34.7008 320.992 35.2217 320.825 35.8467 320.825C36.305 320.825 36.7061 320.919 37.0498 321.106C37.404 321.294 37.6956 321.565 37.9248 321.919C38.154 322.262 38.3311 322.684 38.4561 323.184C38.5811 323.684 38.6436 324.361 38.6436 325.216C38.6436 326.226 38.5394 327.038 38.3311 327.653C38.1331 328.268 37.8258 328.747 37.4092 329.091C37.0029 329.424 36.4821 329.591 35.8467 329.591C35.0238 329.591 34.3727 329.294 33.8936 328.7C33.3311 327.992 33.0498 326.83 33.0498 325.216ZM34.1279 325.216C34.1279 326.622 34.2946 327.559 34.6279 328.028C34.9613 328.497 35.3675 328.731 35.8467 328.731C36.3363 328.731 36.7425 328.497 37.0654 328.028C37.3988 327.559 37.5654 326.622 37.5654 325.216C37.5654 323.799 37.3988 322.861 37.0654 322.403C36.7425 321.934 36.3311 321.7 35.8311 321.7C35.3519 321.7 34.9665 321.903 34.6748 322.309C34.3102 322.83 34.1279 323.799 34.1279 325.216Z" fill="white"/>
<path d="M37.0186 269.47H35.9717V262.751C35.7113 262.991 35.3727 263.236 34.9561 263.486C34.5498 263.725 34.1852 263.902 33.8623 264.017V263.001C34.4456 262.72 34.9561 262.387 35.3936 262.001C35.8415 261.605 36.1592 261.22 36.3467 260.845H37.0186V269.47Z" fill="white"/>
<path d="M38.5967 208.474V209.49H32.9092C32.9092 209.24 32.9508 208.995 33.0342 208.756C33.18 208.37 33.4092 207.99 33.7217 207.615C34.0446 207.24 34.5081 206.808 35.1123 206.318C36.0498 205.547 36.68 204.938 37.0029 204.49C37.3363 204.042 37.5029 203.62 37.5029 203.224C37.5029 202.808 37.3519 202.459 37.0498 202.177C36.7477 201.886 36.3571 201.74 35.8779 201.74C35.3675 201.74 34.9613 201.891 34.6592 202.193C34.3571 202.495 34.2008 202.917 34.1904 203.459L33.1123 203.349C33.1852 202.537 33.4613 201.922 33.9404 201.506C34.43 201.079 35.0863 200.865 35.9092 200.865C36.7321 200.865 37.3831 201.094 37.8623 201.552C38.3415 202.011 38.5811 202.579 38.5811 203.256C38.5811 203.599 38.5081 203.938 38.3623 204.271C38.2269 204.594 37.9925 204.943 37.6592 205.318C37.3363 205.683 36.7998 206.183 36.0498 206.818C35.4144 207.349 35.0029 207.714 34.8154 207.912C34.6383 208.099 34.4925 208.287 34.3779 208.474H38.5967Z" fill="white"/>
<path d="M33.0498 147.244L34.1123 147.104C34.2269 147.698 34.43 148.13 34.7217 148.401C35.0133 148.661 35.3675 148.791 35.7842 148.791C36.2842 148.791 36.7061 148.619 37.0498 148.276C37.3936 147.932 37.5654 147.505 37.5654 146.994C37.5654 146.515 37.404 146.119 37.0811 145.807C36.7686 145.484 36.3675 145.323 35.8779 145.323C35.68 145.323 35.43 145.364 35.1279 145.448L35.2529 144.51C35.3258 144.52 35.3831 144.526 35.4248 144.526C35.8727 144.526 36.2738 144.411 36.6279 144.182C36.9925 143.942 37.1748 143.578 37.1748 143.088C37.1748 142.703 37.0446 142.385 36.7842 142.135C36.5238 141.875 36.1852 141.744 35.7686 141.744C35.3623 141.744 35.0186 141.875 34.7373 142.135C34.4665 142.395 34.2946 142.781 34.2217 143.291L33.1592 143.104C33.2842 142.406 33.5758 141.864 34.0342 141.479C34.4925 141.083 35.0602 140.885 35.7373 140.885C36.2061 140.885 36.6383 140.989 37.0342 141.198C37.43 141.395 37.7321 141.666 37.9404 142.01C38.1488 142.354 38.2529 142.724 38.2529 143.119C38.2529 143.484 38.154 143.823 37.9561 144.135C37.7581 144.437 37.4665 144.677 37.0811 144.854C37.5811 144.968 37.9717 145.213 38.2529 145.588C38.5342 145.953 38.6748 146.416 38.6748 146.979C38.6748 147.729 38.3988 148.364 37.8467 148.885C37.305 149.406 36.6175 149.666 35.7842 149.666C35.0342 149.666 34.4092 149.442 33.9092 148.994C33.4092 148.536 33.1227 147.953 33.0498 147.244Z" fill="white"/>
<path d="M36.4248 89.53V87.4675H32.7061V86.4988L36.6279 80.9363H37.4873V86.4988H38.6436V87.4675H37.4873V89.53H36.4248ZM36.4248 86.4988V82.6394L33.7373 86.4988H36.4248Z" fill="white"/>
<path d="M33.0498 27.3L34.1592 27.2063C34.2425 27.748 34.43 28.1542 34.7217 28.425C35.0238 28.6959 35.3883 28.8313 35.8154 28.8313C36.3154 28.8313 36.7425 28.6386 37.0967 28.2532C37.4508 27.8678 37.6279 27.3625 37.6279 26.7375C37.6279 26.1334 37.4561 25.6594 37.1123 25.3157C36.779 24.9615 36.3363 24.7844 35.7842 24.7844C35.4508 24.7844 35.1436 24.8625 34.8623 25.0188C34.5915 25.175 34.3779 25.373 34.2217 25.6125L33.2373 25.4875L34.0654 21.0813H38.3467V22.0813H34.9092L34.4561 24.3938C34.9665 24.0292 35.5029 23.8469 36.0654 23.8469C36.8154 23.8469 37.4456 24.1073 37.9561 24.6282C38.4769 25.149 38.7373 25.8209 38.7373 26.6438C38.7373 27.4146 38.5133 28.0865 38.0654 28.6594C37.5133 29.3469 36.7633 29.6907 35.8154 29.6907C35.0342 29.6907 34.3936 29.4719 33.8936 29.0344C33.404 28.5969 33.1227 28.0188 33.0498 27.3Z" fill="white"/>
<path d="M64.7812 348.45V336.997H73.0625V338.341H66.2969V341.856H72.6406V343.2H66.2969V347.091H73.3281V348.45H64.7812ZM75.5469 348.45V336.997H76.9531V348.45H75.5469ZM84.25 345.778L85.7031 345.95C85.474 346.804 85.0469 347.466 84.4219 347.934C83.8073 348.403 83.0208 348.637 82.0625 348.637C80.8438 348.637 79.8802 348.262 79.1719 347.512C78.4635 346.762 78.1094 345.716 78.1094 344.372C78.1094 342.976 78.4688 341.893 79.1875 341.122C79.9063 340.351 80.8385 339.966 81.9844 339.966C83.0885 339.966 83.9896 340.346 84.6875 341.106C85.3958 341.856 85.75 342.913 85.75 344.278C85.75 344.361 85.75 344.486 85.75 344.653H79.5625C79.6146 345.57 79.8698 346.273 80.3281 346.762C80.7969 347.242 81.375 347.481 82.0625 347.481C82.5833 347.481 83.026 347.346 83.3906 347.075C83.7552 346.804 84.0417 346.372 84.25 345.778ZM79.6406 343.497H84.2656C84.2031 342.799 84.026 342.278 83.7344 341.934C83.2865 341.393 82.7083 341.122 82 341.122C81.3542 341.122 80.8073 341.341 80.3594 341.778C79.9219 342.205 79.6823 342.778 79.6406 343.497ZM92.9844 345.403L94.375 345.591C94.2188 346.538 93.8281 347.283 93.2031 347.825C92.5885 348.367 91.8281 348.637 90.9219 348.637C89.7865 348.637 88.8698 348.268 88.1719 347.528C87.4844 346.778 87.1406 345.71 87.1406 344.325C87.1406 343.429 87.2865 342.648 87.5781 341.981C87.8802 341.304 88.3333 340.799 88.9375 340.466C89.5521 340.132 90.2135 339.966 90.9219 339.966C91.8281 339.966 92.5677 340.195 93.1406 340.653C93.7135 341.101 94.0781 341.747 94.2344 342.591L92.875 342.794C92.7396 342.242 92.5052 341.825 92.1719 341.544C91.849 341.262 91.4531 341.122 90.9844 341.122C90.276 341.122 89.6979 341.377 89.25 341.887C88.8125 342.387 88.5938 343.19 88.5938 344.294C88.5938 345.408 88.8073 346.221 89.2344 346.731C89.6615 347.231 90.2188 347.481 90.9062 347.481C91.4583 347.481 91.9167 347.315 92.2812 346.981C92.6562 346.637 92.8906 346.111 92.9844 345.403ZM98.6406 347.184L98.8438 348.434C98.4479 348.518 98.0938 348.559 97.7812 348.559C97.2708 348.559 96.875 348.481 96.5938 348.325C96.3125 348.158 96.1146 347.945 96 347.684C95.8854 347.413 95.8281 346.856 95.8281 346.012V341.247H94.7969V340.153H95.8281V338.091L97.2344 337.247V340.153H98.6406V341.247H97.2344V346.091C97.2344 346.497 97.2552 346.757 97.2969 346.872C97.349 346.986 97.4323 347.08 97.5469 347.153C97.6615 347.216 97.8229 347.247 98.0312 347.247C98.1875 347.247 98.3906 347.226 98.6406 347.184ZM99.5625 348.45V340.153H100.828V341.403C101.151 340.82 101.448 340.434 101.719 340.247C101.99 340.059 102.292 339.966 102.625 339.966C103.094 339.966 103.573 340.117 104.062 340.419L103.578 341.716C103.234 341.518 102.891 341.419 102.547 341.419C102.245 341.419 101.969 341.512 101.719 341.7C101.479 341.877 101.307 342.132 101.203 342.466C101.047 342.966 100.969 343.512 100.969 344.106V348.45H99.5625ZM104.047 344.294C104.047 342.762 104.474 341.627 105.328 340.887C106.047 340.273 106.917 339.966 107.938 339.966C109.083 339.966 110.016 340.341 110.734 341.091C111.464 341.83 111.828 342.861 111.828 344.184C111.828 345.247 111.667 346.085 111.344 346.7C111.021 347.315 110.552 347.794 109.938 348.137C109.333 348.471 108.667 348.637 107.938 348.637C106.781 348.637 105.844 348.268 105.125 347.528C104.406 346.778 104.047 345.7 104.047 344.294ZM105.5 344.294C105.5 345.356 105.729 346.153 106.188 346.684C106.656 347.216 107.24 347.481 107.938 347.481C108.635 347.481 109.214 347.216 109.672 346.684C110.141 346.153 110.375 345.341 110.375 344.247C110.375 343.226 110.141 342.45 109.672 341.919C109.214 341.387 108.635 341.122 107.938 341.122C107.24 341.122 106.656 341.387 106.188 341.919C105.729 342.44 105.5 343.231 105.5 344.294ZM113.578 348.45V340.153H114.844V341.325C115.448 340.419 116.328 339.966 117.484 339.966C117.984 339.966 118.443 340.054 118.859 340.231C119.276 340.408 119.589 340.643 119.797 340.934C120.005 341.226 120.151 341.575 120.234 341.981C120.286 342.242 120.312 342.695 120.312 343.341V348.45H118.906V343.403C118.906 342.83 118.849 342.403 118.734 342.122C118.63 341.83 118.438 341.601 118.156 341.434C117.885 341.268 117.562 341.184 117.188 341.184C116.583 341.184 116.062 341.377 115.625 341.762C115.198 342.137 114.984 342.856 114.984 343.919V348.45H113.578ZM121.578 338.606V336.997H122.984V338.606H121.578ZM121.578 348.45V340.153H122.984V348.45H121.578ZM130.984 345.403L132.375 345.591C132.219 346.538 131.828 347.283 131.203 347.825C130.589 348.367 129.828 348.637 128.922 348.637C127.786 348.637 126.87 348.268 126.172 347.528C125.484 346.778 125.141 345.71 125.141 344.325C125.141 343.429 125.286 342.648 125.578 341.981C125.88 341.304 126.333 340.799 126.938 340.466C127.552 340.132 128.214 339.966 128.922 339.966C129.828 339.966 130.568 340.195 131.141 340.653C131.714 341.101 132.078 341.747 132.234 342.591L130.875 342.794C130.74 342.242 130.505 341.825 130.172 341.544C129.849 341.262 129.453 341.122 128.984 341.122C128.276 341.122 127.698 341.377 127.25 341.887C126.812 342.387 126.594 343.19 126.594 344.294C126.594 345.408 126.807 346.221 127.234 346.731C127.661 347.231 128.219 347.481 128.906 347.481C129.458 347.481 129.917 347.315 130.281 346.981C130.656 346.637 130.891 346.111 130.984 345.403ZM138.984 347.419C138.464 347.867 137.964 348.184 137.484 348.372C137.005 348.549 136.49 348.637 135.938 348.637C135.021 348.637 134.318 348.413 133.828 347.966C133.339 347.518 133.094 346.95 133.094 346.262C133.094 345.856 133.188 345.486 133.375 345.153C133.562 344.809 133.802 344.538 134.094 344.341C134.396 344.132 134.734 343.976 135.109 343.872C135.391 343.799 135.807 343.731 136.359 343.669C137.495 343.533 138.333 343.372 138.875 343.184C138.875 342.986 138.875 342.861 138.875 342.809C138.875 342.236 138.745 341.835 138.484 341.606C138.12 341.283 137.583 341.122 136.875 341.122C136.219 341.122 135.729 341.242 135.406 341.481C135.094 341.71 134.865 342.117 134.719 342.7L133.344 342.512C133.469 341.929 133.672 341.455 133.953 341.091C134.245 340.726 134.661 340.45 135.203 340.262C135.745 340.065 136.37 339.966 137.078 339.966C137.786 339.966 138.359 340.049 138.797 340.216C139.245 340.382 139.573 340.591 139.781 340.841C139.99 341.091 140.135 341.408 140.219 341.794C140.271 342.033 140.297 342.466 140.297 343.091V344.966C140.297 346.278 140.323 347.106 140.375 347.45C140.438 347.794 140.557 348.127 140.734 348.45H139.266C139.12 348.158 139.026 347.815 138.984 347.419ZM138.875 344.278C138.365 344.486 137.599 344.663 136.578 344.809C135.995 344.893 135.583 344.986 135.344 345.091C135.104 345.195 134.917 345.351 134.781 345.559C134.656 345.757 134.594 345.976 134.594 346.216C134.594 346.591 134.734 346.903 135.016 347.153C135.307 347.403 135.724 347.528 136.266 347.528C136.807 347.528 137.286 347.413 137.703 347.184C138.13 346.945 138.443 346.617 138.641 346.2C138.797 345.887 138.875 345.419 138.875 344.794V344.278Z" fill="white"/>
<path d="M173.645 348.45V336.997H177.973C178.733 336.997 179.311 337.033 179.707 337.106C180.27 337.2 180.738 337.377 181.113 337.637C181.499 337.898 181.806 338.268 182.035 338.747C182.275 339.216 182.395 339.736 182.395 340.309C182.395 341.278 182.082 342.101 181.457 342.778C180.842 343.455 179.723 343.794 178.098 343.794H175.16V348.45H173.645ZM175.16 342.434H178.129C179.108 342.434 179.801 342.252 180.207 341.887C180.624 341.523 180.832 341.012 180.832 340.356C180.832 339.877 180.707 339.466 180.457 339.122C180.217 338.778 179.9 338.554 179.504 338.45C179.254 338.377 178.785 338.341 178.098 338.341H175.16V342.434ZM183.941 344.294C183.941 342.762 184.368 341.627 185.223 340.887C185.941 340.273 186.811 339.966 187.832 339.966C188.978 339.966 189.91 340.341 190.629 341.091C191.358 341.83 191.723 342.861 191.723 344.184C191.723 345.247 191.561 346.085 191.238 346.7C190.915 347.315 190.447 347.794 189.832 348.137C189.228 348.471 188.561 348.637 187.832 348.637C186.676 348.637 185.738 348.268 185.02 347.528C184.301 346.778 183.941 345.7 183.941 344.294ZM185.395 344.294C185.395 345.356 185.624 346.153 186.082 346.684C186.551 347.216 187.134 347.481 187.832 347.481C188.53 347.481 189.108 347.216 189.566 346.684C190.035 346.153 190.27 345.341 190.27 344.247C190.27 343.226 190.035 342.45 189.566 341.919C189.108 341.387 188.53 341.122 187.832 341.122C187.134 341.122 186.551 341.387 186.082 341.919C185.624 342.44 185.395 343.231 185.395 344.294ZM193.473 351.637V340.153H194.754V341.231C195.056 340.804 195.395 340.486 195.77 340.278C196.155 340.07 196.618 339.966 197.16 339.966C197.868 339.966 198.493 340.148 199.035 340.512C199.577 340.877 199.983 341.393 200.254 342.059C200.535 342.716 200.676 343.44 200.676 344.231C200.676 345.085 200.52 345.851 200.207 346.528C199.905 347.205 199.462 347.726 198.879 348.091C198.306 348.455 197.697 348.637 197.051 348.637C196.582 348.637 196.16 348.538 195.785 348.341C195.421 348.143 195.118 347.893 194.879 347.591V351.637H193.473ZM194.738 344.341C194.738 345.413 194.952 346.205 195.379 346.716C195.816 347.226 196.342 347.481 196.957 347.481C197.582 347.481 198.118 347.216 198.566 346.684C199.014 346.153 199.238 345.335 199.238 344.231C199.238 343.169 199.02 342.377 198.582 341.856C198.145 341.325 197.624 341.059 197.02 341.059C196.426 341.059 195.895 341.341 195.426 341.903C194.967 342.466 194.738 343.278 194.738 344.341Z" fill="white"/>
<path d="M243.584 348.45V336.997H245.1V341.7H251.053V336.997H252.568V348.45H251.053V343.044H245.1V348.45H243.584ZM254.365 338.606V336.997H255.771V338.606H254.365ZM254.365 348.45V340.153H255.771V348.45H254.365ZM258.365 351.637V340.153H259.646V341.231C259.949 340.804 260.287 340.486 260.662 340.278C261.048 340.07 261.511 339.966 262.053 339.966C262.761 339.966 263.386 340.148 263.928 340.512C264.469 340.877 264.876 341.393 265.146 342.059C265.428 342.716 265.568 343.44 265.568 344.231C265.568 345.085 265.412 345.851 265.1 346.528C264.798 347.205 264.355 347.726 263.771 348.091C263.199 348.455 262.589 348.637 261.943 348.637C261.475 348.637 261.053 348.538 260.678 348.341C260.313 348.143 260.011 347.893 259.771 347.591V351.637H258.365ZM259.631 344.341C259.631 345.413 259.844 346.205 260.271 346.716C260.709 347.226 261.235 347.481 261.85 347.481C262.475 347.481 263.011 347.216 263.459 346.684C263.907 346.153 264.131 345.335 264.131 344.231C264.131 343.169 263.912 342.377 263.475 341.856C263.037 341.325 262.516 341.059 261.912 341.059C261.318 341.059 260.787 341.341 260.318 341.903C259.86 342.466 259.631 343.278 259.631 344.341ZM266.818 345.012V343.591H271.131V345.012H266.818ZM272.584 348.45V336.997H274.1V341.7H280.053V336.997H281.568V348.45H280.053V343.044H274.1V348.45H272.584ZM282.834 344.294C282.834 342.762 283.261 341.627 284.115 340.887C284.834 340.273 285.704 339.966 286.725 339.966C287.87 339.966 288.803 340.341 289.521 341.091C290.251 341.83 290.615 342.861 290.615 344.184C290.615 345.247 290.454 346.085 290.131 346.7C289.808 347.315 289.339 347.794 288.725 348.137C288.12 348.471 287.454 348.637 286.725 348.637C285.568 348.637 284.631 348.268 283.912 347.528C283.193 346.778 282.834 345.7 282.834 344.294ZM284.287 344.294C284.287 345.356 284.516 346.153 284.975 346.684C285.443 347.216 286.027 347.481 286.725 347.481C287.423 347.481 288.001 347.216 288.459 346.684C288.928 346.153 289.162 345.341 289.162 344.247C289.162 343.226 288.928 342.45 288.459 341.919C288.001 341.387 287.423 341.122 286.725 341.122C286.027 341.122 285.443 341.387 284.975 341.919C284.516 342.44 284.287 343.231 284.287 344.294ZM292.365 351.637V340.153H293.646V341.231C293.949 340.804 294.287 340.486 294.662 340.278C295.048 340.07 295.511 339.966 296.053 339.966C296.761 339.966 297.386 340.148 297.928 340.512C298.469 340.877 298.876 341.393 299.146 342.059C299.428 342.716 299.568 343.44 299.568 344.231C299.568 345.085 299.412 345.851 299.1 346.528C298.798 347.205 298.355 347.726 297.771 348.091C297.199 348.455 296.589 348.637 295.943 348.637C295.475 348.637 295.053 348.538 294.678 348.341C294.313 348.143 294.011 347.893 293.771 347.591V351.637H292.365ZM293.631 344.341C293.631 345.413 293.844 346.205 294.271 346.716C294.709 347.226 295.235 347.481 295.85 347.481C296.475 347.481 297.011 347.216 297.459 346.684C297.907 346.153 298.131 345.335 298.131 344.231C298.131 343.169 297.912 342.377 297.475 341.856C297.037 341.325 296.516 341.059 295.912 341.059C295.318 341.059 294.787 341.341 294.318 341.903C293.86 342.466 293.631 343.278 293.631 344.341Z" fill="white"/>
<path d="M324.932 348.45V336.997H329.26C330.02 336.997 330.598 337.033 330.994 337.106C331.557 337.2 332.025 337.377 332.4 337.637C332.786 337.898 333.093 338.268 333.322 338.747C333.562 339.216 333.682 339.736 333.682 340.309C333.682 341.278 333.369 342.101 332.744 342.778C332.13 343.455 331.01 343.794 329.385 343.794H326.447V348.45H324.932ZM326.447 342.434H329.416C330.395 342.434 331.088 342.252 331.494 341.887C331.911 341.523 332.119 341.012 332.119 340.356C332.119 339.877 331.994 339.466 331.744 339.122C331.505 338.778 331.187 338.554 330.791 338.45C330.541 338.377 330.072 338.341 329.385 338.341H326.447V342.434ZM335.229 344.294C335.229 342.762 335.656 341.627 336.51 340.887C337.229 340.273 338.098 339.966 339.119 339.966C340.265 339.966 341.197 340.341 341.916 341.091C342.645 341.83 343.01 342.861 343.01 344.184C343.01 345.247 342.848 346.085 342.525 346.7C342.202 347.315 341.734 347.794 341.119 348.137C340.515 348.471 339.848 348.637 339.119 348.637C337.963 348.637 337.025 348.268 336.307 347.528C335.588 346.778 335.229 345.7 335.229 344.294ZM336.682 344.294C336.682 345.356 336.911 346.153 337.369 346.684C337.838 347.216 338.421 347.481 339.119 347.481C339.817 347.481 340.395 347.216 340.854 346.684C341.322 346.153 341.557 345.341 341.557 344.247C341.557 343.226 341.322 342.45 340.854 341.919C340.395 341.387 339.817 341.122 339.119 341.122C338.421 341.122 337.838 341.387 337.369 341.919C336.911 342.44 336.682 343.231 336.682 344.294ZM344.76 351.637V340.153H346.041V341.231C346.343 340.804 346.682 340.486 347.057 340.278C347.442 340.07 347.906 339.966 348.447 339.966C349.156 339.966 349.781 340.148 350.322 340.512C350.864 340.877 351.27 341.393 351.541 342.059C351.822 342.716 351.963 343.44 351.963 344.231C351.963 345.085 351.807 345.851 351.494 346.528C351.192 347.205 350.749 347.726 350.166 348.091C349.593 348.455 348.984 348.637 348.338 348.637C347.869 348.637 347.447 348.538 347.072 348.341C346.708 348.143 346.406 347.893 346.166 347.591V351.637H344.76ZM346.025 344.341C346.025 345.413 346.239 346.205 346.666 346.716C347.104 347.226 347.63 347.481 348.244 347.481C348.869 347.481 349.406 347.216 349.854 346.684C350.301 346.153 350.525 345.335 350.525 344.231C350.525 343.169 350.307 342.377 349.869 341.856C349.432 341.325 348.911 341.059 348.307 341.059C347.713 341.059 347.182 341.341 346.713 341.903C346.255 342.466 346.025 343.278 346.025 344.341ZM353.213 345.012V343.591H357.525V345.012H353.213ZM358.744 348.45V340.153H360.01V341.403C360.333 340.82 360.63 340.434 360.9 340.247C361.171 340.059 361.473 339.966 361.807 339.966C362.275 339.966 362.755 340.117 363.244 340.419L362.76 341.716C362.416 341.518 362.072 341.419 361.729 341.419C361.426 341.419 361.15 341.512 360.9 341.7C360.661 341.877 360.489 342.132 360.385 342.466C360.229 342.966 360.15 343.512 360.15 344.106V348.45H358.744ZM363.229 344.294C363.229 342.762 363.656 341.627 364.51 340.887C365.229 340.273 366.098 339.966 367.119 339.966C368.265 339.966 369.197 340.341 369.916 341.091C370.645 341.83 371.01 342.861 371.01 344.184C371.01 345.247 370.848 346.085 370.525 346.7C370.202 347.315 369.734 347.794 369.119 348.137C368.515 348.471 367.848 348.637 367.119 348.637C365.963 348.637 365.025 348.268 364.307 347.528C363.588 346.778 363.229 345.7 363.229 344.294ZM364.682 344.294C364.682 345.356 364.911 346.153 365.369 346.684C365.838 347.216 366.421 347.481 367.119 347.481C367.817 347.481 368.395 347.216 368.854 346.684C369.322 346.153 369.557 345.341 369.557 344.247C369.557 343.226 369.322 342.45 368.854 341.919C368.395 341.387 367.817 341.122 367.119 341.122C366.421 341.122 365.838 341.387 365.369 341.919C364.911 342.44 364.682 343.231 364.682 344.294ZM378.166 345.403L379.557 345.591C379.4 346.538 379.01 347.283 378.385 347.825C377.77 348.367 377.01 348.637 376.104 348.637C374.968 348.637 374.051 348.268 373.354 347.528C372.666 346.778 372.322 345.71 372.322 344.325C372.322 343.429 372.468 342.648 372.76 341.981C373.062 341.304 373.515 340.799 374.119 340.466C374.734 340.132 375.395 339.966 376.104 339.966C377.01 339.966 377.749 340.195 378.322 340.653C378.895 341.101 379.26 341.747 379.416 342.591L378.057 342.794C377.921 342.242 377.687 341.825 377.354 341.544C377.031 341.262 376.635 341.122 376.166 341.122C375.458 341.122 374.88 341.377 374.432 341.887C373.994 342.387 373.775 343.19 373.775 344.294C373.775 345.408 373.989 346.221 374.416 346.731C374.843 347.231 375.4 347.481 376.088 347.481C376.64 347.481 377.098 347.315 377.463 346.981C377.838 346.637 378.072 346.111 378.166 345.403ZM380.76 348.45V336.997H382.166V343.528L385.494 340.153H387.322L384.15 343.231L387.635 348.45H385.9L383.166 344.2L382.166 345.153V348.45H380.76Z" fill="white"/>
<path d="M416.262 348.45V336.997H417.777V342.669L423.465 336.997H425.527L420.715 341.637L425.73 348.45H423.73L419.652 342.653L417.777 344.481V348.45H416.262ZM426.605 345.012V343.591H430.918V345.012H426.605ZM432.324 348.45V336.997H436.652C437.413 336.997 437.991 337.033 438.387 337.106C438.949 337.2 439.418 337.377 439.793 337.637C440.178 337.898 440.486 338.268 440.715 338.747C440.954 339.216 441.074 339.736 441.074 340.309C441.074 341.278 440.762 342.101 440.137 342.778C439.522 343.455 438.402 343.794 436.777 343.794H433.84V348.45H432.324ZM433.84 342.434H436.809C437.788 342.434 438.48 342.252 438.887 341.887C439.303 341.523 439.512 341.012 439.512 340.356C439.512 339.877 439.387 339.466 439.137 339.122C438.897 338.778 438.579 338.554 438.184 338.45C437.934 338.377 437.465 338.341 436.777 338.341H433.84V342.434ZM442.871 342.872C442.871 340.966 443.382 339.476 444.402 338.403C445.423 337.33 446.741 336.794 448.355 336.794C449.408 336.794 450.355 337.049 451.199 337.559C452.053 338.059 452.704 338.762 453.152 339.669C453.6 340.565 453.824 341.585 453.824 342.731C453.824 343.898 453.59 344.94 453.121 345.856C452.652 346.773 451.986 347.471 451.121 347.95C450.267 348.419 449.34 348.653 448.34 348.653C447.267 348.653 446.303 348.393 445.449 347.872C444.605 347.341 443.965 346.627 443.527 345.731C443.09 344.825 442.871 343.872 442.871 342.872ZM444.434 342.887C444.434 344.273 444.803 345.361 445.543 346.153C446.283 346.945 447.215 347.341 448.34 347.341C449.475 347.341 450.413 346.94 451.152 346.137C451.892 345.335 452.262 344.2 452.262 342.731C452.262 341.794 452.1 340.981 451.777 340.294C451.465 339.596 451.007 339.054 450.402 338.669C449.798 338.283 449.116 338.091 448.355 338.091C447.283 338.091 446.361 338.46 445.59 339.2C444.819 339.94 444.434 341.169 444.434 342.887ZM455.324 348.45V336.997H459.652C460.413 336.997 460.991 337.033 461.387 337.106C461.949 337.2 462.418 337.377 462.793 337.637C463.178 337.898 463.486 338.268 463.715 338.747C463.954 339.216 464.074 339.736 464.074 340.309C464.074 341.278 463.762 342.101 463.137 342.778C462.522 343.455 461.402 343.794 459.777 343.794H456.84V348.45H455.324ZM456.84 342.434H459.809C460.788 342.434 461.48 342.252 461.887 341.887C462.303 341.523 462.512 341.012 462.512 340.356C462.512 339.877 462.387 339.466 462.137 339.122C461.897 338.778 461.579 338.554 461.184 338.45C460.934 338.377 460.465 338.341 459.777 338.341H456.84V342.434Z" fill="white"/>
<path d="M512.641 348.45V338.341H508.859V336.997H517.938V338.341H514.156V348.45H512.641ZM518.531 348.45V340.153H519.797V341.403C520.12 340.82 520.417 340.434 520.688 340.247C520.958 340.059 521.26 339.966 521.594 339.966C522.063 339.966 522.542 340.117 523.031 340.419L522.547 341.716C522.203 341.518 521.859 341.419 521.516 341.419C521.214 341.419 520.938 341.512 520.688 341.7C520.448 341.877 520.276 342.132 520.172 342.466C520.016 342.966 519.938 343.512 519.938 344.106V348.45H518.531ZM528.953 347.419C528.432 347.867 527.932 348.184 527.453 348.372C526.974 348.549 526.458 348.637 525.906 348.637C524.99 348.637 524.286 348.413 523.797 347.966C523.307 347.518 523.062 346.95 523.062 346.262C523.062 345.856 523.156 345.486 523.344 345.153C523.531 344.809 523.771 344.538 524.062 344.341C524.365 344.132 524.703 343.976 525.078 343.872C525.359 343.799 525.776 343.731 526.328 343.669C527.464 343.533 528.302 343.372 528.844 343.184C528.844 342.986 528.844 342.861 528.844 342.809C528.844 342.236 528.714 341.835 528.453 341.606C528.089 341.283 527.552 341.122 526.844 341.122C526.188 341.122 525.698 341.242 525.375 341.481C525.062 341.71 524.833 342.117 524.688 342.7L523.312 342.512C523.438 341.929 523.641 341.455 523.922 341.091C524.214 340.726 524.63 340.45 525.172 340.262C525.714 340.065 526.339 339.966 527.047 339.966C527.755 339.966 528.328 340.049 528.766 340.216C529.214 340.382 529.542 340.591 529.75 340.841C529.958 341.091 530.104 341.408 530.188 341.794C530.24 342.033 530.266 342.466 530.266 343.091V344.966C530.266 346.278 530.292 347.106 530.344 347.45C530.406 347.794 530.526 348.127 530.703 348.45H529.234C529.089 348.158 528.995 347.815 528.953 347.419ZM528.844 344.278C528.333 344.486 527.568 344.663 526.547 344.809C525.964 344.893 525.552 344.986 525.312 345.091C525.073 345.195 524.885 345.351 524.75 345.559C524.625 345.757 524.562 345.976 524.562 346.216C524.562 346.591 524.703 346.903 524.984 347.153C525.276 347.403 525.693 347.528 526.234 347.528C526.776 347.528 527.255 347.413 527.672 347.184C528.099 346.945 528.411 346.617 528.609 346.2C528.766 345.887 528.844 345.419 528.844 344.794V344.278ZM532.547 351.637V340.153H533.828V341.231C534.13 340.804 534.469 340.486 534.844 340.278C535.229 340.07 535.693 339.966 536.234 339.966C536.943 339.966 537.568 340.148 538.109 340.512C538.651 340.877 539.057 341.393 539.328 342.059C539.609 342.716 539.75 343.44 539.75 344.231C539.75 345.085 539.594 345.851 539.281 346.528C538.979 347.205 538.536 347.726 537.953 348.091C537.38 348.455 536.771 348.637 536.125 348.637C535.656 348.637 535.234 348.538 534.859 348.341C534.495 348.143 534.193 347.893 533.953 347.591V351.637H532.547ZM533.812 344.341C533.812 345.413 534.026 346.205 534.453 346.716C534.891 347.226 535.417 347.481 536.031 347.481C536.656 347.481 537.193 347.216 537.641 346.684C538.089 346.153 538.312 345.335 538.312 344.231C538.312 343.169 538.094 342.377 537.656 341.856C537.219 341.325 536.698 341.059 536.094 341.059C535.5 341.059 534.969 341.341 534.5 341.903C534.042 342.466 533.812 343.278 533.812 344.341Z" fill="white"/>
<g clip-path="url(#clip1_1745_369)">
<path d="M0 4H600V371H0V4Z" fill="#1A1B1F"/>
<path d="M48.1953 324.07H581.047" stroke="#E7E7E8" stroke-miterlimit="10"/>
<path d="M48.1953 265.013H581.047" stroke="#4D4E51" stroke-miterlimit="10"/>
<path d="M48.1953 205.956H581.047" stroke="#4D4E51" stroke-miterlimit="10"/>
<path d="M48.1953 147.953H581.047" stroke="#4D4E51" stroke-miterlimit="10"/>
<path d="M48.1953 88.895H581.047" stroke="#4D4E51" stroke-miterlimit="10"/>
<path d="M48.1953 29.8376H581.047" stroke="#4D4E51" stroke-miterlimit="10"/>
<mask id="mask6_1745_369" style="mask-type:luminance" maskUnits="userSpaceOnUse" x="48" y="29" width="534" height="296">
<path d="M48.0869 29.7322H581.155V324.176H48.0869V29.7322Z" fill="white"/>
</mask>
<g mask="url(#mask6_1745_369)">
<path d="M132.13 324.598H77.9785V208.592C77.9785 207.427 78.9483 206.483 80.1446 206.483H129.964C131.16 206.483 132.13 207.427 132.13 208.592V324.598Z" fill="#0230CD"/>
</g>
<mask id="mask7_1745_369" style="mask-type:luminance" maskUnits="userSpaceOnUse" x="48" y="29" width="534" height="296">
<path d="M48.0869 29.7322H581.155V324.176H48.0869V29.7322Z" fill="white"/>
</mask>
<g mask="url(#mask7_1745_369)">
<path d="M215.525 324.598H161.373V31.4195C161.373 30.2546 162.343 29.3103 163.539 29.3103H213.359C214.555 29.3103 215.525 30.2546 215.525 31.4195V324.598Z" fill="#0039FF"/>
</g>
<mask id="mask8_1745_369" style="mask-type:luminance" maskUnits="userSpaceOnUse" x="48" y="29" width="534" height="296">
<path d="M48.0869 29.7322H581.155V324.176H48.0869V29.7322Z" fill="white"/>
</mask>
<g mask="url(#mask8_1745_369)">
<path d="M300.001 324.598H245.85V267.649C245.85 266.485 246.819 265.54 248.016 265.54H297.835C299.031 265.54 300.001 266.485 300.001 267.649V324.598Z" fill="#2052FF"/>
</g>
<mask id="mask9_1745_369" style="mask-type:luminance" maskUnits="userSpaceOnUse" x="48" y="29" width="534" height="296">
<path d="M48.0869 29.7322H581.155V324.176H48.0869V29.7322Z" fill="white"/>
</mask>
<g mask="url(#mask9_1745_369)">
<path d="M383.394 324.598H329.242V208.592C329.242 207.427 330.212 206.483 331.408 206.483H381.228C382.424 206.483 383.394 207.427 383.394 208.592V324.598Z" fill="#456FFF"/>
</g>
<mask id="mask10_1745_369" style="mask-type:luminance" maskUnits="userSpaceOnUse" x="48" y="29" width="534" height="296">
<path d="M48.0869 29.7322H581.155V324.176H48.0869V29.7322Z" fill="white"/>
</mask>
<g mask="url(#mask10_1745_369)">
<path d="M467.87 324.598H413.719V267.649C413.719 266.485 414.689 265.54 415.885 265.54H465.704C466.901 265.54 467.87 266.485 467.87 267.649V324.598Z" fill="#7D99FA"/>
</g>
<mask id="mask11_1745_369" style="mask-type:luminance" maskUnits="userSpaceOnUse" x="48" y="29" width="534" height="296">
<path d="M48.0869 29.7322H581.155V324.176H48.0869V29.7322Z" fill="white"/>
</mask>
<g mask="url(#mask11_1745_369)">
<path d="M551.263 324.598H497.111V208.592C497.111 207.427 498.081 206.483 499.277 206.483H549.097C550.293 206.483 551.263 207.427 551.263 208.592V324.598Z" fill="#A1B6FF"/>
</g>
<path d="M34.5488 323.929C34.5488 322.852 34.6616 321.99 34.8873 321.342C35.1129 320.682 35.4457 320.177 35.8857 319.826C36.337 319.474 36.901 319.298 37.5779 319.298C38.0743 319.298 38.5087 319.397 38.881 319.595C39.2645 319.793 39.5804 320.078 39.8286 320.452C40.0768 320.814 40.2686 321.259 40.404 321.787C40.5394 322.314 40.607 323.028 40.607 323.929C40.607 324.994 40.4942 325.851 40.2686 326.499C40.0542 327.147 39.7214 327.653 39.2702 328.015C38.8302 328.367 38.2661 328.543 37.5779 328.543C36.6867 328.543 35.9816 328.229 35.4626 327.603C34.8534 326.856 34.5488 325.631 34.5488 323.929ZM35.7165 323.929C35.7165 325.412 35.897 326.4 36.258 326.895C36.619 327.389 37.059 327.636 37.5779 327.636C38.1082 327.636 38.5482 327.389 38.8979 326.895C39.2589 326.4 39.4394 325.412 39.4394 323.929C39.4394 322.435 39.2589 321.446 38.8979 320.963C38.5482 320.468 38.1025 320.221 37.561 320.221C37.0421 320.221 36.6246 320.435 36.3088 320.864C35.9139 321.413 35.7165 322.435 35.7165 323.929Z" fill="white"/>
<path d="M38.847 269.506H37.7132V262.42C37.4312 262.673 37.0645 262.931 36.6133 263.194C36.1733 263.447 35.7784 263.634 35.4287 263.755V262.684C36.0605 262.387 36.6133 262.036 37.0871 261.629C37.5722 261.212 37.9163 260.805 38.1194 260.41H38.847V269.506Z" fill="white"/>
<path d="M40.5562 209.546V210.617H34.3965C34.3965 210.353 34.4416 210.095 34.5319 209.842C34.6898 209.436 34.938 209.035 35.2765 208.64C35.6262 208.244 36.1282 207.788 36.7825 207.272C37.7979 206.459 38.4804 205.816 38.8302 205.344C39.1912 204.872 39.3717 204.427 39.3717 204.009C39.3717 203.57 39.2081 203.202 38.8809 202.905C38.5538 202.598 38.1307 202.444 37.6117 202.444C37.0589 202.444 36.619 202.603 36.2918 202.922C35.9646 203.24 35.7954 203.685 35.7841 204.256L34.6165 204.141C34.6954 203.284 34.9944 202.636 35.5134 202.197C36.0436 201.746 36.7543 201.521 37.6456 201.521C38.5368 201.521 39.2419 201.763 39.7609 202.246C40.2798 202.729 40.5393 203.328 40.5393 204.042C40.5393 204.405 40.4603 204.762 40.3024 205.113C40.1557 205.454 39.9019 205.822 39.5409 206.217C39.1912 206.602 38.6102 207.129 37.7979 207.799C37.1097 208.359 36.6641 208.744 36.461 208.953C36.2692 209.15 36.1113 209.348 35.9872 209.546H40.5562Z" fill="white"/>
<path d="M34.5488 149.339L35.6996 149.19C35.8237 149.817 36.0436 150.272 36.3595 150.558C36.6754 150.833 37.059 150.97 37.5102 150.97C38.0518 150.97 38.5087 150.789 38.881 150.426C39.2533 150.064 39.4394 149.613 39.4394 149.075C39.4394 148.57 39.2645 148.152 38.9148 147.823C38.5764 147.482 38.142 147.312 37.6118 147.312C37.3974 147.312 37.1267 147.356 36.7995 147.444L36.9349 146.455C37.0139 146.466 37.0759 146.471 37.121 146.471C37.6061 146.471 38.0405 146.351 38.4241 146.109C38.8189 145.856 39.0163 145.472 39.0163 144.955C39.0163 144.549 38.8753 144.214 38.5933 143.95C38.3112 143.676 37.9446 143.538 37.4933 143.538C37.0533 143.538 36.6811 143.676 36.3764 143.95C36.0831 144.225 35.897 144.631 35.818 145.17L34.6673 144.972C34.8027 144.236 35.1186 143.665 35.6149 143.258C36.1113 142.841 36.7262 142.632 37.4595 142.632C37.9672 142.632 38.4353 142.742 38.864 142.962C39.2927 143.17 39.6199 143.456 39.8455 143.819C40.0712 144.181 40.184 144.571 40.184 144.988C40.184 145.373 40.0768 145.73 39.8625 146.06C39.6481 146.378 39.3322 146.631 38.9148 146.818C39.4563 146.938 39.8794 147.197 40.184 147.592C40.4886 147.976 40.6409 148.465 40.6409 149.059C40.6409 149.849 40.3419 150.52 39.744 151.069C39.1574 151.618 38.4128 151.893 37.5102 151.893C36.698 151.893 36.0211 151.657 35.4796 151.184C34.938 150.701 34.6278 150.086 34.5488 149.339Z" fill="white"/>
<path d="M38.2043 92.8393V90.6642H34.1768V89.6426L38.4243 83.7764H39.355V89.6426H40.6073V90.6642H39.355V92.8393H38.2043ZM38.2043 89.6426V85.5725L35.2936 89.6426H38.2043Z" fill="white"/>
<path d="M34.5488 31.5778L35.7503 31.4789C35.8406 32.0502 36.0436 32.4786 36.3595 32.7642C36.6867 33.0499 37.0815 33.1927 37.5441 33.1927C38.0856 33.1927 38.5482 32.9894 38.9317 32.583C39.3153 32.1765 39.5071 31.6437 39.5071 30.9846C39.5071 30.3474 39.3209 29.8476 38.9486 29.4851C38.5876 29.1116 38.1082 28.9248 37.5102 28.9248C37.1492 28.9248 36.8164 29.0072 36.5118 29.172C36.2185 29.3368 35.9872 29.5455 35.818 29.7982L34.7519 29.6664L35.6488 25.0195H40.2855V26.0741H36.5626L36.0718 28.5129C36.6246 28.1284 37.2056 27.9362 37.8149 27.9362C38.6271 27.9362 39.3097 28.2108 39.8625 28.7601C40.4265 29.3093 40.7086 30.0179 40.7086 30.8857C40.7086 31.6986 40.466 32.4072 39.9809 33.0114C39.383 33.7364 38.5707 34.099 37.5441 34.099C36.698 34.099 36.0042 33.8683 35.4626 33.4069C34.9324 32.9455 34.6278 32.3358 34.5488 31.5778Z" fill="white"/>
<path d="M63.8848 348.432V336.353H72.8536V337.77H65.5262V341.478H72.3967V342.895H65.5262V346.998H73.1413V348.432H63.8848ZM75.5443 348.432V336.353H77.0673V348.432H75.5443ZM84.9701 345.614L86.5438 345.795C86.2956 346.696 85.8331 347.394 85.1562 347.888C84.4906 348.382 83.6388 348.629 82.6009 348.629C81.281 348.629 80.2374 348.234 79.4703 347.443C78.7031 346.652 78.3196 345.548 78.3196 344.131C78.3196 342.659 78.7088 341.516 79.4872 340.703C80.2656 339.891 81.2753 339.484 82.5163 339.484C83.7122 339.484 84.688 339.885 85.4439 340.687C86.211 341.478 86.5946 342.593 86.5946 344.032C86.5946 344.12 86.5946 344.252 86.5946 344.428H79.8933C79.9497 345.394 80.2261 346.136 80.7225 346.652C81.2302 347.157 81.8563 347.41 82.6009 347.41C83.165 347.41 83.6445 347.267 84.0393 346.982C84.4342 346.696 84.7444 346.24 84.9701 345.614ZM79.978 343.208H84.987C84.9193 342.472 84.7275 341.923 84.4116 341.56C83.9265 340.989 83.3004 340.703 82.5332 340.703C81.8338 340.703 81.2415 340.934 80.7564 341.396C80.2826 341.846 80.0231 342.45 79.978 343.208ZM94.4297 345.218L95.9358 345.416C95.7665 346.416 95.3435 347.201 94.6666 347.773C94.001 348.344 93.1774 348.629 92.1959 348.629C90.9662 348.629 89.9734 348.239 89.2176 347.46C88.473 346.669 88.1007 345.543 88.1007 344.081C88.1007 343.137 88.2586 342.313 88.5745 341.61C88.9017 340.896 89.3924 340.363 90.0468 340.011C90.7124 339.66 91.4288 339.484 92.1959 339.484C93.1774 339.484 93.9784 339.726 94.5989 340.209C95.2194 340.682 95.6142 341.363 95.7835 342.252L94.3112 342.467C94.1645 341.884 93.9107 341.445 93.5497 341.148C93.2 340.852 92.7713 340.703 92.2636 340.703C91.4965 340.703 90.8703 340.973 90.3852 341.511C89.9114 342.038 89.6745 342.884 89.6745 344.049C89.6745 345.224 89.9058 346.081 90.3683 346.619C90.8308 347.146 91.4344 347.41 92.179 347.41C92.7769 347.41 93.2733 347.234 93.6682 346.883C94.0743 346.52 94.3281 345.965 94.4297 345.218ZM100.556 347.097L100.776 348.415C100.347 348.503 99.9633 348.547 99.6248 348.547C99.072 348.547 98.6433 348.465 98.3387 348.3C98.0341 348.124 97.8198 347.899 97.6957 347.624C97.5716 347.339 97.5095 346.751 97.5095 345.861V340.835H96.3927V339.682H97.5095V337.507L99.0326 336.617V339.682H100.556V340.835H99.0326V345.944C99.0326 346.372 99.0551 346.647 99.1002 346.767C99.1567 346.888 99.2469 346.987 99.371 347.064C99.4951 347.13 99.67 347.163 99.8956 347.163C100.065 347.163 100.285 347.141 100.556 347.097ZM101.554 348.432V339.682H102.925V341C103.274 340.385 103.596 339.978 103.889 339.781C104.183 339.583 104.51 339.484 104.871 339.484C105.378 339.484 105.897 339.643 106.428 339.962L105.903 341.33C105.531 341.121 105.158 341.017 104.786 341.017C104.459 341.017 104.16 341.115 103.889 341.313C103.63 341.5 103.444 341.769 103.331 342.121C103.162 342.648 103.077 343.225 103.077 343.851V348.432H101.554ZM106.411 344.049C106.411 342.434 106.873 341.236 107.798 340.456C108.577 339.808 109.519 339.484 110.624 339.484C111.865 339.484 112.875 339.88 113.653 340.671C114.443 341.45 114.838 342.538 114.838 343.933C114.838 345.054 114.663 345.938 114.313 346.586C113.964 347.234 113.456 347.74 112.79 348.102C112.136 348.454 111.414 348.629 110.624 348.629C109.372 348.629 108.357 348.239 107.578 347.46C106.8 346.669 106.411 345.532 106.411 344.049ZM107.984 344.049C107.984 345.169 108.233 346.009 108.729 346.57C109.237 347.13 109.869 347.41 110.624 347.41C111.38 347.41 112.006 347.13 112.503 346.57C113.01 346.009 113.264 345.153 113.264 343.999C113.264 342.923 113.01 342.104 112.503 341.544C112.006 340.984 111.38 340.703 110.624 340.703C109.869 340.703 109.237 340.984 108.729 341.544C108.233 342.093 107.984 342.928 107.984 344.049ZM116.733 348.432V339.682H118.104V340.918C118.758 339.962 119.712 339.484 120.964 339.484C121.505 339.484 122.002 339.577 122.453 339.764C122.904 339.951 123.243 340.198 123.468 340.506C123.694 340.813 123.852 341.181 123.942 341.61C123.999 341.884 124.027 342.362 124.027 343.043V348.432H122.504V343.109C122.504 342.505 122.442 342.055 122.318 341.758C122.205 341.45 121.996 341.209 121.692 341.033C121.398 340.857 121.049 340.769 120.642 340.769C119.988 340.769 119.424 340.973 118.95 341.379C118.488 341.775 118.256 342.533 118.256 343.653V348.432H116.733ZM125.398 338.051V336.353H126.921V338.051H125.398ZM125.398 348.432V339.682H126.921V348.432H125.398ZM135.585 345.218L137.091 345.416C136.922 346.416 136.499 347.201 135.822 347.773C135.156 348.344 134.333 348.629 133.351 348.629C132.121 348.629 131.129 348.239 130.373 347.46C129.628 346.669 129.256 345.543 129.256 344.081C129.256 343.137 129.414 342.313 129.73 341.61C130.057 340.896 130.548 340.363 131.202 340.011C131.868 339.66 132.584 339.484 133.351 339.484C134.333 339.484 135.134 339.726 135.754 340.209C136.375 340.682 136.769 341.363 136.939 342.252L135.466 342.467C135.32 341.884 135.066 341.445 134.705 341.148C134.355 340.852 133.927 340.703 133.419 340.703C132.652 340.703 132.026 340.973 131.54 341.511C131.067 342.038 130.83 342.884 130.83 344.049C130.83 345.224 131.061 346.081 131.524 346.619C131.986 347.146 132.59 347.41 133.334 347.41C133.932 347.41 134.429 347.234 134.823 346.883C135.23 346.52 135.483 345.965 135.585 345.218ZM144.249 347.344C143.685 347.817 143.144 348.152 142.625 348.349C142.106 348.536 141.547 348.629 140.949 348.629C139.957 348.629 139.195 348.393 138.665 347.921C138.135 347.449 137.869 346.85 137.869 346.125C137.869 345.696 137.971 345.306 138.174 344.955C138.377 344.592 138.637 344.307 138.952 344.098C139.28 343.878 139.646 343.713 140.052 343.604C140.357 343.527 140.808 343.455 141.406 343.389C142.636 343.247 143.544 343.076 144.131 342.879C144.131 342.67 144.131 342.538 144.131 342.483C144.131 341.879 143.99 341.456 143.708 341.214C143.313 340.874 142.732 340.703 141.965 340.703C141.254 340.703 140.724 340.83 140.374 341.082C140.035 341.324 139.787 341.753 139.629 342.368L138.14 342.17C138.276 341.555 138.496 341.055 138.8 340.671C139.116 340.286 139.567 339.995 140.154 339.797C140.741 339.588 141.417 339.484 142.185 339.484C142.952 339.484 143.572 339.572 144.046 339.748C144.531 339.924 144.887 340.143 145.112 340.407C145.338 340.671 145.496 341.006 145.586 341.412C145.642 341.665 145.671 342.121 145.671 342.78V344.757C145.671 346.141 145.699 347.015 145.755 347.377C145.823 347.74 145.953 348.091 146.144 348.432H144.554C144.396 348.124 144.294 347.762 144.249 347.344ZM144.131 344.032C143.578 344.252 142.749 344.439 141.643 344.592C141.011 344.68 140.566 344.779 140.306 344.889C140.047 344.999 139.844 345.164 139.697 345.383C139.562 345.592 139.494 345.823 139.494 346.075C139.494 346.471 139.646 346.8 139.951 347.064C140.267 347.328 140.718 347.46 141.305 347.46C141.891 347.46 142.41 347.339 142.862 347.097C143.324 346.844 143.663 346.498 143.877 346.059C144.046 345.729 144.131 345.235 144.131 344.576V344.032Z" fill="white"/>
<path d="M174.332 348.432V336.353H179.02C179.843 336.353 180.469 336.392 180.898 336.469C181.507 336.567 182.015 336.754 182.421 337.029C182.838 337.304 183.171 337.693 183.419 338.199C183.679 338.693 183.809 339.242 183.809 339.847C183.809 340.868 183.47 341.736 182.793 342.45C182.128 343.164 180.915 343.521 179.155 343.521H175.974V348.432H174.332ZM175.974 342.088H179.189C180.249 342.088 180.999 341.895 181.439 341.511C181.891 341.126 182.116 340.588 182.116 339.896C182.116 339.391 181.981 338.957 181.71 338.594C181.451 338.232 181.107 337.996 180.678 337.886C180.407 337.809 179.899 337.77 179.155 337.77H175.974V342.088ZM185.484 344.049C185.484 342.434 185.946 341.236 186.872 340.456C187.65 339.808 188.592 339.484 189.698 339.484C190.939 339.484 191.948 339.88 192.727 340.671C193.516 341.45 193.911 342.538 193.911 343.933C193.911 345.054 193.736 345.938 193.387 346.586C193.037 347.234 192.529 347.74 191.864 348.102C191.209 348.454 190.487 348.629 189.698 348.629C188.445 348.629 187.43 348.239 186.652 347.46C185.873 346.669 185.484 345.532 185.484 344.049ZM187.058 344.049C187.058 345.169 187.306 346.009 187.802 346.57C188.31 347.13 188.942 347.41 189.698 347.41C190.453 347.41 191.08 347.13 191.576 346.57C192.084 346.009 192.337 345.153 192.337 343.999C192.337 342.923 192.084 342.104 191.576 341.544C191.08 340.984 190.453 340.703 189.698 340.703C188.942 340.703 188.31 340.984 187.802 341.544C187.306 342.093 187.058 342.928 187.058 344.049ZM195.807 351.793V339.682H197.194V340.819C197.521 340.368 197.888 340.033 198.294 339.814C198.712 339.594 199.214 339.484 199.8 339.484C200.567 339.484 201.244 339.676 201.831 340.061C202.418 340.445 202.858 340.989 203.151 341.692C203.455 342.384 203.608 343.148 203.608 343.983C203.608 344.883 203.439 345.691 203.1 346.405C202.773 347.119 202.293 347.668 201.662 348.053C201.041 348.437 200.381 348.629 199.682 348.629C199.174 348.629 198.717 348.525 198.311 348.316C197.916 348.108 197.589 347.844 197.33 347.525V351.793H195.807ZM197.177 344.098C197.177 345.229 197.409 346.064 197.871 346.603C198.345 347.141 198.915 347.41 199.58 347.41C200.257 347.41 200.838 347.13 201.323 346.57C201.808 346.009 202.051 345.147 202.051 343.983C202.051 342.862 201.814 342.027 201.34 341.478C200.866 340.918 200.302 340.638 199.648 340.638C199.005 340.638 198.43 340.934 197.922 341.527C197.425 342.121 197.177 342.977 197.177 344.098Z" fill="white"/>
<path d="M242.627 348.432V336.353H244.268V341.313H250.716V336.353H252.357V348.432H250.716V342.73H244.268V348.432H242.627ZM254.303 338.051V336.353H255.826V338.051H254.303ZM254.303 348.432V339.682H255.826V348.432H254.303ZM258.636 351.793V339.682H260.023V340.819C260.35 340.368 260.717 340.033 261.123 339.814C261.541 339.594 262.043 339.484 262.629 339.484C263.396 339.484 264.073 339.676 264.66 340.061C265.247 340.445 265.687 340.989 265.98 341.692C266.284 342.384 266.437 343.148 266.437 343.983C266.437 344.883 266.268 345.691 265.929 346.405C265.602 347.119 265.122 347.668 264.491 348.053C263.87 348.437 263.21 348.629 262.511 348.629C262.003 348.629 261.546 348.525 261.14 348.316C260.745 348.108 260.418 347.844 260.159 347.525V351.793H258.636ZM260.006 344.098C260.006 345.229 260.238 346.064 260.7 346.603C261.174 347.141 261.744 347.41 262.409 347.41C263.086 347.41 263.667 347.13 264.152 346.57C264.637 346.009 264.88 345.147 264.88 343.983C264.88 342.862 264.643 342.027 264.169 341.478C263.695 340.918 263.131 340.638 262.477 340.638C261.834 340.638 261.258 340.934 260.751 341.527C260.254 342.121 260.006 342.977 260.006 344.098ZM267.791 344.807V343.307H272.461V344.807H267.791ZM274.035 348.432V336.353H275.676V341.313H282.124V336.353H283.765V348.432H282.124V342.73H275.676V348.432H274.035ZM285.136 344.049C285.136 342.434 285.599 341.236 286.524 340.456C287.302 339.808 288.244 339.484 289.35 339.484C290.591 339.484 291.6 339.88 292.379 340.671C293.168 341.45 293.563 342.538 293.563 343.933C293.563 345.054 293.388 345.938 293.039 346.586C292.689 347.234 292.181 347.74 291.516 348.102C290.861 348.454 290.139 348.629 289.35 348.629C288.097 348.629 287.082 348.239 286.304 347.46C285.525 346.669 285.136 345.532 285.136 344.049ZM286.71 344.049C286.71 345.169 286.958 346.009 287.454 346.57C287.962 347.13 288.594 347.41 289.35 347.41C290.106 347.41 290.732 347.13 291.228 346.57C291.736 346.009 291.99 345.153 291.99 343.999C291.99 342.923 291.736 342.104 291.228 341.544C290.732 340.984 290.106 340.703 289.35 340.703C288.594 340.703 287.962 340.984 287.454 341.544C286.958 342.093 286.71 342.928 286.71 344.049ZM295.459 351.793V339.682H296.846V340.819C297.173 340.368 297.54 340.033 297.946 339.814C298.364 339.594 298.866 339.484 299.452 339.484C300.219 339.484 300.896 339.676 301.483 340.061C302.07 340.445 302.51 340.989 302.803 341.692C303.108 342.384 303.26 343.148 303.26 343.983C303.26 344.883 303.091 345.691 302.752 346.405C302.425 347.119 301.946 347.668 301.314 348.053C300.693 348.437 300.033 348.629 299.334 348.629C298.826 348.629 298.369 348.525 297.963 348.316C297.568 348.108 297.241 347.844 296.982 347.525V351.793H295.459ZM296.829 344.098C296.829 345.229 297.061 346.064 297.523 346.603C297.997 347.141 298.567 347.41 299.232 347.41C299.909 347.41 300.49 347.13 300.975 346.57C301.46 346.009 301.703 345.147 301.703 343.983C301.703 342.862 301.466 342.027 300.992 341.478C300.518 340.918 299.954 340.638 299.3 340.638C298.657 340.638 298.082 340.934 297.574 341.527C297.078 342.121 296.829 342.977 296.829 344.098Z" fill="white"/>
<path d="M323.275 348.432V336.353H327.963C328.786 336.353 329.413 336.392 329.841 336.469C330.45 336.567 330.958 336.754 331.364 337.029C331.782 337.304 332.115 337.693 332.363 338.199C332.622 338.693 332.752 339.242 332.752 339.847C332.752 340.868 332.413 341.736 331.737 342.45C331.071 343.164 329.858 343.521 328.098 343.521H324.917V348.432H323.275ZM324.917 342.088H328.132C329.193 342.088 329.943 341.895 330.383 341.511C330.834 341.126 331.06 340.588 331.06 339.896C331.06 339.391 330.924 338.957 330.654 338.594C330.394 338.232 330.05 337.996 329.621 337.886C329.351 337.809 328.843 337.77 328.098 337.77H324.917V342.088ZM334.427 344.049C334.427 342.434 334.89 341.236 335.815 340.456C336.593 339.808 337.535 339.484 338.641 339.484C339.882 339.484 340.892 339.88 341.67 340.671C342.46 341.45 342.855 342.538 342.855 343.933C342.855 345.054 342.68 345.938 342.33 346.586C341.98 347.234 341.473 347.74 340.807 348.102C340.153 348.454 339.431 348.629 338.641 348.629C337.389 348.629 336.373 348.239 335.595 347.46C334.816 346.669 334.427 345.532 334.427 344.049ZM336.001 344.049C336.001 345.169 336.249 346.009 336.746 346.57C337.253 347.13 337.885 347.41 338.641 347.41C339.397 347.41 340.023 347.13 340.519 346.57C341.027 346.009 341.281 345.153 341.281 343.999C341.281 342.923 341.027 342.104 340.519 341.544C340.023 340.984 339.397 340.703 338.641 340.703C337.885 340.703 337.253 340.984 336.746 341.544C336.249 342.093 336.001 342.928 336.001 344.049ZM344.75 351.793V339.682H346.138V340.819C346.465 340.368 346.831 340.033 347.237 339.814C347.655 339.594 348.157 339.484 348.744 339.484C349.511 339.484 350.188 339.676 350.774 340.061C351.361 340.445 351.801 340.989 352.094 341.692C352.399 342.384 352.551 343.148 352.551 343.983C352.551 344.883 352.382 345.691 352.043 346.405C351.716 347.119 351.237 347.668 350.605 348.053C349.985 348.437 349.325 348.629 348.625 348.629C348.117 348.629 347.661 348.525 347.254 348.316C346.86 348.108 346.532 347.844 346.273 347.525V351.793H344.75ZM346.121 344.098C346.121 345.229 346.352 346.064 346.814 346.603C347.288 347.141 347.858 347.41 348.524 347.41C349.2 347.41 349.781 347.13 350.267 346.57C350.752 346.009 350.994 345.147 350.994 343.983C350.994 342.862 350.757 342.027 350.284 341.478C349.81 340.918 349.246 340.638 348.591 340.638C347.948 340.638 347.373 340.934 346.865 341.527C346.369 342.121 346.121 342.977 346.121 344.098ZM353.905 344.807V343.307H358.575V344.807H353.905ZM359.895 348.432V339.682H361.266V341C361.616 340.385 361.937 339.978 362.231 339.781C362.524 339.583 362.851 339.484 363.212 339.484C363.72 339.484 364.239 339.643 364.769 339.962L364.244 341.33C363.872 341.121 363.5 341.017 363.128 341.017C362.8 341.017 362.501 341.115 362.231 341.313C361.971 341.5 361.785 341.769 361.672 342.121C361.503 342.648 361.418 343.225 361.418 343.851V348.432H359.895ZM364.752 344.049C364.752 342.434 365.215 341.236 366.14 340.456C366.918 339.808 367.86 339.484 368.966 339.484C370.207 339.484 371.216 339.88 371.995 340.671C372.785 341.45 373.179 342.538 373.179 343.933C373.179 345.054 373.005 345.938 372.655 346.586C372.305 347.234 371.797 347.74 371.132 348.102C370.478 348.454 369.756 348.629 368.966 348.629C367.714 348.629 366.698 348.239 365.92 347.46C365.141 346.669 364.752 345.532 364.752 344.049ZM366.326 344.049C366.326 345.169 366.574 346.009 367.071 346.57C367.578 347.13 368.21 347.41 368.966 347.41C369.722 347.41 370.348 347.13 370.844 346.57C371.352 346.009 371.606 345.153 371.606 343.999C371.606 342.923 371.352 342.104 370.844 341.544C370.348 340.984 369.722 340.703 368.966 340.703C368.21 340.703 367.578 340.984 367.071 341.544C366.574 342.093 366.326 342.928 366.326 344.049ZM380.93 345.218L382.436 345.416C382.267 346.416 381.844 347.201 381.167 347.773C380.501 348.344 379.678 348.629 378.696 348.629C377.466 348.629 376.474 348.239 375.718 347.46C374.973 346.669 374.601 345.543 374.601 344.081C374.601 343.137 374.759 342.313 375.075 341.61C375.402 340.896 375.893 340.363 376.547 340.011C377.213 339.66 377.929 339.484 378.696 339.484C379.678 339.484 380.479 339.726 381.099 340.209C381.72 340.682 382.115 341.363 382.284 342.252L380.811 342.467C380.665 341.884 380.411 341.445 380.05 341.148C379.7 340.852 379.272 340.703 378.764 340.703C377.997 340.703 377.371 340.973 376.885 341.511C376.412 342.038 376.175 342.884 376.175 344.049C376.175 345.224 376.406 346.081 376.869 346.619C377.331 347.146 377.935 347.41 378.679 347.41C379.277 347.41 379.774 347.234 380.168 346.883C380.575 346.52 380.828 345.965 380.93 345.218ZM383.739 348.432V336.353H385.262V343.241L388.867 339.682H390.846L387.411 342.928L391.185 348.432H389.307L386.345 343.95L385.262 344.955V348.432H383.739Z" fill="white"/>
<path d="M414.736 348.432V336.353H416.378V342.335L422.538 336.353H424.771L419.559 341.247L424.991 348.432H422.825L418.408 342.318L416.378 344.246V348.432H414.736ZM425.939 344.806V343.307H430.61V344.806H425.939ZM432.133 348.432V336.353H436.82C437.644 336.353 438.27 336.392 438.698 336.468C439.308 336.567 439.815 336.754 440.221 337.029C440.639 337.303 440.972 337.693 441.22 338.199C441.479 338.693 441.609 339.242 441.609 339.846C441.609 340.868 441.271 341.736 440.594 342.45C439.928 343.164 438.715 343.521 436.955 343.521H433.774V348.432H432.133ZM433.774 342.088H436.989C438.05 342.088 438.8 341.895 439.24 341.511C439.691 341.126 439.917 340.588 439.917 339.896C439.917 339.391 439.781 338.957 439.511 338.594C439.251 338.232 438.907 337.995 438.478 337.886C438.208 337.809 437.7 337.77 436.955 337.77H433.774V342.088ZM443.555 342.549C443.555 340.539 444.108 338.968 445.214 337.836C446.319 336.705 447.746 336.139 449.495 336.139C450.634 336.139 451.661 336.408 452.575 336.946C453.5 337.474 454.205 338.215 454.69 339.171C455.175 340.116 455.418 341.192 455.418 342.401C455.418 343.631 455.164 344.729 454.656 345.696C454.149 346.663 453.427 347.399 452.49 347.904C451.565 348.399 450.561 348.646 449.478 348.646C448.316 348.646 447.272 348.371 446.347 347.822C445.434 347.262 444.74 346.509 444.266 345.564C443.792 344.609 443.555 343.603 443.555 342.549ZM445.247 342.565C445.247 344.026 445.648 345.174 446.449 346.009C447.25 346.844 448.26 347.262 449.478 347.262C450.708 347.262 451.723 346.839 452.524 345.993C453.325 345.147 453.725 343.95 453.725 342.401C453.725 341.412 453.551 340.555 453.201 339.83C452.862 339.094 452.366 338.523 451.712 338.116C451.057 337.71 450.318 337.507 449.495 337.507C448.333 337.507 447.334 337.897 446.5 338.677C445.665 339.457 445.247 340.753 445.247 342.565ZM457.042 348.432V336.353H461.73C462.553 336.353 463.179 336.392 463.608 336.468C464.217 336.567 464.725 336.754 465.131 337.029C465.549 337.303 465.881 337.693 466.13 338.199C466.389 338.693 466.519 339.242 466.519 339.846C466.519 340.868 466.18 341.736 465.503 342.45C464.838 343.164 463.625 343.521 461.865 343.521H458.684V348.432H457.042ZM458.684 342.088H461.899C462.959 342.088 463.71 341.895 464.15 341.511C464.601 341.126 464.827 340.588 464.827 339.896C464.827 339.391 464.691 338.957 464.42 338.594C464.161 338.232 463.817 337.995 463.388 337.886C463.117 337.809 462.61 337.77 461.865 337.77H458.684V342.088Z" fill="white"/>
<path d="M511.664 348.432V337.77H507.568V336.353H517.4V337.77H513.305V348.432H511.664ZM518.043 348.432V339.682H519.414V341C519.764 340.385 520.085 339.978 520.379 339.781C520.672 339.583 520.999 339.484 521.36 339.484C521.868 339.484 522.387 339.643 522.917 339.962L522.392 341.33C522.02 341.121 521.648 341.017 521.275 341.017C520.948 341.017 520.649 341.115 520.379 341.313C520.119 341.5 519.933 341.769 519.82 342.121C519.651 342.648 519.566 343.225 519.566 343.851V348.432H518.043ZM529.331 347.344C528.766 347.817 528.225 348.152 527.706 348.349C527.187 348.536 526.629 348.629 526.031 348.629C525.038 348.629 524.276 348.393 523.746 347.921C523.216 347.449 522.951 346.85 522.951 346.125C522.951 345.696 523.052 345.306 523.255 344.955C523.458 344.592 523.718 344.307 524.034 344.098C524.361 343.878 524.728 343.713 525.134 343.604C525.438 343.527 525.89 343.455 526.488 343.389C527.717 343.247 528.625 343.076 529.212 342.879C529.212 342.67 529.212 342.538 529.212 342.483C529.212 341.879 529.071 341.456 528.789 341.214C528.394 340.874 527.813 340.703 527.046 340.703C526.335 340.703 525.805 340.83 525.455 341.082C525.117 341.324 524.869 341.753 524.711 342.368L523.222 342.17C523.357 341.555 523.577 341.055 523.882 340.671C524.197 340.286 524.649 339.995 525.235 339.797C525.822 339.588 526.499 339.484 527.266 339.484C528.033 339.484 528.654 339.572 529.127 339.748C529.613 339.924 529.968 340.143 530.194 340.407C530.419 340.671 530.577 341.006 530.667 341.412C530.724 341.665 530.752 342.121 530.752 342.78V344.757C530.752 346.141 530.78 347.015 530.837 347.377C530.904 347.74 531.034 348.091 531.226 348.432H529.635C529.477 348.124 529.376 347.762 529.331 347.344ZM529.212 344.032C528.659 344.252 527.83 344.439 526.724 344.592C526.093 344.68 525.647 344.779 525.388 344.889C525.128 344.999 524.925 345.164 524.778 345.383C524.643 345.592 524.575 345.823 524.575 346.075C524.575 346.471 524.728 346.8 525.032 347.064C525.348 347.328 525.799 347.46 526.386 347.46C526.973 347.46 527.492 347.339 527.943 347.097C528.405 346.844 528.744 346.498 528.958 346.059C529.127 345.729 529.212 345.235 529.212 344.576V344.032ZM533.223 351.793V339.682H534.61V340.819C534.937 340.368 535.304 340.033 535.71 339.814C536.128 339.594 536.63 339.484 537.216 339.484C537.984 339.484 538.66 339.676 539.247 340.061C539.834 340.445 540.274 340.989 540.567 341.692C540.872 342.384 541.024 343.148 541.024 343.983C541.024 344.883 540.855 345.691 540.516 346.405C540.189 347.119 539.71 347.668 539.078 348.053C538.457 348.437 537.797 348.629 537.098 348.629C536.59 348.629 536.133 348.525 535.727 348.316C535.332 348.108 535.005 347.844 534.746 347.525V351.793H533.223ZM534.593 344.098C534.593 345.229 534.825 346.064 535.287 346.603C535.761 347.141 536.331 347.41 536.996 347.41C537.673 347.41 538.254 347.13 538.739 346.57C539.224 346.009 539.467 345.147 539.467 343.983C539.467 342.862 539.23 342.027 538.756 341.478C538.282 340.918 537.718 340.638 537.064 340.638C536.421 340.638 535.846 340.934 535.338 341.527C534.842 342.121 534.593 342.977 534.593 344.098Z" fill="white"/>
</g>
</g>
<defs>
<clipPath id="clip0_1745_369">
<rect width="600" height="371" fill="white"/>
</clipPath>
<clipPath id="clip1_1745_369">
<rect width="600" height="367" fill="white" transform="translate(0 4)"/>
</clipPath>
</defs>
</svg>
