<svg width="600" height="372" viewBox="0 0 600 372" fill="none" xmlns="http://www.w3.org/2000/svg">
<g clip-path="url(#clip0_1654_108)">
<path d="M0 0.5H600V371.5H0V0.5Z" fill="#1A1B1F"/>
<path d="M45.5 323H581.5" stroke="#E7E7E8" stroke-miterlimit="10"/>
<path d="M45.5 224H581.5" stroke="#4D4E51" stroke-miterlimit="10"/>
<path d="M45.5 125H581.5" stroke="#4D4E51" stroke-miterlimit="10"/>
<path d="M45.5 26H581.5" stroke="#4D4E51" stroke-miterlimit="10"/>
<mask id="mask0_1654_108" style="mask-type:luminance" maskUnits="userSpaceOnUse" x="45" y="26" width="537" height="297">
<path d="M45.5498 26.05H581.45V322.95H45.5498V26.05Z" fill="white"/>
</mask>
<g mask="url(#mask0_1654_108)">
<path d="M131 322.5H76V28.5C76 27.3954 76.8954 26.5 78 26.5H129C130.105 26.5 131 27.3954 131 28.5V322.5Z" fill="#008B56"/>
</g>
<mask id="mask1_1654_108" style="mask-type:luminance" maskUnits="userSpaceOnUse" x="45" y="26" width="537" height="297">
<path d="M45.5498 26.05H581.45V322.95H45.5498V26.05Z" fill="white"/>
</mask>
<g mask="url(#mask1_1654_108)">
<path d="M215 322.5H160V127.5C160 126.395 160.895 125.5 162 125.5H213C214.105 125.5 215 126.395 215 127.5V322.5Z" fill="#03B974"/>
</g>
<mask id="mask2_1654_108" style="mask-type:luminance" maskUnits="userSpaceOnUse" x="45" y="26" width="537" height="297">
<path d="M45.5498 26.05H581.45V322.95H45.5498V26.05Z" fill="white"/>
</mask>
<g mask="url(#mask2_1654_108)">
<path d="M299 322.5H244V225.5C244 224.395 244.895 223.5 246 223.5H297C298.105 223.5 299 224.395 299 225.5V322.5Z" fill="#1CDB93"/>
</g>
<mask id="mask3_1654_108" style="mask-type:luminance" maskUnits="userSpaceOnUse" x="45" y="26" width="537" height="297">
<path d="M45.5498 26.05H581.45V322.95H45.5498V26.05Z" fill="white"/>
</mask>
<g mask="url(#mask3_1654_108)">
<path d="M384 322.5H329V225.5C329 224.395 329.895 223.5 331 223.5H382C383.105 223.5 384 224.395 384 225.5V322.5Z" fill="#42F4B1"/>
</g>
<mask id="mask4_1654_108" style="mask-type:luminance" maskUnits="userSpaceOnUse" x="45" y="26" width="537" height="297">
<path d="M45.5498 26.05H581.45V322.95H45.5498V26.05Z" fill="white"/>
</mask>
<g mask="url(#mask4_1654_108)">
<path d="M468 322.5H413V28.5C413 27.3954 413.895 26.5 415 26.5H466C467.105 26.5 468 27.3954 468 28.5V322.5Z" fill="#8BF6CE"/>
</g>
<mask id="mask5_1654_108" style="mask-type:luminance" maskUnits="userSpaceOnUse" x="45" y="26" width="537" height="297">
<path d="M45.5498 26.05H581.45V322.95H45.5498V26.05Z" fill="white"/>
</mask>
<g mask="url(#mask5_1654_108)">
<path d="M552 322.5H497V225.5C497 224.395 497.895 223.5 499 223.5H550C551.105 223.5 552 224.395 552 225.5V322.5Z" fill="#BCFFE6"/>
</g>
<path d="M33.0498 322.716C33.0498 321.695 33.154 320.877 33.3623 320.263C33.5706 319.638 33.8779 319.159 34.2842 318.825C34.7008 318.492 35.2217 318.325 35.8467 318.325C36.305 318.325 36.7061 318.419 37.0498 318.606C37.404 318.794 37.6956 319.065 37.9248 319.419C38.154 319.763 38.3311 320.185 38.4561 320.685C38.5811 321.185 38.6436 321.862 38.6436 322.716C38.6436 323.726 38.5394 324.539 38.3311 325.153C38.1331 325.768 37.8258 326.247 37.4092 326.591C37.0029 326.924 36.4821 327.091 35.8467 327.091C35.0238 327.091 34.3727 326.794 33.8936 326.2C33.3311 325.492 33.0498 324.33 33.0498 322.716ZM34.1279 322.716C34.1279 324.122 34.2946 325.06 34.6279 325.528C34.9613 325.997 35.3675 326.231 35.8467 326.231C36.3363 326.231 36.7425 325.997 37.0654 325.528C37.3988 325.06 37.5654 324.122 37.5654 322.716C37.5654 321.299 37.3988 320.362 37.0654 319.903C36.7425 319.435 36.3311 319.2 35.8311 319.2C35.3519 319.2 34.9665 319.403 34.6748 319.81C34.3102 320.33 34.1279 321.299 34.1279 322.716Z" fill="white"/>
<path d="M37.0186 227.983H35.9717V221.265C35.7113 221.504 35.3727 221.749 34.9561 221.999C34.5498 222.239 34.1852 222.416 33.8623 222.53V221.515C34.4456 221.233 34.9561 220.9 35.3936 220.515C35.8415 220.119 36.1592 219.733 36.3467 219.358H37.0186V227.983Z" fill="white"/>
<path d="M38.5967 128.001V129.017H32.9092C32.9092 128.767 32.9508 128.522 33.0342 128.282C33.18 127.897 33.4092 127.517 33.7217 127.142C34.0446 126.767 34.5081 126.334 35.1123 125.845C36.0498 125.074 36.68 124.465 37.0029 124.017C37.3363 123.569 37.5029 123.147 37.5029 122.751C37.5029 122.334 37.3519 121.985 37.0498 121.704C36.7477 121.412 36.3571 121.267 35.8779 121.267C35.3675 121.267 34.9613 121.418 34.6592 121.72C34.3571 122.022 34.2008 122.444 34.1904 122.985L33.1123 122.876C33.1852 122.063 33.4613 121.449 33.9404 121.032C34.43 120.605 35.0863 120.392 35.9092 120.392C36.7321 120.392 37.3831 120.621 37.8623 121.079C38.3415 121.537 38.5811 122.105 38.5811 122.782C38.5811 123.126 38.5081 123.465 38.3623 123.798C38.2269 124.121 37.9925 124.47 37.6592 124.845C37.3363 125.209 36.7998 125.709 36.0498 126.345C35.4144 126.876 35.0029 127.241 34.8154 127.438C34.6383 127.626 34.4925 127.813 34.3779 128.001H38.5967Z" fill="white"/>
<path d="M33.0498 27.7844L34.1123 27.6438C34.2269 28.2375 34.43 28.6698 34.7217 28.9407C35.0133 29.2011 35.3675 29.3313 35.7842 29.3313C36.2842 29.3313 36.7061 29.1594 37.0498 28.8157C37.3936 28.4719 37.5654 28.0448 37.5654 27.5344C37.5654 27.0553 37.404 26.6594 37.0811 26.3469C36.7686 26.024 36.3675 25.8625 35.8779 25.8625C35.68 25.8625 35.43 25.9042 35.1279 25.9875L35.2529 25.05C35.3258 25.0605 35.3831 25.0657 35.4248 25.0657C35.8727 25.0657 36.2738 24.9511 36.6279 24.7219C36.9925 24.4823 37.1748 24.1178 37.1748 23.6282C37.1748 23.2428 37.0446 22.925 36.7842 22.675C36.5238 22.4146 36.1852 22.2844 35.7686 22.2844C35.3623 22.2844 35.0186 22.4146 34.7373 22.675C34.4665 22.9355 34.2946 23.3209 34.2217 23.8313L33.1592 23.6438C33.2842 22.9459 33.5758 22.4042 34.0342 22.0188C34.4925 21.623 35.0602 21.425 35.7373 21.425C36.2061 21.425 36.6383 21.5292 37.0342 21.7375C37.43 21.9355 37.7321 22.2063 37.9404 22.55C38.1488 22.8938 38.2529 23.2636 38.2529 23.6594C38.2529 24.024 38.154 24.3625 37.9561 24.675C37.7581 24.9771 37.4665 25.2167 37.0811 25.3938C37.5811 25.5084 37.9717 25.7532 38.2529 26.1282C38.5342 26.4928 38.6748 26.9563 38.6748 27.5188C38.6748 28.2688 38.3988 28.9042 37.8467 29.425C37.305 29.9459 36.6175 30.2063 35.7842 30.2063C35.0342 30.2063 34.4092 29.9823 33.9092 29.5344C33.4092 29.0761 33.1227 28.4928 33.0498 27.7844Z" fill="white"/>
<path d="M83.4375 348.95V336.06H89.1406C90.2865 336.06 91.1563 336.179 91.75 336.419C92.3542 336.648 92.8333 337.054 93.1875 337.638C93.5521 338.221 93.7344 338.867 93.7344 339.575C93.7344 340.492 93.4375 341.263 92.8438 341.888C92.25 342.513 91.3385 342.914 90.1094 343.091C90.5573 343.31 90.8958 343.523 91.125 343.731C91.625 344.19 92.099 344.763 92.5469 345.45L94.7812 348.95H92.6406L90.9375 346.263C90.4375 345.492 90.026 344.903 89.7031 344.497C89.3802 344.08 89.0885 343.794 88.8281 343.638C88.5781 343.471 88.3229 343.356 88.0625 343.294C87.8646 343.252 87.5469 343.231 87.1094 343.231H85.1406V348.95H83.4375ZM85.1406 341.747H88.7969C89.5781 341.747 90.1875 341.669 90.625 341.513C91.0625 341.346 91.3958 341.086 91.625 340.731C91.8542 340.377 91.9688 339.992 91.9688 339.575C91.9688 338.971 91.7448 338.471 91.2969 338.075C90.8594 337.679 90.1667 337.481 89.2188 337.481H85.1406V341.747ZM95.6094 344.278C95.6094 342.549 96.0938 341.268 97.0625 340.435C97.8646 339.747 98.8385 339.403 99.9844 339.403C101.276 339.403 102.328 339.825 103.141 340.669C103.953 341.513 104.359 342.674 104.359 344.153C104.359 345.351 104.177 346.294 103.812 346.981C103.458 347.669 102.938 348.205 102.25 348.591C101.562 348.976 100.807 349.169 99.9844 349.169C98.6823 349.169 97.625 348.752 96.8125 347.919C96.0104 347.075 95.6094 345.862 95.6094 344.278ZM97.2344 344.278C97.2344 345.476 97.4948 346.372 98.0156 346.966C98.5365 347.56 99.1927 347.856 99.9844 347.856C100.776 347.856 101.432 347.56 101.953 346.966C102.474 346.362 102.734 345.45 102.734 344.231C102.734 343.075 102.469 342.2 101.938 341.606C101.417 341.013 100.766 340.716 99.9844 340.716C99.1927 340.716 98.5365 341.013 98.0156 341.606C97.4948 342.2 97.2344 343.091 97.2344 344.278ZM112.297 345.528L113.844 345.731C113.677 346.804 113.245 347.648 112.547 348.263C111.849 348.867 110.99 349.169 109.969 349.169C108.688 349.169 107.656 348.752 106.875 347.919C106.104 347.075 105.719 345.877 105.719 344.325C105.719 343.315 105.885 342.435 106.219 341.685C106.552 340.924 107.057 340.356 107.734 339.981C108.422 339.596 109.167 339.403 109.969 339.403C110.99 339.403 111.818 339.664 112.453 340.185C113.099 340.695 113.516 341.419 113.703 342.356L112.156 342.591C112.01 341.966 111.75 341.497 111.375 341.185C111.01 340.862 110.563 340.7 110.031 340.7C109.24 340.7 108.594 340.987 108.094 341.56C107.594 342.132 107.344 343.039 107.344 344.278C107.344 345.528 107.583 346.44 108.062 347.013C108.542 347.575 109.172 347.856 109.953 347.856C110.568 347.856 111.083 347.669 111.5 347.294C111.917 346.909 112.182 346.32 112.297 345.528ZM115.219 348.95V336.06H116.797V343.419L120.531 339.622H122.578L119.016 343.075L122.953 348.95H121L117.906 344.185L116.797 345.247V348.95H115.219Z" fill="white"/>
<path d="M151.987 345.95L153.628 346.153C153.368 347.101 152.888 347.841 152.19 348.372C151.493 348.903 150.602 349.169 149.519 349.169C148.154 349.169 147.071 348.747 146.269 347.903C145.466 347.06 145.065 345.877 145.065 344.356C145.065 342.794 145.466 341.58 146.269 340.716C147.081 339.841 148.133 339.403 149.425 339.403C150.675 339.403 151.696 339.83 152.487 340.685C153.279 341.528 153.675 342.721 153.675 344.263C153.675 344.356 153.67 344.497 153.659 344.685H146.706C146.758 345.716 147.045 346.502 147.565 347.044C148.097 347.586 148.748 347.856 149.519 347.856C150.102 347.856 150.597 347.705 151.003 347.403C151.42 347.101 151.748 346.617 151.987 345.95ZM146.784 343.388H152.003C151.93 342.606 151.732 342.018 151.409 341.622C150.899 341.007 150.243 340.7 149.44 340.7C148.722 340.7 148.112 340.945 147.612 341.435C147.123 341.924 146.847 342.575 146.784 343.388ZM161.706 348.95V347.575C160.987 348.638 160.003 349.169 158.753 349.169C158.201 349.169 157.685 349.065 157.206 348.856C156.727 348.638 156.373 348.372 156.144 348.06C155.914 347.737 155.753 347.341 155.659 346.872C155.597 346.56 155.565 346.07 155.565 345.403V339.622H157.144V344.794C157.144 345.617 157.175 346.174 157.237 346.466C157.341 346.882 157.555 347.211 157.878 347.45C158.201 347.679 158.597 347.794 159.065 347.794C159.545 347.794 159.993 347.674 160.409 347.435C160.826 347.195 161.118 346.867 161.284 346.45C161.461 346.023 161.55 345.414 161.55 344.622V339.622H163.128V348.95H161.706ZM165.581 348.95V339.622H167.003V341.028C167.368 340.372 167.701 339.94 168.003 339.731C168.315 339.513 168.654 339.403 169.019 339.403C169.56 339.403 170.102 339.575 170.644 339.919L170.112 341.388C169.716 341.159 169.326 341.044 168.94 341.044C168.597 341.044 168.284 341.148 168.003 341.356C167.732 341.565 167.539 341.851 167.425 342.216C167.248 342.778 167.159 343.393 167.159 344.06V348.95H165.581ZM171.003 344.278C171.003 342.549 171.487 341.268 172.456 340.435C173.258 339.747 174.232 339.403 175.378 339.403C176.67 339.403 177.722 339.825 178.534 340.669C179.347 341.513 179.753 342.674 179.753 344.153C179.753 345.351 179.571 346.294 179.206 346.981C178.852 347.669 178.331 348.205 177.644 348.591C176.956 348.976 176.201 349.169 175.378 349.169C174.076 349.169 173.019 348.752 172.206 347.919C171.404 347.075 171.003 345.862 171.003 344.278ZM172.628 344.278C172.628 345.476 172.888 346.372 173.409 346.966C173.93 347.56 174.586 347.856 175.378 347.856C176.17 347.856 176.826 347.56 177.347 346.966C177.868 346.362 178.128 345.45 178.128 344.231C178.128 343.075 177.862 342.2 177.331 341.606C176.81 341.013 176.159 340.716 175.378 340.716C174.586 340.716 173.93 341.013 173.409 341.606C172.888 342.2 172.628 343.091 172.628 344.278ZM187.659 348.95V347.778C187.065 348.705 186.19 349.169 185.034 349.169C184.295 349.169 183.612 348.966 182.987 348.56C182.362 348.143 181.878 347.57 181.534 346.841C181.19 346.101 181.019 345.252 181.019 344.294C181.019 343.356 181.175 342.513 181.487 341.763C181.8 341.002 182.263 340.419 182.878 340.013C183.503 339.606 184.201 339.403 184.972 339.403C185.534 339.403 186.034 339.523 186.472 339.763C186.909 340.002 187.269 340.31 187.55 340.685V336.06H189.112V348.95H187.659ZM182.644 344.294C182.644 345.492 182.894 346.388 183.394 346.981C183.904 347.565 184.503 347.856 185.19 347.856C185.878 347.856 186.461 347.575 186.94 347.013C187.43 346.45 187.675 345.586 187.675 344.419C187.675 343.148 187.43 342.216 186.94 341.622C186.451 341.018 185.847 340.716 185.128 340.716C184.42 340.716 183.826 341.002 183.347 341.575C182.878 342.148 182.644 343.054 182.644 344.294ZM197.69 347.794C197.107 348.294 196.539 348.648 195.987 348.856C195.446 349.065 194.868 349.169 194.253 349.169C193.222 349.169 192.43 348.919 191.878 348.419C191.336 347.909 191.065 347.263 191.065 346.481C191.065 346.034 191.17 345.622 191.378 345.247C191.586 344.862 191.857 344.554 192.19 344.325C192.524 344.096 192.904 343.924 193.331 343.81C193.644 343.726 194.112 343.648 194.737 343.575C196.008 343.419 196.946 343.237 197.55 343.028C197.56 342.81 197.565 342.669 197.565 342.606C197.565 341.971 197.414 341.518 197.112 341.247C196.706 340.893 196.107 340.716 195.315 340.716C194.565 340.716 194.013 340.846 193.659 341.106C193.305 341.367 193.045 341.83 192.878 342.497L191.331 342.278C191.477 341.612 191.706 341.075 192.019 340.669C192.341 340.263 192.805 339.95 193.409 339.731C194.024 339.513 194.737 339.403 195.55 339.403C196.341 339.403 196.987 339.497 197.487 339.685C197.987 339.872 198.352 340.112 198.581 340.403C198.821 340.685 198.987 341.039 199.081 341.466C199.133 341.737 199.159 342.226 199.159 342.935V345.044C199.159 346.513 199.19 347.445 199.253 347.841C199.326 348.226 199.461 348.596 199.659 348.95H198.003C197.836 348.617 197.732 348.231 197.69 347.794ZM197.55 344.263C196.977 344.502 196.118 344.7 194.972 344.856C194.326 344.95 193.868 345.06 193.597 345.185C193.326 345.299 193.118 345.471 192.972 345.7C192.826 345.919 192.753 346.169 192.753 346.45C192.753 346.867 192.909 347.216 193.222 347.497C193.545 347.778 194.013 347.919 194.628 347.919C195.243 347.919 195.784 347.789 196.253 347.528C196.732 347.257 197.081 346.893 197.3 346.435C197.466 346.07 197.55 345.539 197.55 344.841V344.263ZM201.597 348.95V339.622H203.019V340.95C203.706 339.919 204.696 339.403 205.987 339.403C206.55 339.403 207.065 339.507 207.534 339.716C208.013 339.914 208.368 340.179 208.597 340.513C208.836 340.836 209.003 341.221 209.097 341.669C209.149 341.961 209.175 342.476 209.175 343.216V348.95H207.597V343.278C207.597 342.632 207.534 342.148 207.409 341.825C207.295 341.502 207.076 341.247 206.753 341.06C206.44 340.872 206.076 340.778 205.659 340.778C204.982 340.778 204.399 340.992 203.909 341.419C203.42 341.846 203.175 342.659 203.175 343.856V348.95H201.597ZM217.69 345.528L219.237 345.731C219.071 346.804 218.638 347.648 217.94 348.263C217.243 348.867 216.383 349.169 215.362 349.169C214.081 349.169 213.05 348.752 212.269 347.919C211.498 347.075 211.112 345.877 211.112 344.325C211.112 343.315 211.279 342.435 211.612 341.685C211.946 340.924 212.451 340.356 213.128 339.981C213.815 339.596 214.56 339.403 215.362 339.403C216.383 339.403 217.211 339.664 217.847 340.185C218.493 340.695 218.909 341.419 219.097 342.356L217.55 342.591C217.404 341.966 217.144 341.497 216.769 341.185C216.404 340.862 215.956 340.7 215.425 340.7C214.633 340.7 213.987 340.987 213.487 341.56C212.987 342.132 212.737 343.039 212.737 344.278C212.737 345.528 212.977 346.44 213.456 347.013C213.935 347.575 214.565 347.856 215.347 347.856C215.961 347.856 216.477 347.669 216.894 347.294C217.31 346.909 217.576 346.32 217.69 345.528ZM226.987 345.95L228.628 346.153C228.368 347.101 227.888 347.841 227.19 348.372C226.493 348.903 225.602 349.169 224.519 349.169C223.154 349.169 222.071 348.747 221.269 347.903C220.466 347.06 220.065 345.877 220.065 344.356C220.065 342.794 220.466 341.58 221.269 340.716C222.081 339.841 223.133 339.403 224.425 339.403C225.675 339.403 226.696 339.83 227.487 340.685C228.279 341.528 228.675 342.721 228.675 344.263C228.675 344.356 228.67 344.497 228.659 344.685H221.706C221.758 345.716 222.045 346.502 222.565 347.044C223.097 347.586 223.748 347.856 224.519 347.856C225.102 347.856 225.597 347.705 226.003 347.403C226.42 347.101 226.748 346.617 226.987 345.95ZM221.784 343.388H227.003C226.93 342.606 226.732 342.018 226.409 341.622C225.899 341.007 225.243 340.7 224.44 340.7C223.722 340.7 223.112 340.945 222.612 341.435C222.123 341.924 221.847 342.575 221.784 343.388Z" fill="white"/>
<path d="M256.693 348.95V336.06H261.553C262.407 336.06 263.058 336.101 263.506 336.185C264.141 336.289 264.673 336.492 265.1 336.794C265.527 337.086 265.87 337.502 266.131 338.044C266.391 338.575 266.521 339.159 266.521 339.794C266.521 340.888 266.173 341.815 265.475 342.575C264.777 343.336 263.521 343.716 261.709 343.716H258.396V348.95H256.693ZM258.396 342.185H261.725C262.829 342.185 263.61 341.981 264.068 341.575C264.537 341.169 264.771 340.591 264.771 339.841C264.771 339.299 264.636 338.841 264.365 338.466C264.094 338.08 263.735 337.825 263.287 337.7C262.995 337.627 262.464 337.591 261.693 337.591H258.396V342.185ZM267.896 344.278C267.896 342.549 268.381 341.268 269.35 340.435C270.152 339.747 271.126 339.403 272.271 339.403C273.563 339.403 274.615 339.825 275.428 340.669C276.24 341.513 276.646 342.674 276.646 344.153C276.646 345.351 276.464 346.294 276.1 346.981C275.745 347.669 275.225 348.205 274.537 348.591C273.85 348.976 273.094 349.169 272.271 349.169C270.969 349.169 269.912 348.752 269.1 347.919C268.298 347.075 267.896 345.862 267.896 344.278ZM269.521 344.278C269.521 345.476 269.782 346.372 270.303 346.966C270.824 347.56 271.48 347.856 272.271 347.856C273.063 347.856 273.719 347.56 274.24 346.966C274.761 346.362 275.021 345.45 275.021 344.231C275.021 343.075 274.756 342.2 274.225 341.606C273.704 341.013 273.053 340.716 272.271 340.716C271.48 340.716 270.824 341.013 270.303 341.606C269.782 342.2 269.521 343.091 269.521 344.278ZM278.49 352.528V339.622H279.928V340.825C280.271 340.356 280.657 340.002 281.084 339.763C281.511 339.523 282.027 339.403 282.631 339.403C283.433 339.403 284.136 339.612 284.74 340.028C285.355 340.435 285.818 341.013 286.131 341.763C286.443 342.502 286.6 343.32 286.6 344.216C286.6 345.164 286.428 346.023 286.084 346.794C285.74 347.554 285.24 348.143 284.584 348.56C283.928 348.966 283.24 349.169 282.521 349.169C282.001 349.169 281.527 349.06 281.1 348.841C280.683 348.612 280.339 348.325 280.068 347.981V352.528H278.49ZM279.928 344.341C279.928 345.539 280.167 346.424 280.646 346.997C281.136 347.57 281.725 347.856 282.412 347.856C283.12 347.856 283.725 347.56 284.225 346.966C284.725 346.372 284.975 345.45 284.975 344.2C284.975 343.013 284.73 342.122 284.24 341.528C283.751 340.935 283.167 340.638 282.49 340.638C281.813 340.638 281.214 340.955 280.693 341.591C280.183 342.216 279.928 343.132 279.928 344.341Z" fill="white"/>
<path d="M338.712 345.294L340.259 345.075C340.301 346.065 340.483 346.742 340.806 347.106C341.139 347.471 341.592 347.653 342.165 347.653C342.592 347.653 342.962 347.554 343.274 347.356C343.587 347.159 343.801 346.893 343.915 346.56C344.03 346.216 344.087 345.674 344.087 344.935V336.06H345.806V344.841C345.806 345.924 345.676 346.763 345.415 347.356C345.155 347.94 344.738 348.388 344.165 348.7C343.603 349.013 342.941 349.169 342.181 349.169C341.045 349.169 340.176 348.846 339.571 348.2C338.978 347.544 338.691 346.575 338.712 345.294ZM354.478 347.794C353.894 348.294 353.327 348.648 352.774 348.856C352.233 349.065 351.655 349.169 351.04 349.169C350.009 349.169 349.217 348.919 348.665 348.419C348.123 347.909 347.853 347.263 347.853 346.481C347.853 346.034 347.957 345.622 348.165 345.247C348.373 344.862 348.644 344.554 348.978 344.325C349.311 344.096 349.691 343.924 350.118 343.81C350.431 343.726 350.899 343.648 351.524 343.575C352.795 343.419 353.733 343.237 354.337 343.028C354.347 342.81 354.353 342.669 354.353 342.606C354.353 341.971 354.202 341.518 353.899 341.247C353.493 340.893 352.894 340.716 352.103 340.716C351.353 340.716 350.801 340.846 350.446 341.106C350.092 341.367 349.832 341.83 349.665 342.497L348.118 342.278C348.264 341.612 348.493 341.075 348.806 340.669C349.129 340.263 349.592 339.95 350.196 339.731C350.811 339.513 351.524 339.403 352.337 339.403C353.129 339.403 353.774 339.497 354.274 339.685C354.774 339.872 355.139 340.112 355.368 340.403C355.608 340.685 355.775 341.039 355.868 341.466C355.92 341.737 355.946 342.226 355.946 342.935V345.044C355.946 346.513 355.978 347.445 356.04 347.841C356.113 348.226 356.248 348.596 356.446 348.95H354.79C354.623 348.617 354.519 348.231 354.478 347.794ZM354.337 344.263C353.764 344.502 352.905 344.7 351.759 344.856C351.113 344.95 350.655 345.06 350.384 345.185C350.113 345.299 349.905 345.471 349.759 345.7C349.613 345.919 349.54 346.169 349.54 346.45C349.54 346.867 349.696 347.216 350.009 347.497C350.332 347.778 350.801 347.919 351.415 347.919C352.03 347.919 352.571 347.789 353.04 347.528C353.519 347.257 353.868 346.893 354.087 346.435C354.254 346.07 354.337 345.539 354.337 344.841V344.263ZM357.556 348.95V347.669L363.493 340.841C362.816 340.882 362.222 340.903 361.712 340.903H357.899V339.622H365.524V340.669L360.478 346.591L359.493 347.669C360.202 347.617 360.868 347.591 361.493 347.591H365.806V348.95H357.556ZM365.556 348.95V347.669L371.493 340.841C370.816 340.882 370.222 340.903 369.712 340.903H365.899V339.622H373.524V340.669L368.478 346.591L367.493 347.669C368.202 347.617 368.868 347.591 369.493 347.591H373.806V348.95H365.556Z" fill="white"/>
<path d="M397.013 348.95V336.06H406.325V337.591H398.716V341.528H405.841V343.044H398.716V347.435H406.638V348.95H397.013ZM408.747 348.95V336.06H410.325V348.95H408.747ZM419.169 345.95L420.81 346.153C420.549 347.101 420.07 347.841 419.372 348.372C418.674 348.903 417.784 349.169 416.7 349.169C415.336 349.169 414.252 348.747 413.45 347.903C412.648 347.06 412.247 345.877 412.247 344.356C412.247 342.794 412.648 341.58 413.45 340.716C414.263 339.841 415.315 339.403 416.606 339.403C417.856 339.403 418.877 339.83 419.669 340.685C420.461 341.528 420.856 342.721 420.856 344.263C420.856 344.356 420.851 344.497 420.841 344.685H413.888C413.94 345.716 414.226 346.502 414.747 347.044C415.278 347.586 415.929 347.856 416.7 347.856C417.284 347.856 417.778 347.705 418.185 347.403C418.601 347.101 418.929 346.617 419.169 345.95ZM413.966 343.388H419.185C419.112 342.606 418.914 342.018 418.591 341.622C418.08 341.007 417.424 340.7 416.622 340.7C415.903 340.7 415.294 340.945 414.794 341.435C414.304 341.924 414.028 342.575 413.966 343.388ZM428.872 345.528L430.419 345.731C430.252 346.804 429.82 347.648 429.122 348.263C428.424 348.867 427.565 349.169 426.544 349.169C425.263 349.169 424.231 348.752 423.45 347.919C422.679 347.075 422.294 345.877 422.294 344.325C422.294 343.315 422.461 342.435 422.794 341.685C423.127 340.924 423.632 340.356 424.31 339.981C424.997 339.596 425.742 339.403 426.544 339.403C427.565 339.403 428.393 339.664 429.028 340.185C429.674 340.695 430.091 341.419 430.278 342.356L428.731 342.591C428.586 341.966 428.325 341.497 427.95 341.185C427.586 340.862 427.138 340.7 426.606 340.7C425.815 340.7 425.169 340.987 424.669 341.56C424.169 342.132 423.919 343.039 423.919 344.278C423.919 345.528 424.159 346.44 424.638 347.013C425.117 347.575 425.747 347.856 426.528 347.856C427.143 347.856 427.659 347.669 428.075 347.294C428.492 346.909 428.757 346.32 428.872 345.528ZM435.231 347.528L435.466 348.935C435.018 349.028 434.617 349.075 434.263 349.075C433.69 349.075 433.242 348.987 432.919 348.81C432.606 348.622 432.388 348.382 432.263 348.091C432.138 347.789 432.075 347.164 432.075 346.216V340.841H430.903V339.622H432.075V337.31L433.638 336.356V339.622H435.231V340.841H433.638V346.31C433.638 346.757 433.664 347.049 433.716 347.185C433.778 347.31 433.872 347.409 433.997 347.481C434.122 347.554 434.304 347.591 434.544 347.591C434.711 347.591 434.94 347.57 435.231 347.528ZM436.763 348.95V339.622H438.185V341.028C438.549 340.372 438.882 339.94 439.185 339.731C439.497 339.513 439.836 339.403 440.2 339.403C440.742 339.403 441.284 339.575 441.825 339.919L441.294 341.388C440.898 341.159 440.507 341.044 440.122 341.044C439.778 341.044 439.466 341.148 439.185 341.356C438.914 341.565 438.721 341.851 438.606 342.216C438.429 342.778 438.341 343.393 438.341 344.06V348.95H436.763ZM442.185 344.278C442.185 342.549 442.669 341.268 443.638 340.435C444.44 339.747 445.414 339.403 446.56 339.403C447.851 339.403 448.903 339.825 449.716 340.669C450.528 341.513 450.935 342.674 450.935 344.153C450.935 345.351 450.752 346.294 450.388 346.981C450.034 347.669 449.513 348.205 448.825 348.591C448.138 348.976 447.382 349.169 446.56 349.169C445.257 349.169 444.2 348.752 443.388 347.919C442.586 347.075 442.185 345.862 442.185 344.278ZM443.81 344.278C443.81 345.476 444.07 346.372 444.591 346.966C445.112 347.56 445.768 347.856 446.56 347.856C447.351 347.856 448.007 347.56 448.528 346.966C449.049 346.362 449.31 345.45 449.31 344.231C449.31 343.075 449.044 342.2 448.513 341.606C447.992 341.013 447.341 340.716 446.56 340.716C445.768 340.716 445.112 341.013 444.591 341.606C444.07 342.2 443.81 343.091 443.81 344.278ZM452.778 348.95V339.622H454.2V340.95C454.888 339.919 455.877 339.403 457.169 339.403C457.731 339.403 458.247 339.507 458.716 339.716C459.195 339.914 459.549 340.179 459.778 340.513C460.018 340.836 460.185 341.221 460.278 341.669C460.33 341.961 460.356 342.476 460.356 343.216V348.95H458.778V343.278C458.778 342.632 458.716 342.148 458.591 341.825C458.476 341.502 458.257 341.247 457.935 341.06C457.622 340.872 457.257 340.778 456.841 340.778C456.164 340.778 455.58 340.992 455.091 341.419C454.601 341.846 454.356 342.659 454.356 343.856V348.95H452.778ZM462.794 337.888V336.06H464.372V337.888H462.794ZM462.794 348.95V339.622H464.372V348.95H462.794ZM472.872 345.528L474.419 345.731C474.252 346.804 473.82 347.648 473.122 348.263C472.424 348.867 471.565 349.169 470.544 349.169C469.263 349.169 468.231 348.752 467.45 347.919C466.679 347.075 466.294 345.877 466.294 344.325C466.294 343.315 466.461 342.435 466.794 341.685C467.127 340.924 467.632 340.356 468.31 339.981C468.997 339.596 469.742 339.403 470.544 339.403C471.565 339.403 472.393 339.664 473.028 340.185C473.674 340.695 474.091 341.419 474.278 342.356L472.731 342.591C472.586 341.966 472.325 341.497 471.95 341.185C471.586 340.862 471.138 340.7 470.606 340.7C469.815 340.7 469.169 340.987 468.669 341.56C468.169 342.132 467.919 343.039 467.919 344.278C467.919 345.528 468.159 346.44 468.638 347.013C469.117 347.575 469.747 347.856 470.528 347.856C471.143 347.856 471.659 347.669 472.075 347.294C472.492 346.909 472.757 346.32 472.872 345.528ZM481.872 347.794C481.289 348.294 480.721 348.648 480.169 348.856C479.627 349.065 479.049 349.169 478.435 349.169C477.403 349.169 476.612 348.919 476.06 348.419C475.518 347.909 475.247 347.263 475.247 346.481C475.247 346.034 475.351 345.622 475.56 345.247C475.768 344.862 476.039 344.554 476.372 344.325C476.705 344.096 477.086 343.924 477.513 343.81C477.825 343.726 478.294 343.648 478.919 343.575C480.19 343.419 481.127 343.237 481.731 343.028C481.742 342.81 481.747 342.669 481.747 342.606C481.747 341.971 481.596 341.518 481.294 341.247C480.888 340.893 480.289 340.716 479.497 340.716C478.747 340.716 478.195 340.846 477.841 341.106C477.487 341.367 477.226 341.83 477.06 342.497L475.513 342.278C475.659 341.612 475.888 341.075 476.2 340.669C476.523 340.263 476.987 339.95 477.591 339.731C478.205 339.513 478.919 339.403 479.731 339.403C480.523 339.403 481.169 339.497 481.669 339.685C482.169 339.872 482.534 340.112 482.763 340.403C483.002 340.685 483.169 341.039 483.263 341.466C483.315 341.737 483.341 342.226 483.341 342.935V345.044C483.341 346.513 483.372 347.445 483.435 347.841C483.507 348.226 483.643 348.596 483.841 348.95H482.185C482.018 348.617 481.914 348.231 481.872 347.794ZM481.731 344.263C481.159 344.502 480.299 344.7 479.153 344.856C478.507 344.95 478.049 345.06 477.778 345.185C477.507 345.299 477.299 345.471 477.153 345.7C477.007 345.919 476.935 346.169 476.935 346.45C476.935 346.867 477.091 347.216 477.403 347.497C477.726 347.778 478.195 347.919 478.81 347.919C479.424 347.919 479.966 347.789 480.435 347.528C480.914 347.257 481.263 346.893 481.481 346.435C481.648 346.07 481.731 345.539 481.731 344.841V344.263Z" fill="white"/>
<path d="M499.875 348.95V336.06H504.312C505.312 336.06 506.078 336.122 506.609 336.247C507.349 336.414 507.979 336.721 508.5 337.169C509.177 337.742 509.682 338.476 510.016 339.372C510.359 340.268 510.531 341.289 510.531 342.435C510.531 343.414 510.417 344.284 510.188 345.044C509.958 345.794 509.661 346.419 509.297 346.919C508.943 347.409 508.552 347.799 508.125 348.091C507.708 348.372 507.198 348.586 506.594 348.731C505.99 348.877 505.297 348.95 504.516 348.95H499.875ZM501.578 347.435H504.328C505.182 347.435 505.849 347.356 506.328 347.2C506.807 347.034 507.193 346.81 507.484 346.528C507.891 346.122 508.203 345.58 508.422 344.903C508.651 344.216 508.766 343.382 508.766 342.403C508.766 341.06 508.542 340.028 508.094 339.31C507.656 338.58 507.12 338.096 506.484 337.856C506.036 337.679 505.302 337.591 504.281 337.591H501.578V347.435ZM518.766 347.794C518.182 348.294 517.615 348.648 517.062 348.856C516.521 349.065 515.943 349.169 515.328 349.169C514.297 349.169 513.505 348.919 512.953 348.419C512.411 347.909 512.141 347.263 512.141 346.481C512.141 346.034 512.245 345.622 512.453 345.247C512.661 344.862 512.932 344.554 513.266 344.325C513.599 344.096 513.979 343.924 514.406 343.81C514.719 343.726 515.188 343.648 515.812 343.575C517.083 343.419 518.021 343.237 518.625 343.028C518.635 342.81 518.641 342.669 518.641 342.606C518.641 341.971 518.49 341.518 518.188 341.247C517.781 340.893 517.182 340.716 516.391 340.716C515.641 340.716 515.089 340.846 514.734 341.106C514.38 341.367 514.12 341.83 513.953 342.497L512.406 342.278C512.552 341.612 512.781 341.075 513.094 340.669C513.417 340.263 513.88 339.95 514.484 339.731C515.099 339.513 515.812 339.403 516.625 339.403C517.417 339.403 518.062 339.497 518.562 339.685C519.062 339.872 519.427 340.112 519.656 340.403C519.896 340.685 520.063 341.039 520.156 341.466C520.208 341.737 520.234 342.226 520.234 342.935V345.044C520.234 346.513 520.266 347.445 520.328 347.841C520.401 348.226 520.536 348.596 520.734 348.95H519.078C518.911 348.617 518.807 348.231 518.766 347.794ZM518.625 344.263C518.052 344.502 517.193 344.7 516.047 344.856C515.401 344.95 514.943 345.06 514.672 345.185C514.401 345.299 514.193 345.471 514.047 345.7C513.901 345.919 513.828 346.169 513.828 346.45C513.828 346.867 513.984 347.216 514.297 347.497C514.62 347.778 515.089 347.919 515.703 347.919C516.318 347.919 516.859 347.789 517.328 347.528C517.807 347.257 518.156 346.893 518.375 346.435C518.542 346.07 518.625 345.539 518.625 344.841V344.263ZM522.672 348.95V339.622H524.094V340.95C524.781 339.919 525.771 339.403 527.062 339.403C527.625 339.403 528.141 339.507 528.609 339.716C529.089 339.914 529.443 340.179 529.672 340.513C529.911 340.836 530.078 341.221 530.172 341.669C530.224 341.961 530.25 342.476 530.25 343.216V348.95H528.672V343.278C528.672 342.632 528.609 342.148 528.484 341.825C528.37 341.502 528.151 341.247 527.828 341.06C527.516 340.872 527.151 340.778 526.734 340.778C526.057 340.778 525.474 340.992 524.984 341.419C524.495 341.846 524.25 342.659 524.25 343.856V348.95H522.672ZM538.766 345.528L540.312 345.731C540.146 346.804 539.714 347.648 539.016 348.263C538.318 348.867 537.458 349.169 536.438 349.169C535.156 349.169 534.125 348.752 533.344 347.919C532.573 347.075 532.188 345.877 532.188 344.325C532.188 343.315 532.354 342.435 532.688 341.685C533.021 340.924 533.526 340.356 534.203 339.981C534.891 339.596 535.635 339.403 536.438 339.403C537.458 339.403 538.286 339.664 538.922 340.185C539.568 340.695 539.984 341.419 540.172 342.356L538.625 342.591C538.479 341.966 538.219 341.497 537.844 341.185C537.479 340.862 537.031 340.7 536.5 340.7C535.708 340.7 535.062 340.987 534.562 341.56C534.062 342.132 533.812 343.039 533.812 344.278C533.812 345.528 534.052 346.44 534.531 347.013C535.01 347.575 535.641 347.856 536.422 347.856C537.036 347.856 537.552 347.669 537.969 347.294C538.385 346.909 538.651 346.32 538.766 345.528ZM548.062 345.95L549.703 346.153C549.443 347.101 548.964 347.841 548.266 348.372C547.568 348.903 546.677 349.169 545.594 349.169C544.229 349.169 543.146 348.747 542.344 347.903C541.542 347.06 541.141 345.877 541.141 344.356C541.141 342.794 541.542 341.58 542.344 340.716C543.156 339.841 544.208 339.403 545.5 339.403C546.75 339.403 547.771 339.83 548.562 340.685C549.354 341.528 549.75 342.721 549.75 344.263C549.75 344.356 549.745 344.497 549.734 344.685H542.781C542.833 345.716 543.12 346.502 543.641 347.044C544.172 347.586 544.823 347.856 545.594 347.856C546.177 347.856 546.672 347.705 547.078 347.403C547.495 347.101 547.823 346.617 548.062 345.95ZM542.859 343.388H548.078C548.005 342.606 547.807 342.018 547.484 341.622C546.974 341.007 546.318 340.7 545.516 340.7C544.797 340.7 544.188 340.945 543.688 341.435C543.198 341.924 542.922 342.575 542.859 343.388Z" fill="white"/>
</g>
<defs>
<clipPath id="clip0_1654_108">
<rect width="600" height="371" fill="white" transform="translate(0 0.5)"/>
</clipPath>
</defs>
</svg>
