<svg width="600" height="371" viewBox="0 0 600 371" fill="none" xmlns="http://www.w3.org/2000/svg">
<g clip-path="url(#clip0_1657_331)">
<path d="M0 0H600V371H0V0Z" fill="#1A1B1F"/>
<path d="M45.5 325.5H581.5" stroke="#E7E7E8" stroke-miterlimit="10"/>
<path d="M45.5 225.5H581.5" stroke="#4D4E51" stroke-miterlimit="10"/>
<path d="M45.5 125.5H581.5" stroke="#4D4E51" stroke-miterlimit="10"/>
<path d="M45.5 25.5H581.5" stroke="#4D4E51" stroke-miterlimit="10"/>
<mask id="mask0_1657_331" style="mask-type:luminance" maskUnits="userSpaceOnUse" x="45" y="25" width="537" height="301">
<path d="M45.5498 25.55H581.45V325.45H45.5498V25.55Z" fill="white"/>
</mask>
<g mask="url(#mask0_1657_331)">
<path d="M169 325H89V128C89 126.895 89.8954 126 91 126H167C168.105 126 169 126.895 169 128V325Z" fill="#351C75"/>
</g>
<mask id="mask1_1657_331" style="mask-type:luminance" maskUnits="userSpaceOnUse" x="45" y="25" width="537" height="301">
<path d="M45.5498 25.55H581.45V325.45H45.5498V25.55Z" fill="white"/>
</mask>
<g mask="url(#mask1_1657_331)">
<path d="M292 325H212V28C212 26.8954 212.895 26 214 26H290C291.105 26 292 26.8954 292 28V325Z" fill="#674EA7"/>
</g>
<mask id="mask2_1657_331" style="mask-type:luminance" maskUnits="userSpaceOnUse" x="45" y="25" width="537" height="301">
<path d="M45.5498 25.55H581.45V325.45H45.5498V25.55Z" fill="white"/>
</mask>
<g mask="url(#mask2_1657_331)">
<path d="M415 325H335V227C335 225.895 335.895 225 337 225H413C414.105 225 415 225.895 415 227V325Z" fill="#8E7CC3"/>
</g>
<mask id="mask3_1657_331" style="mask-type:luminance" maskUnits="userSpaceOnUse" x="45" y="25" width="537" height="301">
<path d="M45.5498 25.55H581.45V325.45H45.5498V25.55Z" fill="white"/>
</mask>
<g mask="url(#mask3_1657_331)">
<path d="M538 325H458V227C458 225.895 458.895 225 460 225H536C537.105 225 538 225.895 538 227V325Z" fill="#B4A7D6"/>
</g>
<path d="M33.0498 325.216C33.0498 324.195 33.154 323.377 33.3623 322.763C33.5706 322.138 33.8779 321.659 34.2842 321.325C34.7008 320.992 35.2217 320.825 35.8467 320.825C36.305 320.825 36.7061 320.919 37.0498 321.106C37.404 321.294 37.6956 321.565 37.9248 321.919C38.154 322.263 38.3311 322.685 38.4561 323.185C38.5811 323.685 38.6436 324.362 38.6436 325.216C38.6436 326.226 38.5394 327.039 38.3311 327.653C38.1331 328.268 37.8258 328.747 37.4092 329.091C37.0029 329.424 36.4821 329.591 35.8467 329.591C35.0238 329.591 34.3727 329.294 33.8936 328.7C33.3311 327.992 33.0498 326.83 33.0498 325.216ZM34.1279 325.216C34.1279 326.622 34.2946 327.56 34.6279 328.028C34.9613 328.497 35.3675 328.731 35.8467 328.731C36.3363 328.731 36.7425 328.497 37.0654 328.028C37.3988 327.56 37.5654 326.622 37.5654 325.216C37.5654 323.799 37.3988 322.862 37.0654 322.403C36.7425 321.935 36.3311 321.7 35.8311 321.7C35.3519 321.7 34.9665 321.903 34.6748 322.31C34.3102 322.83 34.1279 323.799 34.1279 325.216Z" fill="white"/>
<path d="M37.0186 229.483H35.9717V222.765C35.7113 223.004 35.3727 223.249 34.9561 223.499C34.5498 223.739 34.1852 223.916 33.8623 224.03V223.015C34.4456 222.733 34.9561 222.4 35.3936 222.015C35.8415 221.619 36.1592 221.233 36.3467 220.858H37.0186V229.483Z" fill="white"/>
<path d="M38.5967 128.501V129.517H32.9092C32.9092 129.267 32.9508 129.022 33.0342 128.782C33.18 128.397 33.4092 128.017 33.7217 127.642C34.0446 127.267 34.5081 126.834 35.1123 126.345C36.0498 125.574 36.68 124.965 37.0029 124.517C37.3363 124.069 37.5029 123.647 37.5029 123.251C37.5029 122.834 37.3519 122.485 37.0498 122.204C36.7477 121.912 36.3571 121.767 35.8779 121.767C35.3675 121.767 34.9613 121.918 34.6592 122.22C34.3571 122.522 34.2008 122.944 34.1904 123.485L33.1123 123.376C33.1852 122.563 33.4613 121.949 33.9404 121.532C34.43 121.105 35.0863 120.892 35.9092 120.892C36.7321 120.892 37.3831 121.121 37.8623 121.579C38.3415 122.037 38.5811 122.605 38.5811 123.282C38.5811 123.626 38.5081 123.965 38.3623 124.298C38.2269 124.621 37.9925 124.97 37.6592 125.345C37.3363 125.709 36.7998 126.209 36.0498 126.845C35.4144 127.376 35.0029 127.741 34.8154 127.938C34.6383 128.126 34.4925 128.313 34.3779 128.501H38.5967Z" fill="white"/>
<path d="M33.0498 27.2844L34.1123 27.1438C34.2269 27.7375 34.43 28.1698 34.7217 28.4407C35.0133 28.7011 35.3675 28.8313 35.7842 28.8313C36.2842 28.8313 36.7061 28.6594 37.0498 28.3157C37.3936 27.9719 37.5654 27.5448 37.5654 27.0344C37.5654 26.5553 37.404 26.1594 37.0811 25.8469C36.7686 25.524 36.3675 25.3625 35.8779 25.3625C35.68 25.3625 35.43 25.4042 35.1279 25.4875L35.2529 24.55C35.3258 24.5605 35.3831 24.5657 35.4248 24.5657C35.8727 24.5657 36.2738 24.4511 36.6279 24.2219C36.9925 23.9823 37.1748 23.6178 37.1748 23.1282C37.1748 22.7428 37.0446 22.425 36.7842 22.175C36.5238 21.9146 36.1852 21.7844 35.7686 21.7844C35.3623 21.7844 35.0186 21.9146 34.7373 22.175C34.4665 22.4355 34.2946 22.8209 34.2217 23.3313L33.1592 23.1438C33.2842 22.4459 33.5758 21.9042 34.0342 21.5188C34.4925 21.123 35.0602 20.925 35.7373 20.925C36.2061 20.925 36.6383 21.0292 37.0342 21.2375C37.43 21.4355 37.7321 21.7063 37.9404 22.05C38.1488 22.3938 38.2529 22.7636 38.2529 23.1594C38.2529 23.524 38.154 23.8625 37.9561 24.175C37.7581 24.4771 37.4665 24.7167 37.0811 24.8938C37.5811 25.0084 37.9717 25.2532 38.2529 25.6282C38.5342 25.9928 38.6748 26.4563 38.6748 27.0188C38.6748 27.7688 38.3988 28.4042 37.8467 28.925C37.305 29.4459 36.6175 29.7063 35.7842 29.7063C35.0342 29.7063 34.4092 29.4823 33.9092 29.0344C33.4092 28.5761 33.1227 27.9928 33.0498 27.2844Z" fill="white"/>
<path d="M115.441 348.45V336.997H119.77C120.53 336.997 121.108 337.034 121.504 337.106C122.066 337.2 122.535 337.377 122.91 337.638C123.296 337.898 123.603 338.268 123.832 338.747C124.072 339.216 124.191 339.737 124.191 340.31C124.191 341.278 123.879 342.101 123.254 342.778C122.639 343.455 121.52 343.794 119.895 343.794H116.957V348.45H115.441ZM116.957 342.435H119.926C120.905 342.435 121.598 342.252 122.004 341.888C122.421 341.523 122.629 341.013 122.629 340.356C122.629 339.877 122.504 339.466 122.254 339.122C122.014 338.778 121.697 338.554 121.301 338.45C121.051 338.377 120.582 338.341 119.895 338.341H116.957V342.435ZM125.738 344.294C125.738 342.763 126.165 341.627 127.02 340.888C127.738 340.273 128.608 339.966 129.629 339.966C130.775 339.966 131.707 340.341 132.426 341.091C133.155 341.83 133.52 342.862 133.52 344.185C133.52 345.247 133.358 346.086 133.035 346.7C132.712 347.315 132.243 347.794 131.629 348.138C131.025 348.471 130.358 348.638 129.629 348.638C128.473 348.638 127.535 348.268 126.816 347.528C126.098 346.778 125.738 345.7 125.738 344.294ZM127.191 344.294C127.191 345.356 127.421 346.153 127.879 346.685C128.348 347.216 128.931 347.481 129.629 347.481C130.327 347.481 130.905 347.216 131.363 346.685C131.832 346.153 132.066 345.341 132.066 344.247C132.066 343.226 131.832 342.45 131.363 341.919C130.905 341.388 130.327 341.122 129.629 341.122C128.931 341.122 128.348 341.388 127.879 341.919C127.421 342.44 127.191 343.231 127.191 344.294ZM135.27 351.638V340.153H136.551V341.231C136.853 340.804 137.191 340.487 137.566 340.278C137.952 340.07 138.415 339.966 138.957 339.966C139.665 339.966 140.29 340.148 140.832 340.513C141.374 340.877 141.78 341.393 142.051 342.06C142.332 342.716 142.473 343.44 142.473 344.231C142.473 345.086 142.316 345.851 142.004 346.528C141.702 347.205 141.259 347.726 140.676 348.091C140.103 348.455 139.493 348.638 138.848 348.638C138.379 348.638 137.957 348.539 137.582 348.341C137.217 348.143 136.915 347.893 136.676 347.591V351.638H135.27ZM136.535 344.341C136.535 345.414 136.749 346.205 137.176 346.716C137.613 347.226 138.139 347.481 138.754 347.481C139.379 347.481 139.915 347.216 140.363 346.685C140.811 346.153 141.035 345.336 141.035 344.231C141.035 343.169 140.816 342.377 140.379 341.856C139.941 341.325 139.421 341.06 138.816 341.06C138.223 341.06 137.691 341.341 137.223 341.903C136.764 342.466 136.535 343.278 136.535 344.341Z" fill="white"/>
<path d="M235.168 348.45V336.997H240.246C241.267 336.997 242.043 337.101 242.574 337.31C243.105 337.507 243.527 337.867 243.84 338.388C244.163 338.909 244.324 339.487 244.324 340.122C244.324 340.935 244.059 341.622 243.527 342.185C243.007 342.737 242.194 343.086 241.09 343.231C241.496 343.429 241.803 343.622 242.012 343.81C242.449 344.216 242.866 344.721 243.262 345.325L245.262 348.45H243.355L241.84 346.06C241.392 345.372 241.022 344.846 240.73 344.481C240.449 344.117 240.194 343.862 239.965 343.716C239.746 343.57 239.517 343.471 239.277 343.419C239.111 343.377 238.829 343.356 238.434 343.356H236.684V348.45H235.168ZM236.684 342.044H239.934C240.632 342.044 241.173 341.976 241.559 341.841C241.954 341.695 242.251 341.466 242.449 341.153C242.658 340.83 242.762 340.487 242.762 340.122C242.762 339.58 242.564 339.138 242.168 338.794C241.772 338.44 241.152 338.263 240.309 338.263H236.684V342.044ZM245.434 344.294C245.434 342.763 245.861 341.627 246.715 340.888C247.434 340.273 248.303 339.966 249.324 339.966C250.47 339.966 251.402 340.341 252.121 341.091C252.85 341.83 253.215 342.862 253.215 344.185C253.215 345.247 253.053 346.086 252.73 346.7C252.408 347.315 251.939 347.794 251.324 348.138C250.72 348.471 250.053 348.638 249.324 348.638C248.168 348.638 247.23 348.268 246.512 347.528C245.793 346.778 245.434 345.7 245.434 344.294ZM246.887 344.294C246.887 345.356 247.116 346.153 247.574 346.685C248.043 347.216 248.626 347.481 249.324 347.481C250.022 347.481 250.6 347.216 251.059 346.685C251.527 346.153 251.762 345.341 251.762 344.247C251.762 343.226 251.527 342.45 251.059 341.919C250.6 341.388 250.022 341.122 249.324 341.122C248.626 341.122 248.043 341.388 247.574 341.919C247.116 342.44 246.887 343.231 246.887 344.294ZM260.371 345.403L261.762 345.591C261.605 346.539 261.215 347.284 260.59 347.825C259.975 348.367 259.215 348.638 258.309 348.638C257.173 348.638 256.256 348.268 255.559 347.528C254.871 346.778 254.527 345.711 254.527 344.325C254.527 343.429 254.673 342.648 254.965 341.981C255.267 341.304 255.72 340.799 256.324 340.466C256.939 340.132 257.6 339.966 258.309 339.966C259.215 339.966 259.954 340.195 260.527 340.653C261.1 341.101 261.465 341.747 261.621 342.591L260.262 342.794C260.126 342.242 259.892 341.825 259.559 341.544C259.236 341.263 258.84 341.122 258.371 341.122C257.663 341.122 257.085 341.377 256.637 341.888C256.199 342.388 255.98 343.19 255.98 344.294C255.98 345.409 256.194 346.221 256.621 346.731C257.048 347.231 257.605 347.481 258.293 347.481C258.845 347.481 259.303 347.315 259.668 346.981C260.043 346.638 260.277 346.112 260.371 345.403ZM262.965 348.45V336.997H264.371V343.528L267.699 340.153H269.527L266.355 343.231L269.84 348.45H268.105L265.371 344.2L264.371 345.153V348.45H262.965Z" fill="white"/>
<path d="M337.363 348.45V336.997H345.645V338.341H338.879V341.856H345.223V343.2H338.879V347.091H345.91V348.45H337.363ZM348.129 348.45V336.997H349.535V348.45H348.129ZM356.832 345.778L358.285 345.95C358.056 346.804 357.629 347.466 357.004 347.935C356.389 348.403 355.603 348.638 354.645 348.638C353.426 348.638 352.462 348.263 351.754 347.513C351.046 346.763 350.691 345.716 350.691 344.372C350.691 342.976 351.051 341.893 351.77 341.122C352.488 340.351 353.421 339.966 354.566 339.966C355.671 339.966 356.572 340.346 357.27 341.106C357.978 341.856 358.332 342.914 358.332 344.278C358.332 344.362 358.332 344.487 358.332 344.653H352.145C352.197 345.57 352.452 346.273 352.91 346.763C353.379 347.242 353.957 347.481 354.645 347.481C355.165 347.481 355.608 347.346 355.973 347.075C356.337 346.804 356.624 346.372 356.832 345.778ZM352.223 343.497H356.848C356.785 342.799 356.608 342.278 356.316 341.935C355.868 341.393 355.29 341.122 354.582 341.122C353.936 341.122 353.389 341.341 352.941 341.778C352.504 342.205 352.264 342.778 352.223 343.497ZM365.566 345.403L366.957 345.591C366.801 346.539 366.41 347.284 365.785 347.825C365.171 348.367 364.41 348.638 363.504 348.638C362.368 348.638 361.452 348.268 360.754 347.528C360.066 346.778 359.723 345.711 359.723 344.325C359.723 343.429 359.868 342.648 360.16 341.981C360.462 341.304 360.915 340.799 361.52 340.466C362.134 340.132 362.796 339.966 363.504 339.966C364.41 339.966 365.15 340.195 365.723 340.653C366.296 341.101 366.66 341.747 366.816 342.591L365.457 342.794C365.322 342.242 365.087 341.825 364.754 341.544C364.431 341.263 364.035 341.122 363.566 341.122C362.858 341.122 362.28 341.377 361.832 341.888C361.395 342.388 361.176 343.19 361.176 344.294C361.176 345.409 361.389 346.221 361.816 346.731C362.243 347.231 362.801 347.481 363.488 347.481C364.04 347.481 364.499 347.315 364.863 346.981C365.238 346.638 365.473 346.112 365.566 345.403ZM371.223 347.185L371.426 348.435C371.03 348.518 370.676 348.56 370.363 348.56C369.853 348.56 369.457 348.481 369.176 348.325C368.895 348.159 368.697 347.945 368.582 347.685C368.467 347.414 368.41 346.856 368.41 346.013V341.247H367.379V340.153H368.41V338.091L369.816 337.247V340.153H371.223V341.247H369.816V346.091C369.816 346.497 369.837 346.757 369.879 346.872C369.931 346.987 370.014 347.08 370.129 347.153C370.243 347.216 370.405 347.247 370.613 347.247C370.77 347.247 370.973 347.226 371.223 347.185ZM372.145 348.45V340.153H373.41V341.403C373.733 340.82 374.03 340.435 374.301 340.247C374.572 340.06 374.874 339.966 375.207 339.966C375.676 339.966 376.155 340.117 376.645 340.419L376.16 341.716C375.816 341.518 375.473 341.419 375.129 341.419C374.827 341.419 374.551 341.513 374.301 341.7C374.061 341.877 373.889 342.132 373.785 342.466C373.629 342.966 373.551 343.513 373.551 344.106V348.45H372.145ZM376.629 344.294C376.629 342.763 377.056 341.627 377.91 340.888C378.629 340.273 379.499 339.966 380.52 339.966C381.665 339.966 382.598 340.341 383.316 341.091C384.046 341.83 384.41 342.862 384.41 344.185C384.41 345.247 384.249 346.086 383.926 346.7C383.603 347.315 383.134 347.794 382.52 348.138C381.915 348.471 381.249 348.638 380.52 348.638C379.363 348.638 378.426 348.268 377.707 347.528C376.988 346.778 376.629 345.7 376.629 344.294ZM378.082 344.294C378.082 345.356 378.311 346.153 378.77 346.685C379.238 347.216 379.822 347.481 380.52 347.481C381.217 347.481 381.796 347.216 382.254 346.685C382.723 346.153 382.957 345.341 382.957 344.247C382.957 343.226 382.723 342.45 382.254 341.919C381.796 341.388 381.217 341.122 380.52 341.122C379.822 341.122 379.238 341.388 378.77 341.919C378.311 342.44 378.082 343.231 378.082 344.294ZM386.16 348.45V340.153H387.426V341.325C388.03 340.419 388.91 339.966 390.066 339.966C390.566 339.966 391.025 340.054 391.441 340.231C391.858 340.409 392.171 340.643 392.379 340.935C392.587 341.226 392.733 341.575 392.816 341.981C392.868 342.242 392.895 342.695 392.895 343.341V348.45H391.488V343.403C391.488 342.83 391.431 342.403 391.316 342.122C391.212 341.83 391.02 341.601 390.738 341.435C390.467 341.268 390.145 341.185 389.77 341.185C389.165 341.185 388.645 341.377 388.207 341.763C387.78 342.138 387.566 342.856 387.566 343.919V348.45H386.16ZM394.16 338.606V336.997H395.566V338.606H394.16ZM394.16 348.45V340.153H395.566V348.45H394.16ZM403.566 345.403L404.957 345.591C404.801 346.539 404.41 347.284 403.785 347.825C403.171 348.367 402.41 348.638 401.504 348.638C400.368 348.638 399.452 348.268 398.754 347.528C398.066 346.778 397.723 345.711 397.723 344.325C397.723 343.429 397.868 342.648 398.16 341.981C398.462 341.304 398.915 340.799 399.52 340.466C400.134 340.132 400.796 339.966 401.504 339.966C402.41 339.966 403.15 340.195 403.723 340.653C404.296 341.101 404.66 341.747 404.816 342.591L403.457 342.794C403.322 342.242 403.087 341.825 402.754 341.544C402.431 341.263 402.035 341.122 401.566 341.122C400.858 341.122 400.28 341.377 399.832 341.888C399.395 342.388 399.176 343.19 399.176 344.294C399.176 345.409 399.389 346.221 399.816 346.731C400.243 347.231 400.801 347.481 401.488 347.481C402.04 347.481 402.499 347.315 402.863 346.981C403.238 346.638 403.473 346.112 403.566 345.403ZM411.566 347.419C411.046 347.867 410.546 348.185 410.066 348.372C409.587 348.549 409.072 348.638 408.52 348.638C407.603 348.638 406.9 348.414 406.41 347.966C405.921 347.518 405.676 346.95 405.676 346.263C405.676 345.856 405.77 345.487 405.957 345.153C406.145 344.81 406.384 344.539 406.676 344.341C406.978 344.132 407.316 343.976 407.691 343.872C407.973 343.799 408.389 343.731 408.941 343.669C410.077 343.534 410.915 343.372 411.457 343.185C411.457 342.987 411.457 342.862 411.457 342.81C411.457 342.237 411.327 341.836 411.066 341.606C410.702 341.284 410.165 341.122 409.457 341.122C408.801 341.122 408.311 341.242 407.988 341.481C407.676 341.711 407.447 342.117 407.301 342.7L405.926 342.513C406.051 341.929 406.254 341.455 406.535 341.091C406.827 340.726 407.243 340.45 407.785 340.263C408.327 340.065 408.952 339.966 409.66 339.966C410.368 339.966 410.941 340.049 411.379 340.216C411.827 340.382 412.155 340.591 412.363 340.841C412.572 341.091 412.717 341.409 412.801 341.794C412.853 342.034 412.879 342.466 412.879 343.091V344.966C412.879 346.278 412.905 347.106 412.957 347.45C413.02 347.794 413.139 348.127 413.316 348.45H411.848C411.702 348.159 411.608 347.815 411.566 347.419ZM411.457 344.278C410.947 344.487 410.181 344.664 409.16 344.81C408.577 344.893 408.165 344.987 407.926 345.091C407.686 345.195 407.499 345.351 407.363 345.56C407.238 345.757 407.176 345.976 407.176 346.216C407.176 346.591 407.316 346.903 407.598 347.153C407.889 347.403 408.306 347.528 408.848 347.528C409.389 347.528 409.868 347.414 410.285 347.185C410.712 346.945 411.025 346.617 411.223 346.2C411.379 345.888 411.457 345.419 411.457 344.794V344.278Z" fill="white"/>
<path d="M467.527 348.45V336.997H471.855C472.616 336.997 473.194 337.034 473.59 337.106C474.152 337.2 474.621 337.377 474.996 337.638C475.382 337.898 475.689 338.268 475.918 338.747C476.158 339.216 476.277 339.737 476.277 340.31C476.277 341.278 475.965 342.101 475.34 342.778C474.725 343.455 473.605 343.794 471.98 343.794H469.043V348.45H467.527ZM469.043 342.435H472.012C472.991 342.435 473.684 342.252 474.09 341.888C474.507 341.523 474.715 341.013 474.715 340.356C474.715 339.877 474.59 339.466 474.34 339.122C474.1 338.778 473.783 338.554 473.387 338.45C473.137 338.377 472.668 338.341 471.98 338.341H469.043V342.435ZM477.824 344.294C477.824 342.763 478.251 341.627 479.105 340.888C479.824 340.273 480.694 339.966 481.715 339.966C482.861 339.966 483.793 340.341 484.512 341.091C485.241 341.83 485.605 342.862 485.605 344.185C485.605 345.247 485.444 346.086 485.121 346.7C484.798 347.315 484.329 347.794 483.715 348.138C483.111 348.471 482.444 348.638 481.715 348.638C480.559 348.638 479.621 348.268 478.902 347.528C478.184 346.778 477.824 345.7 477.824 344.294ZM479.277 344.294C479.277 345.356 479.507 346.153 479.965 346.685C480.434 347.216 481.017 347.481 481.715 347.481C482.413 347.481 482.991 347.216 483.449 346.685C483.918 346.153 484.152 345.341 484.152 344.247C484.152 343.226 483.918 342.45 483.449 341.919C482.991 341.388 482.413 341.122 481.715 341.122C481.017 341.122 480.434 341.388 479.965 341.919C479.507 342.44 479.277 343.231 479.277 344.294ZM487.355 351.638V340.153H488.637V341.231C488.939 340.804 489.277 340.487 489.652 340.278C490.038 340.07 490.501 339.966 491.043 339.966C491.751 339.966 492.376 340.148 492.918 340.513C493.46 340.877 493.866 341.393 494.137 342.06C494.418 342.716 494.559 343.44 494.559 344.231C494.559 345.086 494.402 345.851 494.09 346.528C493.788 347.205 493.345 347.726 492.762 348.091C492.189 348.455 491.579 348.638 490.934 348.638C490.465 348.638 490.043 348.539 489.668 348.341C489.303 348.143 489.001 347.893 488.762 347.591V351.638H487.355ZM488.621 344.341C488.621 345.414 488.835 346.205 489.262 346.716C489.699 347.226 490.225 347.481 490.84 347.481C491.465 347.481 492.001 347.216 492.449 346.685C492.897 346.153 493.121 345.336 493.121 344.231C493.121 343.169 492.902 342.377 492.465 341.856C492.027 341.325 491.507 341.06 490.902 341.06C490.309 341.06 489.777 341.341 489.309 341.903C488.85 342.466 488.621 343.278 488.621 344.341ZM495.809 345.013V343.591H500.121V345.013H495.809ZM501.34 348.45V340.153H502.605V341.403C502.928 340.82 503.225 340.435 503.496 340.247C503.767 340.06 504.069 339.966 504.402 339.966C504.871 339.966 505.35 340.117 505.84 340.419L505.355 341.716C505.012 341.518 504.668 341.419 504.324 341.419C504.022 341.419 503.746 341.513 503.496 341.7C503.257 341.877 503.085 342.132 502.98 342.466C502.824 342.966 502.746 343.513 502.746 344.106V348.45H501.34ZM505.824 344.294C505.824 342.763 506.251 341.627 507.105 340.888C507.824 340.273 508.694 339.966 509.715 339.966C510.861 339.966 511.793 340.341 512.512 341.091C513.241 341.83 513.605 342.862 513.605 344.185C513.605 345.247 513.444 346.086 513.121 346.7C512.798 347.315 512.329 347.794 511.715 348.138C511.111 348.471 510.444 348.638 509.715 348.638C508.559 348.638 507.621 348.268 506.902 347.528C506.184 346.778 505.824 345.7 505.824 344.294ZM507.277 344.294C507.277 345.356 507.507 346.153 507.965 346.685C508.434 347.216 509.017 347.481 509.715 347.481C510.413 347.481 510.991 347.216 511.449 346.685C511.918 346.153 512.152 345.341 512.152 344.247C512.152 343.226 511.918 342.45 511.449 341.919C510.991 341.388 510.413 341.122 509.715 341.122C509.017 341.122 508.434 341.388 507.965 341.919C507.507 342.44 507.277 343.231 507.277 344.294ZM520.762 345.403L522.152 345.591C521.996 346.539 521.605 347.284 520.98 347.825C520.366 348.367 519.605 348.638 518.699 348.638C517.564 348.638 516.647 348.268 515.949 347.528C515.262 346.778 514.918 345.711 514.918 344.325C514.918 343.429 515.064 342.648 515.355 341.981C515.658 341.304 516.111 340.799 516.715 340.466C517.329 340.132 517.991 339.966 518.699 339.966C519.605 339.966 520.345 340.195 520.918 340.653C521.491 341.101 521.855 341.747 522.012 342.591L520.652 342.794C520.517 342.242 520.283 341.825 519.949 341.544C519.626 341.263 519.23 341.122 518.762 341.122C518.053 341.122 517.475 341.377 517.027 341.888C516.59 342.388 516.371 343.19 516.371 344.294C516.371 345.409 516.585 346.221 517.012 346.731C517.439 347.231 517.996 347.481 518.684 347.481C519.236 347.481 519.694 347.315 520.059 346.981C520.434 346.638 520.668 346.112 520.762 345.403ZM523.355 348.45V336.997H524.762V343.528L528.09 340.153H529.918L526.746 343.231L530.23 348.45H528.496L525.762 344.2L524.762 345.153V348.45H523.355Z" fill="white"/>
<g clip-path="url(#clip1_1657_331)">
<path d="M0 0H600V371H0V0Z" fill="#1A1B1F"/>
<path d="M47.1733 324.231H581.449" stroke="#E7E7E8" stroke-miterlimit="10"/>
<path d="M47.1733 224.387H581.449" stroke="#4D4E51" stroke-miterlimit="10"/>
<path d="M47.1733 125.594H581.449" stroke="#4D4E51" stroke-miterlimit="10"/>
<path d="M47.1733 25.7493H581.449" stroke="#4D4E51" stroke-miterlimit="10"/>
<mask id="mask4_1657_331" style="mask-type:luminance" maskUnits="userSpaceOnUse" x="47" y="25" width="535" height="300">
<path d="M47.332 25.907H581.29V324.073H47.332V25.907Z" fill="white"/>
</mask>
<g mask="url(#mask4_1657_331)">
<path d="M170.671 323.706H91.166V127.17C91.166 126.009 92.1152 125.068 93.2862 125.068H168.551C169.722 125.068 170.671 126.009 170.671 127.17V323.706Z" fill="#8C018C"/>
</g>
<mask id="mask5_1657_331" style="mask-type:luminance" maskUnits="userSpaceOnUse" x="47" y="25" width="535" height="300">
<path d="M47.332 25.907H581.29V324.073H47.332V25.907Z" fill="white"/>
</mask>
<g mask="url(#mask5_1657_331)">
<path d="M293.64 323.706H214.134V28.3769C214.134 27.216 215.083 26.2749 216.254 26.2749H291.519C292.69 26.2749 293.64 27.216 293.64 28.3769V323.706Z" fill="#FF00FF"/>
</g>
<mask id="mask6_1657_331" style="mask-type:luminance" maskUnits="userSpaceOnUse" x="47" y="25" width="535" height="300">
<path d="M47.332 25.907H581.29V324.073H47.332V25.907Z" fill="white"/>
</mask>
<g mask="url(#mask6_1657_331)">
<path d="M415.548 323.705H336.042V227.014C336.042 225.853 336.992 224.912 338.163 224.912H413.428C414.599 224.912 415.548 225.853 415.548 227.014V323.705Z" fill="#F65DF6"/>
</g>
<mask id="mask7_1657_331" style="mask-type:luminance" maskUnits="userSpaceOnUse" x="47" y="25" width="535" height="300">
<path d="M47.332 25.907H581.29V324.073H47.332V25.907Z" fill="white"/>
</mask>
<g mask="url(#mask7_1657_331)">
<path d="M538.516 323.705H459.011V227.014C459.011 225.853 459.96 224.912 461.131 224.912H536.396C537.567 224.912 538.516 225.853 538.516 227.014V323.705Z" fill="#FECDFE"/>
</g>
<path d="M34.0811 323.827C34.0811 322.754 34.1915 321.895 34.4123 321.249C34.6332 320.592 34.9589 320.088 35.3896 319.738C35.8313 319.388 36.3834 319.212 37.0459 319.212C37.5318 319.212 37.9569 319.311 38.3213 319.508C38.6968 319.705 39.006 319.99 39.2489 320.362C39.4918 320.723 39.6796 321.167 39.8121 321.692C39.9446 322.218 40.0108 322.929 40.0108 323.827C40.0108 324.889 39.9004 325.743 39.6796 326.389C39.4697 327.035 39.144 327.538 38.7023 327.9C38.2716 328.25 37.7195 328.425 37.0459 328.425C36.1736 328.425 35.4834 328.113 34.9755 327.489C34.3792 326.745 34.0811 325.524 34.0811 323.827ZM35.2239 323.827C35.2239 325.305 35.4006 326.29 35.754 326.783C36.1073 327.275 36.538 327.522 37.0459 327.522C37.5649 327.522 37.9956 327.275 38.3379 326.783C38.6913 326.29 38.8679 325.305 38.8679 323.827C38.8679 322.338 38.6913 321.353 38.3379 320.871C37.9956 320.378 37.5594 320.132 37.0294 320.132C36.5214 320.132 36.1129 320.345 35.8037 320.772C35.4172 321.32 35.2239 322.338 35.2239 323.827Z" fill="white"/>
<path d="M38.2882 228.889H37.1785V221.827C36.9024 222.079 36.5435 222.336 36.1018 222.599C35.6712 222.851 35.2847 223.037 34.9424 223.157V222.09C35.5608 221.794 36.1018 221.444 36.5656 221.039C37.0404 220.623 37.3772 220.218 37.576 219.824H38.2882V228.889Z" fill="white"/>
<path d="M39.9613 128.432V129.5H33.9321C33.9321 129.237 33.9763 128.98 34.0646 128.728C34.2192 128.323 34.4622 127.923 34.7934 127.529C35.1357 127.135 35.6271 126.681 36.2676 126.166C37.2614 125.356 37.9295 124.715 38.2718 124.245C38.6251 123.774 38.8018 123.331 38.8018 122.914C38.8018 122.477 38.6417 122.11 38.3215 121.814C38.0013 121.508 37.5872 121.354 37.0792 121.354C36.5381 121.354 36.1075 121.513 35.7873 121.831C35.467 122.148 35.3014 122.592 35.2903 123.161L34.1475 123.046C34.2248 122.192 34.5174 121.546 35.0253 121.108C35.5443 120.659 36.24 120.435 37.1123 120.435C37.9847 120.435 38.6748 120.676 39.1828 121.157C39.6907 121.639 39.9447 122.236 39.9447 122.947C39.9447 123.309 39.8674 123.664 39.7128 124.015C39.5693 124.354 39.3208 124.721 38.9675 125.115C38.6251 125.498 38.0565 126.024 37.2614 126.691C36.5878 127.25 36.1517 127.633 35.9529 127.841C35.7652 128.038 35.6106 128.235 35.4891 128.432H39.9613Z" fill="white"/>
<path d="M34.0811 27.7298L35.2074 27.582C35.3288 28.206 35.5442 28.6604 35.8534 28.945C36.1625 29.2187 36.538 29.3555 36.9797 29.3555C37.5097 29.3555 37.9569 29.1749 38.3213 28.8136C38.6857 28.4523 38.8679 28.0035 38.8679 27.467C38.8679 26.9634 38.6968 26.5474 38.3545 26.219C38.0232 25.8796 37.5981 25.7099 37.0791 25.7099C36.8693 25.7099 36.6042 25.7537 36.284 25.8413L36.4165 24.856C36.4938 24.8669 36.5546 24.8724 36.5987 24.8724C37.0735 24.8724 37.4987 24.752 37.8741 24.5111C38.2606 24.2593 38.4538 23.8762 38.4538 23.3616C38.4538 22.9565 38.3158 22.6226 38.0398 22.3599C37.7637 22.0862 37.4048 21.9493 36.9631 21.9493C36.5325 21.9493 36.1681 22.0862 35.8699 22.3599C35.5828 22.6336 35.4006 23.0386 35.3233 23.5751L34.197 23.378C34.3295 22.6445 34.6387 22.0752 35.1246 21.6702C35.6104 21.2542 36.2122 21.0461 36.93 21.0461C37.4269 21.0461 37.8852 21.1556 38.3048 21.3746C38.7244 21.5826 39.0446 21.8672 39.2655 22.2285C39.4863 22.5898 39.5967 22.9784 39.5967 23.3945C39.5967 23.7776 39.4918 24.1334 39.282 24.4619C39.0722 24.7794 38.763 25.0312 38.3545 25.2173C38.8845 25.3377 39.2986 25.595 39.5967 25.9891C39.8949 26.3723 40.044 26.8594 40.044 27.4506C40.044 28.2389 39.7513 28.9067 39.1661 29.4541C38.5919 30.0015 37.8631 30.2752 36.9797 30.2752C36.1846 30.2752 35.5221 30.0398 34.9921 29.569C34.462 29.0873 34.1584 28.4742 34.0811 27.7298Z" fill="white"/>
<path d="M116.125 348.246V336.209H120.713C121.519 336.209 122.132 336.247 122.552 336.324C123.148 336.422 123.645 336.609 124.042 336.882C124.451 337.156 124.777 337.545 125.02 338.048C125.274 338.541 125.401 339.088 125.401 339.69C125.401 340.709 125.069 341.573 124.407 342.285C123.755 342.997 122.568 343.352 120.846 343.352H117.732V348.246H116.125ZM117.732 341.924H120.879C121.917 341.924 122.651 341.732 123.082 341.349C123.523 340.966 123.744 340.429 123.744 339.74C123.744 339.236 123.612 338.804 123.347 338.442C123.093 338.081 122.756 337.846 122.336 337.736C122.071 337.66 121.574 337.621 120.846 337.621H117.732V341.924ZM127.04 343.878C127.04 342.269 127.493 341.075 128.399 340.298C129.161 339.652 130.083 339.329 131.165 339.329C132.379 339.329 133.368 339.723 134.13 340.511C134.903 341.289 135.289 342.373 135.289 343.763C135.289 344.88 135.118 345.761 134.776 346.407C134.433 347.053 133.936 347.556 133.285 347.918C132.644 348.268 131.938 348.443 131.165 348.443C129.939 348.443 128.945 348.055 128.183 347.277C127.421 346.489 127.04 345.356 127.04 343.878ZM128.581 343.878C128.581 344.995 128.824 345.832 129.31 346.39C129.807 346.949 130.425 347.228 131.165 347.228C131.905 347.228 132.517 346.949 133.003 346.39C133.5 345.832 133.749 344.978 133.749 343.829C133.749 342.756 133.5 341.94 133.003 341.382C132.517 340.823 131.905 340.544 131.165 340.544C130.425 340.544 129.807 340.823 129.31 341.382C128.824 341.929 128.581 342.761 128.581 343.878ZM137.144 351.596V339.526H138.502V340.659C138.823 340.21 139.182 339.877 139.579 339.658C139.988 339.439 140.479 339.329 141.053 339.329C141.804 339.329 142.467 339.521 143.041 339.904C143.615 340.287 144.046 340.829 144.333 341.53C144.631 342.219 144.78 342.98 144.78 343.812C144.78 344.71 144.614 345.515 144.283 346.226C143.963 346.938 143.494 347.485 142.875 347.868C142.268 348.252 141.622 348.443 140.937 348.443C140.44 348.443 139.993 348.339 139.596 348.131C139.209 347.923 138.889 347.66 138.635 347.343V351.596H137.144ZM138.486 343.927C138.486 345.055 138.712 345.887 139.165 346.423C139.629 346.96 140.186 347.228 140.838 347.228C141.5 347.228 142.069 346.949 142.544 346.39C143.019 345.832 143.256 344.973 143.256 343.812C143.256 342.696 143.024 341.864 142.561 341.316C142.097 340.758 141.545 340.479 140.904 340.479C140.275 340.479 139.712 340.774 139.215 341.365C138.729 341.957 138.486 342.811 138.486 343.927Z" fill="white"/>
<path d="M235.197 348.246V336.209H240.58C241.662 336.209 242.485 336.318 243.048 336.537C243.611 336.745 244.058 337.123 244.39 337.671C244.732 338.218 244.903 338.826 244.903 339.493C244.903 340.347 244.621 341.07 244.058 341.661C243.506 342.241 242.645 342.608 241.474 342.761C241.905 342.969 242.231 343.172 242.452 343.369C242.915 343.796 243.357 344.327 243.777 344.962L245.897 348.246H243.876L242.269 345.734C241.795 345.011 241.403 344.458 241.093 344.075C240.795 343.692 240.525 343.424 240.282 343.27C240.05 343.117 239.807 343.013 239.553 342.958C239.376 342.915 239.078 342.893 238.659 342.893H236.803V348.246H235.197ZM236.803 341.513H240.249C240.989 341.513 241.563 341.442 241.971 341.3C242.391 341.146 242.706 340.906 242.915 340.577C243.136 340.238 243.247 339.877 243.247 339.493C243.247 338.924 243.037 338.459 242.617 338.097C242.198 337.725 241.541 337.539 240.646 337.539H236.803V341.513ZM246.079 343.878C246.079 342.269 246.532 341.075 247.437 340.298C248.199 339.652 249.121 339.329 250.203 339.329C251.418 339.329 252.406 339.723 253.168 340.511C253.941 341.289 254.328 342.373 254.328 343.763C254.328 344.88 254.157 345.761 253.814 346.407C253.472 347.053 252.975 347.556 252.324 347.918C251.683 348.268 250.976 348.443 250.203 348.443C248.978 348.443 247.984 348.055 247.222 347.277C246.46 346.489 246.079 345.356 246.079 343.878ZM247.619 343.878C247.619 344.995 247.862 345.832 248.348 346.39C248.845 346.949 249.464 347.228 250.203 347.228C250.943 347.228 251.556 346.949 252.042 346.39C252.539 345.832 252.787 344.978 252.787 343.829C252.787 342.756 252.539 341.94 252.042 341.382C251.556 340.823 250.943 340.544 250.203 340.544C249.464 340.544 248.845 340.823 248.348 341.382C247.862 341.929 247.619 342.761 247.619 343.878ZM261.914 345.044L263.388 345.241C263.222 346.237 262.808 347.02 262.146 347.589C261.494 348.159 260.688 348.443 259.727 348.443C258.524 348.443 257.552 348.055 256.812 347.277C256.083 346.489 255.719 345.367 255.719 343.911C255.719 342.969 255.874 342.148 256.183 341.448C256.503 340.736 256.983 340.205 257.624 339.855C258.275 339.504 258.977 339.329 259.727 339.329C260.688 339.329 261.472 339.57 262.08 340.052C262.687 340.522 263.073 341.201 263.239 342.088L261.798 342.301C261.654 341.721 261.406 341.283 261.053 340.988C260.71 340.692 260.291 340.544 259.794 340.544C259.043 340.544 258.43 340.813 257.955 341.349C257.491 341.874 257.259 342.717 257.259 343.878C257.259 345.049 257.486 345.903 257.939 346.44C258.391 346.965 258.982 347.228 259.711 347.228C260.296 347.228 260.782 347.053 261.169 346.702C261.566 346.341 261.814 345.788 261.914 345.044ZM264.663 348.246V336.209H266.154V343.073L269.682 339.526H271.62L268.258 342.761L271.951 348.246H270.113L267.214 343.779L266.154 344.781V348.246H264.663Z" fill="white"/>
<path d="M335.684 348.246V336.209H344.463V337.621H337.291V341.316H344.016V342.728H337.291V346.817H344.744V348.246H335.684ZM347.096 348.246V336.209H348.587V348.246H347.096ZM356.322 345.438L357.863 345.619C357.62 346.516 357.167 347.212 356.505 347.704C355.853 348.197 355.019 348.443 354.003 348.443C352.711 348.443 351.69 348.049 350.939 347.261C350.188 346.473 349.813 345.372 349.813 343.96C349.813 342.493 350.194 341.354 350.956 340.544C351.718 339.734 352.706 339.329 353.921 339.329C355.091 339.329 356.046 339.729 356.786 340.528C357.537 341.316 357.912 342.427 357.912 343.862C357.912 343.949 357.912 344.08 357.912 344.256H351.353C351.408 345.219 351.679 345.958 352.165 346.473C352.662 346.976 353.275 347.228 354.003 347.228C354.556 347.228 355.025 347.086 355.411 346.801C355.798 346.516 356.101 346.062 356.322 345.438ZM351.436 343.04H356.339C356.273 342.307 356.085 341.76 355.776 341.398C355.301 340.829 354.688 340.544 353.937 340.544C353.253 340.544 352.673 340.774 352.198 341.234C351.734 341.683 351.48 342.285 351.436 343.04ZM365.581 345.044L367.056 345.241C366.89 346.237 366.476 347.02 365.813 347.589C365.162 348.159 364.356 348.443 363.395 348.443C362.191 348.443 361.22 348.055 360.48 347.277C359.751 346.489 359.387 345.367 359.387 343.911C359.387 342.969 359.541 342.148 359.85 341.448C360.171 340.736 360.651 340.205 361.291 339.855C361.943 339.504 362.644 339.329 363.395 339.329C364.356 339.329 365.14 339.57 365.747 340.052C366.354 340.522 366.741 341.201 366.906 342.088L365.465 342.301C365.322 341.721 365.073 341.283 364.72 340.988C364.378 340.692 363.958 340.544 363.461 340.544C362.71 340.544 362.098 340.813 361.623 341.349C361.159 341.874 360.927 342.717 360.927 343.878C360.927 345.049 361.153 345.903 361.606 346.44C362.059 346.965 362.65 347.228 363.378 347.228C363.964 347.228 364.45 347.053 364.836 346.702C365.234 346.341 365.482 345.788 365.581 345.044ZM371.577 346.916L371.793 348.23C371.373 348.317 370.998 348.361 370.666 348.361C370.125 348.361 369.706 348.279 369.408 348.115C369.109 347.94 368.9 347.715 368.778 347.441C368.657 347.157 368.596 346.571 368.596 345.684V340.676H367.503V339.526H368.596V337.359L370.087 336.472V339.526H371.577V340.676H370.087V345.766C370.087 346.193 370.109 346.467 370.153 346.588C370.208 346.708 370.296 346.806 370.418 346.883C370.539 346.949 370.711 346.982 370.931 346.982C371.097 346.982 371.312 346.96 371.577 346.916ZM372.555 348.246V339.526H373.896V340.84C374.239 340.227 374.553 339.822 374.84 339.625C375.128 339.428 375.448 339.329 375.801 339.329C376.298 339.329 376.806 339.488 377.325 339.805L376.812 341.168C376.447 340.96 376.083 340.856 375.718 340.856C375.398 340.856 375.105 340.955 374.84 341.152C374.586 341.338 374.404 341.606 374.294 341.957C374.128 342.482 374.045 343.057 374.045 343.681V348.246H372.555ZM377.308 343.878C377.308 342.269 377.761 341.075 378.667 340.298C379.429 339.652 380.351 339.329 381.433 339.329C382.647 339.329 383.636 339.723 384.398 340.511C385.171 341.289 385.557 342.373 385.557 343.763C385.557 344.88 385.386 345.761 385.044 346.407C384.701 347.053 384.204 347.556 383.553 347.918C382.912 348.268 382.206 348.443 381.433 348.443C380.207 348.443 379.213 348.055 378.451 347.277C377.689 346.489 377.308 345.356 377.308 343.878ZM378.849 343.878C378.849 344.995 379.092 345.832 379.578 346.39C380.075 346.949 380.693 347.228 381.433 347.228C382.173 347.228 382.785 346.949 383.271 346.39C383.768 345.832 384.017 344.978 384.017 343.829C384.017 342.756 383.768 341.94 383.271 341.382C382.785 340.823 382.173 340.544 381.433 340.544C380.693 340.544 380.075 340.823 379.578 341.382C379.092 341.929 378.849 342.761 378.849 343.878ZM387.412 348.246V339.526H388.754V340.758C389.394 339.805 390.327 339.329 391.553 339.329C392.083 339.329 392.569 339.422 393.011 339.608C393.452 339.794 393.784 340.041 394.005 340.347C394.225 340.654 394.38 341.021 394.468 341.448C394.524 341.721 394.551 342.197 394.551 342.876V348.246H393.06V342.942C393.06 342.34 393 341.891 392.878 341.595C392.768 341.289 392.564 341.048 392.265 340.873C391.978 340.698 391.636 340.61 391.238 340.61C390.598 340.61 390.046 340.813 389.582 341.218C389.129 341.612 388.903 342.367 388.903 343.484V348.246H387.412ZM395.893 337.9V336.209H397.384V337.9H395.893ZM395.893 348.246V339.526H397.384V348.246H395.893ZM405.864 345.044L407.338 345.241C407.173 346.237 406.759 347.02 406.096 347.589C405.444 348.159 404.638 348.443 403.678 348.443C402.474 348.443 401.502 348.055 400.762 347.277C400.034 346.489 399.669 345.367 399.669 343.911C399.669 342.969 399.824 342.148 400.133 341.448C400.453 340.736 400.934 340.205 401.574 339.855C402.226 339.504 402.927 339.329 403.678 339.329C404.638 339.329 405.422 339.57 406.03 340.052C406.637 340.522 407.024 341.201 407.189 342.088L405.748 342.301C405.605 341.721 405.356 341.283 405.003 340.988C404.66 340.692 404.241 340.544 403.744 340.544C402.993 340.544 402.38 340.813 401.905 341.349C401.442 341.874 401.21 342.717 401.21 343.878C401.21 345.049 401.436 345.903 401.889 346.44C402.342 346.965 402.932 347.228 403.661 347.228C404.246 347.228 404.732 347.053 405.119 346.702C405.516 346.341 405.765 345.788 405.864 345.044ZM414.345 347.162C413.793 347.633 413.262 347.967 412.755 348.164C412.247 348.35 411.7 348.443 411.115 348.443C410.143 348.443 409.398 348.208 408.879 347.737C408.36 347.266 408.1 346.67 408.1 345.947C408.1 345.52 408.2 345.131 408.398 344.781C408.597 344.42 408.851 344.135 409.16 343.927C409.48 343.708 409.839 343.544 410.237 343.435C410.535 343.358 410.977 343.287 411.562 343.221C412.766 343.079 413.654 342.909 414.229 342.712C414.229 342.504 414.229 342.373 414.229 342.318C414.229 341.716 414.091 341.294 413.815 341.053C413.428 340.714 412.859 340.544 412.109 340.544C411.413 340.544 410.894 340.67 410.552 340.922C410.22 341.163 409.977 341.59 409.823 342.203L408.365 342.006C408.498 341.393 408.713 340.895 409.011 340.511C409.32 340.128 409.762 339.838 410.336 339.641C410.91 339.433 411.573 339.329 412.324 339.329C413.075 339.329 413.682 339.417 414.146 339.592C414.621 339.767 414.969 339.986 415.189 340.249C415.41 340.511 415.565 340.845 415.653 341.25C415.708 341.502 415.736 341.957 415.736 342.613V344.584C415.736 345.963 415.764 346.834 415.819 347.195C415.885 347.556 416.012 347.907 416.2 348.246H414.643C414.488 347.94 414.389 347.578 414.345 347.162ZM414.229 343.862C413.688 344.08 412.876 344.267 411.794 344.42C411.175 344.507 410.739 344.606 410.485 344.715C410.231 344.825 410.033 344.989 409.889 345.208C409.757 345.416 409.69 345.646 409.69 345.898C409.69 346.292 409.839 346.62 410.137 346.883C410.447 347.146 410.888 347.277 411.463 347.277C412.037 347.277 412.545 347.157 412.986 346.916C413.439 346.664 413.77 346.319 413.98 345.881C414.146 345.553 414.229 345.06 414.229 344.403V343.862Z" fill="white"/>
<path d="M465.82 348.246V336.209H470.408C471.215 336.209 471.827 336.247 472.247 336.324C472.843 336.422 473.34 336.609 473.738 336.882C474.146 337.156 474.472 337.545 474.715 338.048C474.969 338.541 475.096 339.088 475.096 339.69C475.096 340.709 474.765 341.573 474.102 342.285C473.451 342.997 472.264 343.352 470.541 343.352H467.427V348.246H465.82ZM467.427 341.924H470.574C471.612 341.924 472.346 341.732 472.777 341.349C473.219 340.966 473.44 340.429 473.44 339.74C473.44 339.236 473.307 338.804 473.042 338.442C472.788 338.081 472.451 337.846 472.032 337.736C471.767 337.66 471.27 337.621 470.541 337.621H467.427V341.924ZM476.736 343.878C476.736 342.269 477.188 341.075 478.094 340.298C478.856 339.652 479.778 339.329 480.86 339.329C482.075 339.329 483.063 339.723 483.825 340.511C484.598 341.289 484.984 342.373 484.984 343.763C484.984 344.88 484.813 345.761 484.471 346.407C484.129 347.053 483.632 347.556 482.98 347.918C482.34 348.268 481.633 348.443 480.86 348.443C479.634 348.443 478.641 348.055 477.879 347.277C477.117 346.489 476.736 345.356 476.736 343.878ZM478.276 343.878C478.276 344.995 478.519 345.832 479.005 346.39C479.502 346.949 480.12 347.228 480.86 347.228C481.6 347.228 482.213 346.949 482.699 346.39C483.196 345.832 483.444 344.978 483.444 343.829C483.444 342.756 483.196 341.94 482.699 341.382C482.213 340.823 481.6 340.544 480.86 340.544C480.12 340.544 479.502 340.823 479.005 341.382C478.519 341.929 478.276 342.761 478.276 343.878ZM486.84 351.596V339.526H488.198V340.659C488.518 340.21 488.877 339.877 489.274 339.658C489.683 339.439 490.174 339.329 490.749 339.329C491.499 339.329 492.162 339.521 492.736 339.904C493.31 340.287 493.741 340.829 494.028 341.53C494.326 342.219 494.475 342.98 494.475 343.812C494.475 344.71 494.31 345.515 493.978 346.226C493.658 346.938 493.189 347.485 492.571 347.868C491.963 348.252 491.317 348.443 490.633 348.443C490.136 348.443 489.688 348.339 489.291 348.131C488.904 347.923 488.584 347.66 488.33 347.343V351.596H486.84ZM488.181 343.927C488.181 345.055 488.408 345.887 488.86 346.423C489.324 346.96 489.882 347.228 490.533 347.228C491.196 347.228 491.764 346.949 492.239 346.39C492.714 345.832 492.951 344.973 492.951 343.812C492.951 342.696 492.72 341.864 492.256 341.316C491.792 340.758 491.24 340.479 490.599 340.479C489.97 340.479 489.407 340.774 488.91 341.365C488.424 341.957 488.181 342.811 488.181 343.927ZM495.8 344.633V343.139H500.372V344.633H495.8ZM501.664 348.246V339.526H503.006V340.84C503.348 340.227 503.663 339.822 503.95 339.625C504.237 339.428 504.557 339.329 504.91 339.329C505.407 339.329 505.915 339.488 506.434 339.805L505.921 341.168C505.556 340.96 505.192 340.856 504.828 340.856C504.507 340.856 504.215 340.955 503.95 341.152C503.696 341.338 503.514 341.606 503.403 341.957C503.237 342.482 503.155 343.057 503.155 343.681V348.246H501.664ZM506.418 343.878C506.418 342.269 506.87 341.075 507.776 340.298C508.538 339.652 509.46 339.329 510.542 339.329C511.757 339.329 512.745 339.723 513.507 340.511C514.28 341.289 514.666 342.373 514.666 343.763C514.666 344.88 514.495 345.761 514.153 346.407C513.811 347.053 513.314 347.556 512.662 347.918C512.022 348.268 511.315 348.443 510.542 348.443C509.316 348.443 508.323 348.055 507.561 347.277C506.799 346.489 506.418 345.356 506.418 343.878ZM507.958 343.878C507.958 344.995 508.201 345.832 508.687 346.39C509.184 346.949 509.802 347.228 510.542 347.228C511.282 347.228 511.895 346.949 512.381 346.39C512.878 345.832 513.126 344.978 513.126 343.829C513.126 342.756 512.878 341.94 512.381 341.382C511.895 340.823 511.282 340.544 510.542 340.544C509.802 340.544 509.184 340.823 508.687 341.382C508.201 341.929 507.958 342.761 507.958 343.878ZM522.253 345.044L523.727 345.241C523.561 346.237 523.147 347.02 522.484 347.589C521.833 348.159 521.027 348.443 520.066 348.443C518.862 348.443 517.891 348.055 517.151 347.277C516.422 346.489 516.058 345.367 516.058 343.911C516.058 342.969 516.212 342.148 516.522 341.448C516.842 340.736 517.322 340.205 517.963 339.855C518.614 339.504 519.315 339.329 520.066 339.329C521.027 339.329 521.811 339.57 522.418 340.052C523.025 340.522 523.412 341.201 523.578 342.088L522.137 342.301C521.993 341.721 521.745 341.283 521.391 340.988C521.049 340.692 520.629 340.544 520.132 340.544C519.381 340.544 518.769 340.813 518.294 341.349C517.83 341.874 517.598 342.717 517.598 343.878C517.598 345.049 517.825 345.903 518.277 346.44C518.73 346.965 519.321 347.228 520.05 347.228C520.635 347.228 521.121 347.053 521.507 346.702C521.905 346.341 522.153 345.788 522.253 345.044ZM525.002 348.246V336.209H526.493V343.073L530.021 339.526H531.959L528.596 342.761L532.29 348.246H530.451L527.553 343.779L526.493 344.781V348.246H525.002Z" fill="white"/>
</g>
</g>
<defs>
<clipPath id="clip0_1657_331">
<rect width="600" height="371" fill="white"/>
</clipPath>
<clipPath id="clip1_1657_331">
<rect width="600" height="371" fill="white"/>
</clipPath>
</defs>
</svg>
