<svg width="600" height="371" viewBox="0 0 600 371" fill="none" xmlns="http://www.w3.org/2000/svg">
<g clip-path="url(#clip0_1751_455)">
<path d="M0 0H600V371H0V0Z" fill="#1A1B1F"/>
<path d="M45.5 325.5H581.5" stroke="#E7E7E8" stroke-miterlimit="10"/>
<path d="M45.5 225.5H581.5" stroke="#4D4E51" stroke-miterlimit="10"/>
<path d="M45.5 125.5H581.5" stroke="#4D4E51" stroke-miterlimit="10"/>
<path d="M45.5 25.5H581.5" stroke="#4D4E51" stroke-miterlimit="10"/>
<mask id="mask0_1751_455" style="mask-type:luminance" maskUnits="userSpaceOnUse" x="45" y="25" width="537" height="301">
<path d="M45.5508 25.55H581.451V325.45H45.5508V25.55Z" fill="white"/>
</mask>
<g mask="url(#mask0_1751_455)">
<path d="M131 325H76V227C76 225.895 76.8954 225 78 225H129C130.105 225 131 225.895 131 227V325Z" fill="#1C4587"/>
</g>
<mask id="mask1_1751_455" style="mask-type:luminance" maskUnits="userSpaceOnUse" x="45" y="25" width="537" height="301">
<path d="M45.5508 25.55H581.451V325.45H45.5508V25.55Z" fill="white"/>
</mask>
<g mask="url(#mask1_1751_455)">
<path d="M215 325H160V28C160 26.8954 160.895 26 162 26H213C214.105 26 215 26.8954 215 28V325Z" fill="#1155CC"/>
</g>
<mask id="mask2_1751_455" style="mask-type:luminance" maskUnits="userSpaceOnUse" x="45" y="25" width="537" height="301">
<path d="M45.5508 25.55H581.451V325.45H45.5508V25.55Z" fill="white"/>
</mask>
<g mask="url(#mask2_1751_455)">
<path d="M299 325H244V128C244 126.895 244.895 126 246 126H297C298.105 126 299 126.895 299 128V325Z" fill="#3C78D8"/>
</g>
<mask id="mask3_1751_455" style="mask-type:luminance" maskUnits="userSpaceOnUse" x="45" y="25" width="537" height="301">
<path d="M45.5508 25.55H581.451V325.45H45.5508V25.55Z" fill="white"/>
</mask>
<g mask="url(#mask3_1751_455)">
<path d="M384 325H329V128C329 126.895 329.895 126 331 126H382C383.105 126 384 126.895 384 128V325Z" fill="#6D9EEB"/>
</g>
<mask id="mask4_1751_455" style="mask-type:luminance" maskUnits="userSpaceOnUse" x="45" y="25" width="537" height="301">
<path d="M45.5508 25.55H581.451V325.45H45.5508V25.55Z" fill="white"/>
</mask>
<g mask="url(#mask4_1751_455)">
<path d="M468 325H413V128C413 126.895 413.895 126 415 126H466C467.105 126 468 126.895 468 128V325Z" fill="#A4C2F4"/>
</g>
<mask id="mask5_1751_455" style="mask-type:luminance" maskUnits="userSpaceOnUse" x="45" y="25" width="537" height="301">
<path d="M45.5508 25.55H581.451V325.45H45.5508V25.55Z" fill="white"/>
</mask>
<g mask="url(#mask5_1751_455)">
<path d="M552 325H497V227C497 225.895 497.895 225 499 225H550C551.105 225 552 225.895 552 227V325Z" fill="#C9DAF8"/>
</g>
<path d="M33.0508 325.216C33.0508 324.195 33.1549 323.377 33.3633 322.763C33.5716 322.138 33.8789 321.659 34.2852 321.325C34.7018 320.992 35.2227 320.825 35.8477 320.825C36.306 320.825 36.707 320.919 37.0508 321.106C37.4049 321.294 37.6966 321.565 37.9258 321.919C38.1549 322.263 38.332 322.685 38.457 323.185C38.582 323.685 38.6445 324.362 38.6445 325.216C38.6445 326.226 38.5404 327.039 38.332 327.653C38.1341 328.268 37.8268 328.747 37.4102 329.091C37.0039 329.424 36.4831 329.591 35.8477 329.591C35.0247 329.591 34.3737 329.294 33.8945 328.7C33.332 327.992 33.0508 326.83 33.0508 325.216ZM34.1289 325.216C34.1289 326.622 34.2956 327.56 34.6289 328.028C34.9622 328.497 35.3685 328.731 35.8477 328.731C36.3372 328.731 36.7435 328.497 37.0664 328.028C37.3997 327.56 37.5664 326.622 37.5664 325.216C37.5664 323.799 37.3997 322.862 37.0664 322.403C36.7435 321.935 36.332 321.7 35.832 321.7C35.3529 321.7 34.9674 321.903 34.6758 322.31C34.3112 322.83 34.1289 323.799 34.1289 325.216Z" fill="white"/>
<path d="M37.0195 229.483H35.9727V222.765C35.7122 223.004 35.3737 223.249 34.957 223.499C34.5508 223.739 34.1862 223.916 33.8633 224.03V223.015C34.4466 222.733 34.957 222.4 35.3945 222.015C35.8424 221.619 36.1602 221.233 36.3477 220.858H37.0195V229.483Z" fill="white"/>
<path d="M38.5977 128.501V129.517H32.9102C32.9102 129.267 32.9518 129.022 33.0352 128.782C33.181 128.397 33.4102 128.017 33.7227 127.642C34.0456 127.267 34.5091 126.834 35.1133 126.345C36.0508 125.574 36.681 124.965 37.0039 124.517C37.3372 124.069 37.5039 123.647 37.5039 123.251C37.5039 122.834 37.3529 122.485 37.0508 122.204C36.7487 121.912 36.3581 121.767 35.8789 121.767C35.3685 121.767 34.9622 121.918 34.6602 122.22C34.3581 122.522 34.2018 122.944 34.1914 123.485L33.1133 123.376C33.1862 122.563 33.4622 121.949 33.9414 121.532C34.431 121.105 35.0872 120.892 35.9102 120.892C36.7331 120.892 37.3841 121.121 37.8633 121.579C38.3424 122.037 38.582 122.605 38.582 123.282C38.582 123.626 38.5091 123.965 38.3633 124.298C38.2279 124.621 37.9935 124.97 37.6602 125.345C37.3372 125.709 36.8008 126.209 36.0508 126.845C35.4154 127.376 35.0039 127.741 34.8164 127.938C34.6393 128.126 34.4935 128.313 34.3789 128.501H38.5977Z" fill="white"/>
<path d="M33.0508 27.2844L34.1133 27.1438C34.2279 27.7375 34.431 28.1698 34.7227 28.4407C35.0143 28.7011 35.3685 28.8313 35.7852 28.8313C36.2852 28.8313 36.707 28.6594 37.0508 28.3157C37.3945 27.9719 37.5664 27.5448 37.5664 27.0344C37.5664 26.5553 37.4049 26.1594 37.082 25.8469C36.7695 25.524 36.3685 25.3625 35.8789 25.3625C35.681 25.3625 35.431 25.4042 35.1289 25.4875L35.2539 24.55C35.3268 24.5605 35.3841 24.5657 35.4258 24.5657C35.8737 24.5657 36.2747 24.4511 36.6289 24.2219C36.9935 23.9823 37.1758 23.6178 37.1758 23.1282C37.1758 22.7428 37.0456 22.425 36.7852 22.175C36.5247 21.9146 36.1862 21.7844 35.7695 21.7844C35.3633 21.7844 35.0195 21.9146 34.7383 22.175C34.4674 22.4355 34.2956 22.8209 34.2227 23.3313L33.1602 23.1438C33.2852 22.4459 33.5768 21.9042 34.0352 21.5188C34.4935 21.123 35.0612 20.925 35.7383 20.925C36.207 20.925 36.6393 21.0292 37.0352 21.2375C37.431 21.4355 37.7331 21.7063 37.9414 22.05C38.1497 22.3938 38.2539 22.7636 38.2539 23.1594C38.2539 23.524 38.1549 23.8625 37.957 24.175C37.7591 24.4771 37.4674 24.7167 37.082 24.8938C37.582 25.0084 37.9727 25.2532 38.2539 25.6282C38.5352 25.9928 38.6758 26.4563 38.6758 27.0188C38.6758 27.7688 38.3997 28.4042 37.8477 28.925C37.306 29.4459 36.6185 29.7063 35.7852 29.7063C35.0352 29.7063 34.4102 29.4823 33.9102 29.0344C33.4102 28.5761 33.1237 27.9928 33.0508 27.2844Z" fill="white"/>
<path d="M74.7969 348.45V336.997H76.3125V341.7H82.2656V336.997H83.7812V348.45H82.2656V343.044H76.3125V348.45H74.7969ZM85.5781 338.606V336.997H86.9844V338.606H85.5781ZM85.5781 348.45V340.153H86.9844V348.45H85.5781ZM89.5781 351.638V340.153H90.8594V341.231C91.1615 340.804 91.5 340.487 91.875 340.278C92.2604 340.07 92.724 339.966 93.2656 339.966C93.974 339.966 94.599 340.148 95.1406 340.513C95.6823 340.877 96.0885 341.393 96.3594 342.06C96.6406 342.716 96.7812 343.44 96.7812 344.231C96.7812 345.086 96.625 345.851 96.3125 346.528C96.0104 347.205 95.5677 347.726 94.9844 348.091C94.4115 348.455 93.8021 348.638 93.1562 348.638C92.6875 348.638 92.2656 348.539 91.8906 348.341C91.526 348.143 91.224 347.893 90.9844 347.591V351.638H89.5781ZM90.8438 344.341C90.8438 345.414 91.0573 346.205 91.4844 346.716C91.9219 347.226 92.4479 347.481 93.0625 347.481C93.6875 347.481 94.224 347.216 94.6719 346.685C95.1198 346.153 95.3438 345.336 95.3438 344.231C95.3438 343.169 95.125 342.377 94.6875 341.856C94.25 341.325 93.7292 341.06 93.125 341.06C92.5313 341.06 92 341.341 91.5312 341.903C91.0729 342.466 90.8438 343.278 90.8438 344.341ZM98.0312 345.013V343.591H102.344V345.013H98.0312ZM103.797 348.45V336.997H105.312V341.7H111.266V336.997H112.781V348.45H111.266V343.044H105.312V348.45H103.797ZM114.047 344.294C114.047 342.763 114.474 341.627 115.328 340.888C116.047 340.273 116.917 339.966 117.938 339.966C119.083 339.966 120.016 340.341 120.734 341.091C121.464 341.83 121.828 342.862 121.828 344.185C121.828 345.247 121.667 346.086 121.344 346.7C121.021 347.315 120.552 347.794 119.938 348.138C119.333 348.471 118.667 348.638 117.938 348.638C116.781 348.638 115.844 348.268 115.125 347.528C114.406 346.778 114.047 345.7 114.047 344.294ZM115.5 344.294C115.5 345.356 115.729 346.153 116.188 346.685C116.656 347.216 117.24 347.481 117.938 347.481C118.635 347.481 119.214 347.216 119.672 346.685C120.141 346.153 120.375 345.341 120.375 344.247C120.375 343.226 120.141 342.45 119.672 341.919C119.214 341.388 118.635 341.122 117.938 341.122C117.24 341.122 116.656 341.388 116.188 341.919C115.729 342.44 115.5 343.231 115.5 344.294ZM123.578 351.638V340.153H124.859V341.231C125.161 340.804 125.5 340.487 125.875 340.278C126.26 340.07 126.724 339.966 127.266 339.966C127.974 339.966 128.599 340.148 129.141 340.513C129.682 340.877 130.089 341.393 130.359 342.06C130.641 342.716 130.781 343.44 130.781 344.231C130.781 345.086 130.625 345.851 130.312 346.528C130.01 347.205 129.568 347.726 128.984 348.091C128.411 348.455 127.802 348.638 127.156 348.638C126.688 348.638 126.266 348.539 125.891 348.341C125.526 348.143 125.224 347.893 124.984 347.591V351.638H123.578ZM124.844 344.341C124.844 345.414 125.057 346.205 125.484 346.716C125.922 347.226 126.448 347.481 127.062 347.481C127.688 347.481 128.224 347.216 128.672 346.685C129.12 346.153 129.344 345.336 129.344 344.231C129.344 343.169 129.125 342.377 128.688 341.856C128.25 341.325 127.729 341.06 127.125 341.06C126.531 341.06 126 341.341 125.531 341.903C125.073 342.466 124.844 343.278 124.844 344.341Z" fill="white"/>
<path d="M173.645 348.45V336.997H177.973C178.733 336.997 179.311 337.034 179.707 337.106C180.27 337.2 180.738 337.377 181.113 337.638C181.499 337.898 181.806 338.268 182.035 338.747C182.275 339.216 182.395 339.737 182.395 340.31C182.395 341.278 182.082 342.101 181.457 342.778C180.842 343.455 179.723 343.794 178.098 343.794H175.16V348.45H173.645ZM175.16 342.435H178.129C179.108 342.435 179.801 342.252 180.207 341.888C180.624 341.523 180.832 341.013 180.832 340.356C180.832 339.877 180.707 339.466 180.457 339.122C180.217 338.778 179.9 338.554 179.504 338.45C179.254 338.377 178.785 338.341 178.098 338.341H175.16V342.435ZM183.941 344.294C183.941 342.763 184.368 341.627 185.223 340.888C185.941 340.273 186.811 339.966 187.832 339.966C188.978 339.966 189.91 340.341 190.629 341.091C191.358 341.83 191.723 342.862 191.723 344.185C191.723 345.247 191.561 346.086 191.238 346.7C190.915 347.315 190.447 347.794 189.832 348.138C189.228 348.471 188.561 348.638 187.832 348.638C186.676 348.638 185.738 348.268 185.02 347.528C184.301 346.778 183.941 345.7 183.941 344.294ZM185.395 344.294C185.395 345.356 185.624 346.153 186.082 346.685C186.551 347.216 187.134 347.481 187.832 347.481C188.53 347.481 189.108 347.216 189.566 346.685C190.035 346.153 190.27 345.341 190.27 344.247C190.27 343.226 190.035 342.45 189.566 341.919C189.108 341.388 188.53 341.122 187.832 341.122C187.134 341.122 186.551 341.388 186.082 341.919C185.624 342.44 185.395 343.231 185.395 344.294ZM193.473 351.638V340.153H194.754V341.231C195.056 340.804 195.395 340.487 195.77 340.278C196.155 340.07 196.618 339.966 197.16 339.966C197.868 339.966 198.493 340.148 199.035 340.513C199.577 340.877 199.983 341.393 200.254 342.06C200.535 342.716 200.676 343.44 200.676 344.231C200.676 345.086 200.52 345.851 200.207 346.528C199.905 347.205 199.462 347.726 198.879 348.091C198.306 348.455 197.697 348.638 197.051 348.638C196.582 348.638 196.16 348.539 195.785 348.341C195.421 348.143 195.118 347.893 194.879 347.591V351.638H193.473ZM194.738 344.341C194.738 345.414 194.952 346.205 195.379 346.716C195.816 347.226 196.342 347.481 196.957 347.481C197.582 347.481 198.118 347.216 198.566 346.685C199.014 346.153 199.238 345.336 199.238 344.231C199.238 343.169 199.02 342.377 198.582 341.856C198.145 341.325 197.624 341.06 197.02 341.06C196.426 341.06 195.895 341.341 195.426 341.903C194.967 342.466 194.738 343.278 194.738 344.341Z" fill="white"/>
<path d="M233.568 348.45V336.997H241.85V338.341H235.084V341.856H241.428V343.2H235.084V347.091H242.115V348.45H233.568ZM244.334 348.45V336.997H245.74V348.45H244.334ZM253.037 345.778L254.49 345.95C254.261 346.804 253.834 347.466 253.209 347.935C252.594 348.403 251.808 348.638 250.85 348.638C249.631 348.638 248.667 348.263 247.959 347.513C247.251 346.763 246.896 345.716 246.896 344.372C246.896 342.976 247.256 341.893 247.975 341.122C248.693 340.351 249.626 339.966 250.771 339.966C251.876 339.966 252.777 340.346 253.475 341.106C254.183 341.856 254.537 342.914 254.537 344.278C254.537 344.362 254.537 344.487 254.537 344.653H248.35C248.402 345.57 248.657 346.273 249.115 346.763C249.584 347.242 250.162 347.481 250.85 347.481C251.37 347.481 251.813 347.346 252.178 347.075C252.542 346.804 252.829 346.372 253.037 345.778ZM248.428 343.497H253.053C252.99 342.799 252.813 342.278 252.521 341.935C252.074 341.393 251.495 341.122 250.787 341.122C250.141 341.122 249.594 341.341 249.146 341.778C248.709 342.205 248.469 342.778 248.428 343.497ZM261.771 345.403L263.162 345.591C263.006 346.539 262.615 347.284 261.99 347.825C261.376 348.367 260.615 348.638 259.709 348.638C258.574 348.638 257.657 348.268 256.959 347.528C256.271 346.778 255.928 345.711 255.928 344.325C255.928 343.429 256.074 342.648 256.365 341.981C256.667 341.304 257.12 340.799 257.725 340.466C258.339 340.132 259.001 339.966 259.709 339.966C260.615 339.966 261.355 340.195 261.928 340.653C262.501 341.101 262.865 341.747 263.021 342.591L261.662 342.794C261.527 342.242 261.292 341.825 260.959 341.544C260.636 341.263 260.24 341.122 259.771 341.122C259.063 341.122 258.485 341.377 258.037 341.888C257.6 342.388 257.381 343.19 257.381 344.294C257.381 345.409 257.594 346.221 258.021 346.731C258.449 347.231 259.006 347.481 259.693 347.481C260.245 347.481 260.704 347.315 261.068 346.981C261.443 346.638 261.678 346.112 261.771 345.403ZM267.428 347.185L267.631 348.435C267.235 348.518 266.881 348.56 266.568 348.56C266.058 348.56 265.662 348.481 265.381 348.325C265.1 348.159 264.902 347.945 264.787 347.685C264.673 347.414 264.615 346.856 264.615 346.013V341.247H263.584V340.153H264.615V338.091L266.021 337.247V340.153H267.428V341.247H266.021V346.091C266.021 346.497 266.042 346.757 266.084 346.872C266.136 346.987 266.219 347.08 266.334 347.153C266.449 347.216 266.61 347.247 266.818 347.247C266.975 347.247 267.178 347.226 267.428 347.185ZM268.35 348.45V340.153H269.615V341.403C269.938 340.82 270.235 340.435 270.506 340.247C270.777 340.06 271.079 339.966 271.412 339.966C271.881 339.966 272.36 340.117 272.85 340.419L272.365 341.716C272.022 341.518 271.678 341.419 271.334 341.419C271.032 341.419 270.756 341.513 270.506 341.7C270.266 341.877 270.094 342.132 269.99 342.466C269.834 342.966 269.756 343.513 269.756 344.106V348.45H268.35ZM272.834 344.294C272.834 342.763 273.261 341.627 274.115 340.888C274.834 340.273 275.704 339.966 276.725 339.966C277.87 339.966 278.803 340.341 279.521 341.091C280.251 341.83 280.615 342.862 280.615 344.185C280.615 345.247 280.454 346.086 280.131 346.7C279.808 347.315 279.339 347.794 278.725 348.138C278.12 348.471 277.454 348.638 276.725 348.638C275.568 348.638 274.631 348.268 273.912 347.528C273.193 346.778 272.834 345.7 272.834 344.294ZM274.287 344.294C274.287 345.356 274.516 346.153 274.975 346.685C275.443 347.216 276.027 347.481 276.725 347.481C277.423 347.481 278.001 347.216 278.459 346.685C278.928 346.153 279.162 345.341 279.162 344.247C279.162 343.226 278.928 342.45 278.459 341.919C278.001 341.388 277.423 341.122 276.725 341.122C276.027 341.122 275.443 341.388 274.975 341.919C274.516 342.44 274.287 343.231 274.287 344.294ZM282.365 348.45V340.153H283.631V341.325C284.235 340.419 285.115 339.966 286.271 339.966C286.771 339.966 287.23 340.054 287.646 340.231C288.063 340.409 288.376 340.643 288.584 340.935C288.792 341.226 288.938 341.575 289.021 341.981C289.074 342.242 289.1 342.695 289.1 343.341V348.45H287.693V343.403C287.693 342.83 287.636 342.403 287.521 342.122C287.417 341.83 287.225 341.601 286.943 341.435C286.673 341.268 286.35 341.185 285.975 341.185C285.37 341.185 284.85 341.377 284.412 341.763C283.985 342.138 283.771 342.856 283.771 343.919V348.45H282.365ZM290.365 338.606V336.997H291.771V338.606H290.365ZM290.365 348.45V340.153H291.771V348.45H290.365ZM299.771 345.403L301.162 345.591C301.006 346.539 300.615 347.284 299.99 347.825C299.376 348.367 298.615 348.638 297.709 348.638C296.574 348.638 295.657 348.268 294.959 347.528C294.272 346.778 293.928 345.711 293.928 344.325C293.928 343.429 294.074 342.648 294.365 341.981C294.667 341.304 295.12 340.799 295.725 340.466C296.339 340.132 297.001 339.966 297.709 339.966C298.615 339.966 299.355 340.195 299.928 340.653C300.501 341.101 300.865 341.747 301.021 342.591L299.662 342.794C299.527 342.242 299.292 341.825 298.959 341.544C298.636 341.263 298.24 341.122 297.771 341.122C297.063 341.122 296.485 341.377 296.037 341.888C295.6 342.388 295.381 343.19 295.381 344.294C295.381 345.409 295.594 346.221 296.021 346.731C296.449 347.231 297.006 347.481 297.693 347.481C298.245 347.481 298.704 347.315 299.068 346.981C299.443 346.638 299.678 346.112 299.771 345.403ZM307.771 347.419C307.251 347.867 306.751 348.185 306.271 348.372C305.792 348.549 305.277 348.638 304.725 348.638C303.808 348.638 303.105 348.414 302.615 347.966C302.126 347.518 301.881 346.95 301.881 346.263C301.881 345.856 301.975 345.487 302.162 345.153C302.35 344.81 302.589 344.539 302.881 344.341C303.183 344.132 303.521 343.976 303.896 343.872C304.178 343.799 304.594 343.731 305.146 343.669C306.282 343.534 307.12 343.372 307.662 343.185C307.662 342.987 307.662 342.862 307.662 342.81C307.662 342.237 307.532 341.836 307.271 341.606C306.907 341.284 306.37 341.122 305.662 341.122C305.006 341.122 304.516 341.242 304.193 341.481C303.881 341.711 303.652 342.117 303.506 342.7L302.131 342.513C302.256 341.929 302.459 341.455 302.74 341.091C303.032 340.726 303.449 340.45 303.99 340.263C304.532 340.065 305.157 339.966 305.865 339.966C306.574 339.966 307.147 340.049 307.584 340.216C308.032 340.382 308.36 340.591 308.568 340.841C308.777 341.091 308.923 341.409 309.006 341.794C309.058 342.034 309.084 342.466 309.084 343.091V344.966C309.084 346.278 309.11 347.106 309.162 347.45C309.225 347.794 309.344 348.127 309.521 348.45H308.053C307.907 348.159 307.813 347.815 307.771 347.419ZM307.662 344.278C307.152 344.487 306.386 344.664 305.365 344.81C304.782 344.893 304.37 344.987 304.131 345.091C303.891 345.195 303.704 345.351 303.568 345.56C303.443 345.757 303.381 345.976 303.381 346.216C303.381 346.591 303.522 346.903 303.803 347.153C304.094 347.403 304.511 347.528 305.053 347.528C305.594 347.528 306.074 347.414 306.49 347.185C306.917 346.945 307.23 346.617 307.428 346.2C307.584 345.888 307.662 345.419 307.662 344.794V344.278Z" fill="white"/>
<path d="M335.369 348.45V336.997H336.885V342.669L342.572 336.997H344.635L339.822 341.638L344.838 348.45H342.838L338.76 342.653L336.885 344.481V348.45H335.369ZM345.713 345.013V343.591H350.025V345.013H345.713ZM351.26 351.638V340.153H352.541V341.231C352.843 340.804 353.182 340.487 353.557 340.278C353.942 340.07 354.406 339.966 354.947 339.966C355.656 339.966 356.281 340.148 356.822 340.513C357.364 340.877 357.77 341.393 358.041 342.06C358.322 342.716 358.463 343.44 358.463 344.231C358.463 345.086 358.307 345.851 357.994 346.528C357.692 347.205 357.249 347.726 356.666 348.091C356.093 348.455 355.484 348.638 354.838 348.638C354.369 348.638 353.947 348.539 353.572 348.341C353.208 348.143 352.906 347.893 352.666 347.591V351.638H351.26ZM352.525 344.341C352.525 345.414 352.739 346.205 353.166 346.716C353.604 347.226 354.13 347.481 354.744 347.481C355.369 347.481 355.906 347.216 356.354 346.685C356.801 346.153 357.025 345.336 357.025 344.231C357.025 343.169 356.807 342.377 356.369 341.856C355.932 341.325 355.411 341.06 354.807 341.06C354.213 341.06 353.682 341.341 353.213 341.903C352.755 342.466 352.525 343.278 352.525 344.341ZM359.729 344.294C359.729 342.763 360.156 341.627 361.01 340.888C361.729 340.273 362.598 339.966 363.619 339.966C364.765 339.966 365.697 340.341 366.416 341.091C367.145 341.83 367.51 342.862 367.51 344.185C367.51 345.247 367.348 346.086 367.025 346.7C366.702 347.315 366.234 347.794 365.619 348.138C365.015 348.471 364.348 348.638 363.619 348.638C362.463 348.638 361.525 348.268 360.807 347.528C360.088 346.778 359.729 345.7 359.729 344.294ZM361.182 344.294C361.182 345.356 361.411 346.153 361.869 346.685C362.338 347.216 362.921 347.481 363.619 347.481C364.317 347.481 364.895 347.216 365.354 346.685C365.822 346.153 366.057 345.341 366.057 344.247C366.057 343.226 365.822 342.45 365.354 341.919C364.895 341.388 364.317 341.122 363.619 341.122C362.921 341.122 362.338 341.388 361.869 341.919C361.411 342.44 361.182 343.231 361.182 344.294ZM369.26 351.638V340.153H370.541V341.231C370.843 340.804 371.182 340.487 371.557 340.278C371.942 340.07 372.406 339.966 372.947 339.966C373.656 339.966 374.281 340.148 374.822 340.513C375.364 340.877 375.77 341.393 376.041 342.06C376.322 342.716 376.463 343.44 376.463 344.231C376.463 345.086 376.307 345.851 375.994 346.528C375.692 347.205 375.249 347.726 374.666 348.091C374.093 348.455 373.484 348.638 372.838 348.638C372.369 348.638 371.947 348.539 371.572 348.341C371.208 348.143 370.906 347.893 370.666 347.591V351.638H369.26ZM370.525 344.341C370.525 345.414 370.739 346.205 371.166 346.716C371.604 347.226 372.13 347.481 372.744 347.481C373.369 347.481 373.906 347.216 374.354 346.685C374.801 346.153 375.025 345.336 375.025 344.231C375.025 343.169 374.807 342.377 374.369 341.856C373.932 341.325 373.411 341.06 372.807 341.06C372.213 341.06 371.682 341.341 371.213 341.903C370.755 342.466 370.525 343.278 370.525 344.341Z" fill="white"/>
<path d="M428.246 348.45V338.341H424.465V336.997H433.543V338.341H429.762V348.45H428.246ZM434.137 348.45V340.153H435.402V341.403C435.725 340.82 436.022 340.435 436.293 340.247C436.564 340.06 436.866 339.966 437.199 339.966C437.668 339.966 438.147 340.117 438.637 340.419L438.152 341.716C437.809 341.518 437.465 341.419 437.121 341.419C436.819 341.419 436.543 341.513 436.293 341.7C436.053 341.877 435.882 342.132 435.777 342.466C435.621 342.966 435.543 343.513 435.543 344.106V348.45H434.137ZM444.559 347.419C444.038 347.867 443.538 348.185 443.059 348.372C442.579 348.549 442.064 348.638 441.512 348.638C440.595 348.638 439.892 348.414 439.402 347.966C438.913 347.518 438.668 346.95 438.668 346.263C438.668 345.856 438.762 345.487 438.949 345.153C439.137 344.81 439.376 344.539 439.668 344.341C439.97 344.132 440.309 343.976 440.684 343.872C440.965 343.799 441.382 343.731 441.934 343.669C443.069 343.534 443.908 343.372 444.449 343.185C444.449 342.987 444.449 342.862 444.449 342.81C444.449 342.237 444.319 341.836 444.059 341.606C443.694 341.284 443.158 341.122 442.449 341.122C441.793 341.122 441.303 341.242 440.98 341.481C440.668 341.711 440.439 342.117 440.293 342.7L438.918 342.513C439.043 341.929 439.246 341.455 439.527 341.091C439.819 340.726 440.236 340.45 440.777 340.263C441.319 340.065 441.944 339.966 442.652 339.966C443.361 339.966 443.934 340.049 444.371 340.216C444.819 340.382 445.147 340.591 445.355 340.841C445.564 341.091 445.71 341.409 445.793 341.794C445.845 342.034 445.871 342.466 445.871 343.091V344.966C445.871 346.278 445.897 347.106 445.949 347.45C446.012 347.794 446.132 348.127 446.309 348.45H444.84C444.694 348.159 444.6 347.815 444.559 347.419ZM444.449 344.278C443.939 344.487 443.173 344.664 442.152 344.81C441.569 344.893 441.158 344.987 440.918 345.091C440.678 345.195 440.491 345.351 440.355 345.56C440.23 345.757 440.168 345.976 440.168 346.216C440.168 346.591 440.309 346.903 440.59 347.153C440.882 347.403 441.298 347.528 441.84 347.528C442.382 347.528 442.861 347.414 443.277 347.185C443.704 346.945 444.017 346.617 444.215 346.2C444.371 345.888 444.449 345.419 444.449 344.794V344.278ZM448.152 351.638V340.153H449.434V341.231C449.736 340.804 450.074 340.487 450.449 340.278C450.835 340.07 451.298 339.966 451.84 339.966C452.548 339.966 453.173 340.148 453.715 340.513C454.257 340.877 454.663 341.393 454.934 342.06C455.215 342.716 455.355 343.44 455.355 344.231C455.355 345.086 455.199 345.851 454.887 346.528C454.585 347.205 454.142 347.726 453.559 348.091C452.986 348.455 452.376 348.638 451.73 348.638C451.262 348.638 450.84 348.539 450.465 348.341C450.1 348.143 449.798 347.893 449.559 347.591V351.638H448.152ZM449.418 344.341C449.418 345.414 449.632 346.205 450.059 346.716C450.496 347.226 451.022 347.481 451.637 347.481C452.262 347.481 452.798 347.216 453.246 346.685C453.694 346.153 453.918 345.336 453.918 344.231C453.918 343.169 453.699 342.377 453.262 341.856C452.824 341.325 452.303 341.06 451.699 341.06C451.105 341.06 450.574 341.341 450.105 341.903C449.647 342.466 449.418 343.278 449.418 344.341Z" fill="white"/>
<path d="M509.25 348.45V336.997H514.328C515.349 336.997 516.125 337.101 516.656 337.31C517.188 337.507 517.609 337.867 517.922 338.388C518.245 338.909 518.406 339.487 518.406 340.122C518.406 340.935 518.141 341.622 517.609 342.185C517.089 342.737 516.276 343.086 515.172 343.231C515.578 343.429 515.885 343.622 516.094 343.81C516.531 344.216 516.948 344.721 517.344 345.325L519.344 348.45H517.438L515.922 346.06C515.474 345.372 515.104 344.846 514.812 344.481C514.531 344.117 514.276 343.862 514.047 343.716C513.828 343.57 513.599 343.471 513.359 343.419C513.193 343.377 512.911 343.356 512.516 343.356H510.766V348.45H509.25ZM510.766 342.044H514.016C514.714 342.044 515.255 341.976 515.641 341.841C516.036 341.695 516.333 341.466 516.531 341.153C516.74 340.83 516.844 340.487 516.844 340.122C516.844 339.58 516.646 339.138 516.25 338.794C515.854 338.44 515.234 338.263 514.391 338.263H510.766V342.044ZM526.594 347.091C526.125 347.612 525.615 348.002 525.062 348.263C524.521 348.523 523.932 348.653 523.297 348.653C522.13 348.653 521.203 348.252 520.516 347.45C519.953 346.804 519.672 346.086 519.672 345.294C519.672 344.586 519.901 343.945 520.359 343.372C520.818 342.799 521.5 342.299 522.406 341.872C521.885 341.278 521.536 340.799 521.359 340.435C521.193 340.06 521.109 339.7 521.109 339.356C521.109 338.669 521.38 338.07 521.922 337.56C522.464 337.049 523.141 336.794 523.953 336.794C524.734 336.794 525.375 337.034 525.875 337.513C526.375 337.992 526.625 338.57 526.625 339.247C526.625 340.33 525.901 341.257 524.453 342.028L526.516 344.653C526.745 344.195 526.927 343.664 527.062 343.06L528.516 343.372C528.266 344.372 527.927 345.195 527.5 345.841C528.031 346.539 528.63 347.122 529.297 347.591L528.344 348.716C527.781 348.351 527.198 347.81 526.594 347.091ZM523.734 341.122C524.339 340.768 524.729 340.455 524.906 340.185C525.094 339.914 525.188 339.612 525.188 339.278C525.188 338.893 525.062 338.575 524.812 338.325C524.562 338.075 524.255 337.95 523.891 337.95C523.505 337.95 523.188 338.075 522.938 338.325C522.688 338.565 522.562 338.862 522.562 339.216C522.562 339.393 522.604 339.58 522.688 339.778C522.781 339.976 522.922 340.185 523.109 340.403L523.734 341.122ZM525.703 345.981L523.125 342.794C522.365 343.242 521.849 343.664 521.578 344.06C521.318 344.445 521.188 344.825 521.188 345.2C521.188 345.669 521.37 346.153 521.734 346.653C522.109 347.153 522.635 347.403 523.312 347.403C523.74 347.403 524.177 347.273 524.625 347.013C525.073 346.742 525.432 346.398 525.703 345.981ZM531.156 348.45V336.997H535.453C536.328 336.997 537.031 337.112 537.562 337.341C538.094 337.57 538.505 337.929 538.797 338.419C539.099 338.898 539.25 339.398 539.25 339.919C539.25 340.409 539.115 340.872 538.844 341.31C538.583 341.737 538.188 342.086 537.656 342.356C538.344 342.554 538.875 342.898 539.25 343.388C539.625 343.877 539.812 344.455 539.812 345.122C539.812 345.664 539.698 346.164 539.469 346.622C539.24 347.08 538.958 347.435 538.625 347.685C538.292 347.935 537.875 348.127 537.375 348.263C536.875 348.388 536.26 348.45 535.531 348.45H531.156ZM532.672 341.81H535.156C535.823 341.81 536.302 341.763 536.594 341.669C536.979 341.554 537.271 341.367 537.469 341.106C537.667 340.836 537.766 340.502 537.766 340.106C537.766 339.721 537.672 339.388 537.484 339.106C537.307 338.815 537.047 338.617 536.703 338.513C536.37 338.398 535.792 338.341 534.969 338.341H532.672V341.81ZM532.672 347.091H535.531C536.021 347.091 536.365 347.075 536.562 347.044C536.906 346.981 537.193 346.877 537.422 346.731C537.661 346.586 537.854 346.372 538 346.091C538.156 345.81 538.234 345.487 538.234 345.122C538.234 344.695 538.125 344.325 537.906 344.013C537.688 343.7 537.385 343.481 537 343.356C536.615 343.221 536.057 343.153 535.328 343.153H532.672V347.091Z" fill="white"/>
<g clip-path="url(#clip1_1751_455)">
<path d="M0 0H600V371H0V0Z" fill="#1A1B1F"/>
<path d="M48.2812 322.585H581.012" stroke="#E7E7E8" stroke-miterlimit="10"/>
<path d="M48.2812 223.579H581.012" stroke="#4D4E51" stroke-miterlimit="10"/>
<path d="M48.2812 125.661H581.012" stroke="#4D4E51" stroke-miterlimit="10"/>
<path d="M48.2812 26.6555H581.012" stroke="#4D4E51" stroke-miterlimit="10"/>
<mask id="mask6_1751_455" style="mask-type:luminance" maskUnits="userSpaceOnUse" x="47" y="26" width="535" height="298">
<path d="M47.793 26.1658H581.5V323.075H47.793V26.1658Z" fill="white"/>
</mask>
<g mask="url(#mask6_1751_455)">
<path d="M131.283 323.129H77.0332V226.299C77.0332 225.097 78.0047 224.123 79.2032 224.123H129.113C130.311 224.123 131.283 225.097 131.283 226.299V323.129Z" fill="#CE5700"/>
</g>
<mask id="mask7_1751_455" style="mask-type:luminance" maskUnits="userSpaceOnUse" x="47" y="26" width="535" height="298">
<path d="M47.793 26.1658H581.5V323.075H47.793V26.1658Z" fill="white"/>
</mask>
<g mask="url(#mask7_1751_455)">
<path d="M215.912 323.129H161.662V28.2873C161.662 27.0855 162.634 26.1113 163.832 26.1113H213.742C214.94 26.1113 215.912 27.0855 215.912 28.2873V323.129Z" fill="#FF7700"/>
</g>
<mask id="mask8_1751_455" style="mask-type:luminance" maskUnits="userSpaceOnUse" x="47" y="26" width="535" height="298">
<path d="M47.793 26.1658H581.5V323.075H47.793V26.1658Z" fill="white"/>
</mask>
<g mask="url(#mask8_1751_455)">
<path d="M299.457 323.129H245.207V127.293C245.207 126.091 246.179 125.117 247.377 125.117H297.287C298.485 125.117 299.457 126.091 299.457 127.293V323.129Z" fill="#F3882B"/>
</g>
<mask id="mask9_1751_455" style="mask-type:luminance" maskUnits="userSpaceOnUse" x="47" y="26" width="535" height="298">
<path d="M47.793 26.1658H581.5V323.075H47.793V26.1658Z" fill="white"/>
</mask>
<g mask="url(#mask9_1751_455)">
<path d="M384.085 323.129H329.836V127.293C329.836 126.091 330.807 125.117 332.006 125.117H381.916C383.114 125.117 384.085 126.091 384.085 127.293V323.129Z" fill="#FFAB62"/>
</g>
<mask id="mask10_1751_455" style="mask-type:luminance" maskUnits="userSpaceOnUse" x="47" y="26" width="535" height="298">
<path d="M47.793 26.1658H581.5V323.075H47.793V26.1658Z" fill="white"/>
</mask>
<g mask="url(#mask10_1751_455)">
<path d="M467.63 323.129H413.381V127.293C413.381 126.091 414.352 125.117 415.551 125.117H465.46C466.659 125.117 467.63 126.091 467.63 127.293V323.129Z" fill="#F0B27D"/>
</g>
<mask id="mask11_1751_455" style="mask-type:luminance" maskUnits="userSpaceOnUse" x="47" y="26" width="535" height="298">
<path d="M47.793 26.1658H581.5V323.075H47.793V26.1658Z" fill="white"/>
</mask>
<g mask="url(#mask11_1751_455)">
<path d="M552.259 323.129H498.01V226.299C498.01 225.097 498.981 224.123 500.18 224.123H550.089C551.288 224.123 552.259 225.097 552.259 226.299V323.129Z" fill="#FFE1B3"/>
</g>
<path d="M34.2324 322.82C34.2324 321.709 34.3454 320.82 34.5715 320.151C34.7975 319.471 35.1309 318.95 35.5717 318.587C36.0238 318.224 36.5889 318.043 37.267 318.043C37.7643 318.043 38.1994 318.145 38.5724 318.349C38.9567 318.553 39.2731 318.848 39.5218 319.233C39.7704 319.607 39.9625 320.066 40.0982 320.61C40.2338 321.154 40.3016 321.891 40.3016 322.82C40.3016 323.919 40.1886 324.803 39.9625 325.472C39.7478 326.14 39.4144 326.662 38.9623 327.036C38.5215 327.398 37.9564 327.58 37.267 327.58C36.3741 327.58 35.6678 327.257 35.1479 326.611C34.5376 325.84 34.2324 324.576 34.2324 322.82ZM35.4022 322.82C35.4022 324.35 35.583 325.37 35.9447 325.88C36.3063 326.39 36.7471 326.645 37.267 326.645C37.7982 326.645 38.239 326.39 38.5893 325.88C38.951 325.37 39.1318 324.35 39.1318 322.82C39.1318 321.279 38.951 320.259 38.5893 319.76C38.239 319.25 37.7925 318.995 37.2501 318.995C36.7302 318.995 36.312 319.216 35.9955 319.658C35.6 320.225 35.4022 321.279 35.4022 322.82Z" fill="white"/>
<path d="M38.5378 228.457H37.4019V221.147C37.1194 221.408 36.7521 221.674 36.3 221.946C35.8592 222.207 35.4636 222.4 35.1133 222.524V221.419C35.7462 221.113 36.3 220.751 36.7747 220.331C37.2607 219.901 37.6054 219.481 37.8088 219.073H38.5378V228.457Z" fill="white"/>
<path d="M40.249 128.382V129.487H34.0781C34.0781 129.215 34.1233 128.949 34.2137 128.688C34.372 128.269 34.6206 127.855 34.9597 127.447C35.31 127.039 35.813 126.569 36.4685 126.036C37.4857 125.198 38.1694 124.535 38.5198 124.047C38.8815 123.56 39.0623 123.101 39.0623 122.67C39.0623 122.217 38.8984 121.837 38.5707 121.531C38.2429 121.214 37.8191 121.055 37.2992 121.055C36.7454 121.055 36.3046 121.22 35.9769 121.548C35.6491 121.877 35.4796 122.336 35.4683 122.925L34.2985 122.806C34.3776 121.922 34.6771 121.254 35.197 120.801C35.7282 120.336 36.4402 120.104 37.3331 120.104C38.226 120.104 38.9323 120.353 39.4522 120.851C39.9721 121.35 40.2321 121.968 40.2321 122.704C40.2321 123.078 40.1529 123.447 39.9947 123.809C39.8478 124.161 39.5935 124.54 39.2318 124.948C38.8815 125.345 38.2994 125.889 37.4857 126.58C36.7963 127.158 36.3498 127.555 36.1464 127.77C35.9543 127.974 35.796 128.178 35.6717 128.382H40.249Z" fill="white"/>
<path d="M34.2324 28.0529L35.3852 27.8999C35.5095 28.5459 35.7299 29.0162 36.0464 29.3109C36.3628 29.5942 36.7471 29.7358 37.1992 29.7358C37.7417 29.7358 38.1994 29.5489 38.5724 29.1749C38.9454 28.8009 39.1318 28.3362 39.1318 27.7809C39.1318 27.2596 38.9567 26.8289 38.6063 26.4889C38.2672 26.1376 37.8321 25.9619 37.3009 25.9619C37.0862 25.9619 36.8149 26.0073 36.4872 26.0979L36.6228 25.0779C36.7019 25.0893 36.7641 25.0949 36.8093 25.0949C37.2953 25.0949 37.7304 24.9703 38.1147 24.721C38.5102 24.4603 38.708 24.0636 38.708 23.531C38.708 23.1117 38.5667 22.766 38.2842 22.494C38.0016 22.2107 37.6343 22.069 37.1822 22.069C36.7415 22.069 36.3685 22.2107 36.0633 22.494C35.7695 22.7773 35.583 23.1967 35.5039 23.752L34.3511 23.548C34.4867 22.7887 34.8032 22.1993 35.3005 21.78C35.7977 21.3494 36.4137 21.134 37.1483 21.134C37.6569 21.134 38.126 21.2474 38.5554 21.474C38.9849 21.6894 39.3127 21.984 39.5387 22.358C39.7647 22.732 39.8778 23.1343 39.8778 23.565C39.8778 23.9616 39.7704 24.33 39.5557 24.67C39.3409 24.9986 39.0245 25.2593 38.6063 25.4519C39.1488 25.5766 39.5726 25.8429 39.8778 26.2509C40.1829 26.6476 40.3355 27.1519 40.3355 27.7639C40.3355 28.5799 40.036 29.2712 39.437 29.8378C38.8493 30.4045 38.1034 30.6878 37.1992 30.6878C36.3855 30.6878 35.7073 30.4442 35.1648 29.9568C34.6223 29.4582 34.3115 28.8235 34.2324 28.0529Z" fill="white"/>
<path d="M74.4512 348.098V335.637H76.0956V340.754H82.5547V335.637H84.1991V348.098H82.5547V342.216H76.0956V348.098H74.4512ZM86.1487 337.388V335.637H87.6745V337.388H86.1487ZM86.1487 348.098V339.071H87.6745V348.098H86.1487ZM90.4887 351.566V339.071H91.8788V340.244C92.2066 339.779 92.5739 339.434 92.9808 339.207C93.399 338.98 93.9019 338.867 94.4896 338.867C95.2581 338.867 95.9363 339.065 96.524 339.462C97.1117 339.859 97.5524 340.42 97.8463 341.145C98.1514 341.859 98.304 342.647 98.304 343.508C98.304 344.437 98.1345 345.27 97.7954 346.007C97.4677 346.744 96.9873 347.31 96.3544 347.707C95.7328 348.104 95.0717 348.302 94.3709 348.302C93.8623 348.302 93.4046 348.194 92.9977 347.979C92.6022 347.764 92.2744 347.492 92.0145 347.163V351.566H90.4887ZM91.8619 343.627C91.8619 344.794 92.0936 345.656 92.557 346.211C93.0316 346.766 93.6024 347.044 94.2692 347.044C94.9473 347.044 95.5294 346.755 96.0154 346.177C96.5014 345.599 96.7443 344.709 96.7443 343.508C96.7443 342.352 96.507 341.491 96.0323 340.924C95.5576 340.346 94.9925 340.057 94.337 340.057C93.6928 340.057 93.1164 340.363 92.6078 340.975C92.1105 341.587 91.8619 342.471 91.8619 343.627ZM99.6603 344.358V342.811H104.339V344.358H99.6603ZM105.916 348.098V335.637H107.56V340.754H114.019V335.637H115.664V348.098H114.019V342.216H107.56V348.098H105.916ZM117.037 343.576C117.037 341.91 117.5 340.675 118.427 339.87C119.207 339.201 120.151 338.867 121.258 338.867C122.502 338.867 123.513 339.275 124.293 340.091C125.084 340.896 125.48 342.018 125.48 343.457C125.48 344.613 125.304 345.525 124.954 346.194C124.604 346.863 124.095 347.384 123.428 347.758C122.773 348.121 122.049 348.302 121.258 348.302C120.004 348.302 118.987 347.9 118.207 347.095C117.427 346.279 117.037 345.106 117.037 343.576ZM118.614 343.576C118.614 344.732 118.862 345.599 119.36 346.177C119.868 346.755 120.501 347.044 121.258 347.044C122.016 347.044 122.643 346.755 123.14 346.177C123.649 345.599 123.903 344.715 123.903 343.525C123.903 342.414 123.649 341.57 123.14 340.992C122.643 340.414 122.016 340.125 121.258 340.125C120.501 340.125 119.868 340.414 119.36 340.992C118.862 341.559 118.614 342.42 118.614 343.576ZM127.378 351.566V339.071H128.769V340.244C129.096 339.779 129.464 339.434 129.87 339.207C130.289 338.98 130.792 338.867 131.379 338.867C132.148 338.867 132.826 339.065 133.414 339.462C134.001 339.859 134.442 340.42 134.736 341.145C135.041 341.859 135.194 342.647 135.194 343.508C135.194 344.437 135.024 345.27 134.685 346.007C134.357 346.744 133.877 347.31 133.244 347.707C132.623 348.104 131.961 348.302 131.261 348.302C130.752 348.302 130.294 348.194 129.887 347.979C129.492 347.764 129.164 347.492 128.904 347.163V351.566H127.378ZM128.752 343.627C128.752 344.794 128.983 345.656 129.447 346.211C129.921 346.766 130.492 347.044 131.159 347.044C131.837 347.044 132.419 346.755 132.905 346.177C133.391 345.599 133.634 344.709 133.634 343.508C133.634 342.352 133.397 341.491 132.922 340.924C132.447 340.346 131.882 340.057 131.227 340.057C130.583 340.057 130.006 340.363 129.498 340.975C129 341.587 128.752 342.471 128.752 343.627Z" fill="white"/>
<path d="M174.182 348.098V335.637H178.878C179.703 335.637 180.33 335.677 180.759 335.756C181.37 335.858 181.878 336.051 182.285 336.334C182.703 336.618 183.037 337.02 183.285 337.541C183.545 338.051 183.675 338.618 183.675 339.241C183.675 340.295 183.336 341.19 182.658 341.927C181.991 342.664 180.776 343.032 179.013 343.032H175.826V348.098H174.182ZM175.826 341.553H179.047C180.11 341.553 180.861 341.355 181.302 340.958C181.754 340.561 181.98 340.006 181.98 339.292C181.98 338.771 181.844 338.323 181.573 337.949C181.313 337.575 180.968 337.332 180.539 337.218C180.268 337.139 179.759 337.099 179.013 337.099H175.826V341.553ZM185.354 343.576C185.354 341.91 185.817 340.675 186.744 339.87C187.524 339.201 188.467 338.867 189.575 338.867C190.818 338.867 191.83 339.275 192.61 340.091C193.401 340.896 193.796 342.018 193.796 343.457C193.796 344.613 193.621 345.525 193.271 346.194C192.92 346.863 192.412 347.384 191.745 347.758C191.089 348.121 190.366 348.302 189.575 348.302C188.32 348.302 187.303 347.9 186.523 347.095C185.744 346.279 185.354 345.106 185.354 343.576ZM186.93 343.576C186.93 344.732 187.179 345.599 187.676 346.177C188.185 346.755 188.818 347.044 189.575 347.044C190.332 347.044 190.959 346.755 191.457 346.177C191.965 345.599 192.22 344.715 192.22 343.525C192.22 342.414 191.965 341.57 191.457 340.992C190.959 340.414 190.332 340.125 189.575 340.125C188.818 340.125 188.185 340.414 187.676 340.992C187.179 341.559 186.93 342.42 186.93 343.576ZM195.695 351.566V339.071H197.085V340.244C197.413 339.779 197.78 339.434 198.187 339.207C198.605 338.98 199.108 338.867 199.696 338.867C200.464 338.867 201.143 339.065 201.73 339.462C202.318 339.859 202.759 340.42 203.053 341.145C203.358 341.859 203.51 342.647 203.51 343.508C203.51 344.437 203.341 345.27 203.002 346.007C202.674 346.744 202.194 347.31 201.561 347.707C200.939 348.104 200.278 348.302 199.577 348.302C199.069 348.302 198.611 348.194 198.204 347.979C197.808 347.764 197.481 347.492 197.221 347.163V351.566H195.695ZM197.068 343.627C197.068 344.794 197.3 345.656 197.763 346.211C198.238 346.766 198.809 347.044 199.475 347.044C200.154 347.044 200.736 346.755 201.222 346.177C201.708 345.599 201.951 344.709 201.951 343.508C201.951 342.352 201.713 341.491 201.239 340.924C200.764 340.346 200.199 340.057 199.543 340.057C198.899 340.057 198.323 340.363 197.814 340.975C197.317 341.587 197.068 342.471 197.068 343.627Z" fill="white"/>
<path d="M231.682 348.098V335.637H240.667V337.099H233.326V340.924H240.209V342.386H233.326V346.619H240.955V348.098H231.682ZM243.362 348.098V335.637H244.888V348.098H243.362ZM252.805 345.191L254.382 345.378C254.133 346.307 253.67 347.027 252.992 347.537C252.325 348.047 251.471 348.302 250.432 348.302C249.109 348.302 248.064 347.894 247.295 347.078C246.527 346.262 246.143 345.123 246.143 343.661C246.143 342.142 246.532 340.964 247.312 340.125C248.092 339.286 249.104 338.867 250.347 338.867C251.545 338.867 252.523 339.281 253.28 340.108C254.048 340.924 254.433 342.074 254.433 343.559C254.433 343.65 254.433 343.786 254.433 343.967H247.719C247.776 344.964 248.053 345.729 248.55 346.262C249.058 346.783 249.686 347.044 250.432 347.044C250.997 347.044 251.477 346.897 251.873 346.602C252.268 346.307 252.579 345.837 252.805 345.191ZM247.804 342.709H252.822C252.754 341.95 252.562 341.383 252.246 341.009C251.76 340.42 251.132 340.125 250.364 340.125C249.663 340.125 249.07 340.363 248.584 340.839C248.109 341.304 247.849 341.927 247.804 342.709ZM262.282 344.783L263.791 344.987C263.621 346.018 263.197 346.829 262.519 347.418C261.852 348.007 261.027 348.302 260.044 348.302C258.812 348.302 257.817 347.9 257.06 347.095C256.314 346.279 255.941 345.117 255.941 343.61C255.941 342.635 256.1 341.785 256.416 341.06C256.744 340.323 257.235 339.774 257.891 339.411C258.558 339.048 259.275 338.867 260.044 338.867C261.027 338.867 261.83 339.116 262.451 339.615C263.073 340.102 263.468 340.805 263.638 341.723L262.163 341.944C262.016 341.343 261.762 340.89 261.4 340.584C261.05 340.278 260.62 340.125 260.112 340.125C259.343 340.125 258.716 340.403 258.23 340.958C257.755 341.502 257.518 342.375 257.518 343.576C257.518 344.789 257.75 345.673 258.213 346.228C258.676 346.772 259.281 347.044 260.027 347.044C260.626 347.044 261.123 346.863 261.519 346.5C261.926 346.126 262.18 345.554 262.282 344.783ZM268.419 346.721L268.639 348.081C268.21 348.172 267.825 348.217 267.486 348.217C266.933 348.217 266.503 348.132 266.198 347.962C265.893 347.781 265.678 347.548 265.554 347.265C265.429 346.97 265.367 346.364 265.367 345.446V340.261H264.248V339.071H265.367V336.827L266.893 335.909V339.071H268.419V340.261H266.893V345.531C266.893 345.973 266.916 346.256 266.961 346.381C267.017 346.506 267.108 346.608 267.232 346.687C267.356 346.755 267.532 346.789 267.758 346.789C267.927 346.789 268.148 346.766 268.419 346.721ZM269.419 348.098V339.071H270.792V340.431C271.143 339.796 271.465 339.377 271.758 339.173C272.052 338.969 272.38 338.867 272.742 338.867C273.25 338.867 273.77 339.031 274.301 339.36L273.776 340.771C273.403 340.556 273.03 340.448 272.657 340.448C272.329 340.448 272.03 340.55 271.758 340.754C271.499 340.947 271.312 341.224 271.199 341.587C271.03 342.131 270.945 342.726 270.945 343.372V348.098H269.419ZM274.284 343.576C274.284 341.91 274.748 340.675 275.675 339.87C276.454 339.201 277.398 338.867 278.506 338.867C279.749 338.867 280.761 339.275 281.54 340.091C282.331 340.896 282.727 342.018 282.727 343.457C282.727 344.613 282.552 345.525 282.202 346.194C281.851 346.863 281.343 347.384 280.676 347.758C280.02 348.121 279.297 348.302 278.506 348.302C277.251 348.302 276.234 347.9 275.454 347.095C274.674 346.279 274.284 345.106 274.284 343.576ZM275.861 343.576C275.861 344.732 276.11 345.599 276.607 346.177C277.116 346.755 277.749 347.044 278.506 347.044C279.263 347.044 279.89 346.755 280.388 346.177C280.896 345.599 281.15 344.715 281.15 343.525C281.15 342.414 280.896 341.57 280.388 340.992C279.89 340.414 279.263 340.125 278.506 340.125C277.749 340.125 277.116 340.414 276.607 340.992C276.11 341.559 275.861 342.42 275.861 343.576ZM284.626 348.098V339.071H285.999V340.346C286.654 339.36 287.61 338.867 288.864 338.867C289.407 338.867 289.904 338.963 290.356 339.156C290.808 339.349 291.147 339.604 291.373 339.921C291.599 340.238 291.757 340.618 291.848 341.06C291.904 341.343 291.933 341.836 291.933 342.539V348.098H290.407V342.607C290.407 341.984 290.345 341.519 290.22 341.213C290.107 340.896 289.898 340.646 289.593 340.465C289.299 340.284 288.949 340.193 288.542 340.193C287.886 340.193 287.321 340.403 286.847 340.822C286.383 341.23 286.152 342.012 286.152 343.168V348.098H284.626ZM293.306 337.388V335.637H294.831V337.388H293.306ZM293.306 348.098V339.071H294.831V348.098H293.306ZM303.511 344.783L305.02 344.987C304.851 346.018 304.427 346.829 303.749 347.418C303.082 348.007 302.257 348.302 301.274 348.302C300.042 348.302 299.047 347.9 298.29 347.095C297.544 346.279 297.171 345.117 297.171 343.61C297.171 342.635 297.329 341.785 297.646 341.06C297.973 340.323 298.465 339.774 299.121 339.411C299.787 339.048 300.505 338.867 301.274 338.867C302.257 338.867 303.059 339.116 303.681 339.615C304.303 340.102 304.698 340.805 304.868 341.723L303.393 341.944C303.246 341.343 302.992 340.89 302.63 340.584C302.28 340.278 301.85 340.125 301.341 340.125C300.573 340.125 299.946 340.403 299.46 340.958C298.985 341.502 298.748 342.375 298.748 343.576C298.748 344.789 298.979 345.673 299.443 346.228C299.906 346.772 300.511 347.044 301.257 347.044C301.856 347.044 302.353 346.863 302.749 346.5C303.155 346.126 303.41 345.554 303.511 344.783ZM312.191 346.976C311.626 347.463 311.084 347.809 310.564 348.013C310.044 348.206 309.485 348.302 308.886 348.302C307.891 348.302 307.128 348.058 306.597 347.571C306.066 347.084 305.8 346.466 305.8 345.718C305.8 345.276 305.902 344.874 306.105 344.511C306.309 344.137 306.569 343.842 306.885 343.627C307.213 343.4 307.58 343.23 307.987 343.117C308.292 343.038 308.744 342.964 309.343 342.896C310.575 342.749 311.485 342.573 312.073 342.369C312.073 342.154 312.073 342.018 312.073 341.961C312.073 341.338 311.931 340.901 311.649 340.652C311.253 340.301 310.671 340.125 309.903 340.125C309.191 340.125 308.659 340.255 308.309 340.516C307.97 340.765 307.721 341.207 307.563 341.842L306.071 341.638C306.207 341.003 306.427 340.488 306.732 340.091C307.049 339.694 307.501 339.394 308.089 339.19C308.676 338.975 309.355 338.867 310.123 338.867C310.892 338.867 311.513 338.958 311.988 339.139C312.474 339.32 312.83 339.547 313.056 339.819C313.282 340.091 313.44 340.437 313.531 340.856C313.587 341.117 313.615 341.587 313.615 342.267V344.307C313.615 345.735 313.644 346.636 313.7 347.01C313.768 347.384 313.898 347.747 314.09 348.098H312.496C312.338 347.781 312.237 347.407 312.191 346.976ZM312.073 343.559C311.519 343.786 310.688 343.978 309.581 344.137C308.948 344.228 308.501 344.33 308.241 344.443C307.981 344.556 307.778 344.726 307.631 344.953C307.495 345.168 307.428 345.406 307.428 345.667C307.428 346.075 307.58 346.415 307.885 346.687C308.202 346.959 308.654 347.095 309.242 347.095C309.829 347.095 310.349 346.97 310.801 346.721C311.265 346.46 311.604 346.103 311.818 345.65C311.988 345.31 312.073 344.8 312.073 344.12V343.559Z" fill="white"/>
<path d="M334.615 348.098V335.637H336.26V341.808L342.431 335.637H344.668L339.447 340.686L344.889 348.098H342.719L338.294 341.791L336.26 343.78V348.098H334.615ZM345.838 344.358V342.811H350.517V344.358H345.838ZM351.856 351.566V339.071H353.247V340.244C353.574 339.779 353.942 339.434 354.349 339.207C354.767 338.98 355.27 338.867 355.857 338.867C356.626 338.867 357.304 339.065 357.892 339.462C358.479 339.859 358.92 340.42 359.214 341.145C359.519 341.859 359.672 342.647 359.672 343.508C359.672 344.437 359.502 345.27 359.163 346.007C358.835 346.744 358.355 347.31 357.722 347.707C357.101 348.104 356.439 348.302 355.739 348.302C355.23 348.302 354.772 348.194 354.365 347.979C353.97 347.764 353.642 347.492 353.382 347.163V351.566H351.856ZM353.23 343.627C353.23 344.794 353.461 345.656 353.925 346.211C354.399 346.766 354.97 347.044 355.637 347.044C356.315 347.044 356.897 346.755 357.383 346.177C357.869 345.599 358.112 344.709 358.112 343.508C358.112 342.352 357.875 341.491 357.4 340.924C356.925 340.346 356.36 340.057 355.705 340.057C355.061 340.057 354.484 340.363 353.976 340.975C353.478 341.587 353.23 342.471 353.23 343.627ZM361.045 343.576C361.045 341.91 361.508 340.675 362.435 339.87C363.215 339.201 364.159 338.867 365.266 338.867C366.509 338.867 367.521 339.275 368.301 340.091C369.092 340.896 369.488 342.018 369.488 343.457C369.488 344.613 369.312 345.525 368.962 346.194C368.612 346.863 368.103 347.384 367.436 347.758C366.781 348.121 366.057 348.302 365.266 348.302C364.012 348.302 362.995 347.9 362.215 347.095C361.435 346.279 361.045 345.106 361.045 343.576ZM362.622 343.576C362.622 344.732 362.87 345.599 363.367 346.177C363.876 346.755 364.509 347.044 365.266 347.044C366.023 347.044 366.651 346.755 367.148 346.177C367.657 345.599 367.911 344.715 367.911 343.525C367.911 342.414 367.657 341.57 367.148 340.992C366.651 340.414 366.023 340.125 365.266 340.125C364.509 340.125 363.876 340.414 363.367 340.992C362.87 341.559 362.622 342.42 362.622 343.576ZM371.386 351.566V339.071H372.776V340.244C373.104 339.779 373.471 339.434 373.878 339.207C374.297 338.98 374.799 338.867 375.387 338.867C376.156 338.867 376.834 339.065 377.422 339.462C378.009 339.859 378.45 340.42 378.744 341.145C379.049 341.859 379.202 342.647 379.202 343.508C379.202 344.437 379.032 345.27 378.693 346.007C378.365 346.744 377.885 347.31 377.252 347.707C376.63 348.104 375.969 348.302 375.268 348.302C374.76 348.302 374.302 348.194 373.895 347.979C373.5 347.764 373.172 347.492 372.912 347.163V351.566H371.386ZM372.759 343.627C372.759 344.794 372.991 345.656 373.455 346.211C373.929 346.766 374.5 347.044 375.167 347.044C375.845 347.044 376.427 346.755 376.913 346.177C377.399 345.599 377.642 344.709 377.642 343.508C377.642 342.352 377.405 341.491 376.93 340.924C376.455 340.346 375.89 340.057 375.235 340.057C374.59 340.057 374.014 340.363 373.505 340.975C373.008 341.587 372.759 342.471 372.759 343.627Z" fill="white"/>
<path d="M427.87 348.098V337.099H423.768V335.637H433.617V337.099H429.515V348.098H427.87ZM434.261 348.098V339.071H435.635V340.431C435.985 339.796 436.307 339.377 436.601 339.173C436.895 338.969 437.223 338.867 437.584 338.867C438.093 338.867 438.613 339.031 439.144 339.36L438.618 340.771C438.245 340.556 437.872 340.448 437.499 340.448C437.172 340.448 436.872 340.55 436.601 340.754C436.341 340.947 436.155 341.224 436.042 341.587C435.872 342.131 435.787 342.726 435.787 343.372V348.098H434.261ZM445.569 346.976C445.004 347.463 444.462 347.809 443.942 348.013C443.422 348.206 442.862 348.302 442.263 348.302C441.269 348.302 440.506 348.058 439.975 347.571C439.443 347.084 439.178 346.466 439.178 345.718C439.178 345.276 439.28 344.874 439.483 344.511C439.686 344.137 439.946 343.842 440.263 343.627C440.591 343.4 440.958 343.23 441.365 343.117C441.67 343.038 442.122 342.964 442.721 342.896C443.953 342.749 444.863 342.573 445.45 342.369C445.45 342.154 445.45 342.018 445.45 341.961C445.45 341.338 445.309 340.901 445.027 340.652C444.631 340.301 444.049 340.125 443.28 340.125C442.568 340.125 442.037 340.255 441.687 340.516C441.348 340.765 441.099 341.207 440.941 341.842L439.449 341.638C439.585 341.003 439.805 340.488 440.11 340.091C440.427 339.694 440.879 339.394 441.466 339.19C442.054 338.975 442.732 338.867 443.501 338.867C444.269 338.867 444.891 338.958 445.366 339.139C445.852 339.32 446.208 339.547 446.434 339.819C446.66 340.091 446.818 340.437 446.908 340.856C446.965 341.117 446.993 341.587 446.993 342.267V344.307C446.993 345.735 447.021 346.636 447.078 347.01C447.146 347.384 447.276 347.747 447.468 348.098H445.874C445.716 347.781 445.614 347.407 445.569 346.976ZM445.45 343.559C444.897 343.786 444.066 343.978 442.958 344.137C442.325 344.228 441.879 344.33 441.619 344.443C441.359 344.556 441.156 344.726 441.009 344.953C440.873 345.168 440.805 345.406 440.805 345.667C440.805 346.075 440.958 346.415 441.263 346.687C441.58 346.959 442.032 347.095 442.619 347.095C443.207 347.095 443.727 346.97 444.179 346.721C444.642 346.46 444.981 346.103 445.196 345.65C445.366 345.31 445.45 344.8 445.45 344.12V343.559ZM449.468 351.566V339.071H450.858V340.244C451.186 339.779 451.554 339.434 451.96 339.207C452.379 338.98 452.882 338.867 453.469 338.867C454.238 338.867 454.916 339.065 455.504 339.462C456.091 339.859 456.532 340.42 456.826 341.145C457.131 341.859 457.284 342.647 457.284 343.508C457.284 344.437 457.114 345.27 456.775 346.007C456.447 346.744 455.967 347.31 455.334 347.707C454.712 348.104 454.051 348.302 453.351 348.302C452.842 348.302 452.384 348.194 451.977 347.979C451.582 347.764 451.254 347.492 450.994 347.163V351.566H449.468ZM450.841 343.627C450.841 344.794 451.073 345.656 451.537 346.211C452.011 346.766 452.582 347.044 453.249 347.044C453.927 347.044 454.509 346.755 454.995 346.177C455.481 345.599 455.724 344.709 455.724 343.508C455.724 342.352 455.487 341.491 455.012 340.924C454.537 340.346 453.972 340.057 453.317 340.057C452.672 340.057 452.096 340.363 451.587 340.975C451.09 341.587 450.841 342.471 450.841 343.627Z" fill="white"/>
<path d="M508.238 348.098V335.637H513.748C514.856 335.637 515.698 335.751 516.274 335.977C516.85 336.193 517.308 336.584 517.647 337.15C517.998 337.717 518.173 338.346 518.173 339.037C518.173 339.921 517.885 340.669 517.308 341.281C516.743 341.882 515.861 342.262 514.663 342.42C515.104 342.636 515.438 342.845 515.664 343.049C516.138 343.491 516.59 344.041 517.02 344.698L519.19 348.098H517.122L515.477 345.497C514.991 344.749 514.59 344.177 514.274 343.78C513.968 343.384 513.691 343.106 513.443 342.947C513.206 342.789 512.957 342.681 512.697 342.624C512.516 342.579 512.211 342.556 511.781 342.556H509.883V348.098H508.238ZM509.883 341.128H513.409C514.166 341.128 514.754 341.055 515.172 340.907C515.602 340.749 515.924 340.499 516.138 340.159C516.364 339.808 516.477 339.434 516.477 339.037C516.477 338.448 516.263 337.966 515.833 337.592C515.404 337.207 514.731 337.014 513.816 337.014H509.883V341.128ZM527.056 346.619C526.548 347.186 525.994 347.611 525.395 347.894C524.807 348.178 524.168 348.319 523.479 348.319C522.213 348.319 521.207 347.883 520.461 347.01C519.851 346.308 519.546 345.526 519.546 344.664C519.546 343.894 519.795 343.197 520.292 342.573C520.789 341.95 521.529 341.406 522.513 340.941C521.948 340.295 521.569 339.774 521.377 339.377C521.196 338.969 521.106 338.578 521.106 338.204C521.106 337.456 521.399 336.805 521.987 336.249C522.575 335.694 523.309 335.417 524.191 335.417C525.039 335.417 525.734 335.677 526.276 336.198C526.819 336.72 527.09 337.349 527.09 338.085C527.09 339.264 526.305 340.273 524.734 341.111L526.971 343.967C527.22 343.469 527.418 342.891 527.565 342.233L529.141 342.573C528.87 343.661 528.503 344.557 528.039 345.259C528.616 346.019 529.266 346.653 529.989 347.163L528.955 348.387C528.345 347.991 527.712 347.401 527.056 346.619ZM523.954 340.125C524.609 339.74 525.033 339.4 525.225 339.105C525.429 338.811 525.53 338.482 525.53 338.119C525.53 337.7 525.395 337.354 525.123 337.082C524.852 336.81 524.519 336.674 524.123 336.674C523.705 336.674 523.36 336.81 523.089 337.082C522.818 337.343 522.682 337.666 522.682 338.051C522.682 338.244 522.727 338.448 522.818 338.663C522.92 338.879 523.072 339.105 523.276 339.343L523.954 340.125ZM526.09 345.412L523.293 341.944C522.467 342.432 521.908 342.891 521.614 343.321C521.332 343.741 521.19 344.154 521.19 344.562C521.19 345.072 521.388 345.599 521.784 346.143C522.191 346.687 522.761 346.959 523.496 346.959C523.959 346.959 524.434 346.818 524.92 346.534C525.406 346.24 525.796 345.866 526.09 345.412ZM532.006 348.098V335.637H536.668C537.618 335.637 538.381 335.762 538.957 336.011C539.533 336.261 539.98 336.652 540.296 337.184C540.624 337.706 540.788 338.25 540.788 338.816C540.788 339.349 540.641 339.853 540.347 340.329C540.065 340.794 539.635 341.174 539.059 341.468C539.805 341.684 540.381 342.058 540.788 342.59C541.195 343.123 541.398 343.752 541.398 344.477C541.398 345.067 541.274 345.611 541.025 346.109C540.777 346.608 540.472 346.993 540.11 347.265C539.748 347.537 539.296 347.747 538.754 347.894C538.211 348.03 537.544 348.098 536.753 348.098H532.006ZM533.651 340.873H536.346C537.07 340.873 537.59 340.822 537.906 340.72C538.324 340.596 538.641 340.392 538.855 340.108C539.07 339.814 539.177 339.451 539.177 339.02C539.177 338.601 539.076 338.238 538.872 337.932C538.68 337.615 538.398 337.4 538.025 337.286C537.663 337.162 537.036 337.099 536.143 337.099H533.651V340.873ZM533.651 346.619H536.753C537.284 346.619 537.657 346.602 537.872 346.568C538.245 346.5 538.556 346.387 538.805 346.228C539.064 346.07 539.274 345.837 539.432 345.531C539.601 345.225 539.686 344.874 539.686 344.477C539.686 344.013 539.567 343.61 539.33 343.27C539.093 342.93 538.765 342.692 538.347 342.556C537.929 342.409 537.324 342.335 536.533 342.335H533.651V346.619Z" fill="white"/>
</g>
</g>
<defs>
<clipPath id="clip0_1751_455">
<rect width="600" height="371" fill="white"/>
</clipPath>
<clipPath id="clip1_1751_455">
<rect width="600" height="371" fill="white"/>
</clipPath>
</defs>
</svg>
