<svg width="41" height="59" viewBox="0 0 41 59" fill="none" xmlns="http://www.w3.org/2000/svg">
<path d="M20.4167 27.7083C18.4828 27.7083 16.6281 26.9401 15.2607 25.5727C13.8932 24.2052 13.125 22.3505 13.125 20.4167C13.125 18.4828 13.8932 16.6281 15.2607 15.2607C16.6281 13.8932 18.4828 13.125 20.4167 13.125C22.3505 13.125 24.2052 13.8932 25.5727 15.2607C26.9401 16.6281 27.7083 18.4828 27.7083 20.4167C27.7083 21.3742 27.5197 22.3224 27.1533 23.2071C26.7868 24.0917 26.2497 24.8956 25.5727 25.5727C24.8956 26.2497 24.0917 26.7869 23.2071 27.1533C22.3224 27.5197 21.3742 27.7083 20.4167 27.7083ZM20.4167 0C15.0018 0 9.80877 2.15104 5.9799 5.9799C2.15104 9.80877 0 15.0018 0 20.4167C0 35.7292 20.4167 58.3333 20.4167 58.3333C20.4167 58.3333 40.8333 35.7292 40.8333 20.4167C40.8333 15.0018 38.6823 9.80877 34.8534 5.9799C31.0246 2.15104 25.8315 0 20.4167 0Z" fill="white"/>
</svg>
