<svg width="60" height="60" viewBox="0 0 80 80" fill="none" xmlns="http://www.w3.org/2000/svg">
  <path d="M0 16C0 8.456 -2.38419e-07 4.688 2.344 2.344C4.688 -2.38419e-07 8.456 0 16 0C23.544 0 27.312 -2.38419e-07 29.656 2.344C32 4.688 32 8.456 32 16V64C32 71.544 32 75.312 29.656 77.656C27.312 80 23.544 80 16 80C8.456 80 4.688 80 2.344 77.656C-2.38419e-07 75.312 0 71.544 0 64V16ZM48 16C48 8.456 48 4.688 50.344 2.344C52.688 -2.38419e-07 56.456 0 64 0C71.544 0 75.312 -2.38419e-07 77.656 2.344C80 4.688 80 8.456 80 16V64C80 71.544 80 75.312 77.656 77.656C75.312 80 71.544 80 64 80C56.456 80 52.688 80 50.344 77.656C48 75.312 48 71.544 48 64V16Z" fill="#00FFFF"/>
</svg>

