<svg width="15" height="16" viewBox="0 0 15 16" fill="none" xmlns="http://www.w3.org/2000/svg">
<path d="M7.5 15.075C5.65296 15.075 3.88156 14.3243 2.57551 12.9881C1.26945 11.6519 0.535715 9.83967 0.535715 7.95C0.535715 6.06033 1.26945 4.24806 2.57551 2.91186C3.88156 1.57567 5.65296 0.825 7.5 0.825C9.34704 0.825 11.1184 1.57567 12.4245 2.91186C13.7306 4.24806 14.4643 6.06033 14.4643 7.95C14.4643 8.88567 14.2842 9.81218 13.9342 10.6766C13.5842 11.5411 13.0712 12.3265 12.4245 12.9881C11.7778 13.6498 11.0101 14.1746 10.1651 14.5326C9.32017 14.8907 8.41456 15.075 7.5 15.075Z" fill="white"/>
</svg>
