<svg width="75" height="75" viewBox="0 0 98 88" fill="none" xmlns="http://www.w3.org/2000/svg">
<path d="M87.667 0.5H10.3337C5.00249 0.5 0.666992 4.8355 0.666992 10.1667V77.8333C0.666992 83.1645 5.00249 87.5 10.3337 87.5H87.667C92.9982 87.5 97.3337 83.1645 97.3337 77.8333V10.1667C97.3337 4.8355 92.9982 0.5 87.667 0.5ZM87.6718 29.5C87.6654 29.5 87.6654 29.5 87.6718 29.5H86.4946C85.826 29.5 85.2015 29.1658 84.8306 28.6095L74.6071 13.2762C73.7209 11.9471 74.6737 10.1667 76.2711 10.1667H85.6675C86.7719 10.1667 87.6672 11.0618 87.6675 12.1662L87.6718 29.5ZM62.698 56.7442C64.0878 57.5022 64.0878 59.4978 62.698 60.2558L42.2914 71.3867C40.9586 72.1137 39.3337 71.149 39.3337 69.6309V47.3691C39.3337 45.851 40.9586 44.8863 42.2914 45.6133L62.698 56.7442ZM62.328 29.5C61.6593 29.5 61.0349 29.1658 60.6639 28.6095L50.4404 13.2762C49.5542 11.9471 50.507 10.1667 52.1045 10.1667H59.8442C60.5129 10.1667 61.1373 10.5008 61.5082 11.0572L71.7317 26.3905C72.6179 27.7196 71.6651 29.5 70.0677 29.5H62.328ZM47.5651 26.3905C48.4513 27.7196 47.4985 29.5 45.901 29.5H38.1613C37.4926 29.5 36.8682 29.1658 36.4973 28.6095L26.2737 13.2762C25.3876 11.9471 26.3403 10.1667 27.9378 10.1667H35.6775C36.3462 10.1667 36.9706 10.5008 37.3416 11.0572L47.5651 26.3905ZM10.3337 11.6307C10.3337 10.8221 10.9891 10.1667 11.7977 10.1667C12.2872 10.1667 12.7443 10.4113 13.0158 10.8185L23.3984 26.3905C24.2846 27.7196 23.3318 29.5 21.7344 29.5H12.3337C11.2291 29.5 10.3337 28.6046 10.3337 27.5V11.6307Z" fill="#00FFFF"/>
</svg>
