<svg width="226" height="84" viewBox="0 0 226 84" fill="none" xmlns="http://www.w3.org/2000/svg">
<line x1="51" y1="67" x2="51" y2="17" stroke="white" stroke-width="2" stroke-linecap="round"/>
<line x1="1" y1="83" x2="1" y2="1" stroke="white" stroke-width="2" stroke-linecap="round"/>
<line x1="9" y1="66" x2="9" y2="18" stroke="white" stroke-width="2" stroke-linecap="round"/>
<line x1="18" y1="53" x2="18" y2="31" stroke="white" stroke-width="2" stroke-linecap="round"/>
<line x1="26" y1="69" x2="26" y2="15" stroke="white" stroke-width="2" stroke-linecap="round"/>
<line x1="34" y1="55" x2="34" y2="29" stroke="white" stroke-width="2" stroke-linecap="round"/>
<line x1="42" y1="79" x2="42" y2="5" stroke="white" stroke-width="2" stroke-linecap="round"/>
<line x1="59" y1="71" x2="59" y2="13" stroke="white" stroke-width="2" stroke-linecap="round"/>
<line x1="67" y1="71" x2="67" y2="13" stroke="white" stroke-width="2" stroke-linecap="round"/>
<line x1="76" y1="76" x2="76" y2="8" stroke="white" stroke-width="2" stroke-linecap="round"/>
<line x1="84" y1="75" x2="84" y2="9" stroke="white" stroke-width="2" stroke-linecap="round"/>
<line x1="92" y1="71" x2="92" y2="13" stroke="white" stroke-width="2" stroke-linecap="round"/>
<line x1="101" y1="69" x2="101" y2="16" stroke="white" stroke-width="2" stroke-linecap="round"/>
<line x1="109" y1="73" x2="109" y2="11" stroke="white" stroke-width="2" stroke-linecap="round"/>
<line x1="117" y1="63" x2="117" y2="21" stroke="white" stroke-width="2" stroke-linecap="round"/>
<line x1="125" y1="79" x2="125" y2="5" stroke="white" stroke-width="2" stroke-linecap="round"/>
<line x1="134" y1="81" x2="134" y2="3" stroke="white" stroke-width="2" stroke-linecap="round"/>
<line x1="142" y1="57" x2="142" y2="27" stroke="white" stroke-width="2" stroke-linecap="round"/>
<line x1="150" y1="59" x2="150" y2="25" stroke="white" stroke-width="2" stroke-linecap="round"/>
<line x1="159" y1="69" x2="159" y2="15" stroke="white" stroke-width="2" stroke-linecap="round"/>
<line x1="167" y1="52" x2="167" y2="33" stroke="white" stroke-width="2" stroke-linecap="round"/>
<line x1="175" y1="80" x2="175" y2="4" stroke="white" stroke-width="2" stroke-linecap="round"/>
<line x1="184" y1="83" x2="184" y2="1" stroke="white" stroke-width="2" stroke-linecap="round"/>
<line x1="192" y1="56" x2="192" y2="28" stroke="white" stroke-width="2" stroke-linecap="round"/>
<line x1="200" y1="83" x2="200" y2="2" stroke="white" stroke-width="2" stroke-linecap="round"/>
<line x1="208" y1="70" x2="208" y2="14" stroke="white" stroke-width="2" stroke-linecap="round"/>
<line x1="217" y1="74" x2="217" y2="10" stroke="white" stroke-width="2" stroke-linecap="round"/>
<line x1="225" y1="79" x2="225" y2="6" stroke="white" stroke-width="2" stroke-linecap="round"/>
</svg>
