<svg width="1440" height="35" viewBox="0 0 1440 35" fill="none" xmlns="http://www.w3.org/2000/svg">
<rect width="1440" height="35" fill="#23272A"/>
<rect width="1440" height="35" fill="#2A2D32"/>
<rect x="267" y="20.3794" width="6.25044" height="14.6207" fill="#3294FF"/>
<rect x="307.628" y="26.4712" width="4.16696" height="8.52874" fill="#3294FF"/>
<rect x="346.172" y="26.4712" width="4.16696" height="8.52874" fill="#3294FF"/>
<rect x="384.717" y="26.4712" width="4.16696" height="8.52874" fill="#3294FF"/>
<rect x="423.261" y="26.4712" width="4.16696" height="8.52874" fill="#3294FF"/>
<rect x="461.806" y="26.4712" width="4.16696" height="8.52874" fill="#3294FF"/>
<rect x="500.35" y="20.3794" width="6.25044" height="14.6207" fill="#3294FF"/>
<rect x="540.978" y="26.4712" width="4.16696" height="8.52874" fill="#3294FF"/>
<rect x="579.522" y="26.4712" width="4.16696" height="8.52874" fill="#3294FF"/>
<rect x="618.067" y="26.4712" width="4.16696" height="8.52874" fill="#3294FF"/>
<rect x="656.611" y="26.4712" width="4.16696" height="8.52874" fill="#3294FF"/>
<rect x="695.155" y="26.4712" width="4.16696" height="8.52874" fill="#3294FF"/>
<rect x="1200.4" y="20.3794" width="6.25044" height="14.6207" fill="#3294FF"/>
<rect x="1433.75" y="20.3794" width="6.25044" height="14.6207" fill="#3294FF"/>
<rect x="1241.03" y="26.4712" width="4.16696" height="8.52874" fill="#3294FF"/>
<rect x="1279.57" y="26.4712" width="4.16696" height="8.52874" fill="#3294FF"/>
<rect x="1318.12" y="26.4712" width="4.16696" height="8.52874" fill="#3294FF"/>
<rect x="1356.66" y="26.4712" width="4.16696" height="8.52874" fill="#3294FF"/>
<rect x="1395.21" y="26.4712" width="4.16696" height="8.52874" fill="#3294FF"/>
<rect x="967.05" y="19.1611" width="6.25044" height="14.6207" fill="#3294FF"/>
<rect x="1007.68" y="25.2529" width="4.16696" height="8.52874" fill="#3294FF"/>
<rect x="1046.22" y="25.2529" width="4.16696" height="8.52874" fill="#3294FF"/>
<rect x="1084.77" y="25.2529" width="4.16696" height="8.52874" fill="#3294FF"/>
<rect x="1123.31" y="25.2529" width="4.16696" height="8.52874" fill="#3294FF"/>
<rect x="1161.85" y="25.2529" width="4.16696" height="8.52874" fill="#3294FF"/>
<rect x="733.7" y="20.3794" width="6.25044" height="14.6207" fill="#3294FF"/>
<rect x="774.327" y="26.4712" width="4.16696" height="8.52874" fill="#3294FF"/>
<rect x="812.872" y="26.4712" width="4.16696" height="8.52874" fill="#3294FF"/>
<rect x="851.416" y="26.4712" width="4.16696" height="8.52874" fill="#3294FF"/>
<rect x="889.961" y="26.4712" width="4.16696" height="8.52874" fill="#3294FF"/>
<rect x="928.505" y="26.4712" width="4.16696" height="8.52874" fill="#3294FF"/>
</svg>
