<svg width="1119" height="1263" viewBox="0 0 1119 1263" fill="none" xmlns="http://www.w3.org/2000/svg">
<path d="M545.993 4.78244C514.565 20.8689 444.205 39.5638 391.67 46.0853C323.655 54.346 255.172 49.9982 205.451 33.9118L180.59 26.0861L90.5297 93.9098C40.8088 130.865 0 162.603 0 163.907C0 165.646 7.50506 181.733 15.9482 199.558C37.9943 243.47 61.9167 310.859 72.7051 357.379C81.1484 393.899 81.6174 400.856 81.6174 467.375C81.6174 549.546 78.8031 566.502 51.5972 640.847C31.4273 697.802 24.3914 735.192 26.7367 782.147C30.0202 847.362 52.0664 900.839 98.9728 954.75C140.72 1003.01 189.503 1037.79 299.733 1098.22C465.313 1189.09 473.757 1193.87 526.292 1236.91C544.117 1251.26 559.127 1263 560.065 1263C561.472 1263 574.137 1253 588.209 1241.26C639.337 1198.22 687.182 1168.22 800.696 1106.92C937.194 1033.88 985.508 999.966 1029.13 945.185C1074.16 888.665 1090.58 839.536 1090.11 761.278C1089.64 705.193 1084.01 677.368 1061.97 618.674C1039.45 558.676 1033.35 529.982 1033.35 470.419C1033.35 429.985 1034.76 413.464 1040.39 386.943C1053.52 324.771 1072.75 269.121 1105.12 198.689C1119.19 168.255 1121.07 161.734 1117.32 159.125C1114.97 157.386 1073.69 126.517 1025.38 90.8664L938.601 26.0861L913.271 33.9118C821.335 62.1718 696.563 53.4764 591.961 11.7387C575.544 5.21721 561.003 0 559.127 0C557.25 0.434762 551.622 2.17383 545.993 4.78244ZM585.394 54.3459C685.305 93.9098 801.634 102.17 909.988 78.2582C928.282 74.3452 932.503 73.9105 937.663 77.8234C940.946 79.5625 971.905 102.605 1006.15 128.257L1069 175.211L1061.03 192.167C1026.32 264.773 1000.05 355.64 992.544 428.681C985.977 492.157 997.234 560.415 1024.44 627.37C1031.48 644.326 1038.04 663.89 1039.45 670.847C1041.33 682.15 1040.86 683.455 1027.72 694.324C1011.31 708.671 978.003 721.279 933.441 729.975C893.102 737.801 838.221 741.714 824.149 738.235C818.52 736.931 801.634 728.236 787.093 719.106C745.346 692.15 730.336 686.933 698.439 686.933C667.481 687.368 646.842 692.585 624.796 706.063L611.193 714.758L596.183 706.063C579.296 696.063 550.683 685.629 540.833 685.629C537.081 685.629 529.575 689.107 524.885 693.454C514.565 702.585 512.689 717.367 520.194 730.844C524.885 738.235 524.416 738.67 516.442 739.974C511.751 740.844 491.112 741.714 470.942 741.279C450.772 740.844 432.01 741.714 428.726 743.453C425.912 745.192 417 752.148 408.557 758.67L393.546 771.713H352.738C316.15 771.713 310.991 770.843 306.3 766.061C295.981 755.626 272.996 749.974 237.347 749.105C217.178 748.67 197.946 746.496 189.503 743.887C181.528 740.844 167.457 739.105 158.544 739.105C144.003 739.105 139.313 740.409 131.808 746.931C126.179 751.713 121.019 758.67 120.081 763.452C118.205 770.408 120.081 772.147 134.153 781.277C145.41 787.799 150.101 792.581 148.225 795.19C142.596 808.668 137.905 830.841 139.313 838.232C142.127 852.579 146.349 854.753 171.678 854.753C188.564 854.753 202.637 856.927 219.992 862.579C272.527 878.665 308.176 883.883 370.562 887.361C437.169 890.839 440.922 891.274 482.2 899.099C516.442 906.056 582.58 909.969 736.434 914.751C866.365 918.664 909.988 916.055 956.895 903.012C982.693 895.621 1003.8 893.448 1008.02 897.36C1011.78 900.839 984.1 934.316 956.895 959.097C917.024 995.618 883.251 1016.05 738.31 1092.14C665.605 1129.96 621.043 1159.09 581.173 1193.87L560.534 1211.26L538.957 1193.87C497.679 1159.96 459.216 1136.92 350.392 1078.66C276.749 1039.53 190.91 986.053 165.58 964.315C119.143 924.316 88.6534 873.883 75.0506 816.059C64.262 768.234 70.829 687.802 90.0607 643.891C100.849 618.674 114.452 573.024 120.55 540.851C126.179 510.417 128.524 423.899 124.302 403.464L121.957 392.16L146.349 383.465C186.688 368.683 197.477 366.944 242.038 366.944C288.006 367.813 294.104 369.118 321.779 385.639C346.171 400.421 380.412 412.594 397.299 412.594C417 412.594 441.86 406.508 461.092 397.812L479.385 389.117L491.581 397.812C515.503 414.768 552.56 423.029 564.286 414.768C572.73 409.116 577.42 389.117 571.791 381.726C569.446 378.248 566.632 370.857 565.225 365.64L562.879 356.075H651.064L672.172 342.597L693.28 329.554L733.619 329.119C773.959 328.684 774.428 328.684 787.093 337.38C794.598 342.597 808.67 347.814 819.458 349.988C835.876 353.466 840.566 353.031 853.7 349.118C862.612 346.075 874.808 339.119 881.375 333.032C893.102 323.032 893.571 322.598 905.766 325.641C926.405 331.728 942.354 330.423 950.797 322.598C958.302 314.772 963.931 299.99 963.931 287.381C963.931 282.599 966.745 274.773 970.498 269.556C973.781 263.904 976.595 257.817 976.595 255.643C976.595 253.904 970.029 248.252 961.585 243.47C931.096 225.21 893.571 216.08 825.087 210.862C801.634 208.688 779.588 205.21 774.428 203.036C767.861 199.993 747.691 197.384 708.29 195.645C652.94 193.037 623.858 189.993 604.157 184.342C598.528 182.602 536.611 180.863 466.251 179.559L338.666 177.385L319.903 168.69C301.609 159.125 300.671 159.125 250.95 159.125C222.806 158.69 174.493 159.125 143.534 159.995C105.071 161.299 85.8391 160.864 83.4937 158.255C80.6793 156.082 86.7772 149.995 105.071 136.082C164.173 90.8664 186.688 73.9105 189.034 73.9105C190.441 73.9105 198.415 76.0844 206.858 78.6929C296.919 103.91 449.365 91.7359 542.709 51.3026C552.091 47.8244 559.127 44.3463 559.127 44.3463C559.127 44.3463 570.853 48.694 585.394 54.3459ZM77.3959 176.95C93.8132 183.037 144.472 183.472 218.116 178.689C271.589 175.211 289.883 176.95 319.903 189.559L341.011 198.689L464.375 200.428C551.622 201.732 592.899 203.471 605.564 206.08C635.584 213.471 671.703 216.514 716.264 216.514C750.506 216.514 760.825 217.384 766.923 221.297C771.614 223.905 798.35 233.905 826.963 243.47C875.746 259.122 879.499 261.295 886.066 271.295C896.385 288.251 909.988 299.555 925.467 304.337C939.07 307.816 936.256 309.989 920.776 308.685C917.493 308.25 887.004 294.772 853.7 278.686C767.861 237.818 741.593 229.992 664.667 223.905C630.894 221.297 590.085 218.253 573.199 216.514C525.823 212.167 518.787 212.601 518.787 219.558C518.787 226.514 514.565 225.644 630.894 237.383C686.244 243.035 730.805 249.122 744.877 252.6C773.021 260.426 827.432 283.903 825.087 287.381C822.273 292.164 829.778 312.598 836.345 318.25C840.097 320.858 846.664 323.467 851.824 323.467C857.922 323.467 858.86 323.902 855.107 326.511C847.602 330.858 817.113 329.989 805.386 324.771C799.288 322.163 792.252 316.511 789.438 312.598C784.747 306.076 783.34 305.642 741.593 305.642C687.182 305.642 668.419 302.164 659.038 290.425C652.471 282.164 651.533 281.729 647.78 286.512C645.904 289.555 644.028 296.512 644.028 302.164C644.028 311.728 643.559 312.163 633.708 310.424C627.61 309.12 601.343 307.381 575.544 306.511C516.442 304.337 465.313 310.859 434.824 323.032C415.592 331.293 387.448 338.249 375.253 338.249C371.969 338.249 363.995 334.336 357.428 329.554C345.702 320.858 326.939 317.38 326.939 323.032C326.939 328.684 330.692 335.206 333.975 335.206C335.851 335.206 342.418 338.684 348.516 343.466C364.464 354.77 390.263 353.901 428.257 341.293C485.952 321.728 554.436 316.076 617.76 324.771C650.594 329.554 659.976 327.38 659.976 317.38C659.976 314.337 660.914 311.728 662.321 311.728C666.074 311.728 674.048 316.946 672.641 318.25C650.125 335.206 652.471 334.771 591.023 334.336C533.797 334.336 533.328 334.336 512.689 342.597C500.963 347.814 482.669 358.249 471.411 366.074C443.736 385.639 432.01 389.552 403.866 389.987C377.598 390.421 376.191 389.552 323.186 361.727L295.511 346.945H244.852C189.972 346.945 170.74 349.988 138.374 363.901C128.524 367.813 120.55 370.422 120.081 369.987C119.612 369.552 115.39 354.77 111.169 336.945C101.787 299.99 80.2102 239.122 62.8548 202.167C48.3138 170.429 49.7209 167.386 77.3959 176.95ZM897.323 238.687C904.359 248.252 897.323 247.383 872.932 236.948L859.798 231.296L877.623 233.035C887.004 234.34 895.916 236.948 897.323 238.687ZM951.266 255.209C958.771 260.426 958.771 261.295 952.673 261.295C944.699 261.295 918.431 249.122 916.555 244.339C915.148 239.122 940.477 247.383 951.266 255.209ZM920.776 277.817C932.503 283.034 935.318 287.816 927.343 287.816C921.246 287.816 906.235 279.121 906.235 275.643C906.235 272.165 907.643 272.165 920.776 277.817ZM856.045 297.381L869.648 303.468L860.736 306.511C850.886 309.555 843.85 306.076 841.504 296.512C839.628 289.12 839.628 289.12 856.045 297.381ZM549.276 365.64C550.683 370.857 553.498 379.117 555.843 383.03C561.003 393.03 558.658 403.464 550.683 403.464C542.709 403.464 513.627 393.03 500.493 385.204C491.581 379.987 490.643 378.248 493.457 374.77C500.493 367.813 526.292 356.51 537.081 356.075C545.993 356.075 547.4 357.379 549.276 365.64ZM573.199 712.149C583.987 717.367 592.43 722.149 592.43 723.453C592.43 726.932 566.163 738.235 553.498 740.409C542.709 742.148 542.709 742.148 537.081 726.062C533.797 717.367 531.921 708.236 532.859 706.497C537.081 700.845 553.967 703.019 573.199 712.149ZM725.645 710.845C734.557 713.888 757.073 725.192 775.835 736.496C795.067 748.235 814.768 757.8 821.335 758.67C829.309 759.974 834.468 762.582 835.876 766.93C846.664 789.538 871.994 798.233 898.261 788.234C909.988 783.451 911.395 781.712 906.705 774.756C904.359 771.713 901.076 771.278 889.349 774.321C869.179 778.669 865.896 778.234 858.391 771.713C849.478 763.452 852.762 759.539 867.772 759.539C901.076 759.539 991.605 739.105 1018.34 725.192C1025.85 721.279 1032.41 718.671 1033.35 718.671C1033.35 719.541 1035.7 735.627 1037.57 755.626C1041.8 796.06 1039.45 822.58 1028.19 851.275C1020.22 870.405 1009.9 877.796 995.827 874.753C992.074 873.883 978.003 876.057 964.4 879.97C950.797 883.883 927.813 888.665 912.802 890.839C847.602 899.969 538.957 891.274 483.607 878.231C470.473 875.187 437.169 871.274 409.964 869.535C382.758 867.796 347.109 865.188 331.161 863.448C314.743 861.709 299.264 860.84 296.919 860.84C292.697 860.84 233.595 820.407 208.734 800.842C190.91 786.929 201.698 783.886 231.25 794.32C238.286 796.06 255.172 805.19 269.713 813.885C318.027 841.71 354.614 854.753 384.634 854.753C392.608 854.753 394.015 853.449 394.015 847.797C394.015 841.275 392.139 839.971 377.598 838.232C348.985 834.754 323.655 825.624 286.599 804.755C267.368 794.32 243.445 782.147 234.064 778.669C211.08 769.973 218.116 767.365 252.357 771.278C280.032 774.756 295.981 780.408 298.795 787.799C300.671 791.277 308.645 792.581 348.047 792.581H394.953L408.557 804.32C424.036 816.928 433.417 818.667 454.994 813.015C461.092 811.276 473.757 809.972 483.138 809.537C498.617 809.103 499.555 808.233 499.555 802.146C499.555 798.233 497.679 794.32 494.395 793.451C490.174 791.712 455.463 796.06 437.17 799.973C432.01 801.277 426.85 799.103 419.345 792.581L408.557 783.451L416.062 777.799C420.283 774.756 425.912 772.582 428.726 773.452C432.01 773.886 452.649 778.669 475.164 783.451C498.148 788.668 528.637 793.451 542.709 794.32C565.694 796.06 572.261 795.19 600.404 786.929C648.718 773.017 684.367 768.234 731.743 769.104C780.995 769.539 785.216 769.539 790.845 766.061C809.139 755.191 747.222 748.235 688.589 753.887C669.826 756.061 641.213 760.843 624.796 764.756C607.91 769.104 585.394 774.321 575.075 776.93C553.967 782.147 529.575 780.408 483.607 769.539L459.685 764.321L512.689 762.582C572.261 760.409 573.199 759.974 617.76 733.453C660.914 707.367 692.81 700.845 725.645 710.845ZM190.91 765.191L203.106 770.408L187.626 775.191C172.616 779.973 171.678 779.973 159.482 772.582C152.915 768.234 147.287 763.452 147.287 762.582C147.287 757.8 177.776 759.539 190.91 765.191ZM217.178 826.493C229.842 836.493 239.224 844.754 238.755 845.188C238.286 845.623 229.842 843.884 220.461 841.275C211.08 838.232 193.724 835.623 181.059 835.623C165.58 835.623 158.544 834.319 159.013 831.711C159.482 829.971 159.482 825.189 159.951 821.276C159.951 817.798 163.235 810.407 166.518 804.755L173.085 795.19L183.874 801.712C189.503 805.624 204.982 816.928 217.178 826.493Z" fill="#FF0019"/>
<path d="M534.735 439.115C503.777 443.898 472.35 464.332 455.463 490.418C415.592 552.155 439.046 632.152 505.653 662.586C524.885 671.281 529.576 672.151 553.967 672.151C576.482 672.151 584.456 670.846 598.997 664.325C647.78 643.456 675.455 598.24 671.703 546.068C667.012 478.244 602.75 428.681 534.735 439.115ZM596.183 461.288C631.832 478.244 654.816 511.721 654.816 547.372C654.816 582.154 638.399 602.588 610.724 602.588C593.838 602.588 583.049 596.936 576.013 583.893C563.817 561.285 570.853 531.286 590.554 525.199C599.466 522.591 602.281 520.417 602.281 514.765C602.281 495.635 584.456 475.201 555.843 462.158L539.895 454.332L560.065 453.897C575.075 453.897 583.518 455.636 596.183 461.288ZM549.745 474.766C565.225 483.027 571.322 493.896 571.322 510.852C571.322 528.677 564.286 539.112 544.117 548.242C527.699 556.503 517.38 555.198 506.591 543.894L499.555 536.068L490.174 544.764C475.164 557.807 469.535 575.198 471.88 599.979L473.757 621.283L467.19 613.022C458.747 600.414 451.711 577.371 451.711 560.415C451.711 502.591 509.406 451.724 549.745 474.766ZM543.648 563.894C561.941 571.719 571.322 585.197 568.508 601.718C567.101 611.718 567.57 614.327 573.199 616.935C588.678 624.761 618.229 618.674 639.806 603.457C652.94 594.327 653.878 599.544 641.682 616.066C615.415 652.586 567.101 666.499 526.761 650.412C487.36 634.326 472.819 597.806 495.803 572.589C509.406 556.937 522.07 554.763 543.648 563.894Z" fill="#FF0019"/>
<path d="M288.476 243.47C282.847 248.687 276.749 256.513 273.935 261.295C268.306 271.73 263.146 301.294 265.022 313.902C266.43 322.163 267.837 323.467 273.466 323.032C279.563 322.163 280.501 319.554 282.378 299.555C284.254 276.077 289.414 263.904 302.079 252.6C309.115 246.948 309.584 244.774 306.769 239.992C301.609 232.601 300.202 233.035 288.476 243.47Z" fill="#FF0019"/>
<path d="M810.546 797.799C810.546 818.667 802.572 839.102 790.845 850.406C781.464 859.536 780.995 860.84 785.685 866.492L789.907 873.014L799.758 865.188C823.211 846.927 836.345 783.451 816.644 783.451C811.484 783.451 810.546 785.625 810.546 797.799Z" fill="#FF0019"/>
</svg>
