<?xml version="1.0" encoding="UTF-8"?>
<svg xmlns="http://www.w3.org/2000/svg" xmlns:xlink="http://www.w3.org/1999/xlink" width="35px" height="35px" viewBox="0 0 35 35" version="1.1">
<g id="surface1">
<path style=" stroke:none;fill-rule:nonzero;fill:rgb(0%,0%,0%);fill-opacity:1;" d="M 17.1875 0.15625 C 16.613281 0.472656 15.332031 0.835938 14.375 0.960938 C 13.132812 1.132812 11.882812 1.042969 10.980469 0.730469 L 10.523438 0.570312 L 8.886719 1.902344 C 7.980469 2.628906 7.242188 3.253906 7.242188 3.285156 C 7.242188 3.320312 7.375 3.628906 7.53125 3.984375 C 7.929688 4.847656 8.367188 6.164062 8.566406 7.085938 C 8.714844 7.800781 8.722656 7.9375 8.722656 9.246094 C 8.722656 10.863281 8.667969 11.195312 8.179688 12.660156 C 7.804688 13.773438 7.683594 14.511719 7.726562 15.429688 C 7.78125 16.710938 8.1875 17.761719 9.042969 18.824219 C 9.800781 19.773438 10.695312 20.457031 12.695312 21.640625 C 15.714844 23.425781 15.867188 23.527344 16.824219 24.371094 C 17.144531 24.652344 17.417969 24.878906 17.441406 24.878906 C 17.464844 24.878906 17.699219 24.6875 17.957031 24.453125 C 18.882812 23.609375 19.753906 23.019531 21.824219 21.816406 C 24.308594 20.375 25.191406 19.710938 25.984375 18.636719 C 26.804688 17.527344 27.101562 16.5625 27.097656 15.019531 C 27.089844 13.917969 26.988281 13.371094 26.582031 12.222656 C 26.167969 11.035156 26.066406 10.476562 26.066406 9.304688 C 26.066406 8.511719 26.089844 8.183594 26.1875 7.664062 C 26.433594 6.445312 26.78125 5.347656 27.371094 3.960938 C 27.621094 3.367188 27.664062 3.238281 27.59375 3.183594 C 27.546875 3.148438 26.792969 2.550781 25.917969 1.847656 L 24.332031 0.570312 L 23.878906 0.722656 C 22.203125 1.285156 19.929688 1.113281 18.019531 0.292969 C 17.722656 0.164062 17.453125 0.0585938 17.417969 0.0585938 C 17.390625 0.0625 17.285156 0.105469 17.1875 0.15625 Z M 17.898438 1.132812 C 19.722656 1.902344 21.839844 2.070312 23.820312 1.597656 C 24.144531 1.523438 24.226562 1.515625 24.320312 1.585938 C 24.378906 1.628906 24.945312 2.078125 25.570312 2.585938 L 26.710938 3.503906 L 26.566406 3.839844 C 25.929688 5.265625 25.453125 7.046875 25.316406 8.480469 C 25.203125 9.730469 25.398438 11.070312 25.902344 12.390625 C 26.023438 12.722656 26.144531 13.109375 26.167969 13.242188 C 26.210938 13.46875 26.199219 13.492188 25.960938 13.707031 C 25.664062 13.988281 25.054688 14.234375 24.246094 14.402344 C 23.503906 14.558594 22.507812 14.640625 22.25 14.570312 C 22.144531 14.542969 21.839844 14.375 21.578125 14.191406 C 20.816406 13.667969 20.539062 13.5625 19.957031 13.5625 C 19.398438 13.566406 19.019531 13.671875 18.621094 13.9375 L 18.371094 14.105469 L 18.101562 13.9375 C 17.792969 13.742188 17.269531 13.535156 17.085938 13.535156 C 17.015625 13.535156 16.882812 13.601562 16.796875 13.691406 C 16.609375 13.867188 16.578125 14.15625 16.714844 14.421875 C 16.796875 14.570312 16.789062 14.578125 16.644531 14.605469 C 16.554688 14.625 16.183594 14.636719 15.816406 14.628906 C 15.449219 14.625 15.105469 14.640625 15.050781 14.671875 C 15 14.707031 14.828125 14.839844 14.679688 14.972656 L 14.402344 15.226562 L 13.664062 15.226562 C 13 15.226562 12.90625 15.214844 12.816406 15.113281 C 12.628906 14.910156 12.210938 14.800781 11.558594 14.78125 C 11.191406 14.777344 10.84375 14.730469 10.6875 14.675781 C 10.546875 14.625 10.292969 14.582031 10.121094 14.582031 C 9.859375 14.582031 9.777344 14.613281 9.636719 14.742188 C 9.539062 14.835938 9.445312 14.972656 9.421875 15.0625 C 9.394531 15.203125 9.421875 15.238281 9.683594 15.410156 C 9.890625 15.546875 9.96875 15.632812 9.941406 15.691406 C 9.835938 15.953125 9.75 16.386719 9.777344 16.53125 C 9.832031 16.816406 9.902344 16.859375 10.367188 16.859375 C 10.671875 16.859375 10.925781 16.90625 11.25 17.011719 C 12.203125 17.324219 12.851562 17.4375 13.988281 17.5 C 15.203125 17.5625 15.265625 17.574219 16.019531 17.734375 C 16.644531 17.867188 17.851562 17.941406 20.65625 18.035156 C 23.019531 18.113281 23.8125 18.066406 24.671875 17.808594 C 25.136719 17.664062 25.523438 17.621094 25.597656 17.699219 C 25.667969 17.761719 25.160156 18.421875 24.671875 18.90625 C 23.941406 19.628906 23.328125 20.03125 20.6875 21.523438 C 19.363281 22.273438 18.550781 22.84375 17.828125 23.519531 L 17.449219 23.871094 L 17.058594 23.527344 C 16.300781 22.859375 15.605469 22.40625 13.621094 21.261719 C 12.273438 20.488281 10.710938 19.441406 10.25 19.011719 C 9.410156 18.230469 8.855469 17.238281 8.605469 16.101562 C 8.40625 15.15625 8.53125 13.578125 8.878906 12.710938 C 9.078125 12.214844 9.324219 11.324219 9.433594 10.691406 C 9.539062 10.089844 9.578125 8.394531 9.5 7.984375 L 9.457031 7.769531 L 9.90625 7.59375 C 10.636719 7.304688 10.832031 7.269531 11.644531 7.273438 C 12.484375 7.285156 12.59375 7.316406 13.101562 7.640625 C 13.539062 7.925781 14.171875 8.167969 14.472656 8.167969 C 14.828125 8.167969 15.289062 8.050781 15.640625 7.875 L 15.96875 7.710938 L 16.1875 7.878906 C 16.632812 8.207031 17.304688 8.375 17.519531 8.207031 C 17.671875 8.097656 17.753906 7.710938 17.652344 7.558594 C 17.613281 7.496094 17.558594 7.351562 17.535156 7.246094 L 17.496094 7.058594 L 19.09375 7.058594 L 19.480469 6.796875 L 19.871094 6.539062 L 20.605469 6.527344 C 21.332031 6.523438 21.34375 6.523438 21.578125 6.691406 C 21.714844 6.789062 21.96875 6.894531 22.167969 6.941406 C 22.464844 7.003906 22.554688 7 22.792969 6.917969 C 22.949219 6.867188 23.171875 6.726562 23.292969 6.609375 C 23.503906 6.40625 23.515625 6.398438 23.738281 6.464844 C 24.117188 6.578125 24.40625 6.550781 24.554688 6.398438 C 24.695312 6.246094 24.800781 5.957031 24.800781 5.703125 C 24.800781 5.617188 24.851562 5.460938 24.914062 5.355469 C 24.980469 5.25 25.03125 5.128906 25.03125 5.085938 C 25.03125 5.046875 24.910156 4.933594 24.757812 4.839844 C 24.199219 4.484375 23.515625 4.3125 22.265625 4.199219 C 21.839844 4.164062 21.4375 4.09375 21.34375 4.046875 C 21.230469 3.988281 20.855469 3.941406 20.144531 3.910156 C 19.136719 3.855469 18.605469 3.792969 18.242188 3.679688 C 18.144531 3.652344 17.011719 3.609375 15.734375 3.585938 L 13.40625 3.546875 L 13.0625 3.371094 C 12.730469 3.191406 12.710938 3.191406 11.808594 3.183594 C 11.300781 3.179688 10.417969 3.191406 9.855469 3.207031 C 9.152344 3.226562 8.804688 3.21875 8.757812 3.171875 C 8.710938 3.125 8.820312 3.003906 9.148438 2.734375 C 10.226562 1.847656 10.640625 1.515625 10.683594 1.515625 C 10.707031 1.515625 10.851562 1.558594 11.007812 1.605469 C 12.640625 2.105469 15.425781 1.859375 17.128906 1.066406 C 17.292969 0.996094 17.417969 0.933594 17.417969 0.933594 C 17.417969 0.933594 17.636719 1.019531 17.898438 1.132812 Z M 8.644531 3.539062 C 8.949219 3.65625 9.871094 3.667969 11.207031 3.570312 C 12.1875 3.503906 12.519531 3.539062 13.0625 3.785156 L 13.453125 3.960938 L 15.699219 3.996094 C 17.285156 4.023438 18.039062 4.058594 18.265625 4.113281 C 18.820312 4.253906 19.472656 4.316406 20.285156 4.316406 C 20.90625 4.316406 21.101562 4.335938 21.210938 4.410156 C 21.292969 4.460938 21.78125 4.65625 22.300781 4.839844 C 23.195312 5.15625 23.257812 5.191406 23.375 5.390625 C 23.566406 5.726562 23.8125 5.949219 24.097656 6.039062 C 24.34375 6.113281 24.296875 6.152344 24.011719 6.125 C 23.949219 6.121094 23.398438 5.855469 22.785156 5.535156 C 21.222656 4.730469 20.746094 4.578125 19.34375 4.460938 C 18.730469 4.410156 17.984375 4.347656 17.683594 4.316406 C 16.8125 4.230469 16.691406 4.242188 16.691406 4.375 C 16.691406 4.515625 16.613281 4.496094 18.730469 4.726562 C 19.742188 4.835938 20.550781 4.953125 20.804688 5.023438 C 21.316406 5.175781 22.308594 5.640625 22.265625 5.703125 C 22.214844 5.796875 22.355469 6.207031 22.476562 6.3125 C 22.542969 6.371094 22.664062 6.417969 22.75 6.417969 C 22.867188 6.417969 22.886719 6.429688 22.816406 6.476562 C 22.675781 6.5625 22.121094 6.546875 21.910156 6.441406 C 21.800781 6.386719 21.671875 6.28125 21.621094 6.207031 C 21.53125 6.074219 21.507812 6.066406 20.746094 6.066406 C 19.753906 6.066406 19.414062 5.996094 19.238281 5.769531 C 19.125 5.605469 19.105469 5.601562 19.042969 5.691406 C 19 5.75 18.964844 5.886719 18.964844 5.996094 C 18.964844 6.1875 18.960938 6.195312 18.777344 6.160156 C 18.675781 6.136719 18.195312 6.101562 17.722656 6.085938 C 16.644531 6.042969 15.710938 6.164062 15.164062 6.410156 C 14.8125 6.566406 14.300781 6.707031 14.070312 6.707031 C 14.011719 6.707031 13.867188 6.625 13.746094 6.535156 C 13.535156 6.363281 13.191406 6.292969 13.191406 6.410156 C 13.191406 6.523438 13.261719 6.648438 13.324219 6.648438 C 13.355469 6.648438 13.476562 6.71875 13.585938 6.808594 C 13.878906 7.027344 14.34375 7.015625 15.039062 6.765625 C 16.089844 6.382812 17.339844 6.269531 18.492188 6.445312 C 19.089844 6.535156 19.257812 6.5 19.257812 6.300781 C 19.257812 6.234375 19.273438 6.183594 19.304688 6.183594 C 19.367188 6.183594 19.519531 6.289062 19.492188 6.316406 C 19.082031 6.644531 19.125 6.636719 18.003906 6.632812 C 16.957031 6.625 16.953125 6.625 16.574219 6.796875 C 16.363281 6.894531 16.03125 7.097656 15.828125 7.25 C 15.320312 7.640625 15.109375 7.71875 14.589844 7.722656 C 14.113281 7.730469 14.09375 7.71875 13.125 7.167969 L 12.625 6.878906 L 11.699219 6.878906 C 10.699219 6.878906 10.351562 6.9375 9.753906 7.210938 C 9.578125 7.285156 9.433594 7.34375 9.421875 7.332031 C 9.417969 7.328125 9.339844 7.027344 9.257812 6.679688 C 9.09375 5.957031 8.699219 4.761719 8.382812 4.035156 C 8.117188 3.40625 8.144531 3.347656 8.644531 3.539062 Z M 23.585938 4.75 C 23.707031 4.933594 23.585938 4.921875 23.136719 4.71875 L 22.902344 4.609375 L 23.222656 4.644531 C 23.398438 4.667969 23.5625 4.714844 23.585938 4.75 Z M 24.566406 5.074219 C 24.699219 5.179688 24.707031 5.191406 24.59375 5.191406 C 24.441406 5.191406 23.964844 4.953125 23.9375 4.859375 C 23.90625 4.761719 24.367188 4.921875 24.566406 5.074219 Z M 24.011719 5.523438 C 24.226562 5.625 24.28125 5.714844 24.128906 5.714844 C 24.015625 5.714844 23.75 5.546875 23.75 5.476562 C 23.75 5.40625 23.773438 5.40625 24.011719 5.523438 Z M 22.832031 5.902344 L 23.078125 6.027344 L 22.914062 6.085938 C 22.734375 6.140625 22.613281 6.078125 22.566406 5.890625 C 22.53125 5.746094 22.53125 5.746094 22.832031 5.902344 Z M 17.246094 7.246094 C 17.269531 7.351562 17.320312 7.507812 17.367188 7.589844 C 17.460938 7.78125 17.414062 7.992188 17.269531 7.992188 C 17.128906 7.992188 16.597656 7.78125 16.351562 7.628906 C 16.195312 7.53125 16.171875 7.496094 16.230469 7.425781 C 16.351562 7.285156 16.824219 7.0625 17.023438 7.058594 C 17.1875 7.058594 17.210938 7.082031 17.246094 7.246094 Z M 17.683594 14.058594 C 17.875 14.15625 18.03125 14.257812 18.03125 14.28125 C 18.03125 14.34375 17.554688 14.570312 17.320312 14.613281 C 17.128906 14.648438 17.121094 14.648438 17.015625 14.332031 C 16.957031 14.15625 16.929688 13.984375 16.949219 13.949219 C 17.023438 13.832031 17.328125 13.878906 17.683594 14.058594 Z M 20.457031 14.035156 C 20.617188 14.085938 21.023438 14.316406 21.367188 14.535156 C 21.71875 14.765625 22.082031 14.957031 22.203125 14.972656 C 22.34375 14.996094 22.4375 15.050781 22.464844 15.132812 C 22.65625 15.582031 23.117188 15.75 23.601562 15.550781 C 23.820312 15.457031 23.835938 15.421875 23.753906 15.289062 C 23.714844 15.226562 23.65625 15.21875 23.441406 15.277344 C 23.074219 15.363281 23.007812 15.359375 22.875 15.226562 C 22.714844 15.066406 22.769531 14.992188 23.042969 14.992188 C 23.65625 14.992188 25.300781 14.589844 25.785156 14.316406 C 25.925781 14.238281 26.046875 14.179688 26.058594 14.1875 C 26.066406 14.199219 26.105469 14.519531 26.140625 14.910156 C 26.214844 15.710938 26.167969 16.226562 25.964844 16.789062 C 25.824219 17.167969 25.632812 17.3125 25.375 17.25 C 25.304688 17.230469 25.050781 17.277344 24.804688 17.355469 C 24.558594 17.429688 24.140625 17.527344 23.867188 17.570312 C 22.675781 17.75 17.058594 17.574219 16.050781 17.320312 C 15.804688 17.261719 15.203125 17.183594 14.707031 17.148438 C 14.210938 17.113281 13.5625 17.0625 13.265625 17.035156 C 12.96875 17 12.6875 16.976562 12.648438 16.976562 C 12.574219 16.976562 11.492188 16.183594 11.039062 15.796875 C 10.71875 15.523438 10.910156 15.464844 11.453125 15.667969 C 11.574219 15.710938 11.890625 15.882812 12.152344 16.054688 C 13.03125 16.601562 13.699219 16.859375 14.246094 16.859375 C 14.386719 16.859375 14.414062 16.835938 14.414062 16.71875 C 14.414062 16.589844 14.378906 16.574219 14.113281 16.539062 C 13.597656 16.46875 13.132812 16.285156 12.460938 15.878906 C 12.113281 15.667969 11.675781 15.433594 11.5 15.363281 C 11.085938 15.195312 11.214844 15.144531 11.835938 15.21875 C 12.339844 15.285156 12.628906 15.394531 12.683594 15.546875 C 12.710938 15.617188 12.859375 15.632812 13.574219 15.632812 L 14.433594 15.632812 L 14.683594 15.867188 C 14.957031 16.117188 15.132812 16.152344 15.523438 16.042969 C 15.636719 16.007812 15.867188 15.976562 16.039062 15.972656 C 16.316406 15.964844 16.339844 15.949219 16.339844 15.824219 C 16.339844 15.75 16.300781 15.675781 16.246094 15.652344 C 16.164062 15.621094 15.535156 15.703125 15.199219 15.785156 C 15.109375 15.808594 15.011719 15.761719 14.875 15.640625 L 14.679688 15.457031 L 14.816406 15.347656 C 14.894531 15.289062 15 15.25 15.050781 15.261719 C 15.105469 15.273438 15.484375 15.363281 15.898438 15.457031 C 16.3125 15.558594 16.867188 15.65625 17.121094 15.675781 C 17.542969 15.703125 17.664062 15.6875 18.179688 15.523438 C 19.058594 15.253906 19.699219 15.15625 20.570312 15.171875 C 21.460938 15.183594 21.539062 15.183594 21.644531 15.113281 C 21.976562 14.902344 20.851562 14.765625 19.78125 14.878906 C 19.445312 14.914062 18.917969 15.007812 18.617188 15.089844 C 18.3125 15.171875 17.902344 15.277344 17.71875 15.328125 C 17.332031 15.429688 16.890625 15.394531 16.042969 15.183594 L 15.613281 15.078125 L 16.574219 15.042969 C 17.660156 15.003906 17.683594 14.996094 18.492188 14.472656 C 19.273438 13.964844 19.859375 13.835938 20.457031 14.035156 Z M 10.710938 15.097656 L 10.9375 15.203125 L 10.660156 15.296875 C 10.378906 15.386719 10.367188 15.386719 10.144531 15.242188 C 10.023438 15.160156 9.925781 15.066406 9.925781 15.042969 C 9.925781 14.949219 10.472656 14.992188 10.710938 15.097656 Z M 11.195312 16.304688 C 11.421875 16.496094 11.597656 16.660156 11.585938 16.671875 C 11.574219 16.683594 11.421875 16.648438 11.253906 16.589844 C 11.085938 16.539062 10.765625 16.484375 10.535156 16.484375 C 10.25 16.480469 10.128906 16.457031 10.132812 16.402344 C 10.140625 16.367188 10.144531 16.273438 10.152344 16.199219 C 10.152344 16.128906 10.210938 15.984375 10.273438 15.878906 L 10.390625 15.6875 L 10.582031 15.820312 C 10.695312 15.894531 10.96875 16.113281 11.195312 16.304688 Z M 11.195312 16.304688 "/>
<path style=" stroke:none;fill-rule:nonzero;fill:rgb(0%,0%,0%);fill-opacity:1;" d="M 16.976562 8.691406 C 16.417969 8.785156 15.84375 9.1875 15.535156 9.699219 C 14.804688 10.910156 15.230469 12.484375 16.453125 13.085938 C 16.796875 13.253906 16.890625 13.269531 17.332031 13.269531 C 17.742188 13.269531 17.886719 13.242188 18.148438 13.121094 C 19.042969 12.703125 19.542969 11.816406 19.472656 10.792969 C 19.386719 9.460938 18.21875 8.480469 16.976562 8.691406 Z M 18.097656 9.128906 C 18.75 9.460938 19.164062 10.113281 19.164062 10.816406 C 19.167969 11.496094 18.867188 11.898438 18.359375 11.898438 C 18.054688 11.898438 17.863281 11.789062 17.734375 11.539062 C 17.507812 11.089844 17.636719 10.503906 17.996094 10.382812 C 18.160156 10.332031 18.207031 10.285156 18.207031 10.171875 C 18.207031 9.800781 17.878906 9.402344 17.363281 9.140625 L 17.070312 8.988281 L 17.4375 8.984375 C 17.71875 8.984375 17.867188 9.019531 18.097656 9.128906 Z M 17.257812 9.390625 C 17.53125 9.554688 17.648438 9.769531 17.648438 10.097656 C 17.648438 10.453125 17.511719 10.652344 17.152344 10.839844 C 16.847656 10.996094 16.660156 10.972656 16.46875 10.75 L 16.335938 10.597656 L 16.164062 10.761719 C 15.898438 11.019531 15.792969 11.363281 15.832031 11.851562 L 15.867188 12.273438 L 15.75 12.105469 C 15.59375 11.859375 15.464844 11.402344 15.464844 11.078125 C 15.464844 9.933594 16.519531 8.9375 17.257812 9.390625 Z M 17.140625 11.140625 C 17.476562 11.292969 17.640625 11.5625 17.59375 11.882812 C 17.566406 12.085938 17.578125 12.132812 17.675781 12.1875 C 17.960938 12.335938 18.5 12.222656 18.890625 11.921875 C 19.128906 11.742188 19.144531 11.847656 18.929688 12.167969 C 18.445312 12.886719 17.570312 13.160156 16.832031 12.839844 C 16.113281 12.523438 15.851562 11.808594 16.269531 11.3125 C 16.519531 11.007812 16.75 10.960938 17.140625 11.140625 Z M 17.140625 11.140625 "/>
<path style=" stroke:none;fill-rule:nonzero;fill:rgb(0%,0%,0%);fill-opacity:1;" d="M 12.492188 4.847656 C 12.390625 4.945312 12.273438 5.105469 12.226562 5.191406 C 12.125 5.402344 12.03125 5.984375 12.066406 6.230469 C 12.089844 6.386719 12.117188 6.417969 12.222656 6.40625 C 12.332031 6.386719 12.351562 6.339844 12.378906 5.949219 C 12.414062 5.484375 12.507812 5.246094 12.742188 5.023438 C 12.871094 4.910156 12.882812 4.871094 12.824219 4.777344 C 12.730469 4.632812 12.707031 4.636719 12.492188 4.847656 Z M 12.492188 4.847656 "/>
<path style=" stroke:none;fill-rule:nonzero;fill:rgb(0%,0%,0%);fill-opacity:1;" d="M 22 15.738281 C 22 16.148438 21.859375 16.554688 21.644531 16.777344 C 21.472656 16.953125 21.46875 16.976562 21.550781 17.089844 L 21.632812 17.214844 L 21.804688 17.066406 C 22.230469 16.707031 22.472656 15.457031 22.117188 15.457031 C 22.015625 15.457031 22 15.5 22 15.738281 Z M 22 15.738281 "/>
<path style=" stroke:none;fill-rule:nonzero;fill:rgb(0%,0%,0%);fill-opacity:1;" d="M 28.066406 15.148438 C 26.957031 17.675781 26.164062 19.046875 25.226562 20.066406 C 24.613281 20.730469 24.449219 21.226562 24.695312 21.695312 C 25.039062 22.359375 25.707031 22.386719 26.386719 21.769531 C 26.527344 21.648438 26.695312 21.511719 26.765625 21.472656 C 26.910156 21.398438 27.132812 21.386719 27.132812 21.453125 C 27.132812 21.484375 26.910156 21.777344 26.640625 22.113281 C 24.695312 24.539062 21.953125 26.070312 18.847656 26.453125 C 15.890625 26.816406 12.828125 26.023438 10.464844 24.277344 C 9.8125 23.800781 8.542969 22.511719 8.09375 21.886719 C 7.90625 21.617188 7.765625 21.390625 7.777344 21.375 C 7.835938 21.316406 8.109375 21.464844 8.570312 21.816406 C 9.152344 22.253906 9.359375 22.300781 9.75 22.097656 C 10.199219 21.851562 10.402344 21.410156 10.273438 20.941406 C 10.234375 20.785156 10.085938 20.574219 9.84375 20.3125 C 8.878906 19.285156 7.433594 16.78125 6.679688 14.859375 C 6.523438 14.449219 6.378906 14.117188 6.359375 14.117188 C 6.332031 14.117188 5.707031 16.046875 4.785156 18.992188 L 4.363281 20.339844 L 2.726562 20.609375 C 0.425781 20.988281 0.0664062 21.0625 0.0664062 21.15625 C 0.0664062 21.332031 0.65625 22.546875 1.09375 23.273438 C 1.605469 24.132812 2.519531 25.375 3.328125 26.308594 C 3.617188 26.648438 3.855469 26.949219 3.855469 26.984375 C 3.855469 27.027344 3.789062 27.199219 3.707031 27.386719 C 3.570312 27.683594 3.554688 27.773438 3.578125 28.199219 C 3.617188 28.960938 3.8125 29.242188 4.777344 29.996094 C 7.945312 32.445312 10.800781 33.886719 13.804688 34.5625 C 16.089844 35.074219 18.640625 35.074219 20.917969 34.5625 C 24.039062 33.863281 27.167969 32.28125 30.351562 29.789062 C 31.34375 29.015625 31.601562 28.222656 31.179688 27.246094 L 31.027344 26.898438 L 31.546875 26.265625 C 33.125 24.367188 34.890625 21.652344 34.890625 21.140625 C 34.890625 21.027344 34.839844 21 34.414062 20.925781 C 33.933594 20.835938 32.617188 20.632812 31.222656 20.429688 L 30.503906 20.324219 L 30.199219 19.277344 C 29.699219 17.535156 28.621094 14.058594 28.585938 14.058594 C 28.566406 14.058594 28.332031 14.546875 28.066406 15.148438 Z M 29.820312 20.3125 L 30.015625 20.988281 L 30.222656 21.023438 C 30.335938 21.039062 30.539062 21.058594 30.679688 21.058594 C 30.8125 21.058594 30.925781 21.085938 30.925781 21.121094 C 30.925781 21.179688 30.636719 21.605469 29.992188 22.515625 C 29.417969 23.316406 29.21875 23.566406 29.167969 23.53125 C 29.105469 23.492188 28.421875 22.347656 28.1875 21.878906 L 28.007812 21.523438 L 28.613281 20.636719 C 28.945312 20.148438 29.273438 19.628906 29.347656 19.484375 L 29.484375 19.222656 L 29.554688 19.425781 C 29.59375 19.535156 29.710938 19.933594 29.820312 20.3125 Z M 6.160156 20.445312 L 6.894531 21.554688 L 6.675781 21.960938 C 6.558594 22.183594 6.3125 22.644531 6.132812 22.976562 C 5.957031 23.308594 5.789062 23.585938 5.753906 23.585938 C 5.664062 23.589844 5.144531 22.929688 4.5 21.980469 C 3.855469 21.039062 3.863281 21.097656 4.410156 21.027344 C 4.808594 20.984375 4.90625 20.949219 4.90625 20.859375 C 4.90625 20.820312 5 20.488281 5.117188 20.121094 C 5.378906 19.265625 5.375 19.285156 5.398438 19.3125 C 5.410156 19.324219 5.753906 19.832031 6.160156 20.445312 Z M 7.648438 22.386719 C 8.296875 23.257812 9.441406 24.355469 10.449219 25.066406 C 12.007812 26.167969 13.886719 26.902344 15.804688 27.152344 C 16.554688 27.253906 18.054688 27.269531 18.796875 27.183594 C 22.011719 26.816406 25.167969 25.078125 27.148438 22.574219 C 27.34375 22.335938 27.503906 22.132812 27.511719 22.121094 C 27.523438 22.109375 27.621094 22.265625 27.734375 22.46875 C 29.121094 24.976562 30.050781 26.648438 30.257812 26.992188 C 30.601562 27.546875 30.691406 27.773438 30.691406 28.085938 C 30.691406 28.59375 30.40625 28.949219 29.230469 29.894531 C 26.894531 31.78125 23.90625 33.203125 21.070312 33.796875 C 19.5625 34.113281 19.164062 34.152344 17.304688 34.152344 C 15.476562 34.152344 15.011719 34.113281 13.65625 33.828125 C 10.476562 33.167969 7.363281 31.523438 4.867188 29.203125 C 4.328125 28.695312 4.171875 28.410156 4.21875 27.984375 C 4.242188 27.785156 4.621094 27.0625 5.8125 24.921875 C 6.675781 23.375 7.390625 22.109375 7.410156 22.109375 C 7.425781 22.109375 7.539062 22.238281 7.648438 22.386719 Z M 7.648438 22.386719 "/>
<path style=" stroke:none;fill-rule:nonzero;fill:rgb(0%,0%,0%);fill-opacity:1;" d="M 9.113281 26.320312 C 9.082031 26.394531 8.738281 27.148438 8.355469 28 C 7.964844 28.847656 7.648438 29.570312 7.648438 29.605469 C 7.648438 29.664062 8.167969 29.953125 8.203125 29.914062 C 8.214844 29.902344 8.355469 29.59375 8.523438 29.226562 C 8.6875 28.859375 8.84375 28.535156 8.863281 28.511719 C 8.886719 28.488281 9.207031 28.625 9.574219 28.816406 C 9.941406 29.007812 10.269531 29.167969 10.292969 29.167969 C 10.339844 29.167969 10.582031 28.640625 10.554688 28.613281 C 10.542969 28.601562 10.273438 28.464844 9.953125 28.304688 C 9.074219 27.859375 9.113281 27.914062 9.328125 27.453125 C 9.429688 27.242188 9.519531 27.066406 9.539062 27.066406 C 9.554688 27.066406 9.925781 27.253906 10.363281 27.480469 C 10.800781 27.707031 11.167969 27.890625 11.171875 27.878906 C 11.226562 27.820312 11.445312 27.347656 11.429688 27.328125 C 11.375 27.289062 9.234375 26.191406 9.199219 26.191406 C 9.183594 26.191406 9.140625 26.25 9.113281 26.320312 Z M 9.113281 26.320312 "/>
<path style=" stroke:none;fill-rule:nonzero;fill:rgb(0%,0%,0%);fill-opacity:1;" d="M 24.605469 26.3125 C 24.09375 26.4375 23.632812 26.792969 23.386719 27.257812 C 23.269531 27.46875 23.253906 27.589844 23.253906 28.085938 C 23.253906 28.628906 23.265625 28.699219 23.453125 29.097656 C 23.667969 29.558594 24.070312 29.984375 24.4375 30.140625 C 24.769531 30.285156 25.347656 30.269531 25.71875 30.105469 C 26.125 29.925781 26.554688 29.457031 26.683594 29.050781 C 27 28.074219 26.445312 26.773438 25.550781 26.402344 C 25.277344 26.285156 24.867188 26.25 24.605469 26.3125 Z M 25.15625 26.949219 C 25.417969 27.027344 25.808594 27.433594 25.976562 27.8125 C 26.152344 28.1875 26.15625 28.828125 25.996094 29.097656 C 25.855469 29.324219 25.535156 29.558594 25.28125 29.609375 C 24.601562 29.746094 23.949219 29.042969 23.878906 28.105469 C 23.855469 27.761719 23.867188 27.683594 24.003906 27.457031 C 24.117188 27.265625 24.238281 27.152344 24.460938 27.042969 C 24.800781 26.875 24.851562 26.867188 25.15625 26.949219 Z M 25.15625 26.949219 "/>
<path style=" stroke:none;fill-rule:nonzero;fill:rgb(0%,0%,0%);fill-opacity:1;" d="M 21.769531 27.683594 C 21.5625 27.730469 21.390625 27.773438 21.378906 27.785156 C 21.375 27.789062 21.113281 28.203125 20.804688 28.699219 C 20.488281 29.195312 20.214844 29.628906 20.191406 29.652344 C 20.171875 29.675781 20.089844 29.335938 20.015625 28.898438 L 19.875 28.105469 L 19.613281 28.144531 C 19.46875 28.167969 19.320312 28.210938 19.292969 28.238281 C 19.257812 28.269531 19.367188 29.003906 19.574219 30.140625 C 19.757812 31.160156 19.910156 32 19.917969 32.007812 C 19.957031 32.042969 20.539062 31.878906 20.539062 31.828125 C 20.539062 31.792969 20.488281 31.5 20.429688 31.179688 L 20.3125 30.597656 L 20.5 30.308594 L 20.679688 30.023438 L 21.414062 30.800781 L 22.144531 31.570312 L 22.378906 31.511719 C 22.507812 31.484375 22.6875 31.4375 22.78125 31.414062 C 22.949219 31.378906 22.9375 31.367188 22 30.421875 L 21.046875 29.464844 L 21.636719 28.554688 C 21.964844 28.050781 22.230469 27.632812 22.230469 27.613281 C 22.230469 27.585938 22.21875 27.585938 21.769531 27.683594 Z M 21.769531 27.683594 "/>
<path style=" stroke:none;fill-rule:nonzero;fill:rgb(0%,0%,0%);fill-opacity:1;" d="M 12.636719 27.84375 C 12.054688 28.757812 10.613281 31.074219 10.605469 31.113281 C 10.59375 31.15625 11.066406 31.320312 11.207031 31.324219 C 11.226562 31.324219 11.289062 31.238281 11.351562 31.132812 C 11.410156 31.035156 11.546875 30.8125 11.652344 30.640625 L 11.84375 30.34375 L 12.445312 30.492188 C 12.777344 30.578125 13.050781 30.648438 13.0625 30.660156 C 13.074219 30.664062 13.109375 30.882812 13.136719 31.132812 C 13.230469 31.867188 13.207031 31.832031 13.570312 31.914062 C 13.746094 31.953125 13.902344 31.972656 13.917969 31.960938 C 13.953125 31.925781 13.371094 28.050781 13.3125 27.941406 C 13.289062 27.894531 13.144531 27.824219 12.992188 27.789062 C 12.734375 27.726562 12.710938 27.726562 12.636719 27.84375 Z M 12.917969 29.386719 C 12.964844 29.714844 12.976562 29.984375 12.953125 29.984375 C 12.828125 29.984375 12.28125 29.847656 12.234375 29.808594 C 12.210938 29.777344 12.320312 29.535156 12.492188 29.253906 C 12.660156 28.980469 12.804688 28.765625 12.816406 28.777344 C 12.828125 28.789062 12.875 29.066406 12.917969 29.386719 Z M 12.917969 29.386719 "/>
<path style=" stroke:none;fill-rule:nonzero;fill:rgb(0%,0%,0%);fill-opacity:1;" d="M 27.558594 28.0625 L 27.3125 28.238281 L 27.488281 28.523438 C 27.585938 28.6875 27.679688 28.816406 27.699219 28.816406 C 27.761719 28.816406 28.246094 28.453125 28.230469 28.421875 C 28.136719 28.214844 27.90625 27.882812 27.863281 27.890625 C 27.832031 27.890625 27.691406 27.964844 27.558594 28.0625 Z M 27.558594 28.0625 "/>
<path style=" stroke:none;fill-rule:nonzero;fill:rgb(0%,0%,0%);fill-opacity:1;" d="M 15.40625 30.273438 L 15.40625 32.199219 L 16.050781 32.199219 L 16.050781 30.882812 L 16.269531 30.664062 L 16.5 30.445312 L 17.0625 31.324219 L 17.636719 32.199219 L 18.039062 32.199219 C 18.261719 32.199219 18.441406 32.183594 18.441406 32.164062 C 18.441406 32.148438 18.121094 31.667969 17.730469 31.101562 C 17.339844 30.539062 17.015625 30.023438 17.015625 29.972656 C 17.011719 29.917969 17.332031 29.550781 17.730469 29.148438 C 18.121094 28.753906 18.441406 28.410156 18.441406 28.390625 C 18.441406 28.367188 18.25 28.351562 18.015625 28.351562 L 17.589844 28.351562 L 16.832031 29.171875 L 16.078125 29.996094 L 16.0625 29.171875 L 16.042969 28.351562 L 15.40625 28.351562 Z M 15.40625 30.273438 "/>
<path style=" stroke:none;fill-rule:nonzero;fill:rgb(0%,0%,0%);fill-opacity:1;" d="M 10.039062 30.125 C 10.039062 30.140625 9.988281 30.285156 9.925781 30.449219 L 9.808594 30.746094 L 10.109375 30.886719 L 10.417969 31.023438 L 10.511719 30.804688 C 10.730469 30.320312 10.757812 30.375 10.117188 30.117188 C 10.074219 30.101562 10.039062 30.101562 10.039062 30.125 Z M 10.039062 30.125 "/>
<path style=" stroke:none;fill-rule:nonzero;fill:rgb(0%,0%,0%);fill-opacity:1;" d="M 23.242188 30.378906 C 23.105469 30.433594 22.984375 30.492188 22.96875 30.507812 C 22.925781 30.554688 23.105469 31.148438 23.160156 31.148438 C 23.300781 31.148438 23.75 30.953125 23.75 30.894531 C 23.75 30.777344 23.566406 30.273438 23.527344 30.28125 C 23.503906 30.28125 23.375 30.328125 23.242188 30.378906 Z M 23.242188 30.378906 "/>
<path style=" stroke:none;fill-rule:nonzero;fill:rgb(0%,0%,0%);fill-opacity:1;" d="M 14.21875 31.652344 C 14.195312 31.832031 14.1875 31.988281 14.195312 32 C 14.207031 32.007812 14.351562 32.042969 14.519531 32.070312 C 14.871094 32.136719 14.851562 32.148438 14.90625 31.699219 L 14.941406 31.402344 L 14.671875 31.359375 C 14.253906 31.308594 14.257812 31.300781 14.21875 31.652344 Z M 14.21875 31.652344 "/>
<path style=" stroke:none;fill-rule:nonzero;fill:rgb(0%,0%,0%);fill-opacity:1;" d="M 19.054688 31.371094 C 18.605469 31.414062 18.597656 31.417969 18.628906 31.761719 C 18.644531 31.9375 18.667969 32.09375 18.679688 32.113281 C 18.699219 32.125 18.847656 32.125 19.011719 32.101562 L 19.316406 32.066406 L 19.308594 31.796875 C 19.304688 31.425781 19.261719 31.347656 19.054688 31.371094 Z M 19.054688 31.371094 "/>
</g>
</svg>
