<?xml version="1.0" encoding="UTF-8"?>
<svg xmlns="http://www.w3.org/2000/svg" xmlns:xlink="http://www.w3.org/1999/xlink" width="16px" height="16px" viewBox="0 0 16 16" version="1.1">
<g id="surface1">
<path style=" stroke:none;fill-rule:nonzero;fill:rgb(0%,0%,0%);fill-opacity:1;" d="M 7.855469 0.0703125 C 7.59375 0.214844 7.007812 0.382812 6.570312 0.441406 C 6.003906 0.515625 5.433594 0.476562 5.019531 0.332031 L 4.8125 0.261719 L 4.0625 0.871094 C 3.648438 1.203125 3.308594 1.488281 3.308594 1.5 C 3.308594 1.515625 3.371094 1.660156 3.441406 1.820312 C 3.625 2.214844 3.824219 2.820312 3.914062 3.238281 C 3.984375 3.566406 3.988281 3.628906 3.988281 4.226562 C 3.988281 4.964844 3.964844 5.117188 3.738281 5.785156 C 3.570312 6.296875 3.511719 6.632812 3.53125 7.054688 C 3.558594 7.640625 3.742188 8.121094 4.132812 8.605469 C 4.480469 9.039062 4.886719 9.351562 5.804688 9.894531 C 7.183594 10.710938 7.253906 10.753906 7.691406 11.140625 C 7.839844 11.269531 7.964844 11.375 7.972656 11.375 C 7.984375 11.375 8.089844 11.285156 8.207031 11.179688 C 8.632812 10.792969 9.03125 10.523438 9.976562 9.972656 C 11.113281 9.316406 11.515625 9.011719 11.878906 8.519531 C 12.253906 8.011719 12.390625 7.570312 12.386719 6.867188 C 12.382812 6.363281 12.335938 6.113281 12.152344 5.585938 C 11.964844 5.046875 11.914062 4.789062 11.914062 4.253906 C 11.914062 3.890625 11.925781 3.742188 11.972656 3.503906 C 12.082031 2.945312 12.242188 2.445312 12.511719 1.8125 C 12.628906 1.539062 12.644531 1.480469 12.613281 1.457031 C 12.59375 1.441406 12.25 1.164062 11.847656 0.84375 L 11.125 0.261719 L 10.914062 0.332031 C 10.148438 0.585938 9.109375 0.507812 8.238281 0.132812 C 8.101562 0.0742188 7.980469 0.0273438 7.964844 0.0273438 C 7.949219 0.03125 7.902344 0.046875 7.855469 0.0703125 Z M 8.183594 0.515625 C 9.015625 0.871094 9.984375 0.945312 10.886719 0.730469 C 11.039062 0.695312 11.074219 0.691406 11.117188 0.726562 C 11.144531 0.742188 11.402344 0.949219 11.6875 1.179688 L 12.210938 1.601562 L 12.144531 1.753906 C 11.855469 2.40625 11.636719 3.222656 11.574219 3.878906 C 11.519531 4.449219 11.613281 5.0625 11.839844 5.664062 C 11.898438 5.816406 11.953125 5.992188 11.964844 6.054688 C 11.980469 6.15625 11.976562 6.167969 11.867188 6.265625 C 11.730469 6.394531 11.453125 6.507812 11.082031 6.585938 C 10.746094 6.65625 10.289062 6.691406 10.171875 6.660156 C 10.125 6.648438 9.984375 6.570312 9.863281 6.488281 C 9.515625 6.246094 9.390625 6.199219 9.125 6.199219 C 8.867188 6.203125 8.695312 6.25 8.511719 6.371094 L 8.398438 6.449219 L 8.273438 6.371094 C 8.132812 6.28125 7.894531 6.1875 7.8125 6.1875 C 7.78125 6.1875 7.71875 6.21875 7.679688 6.257812 C 7.59375 6.339844 7.578125 6.472656 7.640625 6.59375 C 7.679688 6.660156 7.675781 6.664062 7.609375 6.675781 C 7.570312 6.683594 7.398438 6.691406 7.230469 6.6875 C 7.0625 6.683594 6.90625 6.691406 6.878906 6.707031 C 6.855469 6.722656 6.78125 6.785156 6.710938 6.84375 L 6.585938 6.960938 L 6.246094 6.960938 C 5.941406 6.960938 5.898438 6.953125 5.859375 6.910156 C 5.773438 6.816406 5.582031 6.765625 5.285156 6.757812 C 5.117188 6.753906 4.957031 6.734375 4.886719 6.710938 C 4.820312 6.683594 4.703125 6.667969 4.628906 6.667969 C 4.507812 6.667969 4.46875 6.679688 4.40625 6.738281 C 4.359375 6.78125 4.316406 6.84375 4.308594 6.886719 C 4.292969 6.949219 4.308594 6.964844 4.425781 7.046875 C 4.519531 7.105469 4.558594 7.148438 4.542969 7.171875 C 4.496094 7.292969 4.457031 7.492188 4.46875 7.558594 C 4.492188 7.6875 4.527344 7.707031 4.738281 7.707031 C 4.878906 7.707031 4.996094 7.726562 5.140625 7.777344 C 5.578125 7.921875 5.875 7.96875 6.394531 8 C 6.949219 8.03125 6.980469 8.035156 7.324219 8.105469 C 7.609375 8.167969 8.160156 8.203125 9.441406 8.246094 C 10.523438 8.28125 10.886719 8.257812 11.277344 8.140625 C 11.492188 8.074219 11.667969 8.054688 11.703125 8.089844 C 11.734375 8.121094 11.503906 8.421875 11.277344 8.644531 C 10.945312 8.972656 10.664062 9.15625 9.457031 9.839844 C 8.851562 10.179688 8.480469 10.441406 8.148438 10.753906 L 7.976562 10.910156 L 7.796875 10.753906 C 7.453125 10.449219 7.132812 10.242188 6.226562 9.71875 C 5.613281 9.367188 4.898438 8.886719 4.6875 8.691406 C 4.300781 8.332031 4.046875 7.878906 3.933594 7.359375 C 3.84375 6.929688 3.898438 6.207031 4.058594 5.8125 C 4.148438 5.585938 4.261719 5.175781 4.3125 4.886719 C 4.359375 4.613281 4.378906 3.835938 4.34375 3.652344 L 4.324219 3.550781 L 4.527344 3.472656 C 4.863281 3.339844 4.953125 3.324219 5.324219 3.324219 C 5.707031 3.332031 5.757812 3.34375 5.988281 3.492188 C 6.191406 3.625 6.476562 3.734375 6.617188 3.734375 C 6.78125 3.734375 6.988281 3.679688 7.148438 3.601562 L 7.300781 3.523438 L 7.402344 3.601562 C 7.601562 3.753906 7.910156 3.828125 8.007812 3.753906 C 8.078125 3.703125 8.117188 3.523438 8.070312 3.457031 C 8.050781 3.425781 8.027344 3.359375 8.015625 3.3125 L 7.996094 3.226562 L 8.730469 3.226562 L 8.90625 3.105469 L 9.082031 2.988281 L 9.417969 2.984375 C 9.753906 2.980469 9.757812 2.980469 9.863281 3.058594 C 9.925781 3.105469 10.042969 3.152344 10.132812 3.171875 C 10.269531 3.203125 10.308594 3.199219 10.417969 3.164062 C 10.492188 3.136719 10.59375 3.074219 10.648438 3.019531 C 10.746094 2.929688 10.75 2.925781 10.851562 2.953125 C 11.023438 3.007812 11.15625 2.996094 11.226562 2.925781 C 11.289062 2.855469 11.335938 2.722656 11.335938 2.609375 C 11.335938 2.566406 11.359375 2.496094 11.390625 2.449219 C 11.417969 2.398438 11.441406 2.34375 11.441406 2.324219 C 11.441406 2.308594 11.386719 2.257812 11.316406 2.214844 C 11.0625 2.050781 10.75 1.96875 10.179688 1.921875 C 9.984375 1.902344 9.800781 1.871094 9.757812 1.851562 C 9.703125 1.824219 9.535156 1.800781 9.207031 1.785156 C 8.746094 1.761719 8.503906 1.734375 8.339844 1.683594 C 8.292969 1.667969 7.777344 1.652344 7.191406 1.640625 L 6.128906 1.621094 L 5.972656 1.542969 C 5.820312 1.457031 5.8125 1.457031 5.398438 1.457031 C 5.164062 1.453125 4.761719 1.457031 4.503906 1.464844 C 4.183594 1.476562 4.023438 1.472656 4.003906 1.449219 C 3.980469 1.429688 4.03125 1.375 4.183594 1.25 C 4.675781 0.84375 4.863281 0.691406 4.882812 0.691406 C 4.894531 0.691406 4.960938 0.710938 5.03125 0.734375 C 5.78125 0.960938 7.050781 0.851562 7.828125 0.488281 C 7.90625 0.457031 7.964844 0.425781 7.964844 0.425781 C 7.964844 0.425781 8.0625 0.464844 8.183594 0.515625 Z M 3.953125 1.617188 C 4.089844 1.671875 4.511719 1.675781 5.125 1.632812 C 5.570312 1.601562 5.722656 1.617188 5.972656 1.730469 L 6.148438 1.8125 L 7.175781 1.828125 C 7.902344 1.839844 8.246094 1.855469 8.351562 1.878906 C 8.601562 1.945312 8.902344 1.972656 9.273438 1.972656 C 9.558594 1.972656 9.644531 1.980469 9.695312 2.015625 C 9.734375 2.039062 9.957031 2.128906 10.195312 2.214844 C 10.601562 2.355469 10.632812 2.375 10.6875 2.464844 C 10.773438 2.617188 10.886719 2.71875 11.015625 2.761719 C 11.128906 2.792969 11.105469 2.8125 10.976562 2.800781 C 10.949219 2.796875 10.695312 2.675781 10.417969 2.53125 C 9.703125 2.164062 9.484375 2.09375 8.84375 2.039062 C 8.5625 2.015625 8.222656 1.988281 8.082031 1.972656 C 7.6875 1.933594 7.628906 1.9375 7.628906 2 C 7.628906 2.0625 7.59375 2.054688 8.5625 2.160156 C 9.023438 2.210938 9.394531 2.265625 9.511719 2.296875 C 9.746094 2.367188 10.199219 2.578125 10.179688 2.609375 C 10.15625 2.652344 10.21875 2.835938 10.273438 2.886719 C 10.304688 2.910156 10.359375 2.933594 10.402344 2.933594 C 10.453125 2.933594 10.460938 2.9375 10.429688 2.960938 C 10.367188 3 10.113281 2.992188 10.015625 2.945312 C 9.964844 2.921875 9.90625 2.871094 9.882812 2.835938 C 9.84375 2.777344 9.832031 2.773438 9.484375 2.773438 C 9.03125 2.773438 8.875 2.742188 8.796875 2.636719 C 8.742188 2.5625 8.734375 2.558594 8.703125 2.601562 C 8.6875 2.628906 8.671875 2.691406 8.671875 2.742188 C 8.671875 2.828125 8.667969 2.832031 8.585938 2.816406 C 8.535156 2.804688 8.316406 2.789062 8.101562 2.78125 C 7.609375 2.761719 7.183594 2.820312 6.929688 2.929688 C 6.769531 3.003906 6.535156 3.066406 6.433594 3.066406 C 6.40625 3.066406 6.339844 3.03125 6.285156 2.988281 C 6.1875 2.910156 6.03125 2.878906 6.03125 2.929688 C 6.03125 2.980469 6.0625 3.039062 6.089844 3.039062 C 6.105469 3.039062 6.160156 3.070312 6.210938 3.113281 C 6.34375 3.214844 6.558594 3.207031 6.875 3.09375 C 7.355469 2.917969 7.925781 2.867188 8.453125 2.945312 C 8.726562 2.988281 8.804688 2.96875 8.804688 2.878906 C 8.804688 2.851562 8.8125 2.828125 8.824219 2.828125 C 8.855469 2.828125 8.921875 2.875 8.910156 2.886719 C 8.722656 3.039062 8.742188 3.035156 8.230469 3.03125 C 7.753906 3.03125 7.75 3.03125 7.578125 3.105469 C 7.480469 3.152344 7.328125 3.246094 7.234375 3.316406 C 7.003906 3.492188 6.90625 3.527344 6.671875 3.53125 C 6.453125 3.535156 6.441406 3.527344 6 3.277344 L 5.769531 3.144531 L 5.347656 3.144531 C 4.890625 3.144531 4.730469 3.171875 4.460938 3.296875 C 4.378906 3.332031 4.3125 3.355469 4.308594 3.351562 C 4.304688 3.347656 4.269531 3.214844 4.234375 3.054688 C 4.15625 2.722656 3.976562 2.175781 3.832031 1.84375 C 3.710938 1.558594 3.722656 1.53125 3.953125 1.617188 Z M 10.78125 2.171875 C 10.839844 2.257812 10.78125 2.25 10.578125 2.15625 L 10.46875 2.105469 L 10.617188 2.121094 C 10.695312 2.132812 10.769531 2.15625 10.78125 2.171875 Z M 11.230469 2.320312 C 11.292969 2.367188 11.292969 2.375 11.242188 2.375 C 11.175781 2.375 10.957031 2.265625 10.941406 2.222656 C 10.929688 2.175781 11.140625 2.25 11.230469 2.320312 Z M 10.976562 2.523438 C 11.074219 2.570312 11.097656 2.613281 11.03125 2.613281 C 10.980469 2.613281 10.855469 2.535156 10.855469 2.503906 C 10.855469 2.472656 10.867188 2.472656 10.976562 2.523438 Z M 10.4375 2.699219 L 10.550781 2.753906 L 10.476562 2.78125 C 10.394531 2.808594 10.335938 2.777344 10.316406 2.691406 C 10.300781 2.625 10.300781 2.625 10.4375 2.699219 Z M 7.882812 3.3125 C 7.894531 3.359375 7.917969 3.433594 7.9375 3.46875 C 7.980469 3.558594 7.960938 3.652344 7.894531 3.652344 C 7.828125 3.652344 7.585938 3.558594 7.476562 3.488281 C 7.402344 3.441406 7.394531 3.425781 7.417969 3.394531 C 7.476562 3.332031 7.691406 3.230469 7.78125 3.226562 C 7.855469 3.226562 7.867188 3.238281 7.882812 3.3125 Z M 8.082031 6.425781 C 8.171875 6.472656 8.242188 6.515625 8.242188 6.527344 C 8.242188 6.558594 8.023438 6.660156 7.917969 6.679688 C 7.828125 6.695312 7.828125 6.695312 7.78125 6.550781 C 7.753906 6.472656 7.738281 6.390625 7.746094 6.375 C 7.78125 6.324219 7.921875 6.34375 8.082031 6.425781 Z M 9.351562 6.414062 C 9.425781 6.441406 9.613281 6.542969 9.769531 6.644531 C 9.929688 6.75 10.09375 6.835938 10.148438 6.84375 C 10.214844 6.855469 10.257812 6.878906 10.269531 6.917969 C 10.359375 7.121094 10.570312 7.199219 10.789062 7.109375 C 10.886719 7.066406 10.898438 7.050781 10.859375 6.988281 C 10.839844 6.960938 10.8125 6.957031 10.714844 6.984375 C 10.546875 7.023438 10.519531 7.019531 10.457031 6.960938 C 10.382812 6.886719 10.410156 6.851562 10.535156 6.851562 C 10.8125 6.851562 11.566406 6.667969 11.789062 6.542969 C 11.851562 6.507812 11.90625 6.484375 11.914062 6.484375 C 11.914062 6.492188 11.933594 6.636719 11.949219 6.816406 C 11.984375 7.179688 11.964844 7.417969 11.871094 7.675781 C 11.804688 7.847656 11.71875 7.914062 11.601562 7.886719 C 11.570312 7.878906 11.453125 7.898438 11.339844 7.933594 C 11.226562 7.96875 11.035156 8.011719 10.910156 8.03125 C 10.367188 8.113281 7.796875 8.035156 7.335938 7.917969 C 7.226562 7.890625 6.949219 7.855469 6.722656 7.839844 C 6.496094 7.824219 6.199219 7.800781 6.066406 7.785156 C 5.929688 7.769531 5.800781 7.761719 5.78125 7.761719 C 5.746094 7.761719 5.253906 7.398438 5.046875 7.222656 C 4.898438 7.097656 4.988281 7.070312 5.234375 7.164062 C 5.292969 7.179688 5.433594 7.261719 5.554688 7.339844 C 5.957031 7.589844 6.261719 7.707031 6.511719 7.707031 C 6.578125 7.707031 6.589844 7.695312 6.589844 7.644531 C 6.589844 7.585938 6.574219 7.574219 6.453125 7.558594 C 6.214844 7.527344 6.003906 7.445312 5.695312 7.257812 C 5.535156 7.164062 5.335938 7.054688 5.257812 7.023438 C 5.066406 6.945312 5.125 6.921875 5.410156 6.957031 C 5.640625 6.988281 5.773438 7.039062 5.796875 7.105469 C 5.8125 7.136719 5.878906 7.148438 6.207031 7.148438 L 6.597656 7.148438 L 6.710938 7.253906 C 6.839844 7.367188 6.917969 7.382812 7.097656 7.332031 C 7.148438 7.316406 7.253906 7.304688 7.332031 7.300781 C 7.460938 7.296875 7.46875 7.289062 7.46875 7.234375 C 7.46875 7.199219 7.453125 7.164062 7.425781 7.15625 C 7.390625 7.140625 7.101562 7.179688 6.949219 7.214844 C 6.90625 7.226562 6.863281 7.207031 6.800781 7.148438 L 6.710938 7.066406 L 6.773438 7.015625 C 6.808594 6.988281 6.855469 6.96875 6.878906 6.976562 C 6.90625 6.980469 7.078125 7.023438 7.265625 7.066406 C 7.457031 7.113281 7.710938 7.15625 7.828125 7.164062 C 8.019531 7.179688 8.074219 7.171875 8.308594 7.097656 C 8.710938 6.972656 9.007812 6.929688 9.402344 6.9375 C 9.8125 6.941406 9.847656 6.941406 9.894531 6.910156 C 10.046875 6.8125 9.53125 6.75 9.042969 6.800781 C 8.886719 6.820312 8.648438 6.863281 8.511719 6.898438 C 8.371094 6.9375 8.183594 6.984375 8.097656 7.007812 C 7.921875 7.054688 7.71875 7.039062 7.335938 6.941406 L 7.136719 6.894531 L 7.578125 6.878906 C 8.074219 6.859375 8.082031 6.855469 8.453125 6.617188 C 8.8125 6.382812 9.078125 6.324219 9.351562 6.414062 Z M 4.898438 6.902344 L 5 6.949219 L 4.871094 6.992188 C 4.746094 7.035156 4.738281 7.035156 4.636719 6.96875 C 4.582031 6.929688 4.535156 6.886719 4.535156 6.878906 C 4.535156 6.835938 4.789062 6.851562 4.898438 6.902344 Z M 5.117188 7.453125 C 5.222656 7.542969 5.300781 7.617188 5.296875 7.621094 C 5.292969 7.625 5.222656 7.609375 5.144531 7.585938 C 5.066406 7.558594 4.921875 7.535156 4.816406 7.535156 C 4.6875 7.535156 4.628906 7.523438 4.632812 7.5 C 4.636719 7.484375 4.636719 7.441406 4.640625 7.40625 C 4.640625 7.375 4.667969 7.308594 4.695312 7.257812 L 4.75 7.171875 L 4.839844 7.230469 C 4.886719 7.265625 5.015625 7.367188 5.117188 7.453125 Z M 5.117188 7.453125 "/>
<path style=" stroke:none;fill-rule:nonzero;fill:rgb(0%,0%,0%);fill-opacity:1;" d="M 7.761719 3.972656 C 7.503906 4.015625 7.242188 4.199219 7.101562 4.433594 C 6.769531 4.988281 6.964844 5.707031 7.519531 5.980469 C 7.679688 6.058594 7.71875 6.066406 7.921875 6.066406 C 8.109375 6.066406 8.175781 6.054688 8.296875 5.996094 C 8.703125 5.808594 8.933594 5.402344 8.902344 4.933594 C 8.863281 4.324219 8.328125 3.878906 7.761719 3.972656 Z M 8.273438 4.171875 C 8.570312 4.324219 8.761719 4.625 8.761719 4.945312 C 8.761719 5.257812 8.625 5.441406 8.394531 5.441406 C 8.253906 5.441406 8.164062 5.390625 8.105469 5.273438 C 8.003906 5.070312 8.0625 4.800781 8.226562 4.746094 C 8.300781 4.722656 8.324219 4.703125 8.324219 4.652344 C 8.324219 4.480469 8.175781 4.296875 7.9375 4.179688 L 7.804688 4.109375 L 7.972656 4.105469 C 8.097656 4.105469 8.167969 4.121094 8.273438 4.171875 Z M 7.886719 4.292969 C 8.015625 4.367188 8.066406 4.464844 8.066406 4.617188 C 8.066406 4.777344 8.007812 4.871094 7.839844 4.953125 C 7.703125 5.027344 7.617188 5.015625 7.527344 4.914062 L 7.46875 4.84375 L 7.390625 4.921875 C 7.265625 5.039062 7.21875 5.195312 7.238281 5.417969 L 7.253906 5.609375 L 7.199219 5.535156 C 7.128906 5.421875 7.070312 5.214844 7.070312 5.0625 C 7.070312 4.542969 7.550781 4.085938 7.886719 4.292969 Z M 7.835938 5.09375 C 7.988281 5.164062 8.066406 5.285156 8.042969 5.433594 C 8.03125 5.523438 8.035156 5.546875 8.082031 5.570312 C 8.210938 5.640625 8.457031 5.585938 8.636719 5.449219 C 8.746094 5.367188 8.753906 5.414062 8.652344 5.5625 C 8.433594 5.890625 8.03125 6.015625 7.695312 5.871094 C 7.367188 5.726562 7.246094 5.398438 7.4375 5.171875 C 7.550781 5.03125 7.65625 5.011719 7.835938 5.09375 Z M 7.835938 5.09375 "/>
<path style=" stroke:none;fill-rule:nonzero;fill:rgb(0%,0%,0%);fill-opacity:1;" d="M 5.710938 2.214844 C 5.664062 2.261719 5.613281 2.332031 5.589844 2.375 C 5.542969 2.46875 5.5 2.734375 5.515625 2.847656 C 5.527344 2.921875 5.539062 2.933594 5.585938 2.929688 C 5.636719 2.921875 5.644531 2.898438 5.660156 2.71875 C 5.675781 2.507812 5.71875 2.398438 5.824219 2.296875 C 5.882812 2.246094 5.886719 2.226562 5.863281 2.183594 C 5.820312 2.117188 5.808594 2.121094 5.710938 2.214844 Z M 5.710938 2.214844 "/>
<path style=" stroke:none;fill-rule:nonzero;fill:rgb(0%,0%,0%);fill-opacity:1;" d="M 10.058594 7.195312 C 10.058594 7.382812 9.992188 7.566406 9.894531 7.667969 C 9.816406 7.75 9.8125 7.761719 9.851562 7.8125 L 9.886719 7.871094 L 9.96875 7.800781 C 10.164062 7.636719 10.273438 7.066406 10.109375 7.066406 C 10.066406 7.066406 10.058594 7.085938 10.058594 7.195312 Z M 10.058594 7.195312 "/>
<path style=" stroke:none;fill-rule:nonzero;fill:rgb(0%,0%,0%);fill-opacity:1;" d="M 12.828125 6.925781 C 12.324219 8.078125 11.960938 8.707031 11.53125 9.171875 C 11.25 9.476562 11.175781 9.703125 11.289062 9.917969 C 11.445312 10.222656 11.753906 10.234375 12.0625 9.953125 C 12.125 9.894531 12.203125 9.835938 12.234375 9.816406 C 12.300781 9.78125 12.402344 9.777344 12.402344 9.808594 C 12.402344 9.820312 12.300781 9.953125 12.179688 10.109375 C 11.289062 11.21875 10.035156 11.917969 8.617188 12.09375 C 7.265625 12.257812 5.863281 11.894531 4.785156 11.097656 C 4.484375 10.878906 3.90625 10.289062 3.699219 10.003906 C 3.613281 9.882812 3.550781 9.777344 3.554688 9.769531 C 3.582031 9.742188 3.707031 9.8125 3.917969 9.972656 C 4.183594 10.171875 4.277344 10.195312 4.457031 10.101562 C 4.660156 9.988281 4.753906 9.785156 4.695312 9.574219 C 4.679688 9.5 4.613281 9.40625 4.5 9.285156 C 4.058594 8.816406 3.398438 7.671875 3.054688 6.792969 C 2.980469 6.605469 2.914062 6.453125 2.90625 6.453125 C 2.894531 6.453125 2.609375 7.335938 2.1875 8.683594 L 1.996094 9.296875 L 1.246094 9.421875 C 0.195312 9.59375 0.03125 9.628906 0.03125 9.671875 C 0.03125 9.753906 0.300781 10.308594 0.5 10.640625 C 0.734375 11.03125 1.152344 11.601562 1.519531 12.027344 C 1.652344 12.179688 1.761719 12.320312 1.761719 12.335938 C 1.761719 12.355469 1.730469 12.433594 1.695312 12.519531 C 1.632812 12.65625 1.625 12.695312 1.636719 12.890625 C 1.652344 13.238281 1.742188 13.367188 2.183594 13.710938 C 3.632812 14.832031 4.9375 15.492188 6.308594 15.800781 C 7.355469 16.035156 8.519531 16.035156 9.5625 15.800781 C 10.988281 15.480469 12.417969 14.757812 13.875 13.617188 C 14.328125 13.265625 14.445312 12.902344 14.253906 12.457031 L 14.183594 12.296875 L 14.421875 12.007812 C 15.140625 11.136719 15.949219 9.898438 15.949219 9.664062 C 15.949219 9.613281 15.925781 9.601562 15.730469 9.566406 C 15.511719 9.523438 14.910156 9.433594 14.273438 9.339844 L 13.945312 9.289062 L 13.804688 8.8125 C 13.578125 8.015625 13.082031 6.425781 13.066406 6.425781 C 13.058594 6.425781 12.953125 6.652344 12.828125 6.925781 Z M 13.632812 9.285156 L 13.71875 9.59375 L 13.816406 9.609375 C 13.867188 9.617188 13.960938 9.625 14.023438 9.625 C 14.085938 9.625 14.136719 9.640625 14.136719 9.65625 C 14.136719 9.683594 14.007812 9.878906 13.710938 10.292969 C 13.449219 10.660156 13.359375 10.773438 13.335938 10.757812 C 13.304688 10.738281 12.992188 10.214844 12.886719 10.003906 L 12.804688 9.839844 L 13.082031 9.433594 C 13.234375 9.210938 13.382812 8.972656 13.417969 8.90625 L 13.476562 8.785156 L 13.511719 8.878906 C 13.527344 8.929688 13.582031 9.113281 13.632812 9.285156 Z M 2.816406 9.347656 L 3.152344 9.851562 L 3.050781 10.039062 C 2.996094 10.140625 2.886719 10.351562 2.804688 10.503906 C 2.722656 10.65625 2.644531 10.78125 2.628906 10.78125 C 2.589844 10.785156 2.351562 10.484375 2.058594 10.046875 C 1.761719 9.617188 1.765625 9.644531 2.015625 9.613281 C 2.199219 9.59375 2.242188 9.574219 2.242188 9.535156 C 2.242188 9.515625 2.285156 9.367188 2.339844 9.199219 C 2.460938 8.808594 2.457031 8.816406 2.46875 8.828125 C 2.472656 8.835938 2.628906 9.066406 2.816406 9.347656 Z M 3.496094 10.234375 C 3.792969 10.632812 4.316406 11.132812 4.777344 11.457031 C 5.488281 11.960938 6.347656 12.296875 7.226562 12.414062 C 7.570312 12.457031 8.253906 12.464844 8.59375 12.425781 C 10.0625 12.257812 11.503906 11.464844 12.410156 10.320312 C 12.5 10.210938 12.574219 10.117188 12.578125 10.113281 C 12.582031 10.105469 12.628906 10.179688 12.679688 10.273438 C 13.3125 11.417969 13.738281 12.179688 13.832031 12.339844 C 13.988281 12.59375 14.03125 12.695312 14.03125 12.839844 C 14.03125 13.070312 13.898438 13.234375 13.363281 13.667969 C 12.292969 14.527344 10.929688 15.179688 9.632812 15.449219 C 8.941406 15.59375 8.761719 15.613281 7.910156 15.613281 C 7.074219 15.613281 6.863281 15.59375 6.242188 15.464844 C 4.789062 15.164062 3.367188 14.410156 2.226562 13.347656 C 1.980469 13.117188 1.90625 12.988281 1.929688 12.792969 C 1.9375 12.703125 2.113281 12.371094 2.65625 11.390625 C 3.050781 10.683594 3.378906 10.105469 3.386719 10.105469 C 3.394531 10.105469 3.445312 10.164062 3.496094 10.234375 Z M 3.496094 10.234375 "/>
<path style=" stroke:none;fill-rule:nonzero;fill:rgb(0%,0%,0%);fill-opacity:1;" d="M 4.164062 12.03125 C 4.152344 12.066406 3.996094 12.410156 3.820312 12.800781 C 3.640625 13.1875 3.496094 13.515625 3.496094 13.535156 C 3.496094 13.558594 3.734375 13.691406 3.75 13.675781 C 3.753906 13.667969 3.820312 13.527344 3.898438 13.359375 C 3.972656 13.191406 4.042969 13.046875 4.050781 13.035156 C 4.0625 13.023438 4.207031 13.085938 4.375 13.171875 C 4.542969 13.261719 4.695312 13.332031 4.703125 13.332031 C 4.726562 13.332031 4.839844 13.09375 4.824219 13.078125 C 4.820312 13.074219 4.695312 13.011719 4.550781 12.9375 C 4.148438 12.734375 4.164062 12.761719 4.265625 12.550781 C 4.308594 12.453125 4.351562 12.375 4.359375 12.375 C 4.367188 12.375 4.535156 12.457031 4.738281 12.5625 C 4.9375 12.667969 5.105469 12.75 5.105469 12.742188 C 5.132812 12.71875 5.234375 12.5 5.226562 12.492188 C 5.199219 12.476562 4.222656 11.972656 4.207031 11.972656 C 4.199219 11.972656 4.179688 12 4.164062 12.03125 Z M 4.164062 12.03125 "/>
<path style=" stroke:none;fill-rule:nonzero;fill:rgb(0%,0%,0%);fill-opacity:1;" d="M 11.25 12.03125 C 11.015625 12.085938 10.804688 12.246094 10.691406 12.460938 C 10.636719 12.558594 10.628906 12.613281 10.628906 12.839844 C 10.628906 13.089844 10.636719 13.121094 10.71875 13.300781 C 10.820312 13.511719 11.003906 13.707031 11.171875 13.777344 C 11.324219 13.84375 11.585938 13.835938 11.757812 13.761719 C 11.941406 13.679688 12.140625 13.464844 12.199219 13.28125 C 12.34375 12.835938 12.089844 12.238281 11.679688 12.070312 C 11.554688 12.015625 11.367188 12 11.25 12.03125 Z M 11.5 12.320312 C 11.621094 12.355469 11.796875 12.542969 11.875 12.714844 C 11.957031 12.886719 11.957031 13.179688 11.882812 13.300781 C 11.820312 13.40625 11.671875 13.511719 11.558594 13.535156 C 11.246094 13.597656 10.949219 13.277344 10.914062 12.847656 C 10.90625 12.691406 10.910156 12.65625 10.972656 12.550781 C 11.023438 12.464844 11.082031 12.414062 11.183594 12.363281 C 11.335938 12.285156 11.359375 12.28125 11.5 12.320312 Z M 11.5 12.320312 "/>
<path style=" stroke:none;fill-rule:nonzero;fill:rgb(0%,0%,0%);fill-opacity:1;" d="M 9.953125 12.65625 C 9.855469 12.675781 9.78125 12.695312 9.773438 12.703125 C 9.769531 12.703125 9.652344 12.894531 9.511719 13.121094 C 9.367188 13.347656 9.242188 13.542969 9.230469 13.554688 C 9.222656 13.566406 9.183594 13.410156 9.148438 13.210938 L 9.085938 12.847656 L 8.964844 12.867188 C 8.898438 12.878906 8.832031 12.894531 8.820312 12.910156 C 8.804688 12.921875 8.855469 13.257812 8.949219 13.777344 C 9.03125 14.246094 9.101562 14.628906 9.105469 14.632812 C 9.125 14.648438 9.390625 14.574219 9.390625 14.550781 C 9.390625 14.535156 9.367188 14.398438 9.339844 14.253906 L 9.285156 13.988281 L 9.371094 13.855469 L 9.453125 13.726562 L 9.789062 14.078125 L 10.125 14.433594 L 10.230469 14.40625 C 10.289062 14.390625 10.371094 14.371094 10.414062 14.359375 C 10.492188 14.34375 10.484375 14.339844 10.058594 13.90625 L 9.621094 13.46875 L 9.890625 13.054688 C 10.039062 12.824219 10.164062 12.632812 10.164062 12.625 C 10.164062 12.609375 10.15625 12.609375 9.953125 12.65625 Z M 9.953125 12.65625 "/>
<path style=" stroke:none;fill-rule:nonzero;fill:rgb(0%,0%,0%);fill-opacity:1;" d="M 5.777344 12.726562 C 5.511719 13.148438 4.851562 14.207031 4.847656 14.222656 C 4.84375 14.242188 5.058594 14.316406 5.125 14.320312 C 5.132812 14.320312 5.160156 14.28125 5.191406 14.230469 C 5.214844 14.1875 5.277344 14.085938 5.324219 14.007812 L 5.414062 13.871094 L 5.6875 13.9375 C 5.839844 13.980469 5.964844 14.011719 5.972656 14.015625 C 5.976562 14.019531 5.992188 14.117188 6.007812 14.230469 C 6.046875 14.566406 6.039062 14.550781 6.203125 14.589844 C 6.285156 14.609375 6.355469 14.617188 6.363281 14.609375 C 6.378906 14.59375 6.113281 12.824219 6.085938 12.773438 C 6.074219 12.753906 6.007812 12.71875 5.9375 12.703125 C 5.820312 12.675781 5.8125 12.675781 5.777344 12.726562 Z M 5.90625 13.433594 C 5.925781 13.585938 5.929688 13.707031 5.921875 13.707031 C 5.863281 13.707031 5.613281 13.644531 5.59375 13.625 C 5.582031 13.613281 5.632812 13.5 5.710938 13.375 C 5.789062 13.246094 5.855469 13.148438 5.859375 13.15625 C 5.863281 13.160156 5.886719 13.289062 5.90625 13.433594 Z M 5.90625 13.433594 "/>
<path style=" stroke:none;fill-rule:nonzero;fill:rgb(0%,0%,0%);fill-opacity:1;" d="M 12.597656 12.828125 L 12.484375 12.910156 L 12.566406 13.039062 C 12.613281 13.113281 12.652344 13.171875 12.660156 13.171875 C 12.691406 13.171875 12.914062 13.007812 12.90625 12.992188 C 12.863281 12.898438 12.757812 12.746094 12.738281 12.75 C 12.722656 12.75 12.660156 12.785156 12.597656 12.828125 Z M 12.597656 12.828125 "/>
<path style=" stroke:none;fill-rule:nonzero;fill:rgb(0%,0%,0%);fill-opacity:1;" d="M 7.042969 13.839844 L 7.042969 14.71875 L 7.335938 14.71875 L 7.335938 14.117188 L 7.4375 14.019531 L 7.542969 13.917969 L 7.800781 14.320312 L 8.0625 14.71875 L 8.246094 14.71875 C 8.347656 14.71875 8.429688 14.710938 8.429688 14.703125 C 8.429688 14.695312 8.285156 14.476562 8.105469 14.21875 C 7.925781 13.960938 7.78125 13.726562 7.78125 13.703125 C 7.777344 13.675781 7.921875 13.507812 8.105469 13.324219 C 8.285156 13.144531 8.429688 12.988281 8.429688 12.980469 C 8.429688 12.96875 8.34375 12.960938 8.234375 12.960938 L 8.039062 12.960938 L 7.351562 13.710938 L 7.335938 12.960938 L 7.042969 12.960938 Z M 7.042969 13.839844 "/>
<path style=" stroke:none;fill-rule:nonzero;fill:rgb(0%,0%,0%);fill-opacity:1;" d="M 4.589844 13.769531 C 4.589844 13.777344 4.566406 13.84375 4.535156 13.921875 L 4.484375 14.054688 L 4.621094 14.121094 L 4.761719 14.179688 L 4.804688 14.082031 C 4.90625 13.863281 4.917969 13.886719 4.625 13.769531 C 4.605469 13.761719 4.589844 13.761719 4.589844 13.769531 Z M 4.589844 13.769531 "/>
<path style=" stroke:none;fill-rule:nonzero;fill:rgb(0%,0%,0%);fill-opacity:1;" d="M 10.625 13.886719 C 10.5625 13.910156 10.507812 13.9375 10.5 13.945312 C 10.480469 13.96875 10.5625 14.238281 10.585938 14.238281 C 10.652344 14.238281 10.855469 14.148438 10.855469 14.121094 C 10.855469 14.070312 10.773438 13.839844 10.753906 13.84375 C 10.746094 13.84375 10.6875 13.863281 10.625 13.886719 Z M 10.625 13.886719 "/>
<path style=" stroke:none;fill-rule:nonzero;fill:rgb(0%,0%,0%);fill-opacity:1;" d="M 6.5 14.46875 C 6.488281 14.550781 6.484375 14.625 6.488281 14.628906 C 6.492188 14.632812 6.5625 14.648438 6.636719 14.660156 C 6.796875 14.691406 6.789062 14.695312 6.8125 14.492188 L 6.828125 14.355469 L 6.707031 14.335938 C 6.515625 14.3125 6.519531 14.308594 6.5 14.46875 Z M 6.5 14.46875 "/>
<path style=" stroke:none;fill-rule:nonzero;fill:rgb(0%,0%,0%);fill-opacity:1;" d="M 8.710938 14.339844 C 8.503906 14.359375 8.503906 14.363281 8.515625 14.519531 C 8.523438 14.601562 8.535156 14.671875 8.539062 14.679688 C 8.546875 14.683594 8.617188 14.683594 8.691406 14.675781 L 8.828125 14.660156 L 8.828125 14.535156 C 8.824219 14.367188 8.804688 14.332031 8.710938 14.339844 Z M 8.710938 14.339844 "/>
</g>
</svg>
