<svg width="133" height="133" viewBox="0 0 133 133" fill="none" xmlns="http://www.w3.org/2000/svg">
<path d="M64.8946 0.503614C61.1592 2.19759 52.7965 4.16626 46.5524 4.85301C38.4684 5.72289 30.3287 5.26505 24.4191 3.57108L21.4643 2.74699L10.76 9.88916C4.85037 13.7807 0 17.1229 0 17.2602C0 17.4434 0.892022 19.1373 1.89554 21.0145C4.51586 25.6386 7.35918 32.7349 8.64145 37.6337C9.64498 41.4795 9.70073 42.212 9.70073 49.2169C9.70073 57.8699 9.36623 59.6554 6.13264 67.4843C3.73533 73.4819 2.89907 77.4193 3.17782 82.3639C3.56809 89.2313 6.18841 94.8626 11.7635 100.54C16.7254 105.622 22.5236 109.284 35.6251 115.648C55.3054 125.217 56.3089 125.72 62.553 130.253C64.6716 131.764 66.4556 133 66.5671 133C66.7344 133 68.2397 131.947 69.9122 130.711C75.9891 126.178 81.6757 123.019 95.1676 116.564C111.391 108.872 117.134 105.301 122.318 99.5325C127.671 93.5807 129.622 88.4072 129.566 80.1663C129.51 74.2602 128.841 71.3301 126.221 65.1494C123.545 58.8313 122.82 55.8096 122.82 49.5373C122.82 45.2795 122.988 43.5398 123.657 40.747C125.218 34.2 127.503 28.3398 131.35 20.9229C133.023 17.7181 133.246 17.0313 132.8 16.7566C132.521 16.5735 127.615 13.3229 121.872 9.56867L111.558 2.74699L108.548 3.57108C97.6206 6.54699 82.7908 5.63132 70.3582 1.23614C68.4069 0.549397 66.6786 0 66.4556 0C66.2326 0.0457825 65.5636 0.228915 64.8946 0.503614ZM69.5777 5.72289C81.4527 9.88916 95.2791 10.759 108.158 8.24097C110.332 7.82891 110.834 7.78313 111.447 8.19517C111.837 8.37832 115.517 10.8048 119.587 13.506L127.057 18.4506L126.11 20.2361C121.984 27.8819 118.862 37.4506 117.97 45.1422C117.189 51.8265 118.527 59.0145 121.761 66.0651C122.597 67.8506 123.378 69.9108 123.545 70.6434C123.768 71.8337 123.712 71.9711 122.151 73.1157C120.2 74.6265 116.242 75.9542 110.945 76.8699C106.151 77.694 99.6277 78.106 97.9552 77.7398C97.2861 77.6024 95.2791 76.6867 93.5508 75.7253C88.5889 72.8867 86.8049 72.3374 83.0138 72.3374C79.3342 72.3831 76.8811 72.9325 74.2608 74.3518L72.644 75.2675L70.86 74.3518C68.8529 73.2988 65.4521 72.2 64.2813 72.2C63.8353 72.2 62.9433 72.5663 62.3858 73.0241C61.1592 73.9855 60.9362 75.5422 61.8283 76.9614C62.3858 77.7398 62.33 77.7855 61.3823 77.9229C60.8247 78.0145 58.3717 78.106 55.9744 78.0602C53.5771 78.0145 51.347 78.106 50.9567 78.2892C50.6222 78.4723 49.563 79.2048 48.5594 79.8916L46.7754 81.2651H41.925C37.5764 81.2651 36.9632 81.1735 36.4056 80.6699C35.1791 79.5711 32.4473 78.9759 28.2102 78.8843C25.8129 78.8386 23.5271 78.6096 22.5236 78.3349C21.5758 78.0145 19.9032 77.8313 18.844 77.8313C17.1157 77.8313 16.5582 77.9687 15.6661 78.6554C14.9971 79.159 14.3838 79.8916 14.2724 80.3952C14.0493 81.1277 14.2723 81.3108 15.9449 82.2723C17.2829 82.959 17.8404 83.4627 17.6174 83.7373C16.9484 85.1566 16.3909 87.4916 16.5582 88.2699C16.8927 89.7807 17.3944 90.0096 20.405 90.0096C22.412 90.0096 24.0846 90.2386 26.1474 90.8337C32.3915 92.5277 36.6286 93.0771 44.0436 93.4434C51.9603 93.8096 52.4063 93.8554 57.3124 94.6795C61.3823 95.412 69.2432 95.8241 87.5296 96.3277C102.973 96.7398 108.158 96.4651 113.733 95.0916C116.799 94.3133 119.308 94.0843 119.81 94.4964C120.256 94.8626 116.966 98.388 113.733 100.998C108.994 104.843 104.98 106.995 87.7527 115.007C79.1112 118.99 73.8148 122.058 69.076 125.72L66.6229 127.552L64.0583 125.72C59.1522 122.149 54.5806 119.723 41.6463 113.588C32.8933 109.467 22.6908 103.836 19.6802 101.547C14.1608 97.3349 10.537 92.0241 8.92022 85.9349C7.63793 80.8988 8.41846 72.4289 10.7043 67.8048C11.9866 65.1494 13.6033 60.3422 14.3281 56.9542C14.9971 53.7494 15.2759 44.6386 14.7741 42.4867L14.4954 41.2964L17.3944 40.3807C22.189 38.8241 23.4713 38.641 28.7677 38.641C34.2313 38.7325 34.9561 38.8699 38.2454 40.6096C41.1445 42.1663 45.2143 43.4482 47.2214 43.4482C49.563 43.4482 52.5178 42.8072 54.8036 41.8916L56.9779 40.9759L58.4274 41.8916C61.2707 43.6771 65.6751 44.547 67.0689 43.6771C68.0724 43.0819 68.6299 40.9759 67.9609 40.1976C67.6821 39.8313 67.3477 39.053 67.1804 38.5036L66.9016 37.4964H77.3829L79.8917 36.0771L82.4005 34.7036L87.1951 34.6578C91.9897 34.6121 92.0455 34.6121 93.5508 35.5277C94.4428 36.0771 96.1154 36.6265 97.3976 36.8554C99.3489 37.2217 99.9064 37.1759 101.467 36.7638C102.527 36.4434 103.976 35.7108 104.757 35.0699C106.151 34.0169 106.206 33.9711 107.656 34.2916C110.109 34.9325 112.004 34.7952 113.008 33.9711C113.9 33.147 114.569 31.5904 114.569 30.2627C114.569 29.759 114.904 28.9349 115.35 28.3855C115.74 27.7904 116.074 27.1494 116.074 26.9205C116.074 26.7374 115.294 26.1422 114.29 25.6386C110.666 23.7157 106.206 22.7542 98.0667 22.2048C95.2791 21.9759 92.6588 21.6096 92.0455 21.3807C91.265 21.0602 88.8677 20.7855 84.1846 20.6024C77.6059 20.3277 74.1493 20.0072 71.8078 19.4121C71.1387 19.2289 63.7796 19.0458 55.4168 18.9084L40.2525 18.6795L38.0224 17.7639C35.8481 16.7566 35.7366 16.7566 29.827 16.7566C26.4819 16.7108 20.7395 16.7566 17.0599 16.8482C12.4883 16.9855 10.2025 16.9398 9.92373 16.6651C9.58923 16.4362 10.314 15.7952 12.4883 14.3301C19.513 9.56867 22.189 7.78313 22.4678 7.78313C22.635 7.78313 23.5828 8.01205 24.5863 8.28675C35.2906 10.9422 53.4098 9.66023 64.5043 5.40241C65.6194 5.03614 66.4556 4.66988 66.4556 4.66988C66.4556 4.66988 67.8494 5.12771 69.5777 5.72289ZM9.19897 18.6337C11.1503 19.2747 17.1714 19.3205 25.9244 18.8169C32.28 18.4506 34.4543 18.6337 38.0224 19.9614L40.5312 20.9229L55.1938 21.106C65.5636 21.2434 70.4697 21.4265 71.975 21.7012C75.5431 22.4795 79.836 22.8 85.1323 22.8C89.2022 22.8 90.4287 22.8916 91.1535 23.3036C91.711 23.5783 94.8888 24.6313 98.2896 25.6386C104.088 27.2867 104.534 27.5157 105.314 28.5687C106.541 30.3542 108.158 31.5446 109.997 32.0482C111.614 32.4145 111.28 32.6434 109.44 32.506C109.05 32.4602 105.426 31.041 101.467 29.347C91.265 25.0434 88.1429 24.2193 78.9997 23.5783C74.9856 23.3036 70.1352 22.9831 68.1282 22.8C62.4973 22.3422 61.661 22.388 61.661 23.1205C61.661 23.853 61.1592 23.7615 74.9856 24.9976C81.5643 25.5928 86.8606 26.2337 88.5332 26.6C91.8783 27.4241 98.3454 29.8964 98.0667 30.2627C97.7322 30.7663 98.6242 32.9181 99.4047 33.5133C99.8507 33.7879 100.631 34.0627 101.244 34.0627C101.969 34.0627 102.081 34.1084 101.635 34.3831C100.743 34.841 97.1189 34.7494 95.7251 34.2C95.0003 33.9253 94.1641 33.3301 93.8295 32.9181C93.272 32.2313 93.1048 32.1855 88.1429 32.1855C81.6758 32.1855 79.4457 31.8193 78.3307 30.5831C77.5502 29.7133 77.4386 29.6675 76.9926 30.1711C76.7696 30.4916 76.5466 31.2241 76.5466 31.8193C76.5466 32.8265 76.4909 32.8723 75.3201 32.6892C74.5953 32.5518 71.4732 32.3687 68.4069 32.2771C61.3822 32.0482 55.3054 32.7349 51.6815 34.0169C49.3957 34.8867 46.0506 35.6193 44.6011 35.6193C44.2108 35.6193 43.2631 35.2072 42.4825 34.7036C41.0888 33.7879 38.8587 33.4217 38.8587 34.0169C38.8587 34.6121 39.3047 35.2988 39.695 35.2988C39.918 35.2988 40.6985 35.6651 41.4233 36.1687C43.3188 37.359 46.3851 37.2675 50.901 35.9398C57.7584 33.8795 65.8981 33.2843 73.4245 34.2C77.3271 34.7036 78.4422 34.4747 78.4422 33.4217C78.4422 33.1012 78.5537 32.8265 78.7209 32.8265C79.1669 32.8265 80.1147 33.3759 79.9475 33.5133C77.2714 35.2988 77.5502 35.253 70.2467 35.2072C63.445 35.2072 63.3893 35.2072 60.9362 36.0771C59.5425 36.6265 57.3681 37.7253 56.0301 38.5494C52.7408 40.6096 51.347 41.0217 48.0019 41.0675C44.8798 41.1132 44.7126 41.0217 38.4127 38.0916L35.1234 36.5349H29.1022C22.5793 36.5349 20.2935 36.8554 16.4467 38.3205C15.2759 38.7325 14.3281 39.0072 14.2724 38.9614C14.2166 38.9157 13.7148 37.359 13.2131 35.4819C12.098 31.5904 9.53347 25.1807 7.47068 21.2892C5.74239 17.947 5.90964 17.6265 9.19897 18.6337ZM106.652 25.1349C107.489 26.1422 106.652 26.0506 103.753 24.9518L102.192 24.3566L104.311 24.5398C105.426 24.6771 106.485 24.9518 106.652 25.1349ZM113.064 26.8747C113.956 27.4241 113.956 27.5157 113.231 27.5157C112.283 27.5157 109.161 26.2337 108.938 25.7301C108.771 25.1807 111.781 26.0506 113.064 26.8747ZM109.44 29.2554C110.834 29.8048 111.168 30.3084 110.22 30.3084C109.496 30.3084 107.712 29.3928 107.712 29.0265C107.712 28.6602 107.879 28.6602 109.44 29.2554ZM101.746 31.3157L103.363 31.9566L102.304 32.2771C101.133 32.5976 100.297 32.2313 100.018 31.2241C99.7949 30.4458 99.7949 30.4458 101.746 31.3157ZM65.2848 38.5036C65.4521 39.053 65.7866 39.9229 66.0654 40.3349C66.6786 41.388 66.3999 42.4867 65.4521 42.4867C64.5043 42.4867 61.0477 41.388 59.4867 40.5639C58.4274 40.0145 58.3159 39.8313 58.6504 39.4651C59.4867 38.7325 62.553 37.5422 63.8353 37.4964C64.8946 37.4964 65.0618 37.6337 65.2848 38.5036ZM68.1282 74.9928C69.4105 75.5422 70.414 76.0458 70.414 76.1831C70.414 76.5494 67.2919 77.7398 65.7866 77.9687C64.5043 78.1518 64.5043 78.1518 63.8353 76.4578C63.4451 75.5422 63.222 74.5807 63.3336 74.3976C63.8353 73.8024 65.8424 74.0313 68.1282 74.9928ZM86.2474 74.8554C87.3066 75.1759 89.9827 76.3663 92.2128 77.5566C94.4986 78.7928 96.8401 79.8 97.6207 79.8916C98.5684 80.0289 99.1817 80.3036 99.3489 80.7615C100.631 83.1422 103.642 84.0578 106.764 83.0048C108.158 82.5012 108.325 82.3181 107.767 81.5855C107.489 81.2651 107.098 81.2193 105.705 81.5398C103.307 81.9976 102.917 81.9518 102.025 81.2651C100.966 80.3952 101.356 79.9831 103.14 79.9831C107.098 79.9831 117.858 77.8313 121.036 76.3663C121.928 75.9542 122.709 75.6795 122.82 75.6795C122.82 75.7711 123.099 77.4651 123.322 79.5711C123.824 83.8289 123.545 86.6217 122.207 89.6434C121.259 91.6578 120.033 92.4361 118.36 92.1157C117.914 92.0241 116.242 92.253 114.625 92.6651C113.008 93.0771 110.276 93.5807 108.492 93.8096C100.743 94.7711 64.0583 93.8554 57.4797 92.4819C55.9186 92.1615 51.9603 91.7494 48.7267 91.5663C45.4931 91.3831 41.256 91.1084 39.3605 90.9253C37.4092 90.7422 35.5694 90.6506 35.2906 90.6506C34.7889 90.6506 27.7642 86.3928 24.8094 84.3325C22.6908 82.8675 23.9731 82.547 27.4854 83.6458C28.3217 83.8289 30.3287 84.7904 32.057 85.706C37.7994 88.6361 42.148 90.0096 45.7161 90.0096C46.6639 90.0096 46.8312 89.8723 46.8312 89.2771C46.8312 88.5904 46.6081 88.453 44.8798 88.2699C41.479 87.9036 38.4684 86.9422 34.0641 84.7446C31.7783 83.6458 28.935 82.3639 27.8199 81.9976C25.0881 81.0819 25.9244 80.8072 29.9942 81.2193C33.2836 81.5855 35.1791 82.1807 35.5136 82.959C35.7366 83.3253 36.6844 83.4627 41.3675 83.4627H46.9426L48.5594 84.6988C50.3992 86.0265 51.5143 86.2096 54.0788 85.6145C54.8036 85.4313 56.3089 85.294 57.4239 85.2482C59.2637 85.2024 59.3752 85.1108 59.3752 84.4699C59.3752 84.0578 59.1522 83.6458 58.7619 83.5542C58.2602 83.3711 54.1346 83.8289 51.9603 84.241C51.347 84.3783 50.7337 84.1494 49.8417 83.4627L48.5594 82.5012L49.4515 81.906C49.9532 81.5855 50.6222 81.3566 50.9567 81.4482C51.347 81.494 53.8001 81.9976 56.4761 82.5012C59.2079 83.0506 62.8318 83.5542 64.5043 83.6458C67.2361 83.8289 68.0167 83.7373 71.3617 82.8675C77.1041 81.4024 81.3412 80.8988 86.9721 80.9904C92.826 81.0361 93.3278 81.0361 93.9968 80.6699C96.1711 79.5253 88.8119 78.7928 81.843 79.3879C79.613 79.6169 76.2121 80.1205 74.2608 80.5325C72.2538 80.9904 69.5777 81.5398 68.3512 81.8145C65.8424 82.3639 62.9433 82.1807 57.4797 81.0361L54.6363 80.4867L60.9362 80.3036C68.0167 80.0747 68.1282 80.0289 73.4245 77.2361C78.5537 74.4891 82.3448 73.8024 86.2474 74.8554ZM22.6908 80.5783L24.1403 81.1277L22.3005 81.6313C20.5165 82.1349 20.405 82.1349 18.9555 81.3566C18.1749 80.8988 17.5059 80.3952 17.5059 80.3036C17.5059 79.8 21.1298 79.9831 22.6908 80.5783ZM25.8129 87.0337C27.3182 88.0867 28.4332 88.9566 28.3774 89.0024C28.3217 89.0482 27.3182 88.8651 26.2031 88.5904C25.0881 88.2699 23.0253 87.9952 21.52 87.9952C19.6802 87.9952 18.844 87.8578 18.8997 87.5831C18.9555 87.4 18.9555 86.8964 19.0112 86.4843C19.0112 86.1181 19.4015 85.3398 19.7917 84.7446L20.5723 83.7373L21.8545 84.4241C22.5236 84.8361 24.3633 86.0265 25.8129 87.0337Z" fill="black"/>
<path d="M63.5566 46.241C59.877 46.7446 56.1416 48.8964 54.1346 51.6434C49.3957 58.1446 52.1833 66.5687 60.1 69.7735C62.3858 70.6892 62.9433 70.7807 65.8424 70.7807C68.5184 70.7807 69.4662 70.6434 71.1945 69.9566C76.9926 67.759 80.282 62.9976 79.8359 57.5036C79.2784 50.3614 71.6405 45.1422 63.5566 46.241ZM70.86 48.5759C75.0971 50.3614 77.8289 53.8867 77.8289 57.641C77.8289 61.3036 75.8776 63.4554 72.5883 63.4554C70.5812 63.4554 69.2989 62.8602 68.4627 61.4867C67.0131 59.106 67.8494 55.947 70.1909 55.306C71.2502 55.0313 71.5847 54.8024 71.5847 54.2072C71.5847 52.1928 69.4662 50.041 66.0654 48.6675L64.1698 47.8434L66.5671 47.7976C68.3512 47.7976 69.3547 47.9807 70.86 48.5759ZM65.3406 49.9952C67.1804 50.8651 67.9052 52.0096 67.9052 53.7952C67.9052 55.6723 67.0689 56.7711 64.6716 57.7325C62.7203 58.6024 61.4938 58.4651 60.2115 57.2747L59.3752 56.4506L58.2602 57.3663C56.4761 58.7397 55.8071 60.5711 56.0859 63.1807L56.3089 65.4241L55.5284 64.5542C54.5248 63.2265 53.6886 60.8 53.6886 59.0145C53.6886 52.9253 60.546 47.5687 65.3406 49.9952ZM64.6158 59.3807C66.7901 60.2048 67.9051 61.6241 67.5706 63.3639C67.4034 64.4169 67.4591 64.6916 68.1282 64.9663C69.968 65.7904 73.4803 65.1494 76.0449 63.547C77.6059 62.5855 77.7174 63.1349 76.2679 64.8747C73.1458 68.7205 67.4034 70.1855 62.6088 68.4916C57.9257 66.7976 56.1974 62.9518 58.9292 60.2964C60.546 58.6482 62.0513 58.4193 64.6158 59.3807Z" fill="black"/>
<path d="M34.2871 25.6385C33.6181 26.1879 32.8933 27.012 32.5588 27.5157C31.8898 28.6144 31.2765 31.7277 31.4995 33.0554C31.6668 33.9253 31.834 34.0626 32.5031 34.0169C33.2278 33.9253 33.3393 33.6506 33.5623 31.5446C33.7853 29.0723 34.3986 27.7904 35.9039 26.6C36.7402 26.0048 36.7959 25.7759 36.4614 25.2723C35.8481 24.494 35.6809 24.5398 34.2871 25.6385Z" fill="black"/>
<path d="M96.3384 84.012C96.3384 86.2096 95.3906 88.3615 93.9968 89.5518C92.8818 90.5133 92.826 90.6506 93.3835 91.2458L93.8853 91.9325L95.0561 91.1084C97.8436 89.1855 99.4047 82.5012 97.0631 82.5012C96.4499 82.5012 96.3384 82.7301 96.3384 84.012Z" fill="black"/>
</svg>
