<svg id="Capa_1" data-name="Capa 1" xmlns="http://www.w3.org/2000/svg" viewBox="0 0 391 391" height="70" width="70"><defs><style>.cls-1{fill:#f2af30;}.cls-2{fill:#c21a20;}</style></defs><path class="cls-1" d="M310.93,98c127-3.31,204.54,95.34,202,206.26-2.2,96.52-90.18,185.63-198.49,184.65C205.65,487.9,123,393.13,122,292.44,121,190.79,208.26,100.65,310.93,98Z" transform="translate(-122 -97.89)"></path><path d="M309.63,111c117.45-3.07,189.14,88.16,186.8,190.73-2,89.26-83.38,171.66-183.54,170.75-100.62-.91-177-88.55-178-181.65C134,196.82,214.69,113.46,309.63,111Z" transform="translate(-122 -97.89)"></path><path class="cls-2" d="M238.2,278.09c5.72-8.45,9.49-20.76,17.62-24.56,28.56-13.37,35.52-30.71,18.56-51.15-1.37-12.12-1.64-20.32,6.83-21.9,15.65-2.92,32.14-19.82,43.77-12,9.65,6.52-1.9,25.92-5,39.47-9.42,27.43-13.48,59.08-49.6,65.78-8.78,1.61-6.13,7.49-2.92,12.33,16.77,25.25,43.72,24.48,58.19-1.78,20.16-36.57,29.71-76.22,37.58-116.47,4.33-22.17-16.28-42.43-37.53-32.69-38.77,17.76-79.83,29.29-119.45,44.56C191,185.6,190.81,195,204.44,204c8.31,5.47,15.79,4,23-1.89,3.74-3.06,8.07-7.14,12.81-3,6.23,5.49,1.34,8.84-3.75,12.16a6.36,6.36,0,0,0-1.65,9.1c8.19,11.14-.31,19-5.84,27C221.68,258,213.37,268,205.35,278.2c-3,3.82-6.78,7.75-3.34,12.53,3.69,5.13,9.85,4.76,15.37,3.4C226.74,291.81,233.1,285.62,238.2,278.09Z" transform="translate(-122 -97.89)"></path><path class="cls-2" d="M436.4,366.18c-14.7-9.16-29.59-18.12-45-26.2-9.79-5.15-21.82-18.76-30.82-9.05-8.26,8.92,8.12,17.29,14.5,25.05,8.34,10.15,9.44,17.1-6.09,18.39-48.92,4.06-96,1.48-132.27-36.61-4.49-4.72-8.28-11.08-18.09-11.74,2.63,19.05,12.89,36.11,28.41,48.31,36.71,28.83,145.69,39.84,188,19C450.12,385.89,450.87,375.2,436.4,366.18Z" transform="translate(-122 -97.89)"></path><path class="cls-2" d="M455.11,286.41c-18.45-6.07-42-14.67-63.4-15-4.78,2.46-9.34-1.3-12.32,7.28-2.82,8.11,4.2,13.92,10.41,18.09,15.54,10.44,33,17.69,50.43,24.68,9.52,3.81,18.63,6.91,23.43-6.77C467.82,302.86,470.49,291.47,455.11,286.41Z" transform="translate(-122 -97.89)"></path><path class="cls-2" d="M176.86,380.59c.7,8,5.58,16.81,14.91,17,10.27.16,12.84-9.34,13.11-17.37.6-18.37.19-36.77.19-55.15C184.45,339.65,174.88,358.15,176.86,380.59Z" transform="translate(-122 -97.89)"></path><path class="cls-2" d="M291.66,314.9c-8.2,1.56-21.12.49-20.46,11.44-.29-4.76,3.64,20.45,18.27,21.08,13.56.59,14.07-10.06,14.84-23.25C304.8,319.26,302.45,312.86,291.66,314.9Z" transform="translate(-122 -97.89)"></path></svg>